<?xml version="1.0" encoding="UTF-8"?>
<svg xmlns="http://www.w3.org/2000/svg" xmlns:xlink="http://www.w3.org/1999/xlink" width="37.16" height="25.18" viewBox="0 0 37.16 25.18">
<defs>
<clipPath id="clip-0">
<path clip-rule="nonzero" d="M 0.179688 7 L 36 7 L 36 24.289062 L 0.179688 24.289062 Z M 0.179688 7 "/>
</clipPath>
<clipPath id="clip-1">
<path clip-rule="nonzero" d="M 0.179688 4 L 36.011719 4 L 36.011719 24.289062 L 0.179688 24.289062 Z M 0.179688 4 "/>
</clipPath>
<clipPath id="clip-2">
<path clip-rule="nonzero" d="M 0.179688 0 L 36 0 L 36 15 L 0.179688 15 Z M 0.179688 0 "/>
</clipPath>
<clipPath id="clip-3">
<path clip-rule="nonzero" d="M 0.179688 0 L 36.011719 0 L 36.011719 17 L 0.179688 17 Z M 0.179688 0 "/>
</clipPath>
<clipPath id="clip-4">
<path clip-rule="nonzero" d="M 15 15 L 26 15 L 26 24.289062 L 15 24.289062 Z M 15 15 "/>
</clipPath>
</defs>
<g clip-path="url(#clip-0)">
<path fill-rule="nonzero" fill="rgb(3.292847%, 48.297119%, 73.150635%)" fill-opacity="1" d="M 35.996094 7.121094 C 35.996094 10.945312 28.019531 14.046875 18.1875 14.046875 C 8.347656 14.046875 0.371094 10.945312 0.371094 7.121094 L 0.371094 17.265625 C 0.371094 21.089844 8.347656 24.191406 18.1875 24.191406 C 28.019531 24.191406 35.996094 21.089844 35.996094 17.265625 L 35.996094 7.121094 "/>
</g>
<g clip-path="url(#clip-1)">
<path fill="none" stroke-width="3.99994" stroke-linecap="butt" stroke-linejoin="miter" stroke="rgb(100%, 100%, 100%)" stroke-opacity="1" stroke-miterlimit="4" d="M 369.83258 178.270041 C 369.83258 138.782476 287.469346 106.756811 185.94718 106.756811 C 84.344346 106.756811 1.981111 138.782476 1.981111 178.270041 L 1.981111 73.521108 C 1.981111 34.033543 84.344346 2.007878 185.94718 2.007878 C 287.469346 2.007878 369.83258 34.033543 369.83258 73.521108 Z M 369.83258 178.270041 " transform="matrix(0.0968462, 0, 0, -0.0968462, 0.179231, 24.385862)"/>
</g>
<g clip-path="url(#clip-2)">
<path fill-rule="nonzero" fill="rgb(3.292847%, 48.297119%, 73.150635%)" fill-opacity="1" d="M 18.1875 14.046875 C 28.019531 14.046875 35.996094 10.945312 35.996094 7.121094 C 35.996094 3.292969 28.019531 0.191406 18.1875 0.191406 C 8.347656 0.191406 0.371094 3.292969 0.371094 7.121094 C 0.371094 10.945312 8.347656 14.046875 18.1875 14.046875 "/>
</g>
<g clip-path="url(#clip-3)">
<path fill="none" stroke-width="3.99994" stroke-linecap="butt" stroke-linejoin="miter" stroke="rgb(100%, 100%, 100%)" stroke-opacity="1" stroke-miterlimit="4" d="M 185.94718 106.756811 C 287.469346 106.756811 369.83258 138.782476 369.83258 178.270041 C 369.83258 217.79794 287.469346 249.823605 185.94718 249.823605 C 84.344346 249.823605 1.981111 217.79794 1.981111 178.270041 C 1.981111 138.782476 84.344346 106.756811 185.94718 106.756811 Z M 185.94718 106.756811 " transform="matrix(0.0968462, 0, 0, -0.0968462, 0.179231, 24.385862)"/>
</g>
<path fill-rule="nonzero" fill="rgb(100%, 100%, 100%)" fill-opacity="1" d="M 14.117188 4.410156 L 15.589844 6.617188 L 10.027344 7.902344 L 11.242188 6.890625 L 2.648438 5.421875 L 4.804688 3.804688 L 13.097656 5.210938 L 14.117188 4.410156 "/>
<path fill-rule="nonzero" fill="rgb(100%, 100%, 100%)" fill-opacity="1" d="M 21.941406 9.761719 L 20.9375 7.488281 L 25.953125 6.484375 L 25.082031 7.265625 L 33.441406 8.691406 L 31.4375 10.296875 L 23.125 8.734375 L 21.941406 9.761719 "/>
<path fill-rule="nonzero" fill="rgb(100%, 100%, 100%)" fill-opacity="1" d="M 19.199219 3.207031 L 24.816406 1.667969 L 24.882812 4.078125 L 23.476562 3.808594 L 20.738281 6.082031 L 18.121094 5.703125 L 20.949219 3.476562 L 19.199219 3.207031 "/>
<path fill-rule="nonzero" fill="rgb(100%, 100%, 100%)" fill-opacity="1" d="M 16.792969 11.835938 L 11.441406 12.839844 L 11.242188 10.363281 L 12.78125 10.699219 L 15.726562 8.183594 L 18.332031 8.625 L 15.1875 11.367188 L 16.792969 11.835938 "/>
<path fill-rule="nonzero" fill="rgb(100%, 100%, 100%)" fill-opacity="1" d="M 26.21875 19.160156 C 26.21875 21.355469 22.757812 23.136719 18.492188 23.136719 C 14.222656 23.136719 10.765625 21.355469 10.765625 19.160156 C 10.765625 16.964844 14.222656 15.1875 18.492188 15.1875 C 22.757812 15.1875 26.21875 16.964844 26.21875 19.160156 "/>
<path fill-rule="nonzero" fill="rgb(3.292847%, 48.297119%, 73.150635%)" fill-opacity="1" d="M 13.757812 19.800781 L 16.144531 17.410156 L 14.976562 16.242188 L 18.585938 15.988281 L 18.382812 19.648438 L 17.113281 18.375 L 14.722656 20.765625 L 13.757812 19.800781 "/>
<path fill="none" stroke-width="3.99994" stroke-linecap="butt" stroke-linejoin="miter" stroke="rgb(100%, 100%, 100%)" stroke-opacity="1" stroke-miterlimit="4" d="M 140.207754 47.343958 L 164.852189 72.028728 L 152.792147 84.088771 L 190.061309 86.710519 L 187.96391 48.917008 L 174.855168 62.066084 L 150.170398 37.381315 Z M 140.207754 47.343958 " transform="matrix(0.0968462, 0, 0, -0.0968462, 0.179231, 24.385862)"/>
<path fill-rule="nonzero" fill="rgb(3.292847%, 48.297119%, 73.150635%)" fill-opacity="1" d="M 18.050781 21.730469 L 20.441406 19.339844 L 19.273438 18.167969 L 22.878906 17.914062 L 22.675781 21.578125 L 21.402344 20.304688 L 19.019531 22.695312 L 18.050781 21.730469 "/>
<g clip-path="url(#clip-4)">
<path fill="none" stroke-width="3.99994" stroke-linecap="butt" stroke-linejoin="miter" stroke="rgb(100%, 100%, 100%)" stroke-opacity="1" stroke-miterlimit="4" d="M 184.53547 27.418671 L 209.220239 52.10344 L 197.160197 64.203818 L 234.389024 66.825566 L 232.291625 28.99172 L 219.142549 42.140796 L 194.538448 17.456027 Z M 184.53547 27.418671 " transform="matrix(0.0968462, 0, 0, -0.0968462, 0.179231, 24.385862)"/>
</g>
</svg>
