<?xml version="1.0" encoding="UTF-8"?>
<svg xmlns="http://www.w3.org/2000/svg" xmlns:xlink="http://www.w3.org/1999/xlink" width="50.81" height="28.29" viewBox="0 0 50.81 28.29">
<defs>
<clipPath id="clip-0">
<path clip-rule="nonzero" d="M 14 22 L 50.085938 22 L 50.085938 27.402344 L 14 27.402344 Z M 14 22 "/>
</clipPath>
<clipPath id="clip-1">
<path clip-rule="nonzero" d="M 14 0 L 23 0 L 23 27.402344 L 14 27.402344 Z M 14 0 "/>
</clipPath>
<clipPath id="clip-2">
<path clip-rule="nonzero" d="M 14 4 L 43 4 L 43 27.402344 L 14 27.402344 Z M 14 4 "/>
</clipPath>
<clipPath id="clip-3">
<path clip-rule="nonzero" d="M 41 0 L 50.085938 0 L 50.085938 27.402344 L 41 27.402344 Z M 41 0 "/>
</clipPath>
<clipPath id="clip-4">
<path clip-rule="nonzero" d="M 14 0 L 50.085938 0 L 50.085938 6 L 14 6 Z M 14 0 "/>
</clipPath>
<clipPath id="clip-5">
<path clip-rule="nonzero" d="M 0.53125 14 L 14 14 L 14 16 L 0.53125 16 Z M 0.53125 14 "/>
</clipPath>
</defs>
<g clip-path="url(#clip-0)">
<path fill="none" stroke-width="8" stroke-linecap="round" stroke-linejoin="round" stroke="rgb(0.784302%, 42.352295%, 60.78186%)" stroke-opacity="1" stroke-miterlimit="4" d="M 424.273982 4.001482 L 147.497736 4.001482 L 224.86054 50.651414 L 504.119444 51.051843 Z M 424.273982 4.001482 " transform="matrix(0.0975517, 0, 0, -0.0975517, 0.52931, 27.597383)"/>
</g>
<g clip-path="url(#clip-1)">
<path fill="none" stroke-width="8" stroke-linecap="round" stroke-linejoin="round" stroke="rgb(0.784302%, 42.352295%, 60.78186%)" stroke-opacity="1" stroke-miterlimit="4" d="M 224.86054 50.651414 L 147.497736 4.001482 L 147.457693 233.286897 L 224.900583 278.174943 Z M 224.86054 50.651414 " transform="matrix(0.0975517, 0, 0, -0.0975517, 0.52931, 27.597383)"/>
</g>
<path fill-rule="nonzero" fill="rgb(0%, 0%, 0%)" fill-opacity="1" d="M 45.074219 11.242188 C 45.074219 14.035156 39.253906 16.300781 32.070312 16.300781 C 24.886719 16.300781 19.0625 14.035156 19.0625 11.242188 L 19.0625 18.652344 C 19.0625 21.445312 24.886719 23.710938 32.070312 23.710938 C 39.253906 23.710938 45.074219 21.445312 45.074219 18.652344 L 45.074219 11.242188 "/>
<path fill="none" stroke-width="4.2" stroke-linecap="butt" stroke-linejoin="miter" stroke="rgb(100%, 100%, 100%)" stroke-opacity="1" stroke-miterlimit="4" d="M 456.628612 167.65665 C 456.628612 139.026005 396.964751 115.801147 323.325932 115.801147 C 249.687113 115.801147 189.98321 139.026005 189.98321 167.65665 L 189.98321 91.695345 C 189.98321 63.0647 249.687113 39.839842 323.325932 39.839842 C 396.964751 39.839842 456.628612 63.0647 456.628612 91.695345 Z M 456.628612 167.65665 " transform="matrix(0.0975517, 0, 0, -0.0975517, 0.52931, 27.597383)"/>
<path fill-rule="nonzero" fill="rgb(0.784302%, 42.352295%, 60.78186%)" fill-opacity="1" d="M 45.074219 11.242188 C 45.074219 14.035156 39.253906 16.300781 32.070312 16.300781 C 24.886719 16.300781 19.0625 14.035156 19.0625 11.242188 L 19.0625 18.652344 C 19.0625 21.445312 24.886719 23.710938 32.070312 23.710938 C 39.253906 23.710938 45.074219 21.445312 45.074219 18.652344 L 45.074219 11.242188 "/>
<path fill="none" stroke-width="4" stroke-linecap="butt" stroke-linejoin="miter" stroke="rgb(100%, 100%, 100%)" stroke-opacity="1" stroke-miterlimit="4" d="M 456.628612 167.65665 C 456.628612 139.026005 396.964751 115.801147 323.325932 115.801147 C 249.687113 115.801147 189.98321 139.026005 189.98321 167.65665 L 189.98321 91.695345 C 189.98321 63.0647 249.687113 39.839842 323.325932 39.839842 C 396.964751 39.839842 456.628612 63.0647 456.628612 91.695345 Z M 456.628612 167.65665 " transform="matrix(0.0975517, 0, 0, -0.0975517, 0.52931, 27.597383)"/>
<path fill-rule="nonzero" fill="rgb(0.784302%, 42.352295%, 60.78186%)" fill-opacity="1" d="M 32.070312 16.300781 C 39.253906 16.300781 45.074219 14.035156 45.074219 11.242188 C 45.074219 8.449219 39.253906 6.1875 32.070312 6.1875 C 24.886719 6.1875 19.0625 8.449219 19.0625 11.242188 C 19.0625 14.035156 24.886719 16.300781 32.070312 16.300781 "/>
<path fill="none" stroke-width="4" stroke-linecap="butt" stroke-linejoin="miter" stroke="rgb(100%, 100%, 100%)" stroke-opacity="1" stroke-miterlimit="4" d="M 323.325932 115.801147 C 396.964751 115.801147 456.628612 139.026005 456.628612 167.65665 C 456.628612 196.287295 396.964751 219.47211 323.325932 219.47211 C 249.687113 219.47211 189.98321 196.287295 189.98321 167.65665 C 189.98321 139.026005 249.687113 115.801147 323.325932 115.801147 Z M 323.325932 115.801147 " transform="matrix(0.0975517, 0, 0, -0.0975517, 0.52931, 27.597383)"/>
<path fill-rule="nonzero" fill="rgb(100%, 100%, 100%)" fill-opacity="1" d="M 29.222656 9.21875 L 30.3125 10.851562 L 26.195312 11.804688 L 27.09375 11.054688 L 20.730469 9.964844 L 22.324219 8.769531 L 28.464844 9.808594 L 29.222656 9.21875 "/>
<path fill-rule="nonzero" fill="rgb(100%, 100%, 100%)" fill-opacity="1" d="M 35.015625 13.179688 L 34.273438 11.496094 L 37.988281 10.75 L 37.34375 11.328125 L 43.535156 12.386719 L 42.050781 13.574219 L 35.898438 12.417969 L 35.015625 13.179688 "/>
<path fill-rule="nonzero" fill="rgb(100%, 100%, 100%)" fill-opacity="1" d="M 32.988281 8.324219 L 37.148438 7.1875 L 37.195312 8.96875 L 36.15625 8.769531 L 34.125 10.457031 L 32.1875 10.171875 L 34.285156 8.523438 L 32.988281 8.324219 "/>
<path fill-rule="nonzero" fill="rgb(100%, 100%, 100%)" fill-opacity="1" d="M 31.203125 14.714844 L 27.242188 15.457031 L 27.09375 13.625 L 28.230469 13.871094 L 30.414062 12.007812 L 32.34375 12.335938 L 30.015625 14.367188 L 31.203125 14.714844 "/>
<g clip-path="url(#clip-2)">
<path fill="none" stroke-width="8" stroke-linecap="round" stroke-linejoin="round" stroke="rgb(0.784302%, 42.352295%, 60.78186%)" stroke-opacity="1" stroke-miterlimit="4" d="M 424.273982 4.001482 L 147.497736 4.001482 L 147.457693 233.286897 L 424.233939 233.286897 Z M 424.273982 4.001482 " transform="matrix(0.0975517, 0, 0, -0.0975517, 0.52931, 27.597383)"/>
</g>
<g clip-path="url(#clip-3)">
<path fill="none" stroke-width="8" stroke-linecap="round" stroke-linejoin="round" stroke="rgb(0.784302%, 42.352295%, 60.78186%)" stroke-opacity="1" stroke-miterlimit="4" d="M 504.119444 51.051843 L 424.273982 4.001482 L 424.233939 233.286897 L 504.039358 278.935757 Z M 504.119444 51.051843 " transform="matrix(0.0975517, 0, 0, -0.0975517, 0.52931, 27.597383)"/>
</g>
<g clip-path="url(#clip-4)">
<path fill="none" stroke-width="8" stroke-linecap="round" stroke-linejoin="round" stroke="rgb(0.784302%, 42.352295%, 60.78186%)" stroke-opacity="1" stroke-miterlimit="4" d="M 424.233939 233.286897 L 147.457693 233.286897 L 224.900583 278.174943 L 504.039358 278.935757 Z M 424.233939 233.286897 " transform="matrix(0.0975517, 0, 0, -0.0975517, 0.52931, 27.597383)"/>
</g>
<g clip-path="url(#clip-5)">
<path fill="none" stroke-width="8" stroke-linecap="round" stroke-linejoin="round" stroke="rgb(0.784302%, 42.352295%, 60.78186%)" stroke-opacity="1" stroke-miterlimit="4" d="M 3.984126 132.779319 L 134.003292 132.779319 " transform="matrix(0.0975517, 0, 0, -0.0975517, 0.52931, 27.597383)"/>
</g>
<path fill="none" stroke-width="8" stroke-linecap="round" stroke-linejoin="round" stroke="rgb(0.784302%, 42.352295%, 60.78186%)" stroke-opacity="1" stroke-miterlimit="4" d="M 45.668743 94.69856 L 132.321492 94.69856 " transform="matrix(0.0975517, 0, 0, -0.0975517, 0.52931, 27.597383)"/>
<path fill="none" stroke-width="8" stroke-linecap="round" stroke-linejoin="round" stroke="rgb(0.784302%, 42.352295%, 60.78186%)" stroke-opacity="1" stroke-miterlimit="4" d="M 134.003292 185.836108 L 62.326573 185.836108 " transform="matrix(0.0975517, 0, 0, -0.0975517, 0.52931, 27.597383)"/>
<path fill="none" stroke-width="8" stroke-linecap="round" stroke-linejoin="round" stroke="rgb(0.784302%, 42.352295%, 60.78186%)" stroke-opacity="1" stroke-miterlimit="4" d="M 29.010914 151.799677 L 132.321492 151.799677 " transform="matrix(0.0975517, 0, 0, -0.0975517, 0.52931, 27.597383)"/>
</svg>
