<?xml version="1.0" encoding="UTF-8"?>
<svg xmlns="http://www.w3.org/2000/svg" xmlns:xlink="http://www.w3.org/1999/xlink" width="36.88" height="16.43" viewBox="0 0 36.88 16.43">
<defs>
<clipPath id="clip-0">
<path clip-rule="nonzero" d="M 1 0.0273438 L 36 0.0273438 L 36 6 L 1 6 Z M 1 0.0273438 "/>
</clipPath>
<clipPath id="clip-1">
<path clip-rule="nonzero" d="M 0.558594 0.0273438 L 36.203125 0.0273438 L 36.203125 9 L 0.558594 9 Z M 0.558594 0.0273438 "/>
</clipPath>
<clipPath id="clip-2">
<path clip-rule="nonzero" d="M 30 0.0273438 L 36 0.0273438 L 36 15.492188 L 30 15.492188 Z M 30 0.0273438 "/>
</clipPath>
<clipPath id="clip-3">
<path clip-rule="nonzero" d="M 28 0.0273438 L 36.203125 0.0273438 L 36.203125 15.492188 L 28 15.492188 Z M 28 0.0273438 "/>
</clipPath>
<clipPath id="clip-4">
<path clip-rule="nonzero" d="M 1 5 L 31 5 L 31 15.492188 L 1 15.492188 Z M 1 5 "/>
</clipPath>
<clipPath id="clip-5">
<path clip-rule="nonzero" d="M 0.558594 5 L 31 5 L 31 15.492188 L 0.558594 15.492188 Z M 0.558594 5 "/>
</clipPath>
</defs>
<g clip-path="url(#clip-0)">
<path fill-rule="nonzero" fill="rgb(3.292847%, 48.297119%, 73.150635%)" fill-opacity="1" d="M 1.148438 5.953125 L 8.582031 0.457031 L 35.746094 0.457031 L 30.339844 5.953125 L 1.148438 5.953125 "/>
</g>
<g clip-path="url(#clip-1)">
<path fill="none" stroke-width="3.99994" stroke-linecap="butt" stroke-linejoin="miter" stroke="rgb(100%, 100%, 100%)" stroke-opacity="1" stroke-miterlimit="4" d="M 6.085476 102.703454 L 83.000323 159.571131 L 364.064878 159.571131 L 308.126807 102.703454 Z M 6.085476 102.703454 " transform="matrix(0.0966471, 0, 0, -0.0966471, 0.560294, 15.879112)"/>
</g>
<g clip-path="url(#clip-2)">
<path fill-rule="nonzero" fill="rgb(3.292847%, 48.297119%, 73.150635%)" fill-opacity="1" d="M 30.339844 15.410156 L 35.746094 9.929688 L 35.746094 0.472656 L 30.339844 5.953125 L 30.339844 15.410156 "/>
</g>
<g clip-path="url(#clip-3)">
<path fill="none" stroke-width="3.99994" stroke-linecap="butt" stroke-linejoin="miter" stroke="rgb(100%, 100%, 100%)" stroke-opacity="1" stroke-miterlimit="4" d="M 308.126807 4.852248 L 364.064878 61.558255 L 364.064878 159.409461 L 308.126807 102.703454 Z M 308.126807 4.852248 " transform="matrix(0.0966471, 0, 0, -0.0966471, 0.560294, 15.879112)"/>
</g>
<g clip-path="url(#clip-4)">
<path fill-rule="nonzero" fill="rgb(3.292847%, 48.297119%, 73.150635%)" fill-opacity="1" d="M 1.1875 15.417969 L 30.339844 15.417969 L 30.339844 5.953125 L 1.1875 5.953125 Z M 1.1875 15.417969 "/>
</g>
<g clip-path="url(#clip-5)">
<path fill="none" stroke-width="3.99994" stroke-linecap="butt" stroke-linejoin="miter" stroke="rgb(100%, 100%, 100%)" stroke-opacity="1" stroke-miterlimit="4" d="M 308.126807 4.771413 L 308.126807 102.703454 L 6.489653 102.703454 L 6.489653 4.771413 Z M 308.126807 4.771413 " transform="matrix(0.0966471, 0, 0, -0.0966471, 0.560294, 15.879112)"/>
</g>
<path fill="none" stroke-width="4.49997" stroke-linecap="round" stroke-linejoin="miter" stroke="rgb(100%, 100%, 100%)" stroke-opacity="1" stroke-miterlimit="1" d="M 284.118704 52.989706 C 284.118704 52.989706 264.556547 2.669693 241.033456 53.151377 C 217.550784 103.592643 197.907791 53.27263 197.907791 53.27263 C 197.907791 53.27263 178.386051 2.912199 154.86296 53.353465 C 131.380288 103.794731 111.858548 53.030124 111.858548 53.030124 C 111.858548 53.030124 92.336808 2.669693 68.813717 53.151377 C 45.331045 103.592643 25.809305 53.27263 25.809305 53.27263 " transform="matrix(0.0966471, 0, 0, -0.0966471, 0.560294, 15.879112)"/>
<path fill="none" stroke-width="8.99994" stroke-linecap="round" stroke-linejoin="miter" stroke="rgb(100%, 100%, 100%)" stroke-opacity="1" stroke-miterlimit="1" d="M 25.809305 52.989706 C 25.809305 52.989706 45.371462 2.669693 68.894553 53.151377 C 92.417643 103.592643 112.020218 53.27263 112.020218 53.27263 C 112.020218 53.27263 131.582376 2.912199 155.065049 53.353465 C 178.588139 103.794731 198.069461 53.030124 198.069461 53.030124 C 198.069461 53.030124 217.591201 2.669693 241.114292 53.151377 C 264.637382 103.592643 284.118704 53.27263 284.118704 53.27263 " transform="matrix(0.0966471, 0, 0, -0.0966471, 0.560294, 15.879112)"/>
<path fill="none" stroke-width="4.49997" stroke-linecap="round" stroke-linejoin="miter" stroke="rgb(13.729858%, 12.159729%, 12.548828%)" stroke-opacity="1" stroke-miterlimit="1" d="M 288.685902 52.989706 C 288.685902 52.989706 269.083327 2.669693 245.560237 53.151377 C 222.077564 103.592643 202.474989 53.27263 202.474989 53.27263 C 202.474989 53.27263 182.912831 2.912199 159.389741 53.353465 C 135.907068 103.794731 116.385328 53.030124 116.385328 53.030124 C 116.385328 53.030124 96.863588 2.669693 73.340498 53.151377 C 49.857825 103.592643 30.336085 53.27263 30.336085 53.27263 " transform="matrix(0.0966471, 0, 0, -0.0966471, 0.560294, 15.879112)"/>
<path fill="none" stroke-width="8.99994" stroke-linecap="round" stroke-linejoin="miter" stroke="rgb(13.729858%, 12.159729%, 12.548828%)" stroke-opacity="1" stroke-miterlimit="1" d="M 30.336085 52.989706 C 30.336085 52.989706 49.898243 2.669693 73.421333 53.151377 C 96.944423 103.592643 116.546999 53.27263 116.546999 53.27263 C 116.546999 53.27263 136.109156 2.912199 159.591829 53.353465 C 183.114919 103.794731 202.596242 53.030124 202.596242 53.030124 C 202.596242 53.030124 222.117982 2.669693 245.641072 53.151377 C 269.164162 103.592643 288.685902 53.27263 288.685902 53.27263 " transform="matrix(0.0966471, 0, 0, -0.0966471, 0.560294, 15.879112)"/>
<path fill="none" stroke-width="4.49997" stroke-linecap="round" stroke-linejoin="miter" stroke="rgb(100%, 100%, 100%)" stroke-opacity="1" stroke-miterlimit="1" d="M 284.118704 52.989706 C 284.118704 52.989706 264.556547 2.669693 241.033456 53.151377 C 217.550784 103.592643 197.907791 53.27263 197.907791 53.27263 C 197.907791 53.27263 178.386051 2.912199 154.86296 53.353465 C 131.380288 103.794731 111.858548 53.030124 111.858548 53.030124 C 111.858548 53.030124 92.336808 2.669693 68.813717 53.151377 C 45.331045 103.592643 25.809305 53.27263 25.809305 53.27263 " transform="matrix(0.0966471, 0, 0, -0.0966471, 0.560294, 15.879112)"/>
<path fill="none" stroke-width="8.99994" stroke-linecap="round" stroke-linejoin="miter" stroke="rgb(100%, 100%, 100%)" stroke-opacity="1" stroke-miterlimit="1" d="M 25.809305 52.989706 C 25.809305 52.989706 45.371462 2.669693 68.894553 53.151377 C 92.417643 103.592643 112.020218 53.27263 112.020218 53.27263 C 112.020218 53.27263 131.582376 2.912199 155.065049 53.353465 C 178.588139 103.794731 198.069461 53.030124 198.069461 53.030124 C 198.069461 53.030124 217.591201 2.669693 241.114292 53.151377 C 264.637382 103.592643 284.118704 53.27263 284.118704 53.27263 " transform="matrix(0.0966471, 0, 0, -0.0966471, 0.560294, 15.879112)"/>
<path fill="none" stroke-width="4.49997" stroke-linecap="round" stroke-linejoin="miter" stroke="rgb(13.729858%, 12.159729%, 12.548828%)" stroke-opacity="1" stroke-miterlimit="1" d="M 288.685902 52.989706 C 288.685902 52.989706 269.083327 2.669693 245.560237 53.151377 C 222.077564 103.592643 202.474989 53.27263 202.474989 53.27263 C 202.474989 53.27263 182.912831 2.912199 159.389741 53.353465 C 135.907068 103.794731 116.385328 53.030124 116.385328 53.030124 C 116.385328 53.030124 96.863588 2.669693 73.340498 53.151377 C 49.857825 103.592643 30.336085 53.27263 30.336085 53.27263 " transform="matrix(0.0966471, 0, 0, -0.0966471, 0.560294, 15.879112)"/>
<path fill="none" stroke-width="8.99994" stroke-linecap="round" stroke-linejoin="miter" stroke="rgb(13.729858%, 12.159729%, 12.548828%)" stroke-opacity="1" stroke-miterlimit="1" d="M 30.336085 52.989706 C 30.336085 52.989706 49.898243 2.669693 73.421333 53.151377 C 96.944423 103.592643 116.546999 53.27263 116.546999 53.27263 C 116.546999 53.27263 136.109156 2.912199 159.591829 53.353465 C 183.114919 103.794731 202.596242 53.030124 202.596242 53.030124 C 202.596242 53.030124 222.117982 2.669693 245.641072 53.151377 C 269.164162 103.592643 288.685902 53.27263 288.685902 53.27263 " transform="matrix(0.0966471, 0, 0, -0.0966471, 0.560294, 15.879112)"/>
<path fill="none" stroke-width="4.49997" stroke-linecap="round" stroke-linejoin="miter" stroke="rgb(100%, 100%, 100%)" stroke-opacity="1" stroke-miterlimit="1" d="M 284.118704 52.989706 C 284.118704 52.989706 264.556547 2.669693 241.033456 53.151377 C 217.550784 103.592643 197.907791 53.27263 197.907791 53.27263 C 197.907791 53.27263 178.386051 2.912199 154.86296 53.353465 C 131.380288 103.794731 111.858548 53.030124 111.858548 53.030124 C 111.858548 53.030124 92.336808 2.669693 68.813717 53.151377 C 45.331045 103.592643 25.809305 53.27263 25.809305 53.27263 " transform="matrix(0.0966471, 0, 0, -0.0966471, 0.560294, 15.879112)"/>
<path fill="none" stroke-width="8.99994" stroke-linecap="round" stroke-linejoin="miter" stroke="rgb(100%, 100%, 100%)" stroke-opacity="1" stroke-miterlimit="1" d="M 25.809305 52.989706 C 25.809305 52.989706 45.371462 2.669693 68.894553 53.151377 C 92.417643 103.592643 112.020218 53.27263 112.020218 53.27263 C 112.020218 53.27263 131.582376 2.912199 155.065049 53.353465 C 178.588139 103.794731 198.069461 53.030124 198.069461 53.030124 C 198.069461 53.030124 217.591201 2.669693 241.114292 53.151377 C 264.637382 103.592643 284.118704 53.27263 284.118704 53.27263 " transform="matrix(0.0966471, 0, 0, -0.0966471, 0.560294, 15.879112)"/>
</svg>
