<?xml version="1.0" encoding="UTF-8"?>
<svg xmlns="http://www.w3.org/2000/svg" xmlns:xlink="http://www.w3.org/1999/xlink" width="43.53" height="31.59" viewBox="0 0 43.53 31.59">
<defs>
<clipPath id="clip-0">
<path clip-rule="nonzero" d="M 0.046875 5 L 39 5 L 39 31 L 0.046875 31 Z M 0.046875 5 "/>
</clipPath>
<clipPath id="clip-1">
<path clip-rule="nonzero" d="M 36 0 L 43.019531 0 L 43.019531 31.183594 L 36 31.183594 Z M 36 0 "/>
</clipPath>
<clipPath id="clip-2">
<path clip-rule="nonzero" d="M 0.046875 0 L 43 0 L 43 6 L 0.046875 6 Z M 0.046875 0 "/>
</clipPath>
<clipPath id="clip-3">
<path clip-rule="nonzero" d="M 0.046875 0 L 43.019531 0 L 43.019531 9 L 0.046875 9 Z M 0.046875 0 "/>
</clipPath>
</defs>
<g clip-path="url(#clip-0)">
<path fill-rule="nonzero" fill="rgb(3.292847%, 48.298645%, 73.153687%)" fill-opacity="1" d="M 0.605469 30.546875 L 38.265625 30.546875 L 38.265625 5.804688 L 0.605469 5.804688 L 0.605469 30.546875 "/>
<path fill="none" stroke-width="4" stroke-linecap="butt" stroke-linejoin="miter" stroke="rgb(100%, 100%, 100%)" stroke-opacity="1" stroke-miterlimit="4" d="M 5.658436 6.466635 L 387.147832 6.466635 L 387.147832 257.099747 L 5.658436 257.099747 Z M 5.658436 6.466635 " transform="matrix(0.0987188, 0, 0, -0.0987188, 0.046875, 31.185253)"/>
</g>
<path fill-rule="nonzero" fill="rgb(3.292847%, 48.298645%, 73.153687%)" fill-opacity="1" d="M 42.597656 24.210938 L 38.265625 30.546875 L 38.265625 5.804688 L 42.597656 0.550781 L 42.597656 24.210938 "/>
<g clip-path="url(#clip-1)">
<path fill="none" stroke-width="4" stroke-linecap="butt" stroke-linejoin="miter" stroke="rgb(100%, 100%, 100%)" stroke-opacity="1" stroke-miterlimit="4" d="M 431.030389 70.648338 L 387.147832 6.466635 L 387.147832 257.099747 L 431.030389 310.320703 Z M 431.030389 70.648338 " transform="matrix(0.0987188, 0, 0, -0.0987188, 0.046875, 31.185253)"/>
</g>
<g clip-path="url(#clip-2)">
<path fill-rule="nonzero" fill="rgb(3.292847%, 48.298645%, 73.153687%)" fill-opacity="1" d="M 7.105469 0.550781 L 42.597656 0.550781 L 38.265625 5.804688 L 0.605469 5.804688 L 7.105469 0.550781 "/>
</g>
<g clip-path="url(#clip-3)">
<path fill="none" stroke-width="4" stroke-linecap="butt" stroke-linejoin="miter" stroke="rgb(100%, 100%, 100%)" stroke-opacity="1" stroke-miterlimit="4" d="M 71.502058 310.320703 L 431.030389 310.320703 L 387.147832 257.099747 L 5.658436 257.099747 Z M 71.502058 310.320703 " transform="matrix(0.0987188, 0, 0, -0.0987188, 0.046875, 31.185253)"/>
</g>
<path fill-rule="nonzero" fill="rgb(100%, 100%, 100%)" fill-opacity="1" d="M 33.089844 18.578125 L 26.78125 18.585938 L 26.78125 17.582031 L 33.089844 17.578125 L 33.089844 16.011719 L 36.746094 18.078125 L 33.089844 20.148438 L 33.089844 18.578125 "/>
<path fill-rule="nonzero" fill="rgb(100%, 100%, 100%)" fill-opacity="1" d="M 7.855469 18.578125 L 1.546875 18.585938 L 1.546875 17.582031 L 7.855469 17.578125 L 7.855469 16.011719 L 11.507812 18.078125 L 7.855469 20.148438 L 7.855469 18.578125 "/>
<path fill-rule="nonzero" fill="rgb(100%, 100%, 100%)" fill-opacity="1" d="M 32 11.921875 L 26.714844 15.363281 L 26.167969 14.519531 L 31.457031 11.082031 L 30.605469 9.769531 L 34.792969 9.511719 L 32.855469 13.238281 L 32 11.921875 "/>
<path fill-rule="nonzero" fill="rgb(100%, 100%, 100%)" fill-opacity="1" d="M 32 24.292969 L 26.714844 20.851562 L 26.167969 21.695312 L 31.457031 25.132812 L 30.605469 26.445312 L 34.792969 26.703125 L 32.855469 22.976562 L 32 24.292969 "/>
<path fill-rule="nonzero" fill="rgb(3.292847%, 48.298645%, 73.153687%)" fill-opacity="1" d="M 25.425781 17.953125 C 25.425781 21.386719 22.644531 24.171875 19.207031 24.171875 C 15.773438 24.171875 12.988281 21.386719 12.988281 17.953125 C 12.988281 14.515625 15.773438 11.730469 19.207031 11.730469 C 22.644531 11.730469 25.425781 14.515625 25.425781 17.953125 "/>
<path fill="none" stroke-width="8" stroke-linecap="butt" stroke-linejoin="miter" stroke="rgb(100%, 100%, 100%)" stroke-opacity="1" stroke-miterlimit="4" d="M 257.082938 134.038651 C 257.082938 99.257075 228.909465 71.044033 194.088319 71.044033 C 159.306743 71.044033 131.093701 99.257075 131.093701 134.038651 C 131.093701 168.859797 159.306743 197.07284 194.088319 197.07284 C 228.909465 197.07284 257.082938 168.859797 257.082938 134.038651 Z M 257.082938 134.038651 " transform="matrix(0.0987188, 0, 0, -0.0987188, 0.046875, 31.185253)"/>
</svg>
