<?xml version="1.0" encoding="UTF-8"?>
<svg xmlns="http://www.w3.org/2000/svg" xmlns:xlink="http://www.w3.org/1999/xlink" width="36.75" height="25.89" viewBox="0 0 36.75 25.89">
<defs>
<clipPath id="clip-0">
<path clip-rule="nonzero" d="M 0 0.03125 L 36 0.03125 L 36 4 L 0 4 Z M 0 0.03125 "/>
</clipPath>
<clipPath id="clip-1">
<path clip-rule="nonzero" d="M 0 0.03125 L 36.5 0.03125 L 36.5 6 L 0 6 Z M 0 0.03125 "/>
</clipPath>
<clipPath id="clip-2">
<path clip-rule="nonzero" d="M 0 25 L 32 25 L 32 25.746094 L 0 25.746094 Z M 0 25 "/>
</clipPath>
<clipPath id="clip-3">
<path clip-rule="nonzero" d="M 0 3 L 32 3 L 32 25.746094 L 0 25.746094 Z M 0 3 "/>
</clipPath>
<clipPath id="clip-4">
<path clip-rule="nonzero" d="M 0 1 L 35 1 L 35 25.746094 L 0 25.746094 Z M 0 1 "/>
</clipPath>
<clipPath id="clip-5">
<path clip-rule="nonzero" d="M 31 0.03125 L 36 0.03125 L 36 25.746094 L 31 25.746094 Z M 31 0.03125 "/>
</clipPath>
<clipPath id="clip-6">
<path clip-rule="nonzero" d="M 29 0.03125 L 36.5 0.03125 L 36.5 25.746094 L 29 25.746094 Z M 29 0.03125 "/>
</clipPath>
<clipPath id="clip-7">
<path clip-rule="nonzero" d="M 5 21 L 10 21 L 10 25.746094 L 5 25.746094 Z M 5 21 "/>
</clipPath>
<clipPath id="clip-8">
<path clip-rule="nonzero" d="M 5 17 L 14 17 L 14 25.746094 L 5 25.746094 Z M 5 17 "/>
</clipPath>
</defs>
<g clip-path="url(#clip-0)">
<path fill-rule="nonzero" fill="rgb(3.292847%, 48.298645%, 73.153687%)" fill-opacity="1" d="M 0.578125 3.566406 L 4.683594 0.359375 L 35.90625 0.359375 L 31.695312 3.566406 L 0.578125 3.566406 "/>
</g>
<g clip-path="url(#clip-1)">
<path fill="none" stroke-width="4" stroke-linecap="butt" stroke-linejoin="miter" stroke="rgb(100%, 100%, 100%)" stroke-opacity="1" stroke-miterlimit="4" d="M 5.820578 223.323937 L 47.154549 255.612415 L 361.505102 255.612415 L 319.109269 223.323937 Z M 5.820578 223.323937 " transform="matrix(0.0993243, 0, 0, -0.0993243, 0, 25.747905)"/>
</g>
<g clip-path="url(#clip-2)">
<path fill="none" stroke-width="4" stroke-linecap="round" stroke-linejoin="round" stroke="rgb(100%, 100%, 100%)" stroke-opacity="1" stroke-miterlimit="4" d="M 319.109269 2.849872 L 5.820578 2.849872 " transform="matrix(0.0993243, 0, 0, -0.0993243, 0, 25.747905)"/>
</g>
<g clip-path="url(#clip-3)">
<path fill-rule="nonzero" fill="rgb(3.292847%, 48.298645%, 73.153687%)" fill-opacity="1" d="M 31.808594 3.394531 L 31.808594 25.472656 L 0.457031 25.472656 L 0.457031 3.347656 L 31.808594 3.394531 "/>
</g>
<g clip-path="url(#clip-4)">
<path fill="none" stroke-width="4" stroke-linecap="butt" stroke-linejoin="miter" stroke="rgb(100%, 100%, 100%)" stroke-opacity="1" stroke-miterlimit="4" d="M 320.249787 225.054379 L 320.249787 2.771216 L 4.601403 2.771216 L 4.601403 225.526318 Z M 320.249787 225.054379 " transform="matrix(0.0993243, 0, 0, -0.0993243, 0, 25.747905)"/>
</g>
<g clip-path="url(#clip-5)">
<path fill-rule="nonzero" fill="rgb(3.292847%, 48.298645%, 73.153687%)" fill-opacity="1" d="M 35.757812 22.09375 L 35.757812 0.4375 L 31.730469 3.472656 L 31.730469 25.332031 L 35.757812 22.09375 "/>
</g>
<g clip-path="url(#clip-6)">
<path fill="none" stroke-width="4" stroke-linecap="butt" stroke-linejoin="miter" stroke="rgb(100%, 100%, 100%)" stroke-opacity="1" stroke-miterlimit="4" d="M 360.010629 36.790136 L 360.010629 254.82585 L 319.463223 224.267815 L 319.463223 4.187032 Z M 360.010629 36.790136 " transform="matrix(0.0993243, 0, 0, -0.0993243, 0, 25.747905)"/>
</g>
<path fill-rule="nonzero" fill="rgb(100%, 100%, 100%)" fill-opacity="1" d="M 29.136719 17.046875 L 24.988281 17.046875 L 24.988281 16.425781 L 22.941406 17.667969 L 24.988281 18.941406 L 24.988281 18.320312 L 29.136719 18.320312 L 29.136719 17.046875 "/>
<path fill-rule="nonzero" fill="rgb(100%, 100%, 100%)" fill-opacity="1" d="M 8.773438 10.011719 L 4.625 10.011719 L 4.625 9.390625 L 2.582031 10.632812 L 4.625 11.90625 L 4.625 11.285156 L 8.773438 11.285156 L 8.773438 10.011719 "/>
<path fill-rule="nonzero" fill="rgb(100%, 100%, 100%)" fill-opacity="1" d="M 23.714844 11.367188 L 27.699219 11.367188 L 27.699219 11.988281 L 29.746094 10.75 L 27.699219 9.472656 L 27.699219 10.09375 L 23.714844 10.09375 L 23.714844 11.367188 "/>
<path fill-rule="nonzero" fill="rgb(100%, 100%, 100%)" fill-opacity="1" d="M 2.859375 18.355469 L 6.839844 18.355469 L 6.839844 18.976562 L 8.886719 17.734375 L 6.839844 16.460938 L 6.839844 17.082031 L 2.859375 17.082031 L 2.859375 18.355469 "/>
<path fill-rule="nonzero" fill="rgb(100%, 100%, 100%)" fill-opacity="1" d="M 6.660156 23.472656 C 6.632812 23.050781 6.949219 22.691406 7.367188 22.660156 C 7.789062 22.632812 8.148438 22.953125 8.175781 23.371094 C 8.203125 23.789062 7.886719 24.152344 7.46875 24.179688 C 7.054688 24.207031 6.6875 23.890625 6.660156 23.472656 "/>
<g clip-path="url(#clip-7)">
<path fill="none" stroke-width="2" stroke-linecap="butt" stroke-linejoin="miter" stroke="rgb(13.729858%, 12.159729%, 12.548828%)" stroke-opacity="1" stroke-miterlimit="4" d="M 67.054634 22.90727 C 66.779337 27.154719 69.964923 30.772917 74.173044 31.087543 C 78.420493 31.36284 82.03869 28.137925 82.313988 23.929804 C 82.589286 19.721684 79.403699 16.064158 75.195578 15.788861 C 71.026786 15.513563 67.329932 18.69915 67.054634 22.90727 Z M 67.054634 22.90727 " transform="matrix(0.0993243, 0, 0, -0.0993243, 0, 25.747905)"/>
</g>
<path fill-rule="nonzero" fill="rgb(100%, 100%, 100%)" fill-opacity="1" d="M 8.273438 24.015625 L 6.722656 22.632812 L 10.730469 18.15625 L 12.28125 19.539062 L 8.273438 24.015625 "/>
<g clip-path="url(#clip-8)">
<path fill="none" stroke-width="2" stroke-linecap="butt" stroke-linejoin="miter" stroke="rgb(13.729858%, 12.159729%, 12.548828%)" stroke-opacity="1" stroke-miterlimit="4" d="M 83.297194 17.440646 L 67.683886 31.36284 L 108.034651 76.432993 L 123.647959 62.510799 Z M 83.297194 17.440646 " transform="matrix(0.0993243, 0, 0, -0.0993243, 0, 25.747905)"/>
</g>
<path fill-rule="nonzero" fill="rgb(100%, 100%, 100%)" fill-opacity="1" d="M 10.628906 12.597656 C 11.011719 9.285156 14.015625 6.898438 17.328125 7.277344 C 20.640625 7.65625 23.03125 10.664062 22.648438 13.976562 C 22.273438 17.289062 19.265625 19.675781 15.953125 19.296875 C 12.640625 18.917969 10.25 15.914062 10.628906 12.597656 Z M 9.652344 12.488281 C 9.210938 16.339844 11.988281 19.832031 15.839844 20.273438 C 19.691406 20.714844 23.1875 17.941406 23.628906 14.085938 C 24.066406 10.234375 21.292969 6.742188 17.441406 6.300781 C 13.585938 5.859375 10.09375 8.636719 9.652344 12.488281 "/>
<path fill="none" stroke-width="2" stroke-linecap="butt" stroke-linejoin="miter" stroke="rgb(13.729858%, 12.159729%, 12.548828%)" stroke-opacity="1" stroke-miterlimit="4" d="M 107.012117 132.397066 C 110.866284 165.747406 141.109694 189.776956 174.460034 185.962117 C 207.810374 182.147279 231.879252 151.864541 228.025085 118.514201 C 224.249575 85.163861 193.966837 61.134311 160.616497 64.94915 C 127.266156 68.763988 103.197279 99.007398 107.012117 132.397066 Z M 97.18006 133.498257 C 92.735969 94.720621 120.698342 59.561182 159.475978 55.117092 C 198.253614 50.673002 233.452381 78.596046 237.896471 117.41301 C 242.301233 156.190646 214.378189 191.350085 175.600553 195.794175 C 136.783588 200.238265 101.62415 172.275893 97.18006 133.498257 Z M 97.18006 133.498257 " transform="matrix(0.0993243, 0, 0, -0.0993243, 0, 25.747905)"/>
<path fill-rule="nonzero" fill="rgb(100%, 100%, 100%)" fill-opacity="1" d="M 9.765625 12.910156 C 10.144531 9.59375 13.148438 7.207031 16.464844 7.585938 C 19.777344 7.964844 22.164062 10.972656 21.785156 14.285156 C 21.402344 17.597656 18.398438 19.984375 15.085938 19.605469 C 11.773438 19.226562 9.386719 16.222656 9.765625 12.910156 Z M 8.789062 12.796875 C 8.347656 16.648438 11.121094 20.144531 14.972656 20.582031 C 18.828125 21.027344 22.320312 18.25 22.761719 14.398438 C 23.203125 10.542969 20.425781 7.050781 16.574219 6.609375 C 12.722656 6.167969 9.226562 8.945312 8.789062 12.796875 "/>
<path fill="none" stroke-width="2" stroke-linecap="butt" stroke-linejoin="miter" stroke="rgb(13.729858%, 12.159729%, 12.548828%)" stroke-opacity="1" stroke-miterlimit="4" d="M 98.320578 129.250808 C 102.135417 162.640476 132.378827 186.670026 165.768495 182.855187 C 199.118835 179.040349 223.148384 148.757611 219.333546 115.40727 C 215.479379 82.05693 185.235969 58.027381 151.885629 61.842219 C 118.535289 65.657058 94.50574 95.900468 98.320578 129.250808 Z M 88.48852 130.391327 C 84.04443 91.61369 111.967474 56.414923 150.745111 52.010162 C 189.562075 47.526743 224.721514 75.489116 229.165604 114.266752 C 233.609694 153.083716 205.647321 188.243155 166.869685 192.687245 C 128.092049 197.131335 92.893282 169.168963 88.48852 130.391327 Z M 88.48852 130.391327 " transform="matrix(0.0993243, 0, 0, -0.0993243, 0, 25.747905)"/>
<path fill-rule="nonzero" fill="rgb(3.292847%, 48.298645%, 73.153687%)" fill-opacity="1" d="M 18.589844 17.429688 C 18.746094 17.429688 18.878906 17.304688 18.878906 17.144531 L 18.878906 13.640625 C 18.878906 13.484375 18.746094 13.355469 18.589844 13.355469 L 13.15625 13.355469 C 12.996094 13.355469 12.871094 13.484375 12.871094 13.640625 L 12.871094 17.144531 C 12.871094 17.304688 12.996094 17.429688 13.15625 17.429688 L 18.589844 17.429688 "/>
<path fill="none" stroke-width="3" stroke-linecap="round" stroke-linejoin="round" stroke="rgb(100%, 100%, 100%)" stroke-opacity="1" stroke-miterlimit="4" d="M 187.163053 83.748044 C 188.736182 83.748044 190.073342 85.006548 190.073342 86.619005 L 190.073342 121.896429 C 190.073342 123.469558 188.736182 124.767389 187.163053 124.767389 L 132.457483 124.767389 C 130.845026 124.767389 129.586522 123.469558 129.586522 121.896429 L 129.586522 86.619005 C 129.586522 85.006548 130.845026 83.748044 132.457483 83.748044 Z M 187.163053 83.748044 " transform="matrix(0.0993243, 0, 0, -0.0993243, 0, 25.747905)"/>
<path fill-rule="nonzero" fill="rgb(3.292847%, 48.298645%, 73.153687%)" fill-opacity="1" d="M 18.878906 13.347656 L 20.019531 12.203125 L 14.011719 12.203125 L 12.871094 13.347656 L 18.878906 13.347656 "/>
<path fill="none" stroke-width="3" stroke-linecap="round" stroke-linejoin="round" stroke="rgb(100%, 100%, 100%)" stroke-opacity="1" stroke-miterlimit="4" d="M 190.073342 124.846046 L 201.557185 136.369218 L 141.070366 136.369218 L 129.586522 124.846046 Z M 190.073342 124.846046 " transform="matrix(0.0993243, 0, 0, -0.0993243, 0, 25.747905)"/>
<path fill-rule="nonzero" fill="rgb(3.292847%, 48.298645%, 73.153687%)" fill-opacity="1" d="M 20.019531 16.277344 L 20.019531 12.203125 L 18.878906 13.347656 L 18.878906 17.421875 L 20.019531 16.277344 "/>
<path fill="none" stroke-width="3" stroke-linecap="round" stroke-linejoin="round" stroke="rgb(100%, 100%, 100%)" stroke-opacity="1" stroke-miterlimit="4" d="M 201.557185 95.349872 L 201.557185 136.369218 L 190.073342 124.846046 L 190.073342 83.826701 Z M 201.557185 95.349872 " transform="matrix(0.0993243, 0, 0, -0.0993243, 0, 25.747905)"/>
<path fill-rule="nonzero" fill="rgb(3.292847%, 48.298645%, 73.153687%)" fill-opacity="1" d="M 16.484375 9.683594 C 15.617188 9.683594 14.917969 10.386719 14.917969 11.25 L 14.921875 12.640625 C 14.929688 12.753906 14.820312 12.867188 14.65625 12.882812 C 14.488281 12.902344 14.308594 12.820312 14.296875 12.707031 L 14.296875 11.328125 C 14.296875 10.140625 15.257812 9.179688 16.445312 9.179688 C 17.628906 9.179688 18.59375 10.140625 18.59375 11.328125 L 18.59375 12.832031 C 18.582031 12.945312 18.460938 13.019531 18.292969 13.011719 C 18.140625 13.007812 18.003906 12.808594 18.015625 12.699219 L 18.023438 11.25 C 18.023438 10.386719 17.347656 9.683594 16.484375 9.683594 "/>
<path fill="none" stroke-width="3" stroke-linecap="round" stroke-linejoin="round" stroke="rgb(100%, 100%, 100%)" stroke-opacity="1" stroke-miterlimit="4" d="M 165.965136 161.735927 C 157.234269 161.735927 150.194515 154.656845 150.194515 145.965306 L 150.233844 131.964456 C 150.3125 130.823937 149.21131 129.683418 147.559524 129.526105 C 145.86841 129.329464 144.059311 130.155357 143.941327 131.295876 L 143.941327 145.178741 C 143.941327 157.134524 153.616071 166.809269 165.571854 166.809269 C 177.488308 166.809269 187.202381 157.134524 187.202381 145.178741 L 187.202381 130.037372 C 187.084396 128.896854 185.865221 128.149617 184.174107 128.228274 C 182.640306 128.267602 181.263818 130.273342 181.381803 131.374532 L 181.460459 145.965306 C 181.460459 154.656845 174.656675 161.735927 165.965136 161.735927 Z M 165.965136 161.735927 " transform="matrix(0.0993243, 0, 0, -0.0993243, 0, 25.747905)"/>
<path fill-rule="nonzero" fill="rgb(100%, 100%, 100%)" fill-opacity="1" d="M 15.867188 15.75 C 16.136719 15.75 16.359375 15.464844 16.359375 15.113281 C 16.359375 14.765625 16.136719 14.480469 15.867188 14.480469 C 15.59375 14.480469 15.375 14.765625 15.375 15.113281 C 15.375 15.464844 15.59375 15.75 15.867188 15.75 "/>
<path fill-rule="nonzero" fill="rgb(100%, 100%, 100%)" fill-opacity="1" d="M 16.011719 16.402344 L 16.011719 15.152344 L 15.707031 15.378906 L 15.707031 16.625 L 16.011719 16.402344 "/>
</svg>
