<?xml version="1.0" encoding="UTF-8"?>
<svg xmlns="http://www.w3.org/2000/svg" xmlns:xlink="http://www.w3.org/1999/xlink" width="33.3" height="38.45" viewBox="0 0 33.3 38.45">
<defs>
<clipPath id="clip-0">
<path clip-rule="nonzero" d="M 3 0.175781 L 13 0.175781 L 13 9 L 3 9 Z M 3 0.175781 "/>
</clipPath>
<clipPath id="clip-1">
<path clip-rule="nonzero" d="M 1 0.175781 L 15 0.175781 L 15 12 L 1 12 Z M 1 0.175781 "/>
</clipPath>
<clipPath id="clip-2">
<path clip-rule="nonzero" d="M 14 18 L 32.320312 18 L 32.320312 37.394531 L 14 37.394531 Z M 14 18 "/>
</clipPath>
<clipPath id="clip-3">
<path clip-rule="nonzero" d="M 0 29 L 15 29 L 15 37.394531 L 0 37.394531 Z M 0 29 "/>
</clipPath>
<clipPath id="clip-4">
<path clip-rule="nonzero" d="M 0 27 L 17 27 L 17 37.394531 L 0 37.394531 Z M 0 27 "/>
</clipPath>
</defs>
<g clip-path="url(#clip-0)">
<path fill-rule="nonzero" fill="rgb(0.784302%, 43.920898%, 62.350464%)" fill-opacity="1" d="M 12.027344 4.640625 C 12.027344 7.03125 10.089844 8.96875 7.699219 8.96875 C 5.308594 8.96875 3.371094 7.03125 3.371094 4.640625 C 3.371094 2.25 5.308594 0.308594 7.699219 0.308594 C 10.089844 0.308594 12.027344 2.25 12.027344 4.640625 "/>
</g>
<g clip-path="url(#clip-1)">
<path fill="none" stroke-width="3.99994" stroke-linecap="butt" stroke-linejoin="miter" stroke="rgb(100%, 100%, 100%)" stroke-opacity="1" stroke-miterlimit="4" d="M 122.801708 338.409535 C 122.801708 314.000751 103.019426 294.218468 78.610642 294.218468 C 54.201858 294.218468 34.419576 314.000751 34.419576 338.409535 C 34.419576 362.818318 54.201858 382.640484 78.610642 382.640484 C 103.019426 382.640484 122.801708 362.818318 122.801708 338.409535 Z M 122.801708 338.409535 " transform="matrix(0.0979412, 0, 0, -0.0979412, 0, 37.784853)"/>
</g>
<g clip-path="url(#clip-2)">
<path fill-rule="nonzero" fill="rgb(0.784302%, 43.920898%, 62.350464%)" fill-opacity="1" d="M 14.40625 37.589844 L 32.414062 37.589844 L 32.414062 18.445312 L 14.40625 18.445312 Z M 14.40625 37.589844 "/>
<path fill="none" stroke-width="3.99994" stroke-linecap="butt" stroke-linejoin="miter" stroke="rgb(100%, 100%, 100%)" stroke-opacity="1" stroke-miterlimit="4" d="M 330.954392 1.991085 L 147.090841 1.991085 L 147.090841 197.460773 L 330.954392 197.460773 Z M 330.954392 1.991085 " transform="matrix(0.0979412, 0, 0, -0.0979412, 0, 37.784853)"/>
</g>
<path fill-rule="nonzero" fill="rgb(0.784302%, 43.920898%, 62.350464%)" fill-opacity="1" d="M 20.710938 18.390625 L 31.1875 18.390625 L 31.1875 16.007812 L 20.710938 16.007812 Z M 20.710938 18.390625 "/>
<path fill="none" stroke-width="3.99994" stroke-linecap="butt" stroke-linejoin="miter" stroke="rgb(100%, 100%, 100%)" stroke-opacity="1" stroke-miterlimit="4" d="M 211.463026 222.348161 L 318.430931 222.348161 L 318.430931 198.019144 L 211.463026 198.019144 Z M 211.463026 222.348161 " transform="matrix(0.0979412, 0, 0, -0.0979412, 0, 37.784853)"/>
<path fill-rule="nonzero" fill="rgb(0.784302%, 43.920898%, 62.350464%)" fill-opacity="1" d="M 29.066406 9.914062 L 29.066406 16.007812 L 20.90625 16.007812 L 20.90625 7.851562 L 28.109375 8.789062 C 28.109375 8.789062 29.082031 8.882812 29.066406 9.914062 "/>
<path fill="none" stroke-width="3.99994" stroke-linecap="butt" stroke-linejoin="miter" stroke="rgb(100%, 100%, 100%)" stroke-opacity="1" stroke-miterlimit="4" d="M 296.774118 284.566629 L 296.774118 222.348161 L 213.457207 222.348161 L 213.457207 305.625188 L 287.002628 296.053116 C 287.002628 296.053116 296.933652 295.095908 296.774118 284.566629 Z M 296.774118 284.566629 " transform="matrix(0.0979412, 0, 0, -0.0979412, 0, 37.784853)"/>
<g clip-path="url(#clip-3)">
<path fill-rule="nonzero" fill="rgb(0.784302%, 43.920898%, 62.350464%)" fill-opacity="1" d="M 13.335938 35.113281 L 8.363281 35.113281 L 8.363281 29.234375 L 5.867188 29.234375 L 5.867188 35.113281 L 0.972656 35.113281 C 0.542969 35.113281 0.195312 35.464844 0.195312 35.894531 L 0.195312 36.800781 C 0.195312 37.234375 0.542969 37.582031 0.972656 37.582031 L 13.335938 37.582031 C 13.765625 37.582031 14.113281 37.234375 14.113281 36.800781 L 14.113281 35.894531 C 14.113281 35.464844 13.765625 35.113281 13.335938 35.113281 "/>
</g>
<g clip-path="url(#clip-4)">
<path fill="none" stroke-width="3.99994" stroke-linecap="butt" stroke-linejoin="miter" stroke="rgb(100%, 100%, 100%)" stroke-opacity="1" stroke-miterlimit="4" d="M 136.162725 27.277309 L 85.39086 27.277309 L 85.39086 87.302177 L 59.905218 87.302177 L 59.905218 27.277309 L 9.931025 27.277309 C 5.543825 27.277309 1.994182 23.687782 1.994182 19.300582 L 1.994182 10.047579 C 1.994182 5.620495 5.543825 2.070852 9.931025 2.070852 L 136.162725 2.070852 C 140.549925 2.070852 144.099568 5.620495 144.099568 10.047579 L 144.099568 19.300582 C 144.099568 23.687782 140.549925 27.277309 136.162725 27.277309 Z M 136.162725 27.277309 " transform="matrix(0.0979412, 0, 0, -0.0979412, 0, 37.784853)"/>
</g>
<path fill-rule="nonzero" fill="rgb(0.784302%, 43.920898%, 62.350464%)" fill-opacity="1" d="M 13.554688 26.484375 L 3.304688 26.484375 L 3.304688 11.921875 C 3.304688 11.449219 2.921875 11.066406 2.445312 11.066406 L 1.441406 11.066406 C 0.96875 11.066406 0.585938 11.449219 0.585938 11.921875 L 0.585938 28.347656 C 0.585938 28.820312 0.96875 29.203125 1.441406 29.203125 L 13.554688 29.203125 C 14.027344 29.203125 14.410156 28.820312 14.410156 28.347656 L 14.410156 27.34375 C 14.410156 26.871094 14.027344 26.484375 13.554688 26.484375 "/>
<path fill="none" stroke-width="3.99994" stroke-linecap="butt" stroke-linejoin="miter" stroke="rgb(100%, 100%, 100%)" stroke-opacity="1" stroke-miterlimit="4" d="M 138.396209 115.380255 L 33.741554 115.380255 L 33.741554 264.066441 C 33.741554 268.892361 29.832958 272.800957 24.967155 272.800957 L 14.717061 272.800957 C 9.891141 272.800957 5.982545 268.892361 5.982545 264.066441 L 5.982545 96.355762 C 5.982545 91.529842 9.891141 87.621246 14.717061 87.621246 L 138.396209 87.621246 C 143.222128 87.621246 147.130724 91.529842 147.130724 96.355762 L 147.130724 106.605856 C 147.130724 111.431776 143.222128 115.380255 138.396209 115.380255 Z M 138.396209 115.380255 " transform="matrix(0.0979412, 0, 0, -0.0979412, 0, 37.784853)"/>
<path fill-rule="nonzero" fill="rgb(0.784302%, 43.920898%, 62.350464%)" fill-opacity="1" d="M 11.148438 9.902344 L 19.015625 15.605469 C 19.351562 15.894531 19.5625 16.324219 19.5625 16.800781 C 19.5625 17.675781 18.855469 18.378906 17.984375 18.378906 C 17.714844 18.378906 17.367188 18.292969 17.085938 18.136719 L 10.503906 14.066406 L 10.503906 21.457031 L 14.21875 21.476562 L 14.21875 26.230469 L 3.699219 26.210938 L 3.699219 10.519531 C 3.699219 10.519531 3.769531 9.277344 5.808594 9.277344 L 9.597656 9.277344 C 9.597656 9.277344 10.316406 9.3125 11.148438 9.902344 "/>
<path fill="none" stroke-width="3.99994" stroke-linecap="butt" stroke-linejoin="miter" stroke="rgb(100%, 100%, 100%)" stroke-opacity="1" stroke-miterlimit="4" d="M 113.82789 284.68628 L 194.153529 226.456175 C 197.583521 223.504786 199.737237 219.117586 199.737237 214.251783 C 199.737237 205.317849 192.5183 198.138795 183.624249 198.138795 C 180.872279 198.138795 177.322635 199.016235 174.451014 200.61158 L 107.247091 242.170327 L 107.247091 166.710492 L 145.176426 166.511074 L 145.176426 117.972691 L 37.769801 118.17211 L 37.769801 278.384666 C 37.769801 278.384666 38.487706 291.067661 59.306963 291.067661 L 97.994088 291.067661 C 97.994088 291.067661 105.332676 290.708709 113.82789 284.68628 Z M 113.82789 284.68628 " transform="matrix(0.0979412, 0, 0, -0.0979412, 0, 37.784853)"/>
</svg>
