<?xml version="1.0" encoding="UTF-8"?>
<svg xmlns="http://www.w3.org/2000/svg" xmlns:xlink="http://www.w3.org/1999/xlink" width="28.35" height="40.15" viewBox="0 0 28.35 40.15">
<defs>
<clipPath id="clip-0">
<path clip-rule="nonzero" d="M 0 12 L 27.371094 12 L 27.371094 39 L 0 39 Z M 0 12 "/>
</clipPath>
<clipPath id="clip-1">
<path clip-rule="nonzero" d="M 0 9 L 27.371094 9 L 27.371094 39.1875 L 0 39.1875 Z M 0 9 "/>
</clipPath>
<clipPath id="clip-2">
<path clip-rule="nonzero" d="M 0 12 L 27.371094 12 L 27.371094 16 L 0 16 Z M 0 12 "/>
</clipPath>
<clipPath id="clip-3">
<path clip-rule="nonzero" d="M 0 9 L 27.371094 9 L 27.371094 18 L 0 18 Z M 0 9 "/>
</clipPath>
<clipPath id="clip-4">
<path clip-rule="nonzero" d="M 23 12 L 27.371094 12 L 27.371094 39 L 23 39 Z M 23 12 "/>
</clipPath>
<clipPath id="clip-5">
<path clip-rule="nonzero" d="M 21 9 L 27.371094 9 L 27.371094 39.1875 L 21 39.1875 Z M 21 9 "/>
</clipPath>
<clipPath id="clip-6">
<path clip-rule="nonzero" d="M 0 12 L 27.371094 12 L 27.371094 39 L 0 39 Z M 0 12 "/>
</clipPath>
<clipPath id="clip-7">
<path clip-rule="nonzero" d="M 0 9 L 27.371094 9 L 27.371094 39.1875 L 0 39.1875 Z M 0 9 "/>
</clipPath>
<clipPath id="clip-8">
<path clip-rule="nonzero" d="M 0 12 L 27.371094 12 L 27.371094 16 L 0 16 Z M 0 12 "/>
</clipPath>
<clipPath id="clip-9">
<path clip-rule="nonzero" d="M 0 11 L 27.371094 11 L 27.371094 17 L 0 17 Z M 0 11 "/>
</clipPath>
<clipPath id="clip-10">
<path clip-rule="nonzero" d="M 23 15 L 25 15 L 25 39.1875 L 23 39.1875 Z M 23 15 "/>
</clipPath>
<clipPath id="clip-11">
<path clip-rule="nonzero" d="M 0 0.0351562 L 27.371094 0.0351562 L 27.371094 16 L 0 16 Z M 0 0.0351562 "/>
</clipPath>
<clipPath id="clip-12">
<path clip-rule="nonzero" d="M 0 0.0351562 L 27.371094 0.0351562 L 27.371094 18 L 0 18 Z M 0 0.0351562 "/>
</clipPath>
<clipPath id="clip-13">
<path clip-rule="nonzero" d="M 0 0.0351562 L 27.371094 0.0351562 L 27.371094 4 L 0 4 Z M 0 0.0351562 "/>
</clipPath>
<clipPath id="clip-14">
<path clip-rule="nonzero" d="M 0 0.0351562 L 27.371094 0.0351562 L 27.371094 7 L 0 7 Z M 0 0.0351562 "/>
</clipPath>
<clipPath id="clip-15">
<path clip-rule="nonzero" d="M 23 0.0351562 L 27.371094 0.0351562 L 27.371094 16 L 23 16 Z M 23 0.0351562 "/>
</clipPath>
<clipPath id="clip-16">
<path clip-rule="nonzero" d="M 21 0.0351562 L 27.371094 0.0351562 L 27.371094 18 L 21 18 Z M 21 0.0351562 "/>
</clipPath>
<clipPath id="clip-17">
<path clip-rule="nonzero" d="M 0 0.0351562 L 27.371094 0.0351562 L 27.371094 16 L 0 16 Z M 0 0.0351562 "/>
</clipPath>
<clipPath id="clip-18">
<path clip-rule="nonzero" d="M 0 0.0351562 L 27.371094 0.0351562 L 27.371094 18 L 0 18 Z M 0 0.0351562 "/>
</clipPath>
<clipPath id="clip-19">
<path clip-rule="nonzero" d="M 0 0.0351562 L 27.371094 0.0351562 L 27.371094 5 L 0 5 Z M 0 0.0351562 "/>
</clipPath>
</defs>
<g clip-path="url(#clip-0)">
<path fill-rule="nonzero" fill="rgb(13.729858%, 12.159729%, 12.548828%)" fill-opacity="1" d="M 3.820312 12.160156 L 0.472656 15.492188 L 0.472656 38.8125 L 23.894531 38.8125 L 27.242188 35.480469 L 27.242188 12.160156 L 3.820312 12.160156 "/>
</g>
<g clip-path="url(#clip-1)">
<path fill="none" stroke-width="3.99994" stroke-linecap="butt" stroke-linejoin="miter" stroke="rgb(100%, 100%, 100%)" stroke-opacity="1" stroke-miterlimit="4" d="M 39.079034 277.463128 L 4.834932 243.378858 L 4.834932 4.828924 L 244.423776 4.828924 L 278.667879 38.913194 L 278.667879 277.463128 Z M 39.079034 277.463128 " transform="matrix(0.0977586, 0, 0, -0.0977586, 0, 39.284569)"/>
</g>
<g clip-path="url(#clip-2)">
<path fill-rule="nonzero" fill="rgb(13.729858%, 12.159729%, 12.548828%)" fill-opacity="1" d="M 0.472656 15.492188 L 23.894531 15.492188 L 27.242188 12.160156 L 3.820312 12.160156 L 0.472656 15.492188 "/>
</g>
<g clip-path="url(#clip-3)">
<path fill="none" stroke-width="3.99994" stroke-linecap="butt" stroke-linejoin="miter" stroke="rgb(100%, 100%, 100%)" stroke-opacity="1" stroke-miterlimit="4" d="M 4.834932 243.378858 L 244.423776 243.378858 L 278.667879 277.463128 L 39.079034 277.463128 Z M 4.834932 243.378858 " transform="matrix(0.0977586, 0, 0, -0.0977586, 0, 39.284569)"/>
</g>
<g clip-path="url(#clip-4)">
<path fill-rule="nonzero" fill="rgb(13.729858%, 12.159729%, 12.548828%)" fill-opacity="1" d="M 23.894531 15.492188 L 27.242188 12.160156 L 27.242188 35.480469 L 23.894531 38.8125 L 23.894531 15.492188 "/>
</g>
<g clip-path="url(#clip-5)">
<path fill="none" stroke-width="3.99994" stroke-linecap="butt" stroke-linejoin="miter" stroke="rgb(100%, 100%, 100%)" stroke-opacity="1" stroke-miterlimit="4" d="M 244.423776 243.378858 L 278.667879 277.463128 L 278.667879 38.913194 L 244.423776 4.828924 Z M 244.423776 243.378858 " transform="matrix(0.0977586, 0, 0, -0.0977586, 0, 39.284569)"/>
</g>
<g clip-path="url(#clip-6)">
<path fill-rule="nonzero" fill="rgb(3.292847%, 48.297119%, 73.150635%)" fill-opacity="1" d="M 3.820312 12.160156 L 0.472656 15.492188 L 0.472656 38.8125 L 23.894531 38.8125 L 27.242188 35.480469 L 27.242188 12.160156 L 3.820312 12.160156 "/>
</g>
<g clip-path="url(#clip-7)">
<path fill="none" stroke-width="3.99994" stroke-linecap="butt" stroke-linejoin="miter" stroke="rgb(100%, 100%, 100%)" stroke-opacity="1" stroke-miterlimit="4" d="M 39.079034 277.463128 L 4.834932 243.378858 L 4.834932 4.828924 L 244.423776 4.828924 L 278.667879 38.913194 L 278.667879 277.463128 Z M 39.079034 277.463128 " transform="matrix(0.0977586, 0, 0, -0.0977586, 0, 39.284569)"/>
</g>
<g clip-path="url(#clip-8)">
<path fill-rule="nonzero" fill="rgb(13.729858%, 12.159729%, 12.548828%)" fill-opacity="1" d="M 0.472656 15.492188 L 23.894531 15.492188 L 27.242188 12.160156 "/>
</g>
<g clip-path="url(#clip-9)">
<path fill="none" stroke-width="3.99994" stroke-linecap="butt" stroke-linejoin="miter" stroke="rgb(100%, 100%, 100%)" stroke-opacity="1" stroke-miterlimit="1" d="M 4.834932 243.378858 L 244.423776 243.378858 L 278.667879 277.463128 " transform="matrix(0.0977586, 0, 0, -0.0977586, 0, 39.284569)"/>
</g>
<g clip-path="url(#clip-10)">
<path fill="none" stroke-width="3.99994" stroke-linecap="butt" stroke-linejoin="miter" stroke="rgb(100%, 100%, 100%)" stroke-opacity="1" stroke-miterlimit="1" d="M 244.423776 243.378858 L 244.423776 4.828924 " transform="matrix(0.0977586, 0, 0, -0.0977586, 0, 39.284569)"/>
</g>
<g clip-path="url(#clip-11)">
<path fill-rule="nonzero" fill="rgb(13.729858%, 12.159729%, 12.548828%)" fill-opacity="1" d="M 3.820312 0.5 L 0.472656 3.832031 L 0.472656 15.492188 L 23.894531 15.492188 L 27.242188 12.160156 L 27.242188 0.5 L 3.820312 0.5 "/>
</g>
<g clip-path="url(#clip-12)">
<path fill="none" stroke-width="3.99994" stroke-linecap="butt" stroke-linejoin="miter" stroke="rgb(100%, 100%, 100%)" stroke-opacity="1" stroke-miterlimit="4" d="M 39.079034 396.738095 L 4.834932 362.653825 L 4.834932 243.378858 L 244.423776 243.378858 L 278.667879 277.463128 L 278.667879 396.738095 Z M 39.079034 396.738095 " transform="matrix(0.0977586, 0, 0, -0.0977586, 0, 39.284569)"/>
</g>
<g clip-path="url(#clip-13)">
<path fill-rule="nonzero" fill="rgb(13.729858%, 12.159729%, 12.548828%)" fill-opacity="1" d="M 0.472656 3.832031 L 23.894531 3.832031 L 27.242188 0.5 L 3.820312 0.5 L 0.472656 3.832031 "/>
</g>
<g clip-path="url(#clip-14)">
<path fill="none" stroke-width="3.99994" stroke-linecap="butt" stroke-linejoin="miter" stroke="rgb(100%, 100%, 100%)" stroke-opacity="1" stroke-miterlimit="4" d="M 4.834932 362.653825 L 244.423776 362.653825 L 278.667879 396.738095 L 39.079034 396.738095 Z M 4.834932 362.653825 " transform="matrix(0.0977586, 0, 0, -0.0977586, 0, 39.284569)"/>
</g>
<g clip-path="url(#clip-15)">
<path fill-rule="nonzero" fill="rgb(13.729858%, 12.159729%, 12.548828%)" fill-opacity="1" d="M 23.894531 3.832031 L 27.242188 0.5 L 27.242188 12.160156 L 23.894531 15.492188 L 23.894531 3.832031 "/>
</g>
<g clip-path="url(#clip-16)">
<path fill="none" stroke-width="3.99994" stroke-linecap="butt" stroke-linejoin="miter" stroke="rgb(100%, 100%, 100%)" stroke-opacity="1" stroke-miterlimit="4" d="M 244.423776 362.653825 L 278.667879 396.738095 L 278.667879 277.463128 L 244.423776 243.378858 Z M 244.423776 362.653825 " transform="matrix(0.0977586, 0, 0, -0.0977586, 0, 39.284569)"/>
</g>
<g clip-path="url(#clip-17)">
<path fill-rule="nonzero" fill="rgb(3.292847%, 48.297119%, 73.150635%)" fill-opacity="1" d="M 3.820312 0.5 L 0.472656 3.832031 L 0.472656 15.492188 L 23.894531 15.492188 L 27.242188 12.160156 L 27.242188 0.5 L 3.820312 0.5 "/>
</g>
<g clip-path="url(#clip-18)">
<path fill="none" stroke-width="3.99994" stroke-linecap="butt" stroke-linejoin="miter" stroke="rgb(100%, 100%, 100%)" stroke-opacity="1" stroke-miterlimit="4" d="M 39.079034 396.738095 L 4.834932 362.653825 L 4.834932 243.378858 L 244.423776 243.378858 L 278.667879 277.463128 L 278.667879 396.738095 Z M 39.079034 396.738095 " transform="matrix(0.0977586, 0, 0, -0.0977586, 0, 39.284569)"/>
</g>
<g clip-path="url(#clip-19)">
<path fill="none" stroke-width="3.99994" stroke-linecap="butt" stroke-linejoin="miter" stroke="rgb(100%, 100%, 100%)" stroke-opacity="1" stroke-miterlimit="1" d="M 4.834932 362.653825 L 244.423776 362.653825 L 278.667879 396.738095 " transform="matrix(0.0977586, 0, 0, -0.0977586, 0, 39.284569)"/>
</g>
<path fill="none" stroke-width="3.99994" stroke-linecap="butt" stroke-linejoin="miter" stroke="rgb(100%, 100%, 100%)" stroke-opacity="1" stroke-miterlimit="1" d="M 244.423776 362.653825 L 244.423776 243.378858 " transform="matrix(0.0977586, 0, 0, -0.0977586, 0, 39.284569)"/>
<path fill-rule="nonzero" fill="rgb(100%, 100%, 100%)" fill-opacity="1" d="M 2.144531 8.828125 L 8.839844 8.828125 L 8.839844 5.496094 L 2.144531 5.496094 Z M 2.144531 8.828125 "/>
<path fill-rule="nonzero" fill="rgb(13.729858%, 12.159729%, 12.548828%)" fill-opacity="1" d="M 3.820312 35.480469 L 20.550781 35.480469 L 20.550781 18.824219 L 3.820312 18.824219 Z M 3.820312 35.480469 "/>
<path fill="none" stroke-width="3.99994" stroke-linecap="butt" stroke-linejoin="miter" stroke="rgb(100%, 100%, 100%)" stroke-opacity="1" stroke-miterlimit="1" d="M 39.079034 209.294588 L 210.219632 209.294588 L 210.219632 38.913194 L 39.079034 38.913194 Z M 39.079034 209.294588 " transform="matrix(0.0977586, 0, 0, -0.0977586, 0, 39.284569)"/>
<path fill-rule="nonzero" fill="rgb(100%, 100%, 100%)" fill-opacity="1" d="M 7.164062 32.152344 L 17.203125 32.152344 L 17.203125 22.15625 L 7.164062 22.15625 Z M 7.164062 32.152344 "/>
<path fill-rule="nonzero" fill="rgb(100%, 100%, 100%)" fill-opacity="1" d="M 15.53125 8.828125 L 22.222656 8.828125 L 22.222656 5.496094 L 15.53125 5.496094 Z M 15.53125 8.828125 "/>
<path fill-rule="nonzero" fill="rgb(100%, 100%, 100%)" fill-opacity="1" d="M 2.144531 13.828125 L 8.839844 13.828125 L 8.839844 10.496094 L 2.144531 10.496094 Z M 2.144531 13.828125 "/>
<path fill-rule="nonzero" fill="rgb(100%, 100%, 100%)" fill-opacity="1" d="M 15.53125 13.828125 L 22.222656 13.828125 L 22.222656 10.496094 L 15.53125 10.496094 Z M 15.53125 13.828125 "/>
<path fill="none" stroke-width="3.99994" stroke-linecap="butt" stroke-linejoin="miter" stroke="rgb(100%, 100%, 100%)" stroke-opacity="1" stroke-miterlimit="1" d="M 90.425209 328.569555 L 158.873457 328.569555 " transform="matrix(0.0977586, 0, 0, -0.0977586, 0, 39.284569)"/>
<path fill="none" stroke-width="3.99994" stroke-linecap="butt" stroke-linejoin="miter" stroke="rgb(100%, 100%, 100%)" stroke-opacity="1" stroke-miterlimit="1" d="M 90.425209 277.463128 L 158.873457 277.463128 " transform="matrix(0.0977586, 0, 0, -0.0977586, 0, 39.284569)"/>
<path fill-rule="nonzero" fill="rgb(13.729858%, 12.159729%, 12.548828%)" fill-opacity="1" stroke-width="3.99994" stroke-linecap="butt" stroke-linejoin="miter" stroke="rgb(100%, 100%, 100%)" stroke-opacity="1" stroke-miterlimit="1" d="M 90.425209 294.485284 L 158.873457 311.547399 " transform="matrix(0.0977586, 0, 0, -0.0977586, 0, 39.284569)"/>
<path fill-rule="nonzero" fill="rgb(13.729858%, 12.159729%, 12.548828%)" fill-opacity="1" stroke-width="3.99994" stroke-linecap="butt" stroke-linejoin="miter" stroke="rgb(100%, 100%, 100%)" stroke-opacity="1" stroke-miterlimit="1" d="M 90.425209 311.547399 L 158.873457 294.485284 " transform="matrix(0.0977586, 0, 0, -0.0977586, 0, 39.284569)"/>
</svg>
