<?xml version="1.0" encoding="UTF-8"?>
<svg xmlns="http://www.w3.org/2000/svg" xmlns:xlink="http://www.w3.org/1999/xlink" width="37.16" height="25.18" viewBox="0 0 37.16 25.18">
<defs>
<clipPath id="clip-0">
<path clip-rule="nonzero" d="M 0.179688 7 L 36 7 L 36 24.289062 L 0.179688 24.289062 Z M 0.179688 7 "/>
</clipPath>
<clipPath id="clip-1">
<path clip-rule="nonzero" d="M 0.179688 4 L 36.011719 4 L 36.011719 24.289062 L 0.179688 24.289062 Z M 0.179688 4 "/>
</clipPath>
<clipPath id="clip-2">
<path clip-rule="nonzero" d="M 0.179688 0 L 36 0 L 36 15 L 0.179688 15 Z M 0.179688 0 "/>
</clipPath>
<clipPath id="clip-3">
<path clip-rule="nonzero" d="M 0.179688 0 L 36.011719 0 L 36.011719 17 L 0.179688 17 Z M 0.179688 0 "/>
</clipPath>
</defs>
<g clip-path="url(#clip-0)">
<path fill-rule="nonzero" fill="rgb(3.292847%, 48.297119%, 73.150635%)" fill-opacity="1" d="M 35.996094 7.121094 C 35.996094 10.945312 28.023438 14.046875 18.183594 14.046875 C 8.347656 14.046875 0.371094 10.945312 0.371094 7.121094 L 0.371094 17.265625 C 0.371094 21.089844 8.347656 24.191406 18.183594 24.191406 C 28.023438 24.191406 35.996094 21.089844 35.996094 17.265625 L 35.996094 7.121094 "/>
</g>
<g clip-path="url(#clip-1)">
<path fill="none" stroke-width="3.99994" stroke-linecap="butt" stroke-linejoin="miter" stroke="rgb(100%, 100%, 100%)" stroke-opacity="1" stroke-miterlimit="4" d="M 369.83258 178.270041 C 369.83258 138.782476 287.50968 106.756811 185.906846 106.756811 C 84.344346 106.756811 1.981111 138.782476 1.981111 178.270041 L 1.981111 73.521108 C 1.981111 34.033543 84.344346 2.007878 185.906846 2.007878 C 287.50968 2.007878 369.83258 34.033543 369.83258 73.521108 Z M 369.83258 178.270041 " transform="matrix(0.0968462, 0, 0, -0.0968462, 0.179231, 24.385862)"/>
</g>
<g clip-path="url(#clip-2)">
<path fill-rule="nonzero" fill="rgb(3.292847%, 48.297119%, 73.150635%)" fill-opacity="1" d="M 18.183594 14.046875 C 28.023438 14.046875 35.996094 10.945312 35.996094 7.121094 C 35.996094 3.292969 28.023438 0.191406 18.183594 0.191406 C 8.347656 0.191406 0.371094 3.292969 0.371094 7.121094 C 0.371094 10.945312 8.347656 14.046875 18.183594 14.046875 "/>
</g>
<g clip-path="url(#clip-3)">
<path fill="none" stroke-width="3.99994" stroke-linecap="butt" stroke-linejoin="miter" stroke="rgb(100%, 100%, 100%)" stroke-opacity="1" stroke-miterlimit="4" d="M 185.906846 106.756811 C 287.50968 106.756811 369.83258 138.782476 369.83258 178.270041 C 369.83258 217.79794 287.50968 249.823605 185.906846 249.823605 C 84.344346 249.823605 1.981111 217.79794 1.981111 178.270041 C 1.981111 138.782476 84.344346 106.756811 185.906846 106.756811 Z M 185.906846 106.756811 " transform="matrix(0.0968462, 0, 0, -0.0968462, 0.179231, 24.385862)"/>
</g>
<path fill-rule="nonzero" fill="rgb(100%, 100%, 100%)" fill-opacity="1" d="M 14.117188 4.410156 L 15.589844 6.617188 L 10.027344 7.902344 L 11.242188 6.890625 L 2.648438 5.421875 L 4.804688 3.804688 L 13.097656 5.210938 L 14.117188 4.410156 "/>
<path fill-rule="nonzero" fill="rgb(100%, 100%, 100%)" fill-opacity="1" d="M 21.945312 9.761719 L 20.9375 7.488281 L 25.957031 6.484375 L 25.085938 7.265625 L 33.445312 8.691406 L 31.441406 10.296875 L 23.128906 8.734375 L 21.945312 9.761719 "/>
<path fill-rule="nonzero" fill="rgb(100%, 100%, 100%)" fill-opacity="1" d="M 19.199219 3.207031 L 24.820312 1.667969 L 24.886719 4.078125 L 23.480469 3.808594 L 20.738281 6.082031 L 18.121094 5.703125 L 20.953125 3.476562 L 19.199219 3.207031 "/>
<path fill-rule="nonzero" fill="rgb(100%, 100%, 100%)" fill-opacity="1" d="M 16.792969 11.835938 L 11.441406 12.839844 L 11.242188 10.363281 L 12.78125 10.699219 L 15.726562 8.183594 L 18.332031 8.625 L 15.1875 11.367188 L 16.792969 11.835938 "/>
<path fill-rule="nonzero" fill="rgb(100%, 100%, 100%)" fill-opacity="1" d="M 18.46875 18.769531 L 21.511719 21.15625 L 22.925781 21.148438 L 22.929688 20.523438 L 26.15625 21.664062 L 22.929688 22.808594 L 22.925781 22.164062 L 21.089844 22.164062 L 17.613281 19.441406 L 14.136719 22.164062 L 12.300781 22.164062 L 12.296875 22.808594 L 9.070312 21.664062 L 12.296875 20.523438 L 12.300781 21.148438 L 13.714844 21.15625 L 16.757812 18.769531 L 13.714844 16.382812 L 12.300781 16.386719 L 12.296875 17.015625 L 9.070312 15.871094 L 12.296875 14.726562 L 12.300781 15.371094 L 14.136719 15.375 L 17.613281 18.097656 L 21.089844 15.375 L 22.925781 15.371094 L 22.929688 14.726562 L 26.15625 15.871094 L 22.929688 17.015625 L 22.925781 16.386719 L 21.511719 16.382812 L 18.46875 18.769531 "/>
</svg>
