<?xml version="1.0" encoding="UTF-8"?>
<svg xmlns="http://www.w3.org/2000/svg" xmlns:xlink="http://www.w3.org/1999/xlink" width="37.19" height="35.52" viewBox="0 0 37.19 35.52">
<defs>
<clipPath id="clip-0">
<path clip-rule="nonzero" d="M 0 7 L 36.398438 7 L 36.398438 23 L 0 23 Z M 0 7 "/>
</clipPath>
<clipPath id="clip-1">
<path clip-rule="nonzero" d="M 0 5 L 36.398438 5 L 36.398438 25 L 0 25 Z M 0 5 "/>
</clipPath>
<clipPath id="clip-2">
<path clip-rule="nonzero" d="M 0 15 L 36.398438 15 L 36.398438 34.90625 L 0 34.90625 Z M 0 15 "/>
</clipPath>
<clipPath id="clip-3">
<path clip-rule="nonzero" d="M 0 13 L 36.398438 13 L 36.398438 34.90625 L 0 34.90625 Z M 0 13 "/>
</clipPath>
<clipPath id="clip-4">
<path clip-rule="nonzero" d="M 0 0.144531 L 36.398438 0.144531 L 36.398438 15 L 0 15 Z M 0 0.144531 "/>
</clipPath>
<clipPath id="clip-5">
<path clip-rule="nonzero" d="M 0 0.144531 L 36.398438 0.144531 L 36.398438 17 L 0 17 Z M 0 0.144531 "/>
</clipPath>
</defs>
<g clip-path="url(#clip-0)">
<path fill-rule="nonzero" fill="rgb(56.864929%, 56.079102%, 56.274414%)" fill-opacity="1" d="M 36.195312 7.34375 C 36.195312 11.210938 28.136719 14.34375 18.195312 14.34375 C 8.253906 14.34375 0.195312 11.210938 0.195312 7.34375 L 0.195312 15.519531 C 0.195312 19.386719 8.253906 22.523438 18.195312 22.523438 C 28.136719 22.523438 36.195312 19.386719 36.195312 15.519531 L 36.195312 7.34375 "/>
</g>
<g clip-path="url(#clip-1)">
<path fill="none" stroke-width="4" stroke-linecap="butt" stroke-linejoin="miter" stroke="rgb(100%, 100%, 100%)" stroke-opacity="1" stroke-miterlimit="4" d="M 369.836482 281.631164 C 369.836482 242.117014 287.495378 210.106561 185.916073 210.106561 C 84.336767 210.106561 1.995664 242.117014 1.995664 281.631164 L 1.995664 198.092663 C 1.995664 158.578512 84.336767 126.528146 185.916073 126.528146 C 287.495378 126.528146 369.836482 158.578512 369.836482 198.092663 Z M 369.836482 281.631164 " transform="matrix(0.0978684, 0, 0, -0.0978684, 0, 34.906547)"/>
</g>
<g clip-path="url(#clip-2)">
<path fill-rule="nonzero" fill="rgb(3.292847%, 48.298645%, 73.153687%)" fill-opacity="1" d="M 36.195312 15.382812 C 36.195312 19.246094 28.136719 22.382812 18.195312 22.382812 C 8.253906 22.382812 0.195312 19.246094 0.195312 15.382812 L 0.195312 27.710938 C 0.195312 31.578125 8.253906 34.710938 18.195312 34.710938 C 28.136719 34.710938 36.195312 31.578125 36.195312 27.710938 L 36.195312 15.382812 "/>
</g>
<g clip-path="url(#clip-3)">
<path fill="none" stroke-width="4" stroke-linecap="butt" stroke-linejoin="miter" stroke="rgb(100%, 100%, 100%)" stroke-opacity="1" stroke-miterlimit="4" d="M 369.836482 199.489628 C 369.836482 160.015391 287.495378 127.965024 185.916073 127.965024 C 84.336767 127.965024 1.995664 160.015391 1.995664 199.489628 L 1.995664 73.523306 C 1.995664 34.009156 84.336767 1.998703 185.916073 1.998703 C 287.495378 1.998703 369.836482 34.009156 369.836482 73.523306 Z M 369.836482 199.489628 " transform="matrix(0.0978684, 0, 0, -0.0978684, 0, 34.906547)"/>
</g>
<g clip-path="url(#clip-4)">
<path fill-rule="nonzero" fill="rgb(56.864929%, 56.079102%, 56.274414%)" fill-opacity="1" d="M 18.195312 14.34375 C 28.136719 14.34375 36.195312 11.210938 36.195312 7.34375 C 36.195312 3.476562 28.136719 0.34375 18.195312 0.34375 C 8.253906 0.34375 0.195312 3.476562 0.195312 7.34375 C 0.195312 11.210938 8.253906 14.34375 18.195312 14.34375 "/>
</g>
<g clip-path="url(#clip-5)">
<path fill="none" stroke-width="4" stroke-linecap="butt" stroke-linejoin="miter" stroke="rgb(100%, 100%, 100%)" stroke-opacity="1" stroke-miterlimit="4" d="M 185.916073 210.106561 C 287.495378 210.106561 369.836482 242.117014 369.836482 281.631164 C 369.836482 321.145315 287.495378 353.155768 185.916073 353.155768 C 84.336767 353.155768 1.995664 321.145315 1.995664 281.631164 C 1.995664 242.117014 84.336767 210.106561 185.916073 210.106561 Z M 185.916073 210.106561 " transform="matrix(0.0978684, 0, 0, -0.0978684, 0, 34.906547)"/>
</g>
<path fill-rule="nonzero" fill="rgb(100%, 100%, 100%)" fill-opacity="1" d="M 14.085938 4.605469 L 15.570312 6.835938 L 9.953125 8.136719 L 11.179688 7.113281 L 2.496094 5.628906 L 4.671875 3.996094 L 13.054688 5.414062 L 14.085938 4.605469 "/>
<path fill-rule="nonzero" fill="rgb(100%, 100%, 100%)" fill-opacity="1" d="M 21.992188 10.015625 L 20.980469 7.714844 L 26.046875 6.703125 L 25.167969 7.488281 L 33.617188 8.933594 L 31.589844 10.554688 L 23.191406 8.976562 L 21.992188 10.015625 "/>
<path fill-rule="nonzero" fill="rgb(100%, 100%, 100%)" fill-opacity="1" d="M 19.222656 3.390625 L 24.898438 1.835938 L 24.964844 4.269531 L 23.546875 4 L 20.777344 6.296875 L 18.132812 5.910156 L 20.992188 3.664062 L 19.222656 3.390625 "/>
<path fill-rule="nonzero" fill="rgb(100%, 100%, 100%)" fill-opacity="1" d="M 16.789062 12.109375 L 11.382812 13.121094 L 11.179688 10.621094 L 12.734375 10.960938 L 15.710938 8.417969 L 18.34375 8.863281 L 15.167969 11.636719 L 16.789062 12.109375 "/>
<path fill-rule="nonzero" fill="rgb(3.292847%, 48.298645%, 73.153687%)" fill-opacity="1" d="M 0.609375 17.609375 C 2.476562 20.742188 9.066406 22.867188 17.832031 22.867188 C 26.363281 22.867188 33.75 20.5 35.820312 17.503906 L 35.800781 15.449219 C 35.800781 18.863281 27.3125 21.886719 17.832031 21.886719 C 8.351562 21.886719 1.003906 18.957031 0.523438 15.695312 L 0.609375 17.609375 "/>
<path fill-rule="nonzero" fill="rgb(56.864929%, 56.079102%, 56.274414%)" fill-opacity="1" d="M 16.4375 20.59375 L 16.4375 21.476562 L 13.359375 21.476562 L 17.902344 27.378906 L 22.449219 21.476562 L 19.367188 21.476562 L 19.367188 20.59375 L 16.4375 20.59375 "/>
<path fill-rule="nonzero" fill="rgb(100%, 100%, 100%)" fill-opacity="1" d="M 13.585938 32.414062 L 24.351562 21.648438 L 23.378906 21.105469 L 12.609375 31.871094 L 13.585938 32.414062 "/>
<path fill-rule="nonzero" fill="rgb(100%, 100%, 100%)" fill-opacity="1" d="M 22.226562 32.265625 L 11.5625 21.628906 L 12.523438 21.078125 L 23.1875 31.710938 L 22.226562 32.265625 "/>
<path fill-rule="nonzero" fill="rgb(100%, 100%, 100%)" fill-opacity="1" d="M 19.40625 31.703125 L 19.390625 32.679688 C 22.296875 32.519531 26.507812 32.078125 28.890625 31.402344 L 28.910156 30.460938 C 26.59375 31.117188 22.242188 31.546875 19.40625 31.703125 "/>
<path fill-rule="nonzero" fill="rgb(100%, 100%, 100%)" fill-opacity="1" d="M 7.554688 31.417969 C 9.847656 32.0625 13.664062 32.492188 16.441406 32.664062 L 16.503906 31.757812 C 13.5625 31.574219 9.585938 31.03125 7.609375 30.476562 L 7.554688 31.417969 "/>
<path fill-rule="nonzero" fill="rgb(100%, 100%, 100%)" fill-opacity="1" d="M 7.273438 21.085938 C 9.574219 21.757812 13.414062 22.210938 16.230469 22.398438 L 16.226562 21.421875 C 13.246094 21.222656 9.25 20.722656 7.265625 20.144531 L 7.273438 21.085938 "/>
<path fill-rule="nonzero" fill="rgb(100%, 100%, 100%)" fill-opacity="1" d="M 19.464844 21.449219 L 19.378906 22.425781 C 22.375 22.261719 26.660156 21.800781 29.097656 21.089844 L 29.105469 20.152344 C 26.738281 20.839844 22.386719 21.289062 19.464844 21.449219 "/>
<path fill-rule="nonzero" fill="rgb(100%, 100%, 100%)" fill-opacity="1" d="M 10.136719 27.226562 L 11.570312 27.476562 L 10.871094 25.132812 L 10.855469 25.128906 Z M 9.433594 29.234375 L 8.195312 29.019531 L 10.199219 23.746094 L 11.554688 23.984375 L 13.535156 29.949219 L 12.257812 29.726562 L 11.898438 28.507812 L 9.824219 28.144531 L 9.433594 29.234375 "/>
<path fill-rule="nonzero" fill="rgb(100%, 100%, 100%)" fill-opacity="1" d="M 25.667969 26.566406 C 26.542969 26.441406 26.542969 25.816406 26.542969 25.566406 C 26.542969 25.015625 26.238281 24.832031 25.507812 24.9375 L 24.578125 25.066406 L 24.578125 26.71875 Z M 24.578125 29.71875 L 23.40625 29.882812 L 23.40625 24.261719 L 25.972656 23.898438 C 27.058594 23.746094 27.71875 24.351562 27.71875 25.453125 C 27.71875 25.964844 27.4375 27.289062 25.925781 27.5 L 24.578125 27.691406 L 24.578125 29.71875 "/>
</svg>
