<?xml version="1.0" encoding="UTF-8"?>
<svg xmlns="http://www.w3.org/2000/svg" xmlns:xlink="http://www.w3.org/1999/xlink" width="48.81" height="20.64" viewBox="0 0 48.81 20.64">
<defs>
<clipPath id="clip-0">
<path clip-rule="nonzero" d="M 0.324219 11 L 37 11 L 37 20 L 0.324219 20 Z M 0.324219 11 "/>
</clipPath>
<clipPath id="clip-1">
<path clip-rule="nonzero" d="M 0.324219 0 L 48 0 L 48 12 L 0.324219 12 Z M 0.324219 0 "/>
</clipPath>
<clipPath id="clip-2">
<path clip-rule="nonzero" d="M 0.324219 0 L 48.296875 0 L 48.296875 15 L 0.324219 15 Z M 0.324219 0 "/>
</clipPath>
<clipPath id="clip-3">
<path clip-rule="nonzero" d="M 33 0 L 48.296875 0 L 48.296875 20.285156 L 33 20.285156 Z M 33 0 "/>
</clipPath>
</defs>
<g clip-path="url(#clip-0)">
<path fill-rule="nonzero" fill="rgb(3.292847%, 48.297119%, 73.150635%)" fill-opacity="1" d="M 0.972656 19.453125 L 36.078125 19.453125 L 36.078125 11.878906 L 0.972656 11.878906 Z M 0.972656 19.453125 "/>
<path fill="none" stroke-width="3.99994" stroke-linecap="butt" stroke-linejoin="miter" stroke="rgb(100%, 100%, 100%)" stroke-opacity="1" stroke-miterlimit="4" d="M 363.76726 8.475763 L 363.76726 85.539035 L 6.589526 85.539035 L 6.589526 8.475763 Z M 363.76726 8.475763 " transform="matrix(0.0982857, 0, 0, -0.0982857, 0.325, 20.286171)"/>
</g>
<g clip-path="url(#clip-1)">
<path fill-rule="nonzero" fill="rgb(3.292847%, 48.297119%, 73.150635%)" fill-opacity="1" d="M 0.878906 11.9375 L 15.0625 0.445312 L 47.820312 0.445312 L 36.046875 11.9375 L 0.878906 11.9375 "/>
</g>
<g clip-path="url(#clip-2)">
<path fill="none" stroke-width="3.99994" stroke-linecap="butt" stroke-linejoin="miter" stroke="rgb(100%, 100%, 100%)" stroke-opacity="1" stroke-miterlimit="4" d="M 5.635674 84.942878 L 149.945494 201.869204 L 483.237191 201.869204 L 363.44931 84.942878 Z M 5.635674 84.942878 " transform="matrix(0.0982857, 0, 0, -0.0982857, 0.325, 20.286171)"/>
</g>
<path fill-rule="nonzero" fill="rgb(3.292847%, 48.297119%, 73.150635%)" fill-opacity="1" d="M 36.058594 19.8125 L 47.785156 8.132812 L 47.796875 0.464844 L 36.058594 11.921875 L 36.058594 19.8125 "/>
<g clip-path="url(#clip-3)">
<path fill="none" stroke-width="3.99994" stroke-linecap="butt" stroke-linejoin="miter" stroke="rgb(100%, 100%, 100%)" stroke-opacity="1" stroke-miterlimit="4" d="M 363.568541 4.819331 L 482.879497 123.653361 L 482.998728 201.670485 L 363.568541 85.101853 Z M 363.568541 4.819331 " transform="matrix(0.0982857, 0, 0, -0.0982857, 0.325, 20.286171)"/>
</g>
<path fill-rule="nonzero" fill="rgb(100%, 100%, 100%)" fill-opacity="1" d="M 23.625 3.425781 L 24.417969 6.039062 L 19.03125 5.367188 L 20.539062 4.816406 L 15.039062 1.824219 L 17.160156 1.015625 L 22.394531 3.84375 L 23.625 3.425781 "/>
<path fill-rule="nonzero" fill="rgb(100%, 100%, 100%)" fill-opacity="1" d="M 26.277344 8.90625 L 25.371094 6.390625 L 30.707031 7.082031 L 29.742188 7.542969 L 35.71875 10.347656 L 33.507812 11.226562 L 27.59375 8.3125 L 26.277344 8.90625 "/>
<path fill-rule="nonzero" fill="rgb(100%, 100%, 100%)" fill-opacity="1" d="M 37.511719 1.328125 L 43.40625 1.777344 L 42.648438 4.101562 L 41.398438 3.367188 L 29.277344 6.199219 L 26.90625 4.941406 L 39.09375 2.183594 L 37.511719 1.328125 "/>
<path fill-rule="nonzero" fill="rgb(100%, 100%, 100%)" fill-opacity="1" d="M 11.867188 11.191406 L 6.414062 10.320312 L 7.066406 7.886719 L 8.421875 8.730469 L 20.695312 6.230469 L 23.035156 7.542969 L 10.496094 10.195312 L 11.867188 11.191406 "/>
<path fill-rule="nonzero" fill="rgb(100%, 100%, 100%)" fill-opacity="1" d="M 3.40625 17.125 L 10.902344 17.125 L 10.902344 14.054688 L 3.40625 14.054688 Z M 3.40625 17.125 "/>
<path fill-rule="nonzero" fill="rgb(100%, 100%, 100%)" fill-opacity="1" d="M 25.496094 17.125 L 32.988281 17.125 L 32.988281 14.054688 L 25.496094 14.054688 Z M 25.496094 17.125 "/>
</svg>
