<?xml version="1.0" encoding="UTF-8"?>
<svg xmlns="http://www.w3.org/2000/svg" xmlns:xlink="http://www.w3.org/1999/xlink" width="21.53" height="36.25" viewBox="0 0 21.53 36.25">
<defs>
<clipPath id="clip-0">
<path clip-rule="nonzero" d="M 16 0.0195312 L 21 0.0195312 L 21 35.300781 L 16 35.300781 Z M 16 0.0195312 "/>
</clipPath>
<clipPath id="clip-1">
<path clip-rule="nonzero" d="M 14 0.0195312 L 21.039062 0.0195312 L 21.039062 35.300781 L 14 35.300781 Z M 14 0.0195312 "/>
</clipPath>
<clipPath id="clip-2">
<path clip-rule="nonzero" d="M 0 4 L 17 4 L 17 35.300781 L 0 35.300781 Z M 0 4 "/>
</clipPath>
<clipPath id="clip-3">
<path clip-rule="nonzero" d="M 0 3 L 18 3 L 18 35.300781 L 0 35.300781 Z M 0 3 "/>
</clipPath>
<clipPath id="clip-4">
<path clip-rule="nonzero" d="M 0 0.0195312 L 21 0.0195312 L 21 5 L 0 5 Z M 0 0.0195312 "/>
</clipPath>
<clipPath id="clip-5">
<path clip-rule="nonzero" d="M 0 0.0195312 L 21.039062 0.0195312 L 21.039062 7 L 0 7 Z M 0 0.0195312 "/>
</clipPath>
</defs>
<g clip-path="url(#clip-0)">
<path fill-rule="nonzero" fill="rgb(0.784302%, 43.920898%, 62.350464%)" fill-opacity="1" d="M 20.589844 31.382812 L 16.847656 35.03125 L 16.847656 4.132812 L 20.589844 0.484375 L 20.589844 31.382812 "/>
</g>
<g clip-path="url(#clip-1)">
<path fill="none" stroke-width="3.99994" stroke-linecap="butt" stroke-linejoin="miter" stroke="rgb(100%, 100%, 100%)" stroke-opacity="1" stroke-miterlimit="4" d="M 210.393201 42.027694 L 172.154407 4.746865 L 172.154407 320.47637 L 210.393201 357.757199 Z M 210.393201 42.027694 " transform="matrix(0.0978636, 0, 0, -0.0978636, 0, 35.495795)"/>
</g>
<g clip-path="url(#clip-2)">
<path fill-rule="nonzero" fill="rgb(0.784302%, 43.920898%, 62.350464%)" fill-opacity="1" d="M 0.480469 35.03125 L 16.847656 35.03125 L 16.847656 4.132812 L 0.480469 4.132812 Z M 0.480469 35.03125 "/>
</g>
<g clip-path="url(#clip-3)">
<path fill="none" stroke-width="3.99994" stroke-linecap="butt" stroke-linejoin="miter" stroke="rgb(100%, 100%, 100%)" stroke-opacity="1" stroke-miterlimit="4" d="M 4.909574 4.746865 L 172.154407 4.746865 L 172.154407 320.47637 L 4.909574 320.47637 Z M 4.909574 4.746865 " transform="matrix(0.0978636, 0, 0, -0.0978636, 0, 35.495795)"/>
</g>
<g clip-path="url(#clip-4)">
<path fill-rule="nonzero" fill="rgb(0.784302%, 43.920898%, 62.350464%)" fill-opacity="1" d="M 4.222656 0.484375 L 20.589844 0.484375 L 16.847656 4.132812 L 0.480469 4.132812 L 4.222656 0.484375 "/>
</g>
<g clip-path="url(#clip-5)">
<path fill="none" stroke-width="3.99994" stroke-linecap="butt" stroke-linejoin="miter" stroke="rgb(100%, 100%, 100%)" stroke-opacity="1" stroke-miterlimit="4" d="M 43.148369 357.757199 L 210.393201 357.757199 L 172.154407 320.47637 L 4.909574 320.47637 Z M 43.148369 357.757199 " transform="matrix(0.0978636, 0, 0, -0.0978636, 0, 35.495795)"/>
</g>
<path fill-rule="nonzero" fill="rgb(100%, 100%, 100%)" fill-opacity="1" d="M 4.921875 11.683594 L 11.992188 11.683594 L 11.992188 7.527344 L 4.921875 7.527344 Z M 4.921875 11.683594 "/>
<path fill-rule="nonzero" fill="rgb(100%, 100%, 100%)" fill-opacity="1" d="M 3.570312 16.351562 C 4.136719 16.351562 4.597656 15.894531 4.597656 15.324219 C 4.597656 14.757812 4.136719 14.296875 3.570312 14.296875 C 3 14.296875 2.539062 14.757812 2.539062 15.324219 C 2.539062 15.894531 3 16.351562 3.570312 16.351562 "/>
<path fill-rule="nonzero" fill="rgb(100%, 100%, 100%)" fill-opacity="1" d="M 3.570312 20.097656 C 4.136719 20.097656 4.597656 19.636719 4.597656 19.066406 C 4.597656 18.5 4.136719 18.039062 3.570312 18.039062 C 3 18.039062 2.539062 18.5 2.539062 19.066406 C 2.539062 19.636719 3 20.097656 3.570312 20.097656 "/>
<path fill-rule="nonzero" fill="rgb(100%, 100%, 100%)" fill-opacity="1" d="M 3.570312 23.839844 C 4.136719 23.839844 4.597656 23.378906 4.597656 22.8125 C 4.597656 22.242188 4.136719 21.78125 3.570312 21.78125 C 3 21.78125 2.539062 22.242188 2.539062 22.8125 C 2.539062 23.378906 3 23.839844 3.570312 23.839844 "/>
<path fill-rule="nonzero" fill="rgb(100%, 100%, 100%)" fill-opacity="1" d="M 3.570312 27.582031 C 4.136719 27.582031 4.597656 27.121094 4.597656 26.554688 C 4.597656 25.984375 4.136719 25.523438 3.570312 25.523438 C 3 25.523438 2.539062 25.984375 2.539062 26.554688 C 2.539062 27.121094 3 27.582031 3.570312 27.582031 "/>
<path fill-rule="nonzero" fill="rgb(100%, 100%, 100%)" fill-opacity="1" d="M 3.570312 31.328125 C 4.136719 31.328125 4.597656 30.867188 4.597656 30.296875 C 4.597656 29.730469 4.136719 29.269531 3.570312 29.269531 C 3 29.269531 2.539062 29.730469 2.539062 30.296875 C 2.539062 30.867188 3 31.328125 3.570312 31.328125 "/>
<path fill="none" stroke-width="3.99994" stroke-linecap="butt" stroke-linejoin="miter" stroke="rgb(100%, 100%, 100%)" stroke-opacity="1" stroke-miterlimit="4" d="M 50.293196 209.312442 L 118.26884 209.312442 " transform="matrix(0.0978636, 0, 0, -0.0978636, 0, 35.495795)"/>
<path fill="none" stroke-width="3.99994" stroke-linecap="butt" stroke-linejoin="miter" stroke="rgb(100%, 100%, 100%)" stroke-opacity="1" stroke-miterlimit="4" d="M 50.293196 171.073647 L 118.26884 171.073647 " transform="matrix(0.0978636, 0, 0, -0.0978636, 0, 35.495795)"/>
<path fill="none" stroke-width="3.99994" stroke-linecap="butt" stroke-linejoin="miter" stroke="rgb(100%, 100%, 100%)" stroke-opacity="1" stroke-miterlimit="4" d="M 50.293196 132.794937 L 118.26884 132.794937 " transform="matrix(0.0978636, 0, 0, -0.0978636, 0, 35.495795)"/>
<path fill="none" stroke-width="3.99994" stroke-linecap="butt" stroke-linejoin="miter" stroke="rgb(100%, 100%, 100%)" stroke-opacity="1" stroke-miterlimit="4" d="M 50.293196 94.556143 L 118.26884 94.556143 " transform="matrix(0.0978636, 0, 0, -0.0978636, 0, 35.495795)"/>
<path fill="none" stroke-width="3.99994" stroke-linecap="butt" stroke-linejoin="miter" stroke="rgb(100%, 100%, 100%)" stroke-opacity="1" stroke-miterlimit="4" d="M 50.293196 56.317348 L 118.26884 56.317348 " transform="matrix(0.0978636, 0, 0, -0.0978636, 0, 35.495795)"/>
<path fill-rule="nonzero" fill="rgb(100%, 100%, 100%)" fill-opacity="1" d="M 13.136719 16.351562 C 13.703125 16.351562 14.164062 15.894531 14.164062 15.324219 C 14.164062 14.757812 13.703125 14.296875 13.136719 14.296875 C 12.566406 14.296875 12.105469 14.757812 12.105469 15.324219 C 12.105469 15.894531 12.566406 16.351562 13.136719 16.351562 "/>
<path fill-rule="nonzero" fill="rgb(100%, 100%, 100%)" fill-opacity="1" d="M 13.136719 20.097656 C 13.703125 20.097656 14.164062 19.636719 14.164062 19.066406 C 14.164062 18.5 13.703125 18.039062 13.136719 18.039062 C 12.566406 18.039062 12.105469 18.5 12.105469 19.066406 C 12.105469 19.636719 12.566406 20.097656 13.136719 20.097656 "/>
<path fill-rule="nonzero" fill="rgb(100%, 100%, 100%)" fill-opacity="1" d="M 13.136719 23.839844 C 13.703125 23.839844 14.164062 23.378906 14.164062 22.8125 C 14.164062 22.242188 13.703125 21.78125 13.136719 21.78125 C 12.566406 21.78125 12.105469 22.242188 12.105469 22.8125 C 12.105469 23.378906 12.566406 23.839844 13.136719 23.839844 "/>
<path fill-rule="nonzero" fill="rgb(100%, 100%, 100%)" fill-opacity="1" d="M 13.136719 27.582031 C 13.703125 27.582031 14.164062 27.121094 14.164062 26.554688 C 14.164062 25.984375 13.703125 25.523438 13.136719 25.523438 C 12.566406 25.523438 12.105469 25.984375 12.105469 26.554688 C 12.105469 27.121094 12.566406 27.582031 13.136719 27.582031 "/>
<path fill-rule="nonzero" fill="rgb(100%, 100%, 100%)" fill-opacity="1" d="M 13.136719 31.328125 C 13.703125 31.328125 14.164062 30.867188 14.164062 30.296875 C 14.164062 29.730469 13.703125 29.269531 13.136719 29.269531 C 12.566406 29.269531 12.105469 29.730469 12.105469 30.296875 C 12.105469 30.867188 12.566406 31.328125 13.136719 31.328125 "/>
</svg>
