<?xml version="1.0" encoding="UTF-8"?>
<svg xmlns="http://www.w3.org/2000/svg" xmlns:xlink="http://www.w3.org/1999/xlink" width="37.16" height="37.41" viewBox="0 0 37.16 37.41">
<defs>
<clipPath id="clip-0">
<path clip-rule="nonzero" d="M 0 7 L 36.183594 7 L 36.183594 36.316406 L 0 36.316406 Z M 0 7 "/>
</clipPath>
<clipPath id="clip-1">
<path clip-rule="nonzero" d="M 0 5 L 36.183594 5 L 36.183594 36.316406 L 0 36.316406 Z M 0 5 "/>
</clipPath>
<clipPath id="clip-2">
<path clip-rule="nonzero" d="M 0 0.136719 L 36.183594 0.136719 L 36.183594 15 L 0 15 Z M 0 0.136719 "/>
</clipPath>
<clipPath id="clip-3">
<path clip-rule="nonzero" d="M 0 0.136719 L 36.183594 0.136719 L 36.183594 17 L 0 17 Z M 0 0.136719 "/>
</clipPath>
</defs>
<g clip-path="url(#clip-0)">
<path fill-rule="nonzero" fill="rgb(3.292847%, 48.297119%, 73.150635%)" fill-opacity="1" d="M 36.167969 7.316406 C 36.167969 11.179688 28.117188 14.308594 18.183594 14.308594 C 8.25 14.308594 0.195312 11.179688 0.195312 7.316406 L 0.195312 29.519531 C 0.195312 33.382812 8.25 36.511719 18.183594 36.511719 C 28.117188 36.511719 36.167969 33.382812 36.167969 29.519531 L 36.167969 7.316406 "/>
</g>
<g clip-path="url(#clip-1)">
<path fill="none" stroke-width="3.99994" stroke-linecap="butt" stroke-linejoin="miter" stroke="rgb(100%, 100%, 100%)" stroke-opacity="1" stroke-miterlimit="4" d="M 369.855439 300.560324 C 369.855439 261.054218 287.527752 229.057868 185.94633 229.057868 C 84.364909 229.057868 1.997275 261.054218 1.997275 300.560324 L 1.997275 73.510068 C 1.997275 34.003963 84.364909 2.007612 185.94633 2.007612 C 287.527752 2.007612 369.855439 34.003963 369.855439 73.510068 Z M 369.855439 300.560324 " transform="matrix(0.0977895, 0, 0, -0.0977895, 0, 36.708042)"/>
</g>
<g clip-path="url(#clip-2)">
<path fill-rule="nonzero" fill="rgb(3.292847%, 48.297119%, 73.150635%)" fill-opacity="1" d="M 18.183594 14.308594 C 28.117188 14.308594 36.167969 11.179688 36.167969 7.316406 C 36.167969 3.449219 28.117188 0.320312 18.183594 0.320312 C 8.25 0.320312 0.195312 3.449219 0.195312 7.316406 C 0.195312 11.179688 8.25 14.308594 18.183594 14.308594 "/>
</g>
<g clip-path="url(#clip-3)">
<path fill="none" stroke-width="3.99994" stroke-linecap="butt" stroke-linejoin="miter" stroke="rgb(100%, 100%, 100%)" stroke-opacity="1" stroke-miterlimit="4" d="M 185.94633 229.057868 C 287.527752 229.057868 369.855439 261.054218 369.855439 300.560324 C 369.855439 340.106374 287.527752 372.102725 185.94633 372.102725 C 84.364909 372.102725 1.997275 340.106374 1.997275 300.560324 C 1.997275 261.054218 84.364909 229.057868 185.94633 229.057868 Z M 185.94633 229.057868 " transform="matrix(0.0977895, 0, 0, -0.0977895, 0, 36.708042)"/>
</g>
<path fill-rule="nonzero" fill="rgb(100%, 100%, 100%)" fill-opacity="1" d="M 16.226562 17.992188 L 16.226562 31.359375 L 31.855469 24.898438 L 16.226562 17.992188 "/>
<path fill-rule="nonzero" fill="rgb(100%, 100%, 100%)" fill-opacity="1" d="M 14.542969 17.867188 L 14.542969 20.660156 L 9.472656 20.664062 L 9.472656 17.875 L 14.542969 17.867188 "/>
<path fill="none" stroke-width="3.99994" stroke-linecap="butt" stroke-linejoin="miter" stroke="rgb(13.729858%, 12.159729%, 12.548828%)" stroke-opacity="1" stroke-miterlimit="4" d="M 148.717119 192.667512 L 148.717119 164.106475 L 96.867852 164.06653 L 96.867852 192.587621 Z M 148.717119 192.667512 " transform="matrix(0.0977895, 0, 0, -0.0977895, 0, 36.708042)"/>
<path fill-rule="nonzero" fill="rgb(100%, 100%, 100%)" fill-opacity="1" d="M 14.542969 21.511719 L 14.542969 24.304688 L 9.472656 24.308594 L 9.472656 21.515625 L 14.542969 21.511719 "/>
<path fill="none" stroke-width="3.99994" stroke-linecap="butt" stroke-linejoin="miter" stroke="rgb(13.729858%, 12.159729%, 12.548828%)" stroke-opacity="1" stroke-miterlimit="4" d="M 148.717119 155.398355 L 148.717119 126.837318 L 96.867852 126.797373 L 96.867852 155.35841 Z M 148.717119 155.398355 " transform="matrix(0.0977895, 0, 0, -0.0977895, 0, 36.708042)"/>
<path fill-rule="nonzero" fill="rgb(100%, 100%, 100%)" fill-opacity="1" d="M 14.542969 25.226562 L 14.542969 28.019531 L 9.472656 28.023438 L 9.472656 25.230469 L 14.542969 25.226562 "/>
<path fill="none" stroke-width="3.99994" stroke-linecap="butt" stroke-linejoin="miter" stroke="rgb(13.729858%, 12.159729%, 12.548828%)" stroke-opacity="1" stroke-miterlimit="4" d="M 148.717119 117.410179 L 148.717119 88.849142 L 96.867852 88.809197 L 96.867852 117.370233 Z M 148.717119 117.410179 " transform="matrix(0.0977895, 0, 0, -0.0977895, 0, 36.708042)"/>
<path fill-rule="nonzero" fill="rgb(100%, 100%, 100%)" fill-opacity="1" d="M 14.542969 28.941406 L 14.542969 31.738281 L 9.472656 31.738281 L 9.472656 28.949219 L 14.542969 28.941406 "/>
<path fill="none" stroke-width="3.99994" stroke-linecap="butt" stroke-linejoin="miter" stroke="rgb(13.729858%, 12.159729%, 12.548828%)" stroke-opacity="1" stroke-miterlimit="4" d="M 148.717119 79.422003 L 148.717119 50.821021 L 96.867852 50.821021 L 96.867852 79.342112 Z M 148.717119 79.422003 " transform="matrix(0.0977895, 0, 0, -0.0977895, 0, 36.708042)"/>
<path fill-rule="nonzero" fill="rgb(100%, 100%, 100%)" fill-opacity="1" d="M 14.328125 4.339844 L 15.816406 6.566406 L 10.199219 7.863281 L 11.425781 6.839844 L 2.75 5.359375 L 4.925781 3.726562 L 13.300781 5.144531 L 14.328125 4.339844 "/>
<path fill-rule="nonzero" fill="rgb(100%, 100%, 100%)" fill-opacity="1" d="M 22.230469 9.742188 L 21.21875 7.445312 L 26.285156 6.429688 L 25.40625 7.21875 L 33.847656 8.660156 L 31.820312 10.28125 L 23.429688 8.707031 L 22.230469 9.742188 "/>
<path fill-rule="nonzero" fill="rgb(100%, 100%, 100%)" fill-opacity="1" d="M 19.460938 3.121094 L 25.136719 1.570312 L 25.203125 4 L 23.785156 3.730469 L 21.015625 6.027344 L 18.375 5.640625 L 21.230469 3.394531 L 19.460938 3.121094 "/>
<path fill-rule="nonzero" fill="rgb(100%, 100%, 100%)" fill-opacity="1" d="M 17.03125 11.832031 L 11.628906 12.847656 L 11.425781 10.347656 L 12.980469 10.6875 L 15.953125 8.148438 L 18.585938 8.59375 L 15.410156 11.359375 L 17.03125 11.832031 "/>
</svg>
