<?xml version="1.0" encoding="UTF-8"?>
<svg xmlns="http://www.w3.org/2000/svg" xmlns:xlink="http://www.w3.org/1999/xlink" width="24.34" height="36.53" viewBox="0 0 24.34 36.53">
<defs>
<clipPath id="clip-0">
<path clip-rule="nonzero" d="M 0 4 L 19 4 L 19 35.820312 L 0 35.820312 Z M 0 4 "/>
</clipPath>
<clipPath id="clip-1">
<path clip-rule="nonzero" d="M 0 0.28125 L 23.367188 0.28125 L 23.367188 5 L 0 5 Z M 0 0.28125 "/>
</clipPath>
<clipPath id="clip-2">
<path clip-rule="nonzero" d="M 0 0.28125 L 23.367188 0.28125 L 23.367188 7 L 0 7 Z M 0 0.28125 "/>
</clipPath>
<clipPath id="clip-3">
<path clip-rule="nonzero" d="M 18 0.28125 L 23.367188 0.28125 L 23.367188 35.820312 L 18 35.820312 Z M 18 0.28125 "/>
</clipPath>
<clipPath id="clip-4">
<path clip-rule="nonzero" d="M 16 0.28125 L 23.367188 0.28125 L 23.367188 35.820312 L 16 35.820312 Z M 16 0.28125 "/>
</clipPath>
</defs>
<g clip-path="url(#clip-0)">
<path fill-rule="nonzero" fill="rgb(3.292847%, 48.297119%, 73.150635%)" fill-opacity="1" d="M 0.628906 35.269531 L 18.667969 35.269531 L 18.667969 4.375 L 0.628906 4.375 Z M 0.628906 35.269531 "/>
<path fill="none" stroke-width="3.99994" stroke-linecap="butt" stroke-linejoin="miter" stroke="rgb(100%, 100%, 100%)" stroke-opacity="1" stroke-miterlimit="4" d="M 6.459596 5.643763 L 6.459596 322.966393 L 191.741668 322.966393 L 191.741668 5.643763 Z M 6.459596 5.643763 " transform="matrix(0.09736, 0, 0, -0.09736, 0, 35.819008)"/>
</g>
<g clip-path="url(#clip-1)">
<path fill-rule="nonzero" fill="rgb(3.292847%, 48.297119%, 73.150635%)" fill-opacity="1" d="M 6.039062 0.675781 L 0.628906 4.375 L 18.667969 4.375 L 23.152344 0.675781 L 6.039062 0.675781 "/>
</g>
<g clip-path="url(#clip-2)">
<path fill="none" stroke-width="3.99994" stroke-linecap="butt" stroke-linejoin="miter" stroke="rgb(100%, 100%, 100%)" stroke-opacity="1" stroke-miterlimit="4" d="M 62.028169 360.961655 L 6.459596 322.966393 L 191.741668 322.966393 L 237.801394 360.961655 Z M 62.028169 360.961655 " transform="matrix(0.09736, 0, 0, -0.09736, 0, 35.819008)"/>
</g>
<g clip-path="url(#clip-3)">
<path fill-rule="nonzero" fill="rgb(3.292847%, 48.297119%, 73.150635%)" fill-opacity="1" d="M 23.152344 29.71875 L 23.152344 0.675781 L 18.667969 4.585938 L 18.667969 35.269531 L 23.152344 29.71875 "/>
</g>
<g clip-path="url(#clip-4)">
<path fill="none" stroke-width="3.99994" stroke-linecap="butt" stroke-linejoin="miter" stroke="rgb(100%, 100%, 100%)" stroke-opacity="1" stroke-miterlimit="4" d="M 237.801394 62.656717 L 237.801394 360.961655 L 191.741668 320.79982 L 191.741668 5.643763 Z M 237.801394 62.656717 " transform="matrix(0.09736, 0, 0, -0.09736, 0, 35.819008)"/>
</g>
<path fill-rule="nonzero" fill="rgb(100%, 100%, 100%)" fill-opacity="1" d="M 9.886719 4.804688 L 1.246094 19.617188 L 18.53125 19.617188 L 9.886719 4.804688 "/>
<path fill-rule="nonzero" fill="rgb(100%, 100%, 100%)" fill-opacity="1" d="M 9.886719 34.429688 L 1.246094 19.617188 L 18.53125 19.617188 L 9.886719 34.429688 "/>
<path fill-rule="nonzero" fill="rgb(3.292847%, 48.297119%, 73.150635%)" fill-opacity="1" d="M 8.792969 22.757812 L 10.753906 20.984375 C 8.820312 20.960938 7.839844 21.027344 6.566406 21.140625 C 5.953125 23.449219 5.429688 24.816406 4.808594 26.359375 L 6.863281 24.503906 C 8.328125 25.863281 10.132812 26.199219 11.664062 25.496094 C 11.707031 25.460938 11.753906 25.425781 11.796875 25.386719 L 14.261719 23.160156 C 12.6875 24.582031 10.460938 24.445312 8.792969 22.757812 "/>
<path fill-rule="nonzero" fill="rgb(3.292847%, 48.297119%, 73.150635%)" fill-opacity="1" d="M 7.054688 19.597656 C 6.546875 17.617188 6.8125 15.433594 7.90625 13.886719 C 8.113281 13.59375 8.339844 13.339844 8.582031 13.121094 L 6.117188 15.351562 C 5.875 15.570312 5.648438 15.824219 5.441406 16.117188 C 4.355469 17.648438 4.085938 19.804688 4.574219 21.773438 L 7.054688 19.597656 "/>
<path fill-rule="nonzero" fill="rgb(3.292847%, 48.297119%, 73.150635%)" fill-opacity="1" d="M 11.917969 13.066406 C 10.933594 12.609375 9.886719 12.53125 8.921875 12.847656 C 8.804688 12.933594 8.691406 13.023438 8.582031 13.121094 L 6.117188 15.351562 C 7.246094 14.328125 8.710938 14.113281 10.066406 14.691406 L 8.710938 15.882812 L 12.898438 15.773438 L 13.621094 11.570312 L 11.917969 13.066406 "/>
<path fill-rule="nonzero" fill="rgb(3.292847%, 48.297119%, 73.150635%)" fill-opacity="1" d="M 15.066406 14.558594 C 16.617188 17.671875 16.039062 20.773438 14.933594 22.394531 C 14.726562 22.6875 14.503906 22.9375 14.261719 23.160156 L 11.796875 25.386719 C 12.039062 25.167969 12.261719 24.914062 12.46875 24.621094 C 14.480469 21.664062 13.300781 18.714844 12.671875 16.773438 L 15.066406 14.558594 "/>
</svg>
