<?xml version="1.0" encoding="UTF-8"?>
<svg xmlns="http://www.w3.org/2000/svg" xmlns:xlink="http://www.w3.org/1999/xlink" width="35.51" height="17.76" viewBox="0 0 35.51 17.76">
<defs>
<clipPath id="clip-0">
<path clip-rule="nonzero" d="M 0 0.00390625 L 35 0.00390625 L 35 9 L 0 9 Z M 0 0.00390625 "/>
</clipPath>
<clipPath id="clip-1">
<path clip-rule="nonzero" d="M 0 0.00390625 L 35.027344 0.00390625 L 35.027344 11 L 0 11 Z M 0 0.00390625 "/>
</clipPath>
<clipPath id="clip-2">
<path clip-rule="nonzero" d="M 26 0.00390625 L 35 0.00390625 L 35 17.519531 L 26 17.519531 Z M 26 0.00390625 "/>
</clipPath>
<clipPath id="clip-3">
<path clip-rule="nonzero" d="M 23 0.00390625 L 35.027344 0.00390625 L 35.027344 17.519531 L 23 17.519531 Z M 23 0.00390625 "/>
</clipPath>
<clipPath id="clip-4">
<path clip-rule="nonzero" d="M 0 8 L 27 8 L 27 17.519531 L 0 17.519531 Z M 0 8 "/>
</clipPath>
<clipPath id="clip-5">
<path clip-rule="nonzero" d="M 2 8 L 22 8 L 22 17.519531 L 2 17.519531 Z M 2 8 "/>
</clipPath>
<clipPath id="clip-6">
<path clip-rule="nonzero" d="M 0 8 L 8 8 L 8 17.519531 L 0 17.519531 Z M 0 8 "/>
</clipPath>
<clipPath id="clip-7">
<path clip-rule="nonzero" d="M 18 8 L 28 8 L 28 17.519531 L 18 17.519531 Z M 18 8 "/>
</clipPath>
</defs>
<g clip-path="url(#clip-0)">
<path fill-rule="nonzero" fill="rgb(3.292847%, 48.297119%, 73.150635%)" fill-opacity="1" d="M 0.558594 8.761719 L 10.832031 0.457031 L 34.542969 0.457031 L 26.042969 8.761719 L 0.558594 8.761719 "/>
</g>
<g clip-path="url(#clip-1)">
<path fill="none" stroke-width="3.99994" stroke-linecap="butt" stroke-linejoin="miter" stroke="rgb(100%, 100%, 100%)" stroke-opacity="1" stroke-miterlimit="4" d="M 5.663017 88.799134 L 109.815017 172.991967 L 350.196248 172.991967 L 264.023338 88.799134 Z M 5.663017 88.799134 " transform="matrix(0.0986389, 0, 0, -0.0986389, 0, 17.520767)"/>
</g>
<g clip-path="url(#clip-2)">
<path fill-rule="nonzero" fill="rgb(3.292847%, 48.297119%, 73.150635%)" fill-opacity="1" d="M 26.042969 17.015625 L 34.542969 7.839844 L 34.542969 0.46875 L 26.042969 8.761719 L 26.042969 17.015625 "/>
</g>
<g clip-path="url(#clip-3)">
<path fill="none" stroke-width="3.99994" stroke-linecap="butt" stroke-linejoin="miter" stroke="rgb(100%, 100%, 100%)" stroke-opacity="1" stroke-miterlimit="4" d="M 264.023338 5.121121 L 350.196248 98.145093 L 350.196248 172.873162 L 264.023338 88.799134 Z M 264.023338 5.121121 " transform="matrix(0.0986389, 0, 0, -0.0986389, 0, 17.520767)"/>
</g>
<g clip-path="url(#clip-4)">
<path fill-rule="nonzero" fill="rgb(3.292847%, 48.297119%, 73.150635%)" fill-opacity="1" d="M 0.59375 17.023438 L 26.042969 17.023438 L 26.042969 8.761719 L 0.59375 8.761719 Z M 0.59375 17.023438 "/>
<path fill="none" stroke-width="3.99994" stroke-linecap="butt" stroke-linejoin="miter" stroke="rgb(100%, 100%, 100%)" stroke-opacity="1" stroke-miterlimit="4" d="M 264.023338 5.041918 L 264.023338 88.799134 L 6.019431 88.799134 L 6.019431 5.041918 Z M 264.023338 5.041918 " transform="matrix(0.0986389, 0, 0, -0.0986389, 0, 17.520767)"/>
</g>
<path fill-rule="nonzero" fill="rgb(100%, 100%, 100%)" fill-opacity="1" d="M 14.457031 13.339844 L 4.507812 13.347656 L 4.507812 12.132812 L 14.457031 12.128906 L 14.460938 10.234375 L 18.882812 12.738281 L 14.460938 15.238281 L 14.457031 13.339844 "/>
<g clip-path="url(#clip-5)">
<path fill="none" stroke-width="3.983" stroke-linecap="butt" stroke-linejoin="miter" stroke="rgb(100%, 100%, 100%)" stroke-opacity="1" stroke-miterlimit="4" d="M 146.565228 42.386152 L 45.700155 42.306949 L 45.700155 54.623022 L 146.565228 54.662623 L 146.60483 73.869361 L 191.433751 48.484786 L 146.60483 23.139813 Z M 146.565228 42.386152 " transform="matrix(0.0986389, 0, 0, -0.0986389, 0, 17.520767)"/>
</g>
<path fill-rule="nonzero" fill="rgb(100%, 100%, 100%)" fill-opacity="1" d="M 5.601562 12.132812 L 5.597656 10.238281 L 1.175781 12.742188 L 5.597656 15.246094 L 5.601562 13.347656 "/>
<g clip-path="url(#clip-6)">
<path fill="none" stroke-width="3.983" stroke-linecap="butt" stroke-linejoin="miter" stroke="rgb(100%, 100%, 100%)" stroke-opacity="1" stroke-miterlimit="4" d="M 56.788581 54.623022 L 56.748979 73.829759 L 11.920058 48.445184 L 56.748979 23.06061 L 56.788581 42.306949 " transform="matrix(0.0986389, 0, 0, -0.0986389, 0, 17.520767)"/>
</g>
<path fill-rule="nonzero" fill="rgb(100%, 100%, 100%)" fill-opacity="1" d="M 24.941406 12.132812 L 24.9375 10.238281 L 20.515625 12.742188 L 24.9375 15.246094 L 24.941406 13.347656 L 24.941406 12.132812 "/>
<g clip-path="url(#clip-7)">
<path fill="none" stroke-width="3.983" stroke-linecap="butt" stroke-linejoin="miter" stroke="rgb(100%, 100%, 100%)" stroke-opacity="1" stroke-miterlimit="4" d="M 252.85571 54.623022 L 252.816108 73.829759 L 207.987187 48.445184 L 252.816108 23.06061 L 252.85571 42.306949 Z M 252.85571 54.623022 " transform="matrix(0.0986389, 0, 0, -0.0986389, 0, 17.520767)"/>
</g>
</svg>
