<?xml version="1.0" encoding="UTF-8"?>
<svg xmlns="http://www.w3.org/2000/svg" xmlns:xlink="http://www.w3.org/1999/xlink" width="612" height="792" viewBox="0 0 612 792">
<path fill-rule="nonzero" fill="rgb(0.779724%, 43.917847%, 62.348938%)" fill-opacity="1" stroke-width="3.9999" stroke-linecap="butt" stroke-linejoin="miter" stroke="rgb(100%, 100%, 100%)" stroke-opacity="1" stroke-miterlimit="4" d="M 3233.632812 3973.867188 L 3233.632812 4133.515625 L 3217.65625 4119.453125 L 3217.65625 3959.804688 Z M 3233.632812 3973.867188 " transform="matrix(0.1, 0, 0, -0.1, 0, 792)"/>
<path fill-rule="nonzero" fill="rgb(0.779724%, 43.917847%, 62.348938%)" fill-opacity="1" stroke-width="3.9999" stroke-linecap="butt" stroke-linejoin="miter" stroke="rgb(100%, 100%, 100%)" stroke-opacity="1" stroke-miterlimit="4" d="M 3217.304688 3960.078125 L 3217.304688 4119.140625 L 2906.015625 4119.140625 L 2906.015625 3960.078125 Z M 3217.304688 3960.078125 " transform="matrix(0.1, 0, 0, -0.1, 0, 792)"/>
<path fill-rule="nonzero" fill="rgb(0.779724%, 43.917847%, 62.348938%)" fill-opacity="1" stroke-width="3.9999" stroke-linecap="butt" stroke-linejoin="miter" stroke="rgb(100%, 100%, 100%)" stroke-opacity="1" stroke-miterlimit="4" d="M 3233.632812 4133.4375 L 2922.34375 4133.4375 L 2906.015625 4119.140625 L 3217.304688 4119.140625 Z M 3233.632812 4133.4375 " transform="matrix(0.1, 0, 0, -0.1, 0, 792)"/>
<path fill-rule="nonzero" fill="rgb(0.779724%, 43.917847%, 62.348938%)" fill-opacity="1" stroke-width="3.9999" stroke-linecap="butt" stroke-linejoin="miter" stroke="rgb(100%, 100%, 100%)" stroke-opacity="1" stroke-miterlimit="4" d="M 3233.632812 4133.4375 L 3217.304688 4119.140625 " transform="matrix(0.1, 0, 0, -0.1, 0, 792)"/>
<path fill="none" stroke-width="3.9999" stroke-linecap="butt" stroke-linejoin="miter" stroke="rgb(100%, 100%, 100%)" stroke-opacity="1" stroke-miterlimit="4" d="M 3088.359375 4090.742188 L 3104.726562 4105.039062 C 3162.5 4037.5 3118.046875 3984.960938 3118.046875 3984.960938 L 3194.6875 3984.960938 " transform="matrix(0.1, 0, 0, -0.1, 0, 792)"/>
<path fill="none" stroke-width="3.9999" stroke-linecap="butt" stroke-linejoin="miter" stroke="rgb(100%, 100%, 100%)" stroke-opacity="1" stroke-miterlimit="4" d="M 2964.648438 4092.5 L 2948.28125 4106.796875 L 2951.367188 3984.960938 L 2916.054688 3984.960938 " transform="matrix(0.1, 0, 0, -0.1, 0, 792)"/>
<path fill-rule="nonzero" fill="rgb(0.779724%, 43.917847%, 62.348938%)" fill-opacity="1" stroke-width="3.9999" stroke-linecap="butt" stroke-linejoin="miter" stroke="rgb(100%, 100%, 100%)" stroke-opacity="1" stroke-miterlimit="4" d="M 2964.648438 4074.179688 C 2964.648438 4090.15625 2981.210938 4092.5 2981.210938 4092.5 C 2981.210938 4092.5 3063.671875 4092.5 3079.023438 4092.5 C 3099.101562 4092.5 3098.554688 4073.59375 3098.554688 4073.59375 C 3098.554688 4073.59375 3098.554688 4005.625 3098.554688 3994.375 C 3098.554688 3983.164062 3083.164062 3978.4375 3083.164062 3978.4375 C 3083.164062 3978.4375 2997.734375 3978.4375 2983.554688 3978.4375 C 2969.375 3978.4375 2964.648438 3993.203125 2964.648438 3993.203125 Z M 2964.648438 4074.179688 " transform="matrix(0.1, 0, 0, -0.1, 0, 792)"/>
<path fill="none" stroke-width="3.9999" stroke-linecap="butt" stroke-linejoin="miter" stroke="rgb(100%, 100%, 100%)" stroke-opacity="1" stroke-miterlimit="4" d="M 3194.6875 4084.960938 L 3118.046875 4084.960938 " transform="matrix(0.1, 0, 0, -0.1, 0, 792)"/>
<path fill="none" stroke-width="3.9999" stroke-linecap="butt" stroke-linejoin="miter" stroke="rgb(100%, 100%, 100%)" stroke-opacity="1" stroke-miterlimit="4" d="M 2951.367188 4084.960938 L 2916.054688 4084.960938 " transform="matrix(0.1, 0, 0, -0.1, 0, 792)"/>
<path fill="none" stroke-width="3.9999" stroke-linecap="butt" stroke-linejoin="miter" stroke="rgb(100%, 100%, 100%)" stroke-opacity="1" stroke-miterlimit="4" d="M 2948.28125 4106.796875 L 3097.5 4106.796875 " transform="matrix(0.1, 0, 0, -0.1, 0, 792)"/>
</svg>
