<?xml version="1.0" encoding="UTF-8"?>
<svg xmlns="http://www.w3.org/2000/svg" xmlns:xlink="http://www.w3.org/1999/xlink" width="44.47" height="28.95" viewBox="0 0 44.47 28.95">
<defs>
<clipPath id="clip-0">
<path clip-rule="nonzero" d="M 0 10 L 34 10 L 34 28.753906 L 0 28.753906 Z M 0 10 "/>
</clipPath>
<clipPath id="clip-1">
<path clip-rule="nonzero" d="M 0 9 L 34 9 L 34 28.753906 L 0 28.753906 Z M 0 9 "/>
</clipPath>
<clipPath id="clip-2">
<path clip-rule="nonzero" d="M 9 17 L 26 17 L 26 28.753906 L 9 28.753906 Z M 9 17 "/>
</clipPath>
<clipPath id="clip-3">
<path clip-rule="nonzero" d="M 0 0.195312 L 43.480469 0.195312 L 43.480469 11 L 0 11 Z M 0 0.195312 "/>
</clipPath>
<clipPath id="clip-4">
<path clip-rule="nonzero" d="M 0 0.195312 L 43.480469 0.195312 L 43.480469 13 L 0 13 Z M 0 0.195312 "/>
</clipPath>
<clipPath id="clip-5">
<path clip-rule="nonzero" d="M 33 0.195312 L 43.480469 0.195312 L 43.480469 28.753906 L 33 28.753906 Z M 33 0.195312 "/>
</clipPath>
<clipPath id="clip-6">
<path clip-rule="nonzero" d="M 31 0.195312 L 43.480469 0.195312 L 43.480469 28.753906 L 31 28.753906 Z M 31 0.195312 "/>
</clipPath>
</defs>
<g clip-path="url(#clip-0)">
<path fill-rule="nonzero" fill="rgb(3.292847%, 48.297119%, 73.150635%)" fill-opacity="1" d="M 0.597656 28.027344 L 33.429688 28.027344 L 33.429688 10.15625 L 0.597656 10.15625 Z M 0.597656 28.027344 "/>
</g>
<g clip-path="url(#clip-1)">
<path fill="none" stroke-width="3.99994" stroke-linecap="butt" stroke-linejoin="miter" stroke="rgb(100%, 100%, 100%)" stroke-opacity="1" stroke-miterlimit="4" d="M 6.047792 188.202215 L 6.047792 7.361374 L 338.281074 7.361374 L 338.281074 188.202215 " transform="matrix(0.0988222, 0, 0, -0.0988222, 0, 28.754811)"/>
</g>
<path fill-rule="nonzero" fill="rgb(100%, 100%, 100%)" fill-opacity="1" d="M 21.128906 18.007812 C 21.128906 18.621094 19.488281 19.117188 17.464844 19.117188 C 15.4375 19.117188 13.796875 18.621094 13.796875 18.007812 L 13.796875 22.601562 C 13.796875 23.214844 15.4375 23.714844 17.464844 23.714844 C 19.488281 23.714844 21.128906 23.214844 21.128906 22.601562 L 21.128906 18.007812 "/>
<path fill-rule="nonzero" fill="rgb(3.292847%, 48.297119%, 73.150635%)" fill-opacity="1" d="M 17.460938 19.117188 C 19.484375 19.117188 21.125 18.621094 21.125 18.007812 C 21.125 17.394531 19.484375 16.894531 17.460938 16.894531 C 15.433594 16.894531 13.792969 17.394531 13.792969 18.007812 C 13.792969 18.621094 15.433594 19.117188 17.460938 19.117188 "/>
<path fill="none" stroke-width="8.00003" stroke-linecap="butt" stroke-linejoin="miter" stroke="rgb(100%, 100%, 100%)" stroke-opacity="1" stroke-miterlimit="4" d="M 176.690395 97.524862 C 197.165926 97.524862 213.767709 102.544925 213.767709 108.750829 C 213.767709 114.956733 197.165926 120.016324 176.690395 120.016324 C 156.175336 120.016324 139.573554 114.956733 139.573554 108.750829 C 139.573554 102.544925 156.175336 97.524862 176.690395 97.524862 Z M 176.690395 97.524862 " transform="matrix(0.0988222, 0, 0, -0.0988222, 0, 28.754811)"/>
<path fill-rule="nonzero" fill="rgb(100%, 100%, 100%)" fill-opacity="1" d="M 17.464844 24.257812 C 19.488281 24.257812 21.128906 23.761719 21.128906 23.148438 C 21.128906 22.535156 19.488281 22.039062 17.464844 22.039062 C 15.4375 22.039062 13.796875 22.535156 13.796875 23.148438 C 13.796875 23.761719 15.4375 24.257812 17.464844 24.257812 "/>
<g clip-path="url(#clip-2)">
<path fill="none" stroke-width="8.00003" stroke-linecap="butt" stroke-linejoin="miter" stroke="rgb(100%, 100%, 100%)" stroke-opacity="1" stroke-miterlimit="4" d="M 176.729923 45.505945 C 197.205455 45.505945 213.807237 50.526008 213.807237 56.731912 C 213.807237 62.937816 197.205455 67.957879 176.729923 67.957879 C 156.214864 67.957879 139.613082 62.937816 139.613082 56.731912 C 139.613082 50.526008 156.214864 45.505945 176.729923 45.505945 Z M 176.729923 45.505945 " transform="matrix(0.0988222, 0, 0, -0.0988222, 0, 28.754811)"/>
</g>
<g clip-path="url(#clip-3)">
<path fill-rule="nonzero" fill="rgb(3.292847%, 48.297119%, 73.150635%)" fill-opacity="1" d="M 0.558594 10.15625 L 12.679688 0.355469 L 43.457031 0.355469 L 33.429688 10.15625 L 0.558594 10.15625 "/>
</g>
<g clip-path="url(#clip-4)">
<path fill="none" stroke-width="3.99994" stroke-linecap="butt" stroke-linejoin="miter" stroke="rgb(100%, 100%, 100%)" stroke-opacity="1" stroke-miterlimit="4" d="M 5.652512 188.202215 L 128.308059 287.378099 L 439.749585 287.378099 L 338.281074 188.202215 Z M 5.652512 188.202215 " transform="matrix(0.0988222, 0, 0, -0.0988222, 0, 28.754811)"/>
</g>
<g clip-path="url(#clip-5)">
<path fill-rule="nonzero" fill="rgb(3.292847%, 48.297119%, 73.150635%)" fill-opacity="1" d="M 33.429688 10.398438 L 33.429688 28.261719 L 43.457031 17.730469 L 43.457031 0.617188 L 33.429688 10.398438 "/>
</g>
<g clip-path="url(#clip-6)">
<path fill="none" stroke-width="3.99994" stroke-linecap="butt" stroke-linejoin="miter" stroke="rgb(100%, 100%, 100%)" stroke-opacity="1" stroke-miterlimit="4" d="M 338.281074 185.751476 L 338.281074 4.989691 L 439.749585 111.557321 L 439.749585 284.729719 Z M 338.281074 185.751476 " transform="matrix(0.0988222, 0, 0, -0.0988222, 0, 28.754811)"/>
</g>
<path fill-rule="nonzero" fill="rgb(100%, 100%, 100%)" fill-opacity="1" d="M 29.105469 19.863281 L 23.097656 19.867188 L 23.097656 18.914062 L 29.105469 18.910156 L 29.105469 17.417969 L 32.582031 19.386719 L 29.105469 21.359375 L 29.105469 19.863281 "/>
<path fill-rule="nonzero" fill="rgb(100%, 100%, 100%)" fill-opacity="1" d="M 28.066406 15.054688 L 23.03125 18.328125 L 22.511719 17.527344 L 27.546875 14.25 L 26.734375 13 L 30.726562 12.757812 L 28.882812 16.304688 L 28.066406 15.054688 "/>
<path fill-rule="nonzero" fill="rgb(100%, 100%, 100%)" fill-opacity="1" d="M 28.066406 23.664062 L 23.03125 20.390625 L 22.511719 21.191406 L 27.546875 24.464844 L 26.734375 25.714844 L 30.726562 25.960938 L 28.882812 22.414062 L 28.066406 23.664062 "/>
<path fill-rule="nonzero" fill="rgb(100%, 100%, 100%)" fill-opacity="1" d="M 5.132812 19.863281 L 11.140625 19.867188 L 11.140625 18.914062 L 5.132812 18.910156 L 5.132812 17.417969 L 1.652344 19.386719 L 5.132812 21.359375 L 5.132812 19.863281 "/>
<path fill-rule="nonzero" fill="rgb(100%, 100%, 100%)" fill-opacity="1" d="M 17.835938 12.328125 L 17.839844 10.171875 L 16.882812 10.171875 L 16.878906 12.328125 L 15.390625 12.328125 L 17.359375 15.808594 L 19.328125 12.328125 L 17.835938 12.328125 "/>
<path fill-rule="nonzero" fill="rgb(100%, 100%, 100%)" fill-opacity="1" d="M 6.167969 15.054688 L 11.203125 18.328125 L 11.722656 17.527344 L 6.691406 14.25 L 7.5 13 L 3.511719 12.757812 L 5.355469 16.304688 L 6.167969 15.054688 "/>
<path fill-rule="nonzero" fill="rgb(100%, 100%, 100%)" fill-opacity="1" d="M 6.167969 23.664062 L 11.203125 20.390625 L 11.722656 21.191406 L 6.691406 24.464844 L 7.5 25.714844 L 3.511719 25.960938 L 5.355469 22.414062 L 6.167969 23.664062 "/>
</svg>
