<?xml version="1.0" encoding="UTF-8"?>
<svg xmlns="http://www.w3.org/2000/svg" xmlns:xlink="http://www.w3.org/1999/xlink" width="15.77" height="27.65" viewBox="0 0 15.77 27.65">
<defs>
<clipPath id="clip-0">
<path clip-rule="nonzero" d="M 1 0.0273438 L 15.542969 0.0273438 L 15.542969 27 L 1 27 Z M 1 0.0273438 "/>
</clipPath>
<clipPath id="clip-1">
<path clip-rule="nonzero" d="M 12 0.0273438 L 15 0.0273438 L 15 1 L 12 1 Z M 12 0.0273438 "/>
</clipPath>
<clipPath id="clip-2">
<path clip-rule="nonzero" d="M 0 0.0273438 L 15 0.0273438 L 15 27 L 0 27 Z M 0 0.0273438 "/>
</clipPath>
<clipPath id="clip-3">
<path clip-rule="nonzero" d="M 3 0.0273438 L 15 0.0273438 L 15 18 L 3 18 Z M 3 0.0273438 "/>
</clipPath>
<clipPath id="clip-4">
<path clip-rule="nonzero" d="M 1 0.0273438 L 15.542969 0.0273438 L 15.542969 27 L 1 27 Z M 1 0.0273438 "/>
</clipPath>
<clipPath id="clip-5">
<path clip-rule="nonzero" d="M 12 0.0273438 L 15 0.0273438 L 15 1 L 12 1 Z M 12 0.0273438 "/>
</clipPath>
<clipPath id="clip-6">
<path clip-rule="nonzero" d="M 10 0.0273438 L 15.542969 0.0273438 L 15.542969 4 L 10 4 Z M 10 0.0273438 "/>
</clipPath>
<clipPath id="clip-7">
<path clip-rule="nonzero" d="M 0 0.0273438 L 15 0.0273438 L 15 27 L 0 27 Z M 0 0.0273438 "/>
</clipPath>
<clipPath id="clip-8">
<path clip-rule="nonzero" d="M 0 0.0273438 L 15.542969 0.0273438 L 15.542969 27.277344 L 0 27.277344 Z M 0 0.0273438 "/>
</clipPath>
<clipPath id="clip-9">
<path clip-rule="nonzero" d="M 1 9 L 13 9 L 13 27.277344 L 1 27.277344 Z M 1 9 "/>
</clipPath>
<clipPath id="clip-10">
<path clip-rule="nonzero" d="M 3 0.0273438 L 15 0.0273438 L 15 18 L 3 18 Z M 3 0.0273438 "/>
</clipPath>
<clipPath id="clip-11">
<path clip-rule="nonzero" d="M 0 0.0273438 L 15.542969 0.0273438 L 15.542969 27.277344 L 0 27.277344 Z M 0 0.0273438 "/>
</clipPath>
<clipPath id="clip-12">
<path clip-rule="nonzero" d="M 10 0.0273438 L 15.542969 0.0273438 L 15.542969 4 L 10 4 Z M 10 0.0273438 "/>
</clipPath>
<clipPath id="clip-13">
<path clip-rule="nonzero" d="M 0 0.0273438 L 15.542969 0.0273438 L 15.542969 27.277344 L 0 27.277344 Z M 0 0.0273438 "/>
</clipPath>
<clipPath id="clip-14">
<path clip-rule="nonzero" d="M 1 9 L 13 9 L 13 27.277344 L 1 27.277344 Z M 1 9 "/>
</clipPath>
<clipPath id="clip-15">
<path clip-rule="nonzero" d="M 1 0.0273438 L 15.542969 0.0273438 L 15.542969 20 L 1 20 Z M 1 0.0273438 "/>
</clipPath>
</defs>
<g clip-path="url(#clip-0)">
<path fill-rule="nonzero" fill="rgb(0.784302%, 43.920898%, 62.350464%)" fill-opacity="1" d="M 14.109375 11.683594 C 14.339844 10.847656 15.304688 6.671875 15.34375 6.089844 C 15.386719 5.511719 15.171875 4.78125 14.863281 4.636719 C 14.878906 4.425781 14.882812 4.3125 14.882812 4.3125 C 14.808594 4.28125 14.730469 4.25 14.652344 4.21875 L 14.675781 4.226562 C 14.675781 4.226562 14.898438 3.296875 15.027344 2.648438 C 15.269531 1.410156 15.296875 0.785156 15.296875 0.785156 C 15.292969 0.613281 15.246094 0.464844 15.089844 0.421875 L 14.371094 0.222656 C 14.210938 0.179688 14.105469 0.277344 14.007812 0.429688 C 14.007812 0.429688 13.726562 1.007812 13.328125 2.183594 C 13.117188 2.804688 12.914062 3.589844 12.914062 3.589844 L 12.921875 3.59375 C 12.492188 3.453125 12.058594 3.320312 11.613281 3.199219 C 10.492188 2.886719 9.363281 2.648438 8.238281 2.476562 C 8.238281 2.476562 8.183594 2.578125 8.089844 2.765625 C 7.75 2.734375 7.191406 3.25 6.929688 3.769531 C 6.667969 4.289062 5.355469 8.367188 5.121094 9.203125 C 4.894531 10.039062 4.449219 12.164062 4.25 13.21875 C 4.054688 14.277344 3.875 16.125 3.195312 18.585938 C 2.796875 20.035156 2.148438 22.199219 1.808594 23.101562 C 1.71875 23.335938 1.007812 24.535156 2.039062 24.945312 C 3.054688 25.34375 4.5625 25.777344 5.324219 25.988281 C 6.089844 26.199219 7.605469 26.601562 8.683594 26.777344 C 9.777344 26.957031 9.78125 25.5625 9.828125 25.3125 C 9.996094 24.367188 10.550781 22.175781 10.949219 20.726562 C 11.628906 18.261719 12.421875 16.589844 12.796875 15.578125 C 13.171875 14.570312 13.878906 12.519531 14.109375 11.683594 "/>
</g>
<g clip-path="url(#clip-1)">
<path fill-rule="nonzero" fill="rgb(0.784302%, 43.920898%, 62.350464%)" fill-opacity="1" d="M 14.167969 0.808594 C 14.167969 0.808594 13.835938 0.710938 13.546875 0.628906 C 13.289062 0.558594 12.9375 0.46875 12.9375 0.46875 "/>
</g>
<g clip-path="url(#clip-2)">
<path fill-rule="nonzero" fill="rgb(0.784302%, 43.920898%, 62.350464%)" fill-opacity="1" d="M 12.988281 11.792969 C 13.21875 10.960938 14.183594 6.785156 14.222656 6.203125 C 14.265625 5.625 14.050781 4.894531 13.742188 4.746094 C 13.757812 4.539062 13.761719 4.421875 13.761719 4.421875 C 13.683594 4.390625 13.609375 4.363281 13.53125 4.332031 L 13.554688 4.339844 C 13.554688 4.339844 13.777344 3.410156 13.90625 2.761719 C 14.148438 1.523438 14.175781 0.898438 14.175781 0.898438 C 14.171875 0.726562 14.125 0.578125 13.96875 0.535156 L 13.25 0.335938 C 13.089844 0.292969 12.984375 0.390625 12.886719 0.539062 C 12.886719 0.539062 12.605469 1.117188 12.207031 2.292969 C 11.996094 2.917969 11.792969 3.699219 11.792969 3.699219 L 11.804688 3.703125 C 11.375 3.5625 10.9375 3.433594 10.496094 3.308594 C 9.371094 3 8.246094 2.761719 7.121094 2.589844 C 7.121094 2.589844 7.0625 2.691406 6.96875 2.878906 C 6.628906 2.847656 6.070312 3.363281 5.808594 3.882812 C 5.546875 4.402344 4.230469 8.480469 4.003906 9.316406 C 3.773438 10.152344 3.328125 12.273438 3.128906 13.332031 C 2.933594 14.390625 2.757812 16.234375 2.074219 18.699219 C 1.675781 20.148438 1.027344 22.3125 0.6875 23.214844 C 0.597656 23.449219 -0.113281 24.648438 0.917969 25.058594 C 1.933594 25.457031 3.441406 25.890625 4.207031 26.101562 C 4.96875 26.3125 6.484375 26.710938 7.5625 26.890625 C 8.65625 27.070312 8.660156 25.675781 8.707031 25.425781 C 8.878906 24.480469 9.429688 22.289062 9.828125 20.839844 C 10.511719 18.375 11.304688 16.699219 11.675781 15.691406 C 12.050781 14.683594 12.757812 12.628906 12.988281 11.792969 "/>
</g>
<path fill-rule="nonzero" fill="rgb(0.784302%, 43.920898%, 62.350464%)" fill-opacity="1" d="M 5.109375 17.648438 C 4.992188 18.074219 4.546875 18.324219 4.117188 18.207031 C 3.691406 18.089844 3.4375 17.648438 3.558594 17.21875 C 3.675781 16.789062 4.117188 16.539062 4.546875 16.65625 C 4.976562 16.773438 5.226562 17.21875 5.109375 17.648438 "/>
<path fill-rule="nonzero" fill="rgb(0.784302%, 43.920898%, 62.350464%)" fill-opacity="1" d="M 7.136719 18.503906 C 7.019531 18.933594 6.574219 19.183594 6.144531 19.066406 C 5.71875 18.949219 5.46875 18.503906 5.585938 18.078125 C 5.703125 17.648438 6.144531 17.398438 6.574219 17.515625 C 7.003906 17.632812 7.253906 18.078125 7.136719 18.503906 "/>
<path fill-rule="nonzero" fill="rgb(0.784302%, 43.920898%, 62.350464%)" fill-opacity="1" d="M 9.320312 18.808594 C 9.203125 19.238281 8.761719 19.488281 8.332031 19.371094 C 7.90625 19.253906 7.652344 18.808594 7.769531 18.382812 C 7.890625 17.953125 8.332031 17.703125 8.761719 17.820312 C 9.1875 17.9375 9.441406 18.382812 9.320312 18.808594 "/>
<path fill-rule="nonzero" fill="rgb(0.784302%, 43.920898%, 62.350464%)" fill-opacity="1" d="M 4.621094 19.414062 C 4.5 19.84375 4.058594 20.09375 3.628906 19.976562 C 3.203125 19.859375 2.953125 19.414062 3.070312 18.984375 C 3.1875 18.558594 3.628906 18.304688 4.058594 18.425781 C 4.488281 18.542969 4.738281 18.984375 4.621094 19.414062 "/>
<path fill-rule="nonzero" fill="rgb(0.784302%, 43.920898%, 62.350464%)" fill-opacity="1" d="M 6.648438 20.273438 C 6.53125 20.699219 6.085938 20.953125 5.660156 20.832031 C 5.230469 20.714844 4.980469 20.273438 5.097656 19.84375 C 5.214844 19.417969 5.660156 19.164062 6.085938 19.285156 C 6.515625 19.402344 6.765625 19.84375 6.648438 20.273438 "/>
<path fill-rule="nonzero" fill="rgb(0.784302%, 43.920898%, 62.350464%)" fill-opacity="1" d="M 8.835938 20.578125 C 8.714844 21.003906 8.273438 21.257812 7.84375 21.136719 C 7.417969 21.019531 7.167969 20.578125 7.285156 20.148438 C 7.402344 19.722656 7.84375 19.46875 8.273438 19.589844 C 8.703125 19.707031 8.953125 20.148438 8.835938 20.578125 "/>
<path fill-rule="nonzero" fill="rgb(0.784302%, 43.920898%, 62.350464%)" fill-opacity="1" d="M 4.132812 21.183594 C 4.015625 21.609375 3.570312 21.859375 3.144531 21.742188 C 2.714844 21.625 2.464844 21.183594 2.582031 20.753906 C 2.699219 20.324219 3.144531 20.074219 3.570312 20.191406 C 4 20.308594 4.25 20.753906 4.132812 21.183594 "/>
<path fill-rule="nonzero" fill="rgb(0.784302%, 43.920898%, 62.350464%)" fill-opacity="1" d="M 6.160156 22.039062 C 6.042969 22.46875 5.597656 22.71875 5.171875 22.601562 C 4.742188 22.484375 4.492188 22.039062 4.609375 21.613281 C 4.726562 21.183594 5.171875 20.933594 5.597656 21.050781 C 6.027344 21.167969 6.277344 21.613281 6.160156 22.039062 "/>
<path fill-rule="nonzero" fill="rgb(0.784302%, 43.920898%, 62.350464%)" fill-opacity="1" d="M 8.347656 22.34375 C 8.226562 22.773438 7.785156 23.023438 7.359375 22.90625 C 6.929688 22.789062 6.679688 22.34375 6.796875 21.914062 C 6.914062 21.488281 7.359375 21.234375 7.785156 21.355469 C 8.214844 21.472656 8.464844 21.914062 8.347656 22.34375 "/>
<path fill-rule="nonzero" fill="rgb(0.784302%, 43.920898%, 62.350464%)" fill-opacity="1" d="M 3.644531 22.949219 C 3.527344 23.375 3.082031 23.628906 2.65625 23.511719 C 2.226562 23.390625 1.976562 22.949219 2.09375 22.519531 C 2.214844 22.09375 2.65625 21.839844 3.082031 21.960938 C 3.511719 22.078125 3.761719 22.519531 3.644531 22.949219 Z M 5.671875 23.808594 C 5.554688 24.234375 5.109375 24.488281 4.683594 24.371094 C 4.253906 24.25 4.003906 23.808594 4.121094 23.378906 C 4.238281 22.953125 4.683594 22.699219 5.109375 22.820312 C 5.539062 22.9375 5.789062 23.378906 5.671875 23.808594 "/>
<path fill-rule="nonzero" fill="rgb(0.784302%, 43.920898%, 62.350464%)" fill-opacity="1" d="M 7.859375 24.113281 C 7.742188 24.539062 7.296875 24.792969 6.871094 24.671875 C 6.441406 24.554688 6.191406 24.113281 6.308594 23.683594 C 6.425781 23.253906 6.871094 23.003906 7.296875 23.121094 C 7.726562 23.242188 7.976562 23.683594 7.859375 24.113281 "/>
<path fill-rule="nonzero" fill="rgb(0.784302%, 43.920898%, 62.350464%)" fill-opacity="1" d="M 4.652344 25.003906 C 4.640625 25.042969 4.574219 25.058594 4.5 25.039062 C 4.421875 25.015625 4.371094 24.96875 4.382812 24.929688 C 4.394531 24.886719 4.464844 24.871094 4.539062 24.894531 C 4.613281 24.914062 4.664062 24.964844 4.652344 25.003906 Z M 4.382812 24.929688 L 4.128906 25.847656 M 4.425781 25.003906 L 4.1875 25.863281 M 4.652344 25.003906 L 4.398438 25.921875 M 4.578125 25.046875 L 4.339844 25.90625 M 6.203125 11.683594 L 6.027344 12.320312 M 6.273438 11.703125 L 6.09375 12.347656 M 9.882812 12.699219 L 9.707031 13.335938 M 9.8125 12.679688 L 9.632812 13.324219 "/>
<g clip-path="url(#clip-3)">
<path fill-rule="nonzero" fill="rgb(0.784302%, 43.920898%, 62.350464%)" fill-opacity="1" d="M 13.554688 4.339844 C 13.554688 4.339844 13.78125 3.410156 13.90625 2.761719 C 14.148438 1.523438 14.175781 0.898438 14.175781 0.898438 C 14.171875 0.726562 14.125 0.578125 13.96875 0.535156 L 13.25 0.335938 C 13.089844 0.292969 12.984375 0.390625 12.886719 0.539062 C 12.886719 0.539062 12.605469 1.117188 12.207031 2.292969 C 11.996094 2.917969 11.792969 3.699219 11.792969 3.699219 M 11.511719 12.839844 C 11.464844 13 11.304688 13.089844 11.148438 13.046875 L 4.941406 11.335938 C 4.78125 11.289062 4.691406 11.128906 4.734375 10.972656 L 5.816406 7.046875 C 5.859375 6.890625 6.023438 6.796875 6.179688 6.839844 L 12.386719 8.554688 C 12.542969 8.597656 12.636719 8.761719 12.59375 8.917969 Z M 13.640625 4.003906 C 13.066406 3.78125 12.476562 3.570312 11.878906 3.382812 M 7.261719 2.613281 C 7.261719 2.613281 5.78125 5.632812 4.9375 8.695312 C 3.929688 12.339844 3.785156 13.554688 3.9375 15.25 C 3.964844 15.597656 4.3125 16.027344 4.699219 16.132812 C 4.855469 16.175781 5.03125 16.222656 5.105469 16.246094 C 5.179688 16.265625 5.464844 16.335938 5.703125 16.519531 C 5.941406 16.703125 6 16.753906 6.140625 16.828125 C 6.28125 16.90625 6.300781 16.953125 6.699219 17.066406 C 7.097656 17.175781 7.140625 17.144531 7.296875 17.148438 C 7.457031 17.15625 7.535156 17.144531 7.832031 17.105469 C 8.132812 17.070312 8.410156 17.15625 8.488281 17.175781 C 8.5625 17.199219 8.738281 17.246094 8.890625 17.289062 C 9.28125 17.394531 9.796875 17.207031 10.003906 16.921875 C 11 15.546875 11.496094 14.429688 12.503906 10.78125 C 13.347656 7.71875 13.628906 4.367188 13.628906 4.367188 M 6.390625 4.125 C 7.582031 4.296875 8.867188 4.570312 10.054688 4.898438 C 11.246094 5.230469 12.488281 5.652344 13.597656 6.117188 "/>
</g>
<path fill-rule="nonzero" fill="rgb(0.784302%, 43.920898%, 62.350464%)" fill-opacity="1" d="M 9.054688 15.269531 C 8.789062 16.222656 7.804688 16.785156 6.847656 16.523438 C 5.894531 16.257812 5.332031 15.269531 5.597656 14.316406 C 5.859375 13.359375 6.847656 12.800781 7.804688 13.066406 C 8.757812 13.328125 9.316406 14.316406 9.054688 15.269531 Z M 5.75 12.328125 C 5.992188 12.394531 6.175781 12.496094 6.265625 12.554688 C 6.355469 12.613281 6.382812 12.695312 6.308594 12.746094 C 6.226562 12.796875 6.078125 12.90625 5.996094 12.976562 C 5.90625 13.058594 5.835938 13.082031 5.699219 13 C 5.460938 12.863281 4.949219 12.496094 4.824219 12.324219 C 4.757812 12.234375 4.820312 12.203125 4.949219 12.195312 C 5.132812 12.183594 5.488281 12.257812 5.75 12.328125 Z M 4.476562 14.214844 C 4.609375 14.257812 4.933594 14.425781 5.027344 14.492188 C 5.121094 14.5625 5.269531 14.710938 5.253906 14.886719 C 5.238281 15.097656 5.253906 15.53125 5.339844 15.679688 C 5.457031 15.867188 5.441406 15.949219 5.277344 15.917969 C 5.140625 15.890625 4.792969 15.765625 4.691406 15.71875 C 4.59375 15.671875 4.449219 15.585938 4.402344 15.449219 C 4.308594 15.164062 4.289062 14.59375 4.339844 14.3125 C 4.359375 14.191406 4.40625 14.191406 4.476562 14.214844 "/>
<path fill-rule="nonzero" fill="rgb(0.784302%, 43.920898%, 62.350464%)" fill-opacity="1" d="M 9.941406 13.484375 C 9.699219 13.417969 9.488281 13.410156 9.382812 13.414062 C 9.277344 13.421875 9.210938 13.476562 9.25 13.554688 C 9.292969 13.644531 9.367188 13.8125 9.398438 13.914062 C 9.433594 14.03125 9.480469 14.085938 9.640625 14.089844 C 9.914062 14.09375 10.542969 14.039062 10.742188 13.957031 C 10.839844 13.914062 10.804688 13.855469 10.699219 13.78125 C 10.546875 13.679688 10.203125 13.558594 9.941406 13.484375 Z M 10.066406 15.757812 C 9.929688 15.726562 9.570312 15.707031 9.453125 15.714844 C 9.335938 15.726562 9.136719 15.777344 9.054688 15.9375 C 8.960938 16.125 8.726562 16.492188 8.574219 16.570312 C 8.375 16.671875 8.347656 16.75 8.511719 16.808594 C 8.636719 16.855469 9 16.929688 9.109375 16.9375 C 9.222656 16.945312 9.390625 16.949219 9.496094 16.855469 C 9.722656 16.660156 10.035156 16.175781 10.136719 15.914062 C 10.183594 15.796875 10.140625 15.773438 10.066406 15.757812 "/>
<path fill-rule="nonzero" fill="rgb(0.784302%, 43.920898%, 62.350464%)" fill-opacity="1" d="M 9.769531 5.414062 L 10.359375 3.273438 "/>
<path fill-rule="nonzero" fill="rgb(0.784302%, 43.920898%, 62.350464%)" fill-opacity="1" d="M 9.964844 5.46875 L 10.554688 3.328125 "/>
<g clip-path="url(#clip-4)">
<path fill-rule="nonzero" fill="rgb(0.784302%, 43.920898%, 62.350464%)" fill-opacity="1" d="M 14.109375 11.683594 C 14.339844 10.847656 15.304688 6.671875 15.34375 6.089844 C 15.386719 5.511719 15.171875 4.78125 14.863281 4.636719 C 14.878906 4.425781 14.882812 4.3125 14.882812 4.3125 C 14.808594 4.28125 14.730469 4.25 14.652344 4.21875 L 14.675781 4.226562 C 14.675781 4.226562 14.898438 3.296875 15.027344 2.648438 C 15.269531 1.410156 15.296875 0.785156 15.296875 0.785156 C 15.292969 0.613281 15.246094 0.464844 15.089844 0.421875 L 14.371094 0.222656 C 14.210938 0.179688 14.105469 0.277344 14.007812 0.429688 C 14.007812 0.429688 13.726562 1.007812 13.328125 2.183594 C 13.117188 2.804688 12.914062 3.589844 12.914062 3.589844 L 12.921875 3.59375 C 12.492188 3.453125 12.058594 3.320312 11.613281 3.199219 C 10.492188 2.886719 9.363281 2.648438 8.238281 2.476562 C 8.238281 2.476562 8.183594 2.578125 8.089844 2.765625 C 7.75 2.734375 7.191406 3.25 6.929688 3.769531 C 6.667969 4.289062 5.355469 8.367188 5.121094 9.203125 C 4.894531 10.039062 4.449219 12.164062 4.25 13.21875 C 4.054688 14.277344 3.875 16.125 3.195312 18.585938 C 2.796875 20.035156 2.148438 22.199219 1.808594 23.101562 C 1.71875 23.335938 1.007812 24.535156 2.039062 24.945312 C 3.054688 25.34375 4.5625 25.777344 5.324219 25.988281 C 6.089844 26.199219 7.605469 26.601562 8.683594 26.777344 C 9.777344 26.957031 9.78125 25.5625 9.828125 25.3125 C 9.996094 24.367188 10.550781 22.175781 10.949219 20.726562 C 11.628906 18.261719 12.421875 16.589844 12.796875 15.578125 C 13.171875 14.570312 13.878906 12.519531 14.109375 11.683594 "/>
</g>
<g clip-path="url(#clip-5)">
<path fill-rule="nonzero" fill="rgb(0.784302%, 43.920898%, 62.350464%)" fill-opacity="1" d="M 14.167969 0.808594 C 14.167969 0.808594 13.835938 0.710938 13.546875 0.628906 C 13.289062 0.558594 12.9375 0.46875 12.9375 0.46875 "/>
</g>
<g clip-path="url(#clip-6)">
<path fill="none" stroke-width="4" stroke-linecap="butt" stroke-linejoin="miter" stroke="rgb(100%, 100%, 100%)" stroke-opacity="1" stroke-miterlimit="4" d="M 143.746037 268.56246 C 143.746037 268.56246 140.377299 269.553266 137.444515 270.385542 C 134.828789 271.098922 131.26189 272.010463 131.26189 272.010463 " transform="matrix(0.0985625, 0, 0, -0.0985625, 0, 27.278781)"/>
</g>
<g clip-path="url(#clip-7)">
<path fill-rule="nonzero" fill="rgb(0.784302%, 43.920898%, 62.350464%)" fill-opacity="1" d="M 12.988281 11.792969 C 13.21875 10.960938 14.183594 6.785156 14.222656 6.203125 C 14.265625 5.625 14.050781 4.894531 13.742188 4.746094 C 13.757812 4.539062 13.761719 4.421875 13.761719 4.421875 C 13.683594 4.390625 13.609375 4.363281 13.53125 4.332031 L 13.554688 4.339844 C 13.554688 4.339844 13.777344 3.410156 13.90625 2.761719 C 14.148438 1.523438 14.175781 0.898438 14.175781 0.898438 C 14.171875 0.726562 14.125 0.578125 13.96875 0.535156 L 13.25 0.335938 C 13.089844 0.292969 12.984375 0.390625 12.886719 0.539062 C 12.886719 0.539062 12.605469 1.117188 12.207031 2.292969 C 11.996094 2.917969 11.792969 3.699219 11.792969 3.699219 L 11.804688 3.703125 C 11.375 3.5625 10.9375 3.433594 10.496094 3.308594 C 9.371094 3 8.246094 2.761719 7.121094 2.589844 C 7.121094 2.589844 7.0625 2.691406 6.96875 2.878906 C 6.628906 2.847656 6.070312 3.363281 5.808594 3.882812 C 5.546875 4.402344 4.230469 8.480469 4.003906 9.316406 C 3.773438 10.152344 3.328125 12.273438 3.128906 13.332031 C 2.933594 14.390625 2.757812 16.234375 2.074219 18.699219 C 1.675781 20.148438 1.027344 22.3125 0.6875 23.214844 C 0.597656 23.449219 -0.113281 24.648438 0.917969 25.058594 C 1.933594 25.457031 3.441406 25.890625 4.207031 26.101562 C 4.96875 26.3125 6.484375 26.710938 7.5625 26.890625 C 8.65625 27.070312 8.660156 25.675781 8.707031 25.425781 C 8.878906 24.480469 9.429688 22.289062 9.828125 20.839844 C 10.511719 18.375 11.304688 16.699219 11.675781 15.691406 C 12.050781 14.683594 12.757812 12.628906 12.988281 11.792969 "/>
</g>
<g clip-path="url(#clip-8)">
<path fill="none" stroke-width="4" stroke-linecap="butt" stroke-linejoin="miter" stroke="rgb(100%, 100%, 100%)" stroke-opacity="1" stroke-miterlimit="4" d="M 131.777108 157.116677 C 134.115409 165.558339 143.904566 207.925174 144.300888 213.830374 C 144.736842 219.695942 142.55707 227.107166 139.426126 228.61319 C 139.584654 230.713697 139.624287 231.902663 139.624287 231.902663 C 138.831642 232.219721 138.07863 232.497146 137.285986 232.814204 L 137.523779 232.73494 C 137.523779 232.73494 139.782815 242.167406 141.090679 248.746354 C 143.547876 261.309765 143.825301 267.650919 143.825301 267.650919 C 143.785669 269.394737 143.310082 270.900761 141.724794 271.336715 L 134.432467 273.357958 C 132.807546 273.793912 131.737476 272.803107 130.746671 271.297083 C 130.746671 271.297083 127.893152 265.431516 123.850666 253.502219 C 121.710526 247.161065 119.649651 239.234623 119.649651 239.234623 L 119.768548 239.19499 C 115.409004 240.62175 110.970197 241.929613 106.491756 243.197844 C 95.077679 246.328789 83.663602 248.746354 72.249524 250.490171 C 72.249524 250.490171 71.655041 249.459734 70.703868 247.557387 C 67.255866 247.874445 61.588459 242.642993 58.933101 237.371909 C 56.277743 232.100824 42.921687 190.724794 40.623018 182.2435 C 38.284718 173.762207 33.766646 152.241915 31.745403 141.501585 C 29.763792 130.761256 27.980342 112.054851 21.044705 87.046925 C 17.002219 72.343373 10.423272 50.387127 6.975269 41.232086 C 6.063729 38.854153 -1.149334 26.687064 9.31357 22.525682 C 19.617945 18.483196 34.91598 14.08402 42.683893 11.943881 C 50.412175 9.803741 65.789474 5.761256 76.727964 3.938174 C 87.824984 2.115092 87.864616 16.263792 88.340203 18.800254 C 90.08402 28.391249 95.672162 50.624921 99.714648 65.328472 C 106.650285 90.336398 114.695625 107.338618 118.460685 117.563729 C 122.265377 127.78884 129.438808 148.635384 131.777108 157.116677 Z M 131.777108 157.116677 " transform="matrix(0.0985625, 0, 0, -0.0985625, 0, 27.278781)"/>
</g>
<path fill-rule="nonzero" fill="rgb(0.784302%, 43.920898%, 62.350464%)" fill-opacity="1" d="M 5.109375 17.648438 C 4.992188 18.074219 4.546875 18.324219 4.117188 18.207031 C 3.691406 18.089844 3.4375 17.648438 3.558594 17.21875 C 3.675781 16.789062 4.117188 16.539062 4.546875 16.65625 C 4.976562 16.773438 5.226562 17.21875 5.109375 17.648438 "/>
<path fill="none" stroke-width="4" stroke-linecap="butt" stroke-linejoin="miter" stroke="rgb(100%, 100%, 100%)" stroke-opacity="1" stroke-miterlimit="4" d="M 51.838935 97.70799 C 50.649968 93.388079 46.131896 90.851617 41.772353 92.040583 C 37.452441 93.22955 34.876347 97.70799 36.104946 102.067533 C 37.293912 106.427077 41.772353 108.963538 46.131896 107.774572 C 50.491439 106.585606 53.027901 102.067533 51.838935 97.70799 Z M 51.838935 97.70799 " transform="matrix(0.0985625, 0, 0, -0.0985625, 0, 27.278781)"/>
<path fill-rule="nonzero" fill="rgb(0.784302%, 43.920898%, 62.350464%)" fill-opacity="1" d="M 7.136719 18.503906 C 7.019531 18.933594 6.574219 19.183594 6.144531 19.066406 C 5.71875 18.949219 5.46875 18.503906 5.585938 18.078125 C 5.703125 17.648438 6.144531 17.398438 6.574219 17.515625 C 7.003906 17.632812 7.253906 18.078125 7.136719 18.503906 "/>
<path fill="none" stroke-width="4" stroke-linecap="butt" stroke-linejoin="miter" stroke="rgb(100%, 100%, 100%)" stroke-opacity="1" stroke-miterlimit="4" d="M 72.408053 89.028535 C 71.219087 84.668992 66.701015 82.13253 62.341471 83.321497 C 58.02156 84.510463 55.485098 89.028535 56.674065 93.348446 C 57.863031 97.70799 62.341471 100.244451 66.701015 99.055485 C 71.060558 97.866519 73.59702 93.348446 72.408053 89.028535 Z M 72.408053 89.028535 " transform="matrix(0.0985625, 0, 0, -0.0985625, 0, 27.278781)"/>
<path fill-rule="nonzero" fill="rgb(0.784302%, 43.920898%, 62.350464%)" fill-opacity="1" d="M 9.320312 18.808594 C 9.203125 19.238281 8.761719 19.488281 8.332031 19.371094 C 7.90625 19.253906 7.652344 18.808594 7.769531 18.382812 C 7.890625 17.953125 8.332031 17.703125 8.761719 17.820312 C 9.1875 17.9375 9.441406 18.382812 9.320312 18.808594 "/>
<path fill="none" stroke-width="4" stroke-linecap="butt" stroke-linejoin="miter" stroke="rgb(100%, 100%, 100%)" stroke-opacity="1" stroke-miterlimit="4" d="M 94.56246 85.937223 C 93.373494 81.577679 88.895054 79.041218 84.53551 80.230184 C 80.215599 81.41915 77.639505 85.937223 78.828472 90.257134 C 80.05707 94.616677 84.53551 97.153139 88.895054 95.964172 C 93.214965 94.775206 95.791059 90.257134 94.56246 85.937223 Z M 94.56246 85.937223 " transform="matrix(0.0985625, 0, 0, -0.0985625, 0, 27.278781)"/>
<path fill-rule="nonzero" fill="rgb(0.784302%, 43.920898%, 62.350464%)" fill-opacity="1" d="M 4.621094 19.414062 C 4.5 19.84375 4.058594 20.09375 3.628906 19.976562 C 3.203125 19.859375 2.953125 19.414062 3.070312 18.984375 C 3.1875 18.558594 3.628906 18.304688 4.058594 18.425781 C 4.488281 18.542969 4.738281 18.984375 4.621094 19.414062 "/>
<path fill="none" stroke-width="4" stroke-linecap="butt" stroke-linejoin="miter" stroke="rgb(100%, 100%, 100%)" stroke-opacity="1" stroke-miterlimit="4" d="M 46.884908 79.79423 C 45.656309 75.434686 41.177869 72.898224 36.818326 74.087191 C 32.498415 75.276157 29.961953 79.79423 31.150919 84.153773 C 32.339886 88.473684 36.818326 91.049778 41.177869 89.821179 C 45.537413 88.632213 48.073874 84.153773 46.884908 79.79423 Z M 46.884908 79.79423 " transform="matrix(0.0985625, 0, 0, -0.0985625, 0, 27.278781)"/>
<path fill-rule="nonzero" fill="rgb(0.784302%, 43.920898%, 62.350464%)" fill-opacity="1" d="M 6.648438 20.273438 C 6.53125 20.699219 6.085938 20.953125 5.660156 20.832031 C 5.230469 20.714844 4.980469 20.273438 5.097656 19.84375 C 5.214844 19.417969 5.660156 19.164062 6.085938 19.285156 C 6.515625 19.402344 6.765625 19.84375 6.648438 20.273438 "/>
<path fill="none" stroke-width="4" stroke-linecap="butt" stroke-linejoin="miter" stroke="rgb(100%, 100%, 100%)" stroke-opacity="1" stroke-miterlimit="4" d="M 67.454027 71.075143 C 66.26506 66.755231 61.746988 64.179138 57.427077 65.407736 C 53.067533 66.596703 50.531072 71.075143 51.720038 75.434686 C 52.909004 79.754597 57.427077 82.330691 61.746988 81.102093 C 66.106531 79.913126 68.642993 75.434686 67.454027 71.075143 Z M 67.454027 71.075143 " transform="matrix(0.0985625, 0, 0, -0.0985625, 0, 27.278781)"/>
<path fill-rule="nonzero" fill="rgb(0.784302%, 43.920898%, 62.350464%)" fill-opacity="1" d="M 8.835938 20.578125 C 8.714844 21.003906 8.273438 21.257812 7.84375 21.136719 C 7.417969 21.019531 7.167969 20.578125 7.285156 20.148438 C 7.402344 19.722656 7.84375 19.46875 8.273438 19.589844 C 8.703125 19.707031 8.953125 20.148438 8.835938 20.578125 "/>
<path fill="none" stroke-width="4" stroke-linecap="butt" stroke-linejoin="miter" stroke="rgb(100%, 100%, 100%)" stroke-opacity="1" stroke-miterlimit="4" d="M 89.648066 67.98383 C 88.419467 63.663919 83.941027 61.087825 79.581484 62.316424 C 75.261573 63.50539 72.725111 67.98383 73.914077 72.343373 C 75.103044 76.663285 79.581484 79.239379 83.941027 78.01078 C 88.300571 76.821814 90.837032 72.343373 89.648066 67.98383 Z M 89.648066 67.98383 " transform="matrix(0.0985625, 0, 0, -0.0985625, 0, 27.278781)"/>
<path fill-rule="nonzero" fill="rgb(0.784302%, 43.920898%, 62.350464%)" fill-opacity="1" d="M 4.132812 21.183594 C 4.015625 21.609375 3.570312 21.859375 3.144531 21.742188 C 2.714844 21.625 2.464844 21.183594 2.582031 20.753906 C 2.699219 20.324219 3.144531 20.074219 3.570312 20.191406 C 4 20.308594 4.25 20.753906 4.132812 21.183594 "/>
<path fill="none" stroke-width="4" stroke-linecap="butt" stroke-linejoin="miter" stroke="rgb(100%, 100%, 100%)" stroke-opacity="1" stroke-miterlimit="4" d="M 41.930881 61.840837 C 40.741915 57.520926 36.223843 54.984464 31.903932 56.173431 C 27.544388 57.362397 25.007926 61.840837 26.196893 66.20038 C 27.385859 70.559924 31.903932 73.096386 36.223843 71.907419 C 40.583386 70.718453 43.119848 66.20038 41.930881 61.840837 Z M 41.930881 61.840837 " transform="matrix(0.0985625, 0, 0, -0.0985625, 0, 27.278781)"/>
<path fill-rule="nonzero" fill="rgb(0.784302%, 43.920898%, 62.350464%)" fill-opacity="1" d="M 6.160156 22.039062 C 6.042969 22.46875 5.597656 22.71875 5.171875 22.601562 C 4.742188 22.484375 4.492188 22.039062 4.609375 21.613281 C 4.726562 21.183594 5.171875 20.933594 5.597656 21.050781 C 6.027344 21.167969 6.277344 21.613281 6.160156 22.039062 "/>
<path fill="none" stroke-width="4" stroke-linecap="butt" stroke-linejoin="miter" stroke="rgb(100%, 100%, 100%)" stroke-opacity="1" stroke-miterlimit="4" d="M 62.5 53.161382 C 61.311034 48.801839 56.792961 46.265377 52.47305 47.454344 C 48.113507 48.64331 45.577045 53.161382 46.766011 57.481294 C 47.954978 61.840837 52.47305 64.377299 56.792961 63.188332 C 61.152505 61.999366 63.688966 57.481294 62.5 53.161382 Z M 62.5 53.161382 " transform="matrix(0.0985625, 0, 0, -0.0985625, 0, 27.278781)"/>
<path fill-rule="nonzero" fill="rgb(0.784302%, 43.920898%, 62.350464%)" fill-opacity="1" d="M 8.347656 22.34375 C 8.226562 22.773438 7.785156 23.023438 7.359375 22.90625 C 6.929688 22.789062 6.679688 22.34375 6.796875 21.914062 C 6.914062 21.488281 7.359375 21.234375 7.785156 21.355469 C 8.214844 21.472656 8.464844 21.914062 8.347656 22.34375 "/>
<path fill="none" stroke-width="4" stroke-linecap="butt" stroke-linejoin="miter" stroke="rgb(100%, 100%, 100%)" stroke-opacity="1" stroke-miterlimit="4" d="M 84.694039 50.07007 C 83.465441 45.710526 78.987001 43.174065 74.667089 44.363031 C 70.307546 45.551997 67.771084 50.07007 68.960051 54.429613 C 70.149017 58.749524 74.667089 61.325618 78.987001 60.09702 C 83.346544 58.908053 85.883006 54.429613 84.694039 50.07007 Z M 84.694039 50.07007 " transform="matrix(0.0985625, 0, 0, -0.0985625, 0, 27.278781)"/>
<path fill-rule="nonzero" fill="rgb(0.784302%, 43.920898%, 62.350464%)" fill-opacity="1" d="M 3.644531 22.949219 C 3.527344 23.375 3.082031 23.628906 2.65625 23.511719 C 2.226562 23.390625 1.976562 22.949219 2.09375 22.519531 C 2.214844 22.09375 2.65625 21.839844 3.082031 21.960938 C 3.511719 22.078125 3.761719 22.519531 3.644531 22.949219 Z M 5.671875 23.808594 C 5.554688 24.234375 5.109375 24.488281 4.683594 24.371094 C 4.253906 24.25 4.003906 23.808594 4.121094 23.378906 C 4.238281 22.953125 4.683594 22.699219 5.109375 22.820312 C 5.539062 22.9375 5.789062 23.378906 5.671875 23.808594 "/>
<path fill="none" stroke-width="4" stroke-linecap="butt" stroke-linejoin="miter" stroke="rgb(100%, 100%, 100%)" stroke-opacity="1" stroke-miterlimit="4" d="M 36.976855 43.927077 C 35.787888 39.607166 31.269816 37.031072 26.949905 38.220038 C 22.590361 39.448637 20.0539 43.927077 21.242866 48.28662 C 22.471465 52.606531 26.949905 55.182625 31.269816 53.954027 C 35.62936 52.76506 38.165821 48.28662 36.976855 43.927077 Z M 57.545973 35.20799 C 56.357007 30.888079 51.838935 28.311985 47.519023 29.500951 C 43.15948 30.72955 40.623018 35.20799 41.811985 39.567533 C 43.000951 43.887445 47.519023 46.463538 51.838935 45.23494 C 56.198478 44.045973 58.73494 39.567533 57.545973 35.20799 Z M 57.545973 35.20799 " transform="matrix(0.0985625, 0, 0, -0.0985625, 0, 27.278781)"/>
<path fill-rule="nonzero" fill="rgb(0.784302%, 43.920898%, 62.350464%)" fill-opacity="1" d="M 7.859375 24.113281 C 7.742188 24.539062 7.296875 24.792969 6.871094 24.671875 C 6.441406 24.554688 6.191406 24.113281 6.308594 23.683594 C 6.425781 23.253906 6.871094 23.003906 7.296875 23.121094 C 7.726562 23.242188 7.976562 23.683594 7.859375 24.113281 "/>
<path fill="none" stroke-width="4" stroke-linecap="butt" stroke-linejoin="miter" stroke="rgb(100%, 100%, 100%)" stroke-opacity="1" stroke-miterlimit="4" d="M 79.740013 32.116677 C 78.551046 27.796766 74.032974 25.220672 69.713063 26.449271 C 65.353519 27.638237 62.817058 32.116677 64.006024 36.476221 C 65.19499 40.835764 69.713063 43.372226 74.032974 42.183259 C 78.392517 40.954661 80.928979 36.476221 79.740013 32.116677 Z M 79.740013 32.116677 " transform="matrix(0.0985625, 0, 0, -0.0985625, 0, 27.278781)"/>
<path fill-rule="nonzero" fill="rgb(0.784302%, 43.920898%, 62.350464%)" fill-opacity="1" d="M 4.652344 25.003906 C 4.640625 25.042969 4.574219 25.058594 4.5 25.039062 C 4.421875 25.015625 4.371094 24.96875 4.382812 24.929688 C 4.394531 24.886719 4.464844 24.871094 4.539062 24.894531 C 4.613281 24.914062 4.664062 24.964844 4.652344 25.003906 Z M 4.382812 24.929688 L 4.128906 25.847656 M 4.425781 25.003906 L 4.1875 25.863281 M 4.652344 25.003906 L 4.398438 25.921875 M 4.578125 25.046875 L 4.339844 25.90625 M 6.203125 11.683594 L 6.027344 12.320312 M 6.273438 11.703125 L 6.09375 12.347656 M 9.882812 12.699219 L 9.707031 13.335938 M 9.8125 12.679688 L 9.632812 13.324219 "/>
<g clip-path="url(#clip-9)">
<path fill="none" stroke-width="4" stroke-linecap="butt" stroke-linejoin="miter" stroke="rgb(100%, 100%, 100%)" stroke-opacity="1" stroke-miterlimit="4" d="M 47.201966 23.080533 C 47.083069 22.684211 46.409321 22.525682 45.656309 22.723843 C 44.863665 22.961636 44.348446 23.437223 44.467343 23.833545 C 44.58624 24.269499 45.29962 24.428028 46.052632 24.190235 C 46.805644 23.992074 47.320862 23.476855 47.201966 23.080533 Z M 44.467343 23.833545 L 41.891249 14.519975 M 44.903297 23.080533 L 42.485732 14.361446 M 47.201966 23.080533 L 44.625872 13.766963 M 46.448954 22.644578 L 44.031389 13.925491 M 62.935954 158.226379 L 61.152505 151.766328 M 63.649334 158.028218 L 61.826252 151.488903 M 100.269499 147.922004 L 98.486049 141.461953 M 99.556119 148.120165 L 97.733037 141.58085 " transform="matrix(0.0985625, 0, 0, -0.0985625, 0, 27.278781)"/>
</g>
<g clip-path="url(#clip-10)">
<path fill-rule="nonzero" fill="rgb(0.784302%, 43.920898%, 62.350464%)" fill-opacity="1" d="M 13.554688 4.339844 C 13.554688 4.339844 13.78125 3.410156 13.90625 2.761719 C 14.148438 1.523438 14.175781 0.898438 14.175781 0.898438 C 14.171875 0.726562 14.125 0.578125 13.96875 0.535156 L 13.25 0.335938 C 13.089844 0.292969 12.984375 0.390625 12.886719 0.539062 C 12.886719 0.539062 12.605469 1.117188 12.207031 2.292969 C 11.996094 2.917969 11.792969 3.699219 11.792969 3.699219 M 11.511719 12.839844 C 11.464844 13 11.304688 13.089844 11.148438 13.046875 L 4.941406 11.335938 C 4.78125 11.289062 4.691406 11.128906 4.734375 10.972656 L 5.816406 7.046875 C 5.859375 6.890625 6.023438 6.796875 6.179688 6.839844 L 12.386719 8.554688 C 12.542969 8.597656 12.636719 8.761719 12.59375 8.917969 Z M 13.640625 4.003906 C 13.066406 3.78125 12.476562 3.570312 11.878906 3.382812 M 7.261719 2.613281 C 7.261719 2.613281 5.78125 5.632812 4.9375 8.695312 C 3.929688 12.339844 3.785156 13.554688 3.9375 15.25 C 3.964844 15.597656 4.3125 16.027344 4.699219 16.132812 C 4.855469 16.175781 5.03125 16.222656 5.105469 16.246094 C 5.179688 16.265625 5.464844 16.335938 5.703125 16.519531 C 5.941406 16.703125 6 16.753906 6.140625 16.828125 C 6.28125 16.90625 6.300781 16.953125 6.699219 17.066406 C 7.097656 17.175781 7.140625 17.144531 7.296875 17.148438 C 7.457031 17.15625 7.535156 17.144531 7.832031 17.105469 C 8.132812 17.070312 8.410156 17.15625 8.488281 17.175781 C 8.5625 17.199219 8.738281 17.246094 8.890625 17.289062 C 9.28125 17.394531 9.796875 17.207031 10.003906 16.921875 C 11 15.546875 11.496094 14.429688 12.503906 10.78125 C 13.347656 7.71875 13.628906 4.367188 13.628906 4.367188 M 6.390625 4.125 C 7.582031 4.296875 8.867188 4.570312 10.054688 4.898438 C 11.246094 5.230469 12.488281 5.652344 13.597656 6.117188 "/>
</g>
<path fill-rule="nonzero" fill="rgb(0.784302%, 43.920898%, 62.350464%)" fill-opacity="1" d="M 9.054688 15.269531 C 8.789062 16.222656 7.804688 16.785156 6.847656 16.523438 C 5.894531 16.257812 5.332031 15.269531 5.597656 14.316406 C 5.859375 13.359375 6.847656 12.800781 7.804688 13.066406 C 8.757812 13.328125 9.316406 14.316406 9.054688 15.269531 Z M 5.75 12.328125 C 5.992188 12.394531 6.175781 12.496094 6.265625 12.554688 C 6.355469 12.613281 6.382812 12.695312 6.308594 12.746094 C 6.226562 12.796875 6.078125 12.90625 5.996094 12.976562 C 5.90625 13.058594 5.835938 13.082031 5.699219 13 C 5.460938 12.863281 4.949219 12.496094 4.824219 12.324219 C 4.757812 12.234375 4.820312 12.203125 4.949219 12.195312 C 5.132812 12.183594 5.488281 12.257812 5.75 12.328125 Z M 4.476562 14.214844 C 4.609375 14.257812 4.933594 14.425781 5.027344 14.492188 C 5.121094 14.5625 5.269531 14.710938 5.253906 14.886719 C 5.238281 15.097656 5.253906 15.53125 5.339844 15.679688 C 5.457031 15.867188 5.441406 15.949219 5.277344 15.917969 C 5.140625 15.890625 4.792969 15.765625 4.691406 15.71875 C 4.59375 15.671875 4.449219 15.585938 4.402344 15.449219 C 4.308594 15.164062 4.289062 14.59375 4.339844 14.3125 C 4.359375 14.191406 4.40625 14.191406 4.476562 14.214844 "/>
<path fill="none" stroke-width="4" stroke-linecap="butt" stroke-linejoin="miter" stroke="rgb(100%, 100%, 100%)" stroke-opacity="1" stroke-miterlimit="4" d="M 91.86747 121.844008 C 89.172479 112.173748 79.185162 106.466709 69.475269 109.122067 C 59.80501 111.817058 54.097971 121.844008 56.792961 131.514268 C 59.44832 141.22416 69.475269 146.891566 79.185162 144.196576 C 88.855422 141.541218 94.522828 131.514268 91.86747 121.844008 Z M 58.338618 151.687064 C 60.795815 151.013316 62.658529 149.982879 63.57007 149.388396 C 64.481611 148.793912 64.759036 147.961636 64.006024 147.446417 C 63.173748 146.931198 61.667724 145.821497 60.835447 145.108117 C 59.923906 144.27584 59.210526 144.038047 57.823399 144.870323 C 55.405834 146.257451 50.214014 149.982879 48.945783 151.726696 C 48.272036 152.638237 48.906151 152.955295 50.214014 153.034559 C 52.076728 153.153456 55.683259 152.400444 58.338618 151.687064 Z M 45.418516 132.544705 C 46.766011 132.108751 50.055485 130.404566 51.006658 129.730818 C 51.957831 129.017438 53.463855 127.511414 53.305327 125.727964 C 53.146798 123.587825 53.305327 119.188649 54.177235 117.682625 C 55.366202 115.780279 55.207673 114.948003 53.54312 115.26506 C 52.155992 115.542486 48.628725 116.810717 47.598288 117.286303 C 46.607483 117.76189 45.141091 118.633798 44.665504 120.020926 C 43.714331 122.914077 43.51617 128.70038 44.031389 131.5539 C 44.22955 132.782498 44.705136 132.782498 45.418516 132.544705 Z M 45.418516 132.544705 " transform="matrix(0.0985625, 0, 0, -0.0985625, 0, 27.278781)"/>
<path fill-rule="nonzero" fill="rgb(0.784302%, 43.920898%, 62.350464%)" fill-opacity="1" d="M 9.941406 13.484375 C 9.699219 13.417969 9.488281 13.410156 9.382812 13.414062 C 9.277344 13.421875 9.210938 13.476562 9.25 13.554688 C 9.292969 13.644531 9.367188 13.8125 9.398438 13.914062 C 9.433594 14.03125 9.480469 14.085938 9.640625 14.089844 C 9.914062 14.09375 10.542969 14.039062 10.742188 13.957031 C 10.839844 13.914062 10.804688 13.855469 10.699219 13.78125 C 10.546875 13.679688 10.203125 13.558594 9.941406 13.484375 Z M 10.066406 15.757812 C 9.929688 15.726562 9.570312 15.707031 9.453125 15.714844 C 9.335938 15.726562 9.136719 15.777344 9.054688 15.9375 C 8.960938 16.125 8.726562 16.492188 8.574219 16.570312 C 8.375 16.671875 8.347656 16.75 8.511719 16.808594 C 8.636719 16.855469 9 16.929688 9.109375 16.9375 C 9.222656 16.945312 9.390625 16.949219 9.496094 16.855469 C 9.722656 16.660156 10.035156 16.175781 10.136719 15.914062 C 10.183594 15.796875 10.140625 15.773438 10.066406 15.757812 "/>
<path fill="none" stroke-width="4" stroke-linecap="butt" stroke-linejoin="miter" stroke="rgb(100%, 100%, 100%)" stroke-opacity="1" stroke-miterlimit="4" d="M 100.863982 139.955929 C 98.406785 140.629677 96.266646 140.708941 95.196576 140.669309 C 94.126506 140.590044 93.452758 140.035193 93.849081 139.242549 C 94.285035 138.331008 95.038047 136.626823 95.355105 135.596386 C 95.711795 134.407419 96.187381 133.852568 97.812302 133.812936 C 100.586557 133.773304 106.967343 134.328155 108.988586 135.160431 C 109.979391 135.596386 109.622701 136.190869 108.552632 136.943881 C 107.006975 137.974318 103.519341 139.202917 100.863982 139.955929 Z M 102.132213 116.889981 C 100.745086 117.207039 97.098922 117.4052 95.909956 117.325935 C 94.720989 117.207039 92.699746 116.69182 91.86747 115.066899 C 90.916297 113.164553 88.538364 109.439125 86.992708 108.646481 C 84.971465 107.616043 84.694039 106.823399 86.358592 106.228916 C 87.626823 105.753329 91.312619 105.000317 92.422321 104.921053 C 93.571655 104.841788 95.27584 104.802156 96.34591 105.753329 C 98.644578 107.73494 101.815155 112.649334 102.845593 115.304692 C 103.321179 116.493659 102.885225 116.731452 102.132213 116.889981 Z M 102.132213 116.889981 " transform="matrix(0.0985625, 0, 0, -0.0985625, 0, 27.278781)"/>
<path fill-rule="nonzero" fill="rgb(0.784302%, 43.920898%, 62.350464%)" fill-opacity="1" stroke-width="4" stroke-linecap="butt" stroke-linejoin="miter" stroke="rgb(100%, 100%, 100%)" stroke-opacity="1" stroke-miterlimit="4" d="M 99.120165 221.836081 L 105.104629 243.554534 " transform="matrix(0.0985625, 0, 0, -0.0985625, 0, 27.278781)"/>
<path fill-rule="nonzero" fill="rgb(0.784302%, 43.920898%, 62.350464%)" fill-opacity="1" stroke-width="4" stroke-linecap="butt" stroke-linejoin="miter" stroke="rgb(100%, 100%, 100%)" stroke-opacity="1" stroke-miterlimit="4" d="M 101.101776 221.28123 L 107.08624 242.999683 " transform="matrix(0.0985625, 0, 0, -0.0985625, 0, 27.278781)"/>
<g clip-path="url(#clip-11)">
<path fill="none" stroke-width="4" stroke-linecap="butt" stroke-linejoin="miter" stroke="rgb(100%, 100%, 100%)" stroke-opacity="1" stroke-miterlimit="4" d="M 143.151554 158.226379 C 145.489854 166.707673 155.279011 209.074509 155.675333 214.979708 C 156.111287 220.845276 153.931516 228.2565 150.800571 229.722892 C 150.9591 231.863031 150.998732 233.012365 150.998732 233.012365 C 150.24572 233.329423 149.453075 233.646481 148.660431 233.963538 L 148.898224 233.884274 C 148.898224 233.884274 151.157261 243.316741 152.465124 249.895688 C 154.922321 262.4591 155.199746 268.800254 155.199746 268.800254 C 155.160114 270.544071 154.684528 272.050095 153.099239 272.486049 L 145.806912 274.507292 C 144.181991 274.943247 143.111921 273.952441 142.121116 272.406785 C 142.121116 272.406785 139.267597 266.541218 135.225111 254.611921 C 133.084971 248.310399 131.024096 240.344325 131.024096 240.344325 L 131.103361 240.304692 C 126.743817 241.731452 122.344642 243.078947 117.826569 244.307546 C 106.452124 247.478123 94.998415 249.895688 83.584337 251.639505 C 83.584337 251.639505 83.029486 250.609068 82.078313 248.706722 C 78.630311 249.023779 72.962904 243.792327 70.307546 238.521243 C 67.652188 233.250159 54.335764 191.874128 51.957831 183.392834 C 49.659163 174.911541 45.141091 153.351617 43.119848 142.650919 C 41.138237 131.91059 39.315155 113.164553 32.41915 88.196259 C 28.376665 73.492708 21.797717 51.536462 18.349715 42.38142 C 17.438174 40.003488 10.225111 27.836398 20.688015 23.675016 C 30.992391 19.63253 46.290425 15.233354 54.018706 13.093215 C 61.78662 10.953075 77.163919 6.870958 88.10241 5.087508 C 99.199429 3.264426 99.239062 17.413126 99.714648 19.949588 C 101.418833 29.540583 107.046607 51.774255 111.089093 66.477806 C 117.985098 91.485732 126.030438 108.44832 129.83513 118.713063 C 133.639822 128.938174 140.813253 149.745086 143.151554 158.226379 Z M 143.151554 158.226379 " transform="matrix(0.0985625, 0, 0, -0.0985625, 0, 27.278781)"/>
</g>
<g clip-path="url(#clip-12)">
<path fill="none" stroke-width="4" stroke-linecap="butt" stroke-linejoin="miter" stroke="rgb(100%, 100%, 100%)" stroke-opacity="1" stroke-miterlimit="4" d="M 143.746037 268.56246 C 143.746037 268.56246 140.377299 269.553266 137.444515 270.385542 C 134.828789 271.098922 131.26189 272.010463 131.26189 272.010463 " transform="matrix(0.0985625, 0, 0, -0.0985625, 0, 27.278781)"/>
</g>
<g clip-path="url(#clip-13)">
<path fill="none" stroke-width="4" stroke-linecap="butt" stroke-linejoin="miter" stroke="rgb(100%, 100%, 100%)" stroke-opacity="1" stroke-miterlimit="4" d="M 131.777108 157.116677 C 134.115409 165.558339 143.904566 207.925174 144.300888 213.830374 C 144.736842 219.695942 142.55707 227.107166 139.426126 228.61319 C 139.584654 230.713697 139.624287 231.902663 139.624287 231.902663 C 138.831642 232.219721 138.07863 232.497146 137.285986 232.814204 L 137.523779 232.73494 C 137.523779 232.73494 139.782815 242.167406 141.090679 248.746354 C 143.547876 261.309765 143.825301 267.650919 143.825301 267.650919 C 143.785669 269.394737 143.310082 270.900761 141.724794 271.336715 L 134.432467 273.357958 C 132.807546 273.793912 131.737476 272.803107 130.746671 271.297083 C 130.746671 271.297083 127.893152 265.431516 123.850666 253.502219 C 121.710526 247.161065 119.649651 239.234623 119.649651 239.234623 L 119.768548 239.19499 C 115.409004 240.62175 110.970197 241.929613 106.491756 243.197844 C 95.077679 246.328789 83.663602 248.746354 72.249524 250.490171 C 72.249524 250.490171 71.655041 249.459734 70.703868 247.557387 C 67.255866 247.874445 61.588459 242.642993 58.933101 237.371909 C 56.277743 232.100824 42.921687 190.724794 40.623018 182.2435 C 38.284718 173.762207 33.766646 152.241915 31.745403 141.501585 C 29.763792 130.761256 27.980342 112.054851 21.044705 87.046925 C 17.002219 72.343373 10.423272 50.387127 6.975269 41.232086 C 6.063729 38.854153 -1.149334 26.687064 9.31357 22.525682 C 19.617945 18.483196 34.91598 14.08402 42.683893 11.943881 C 50.412175 9.803741 65.789474 5.761256 76.727964 3.938174 C 87.824984 2.115092 87.864616 16.263792 88.340203 18.800254 C 90.08402 28.391249 95.672162 50.624921 99.714648 65.328472 C 106.650285 90.336398 114.695625 107.338618 118.460685 117.563729 C 122.265377 127.78884 129.438808 148.635384 131.777108 157.116677 Z M 131.777108 157.116677 " transform="matrix(0.0985625, 0, 0, -0.0985625, 0, 27.278781)"/>
</g>
<path fill="none" stroke-width="4" stroke-linecap="butt" stroke-linejoin="miter" stroke="rgb(100%, 100%, 100%)" stroke-opacity="1" stroke-miterlimit="4" d="M 51.838935 97.70799 C 50.649968 93.388079 46.131896 90.851617 41.772353 92.040583 C 37.452441 93.22955 34.876347 97.70799 36.104946 102.067533 C 37.293912 106.427077 41.772353 108.963538 46.131896 107.774572 C 50.491439 106.585606 53.027901 102.067533 51.838935 97.70799 Z M 51.838935 97.70799 " transform="matrix(0.0985625, 0, 0, -0.0985625, 0, 27.278781)"/>
<path fill="none" stroke-width="4" stroke-linecap="butt" stroke-linejoin="miter" stroke="rgb(100%, 100%, 100%)" stroke-opacity="1" stroke-miterlimit="4" d="M 72.408053 89.028535 C 71.219087 84.668992 66.701015 82.13253 62.341471 83.321497 C 58.02156 84.510463 55.485098 89.028535 56.674065 93.348446 C 57.863031 97.70799 62.341471 100.244451 66.701015 99.055485 C 71.060558 97.866519 73.59702 93.348446 72.408053 89.028535 Z M 72.408053 89.028535 " transform="matrix(0.0985625, 0, 0, -0.0985625, 0, 27.278781)"/>
<path fill="none" stroke-width="4" stroke-linecap="butt" stroke-linejoin="miter" stroke="rgb(100%, 100%, 100%)" stroke-opacity="1" stroke-miterlimit="4" d="M 94.56246 85.937223 C 93.373494 81.577679 88.895054 79.041218 84.53551 80.230184 C 80.215599 81.41915 77.639505 85.937223 78.828472 90.257134 C 80.05707 94.616677 84.53551 97.153139 88.895054 95.964172 C 93.214965 94.775206 95.791059 90.257134 94.56246 85.937223 Z M 94.56246 85.937223 " transform="matrix(0.0985625, 0, 0, -0.0985625, 0, 27.278781)"/>
<path fill="none" stroke-width="4" stroke-linecap="butt" stroke-linejoin="miter" stroke="rgb(100%, 100%, 100%)" stroke-opacity="1" stroke-miterlimit="4" d="M 46.884908 79.79423 C 45.656309 75.434686 41.177869 72.898224 36.818326 74.087191 C 32.498415 75.276157 29.961953 79.79423 31.150919 84.153773 C 32.339886 88.473684 36.818326 91.049778 41.177869 89.821179 C 45.537413 88.632213 48.073874 84.153773 46.884908 79.79423 Z M 46.884908 79.79423 " transform="matrix(0.0985625, 0, 0, -0.0985625, 0, 27.278781)"/>
<path fill="none" stroke-width="4" stroke-linecap="butt" stroke-linejoin="miter" stroke="rgb(100%, 100%, 100%)" stroke-opacity="1" stroke-miterlimit="4" d="M 67.454027 71.075143 C 66.26506 66.755231 61.746988 64.179138 57.427077 65.407736 C 53.067533 66.596703 50.531072 71.075143 51.720038 75.434686 C 52.909004 79.754597 57.427077 82.330691 61.746988 81.102093 C 66.106531 79.913126 68.642993 75.434686 67.454027 71.075143 Z M 67.454027 71.075143 " transform="matrix(0.0985625, 0, 0, -0.0985625, 0, 27.278781)"/>
<path fill="none" stroke-width="4" stroke-linecap="butt" stroke-linejoin="miter" stroke="rgb(100%, 100%, 100%)" stroke-opacity="1" stroke-miterlimit="4" d="M 89.648066 67.98383 C 88.419467 63.663919 83.941027 61.087825 79.581484 62.316424 C 75.261573 63.50539 72.725111 67.98383 73.914077 72.343373 C 75.103044 76.663285 79.581484 79.239379 83.941027 78.01078 C 88.300571 76.821814 90.837032 72.343373 89.648066 67.98383 Z M 89.648066 67.98383 " transform="matrix(0.0985625, 0, 0, -0.0985625, 0, 27.278781)"/>
<path fill="none" stroke-width="4" stroke-linecap="butt" stroke-linejoin="miter" stroke="rgb(100%, 100%, 100%)" stroke-opacity="1" stroke-miterlimit="4" d="M 41.930881 61.840837 C 40.741915 57.520926 36.223843 54.984464 31.903932 56.173431 C 27.544388 57.362397 25.007926 61.840837 26.196893 66.20038 C 27.385859 70.559924 31.903932 73.096386 36.223843 71.907419 C 40.583386 70.718453 43.119848 66.20038 41.930881 61.840837 Z M 41.930881 61.840837 " transform="matrix(0.0985625, 0, 0, -0.0985625, 0, 27.278781)"/>
<path fill="none" stroke-width="4" stroke-linecap="butt" stroke-linejoin="miter" stroke="rgb(100%, 100%, 100%)" stroke-opacity="1" stroke-miterlimit="4" d="M 62.5 53.161382 C 61.311034 48.801839 56.792961 46.265377 52.47305 47.454344 C 48.113507 48.64331 45.577045 53.161382 46.766011 57.481294 C 47.954978 61.840837 52.47305 64.377299 56.792961 63.188332 C 61.152505 61.999366 63.688966 57.481294 62.5 53.161382 Z M 62.5 53.161382 " transform="matrix(0.0985625, 0, 0, -0.0985625, 0, 27.278781)"/>
<path fill="none" stroke-width="4" stroke-linecap="butt" stroke-linejoin="miter" stroke="rgb(100%, 100%, 100%)" stroke-opacity="1" stroke-miterlimit="4" d="M 84.694039 50.07007 C 83.465441 45.710526 78.987001 43.174065 74.667089 44.363031 C 70.307546 45.551997 67.771084 50.07007 68.960051 54.429613 C 70.149017 58.749524 74.667089 61.325618 78.987001 60.09702 C 83.346544 58.908053 85.883006 54.429613 84.694039 50.07007 Z M 84.694039 50.07007 " transform="matrix(0.0985625, 0, 0, -0.0985625, 0, 27.278781)"/>
<path fill="none" stroke-width="4" stroke-linecap="butt" stroke-linejoin="miter" stroke="rgb(100%, 100%, 100%)" stroke-opacity="1" stroke-miterlimit="4" d="M 36.976855 43.927077 C 35.787888 39.607166 31.269816 37.031072 26.949905 38.220038 C 22.590361 39.448637 20.0539 43.927077 21.242866 48.28662 C 22.471465 52.606531 26.949905 55.182625 31.269816 53.954027 C 35.62936 52.76506 38.165821 48.28662 36.976855 43.927077 Z M 57.545973 35.20799 C 56.357007 30.888079 51.838935 28.311985 47.519023 29.500951 C 43.15948 30.72955 40.623018 35.20799 41.811985 39.567533 C 43.000951 43.887445 47.519023 46.463538 51.838935 45.23494 C 56.198478 44.045973 58.73494 39.567533 57.545973 35.20799 Z M 57.545973 35.20799 " transform="matrix(0.0985625, 0, 0, -0.0985625, 0, 27.278781)"/>
<path fill="none" stroke-width="4" stroke-linecap="butt" stroke-linejoin="miter" stroke="rgb(100%, 100%, 100%)" stroke-opacity="1" stroke-miterlimit="4" d="M 79.740013 32.116677 C 78.551046 27.796766 74.032974 25.220672 69.713063 26.449271 C 65.353519 27.638237 62.817058 32.116677 64.006024 36.476221 C 65.19499 40.835764 69.713063 43.372226 74.032974 42.183259 C 78.392517 40.954661 80.928979 36.476221 79.740013 32.116677 Z M 79.740013 32.116677 " transform="matrix(0.0985625, 0, 0, -0.0985625, 0, 27.278781)"/>
<g clip-path="url(#clip-14)">
<path fill="none" stroke-width="4" stroke-linecap="butt" stroke-linejoin="miter" stroke="rgb(100%, 100%, 100%)" stroke-opacity="1" stroke-miterlimit="4" d="M 47.201966 23.080533 C 47.083069 22.684211 46.409321 22.525682 45.656309 22.723843 C 44.863665 22.961636 44.348446 23.437223 44.467343 23.833545 C 44.58624 24.269499 45.29962 24.428028 46.052632 24.190235 C 46.805644 23.992074 47.320862 23.476855 47.201966 23.080533 Z M 44.467343 23.833545 L 41.891249 14.519975 M 44.903297 23.080533 L 42.485732 14.361446 M 47.201966 23.080533 L 44.625872 13.766963 M 46.448954 22.644578 L 44.031389 13.925491 M 62.935954 158.226379 L 61.152505 151.766328 M 63.649334 158.028218 L 61.826252 151.488903 M 100.269499 147.922004 L 98.486049 141.461953 M 99.556119 148.120165 L 97.733037 141.58085 " transform="matrix(0.0985625, 0, 0, -0.0985625, 0, 27.278781)"/>
</g>
<g clip-path="url(#clip-15)">
<path fill="none" stroke-width="4" stroke-linecap="butt" stroke-linejoin="miter" stroke="rgb(100%, 100%, 100%)" stroke-opacity="1" stroke-miterlimit="4" d="M 137.523779 232.73494 C 137.523779 232.73494 139.822448 242.167406 141.090679 248.746354 C 143.547876 261.309765 143.825301 267.650919 143.825301 267.650919 C 143.785669 269.394737 143.310082 270.900761 141.724794 271.336715 L 134.432467 273.357958 C 132.807546 273.793912 131.737476 272.803107 130.746671 271.297083 C 130.746671 271.297083 127.893152 265.431516 123.850666 253.502219 C 121.710526 247.161065 119.649651 239.234623 119.649651 239.234623 M 116.796132 146.495244 C 116.320545 144.870323 114.695625 143.958782 113.110336 144.394737 L 50.13475 161.753646 C 48.509829 162.229233 47.598288 163.854153 48.034242 165.439442 L 59.012365 205.269816 C 59.44832 206.855105 61.112873 207.806278 62.698161 207.370323 L 125.673748 189.971782 C 127.259036 189.535828 128.210209 187.871275 127.774255 186.285986 Z M 138.395688 236.14331 C 132.569753 238.402346 126.585289 240.542486 120.52156 242.444832 M 73.676284 250.252378 C 73.676284 250.252378 58.655675 219.616677 50.095117 188.545022 C 39.870006 151.568167 38.403614 139.242549 39.949271 122.042169 C 40.226696 118.514902 43.753963 114.155358 47.677552 113.085289 C 49.262841 112.649334 51.04629 112.173748 51.799302 111.935954 C 52.552315 111.737793 55.445466 111.024413 57.863031 109.161699 C 60.280596 107.298985 60.875079 106.783767 62.301839 106.030755 C 63.728599 105.23811 63.92676 104.762524 67.969245 103.61319 C 72.011731 102.503488 72.447685 102.820545 74.032974 102.780913 C 75.657895 102.701649 76.450539 102.820545 79.462587 103.216867 C 82.514268 103.573557 85.328155 102.701649 86.120799 102.503488 C 86.873811 102.265694 88.657261 101.790108 90.202917 101.354153 C 94.166138 100.284084 99.39759 102.18643 101.498098 105.079581 C 111.604312 119.03012 116.637603 130.364933 126.862714 167.38142 C 135.423272 198.453075 138.276791 232.457514 138.276791 232.457514 M 64.838301 234.914711 C 76.926126 233.170894 89.965124 230.396639 102.013316 227.067533 C 114.101141 223.698795 126.704185 219.418516 137.959734 214.702283 " transform="matrix(0.0985625, 0, 0, -0.0985625, 0, 27.278781)"/>
</g>
<path fill="none" stroke-width="4" stroke-linecap="butt" stroke-linejoin="miter" stroke="rgb(100%, 100%, 100%)" stroke-opacity="1" stroke-miterlimit="4" d="M 91.86747 121.844008 C 89.172479 112.173748 79.185162 106.466709 69.475269 109.122067 C 59.80501 111.817058 54.097971 121.844008 56.792961 131.514268 C 59.44832 141.22416 69.475269 146.891566 79.185162 144.196576 C 88.855422 141.541218 94.522828 131.514268 91.86747 121.844008 Z M 58.338618 151.687064 C 60.795815 151.013316 62.658529 149.982879 63.57007 149.388396 C 64.481611 148.793912 64.759036 147.961636 64.006024 147.446417 C 63.173748 146.931198 61.667724 145.821497 60.835447 145.108117 C 59.923906 144.27584 59.210526 144.038047 57.823399 144.870323 C 55.405834 146.257451 50.214014 149.982879 48.945783 151.726696 C 48.272036 152.638237 48.906151 152.955295 50.214014 153.034559 C 52.076728 153.153456 55.683259 152.400444 58.338618 151.687064 Z M 45.418516 132.544705 C 46.766011 132.108751 50.055485 130.404566 51.006658 129.730818 C 51.957831 129.017438 53.463855 127.511414 53.305327 125.727964 C 53.146798 123.587825 53.305327 119.188649 54.177235 117.682625 C 55.366202 115.780279 55.207673 114.948003 53.54312 115.26506 C 52.155992 115.542486 48.628725 116.810717 47.598288 117.286303 C 46.607483 117.76189 45.141091 118.633798 44.665504 120.020926 C 43.714331 122.914077 43.51617 128.70038 44.031389 131.5539 C 44.22955 132.782498 44.705136 132.782498 45.418516 132.544705 Z M 45.418516 132.544705 " transform="matrix(0.0985625, 0, 0, -0.0985625, 0, 27.278781)"/>
<path fill="none" stroke-width="4" stroke-linecap="butt" stroke-linejoin="miter" stroke="rgb(100%, 100%, 100%)" stroke-opacity="1" stroke-miterlimit="4" d="M 100.863982 139.955929 C 98.406785 140.629677 96.266646 140.708941 95.196576 140.669309 C 94.126506 140.590044 93.452758 140.035193 93.849081 139.242549 C 94.285035 138.331008 95.038047 136.626823 95.355105 135.596386 C 95.711795 134.407419 96.187381 133.852568 97.812302 133.812936 C 100.586557 133.773304 106.967343 134.328155 108.988586 135.160431 C 109.979391 135.596386 109.622701 136.190869 108.552632 136.943881 C 107.006975 137.974318 103.519341 139.202917 100.863982 139.955929 Z M 102.132213 116.889981 C 100.745086 117.207039 97.098922 117.4052 95.909956 117.325935 C 94.720989 117.207039 92.699746 116.69182 91.86747 115.066899 C 90.916297 113.164553 88.538364 109.439125 86.992708 108.646481 C 84.971465 107.616043 84.694039 106.823399 86.358592 106.228916 C 87.626823 105.753329 91.312619 105.000317 92.422321 104.921053 C 93.571655 104.841788 95.27584 104.802156 96.34591 105.753329 C 98.644578 107.73494 101.815155 112.649334 102.845593 115.304692 C 103.321179 116.493659 102.885225 116.731452 102.132213 116.889981 Z M 102.132213 116.889981 " transform="matrix(0.0985625, 0, 0, -0.0985625, 0, 27.278781)"/>
<path fill="none" stroke-width="4" stroke-linecap="butt" stroke-linejoin="miter" stroke="rgb(100%, 100%, 100%)" stroke-opacity="1" stroke-miterlimit="4" d="M 99.120165 221.836081 L 105.104629 243.554534 " transform="matrix(0.0985625, 0, 0, -0.0985625, 0, 27.278781)"/>
<path fill="none" stroke-width="4" stroke-linecap="butt" stroke-linejoin="miter" stroke="rgb(100%, 100%, 100%)" stroke-opacity="1" stroke-miterlimit="4" d="M 101.101776 221.28123 L 107.08624 242.999683 " transform="matrix(0.0985625, 0, 0, -0.0985625, 0, 27.278781)"/>
</svg>
