<?xml version="1.0" encoding="UTF-8"?>
<svg xmlns="http://www.w3.org/2000/svg" xmlns:xlink="http://www.w3.org/1999/xlink" width="36.67" height="31.84" viewBox="0 0 36.67 31.84">
<defs>
<clipPath id="clip-0">
<path clip-rule="nonzero" d="M 0 7 L 36.34375 7 L 36.34375 31.617188 L 0 31.617188 Z M 0 7 "/>
</clipPath>
<clipPath id="clip-1">
<path clip-rule="nonzero" d="M 0 5 L 36.34375 5 L 36.34375 31.617188 L 0 31.617188 Z M 0 5 "/>
</clipPath>
<clipPath id="clip-2">
<path clip-rule="nonzero" d="M 0 0.0625 L 36.34375 0.0625 L 36.34375 15 L 0 15 Z M 0 0.0625 "/>
</clipPath>
<clipPath id="clip-3">
<path clip-rule="nonzero" d="M 0 0.0625 L 36.34375 0.0625 L 36.34375 17 L 0 17 Z M 0 0.0625 "/>
</clipPath>
<clipPath id="clip-4">
<path clip-rule="nonzero" d="M 8 17 L 28 17 L 28 31.617188 L 8 31.617188 Z M 8 17 "/>
</clipPath>
<clipPath id="clip-5">
<path clip-rule="nonzero" d="M 9 21 L 27 21 L 27 31.617188 L 9 31.617188 Z M 9 21 "/>
</clipPath>
</defs>
<g clip-path="url(#clip-0)">
<path fill-rule="nonzero" fill="rgb(1.179504%, 40.779114%, 59.208679%)" fill-opacity="1" d="M 36.148438 7.253906 C 36.148438 11.117188 28.101562 14.246094 18.171875 14.246094 C 8.246094 14.246094 0.199219 11.117188 0.199219 7.253906 L 0.199219 24.429688 C 0.199219 28.292969 8.246094 31.421875 18.171875 31.421875 C 28.101562 31.421875 36.148438 28.292969 36.148438 24.429688 L 36.148438 7.253906 "/>
</g>
<g clip-path="url(#clip-1)">
<path fill="none" stroke-width="4" stroke-linecap="butt" stroke-linejoin="miter" stroke="rgb(100%, 100%, 100%)" stroke-opacity="1" stroke-miterlimit="4" d="M 364.737439 245.840815 C 364.737439 206.860339 283.544536 175.2897 183.35407 175.2897 C 83.203018 175.2897 2.010116 206.860339 2.010116 245.840815 L 2.010116 72.537323 C 2.010116 33.556847 83.203018 1.986208 183.35407 1.986208 C 283.544536 1.986208 364.737439 33.556847 364.737439 72.537323 Z M 364.737439 245.840815 " transform="matrix(0.0991081, 0, 0, -0.0991081, 0, 31.618724)"/>
</g>
<g clip-path="url(#clip-2)">
<path fill-rule="nonzero" fill="rgb(1.179504%, 40.779114%, 59.208679%)" fill-opacity="1" d="M 18.171875 14.246094 C 28.101562 14.246094 36.148438 11.117188 36.148438 7.253906 C 36.148438 3.394531 28.101562 0.265625 18.171875 0.265625 C 8.246094 0.265625 0.199219 3.394531 0.199219 7.253906 C 0.199219 11.117188 8.246094 14.246094 18.171875 14.246094 "/>
</g>
<g clip-path="url(#clip-3)">
<path fill="none" stroke-width="4" stroke-linecap="butt" stroke-linejoin="miter" stroke="rgb(100%, 100%, 100%)" stroke-opacity="1" stroke-miterlimit="4" d="M 183.35407 175.2897 C 283.544536 175.2897 364.737439 206.860339 364.737439 245.840815 C 364.737439 284.781877 283.544536 316.352516 183.35407 316.352516 C 83.203018 316.352516 2.010116 284.781877 2.010116 245.840815 C 2.010116 206.860339 83.203018 175.2897 183.35407 175.2897 Z M 183.35407 175.2897 " transform="matrix(0.0991081, 0, 0, -0.0991081, 0, 31.618724)"/>
</g>
<path fill-rule="nonzero" fill="rgb(100%, 100%, 100%)" fill-opacity="1" d="M 14.238281 4.453125 L 15.746094 6.714844 L 10.050781 8.027344 L 11.296875 6.992188 L 2.5 5.488281 L 4.707031 3.835938 L 13.195312 5.273438 L 14.238281 4.453125 "/>
<path fill-rule="nonzero" fill="rgb(100%, 100%, 100%)" fill-opacity="1" d="M 22.246094 9.929688 L 21.21875 7.601562 L 26.351562 6.574219 L 25.464844 7.375 L 34.019531 8.835938 L 31.964844 10.476562 L 23.460938 8.882812 L 22.246094 9.929688 "/>
<path fill-rule="nonzero" fill="rgb(100%, 100%, 100%)" fill-opacity="1" d="M 19.441406 3.222656 L 25.1875 1.648438 L 25.257812 4.113281 L 23.820312 3.839844 L 21.015625 6.164062 L 18.335938 5.777344 L 21.234375 3.5 L 19.441406 3.222656 "/>
<path fill-rule="nonzero" fill="rgb(100%, 100%, 100%)" fill-opacity="1" d="M 16.976562 12.050781 L 11.5 13.078125 L 11.292969 10.546875 L 12.871094 10.890625 L 15.882812 8.3125 L 18.550781 8.765625 L 15.332031 11.574219 L 16.976562 12.050781 "/>
<path fill-rule="nonzero" fill="rgb(100%, 100%, 100%)" fill-opacity="1" stroke-width="3" stroke-linecap="butt" stroke-linejoin="miter" stroke="rgb(0%, 0%, 0%)" stroke-opacity="1" stroke-miterlimit="4" d="M 335.255744 48.731248 L 335.255744 110.768932 L 297.851829 80.971925 Z M 335.255744 48.731248 " transform="matrix(0.0991081, 0, 0, -0.0991081, 0, 31.618724)"/>
<path fill-rule="nonzero" fill="rgb(100%, 100%, 100%)" fill-opacity="1" stroke-width="3" stroke-linecap="butt" stroke-linejoin="miter" stroke="rgb(0%, 0%, 0%)" stroke-opacity="1" stroke-miterlimit="4" d="M 32.674231 48.494764 L 32.674231 110.532448 L 70.038732 80.735441 Z M 32.674231 48.494764 " transform="matrix(0.0991081, 0, 0, -0.0991081, 0, 31.618724)"/>
<path fill-rule="nonzero" fill="rgb(100%, 100%, 100%)" fill-opacity="1" stroke-width="3" stroke-linecap="butt" stroke-linejoin="miter" stroke="rgb(0%, 0%, 0%)" stroke-opacity="1" stroke-miterlimit="4" d="M 57.741555 171.66361 L 57.741555 109.586511 L 20.377054 139.383519 Z M 57.741555 171.66361 " transform="matrix(0.0991081, 0, 0, -0.0991081, 0, 31.618724)"/>
<path fill-rule="nonzero" fill="rgb(100%, 100%, 100%)" fill-opacity="1" stroke-width="3" stroke-linecap="butt" stroke-linejoin="miter" stroke="rgb(0%, 0%, 0%)" stroke-opacity="1" stroke-miterlimit="4" d="M 307.35061 171.939508 L 307.35061 109.86241 L 344.715111 139.659417 Z M 307.35061 171.939508 " transform="matrix(0.0991081, 0, 0, -0.0991081, 0, 31.618724)"/>
<path fill="none" stroke-width="7.6" stroke-linecap="butt" stroke-linejoin="miter" stroke="rgb(100%, 100%, 100%)" stroke-opacity="1" stroke-miterlimit="4" d="M 315.430486 141.669532 L 292.885661 141.669532 " transform="matrix(0.0991081, 0, 0, -0.0991081, 0, 31.618724)"/>
<path fill="none" stroke-width="7.6" stroke-linecap="butt" stroke-linejoin="miter" stroke="rgb(100%, 100%, 100%)" stroke-opacity="1" stroke-miterlimit="4" d="M 323.352707 81.484308 L 351.573152 81.484308 " transform="matrix(0.0991081, 0, 0, -0.0991081, 0, 31.618724)"/>
<path fill="none" stroke-width="7.6" stroke-linecap="butt" stroke-linejoin="miter" stroke="rgb(100%, 100%, 100%)" stroke-opacity="1" stroke-miterlimit="4" d="M 42.685395 81.247823 L 12.61249 81.247823 " transform="matrix(0.0991081, 0, 0, -0.0991081, 0, 31.618724)"/>
<path fill="none" stroke-width="7.6" stroke-linecap="butt" stroke-linejoin="miter" stroke="rgb(100%, 100%, 100%)" stroke-opacity="1" stroke-miterlimit="4" d="M 43.986058 139.541175 L 72.206504 139.541175 " transform="matrix(0.0991081, 0, 0, -0.0991081, 0, 31.618724)"/>
<path fill-rule="nonzero" fill="rgb(100%, 100%, 100%)" fill-opacity="1" d="M 26.125 19.472656 L 26.109375 30.523438 L 9.988281 30.523438 L 9.976562 19.472656 L 26.125 19.472656 "/>
<g clip-path="url(#clip-4)">
<path fill="none" stroke-width="3" stroke-linecap="butt" stroke-linejoin="miter" stroke="rgb(0%, 0%, 0%)" stroke-opacity="1" stroke-miterlimit="4" d="M 263.601036 122.553728 L 263.44338 11.051435 L 100.781676 11.051435 L 100.663434 122.553728 Z M 263.601036 122.553728 " transform="matrix(0.0991081, 0, 0, -0.0991081, 0, 31.618724)"/>
</g>
<path fill-rule="nonzero" fill="rgb(100%, 100%, 100%)" fill-opacity="1" d="M 22.335938 16.398438 C 22.335938 16.398438 22.96875 16.328125 23.113281 16.960938 L 23.25 19 L 27.480469 19.707031 L 27.902344 18.789062 L 26.84375 16.257812 C 21.421875 14.917969 16.210938 15.34375 16.210938 15.34375 L 16.417969 15.34375 C 16.417969 15.34375 14.519531 14.917969 9.09375 16.257812 L 8.039062 18.789062 L 8.460938 19.707031 L 12.6875 19 L 12.828125 16.960938 C 12.964844 16.328125 13.601562 16.398438 13.601562 16.398438 L 22.335938 16.398438 "/>
<path fill="none" stroke-width="3" stroke-linecap="butt" stroke-linejoin="miter" stroke="rgb(0%, 0%, 0%)" stroke-opacity="1" stroke-miterlimit="4" d="M 225.369427 153.57257 C 225.369427 153.57257 231.7545 154.282022 233.212819 147.896949 L 234.59231 127.322825 L 277.277705 120.188886 L 281.53442 129.451183 L 270.853218 154.991475 C 216.146543 168.510487 163.568227 164.214358 163.568227 164.214358 L 165.65717 164.214358 C 165.65717 164.214358 146.501952 168.510487 91.755863 154.991475 L 81.114075 129.451183 L 85.37079 120.188886 L 128.016771 127.322825 L 129.435676 147.896949 C 130.815167 154.282022 137.239654 153.57257 137.239654 153.57257 Z M 225.369427 153.57257 " transform="matrix(0.0991081, 0, 0, -0.0991081, 0, 31.618724)"/>
<path fill-rule="nonzero" fill="rgb(100%, 100%, 100%)" fill-opacity="1" d="M 25.34375 20.097656 L 25.328125 22.089844 L 10.820312 22.089844 L 10.808594 20.097656 L 25.34375 20.097656 "/>
<path fill="none" stroke-width="3" stroke-linecap="butt" stroke-linejoin="miter" stroke="rgb(0%, 0%, 0%)" stroke-opacity="1" stroke-miterlimit="4" d="M 255.71823 116.247483 L 255.560574 96.146327 L 109.176865 96.146327 L 109.058623 116.247483 Z M 255.71823 116.247483 " transform="matrix(0.0991081, 0, 0, -0.0991081, 0, 31.618724)"/>
<path fill-rule="nonzero" fill="rgb(100%, 100%, 100%)" fill-opacity="1" d="M 25.203125 22.941406 L 25.1875 29.820312 L 10.882812 29.820312 L 10.871094 22.941406 L 25.203125 22.941406 "/>
<g clip-path="url(#clip-5)">
<path fill="none" stroke-width="3" stroke-linecap="butt" stroke-linejoin="miter" stroke="rgb(0.78125%, 0.78125%, 0.78125%)" stroke-opacity="1" stroke-miterlimit="4" d="M 254.299325 87.554068 L 254.141669 18.145961 L 109.807489 18.145961 L 109.689247 87.554068 Z M 254.299325 87.554068 " transform="matrix(0.0991081, 0, 0, -0.0991081, 0, 31.618724)"/>
</g>
<path fill="none" stroke-width="2.521" stroke-linecap="butt" stroke-linejoin="miter" stroke="rgb(1.000977%, 1.000977%, 1.000977%)" stroke-opacity="1" stroke-miterlimit="4" d="M 243.775779 23.663925 L 120.488691 23.663925 L 120.488691 84.085634 L 243.775779 84.085634 Z M 243.775779 23.663925 " transform="matrix(0.0991081, 0, 0, -0.0991081, 0, 31.618724)"/>
<path fill-rule="nonzero" fill="rgb(100%, 100%, 100%)" fill-opacity="1" stroke-width="2.521" stroke-linecap="butt" stroke-linejoin="miter" stroke="rgb(0.78125%, 0.78125%, 0.78125%)" stroke-opacity="1" stroke-miterlimit="4" d="M 109.689247 87.554068 L 184.694147 49.598357 L 254.299325 87.554068 Z M 109.689247 87.554068 " transform="matrix(0.0991081, 0, 0, -0.0991081, 0, 31.618724)"/>
</svg>
