<?xml version="1.0" encoding="UTF-8"?>
<svg xmlns="http://www.w3.org/2000/svg" xmlns:xlink="http://www.w3.org/1999/xlink" width="31.79" height="28.42" viewBox="0 0 31.79 28.42">
<defs>
<clipPath id="clip-0">
<path clip-rule="nonzero" d="M 0.214844 3 L 28 3 L 28 27.460938 L 0.214844 27.460938 Z M 0.214844 3 "/>
</clipPath>
<clipPath id="clip-1">
<path clip-rule="nonzero" d="M 0.214844 0.0195312 L 31 0.0195312 L 31 4 L 0.214844 4 Z M 0.214844 0.0195312 "/>
</clipPath>
<clipPath id="clip-2">
<path clip-rule="nonzero" d="M 0.214844 0.0195312 L 31.371094 0.0195312 L 31.371094 6 L 0.214844 6 Z M 0.214844 0.0195312 "/>
</clipPath>
<clipPath id="clip-3">
<path clip-rule="nonzero" d="M 27 0.0195312 L 31 0.0195312 L 31 27.460938 L 27 27.460938 Z M 27 0.0195312 "/>
</clipPath>
<clipPath id="clip-4">
<path clip-rule="nonzero" d="M 25 0.0195312 L 31.371094 0.0195312 L 31.371094 27.460938 L 25 27.460938 Z M 25 0.0195312 "/>
</clipPath>
</defs>
<g clip-path="url(#clip-0)">
<path fill-rule="nonzero" fill="rgb(3.292847%, 48.297119%, 73.150635%)" fill-opacity="1" d="M 0.679688 27.371094 L 27.78125 27.371094 L 27.78125 3.679688 L 0.679688 3.679688 Z M 0.679688 27.371094 "/>
<path fill="none" stroke-width="3.99994" stroke-linecap="butt" stroke-linejoin="miter" stroke="rgb(100%, 100%, 100%)" stroke-opacity="1" stroke-miterlimit="4" d="M 4.741709 4.903125 L 4.741709 246.652168 L 281.288265 246.652168 L 281.288265 4.903125 Z M 4.741709 4.903125 " transform="matrix(0.098, 0, 0, -0.098, 0.215, 27.8516)"/>
</g>
<g clip-path="url(#clip-1)">
<path fill-rule="nonzero" fill="rgb(3.292847%, 48.297119%, 73.150635%)" fill-opacity="1" d="M 3.800781 0.476562 L 0.679688 3.679688 L 27.78125 3.679688 L 30.90625 0.476562 L 3.800781 0.476562 "/>
</g>
<g clip-path="url(#clip-2)">
<path fill="none" stroke-width="3.99994" stroke-linecap="butt" stroke-linejoin="miter" stroke="rgb(100%, 100%, 100%)" stroke-opacity="1" stroke-miterlimit="4" d="M 36.589605 279.337117 L 4.741709 246.652168 L 281.288265 246.652168 L 313.17602 279.337117 Z M 36.589605 279.337117 " transform="matrix(0.098, 0, 0, -0.098, 0.215, 27.8516)"/>
</g>
<g clip-path="url(#clip-3)">
<path fill-rule="nonzero" fill="rgb(3.292847%, 48.297119%, 73.150635%)" fill-opacity="1" d="M 30.90625 24.167969 L 30.90625 0.476562 L 27.78125 3.679688 L 27.78125 27.371094 L 30.90625 24.167969 "/>
</g>
<g clip-path="url(#clip-4)">
<path fill="none" stroke-width="3.99994" stroke-linecap="butt" stroke-linejoin="miter" stroke="rgb(100%, 100%, 100%)" stroke-opacity="1" stroke-miterlimit="4" d="M 313.17602 37.588074 L 313.17602 279.337117 L 281.288265 246.652168 L 281.288265 4.903125 Z M 313.17602 37.588074 " transform="matrix(0.098, 0, 0, -0.098, 0.215, 27.8516)"/>
</g>
<path fill-rule="nonzero" fill="rgb(3.292847%, 48.297119%, 73.150635%)" fill-opacity="1" d="M 3.21875 25.488281 L 25.589844 25.488281 L 25.589844 5.859375 L 3.21875 5.859375 Z M 3.21875 25.488281 "/>
<path fill="none" stroke-width="3.99994" stroke-linecap="butt" stroke-linejoin="miter" stroke="rgb(100%, 100%, 100%)" stroke-opacity="1" stroke-miterlimit="4" d="M 258.926977 224.410459 L 30.65051 224.410459 L 30.65051 24.115497 L 258.926977 24.115497 Z M 258.926977 224.410459 " transform="matrix(0.098, 0, 0, -0.098, 0.215, 27.8516)"/>
<path fill-rule="nonzero" fill="rgb(3.292847%, 48.297119%, 73.150635%)" fill-opacity="1" d="M 24.300781 13.039062 C 24.300781 15.148438 19.902344 16.859375 14.480469 16.859375 C 9.058594 16.859375 4.660156 15.148438 4.660156 13.039062 L 4.660156 18.632812 C 4.660156 20.742188 9.058594 22.453125 14.480469 22.453125 C 19.902344 22.453125 24.300781 20.742188 24.300781 18.632812 L 24.300781 13.039062 "/>
<path fill="none" stroke-width="3.99994" stroke-linecap="butt" stroke-linejoin="miter" stroke="rgb(100%, 100%, 100%)" stroke-opacity="1" stroke-miterlimit="4" d="M 245.773278 151.148342 C 245.773278 129.624107 200.891263 112.165561 145.566008 112.165561 C 90.240753 112.165561 45.358737 129.624107 45.358737 151.148342 L 45.358737 94.06926 C 45.358737 72.545026 90.240753 55.08648 145.566008 55.08648 C 200.891263 55.08648 245.773278 72.545026 245.773278 94.06926 Z M 245.773278 151.148342 " transform="matrix(0.098, 0, 0, -0.098, 0.215, 27.8516)"/>
<path fill-rule="nonzero" fill="rgb(3.292847%, 48.297119%, 73.150635%)" fill-opacity="1" d="M 14.480469 16.859375 C 19.902344 16.859375 24.300781 15.148438 24.300781 13.039062 C 24.300781 10.929688 19.902344 9.222656 14.480469 9.222656 C 9.058594 9.222656 4.660156 10.929688 4.660156 13.039062 C 4.660156 15.148438 9.058594 16.859375 14.480469 16.859375 "/>
<path fill="none" stroke-width="3.99994" stroke-linecap="butt" stroke-linejoin="miter" stroke="rgb(100%, 100%, 100%)" stroke-opacity="1" stroke-miterlimit="4" d="M 145.566008 112.165561 C 200.891263 112.165561 245.773278 129.624107 245.773278 151.148342 C 245.773278 172.672577 200.891263 190.091263 145.566008 190.091263 C 90.240753 190.091263 45.358737 172.672577 45.358737 151.148342 C 45.358737 129.624107 90.240753 112.165561 145.566008 112.165561 Z M 145.566008 112.165561 " transform="matrix(0.098, 0, 0, -0.098, 0.215, 27.8516)"/>
<path fill-rule="nonzero" fill="rgb(100%, 100%, 100%)" fill-opacity="1" d="M 12.234375 11.546875 L 13.046875 12.761719 L 9.980469 13.472656 L 10.652344 12.914062 L 5.914062 12.105469 L 7.101562 11.210938 L 11.675781 11.988281 L 12.234375 11.546875 "/>
<path fill-rule="nonzero" fill="rgb(100%, 100%, 100%)" fill-opacity="1" d="M 16.550781 14.496094 L 15.996094 13.242188 L 18.761719 12.6875 L 18.28125 13.121094 L 22.890625 13.90625 L 21.785156 14.792969 L 17.203125 13.929688 L 16.550781 14.496094 "/>
<path fill-rule="nonzero" fill="rgb(100%, 100%, 100%)" fill-opacity="1" d="M 15.039062 10.882812 L 18.136719 10.035156 L 18.171875 11.363281 L 17.398438 11.214844 L 15.886719 12.46875 L 14.445312 12.257812 L 16.003906 11.03125 L 15.039062 10.882812 "/>
<path fill-rule="nonzero" fill="rgb(100%, 100%, 100%)" fill-opacity="1" d="M 13.710938 15.640625 L 10.761719 16.191406 L 10.652344 14.828125 L 11.5 15.011719 L 13.121094 13.625 L 14.558594 13.867188 L 12.828125 15.378906 L 13.710938 15.640625 "/>
</svg>
