<?xml version="1.0" encoding="UTF-8"?>
<svg xmlns="http://www.w3.org/2000/svg" xmlns:xlink="http://www.w3.org/1999/xlink" width="43.53" height="31.59" viewBox="0 0 43.53 31.59">
<defs>
<clipPath id="clip-0">
<path clip-rule="nonzero" d="M 0.046875 5 L 39 5 L 39 31 L 0.046875 31 Z M 0.046875 5 "/>
</clipPath>
<clipPath id="clip-1">
<path clip-rule="nonzero" d="M 36 0 L 43.019531 0 L 43.019531 31.183594 L 36 31.183594 Z M 36 0 "/>
</clipPath>
<clipPath id="clip-2">
<path clip-rule="nonzero" d="M 0.046875 0 L 43 0 L 43 6 L 0.046875 6 Z M 0.046875 0 "/>
</clipPath>
<clipPath id="clip-3">
<path clip-rule="nonzero" d="M 0.046875 0 L 43.019531 0 L 43.019531 9 L 0.046875 9 Z M 0.046875 0 "/>
</clipPath>
</defs>
<g clip-path="url(#clip-0)">
<path fill-rule="nonzero" fill="rgb(3.292847%, 48.298645%, 73.153687%)" fill-opacity="1" d="M 0.605469 30.546875 L 38.265625 30.546875 L 38.265625 5.804688 L 0.605469 5.804688 L 0.605469 30.546875 "/>
<path fill="none" stroke-width="4" stroke-linecap="butt" stroke-linejoin="miter" stroke="rgb(100%, 100%, 100%)" stroke-opacity="1" stroke-miterlimit="4" d="M 5.658436 6.466635 L 387.147832 6.466635 L 387.147832 257.099747 L 5.658436 257.099747 Z M 5.658436 6.466635 " transform="matrix(0.0987188, 0, 0, -0.0987188, 0.046875, 31.185253)"/>
</g>
<path fill-rule="nonzero" fill="rgb(3.292847%, 48.298645%, 73.153687%)" fill-opacity="1" d="M 42.597656 24.210938 L 38.265625 30.546875 L 38.265625 5.804688 L 42.597656 0.550781 L 42.597656 24.210938 "/>
<g clip-path="url(#clip-1)">
<path fill="none" stroke-width="4" stroke-linecap="butt" stroke-linejoin="miter" stroke="rgb(100%, 100%, 100%)" stroke-opacity="1" stroke-miterlimit="4" d="M 431.030389 70.648338 L 387.147832 6.466635 L 387.147832 257.099747 L 431.030389 310.320703 Z M 431.030389 70.648338 " transform="matrix(0.0987188, 0, 0, -0.0987188, 0.046875, 31.185253)"/>
</g>
<g clip-path="url(#clip-2)">
<path fill-rule="nonzero" fill="rgb(3.292847%, 48.298645%, 73.153687%)" fill-opacity="1" d="M 7.105469 0.550781 L 42.597656 0.550781 L 38.265625 5.804688 L 0.605469 5.804688 L 7.105469 0.550781 "/>
</g>
<g clip-path="url(#clip-3)">
<path fill="none" stroke-width="4" stroke-linecap="butt" stroke-linejoin="miter" stroke="rgb(100%, 100%, 100%)" stroke-opacity="1" stroke-miterlimit="4" d="M 71.502058 310.320703 L 431.030389 310.320703 L 387.147832 257.099747 L 5.658436 257.099747 Z M 71.502058 310.320703 " transform="matrix(0.0987188, 0, 0, -0.0987188, 0.046875, 31.185253)"/>
</g>
<path fill-rule="nonzero" fill="rgb(100%, 100%, 100%)" fill-opacity="1" d="M 6.109375 12.308594 L 2.761719 12.3125 L 2.761719 11.308594 L 6.109375 11.304688 L 6.109375 9.742188 L 9.761719 11.808594 L 6.109375 13.875 L 6.109375 12.308594 "/>
<path fill-rule="nonzero" fill="rgb(100%, 100%, 100%)" fill-opacity="1" d="M 6.109375 18.5625 L 2.761719 18.566406 L 2.761719 17.5625 L 6.109375 17.558594 L 6.109375 15.992188 L 9.761719 18.0625 L 6.109375 20.128906 L 6.109375 18.5625 "/>
<path fill-rule="nonzero" fill="rgb(100%, 100%, 100%)" fill-opacity="1" d="M 6.109375 24.8125 L 2.761719 24.816406 L 2.761719 23.816406 L 6.109375 23.8125 L 6.109375 22.246094 L 9.761719 24.3125 L 6.109375 26.382812 L 6.109375 24.8125 "/>
<path fill-rule="nonzero" fill="rgb(100%, 100%, 100%)" fill-opacity="1" d="M 31.667969 17.738281 L 36.054688 17.734375 L 36.054688 18.734375 L 31.667969 18.742188 L 31.667969 20.304688 L 28.015625 18.238281 L 31.667969 16.171875 L 31.667969 17.738281 "/>
<path fill-rule="nonzero" fill="rgb(100%, 100%, 100%)" fill-opacity="1" d="M 34.289062 18.625 L 29.90625 18.628906 L 29.90625 17.625 L 34.289062 17.621094 L 34.292969 16.058594 L 37.945312 18.125 L 34.292969 20.191406 L 34.289062 18.625 "/>
<path fill-rule="nonzero" fill="rgb(3.292847%, 48.298645%, 73.153687%)" fill-opacity="1" d="M 13.28125 20.453125 L 27.097656 20.453125 L 27.097656 12.609375 C 27.050781 12.027344 26.027344 12.074219 26.027344 12.074219 L 19.089844 12.074219 L 19.089844 10.644531 L 14.453125 10.644531 L 14.453125 11.714844 L 13.285156 11.714844 L 13.28125 20.453125 "/>
<path fill="none" stroke-width="4" stroke-linecap="butt" stroke-linejoin="miter" stroke="rgb(100%, 100%, 100%)" stroke-opacity="1" stroke-miterlimit="4" d="M 134.061412 108.714182 L 274.018677 108.714182 L 274.018677 188.169706 C 273.543843 194.065559 263.176638 193.590725 263.176638 193.590725 L 192.901235 193.590725 L 192.901235 208.073156 L 145.932257 208.073156 L 145.932257 197.231117 L 134.100981 197.231117 Z M 134.061412 108.714182 " transform="matrix(0.0987188, 0, 0, -0.0987188, 0.046875, 31.185253)"/>
<path fill-rule="nonzero" fill="rgb(3.292847%, 48.298645%, 73.153687%)" fill-opacity="1" d="M 12.164062 21.6875 L 25.980469 21.6875 L 25.980469 13.84375 C 25.933594 13.261719 24.914062 13.308594 24.914062 13.308594 L 17.972656 13.308594 L 17.972656 11.882812 L 13.335938 11.882812 L 13.335938 12.953125 L 12.167969 12.953125 L 12.164062 21.6875 "/>
<path fill="none" stroke-width="4" stroke-linecap="butt" stroke-linejoin="miter" stroke="rgb(100%, 100%, 100%)" stroke-opacity="1" stroke-miterlimit="4" d="M 122.744539 96.210225 L 262.701804 96.210225 L 262.701804 175.665749 C 262.226971 181.561602 251.899335 181.086768 251.899335 181.086768 L 181.584362 181.086768 L 181.584362 195.52963 L 134.615385 195.52963 L 134.615385 184.687591 L 122.784109 184.687591 Z M 122.744539 96.210225 " transform="matrix(0.0987188, 0, 0, -0.0987188, 0.046875, 31.185253)"/>
<path fill-rule="nonzero" fill="rgb(3.292847%, 48.298645%, 73.153687%)" fill-opacity="1" d="M 10.832031 22.992188 L 24.65625 22.992188 L 24.65625 15.148438 C 24.609375 14.566406 23.59375 14.613281 23.59375 14.613281 L 16.640625 14.613281 L 16.640625 13.1875 L 12.007812 13.1875 L 12.007812 14.257812 L 10.835938 14.257812 L 10.832031 22.992188 "/>
<path fill="none" stroke-width="4" stroke-linecap="butt" stroke-linejoin="miter" stroke="rgb(100%, 100%, 100%)" stroke-opacity="1" stroke-miterlimit="4" d="M 109.251345 82.994017 L 249.287749 82.994017 L 249.287749 162.449541 C 248.812915 168.345394 238.52485 167.87056 238.52485 167.87056 L 168.091168 167.87056 L 168.091168 182.313422 L 121.16176 182.313422 L 121.16176 171.471383 L 109.290915 171.471383 Z M 109.251345 82.994017 " transform="matrix(0.0987188, 0, 0, -0.0987188, 0.046875, 31.185253)"/>
</svg>
