<?xml version="1.0" encoding="UTF-8"?>
<svg xmlns="http://www.w3.org/2000/svg" xmlns:xlink="http://www.w3.org/1999/xlink" width="82.28" height="47.86" viewBox="0 0 82.28 47.86">
<defs>
<clipPath id="clip-0">
<path clip-rule="nonzero" d="M 0 0.136719 L 81.289062 0.136719 L 81.289062 47.582031 L 0 47.582031 Z M 0 0.136719 "/>
</clipPath>
</defs>
<g clip-path="url(#clip-0)">
<path fill-rule="nonzero" fill="rgb(100%, 100%, 100%)" fill-opacity="1" d="M 28.328125 5.75 C 14.054688 2.898438 6.519531 10.210938 7.710938 16.53125 L 7.804688 16.875 C -3.320312 18.769531 -0.402344 31.898438 4.933594 31.898438 L 5.457031 31.878906 C 4.113281 38.046875 17.113281 44.328125 24.363281 41.191406 L 24.828125 40.679688 C 27.414062 46.226562 36.597656 47.15625 45.675781 47.386719 C 53.546875 47.585938 58.140625 46.964844 61.515625 43.515625 L 62.035156 43.667969 C 74.628906 44.679688 80.367188 35.980469 77.613281 29.734375 L 78.289062 29.542969 C 82.585938 28.40625 83.082031 18.492188 75.714844 17.027344 L 75.855469 16.644531 C 79.054688 10.195312 71.507812 4.113281 61.042969 5.253906 L 60.316406 4.875 C 52.824219 -1.910156 31.257812 -0.800781 28.757812 5.90625 L 28.328125 5.75 "/>
<path fill="none" stroke-width="3.99994" stroke-linecap="butt" stroke-linejoin="miter" stroke="rgb(0.784302%, 43.920898%, 62.350464%)" stroke-opacity="1" stroke-miterlimit="4" d="M 285.760133 421.99086 C 141.776746 450.756015 65.765811 376.991126 77.784129 313.234936 L 78.729833 309.767355 C -33.493673 290.65626 -4.058645 158.218338 49.767657 158.218338 L 55.047836 158.41536 C 41.49275 96.195938 172.630329 32.83379 245.764748 64.47546 L 250.453862 69.637426 C 276.539522 13.68329 369.17908 4.305062 460.754721 1.980207 C 540.154427 -0.0294133 586.493908 6.235874 620.539241 41.029889 L 625.780016 39.49312 C 752.819545 29.287401 810.704492 117.040823 782.924446 180.048332 L 789.741394 181.979144 C 833.086146 193.445801 838.090495 293.453967 763.773946 308.230587 L 765.192502 312.09221 C 797.464641 377.148744 721.335493 438.501271 615.771318 426.995209 L 608.442115 430.817428 C 532.864628 499.262733 315.313374 488.071906 290.094608 420.414688 Z M 285.760133 421.99086 " transform="matrix(0.0991325, 0, 0, -0.0991325, 0, 47.583022)"/>
</g>
</svg>
