<?xml version="1.0" encoding="UTF-8"?>
<svg xmlns="http://www.w3.org/2000/svg" xmlns:xlink="http://www.w3.org/1999/xlink" width="41.56" height="31.35" viewBox="0 0 41.56 31.35">
<defs>
<clipPath id="clip-0">
<path clip-rule="nonzero" d="M 11 4 L 38 4 L 38 30.417969 L 11 30.417969 Z M 11 4 "/>
</clipPath>
<clipPath id="clip-1">
<path clip-rule="nonzero" d="M 10 3 L 38 3 L 38 30.417969 L 10 30.417969 Z M 10 3 "/>
</clipPath>
<clipPath id="clip-2">
<path clip-rule="nonzero" d="M 10 0.0507812 L 40.921875 0.0507812 L 40.921875 4 L 10 4 Z M 10 0.0507812 "/>
</clipPath>
<clipPath id="clip-3">
<path clip-rule="nonzero" d="M 8 0.0507812 L 40.921875 0.0507812 L 40.921875 7 L 8 7 Z M 8 0.0507812 "/>
</clipPath>
<clipPath id="clip-4">
<path clip-rule="nonzero" d="M 37 0.0507812 L 40.921875 0.0507812 L 40.921875 30.417969 L 37 30.417969 Z M 37 0.0507812 "/>
</clipPath>
<clipPath id="clip-5">
<path clip-rule="nonzero" d="M 35 0.0507812 L 40.921875 0.0507812 L 40.921875 30.417969 L 35 30.417969 Z M 35 0.0507812 "/>
</clipPath>
<clipPath id="clip-6">
<path clip-rule="nonzero" d="M 0.207031 4 L 12 4 L 12 30.417969 L 0.207031 30.417969 Z M 0.207031 4 "/>
</clipPath>
<clipPath id="clip-7">
<path clip-rule="nonzero" d="M 0.207031 3 L 12 3 L 12 30.417969 L 0.207031 30.417969 Z M 0.207031 3 "/>
</clipPath>
<clipPath id="clip-8">
<path clip-rule="nonzero" d="M 0.207031 0.0507812 L 15 0.0507812 L 15 4 L 0.207031 4 Z M 0.207031 0.0507812 "/>
</clipPath>
<clipPath id="clip-9">
<path clip-rule="nonzero" d="M 0.207031 0.0507812 L 17 0.0507812 L 17 7 L 0.207031 7 Z M 0.207031 0.0507812 "/>
</clipPath>
<clipPath id="clip-10">
<path clip-rule="nonzero" d="M 10 3 L 12 3 L 12 30.417969 L 10 30.417969 Z M 10 3 "/>
</clipPath>
<clipPath id="clip-11">
<path clip-rule="nonzero" d="M 0.207031 13 L 12 13 L 12 14 L 0.207031 14 Z M 0.207031 13 "/>
</clipPath>
</defs>
<g clip-path="url(#clip-0)">
<path fill-rule="nonzero" fill="rgb(3.292847%, 48.297119%, 73.150635%)" fill-opacity="1" d="M 11.128906 30.324219 L 37.386719 30.324219 L 37.386719 4.042969 L 11.128906 4.042969 Z M 11.128906 30.324219 "/>
</g>
<g clip-path="url(#clip-1)">
<path fill="none" stroke-width="3.99994" stroke-linecap="butt" stroke-linejoin="miter" stroke="rgb(100%, 100%, 100%)" stroke-opacity="1" stroke-miterlimit="4" d="M 379.510367 3.970494 L 111.488038 3.970494 L 111.488038 272.232057 L 379.510367 272.232057 Z M 379.510367 3.970494 " transform="matrix(0.0979688, 0, 0, -0.0979688, 0.206563, 30.713203)"/>
</g>
<g clip-path="url(#clip-2)">
<path fill-rule="nonzero" fill="rgb(3.292847%, 48.297119%, 73.150635%)" fill-opacity="1" d="M 14.199219 0.648438 L 40.457031 0.648438 L 37.167969 3.96875 L 10.914062 3.96875 L 14.199219 0.648438 "/>
</g>
<g clip-path="url(#clip-3)">
<path fill="none" stroke-width="3.99994" stroke-linecap="butt" stroke-linejoin="miter" stroke="rgb(100%, 100%, 100%)" stroke-opacity="1" stroke-miterlimit="4" d="M 142.827751 306.88118 L 410.85008 306.88118 L 377.277512 272.989633 L 109.295056 272.989633 Z M 142.827751 306.88118 " transform="matrix(0.0979688, 0, 0, -0.0979688, 0.206563, 30.713203)"/>
</g>
<g clip-path="url(#clip-4)">
<path fill-rule="nonzero" fill="rgb(3.292847%, 48.297119%, 73.150635%)" fill-opacity="1" d="M 40.570312 25.273438 L 37.28125 30.078125 L 37.28125 3.796875 L 40.570312 0.480469 L 40.570312 25.273438 "/>
</g>
<g clip-path="url(#clip-5)">
<path fill="none" stroke-width="3.99994" stroke-linecap="butt" stroke-linejoin="miter" stroke="rgb(100%, 100%, 100%)" stroke-opacity="1" stroke-miterlimit="4" d="M 412.00638 55.525518 L 378.433812 6.482456 L 378.433812 274.744019 L 412.00638 308.595694 Z M 412.00638 55.525518 " transform="matrix(0.0979688, 0, 0, -0.0979688, 0.206563, 30.713203)"/>
</g>
<g clip-path="url(#clip-6)">
<path fill-rule="nonzero" fill="rgb(3.292847%, 48.297119%, 73.150635%)" fill-opacity="1" d="M 0.484375 30.324219 L 11.128906 30.324219 L 11.128906 4.042969 L 0.484375 4.042969 Z M 0.484375 30.324219 "/>
</g>
<g clip-path="url(#clip-7)">
<path fill="none" stroke-width="3.99994" stroke-linecap="butt" stroke-linejoin="miter" stroke="rgb(100%, 100%, 100%)" stroke-opacity="1" stroke-miterlimit="4" d="M 111.488038 3.970494 L 2.835726 3.970494 L 2.835726 272.232057 L 111.488038 272.232057 Z M 111.488038 3.970494 " transform="matrix(0.0979688, 0, 0, -0.0979688, 0.206563, 30.713203)"/>
</g>
<g clip-path="url(#clip-8)">
<path fill-rule="nonzero" fill="rgb(3.292847%, 48.297119%, 73.150635%)" fill-opacity="1" d="M 3.964844 0.648438 L 14.609375 0.648438 L 11.320312 3.96875 L 0.675781 3.96875 L 3.964844 0.648438 "/>
</g>
<g clip-path="url(#clip-9)">
<path fill="none" stroke-width="3.99994" stroke-linecap="butt" stroke-linejoin="miter" stroke="rgb(100%, 100%, 100%)" stroke-opacity="1" stroke-miterlimit="4" d="M 38.362041 306.88118 L 147.014354 306.88118 L 113.441786 272.989633 L 4.789474 272.989633 Z M 38.362041 306.88118 " transform="matrix(0.0979688, 0, 0, -0.0979688, 0.206563, 30.713203)"/>
</g>
<g clip-path="url(#clip-10)">
<path fill="none" stroke-width="3.99994" stroke-linecap="butt" stroke-linejoin="miter" stroke="rgb(100%, 100%, 100%)" stroke-opacity="1" stroke-miterlimit="4" d="M 111.488038 272.232057 L 111.488038 3.970494 " transform="matrix(0.0979688, 0, 0, -0.0979688, 0.206563, 30.713203)"/>
</g>
<g clip-path="url(#clip-11)">
<path fill="none" stroke-width="3.99994" stroke-linecap="butt" stroke-linejoin="miter" stroke="rgb(100%, 100%, 100%)" stroke-opacity="1" stroke-miterlimit="4" d="M 113.441786 175.501595 L 4.789474 175.501595 " transform="matrix(0.0979688, 0, 0, -0.0979688, 0.206563, 30.713203)"/>
</g>
<path fill-rule="nonzero" fill="rgb(100%, 100%, 100%)" fill-opacity="1" d="M 20.441406 16.613281 L 14.757812 16.613281 L 14.757812 15.652344 L 12.613281 17.074219 L 14.757812 18.496094 L 14.757812 17.53125 L 20.441406 17.53125 L 20.441406 16.613281 "/>
<path fill-rule="nonzero" fill="rgb(100%, 100%, 100%)" fill-opacity="1" d="M 21.261719 19.511719 L 17.242188 23.53125 L 16.5625 22.847656 L 16.050781 25.371094 L 18.574219 24.859375 L 17.890625 24.179688 L 21.910156 20.160156 L 21.261719 19.511719 "/>
<path fill-rule="nonzero" fill="rgb(100%, 100%, 100%)" fill-opacity="1" d="M 23.890625 20.980469 L 23.890625 26.664062 L 22.925781 26.664062 L 24.347656 28.808594 L 25.769531 26.664062 L 24.804688 26.664062 L 24.804688 20.980469 L 23.890625 20.980469 "/>
<path fill-rule="nonzero" fill="rgb(100%, 100%, 100%)" fill-opacity="1" d="M 26.789062 20.160156 L 30.804688 24.179688 L 30.125 24.859375 L 32.644531 25.371094 L 32.136719 22.847656 L 31.453125 23.53125 L 27.4375 19.511719 L 26.789062 20.160156 "/>
<path fill-rule="nonzero" fill="rgb(100%, 100%, 100%)" fill-opacity="1" d="M 28.257812 17.53125 L 33.9375 17.53125 L 33.9375 18.496094 L 36.085938 17.074219 L 33.9375 15.652344 L 33.9375 16.613281 L 28.257812 16.613281 L 28.257812 17.53125 "/>
<path fill-rule="nonzero" fill="rgb(100%, 100%, 100%)" fill-opacity="1" d="M 27.4375 14.632812 L 31.453125 10.617188 L 32.136719 11.296875 L 32.644531 8.777344 L 30.125 9.285156 L 30.804688 9.96875 L 26.789062 13.984375 L 27.4375 14.632812 "/>
<path fill-rule="nonzero" fill="rgb(100%, 100%, 100%)" fill-opacity="1" d="M 24.804688 13.164062 L 24.804688 7.484375 L 25.769531 7.484375 L 24.347656 5.339844 L 22.925781 7.484375 L 23.890625 7.484375 L 23.890625 13.164062 L 24.804688 13.164062 "/>
<path fill-rule="nonzero" fill="rgb(100%, 100%, 100%)" fill-opacity="1" d="M 21.910156 13.984375 L 17.890625 9.96875 L 18.574219 9.285156 L 16.050781 8.777344 L 16.5625 11.296875 L 17.242188 10.617188 L 21.261719 14.632812 L 21.910156 13.984375 "/>
<path fill-rule="nonzero" fill="rgb(100%, 100%, 100%)" fill-opacity="1" d="M 29.109375 13.597656 C 27.246094 10.9375 23.578125 10.289062 20.917969 12.152344 C 18.257812 14.015625 17.609375 17.683594 19.472656 20.34375 C 21.335938 23.007812 25.003906 23.652344 27.664062 21.789062 C 30.328125 19.925781 30.972656 16.257812 29.109375 13.597656 "/>
<path fill-rule="nonzero" fill="rgb(100%, 100%, 100%)" fill-opacity="1" d="M 4.8125 8.75 L 3.109375 8.75 L 3.109375 8.457031 L 2.464844 8.886719 L 3.109375 9.3125 L 3.109375 9.023438 L 4.8125 9.023438 L 4.8125 8.75 "/>
<path fill-rule="nonzero" fill="rgb(100%, 100%, 100%)" fill-opacity="1" d="M 5.058594 9.617188 L 3.855469 10.824219 L 3.652344 10.617188 L 3.496094 11.375 L 4.253906 11.222656 L 4.050781 11.019531 L 5.253906 9.8125 L 5.058594 9.617188 "/>
<path fill-rule="nonzero" fill="rgb(100%, 100%, 100%)" fill-opacity="1" d="M 5.847656 10.058594 L 5.847656 11.761719 L 5.558594 11.761719 L 5.988281 12.40625 L 6.414062 11.761719 L 6.125 11.761719 L 6.125 10.058594 L 5.847656 10.058594 "/>
<path fill-rule="nonzero" fill="rgb(100%, 100%, 100%)" fill-opacity="1" d="M 6.71875 9.8125 L 7.921875 11.019531 L 7.71875 11.222656 L 8.476562 11.375 L 8.324219 10.617188 L 8.117188 10.824219 L 6.914062 9.617188 L 6.71875 9.8125 "/>
<path fill-rule="nonzero" fill="rgb(100%, 100%, 100%)" fill-opacity="1" d="M 7.160156 9.023438 L 8.863281 9.023438 L 8.863281 9.3125 L 9.507812 8.886719 L 8.863281 8.457031 L 8.863281 8.75 L 7.160156 8.75 L 7.160156 9.023438 "/>
<path fill-rule="nonzero" fill="rgb(100%, 100%, 100%)" fill-opacity="1" d="M 6.914062 8.15625 L 8.117188 6.949219 L 8.324219 7.152344 L 8.476562 6.398438 L 7.71875 6.550781 L 7.921875 6.753906 L 6.71875 7.960938 L 6.914062 8.15625 "/>
<path fill-rule="nonzero" fill="rgb(100%, 100%, 100%)" fill-opacity="1" d="M 6.125 7.714844 L 6.125 6.007812 L 6.414062 6.007812 L 5.988281 5.367188 L 5.558594 6.007812 L 5.847656 6.007812 L 5.847656 7.714844 L 6.125 7.714844 "/>
<path fill-rule="nonzero" fill="rgb(100%, 100%, 100%)" fill-opacity="1" d="M 5.253906 7.960938 L 4.050781 6.753906 L 4.253906 6.550781 L 3.496094 6.398438 L 3.652344 7.152344 L 3.855469 6.949219 L 5.058594 8.15625 L 5.253906 7.960938 "/>
<path fill-rule="nonzero" fill="rgb(100%, 100%, 100%)" fill-opacity="1" d="M 7.414062 7.84375 C 6.855469 7.042969 5.753906 6.851562 4.957031 7.410156 C 4.160156 7.96875 3.964844 9.070312 4.523438 9.867188 C 5.082031 10.667969 6.183594 10.859375 6.980469 10.300781 C 7.78125 9.742188 7.972656 8.640625 7.414062 7.84375 "/>
<path fill-rule="nonzero" fill="rgb(100%, 100%, 100%)" fill-opacity="1" d="M 5.394531 22.113281 L 5.394531 26.835938 L 4.59375 26.835938 L 5.777344 28.621094 L 6.957031 26.835938 L 6.15625 26.835938 L 6.15625 22.113281 L 5.394531 22.113281 "/>
<path fill-rule="nonzero" fill="rgb(100%, 100%, 100%)" fill-opacity="1" d="M 6.707031 22.003906 L 8.324219 26.441406 L 7.570312 26.71875 L 9.289062 27.988281 L 9.792969 25.90625 L 9.039062 26.183594 L 7.421875 21.742188 L 6.707031 22.003906 "/>
<path fill-rule="nonzero" fill="rgb(100%, 100%, 100%)" fill-opacity="1" d="M 4.875 22.003906 L 3.257812 26.441406 L 4.011719 26.71875 L 2.292969 27.988281 L 1.789062 25.90625 L 2.542969 26.183594 L 4.160156 21.742188 L 4.875 22.003906 "/>
<path fill-rule="nonzero" fill="rgb(100%, 100%, 100%)" fill-opacity="1" d="M 5.394531 14.789062 L 5.394531 19.34375 L 4.59375 19.34375 L 5.777344 21.125 L 6.957031 19.34375 L 6.15625 19.34375 L 6.15625 14.789062 L 5.394531 14.789062 "/>
</svg>
