<?xml version="1.0" encoding="UTF-8"?>
<svg xmlns="http://www.w3.org/2000/svg" xmlns:xlink="http://www.w3.org/1999/xlink" width="47.12" height="31.35" viewBox="0 0 47.12 31.35">
<defs>
<clipPath id="clip-0">
<path clip-rule="nonzero" d="M 0.046875 4 L 43 4 L 43 30.417969 L 0.046875 30.417969 Z M 0.046875 4 "/>
</clipPath>
<clipPath id="clip-1">
<path clip-rule="nonzero" d="M 0.046875 3 L 43 3 L 43 30.417969 L 0.046875 30.417969 Z M 0.046875 3 "/>
</clipPath>
<clipPath id="clip-2">
<path clip-rule="nonzero" d="M 0.046875 0.0507812 L 46 0.0507812 L 46 4 L 0.046875 4 Z M 0.046875 0.0507812 "/>
</clipPath>
<clipPath id="clip-3">
<path clip-rule="nonzero" d="M 0.046875 0.0507812 L 46.09375 0.0507812 L 46.09375 7 L 0.046875 7 Z M 0.046875 0.0507812 "/>
</clipPath>
<clipPath id="clip-4">
<path clip-rule="nonzero" d="M 42 0.0507812 L 46 0.0507812 L 46 30.417969 L 42 30.417969 Z M 42 0.0507812 "/>
</clipPath>
<clipPath id="clip-5">
<path clip-rule="nonzero" d="M 40 0.0507812 L 46.09375 0.0507812 L 46.09375 30.417969 L 40 30.417969 Z M 40 0.0507812 "/>
</clipPath>
</defs>
<g clip-path="url(#clip-0)">
<path fill-rule="nonzero" fill="rgb(3.115845%, 49.784851%, 74.839783%)" fill-opacity="1" d="M 0.523438 30.324219 L 42.453125 30.324219 L 42.453125 4.042969 L 0.523438 4.042969 Z M 0.523438 30.324219 "/>
</g>
<g clip-path="url(#clip-1)">
<path fill="none" stroke-width="4" stroke-linecap="butt" stroke-linejoin="miter" stroke="rgb(100%, 100%, 100%)" stroke-opacity="1" stroke-miterlimit="4" d="M 432.848485 3.970494 L 4.858054 3.970494 L 4.858054 272.232057 L 432.848485 272.232057 Z M 432.848485 3.970494 " transform="matrix(0.0979688, 0, 0, -0.0979688, 0.0475, 30.713203)"/>
</g>
<g clip-path="url(#clip-2)">
<path fill-rule="nonzero" fill="rgb(3.115845%, 49.784851%, 74.839783%)" fill-opacity="1" d="M 3.804688 0.648438 L 45.738281 0.648438 L 42.449219 3.96875 L 0.515625 3.96875 L 3.804688 0.648438 "/>
</g>
<g clip-path="url(#clip-3)">
<path fill="none" stroke-width="4" stroke-linecap="butt" stroke-linejoin="miter" stroke="rgb(100%, 100%, 100%)" stroke-opacity="1" stroke-miterlimit="4" d="M 38.350877 306.88118 L 466.38118 306.88118 L 432.808612 272.989633 L 4.778309 272.989633 Z M 38.350877 306.88118 " transform="matrix(0.0979688, 0, 0, -0.0979688, 0.0475, 30.713203)"/>
</g>
<g clip-path="url(#clip-4)">
<path fill-rule="nonzero" fill="rgb(3.115845%, 49.784851%, 74.839783%)" fill-opacity="1" d="M 45.636719 25.273438 L 42.351562 30.078125 L 42.351562 3.796875 L 45.636719 0.480469 L 45.636719 25.273438 "/>
</g>
<g clip-path="url(#clip-5)">
<path fill="none" stroke-width="4" stroke-linecap="butt" stroke-linejoin="miter" stroke="rgb(100%, 100%, 100%)" stroke-opacity="1" stroke-miterlimit="4" d="M 465.344498 55.525518 L 431.811802 6.482456 L 431.811802 274.744019 L 465.344498 308.595694 Z M 465.344498 55.525518 " transform="matrix(0.0979688, 0, 0, -0.0979688, 0.0475, 30.713203)"/>
</g>
<path fill-rule="nonzero" fill="rgb(100%, 100%, 100%)" fill-opacity="1" d="M 19.90625 21.6875 L 22.890625 19.5 C 19.949219 19.46875 18.457031 19.554688 16.519531 19.691406 C 15.585938 22.539062 15.601562 23.292969 14.65625 25.199219 L 16.96875 23.835938 C 19.203125 25.511719 21.945312 25.925781 24.273438 25.0625 C 24.339844 25.015625 24.410156 24.972656 24.476562 24.925781 L 28.230469 22.179688 C 25.832031 23.933594 22.445312 23.765625 19.90625 21.6875 "/>
<path fill="none" stroke-width="1.919" stroke-linecap="butt" stroke-linejoin="miter" stroke="rgb(13.729858%, 12.159729%, 12.548828%)" stroke-opacity="1" stroke-miterlimit="4" d="M 202.704944 92.128389 L 233.167464 114.456938 C 203.143541 114.775917 187.912281 113.898724 168.135566 112.50319 C 158.606061 83.436204 158.76555 75.740829 149.116427 56.283094 L 172.720893 70.198565 C 195.527911 53.093301 223.518341 48.866826 247.282297 57.678628 C 247.960128 58.157097 248.677831 58.595694 249.355662 59.074163 L 287.673046 87.104466 C 263.191388 69.201754 228.62201 70.916268 202.704944 92.128389 Z M 202.704944 92.128389 " transform="matrix(0.0979688, 0, 0, -0.0979688, 0.0475, 30.713203)"/>
<path fill-rule="nonzero" fill="rgb(100%, 100%, 100%)" fill-opacity="1" d="M 17.261719 17.792969 C 16.484375 15.347656 16.894531 12.652344 18.558594 10.75 C 18.871094 10.390625 19.21875 10.074219 19.582031 9.804688 L 15.832031 12.554688 C 15.460938 12.824219 15.121094 13.136719 14.804688 13.496094 C 13.152344 15.382812 12.742188 18.046875 13.488281 20.472656 L 17.261719 17.792969 "/>
<path fill="none" stroke-width="1.919" stroke-linecap="butt" stroke-linejoin="miter" stroke="rgb(13.729858%, 12.159729%, 12.548828%)" stroke-opacity="1" stroke-miterlimit="4" d="M 175.711324 131.88118 C 167.776715 156.841308 171.963317 184.35327 188.948963 203.771132 C 192.138756 207.439394 195.6874 210.669059 199.395534 213.420255 L 161.118022 185.35008 C 157.330144 182.598884 153.861244 179.409091 150.631579 175.740829 C 133.76555 156.482456 129.578947 129.289474 137.194577 104.528708 Z M 175.711324 131.88118 " transform="matrix(0.0979688, 0, 0, -0.0979688, 0.0475, 30.713203)"/>
<path fill-rule="nonzero" fill="rgb(100%, 100%, 100%)" fill-opacity="1" d="M 24.664062 9.734375 C 23.160156 9.171875 21.570312 9.078125 20.101562 9.46875 C 19.925781 9.570312 19.753906 9.683594 19.582031 9.804688 L 15.832031 12.554688 C 17.550781 11.292969 19.78125 11.03125 21.84375 11.742188 L 19.78125 13.207031 L 26.152344 13.074219 L 26.574219 8.378906 L 24.664062 9.734375 "/>
<path fill="none" stroke-width="1.919" stroke-linecap="butt" stroke-linejoin="miter" stroke="rgb(13.729858%, 12.159729%, 12.548828%)" stroke-opacity="1" stroke-miterlimit="4" d="M 251.269537 214.137959 C 235.91866 219.879585 219.69059 220.836523 204.698565 216.849282 C 202.904306 215.8126 201.14992 214.6563 199.395534 213.420255 L 161.118022 185.35008 C 178.661882 198.228868 201.429027 200.900319 222.481659 193.643541 L 201.429027 178.691388 L 266.460925 180.047049 L 270.767145 227.973684 Z M 251.269537 214.137959 " transform="matrix(0.0979688, 0, 0, -0.0979688, 0.0475, 30.713203)"/>
<path fill-rule="nonzero" fill="rgb(100%, 100%, 100%)" fill-opacity="1" d="M 29.453125 11.578125 C 31.816406 15.417969 30.9375 19.238281 29.253906 21.238281 C 28.9375 21.597656 28.597656 21.910156 28.230469 22.179688 L 24.476562 24.925781 C 24.847656 24.65625 25.1875 24.34375 25.503906 23.984375 C 28.558594 20.335938 26.765625 16.703125 25.808594 14.308594 L 29.453125 11.578125 "/>
<path fill="none" stroke-width="1.919" stroke-linecap="butt" stroke-linejoin="miter" stroke="rgb(13.729858%, 12.159729%, 12.548828%)" stroke-opacity="1" stroke-miterlimit="4" d="M 300.15311 195.318182 C 324.275917 156.123604 315.304625 117.128389 298.119617 96.713716 C 294.889952 93.045455 291.421053 89.855662 287.673046 87.104466 L 249.355662 59.074163 C 253.143541 61.825359 256.61244 65.015152 259.842105 68.683413 C 291.022329 105.924242 272.720893 143.005582 262.952153 167.447368 Z M 300.15311 195.318182 " transform="matrix(0.0979688, 0, 0, -0.0979688, 0.0475, 30.713203)"/>
<path fill-rule="nonzero" fill="rgb(100%, 100%, 100%)" fill-opacity="1" d="M 8.5625 18.40625 L 2.300781 18.34375 L 2.300781 17.148438 L 8.5625 17.144531 L 8.5625 15.28125 L 12.1875 17.742188 L 8.5625 20.203125 L 8.5625 18.40625 "/>
<path fill-rule="nonzero" fill="rgb(100%, 100%, 100%)" fill-opacity="1" d="M 35.308594 18.40625 L 41.574219 18.34375 L 41.574219 17.148438 L 35.308594 17.144531 L 35.308594 15.28125 L 31.683594 17.742188 L 35.308594 20.203125 L 35.308594 18.40625 "/>
</svg>
