<?xml version="1.0" encoding="UTF-8"?>
<svg xmlns="http://www.w3.org/2000/svg" xmlns:xlink="http://www.w3.org/1999/xlink" width="37.16" height="25.18" viewBox="0 0 37.16 25.18">
<defs>
<clipPath id="clip-0">
<path clip-rule="nonzero" d="M 0.179688 7 L 36 7 L 36 24.289062 L 0.179688 24.289062 Z M 0.179688 7 "/>
</clipPath>
<clipPath id="clip-1">
<path clip-rule="nonzero" d="M 0.179688 4 L 36.011719 4 L 36.011719 24.289062 L 0.179688 24.289062 Z M 0.179688 4 "/>
</clipPath>
<clipPath id="clip-2">
<path clip-rule="nonzero" d="M 0.179688 0 L 36 0 L 36 15 L 0.179688 15 Z M 0.179688 0 "/>
</clipPath>
<clipPath id="clip-3">
<path clip-rule="nonzero" d="M 0.179688 0 L 36.011719 0 L 36.011719 17 L 0.179688 17 Z M 0.179688 0 "/>
</clipPath>
</defs>
<g clip-path="url(#clip-0)">
<path fill-rule="nonzero" fill="rgb(3.115845%, 49.784851%, 74.839783%)" fill-opacity="1" d="M 36 7.117188 C 36 10.945312 28.023438 14.046875 18.1875 14.046875 C 8.347656 14.046875 0.371094 10.945312 0.371094 7.117188 L 0.371094 17.265625 C 0.371094 21.089844 8.347656 24.191406 18.1875 24.191406 C 28.023438 24.191406 36 21.089844 36 17.265625 L 36 7.117188 "/>
</g>
<g clip-path="url(#clip-1)">
<path fill="none" stroke-width="4" stroke-linecap="butt" stroke-linejoin="miter" stroke="rgb(100%, 100%, 100%)" stroke-opacity="1" stroke-miterlimit="4" d="M 369.872915 178.310375 C 369.872915 138.782476 287.50968 106.756811 185.94718 106.756811 C 84.344346 106.756811 1.981111 138.782476 1.981111 178.310375 L 1.981111 73.521108 C 1.981111 34.033543 84.344346 2.007878 185.94718 2.007878 C 287.50968 2.007878 369.872915 34.033543 369.872915 73.521108 Z M 369.872915 178.310375 " transform="matrix(0.0968462, 0, 0, -0.0968462, 0.179231, 24.385862)"/>
</g>
<g clip-path="url(#clip-2)">
<path fill-rule="nonzero" fill="rgb(3.115845%, 49.784851%, 74.839783%)" fill-opacity="1" d="M 18.1875 14.046875 C 28.023438 14.046875 36 10.945312 36 7.117188 C 36 3.292969 28.023438 0.191406 18.1875 0.191406 C 8.347656 0.191406 0.371094 3.292969 0.371094 7.117188 C 0.371094 10.945312 8.347656 14.046875 18.1875 14.046875 "/>
</g>
<g clip-path="url(#clip-3)">
<path fill="none" stroke-width="4" stroke-linecap="butt" stroke-linejoin="miter" stroke="rgb(100%, 100%, 100%)" stroke-opacity="1" stroke-miterlimit="4" d="M 185.94718 106.756811 C 287.50968 106.756811 369.872915 138.782476 369.872915 178.310375 C 369.872915 217.79794 287.50968 249.823605 185.94718 249.823605 C 84.344346 249.823605 1.981111 217.79794 1.981111 178.310375 C 1.981111 138.782476 84.344346 106.756811 185.94718 106.756811 Z M 185.94718 106.756811 " transform="matrix(0.0968462, 0, 0, -0.0968462, 0.179231, 24.385862)"/>
</g>
<path fill-rule="nonzero" fill="rgb(100%, 100%, 100%)" fill-opacity="1" d="M 14.117188 4.410156 L 15.589844 6.617188 L 10.027344 7.902344 L 11.242188 6.890625 L 2.648438 5.421875 L 4.804688 3.804688 L 13.097656 5.210938 L 14.117188 4.410156 "/>
<path fill-rule="nonzero" fill="rgb(100%, 100%, 100%)" fill-opacity="1" d="M 21.941406 9.761719 L 20.9375 7.484375 L 25.953125 6.484375 L 25.085938 7.261719 L 33.445312 8.691406 L 31.4375 10.296875 L 23.128906 8.734375 L 21.941406 9.761719 "/>
<path fill-rule="nonzero" fill="rgb(100%, 100%, 100%)" fill-opacity="1" d="M 19.199219 3.207031 L 24.816406 1.667969 L 24.886719 4.074219 L 23.480469 3.808594 L 20.738281 6.082031 L 18.121094 5.699219 L 20.953125 3.476562 L 19.199219 3.207031 "/>
<path fill-rule="nonzero" fill="rgb(100%, 100%, 100%)" fill-opacity="1" d="M 16.792969 11.832031 L 11.441406 12.835938 L 11.242188 10.363281 L 12.78125 10.695312 L 15.726562 8.183594 L 18.332031 8.625 L 15.1875 11.367188 L 16.792969 11.832031 "/>
<path fill-rule="nonzero" fill="rgb(100%, 100%, 100%)" fill-opacity="1" d="M 17.296875 19.125 L 22.488281 19.125 L 22.488281 20.003906 L 24.445312 18.707031 L 22.488281 17.40625 L 22.488281 18.289062 L 17.296875 18.289062 L 17.296875 19.125 "/>
<path fill-rule="nonzero" fill="rgb(100%, 100%, 100%)" fill-opacity="1" d="M 17.179688 17.683594 L 22.054688 15.910156 L 22.355469 16.738281 L 23.75 14.847656 L 21.464844 14.296875 L 21.769531 15.125 L 16.890625 16.898438 L 17.179688 17.683594 "/>
<path fill-rule="nonzero" fill="rgb(100%, 100%, 100%)" fill-opacity="1" d="M 17.179688 19.695312 L 22.054688 21.472656 L 22.355469 20.644531 L 23.75 22.535156 L 21.464844 23.085938 L 21.769531 22.257812 L 16.890625 20.484375 L 17.179688 19.695312 "/>
<path fill-rule="nonzero" fill="rgb(100%, 100%, 100%)" fill-opacity="1" d="M 9.253906 19.125 L 14.253906 19.125 L 14.253906 20.003906 L 16.214844 18.707031 L 14.253906 17.40625 L 14.253906 18.289062 L 9.253906 18.289062 L 9.253906 19.125 "/>
</svg>
