<?xml version="1.0" encoding="UTF-8"?>
<svg xmlns="http://www.w3.org/2000/svg" xmlns:xlink="http://www.w3.org/1999/xlink" width="45.34" height="31.25" viewBox="0 0 45.34 31.25">
<defs>
<clipPath id="clip-0">
<path clip-rule="nonzero" d="M 0.210938 8 L 36 8 L 36 30 L 0.210938 30 Z M 0.210938 8 "/>
</clipPath>
<clipPath id="clip-1">
<path clip-rule="nonzero" d="M 0.210938 0.046875 L 44.15625 0.046875 L 44.15625 9 L 0.210938 9 Z M 0.210938 0.046875 "/>
</clipPath>
<clipPath id="clip-2">
<path clip-rule="nonzero" d="M 0.210938 0.046875 L 44.15625 0.046875 L 44.15625 11 L 0.210938 11 Z M 0.210938 0.046875 "/>
</clipPath>
<clipPath id="clip-3">
<path clip-rule="nonzero" d="M 35 0.046875 L 44 0.046875 L 44 30 L 35 30 Z M 35 0.046875 "/>
</clipPath>
<clipPath id="clip-4">
<path clip-rule="nonzero" d="M 33 0.046875 L 44.15625 0.046875 L 44.15625 30.320312 L 33 30.320312 Z M 33 0.046875 "/>
</clipPath>
</defs>
<g clip-path="url(#clip-0)">
<path fill-rule="nonzero" fill="rgb(3.292847%, 48.297119%, 73.150635%)" fill-opacity="1" d="M 0.875 29.644531 L 35.761719 29.644531 L 35.761719 8.554688 L 0.875 8.554688 Z M 0.875 29.644531 "/>
<path fill="none" stroke-width="3.99994" stroke-linecap="butt" stroke-linejoin="miter" stroke="rgb(100%, 100%, 100%)" stroke-opacity="1" stroke-miterlimit="4" d="M 364.0592 8.94 L 364.0592 224.9 L 6.8192 224.9 L 6.8192 8.94 Z M 364.0592 8.94 " transform="matrix(0.0976562, 0, 0, -0.0976562, 0.209062, 30.517578)"/>
</g>
<g clip-path="url(#clip-1)">
<path fill-rule="nonzero" fill="rgb(3.292847%, 48.297119%, 73.150635%)" fill-opacity="1" d="M 0.785156 8.613281 L 11.457031 0.449219 L 44.007812 0.449219 L 35.726562 8.613281 L 0.785156 8.613281 "/>
</g>
<g clip-path="url(#clip-2)">
<path fill="none" stroke-width="3.99994" stroke-linecap="butt" stroke-linejoin="miter" stroke="rgb(100%, 100%, 100%)" stroke-opacity="1" stroke-miterlimit="4" d="M 5.8992 224.3 L 115.1792 307.9 L 448.4992 307.9 L 363.6992 224.3 Z M 5.8992 224.3 " transform="matrix(0.0976562, 0, 0, -0.0976562, 0.209062, 30.517578)"/>
</g>
<g clip-path="url(#clip-3)">
<path fill-rule="nonzero" fill="rgb(3.292847%, 48.297119%, 73.150635%)" fill-opacity="1" d="M 35.738281 30 L 43.972656 20.667969 L 43.984375 0.46875 L 35.738281 8.597656 L 35.738281 30 "/>
</g>
<g clip-path="url(#clip-4)">
<path fill="none" stroke-width="3.99994" stroke-linecap="butt" stroke-linejoin="miter" stroke="rgb(100%, 100%, 100%)" stroke-opacity="1" stroke-miterlimit="4" d="M 363.8192 5.3 L 448.1392 100.86 L 448.2592 307.7 L 363.8192 224.46 Z M 363.8192 5.3 " transform="matrix(0.0976562, 0, 0, -0.0976562, 0.209062, 30.517578)"/>
</g>
<path fill-rule="nonzero" fill="rgb(100%, 100%, 100%)" fill-opacity="1" d="M 14.378906 16.175781 C 15.183594 12.9375 13.113281 11.226562 11.320312 11.496094 L 11.21875 11.519531 C 10.683594 8.996094 6.960938 9.65625 6.960938 10.867188 L 6.964844 10.984375 C 5.214844 10.679688 3.433594 13.632812 4.324219 15.277344 L 4.46875 15.382812 C 2.894531 15.96875 2.628906 18.054688 2.566406 20.113281 C 2.507812 21.902344 2.683594 22.945312 3.664062 23.710938 L 3.621094 23.828125 C 3.332031 26.6875 5.800781 27.988281 7.574219 27.363281 L 7.628906 27.515625 C 7.949219 28.492188 10.761719 28.605469 11.179688 26.933594 L 11.285156 26.964844 C 13.117188 27.691406 14.84375 25.976562 14.519531 23.601562 L 14.625 23.4375 C 16.550781 21.738281 16.238281 16.84375 14.332031 16.273438 L 14.378906 16.175781 "/>
<path fill-rule="nonzero" fill="rgb(100%, 100%, 100%)" fill-opacity="1" d="M 32.089844 16.175781 C 32.898438 12.9375 30.824219 11.226562 29.03125 11.496094 L 28.933594 11.519531 C 28.394531 8.996094 24.671875 9.65625 24.671875 10.867188 L 24.675781 10.984375 C 22.925781 10.679688 21.144531 13.632812 22.035156 15.277344 L 22.179688 15.382812 C 20.605469 15.96875 20.34375 18.054688 20.277344 20.113281 C 20.21875 21.902344 20.394531 22.945312 21.375 23.710938 L 21.332031 23.828125 C 21.042969 26.6875 23.511719 27.988281 25.285156 27.363281 L 25.339844 27.515625 C 25.660156 28.492188 28.472656 28.605469 28.890625 26.933594 L 29 26.964844 C 30.828125 27.691406 32.554688 25.976562 32.230469 23.601562 L 32.335938 23.4375 C 34.261719 21.738281 33.949219 16.84375 32.046875 16.273438 L 32.089844 16.175781 "/>
<path fill-rule="nonzero" fill="rgb(3.292847%, 48.297119%, 73.150635%)" fill-opacity="1" d="M 10.191406 16.453125 L 8.183594 14.445312 L 7.199219 15.429688 L 6.984375 12.394531 L 10.0625 12.566406 L 8.996094 13.632812 L 11.003906 15.640625 L 10.191406 16.453125 "/>
<path fill-rule="nonzero" fill="rgb(3.292847%, 48.297119%, 73.150635%)" fill-opacity="1" d="M 10.191406 22.378906 L 8.183594 24.386719 L 7.199219 23.40625 L 6.984375 26.441406 L 10.0625 26.269531 L 8.996094 25.199219 L 11.003906 23.195312 L 10.191406 22.378906 "/>
<path fill-rule="nonzero" fill="rgb(3.292847%, 48.297119%, 73.150635%)" fill-opacity="1" d="M 8.238281 20.039062 L 5.398438 20.039062 L 5.398438 21.429688 L 3.101562 19.433594 L 5.398438 17.378906 L 5.398438 18.890625 L 8.238281 18.890625 L 8.238281 20.039062 "/>
<path fill-rule="nonzero" fill="rgb(3.292847%, 48.297119%, 73.150635%)" fill-opacity="1" d="M 26.363281 16.453125 L 28.371094 14.445312 L 29.355469 15.429688 L 29.566406 12.394531 L 26.492188 12.566406 L 27.558594 13.632812 L 25.550781 15.640625 L 26.363281 16.453125 "/>
<path fill-rule="nonzero" fill="rgb(3.292847%, 48.297119%, 73.150635%)" fill-opacity="1" d="M 26.363281 22.378906 L 28.371094 24.386719 L 29.355469 23.40625 L 29.566406 26.441406 L 26.492188 26.269531 L 27.558594 25.199219 L 25.550781 23.195312 L 26.363281 22.378906 "/>
<path fill-rule="nonzero" fill="rgb(3.292847%, 48.297119%, 73.150635%)" fill-opacity="1" d="M 27.988281 20.039062 L 30.828125 20.039062 L 30.828125 21.429688 L 33.125 19.433594 L 30.828125 17.378906 L 30.828125 18.890625 L 27.988281 18.890625 L 27.988281 20.039062 "/>
<path fill-rule="nonzero" fill="rgb(100%, 100%, 100%)" fill-opacity="1" d="M 15.277344 20.070312 L 20.910156 20.070312 L 20.910156 18.925781 L 15.277344 18.925781 Z M 15.277344 20.070312 "/>
<path fill-rule="nonzero" fill="rgb(3.292847%, 48.297119%, 73.150635%)" fill-opacity="1" d="M 20.179688 20.039062 L 23.015625 20.039062 L 23.015625 21.429688 L 25.3125 19.433594 L 23.015625 17.378906 L 23.015625 18.890625 L 20.179688 18.890625 L 20.179688 20.039062 "/>
<path fill-rule="nonzero" fill="rgb(3.292847%, 48.297119%, 73.150635%)" fill-opacity="1" d="M 15.820312 20.039062 L 12.980469 20.039062 L 12.980469 21.429688 L 10.683594 19.433594 L 12.980469 17.378906 L 12.980469 18.890625 L 15.820312 18.890625 L 15.820312 20.039062 "/>
</svg>
