<?xml version="1.0" encoding="UTF-8"?>
<svg xmlns="http://www.w3.org/2000/svg" xmlns:xlink="http://www.w3.org/1999/xlink" width="43.53" height="31.59" viewBox="0 0 43.53 31.59">
<defs>
<clipPath id="clip-0">
<path clip-rule="nonzero" d="M 0.046875 5 L 39 5 L 39 31 L 0.046875 31 Z M 0.046875 5 "/>
</clipPath>
<clipPath id="clip-1">
<path clip-rule="nonzero" d="M 36 0 L 43.019531 0 L 43.019531 31.183594 L 36 31.183594 Z M 36 0 "/>
</clipPath>
<clipPath id="clip-2">
<path clip-rule="nonzero" d="M 0.046875 0 L 43 0 L 43 6 L 0.046875 6 Z M 0.046875 0 "/>
</clipPath>
<clipPath id="clip-3">
<path clip-rule="nonzero" d="M 0.046875 0 L 43.019531 0 L 43.019531 9 L 0.046875 9 Z M 0.046875 0 "/>
</clipPath>
</defs>
<g clip-path="url(#clip-0)">
<path fill-rule="nonzero" fill="rgb(3.292847%, 48.297119%, 73.150635%)" fill-opacity="1" stroke-width="3.99994" stroke-linecap="butt" stroke-linejoin="miter" stroke="rgb(100%, 100%, 100%)" stroke-opacity="1" stroke-miterlimit="4" d="M 5.658436 6.466635 L 387.147832 6.466635 L 387.147832 257.099747 L 5.658436 257.099747 Z M 5.658436 6.466635 " transform="matrix(0.0987188, 0, 0, -0.0987188, 0.046875, 31.185253)"/>
</g>
<path fill-rule="nonzero" fill="rgb(3.292847%, 48.297119%, 73.150635%)" fill-opacity="1" d="M 42.597656 24.210938 L 38.265625 30.546875 L 38.265625 5.804688 L 42.597656 0.550781 L 42.597656 24.210938 "/>
<g clip-path="url(#clip-1)">
<path fill="none" stroke-width="3.99994" stroke-linecap="butt" stroke-linejoin="miter" stroke="rgb(100%, 100%, 100%)" stroke-opacity="1" stroke-miterlimit="4" d="M 431.030389 70.648338 L 387.147832 6.466635 L 387.147832 257.099747 L 431.030389 310.320703 Z M 431.030389 70.648338 " transform="matrix(0.0987188, 0, 0, -0.0987188, 0.046875, 31.185253)"/>
</g>
<g clip-path="url(#clip-2)">
<path fill-rule="nonzero" fill="rgb(3.292847%, 48.297119%, 73.150635%)" fill-opacity="1" d="M 7.105469 0.550781 L 42.597656 0.550781 L 38.265625 5.804688 L 0.605469 5.804688 L 7.105469 0.550781 "/>
</g>
<g clip-path="url(#clip-3)">
<path fill="none" stroke-width="3.99994" stroke-linecap="butt" stroke-linejoin="miter" stroke="rgb(100%, 100%, 100%)" stroke-opacity="1" stroke-miterlimit="4" d="M 71.502058 310.320703 L 431.030389 310.320703 L 387.147832 257.099747 L 5.658436 257.099747 Z M 71.502058 310.320703 " transform="matrix(0.0987188, 0, 0, -0.0987188, 0.046875, 31.185253)"/>
</g>
<path fill-rule="nonzero" fill="rgb(100%, 100%, 100%)" fill-opacity="1" d="M 9.070312 12.308594 L 2.761719 12.3125 L 2.761719 11.308594 L 9.070312 11.304688 L 9.070312 9.742188 L 12.722656 11.808594 L 9.070312 13.875 L 9.070312 12.308594 "/>
<path fill-rule="nonzero" fill="rgb(100%, 100%, 100%)" fill-opacity="1" d="M 9.070312 18.5625 L 2.761719 18.566406 L 2.761719 17.5625 L 9.070312 17.558594 L 9.070312 15.992188 L 12.722656 18.0625 L 9.070312 20.128906 L 9.070312 18.5625 "/>
<path fill-rule="nonzero" fill="rgb(100%, 100%, 100%)" fill-opacity="1" d="M 9.070312 24.8125 L 2.761719 24.816406 L 2.761719 23.816406 L 9.070312 23.8125 L 9.070312 22.246094 L 12.722656 24.3125 L 9.070312 26.382812 L 9.070312 24.8125 "/>
<path fill-rule="nonzero" fill="rgb(100%, 100%, 100%)" fill-opacity="1" d="M 30.105469 17.738281 L 36.414062 17.734375 L 36.414062 18.734375 L 30.105469 18.738281 L 30.105469 20.304688 L 26.453125 18.238281 L 30.105469 16.171875 L 30.105469 17.738281 "/>
<path fill-rule="nonzero" fill="rgb(100%, 100%, 100%)" fill-opacity="1" d="M 25.039062 14.621094 C 25.039062 15.46875 22.769531 16.15625 19.96875 16.15625 C 17.171875 16.15625 14.902344 15.46875 14.902344 14.621094 L 14.902344 20.972656 C 14.902344 21.824219 17.171875 22.507812 19.96875 22.507812 C 22.769531 22.507812 25.039062 21.824219 25.039062 20.972656 L 25.039062 14.621094 "/>
<path fill-rule="nonzero" fill="rgb(3.292847%, 48.297119%, 73.150635%)" fill-opacity="1" d="M 19.964844 16.15625 C 22.765625 16.15625 25.035156 15.46875 25.035156 14.621094 C 25.035156 13.773438 22.765625 13.085938 19.964844 13.085938 C 17.164062 13.085938 14.894531 13.773438 14.894531 14.621094 C 14.894531 15.46875 17.164062 16.15625 19.964844 16.15625 "/>
<path fill="none" stroke-width="8.00003" stroke-linecap="butt" stroke-linejoin="miter" stroke="rgb(100%, 100%, 100%)" stroke-opacity="1" stroke-miterlimit="4" d="M 201.764799 152.240614 C 230.136119 152.240614 253.125989 159.204843 253.125989 167.791421 C 253.125989 176.377999 230.136119 183.342229 201.764799 183.342229 C 173.393479 183.342229 150.403609 176.377999 150.403609 167.791421 C 150.403609 159.204843 173.393479 152.240614 201.764799 152.240614 Z M 201.764799 152.240614 " transform="matrix(0.0987188, 0, 0, -0.0987188, 0.046875, 31.185253)"/>
<path fill-rule="nonzero" fill="rgb(100%, 100%, 100%)" fill-opacity="1" d="M 19.96875 23.265625 C 22.769531 23.265625 25.039062 22.578125 25.039062 21.730469 C 25.039062 20.878906 22.769531 20.191406 19.96875 20.191406 C 17.171875 20.191406 14.902344 20.878906 14.902344 21.730469 C 14.902344 22.578125 17.171875 23.265625 19.96875 23.265625 "/>
<path fill="none" stroke-width="8.00003" stroke-linecap="butt" stroke-linejoin="miter" stroke="rgb(100%, 100%, 100%)" stroke-opacity="1" stroke-miterlimit="4" d="M 201.804368 80.224153 C 230.175689 80.224153 253.165559 87.188382 253.165559 95.77496 C 253.165559 104.401108 230.175689 111.365337 201.804368 111.365337 C 173.472618 111.365337 150.482748 104.401108 150.482748 95.77496 C 150.482748 87.188382 173.472618 80.224153 201.804368 80.224153 Z M 201.804368 80.224153 " transform="matrix(0.0987188, 0, 0, -0.0987188, 0.046875, 31.185253)"/>
</svg>
