<?xml version="1.0" encoding="UTF-8"?>
<svg xmlns="http://www.w3.org/2000/svg" xmlns:xlink="http://www.w3.org/1999/xlink" width="36.43" height="24.28" viewBox="0 0 36.43 24.28">
<defs>
<clipPath id="clip-0">
<path clip-rule="nonzero" d="M 0.246094 5 L 32 5 L 32 23 L 0.246094 23 Z M 0.246094 5 "/>
</clipPath>
<clipPath id="clip-1">
<path clip-rule="nonzero" d="M 0.246094 4 L 32 4 L 32 23.582031 L 0.246094 23.582031 Z M 0.246094 4 "/>
</clipPath>
<clipPath id="clip-2">
<path clip-rule="nonzero" d="M 31 0 L 35.628906 0 L 35.628906 23 L 31 23 Z M 31 0 "/>
</clipPath>
<clipPath id="clip-3">
<path clip-rule="nonzero" d="M 29 0 L 35.628906 0 L 35.628906 23.582031 L 29 23.582031 Z M 29 0 "/>
</clipPath>
<clipPath id="clip-4">
<path clip-rule="nonzero" d="M 0.246094 0 L 35.628906 0 L 35.628906 6 L 0.246094 6 Z M 0.246094 0 "/>
</clipPath>
<clipPath id="clip-5">
<path clip-rule="nonzero" d="M 0.246094 0 L 35.628906 0 L 35.628906 8 L 0.246094 8 Z M 0.246094 0 "/>
</clipPath>
<clipPath id="clip-6">
<path clip-rule="nonzero" d="M 24 17 L 31 17 L 31 23.582031 L 24 23.582031 Z M 24 17 "/>
</clipPath>
<clipPath id="clip-7">
<path clip-rule="nonzero" d="M 24 17 L 31 17 L 31 23.582031 L 24 23.582031 Z M 24 17 "/>
</clipPath>
<clipPath id="clip-8">
<path clip-rule="nonzero" d="M 18 13 L 31 13 L 31 23.582031 L 18 23.582031 Z M 18 13 "/>
</clipPath>
</defs>
<g clip-path="url(#clip-0)">
<path fill-rule="nonzero" fill="rgb(3.292847%, 48.298645%, 73.153687%)" fill-opacity="1" d="M 0.796875 22.953125 L 31.535156 22.953125 L 31.535156 5.007812 L 0.796875 5.007812 L 0.796875 22.953125 "/>
</g>
<g clip-path="url(#clip-1)">
<path fill="none" stroke-width="4" stroke-linecap="butt" stroke-linejoin="miter" stroke="rgb(100%, 100%, 100%)" stroke-opacity="1" stroke-miterlimit="4" d="M 5.653573 6.462222 L 322.151526 6.462222 L 322.151526 191.236856 L 5.653573 191.236856 Z M 5.653573 6.462222 " transform="matrix(0.09712, 0, 0, -0.09712, 0.2478, 23.580736)"/>
</g>
<g clip-path="url(#clip-2)">
<path fill-rule="nonzero" fill="rgb(3.292847%, 48.298645%, 73.153687%)" fill-opacity="1" d="M 35.21875 17.566406 L 31.535156 22.953125 L 31.535156 5.007812 L 35.21875 0.542969 L 35.21875 17.566406 "/>
</g>
<g clip-path="url(#clip-3)">
<path fill="none" stroke-width="4" stroke-linecap="butt" stroke-linejoin="miter" stroke="rgb(100%, 100%, 100%)" stroke-opacity="1" stroke-miterlimit="4" d="M 360.079798 61.926789 L 322.151526 6.462222 L 322.151526 191.236856 L 360.079798 237.2093 Z M 360.079798 61.926789 " transform="matrix(0.09712, 0, 0, -0.09712, 0.2478, 23.580736)"/>
</g>
<g clip-path="url(#clip-4)">
<path fill-rule="nonzero" fill="rgb(3.292847%, 48.298645%, 73.153687%)" fill-opacity="1" d="M 6.320312 0.542969 L 35.21875 0.542969 L 31.535156 5.007812 L 0.796875 5.007812 L 6.320312 0.542969 "/>
</g>
<g clip-path="url(#clip-5)">
<path fill="none" stroke-width="4" stroke-linecap="butt" stroke-linejoin="miter" stroke="rgb(100%, 100%, 100%)" stroke-opacity="1" stroke-miterlimit="4" d="M 62.52587 237.2093 L 360.079798 237.2093 L 322.151526 191.236856 L 5.653573 191.236856 Z M 62.52587 237.2093 " transform="matrix(0.09712, 0, 0, -0.09712, 0.2478, 23.580736)"/>
</g>
<path fill-rule="nonzero" fill="rgb(100%, 100%, 100%)" fill-opacity="1" d="M 23.742188 13.859375 L 28 13.859375 L 28.035156 14.8125 L 30.207031 13.429688 L 28.035156 11.972656 L 28 13.003906 L 23.703125 13.003906 L 23.742188 13.859375 "/>
<path fill-rule="nonzero" fill="rgb(100%, 100%, 100%)" fill-opacity="1" d="M 27.375 21.058594 C 26.949219 21.152344 26.53125 20.882812 26.433594 20.457031 C 26.34375 20.035156 26.609375 19.613281 27.035156 19.519531 C 27.460938 19.425781 27.882812 19.695312 27.976562 20.117188 C 28.070312 20.542969 27.800781 20.964844 27.375 21.058594 "/>
<g clip-path="url(#clip-6)">
<path fill="none" stroke-width="3.8" stroke-linecap="butt" stroke-linejoin="miter" stroke="rgb(0%, 0%, 0%)" stroke-opacity="1" stroke-miterlimit="4" d="M 279.31631 25.969339 C 274.932236 25.004039 270.628604 27.779278 269.623082 32.163352 C 268.698002 36.507205 271.433021 40.851058 275.817095 41.816359 C 280.201169 42.781659 284.545022 40.00642 285.510322 35.662567 C 286.475623 31.278493 283.700384 26.93464 279.31631 25.969339 Z M 279.31631 25.969339 " transform="matrix(0.09712, 0, 0, -0.09712, 0.2478, 23.580736)"/>
</g>
<path fill-rule="nonzero" fill="rgb(100%, 100%, 100%)" fill-opacity="1" d="M 28.730469 21.027344 C 28.730469 21.664062 28.214844 22.183594 27.574219 22.183594 C 26.9375 22.183594 26.421875 21.664062 26.421875 21.027344 C 26.421875 20.390625 26.9375 19.875 27.574219 19.875 C 28.214844 19.875 28.730469 20.390625 28.730469 21.027344 "/>
<g clip-path="url(#clip-7)">
<path fill="none" stroke-width="3.8" stroke-linecap="butt" stroke-linejoin="miter" stroke="rgb(0%, 0%, 0%)" stroke-opacity="1" stroke-miterlimit="4" d="M 293.272948 26.291106 C 293.272948 19.735106 287.963795 14.385732 281.367574 14.385732 C 274.811573 14.385732 269.50242 19.735106 269.50242 26.291106 C 269.50242 32.847107 274.811573 38.15626 281.367574 38.15626 C 287.963795 38.15626 293.272948 32.847107 293.272948 26.291106 Z M 293.272948 26.291106 " transform="matrix(0.09712, 0, 0, -0.09712, 0.2478, 23.580736)"/>
</g>
<path fill-rule="nonzero" fill="rgb(100%, 100%, 100%)" fill-opacity="1" d="M 28.480469 20.074219 L 27.003906 22.328125 L 20.484375 18.058594 L 21.960938 15.800781 L 28.480469 20.074219 "/>
<g clip-path="url(#clip-8)">
<path fill="none" stroke-width="3.8" stroke-linecap="butt" stroke-linejoin="miter" stroke="rgb(0%, 0%, 0%)" stroke-opacity="1" stroke-miterlimit="4" d="M 290.698813 36.104996 L 275.495328 12.89756 L 208.366711 56.858961 L 223.570197 80.106618 Z M 290.698813 36.104996 " transform="matrix(0.09712, 0, 0, -0.09712, 0.2478, 23.580736)"/>
</g>
<path fill-rule="nonzero" fill="rgb(100%, 100%, 100%)" fill-opacity="1" d="M 13.960938 6.230469 C 9.980469 7.109375 7.457031 11.058594 8.335938 15.039062 C 9.210938 19.019531 13.164062 21.542969 17.144531 20.664062 C 21.121094 19.789062 23.644531 15.835938 22.769531 11.855469 C 21.890625 7.878906 17.941406 5.355469 13.960938 6.230469 "/>
<path fill="none" stroke-width="3.8" stroke-linecap="butt" stroke-linejoin="miter" stroke="rgb(0%, 0%, 0%)" stroke-opacity="1" stroke-miterlimit="4" d="M 141.197874 178.647727 C 100.212817 169.598033 74.230141 128.934743 83.279834 87.949686 C 92.289307 46.964629 132.992818 20.981953 173.977875 30.031646 C 214.922712 39.041119 240.905388 79.74463 231.895915 120.729687 C 222.846221 161.674524 182.182931 187.6572 141.197874 178.647727 Z M 141.197874 178.647727 " transform="matrix(0.09712, 0, 0, -0.09712, 0.2478, 23.580736)"/>
<path fill-rule="nonzero" fill="rgb(100%, 100%, 100%)" fill-opacity="1" d="M 8.078125 13.152344 L 5.894531 13.152344 L 5.933594 14.007812 L 8.308594 14.007812 "/>
<path fill-rule="nonzero" fill="rgb(100%, 100%, 100%)" fill-opacity="1" d="M 9.75 17.738281 L 6.632812 19.761719 L 7.132812 20.460938 L 10.332031 18.378906 "/>
<path fill-rule="nonzero" fill="rgb(100%, 100%, 100%)" fill-opacity="1" d="M 9.640625 8.675781 L 6.910156 6.902344 L 6.472656 7.640625 L 9.136719 9.367188 "/>
<path fill-rule="nonzero" fill="rgb(100%, 100%, 100%)" fill-opacity="1" d="M 16.917969 19.65625 C 13.496094 20.410156 10.097656 18.242188 9.34375 14.816406 C 8.589844 11.394531 10.761719 7.996094 14.183594 7.238281 C 17.605469 6.484375 21.003906 8.65625 21.757812 12.078125 C 22.515625 15.503906 20.34375 18.902344 16.917969 19.65625 "/>
<path fill="none" stroke-width="3.8" stroke-linecap="butt" stroke-linejoin="miter" stroke="rgb(0%, 0%, 0%)" stroke-opacity="1" stroke-miterlimit="4" d="M 171.645065 40.408629 C 136.411591 32.646002 101.419442 54.96858 93.656816 90.242275 C 85.89419 125.475749 108.256989 160.467898 143.490463 168.270745 C 178.723937 176.033371 213.716086 153.670572 221.478712 118.437098 C 229.281559 83.163404 206.91876 48.171255 171.645065 40.408629 Z M 171.645065 40.408629 " transform="matrix(0.09712, 0, 0, -0.09712, 0.2478, 23.580736)"/>
<path fill-rule="nonzero" fill="rgb(4.307556%, 4.307556%, 4.307556%)" fill-opacity="1" d="M 13.078125 8.589844 L 13.078125 18.382812 L 19.054688 14.1875 L 21.621094 14.1875 L 21.621094 12.789062 L 19.054688 12.789062 L 13.078125 8.589844 "/>
<path fill-rule="nonzero" fill="rgb(0%, 0%, 0%)" fill-opacity="1" d="M 8.175781 14.007812 L 10.769531 14.007812 L 10.800781 14.960938 L 12.972656 13.578125 L 10.800781 12.121094 L 10.769531 13.152344 L 8.078125 13.152344 "/>
<path fill-rule="nonzero" fill="rgb(0%, 0%, 0%)" fill-opacity="1" d="M 10.332031 18.378906 L 11.1875 17.824219 L 11.734375 18.605469 L 12.800781 16.261719 L 10.1875 16.222656 L 10.71875 17.105469 L 9.75 17.738281 "/>
<path fill-rule="nonzero" fill="rgb(0%, 0%, 0%)" fill-opacity="1" d="M 9.324219 9.367188 L 10.714844 10.273438 L 10.222656 11.089844 L 12.800781 11.113281 L 11.773438 8.707031 L 11.179688 9.554688 L 9.828125 8.675781 "/>
</svg>
