<?xml version="1.0" encoding="UTF-8"?>
<svg xmlns="http://www.w3.org/2000/svg" xmlns:xlink="http://www.w3.org/1999/xlink" width="31.13" height="41.56" viewBox="0 0 31.13 41.56">
<defs>
<clipPath id="clip-0">
<path clip-rule="nonzero" d="M 24 0.351562 L 30 0.351562 L 30 40.78125 L 24 40.78125 Z M 24 0.351562 "/>
</clipPath>
<clipPath id="clip-1">
<path clip-rule="nonzero" d="M 22 0.351562 L 30.285156 0.351562 L 30.285156 40.78125 L 22 40.78125 Z M 22 0.351562 "/>
</clipPath>
<clipPath id="clip-2">
<path clip-rule="nonzero" d="M 0 0.351562 L 30 0.351562 L 30 6 L 0 6 Z M 0 0.351562 "/>
</clipPath>
<clipPath id="clip-3">
<path clip-rule="nonzero" d="M 0 0.351562 L 30.285156 0.351562 L 30.285156 8 L 0 8 Z M 0 0.351562 "/>
</clipPath>
<clipPath id="clip-4">
<path clip-rule="nonzero" d="M 0 29 L 25 29 L 25 40.78125 L 0 40.78125 Z M 0 29 "/>
</clipPath>
<clipPath id="clip-5">
<path clip-rule="nonzero" d="M 0 32 L 12 32 L 12 40.78125 L 0 40.78125 Z M 0 32 "/>
</clipPath>
</defs>
<g clip-path="url(#clip-0)">
<path fill-rule="nonzero" fill="rgb(3.292847%, 48.298645%, 73.153687%)" fill-opacity="1" d="M 29.796875 35.585938 L 29.796875 0.808594 L 24.800781 5.550781 L 24.800781 40.328125 L 29.796875 35.585938 "/>
</g>
<g clip-path="url(#clip-1)">
<path fill="none" stroke-width="4" stroke-linecap="butt" stroke-linejoin="miter" stroke="rgb(100%, 100%, 100%)" stroke-opacity="1" stroke-miterlimit="4" d="M 306.296177 53.402763 L 306.296177 410.895535 L 254.938966 362.148346 L 254.938966 4.655573 Z M 306.296177 53.402763 " transform="matrix(0.0972813, 0, 0, -0.0972813, 0, 40.781025)"/>
</g>
<g clip-path="url(#clip-2)">
<path fill-rule="nonzero" fill="rgb(3.292847%, 48.298645%, 73.153687%)" fill-opacity="1" d="M 29.796875 0.808594 L 24.800781 5.550781 L 0.578125 5.550781 L 6.855469 0.808594 L 29.796875 0.808594 "/>
</g>
<g clip-path="url(#clip-3)">
<path fill="none" stroke-width="4" stroke-linecap="butt" stroke-linejoin="miter" stroke="rgb(100%, 100%, 100%)" stroke-opacity="1" stroke-miterlimit="4" d="M 306.296177 410.895535 L 254.938966 362.148346 L 5.94282 362.148346 L 70.470607 410.895535 Z M 306.296177 410.895535 " transform="matrix(0.0972813, 0, 0, -0.0972813, 0, 40.781025)"/>
</g>
<path fill-rule="nonzero" fill="rgb(3.292847%, 48.298645%, 73.153687%)" fill-opacity="1" d="M 24.800781 29.503906 L 24.800781 5.550781 L 0.578125 5.550781 L 0.578125 29.503906 L 24.800781 29.503906 "/>
<path fill="none" stroke-width="4" stroke-linecap="butt" stroke-linejoin="miter" stroke="rgb(100%, 100%, 100%)" stroke-opacity="1" stroke-miterlimit="4" d="M 254.938966 115.92284 L 254.938966 362.148346 L 5.94282 362.148346 L 5.94282 115.92284 Z M 254.938966 115.92284 " transform="matrix(0.0972813, 0, 0, -0.0972813, 0, 40.781025)"/>
<g clip-path="url(#clip-4)">
<path fill-rule="nonzero" fill="rgb(3.292847%, 48.298645%, 73.153687%)" fill-opacity="1" d="M 24.800781 40.328125 L 24.800781 29.75 L 0.578125 29.75 L 0.578125 40.328125 L 24.800781 40.328125 "/>
<path fill="none" stroke-width="4" stroke-linecap="butt" stroke-linejoin="miter" stroke="rgb(100%, 100%, 100%)" stroke-opacity="1" stroke-miterlimit="4" d="M 254.938966 4.655573 L 254.938966 113.393126 L 5.94282 113.393126 L 5.94282 4.655573 Z M 254.938966 4.655573 " transform="matrix(0.0972813, 0, 0, -0.0972813, 0, 40.781025)"/>
</g>
<path fill-rule="nonzero" fill="rgb(100%, 100%, 100%)" fill-opacity="1" d="M 10.53125 14.6875 L 6.847656 11.003906 L 7.472656 10.375 L 5.15625 9.910156 L 5.625 12.222656 L 6.25 11.597656 L 9.9375 15.28125 L 10.53125 14.6875 "/>
<path fill-rule="nonzero" fill="rgb(100%, 100%, 100%)" fill-opacity="1" d="M 9.183594 17.101562 L 3.972656 17.101562 L 3.972656 16.214844 L 2.003906 17.519531 L 3.972656 18.824219 L 3.972656 17.941406 L 9.183594 17.941406 L 9.183594 17.101562 "/>
<path fill-rule="nonzero" fill="rgb(100%, 100%, 100%)" fill-opacity="1" d="M 9.9375 19.757812 L 6.25 23.445312 L 5.625 22.820312 L 5.15625 25.132812 L 7.472656 24.664062 L 6.847656 24.039062 L 10.53125 20.355469 L 9.9375 19.757812 "/>
<path fill-rule="nonzero" fill="rgb(100%, 100%, 100%)" fill-opacity="1" d="M 12.347656 21.105469 L 12.347656 26.320312 L 11.464844 26.320312 L 12.769531 28.285156 L 14.074219 26.320312 L 13.191406 26.320312 L 13.191406 21.105469 L 12.347656 21.105469 "/>
<path fill-rule="nonzero" fill="rgb(100%, 100%, 100%)" fill-opacity="1" d="M 12.347656 14.085938 L 12.347656 8.871094 L 11.464844 8.871094 L 12.769531 6.90625 L 14.074219 8.871094 L 13.191406 8.871094 L 13.191406 14.085938 L 12.347656 14.085938 "/>
<path fill-rule="nonzero" fill="rgb(100%, 100%, 100%)" fill-opacity="1" d="M 15.007812 20.355469 L 18.695312 24.039062 L 18.070312 24.664062 L 20.382812 25.132812 L 19.914062 22.820312 L 19.289062 23.445312 L 15.601562 19.757812 L 15.007812 20.355469 "/>
<path fill-rule="nonzero" fill="rgb(100%, 100%, 100%)" fill-opacity="1" d="M 16.355469 17.941406 L 21.566406 17.941406 L 21.566406 18.824219 L 23.535156 17.519531 L 21.566406 16.214844 L 21.566406 17.101562 L 16.355469 17.101562 L 16.355469 17.941406 "/>
<path fill-rule="nonzero" fill="rgb(100%, 100%, 100%)" fill-opacity="1" d="M 15.601562 15.28125 L 19.289062 11.597656 L 19.914062 12.222656 L 20.382812 9.910156 L 18.070312 10.375 L 18.695312 11.003906 L 15.007812 14.6875 L 15.601562 15.28125 "/>
<path fill-rule="nonzero" fill="rgb(100%, 100%, 100%)" fill-opacity="1" d="M 15.96875 21.933594 C 18.425781 20.210938 19.027344 16.820312 17.304688 14.363281 C 15.582031 11.902344 12.191406 11.304688 9.730469 13.027344 C 7.273438 14.75 6.675781 18.136719 8.398438 20.597656 C 10.121094 23.058594 13.507812 23.652344 15.96875 21.933594 "/>
<path fill-rule="nonzero" fill="rgb(100%, 100%, 100%)" fill-opacity="1" d="M 16.015625 35.433594 L 21.226562 35.433594 L 21.226562 36.316406 L 23.195312 35.015625 L 21.226562 33.710938 L 21.226562 34.59375 L 16.015625 34.59375 L 16.015625 35.433594 "/>
<path fill-rule="nonzero" fill="rgb(100%, 100%, 100%)" fill-opacity="1" d="M 15.894531 33.988281 L 20.792969 32.203125 L 21.09375 33.035156 L 22.496094 31.136719 L 20.203125 30.582031 L 20.503906 31.414062 L 15.605469 33.195312 L 15.894531 33.988281 "/>
<path fill-rule="nonzero" fill="rgb(100%, 100%, 100%)" fill-opacity="1" d="M 15.894531 36.007812 L 20.792969 37.789062 L 21.09375 36.960938 L 22.496094 38.859375 L 20.203125 39.410156 L 20.503906 38.582031 L 15.605469 36.796875 L 15.894531 36.007812 "/>
<path fill-rule="nonzero" fill="rgb(100%, 100%, 100%)" fill-opacity="1" d="M 7.933594 35.433594 L 12.957031 35.433594 L 12.957031 36.316406 L 14.925781 35.015625 L 12.957031 33.710938 L 12.957031 34.59375 L 7.933594 34.59375 L 7.933594 35.433594 "/>
<path fill-rule="nonzero" fill="rgb(0%, 0%, 0%)" fill-opacity="1" d="M 5.699219 31.132812 C 4.710938 31.132812 3.910156 31.933594 3.910156 32.921875 L 3.914062 34.511719 C 3.925781 34.636719 3.800781 34.769531 3.609375 34.789062 C 3.421875 34.808594 3.214844 34.714844 3.203125 34.585938 L 3.203125 33.007812 C 3.203125 31.652344 4.300781 30.554688 5.65625 30.554688 C 7.011719 30.554688 8.109375 31.652344 8.109375 33.007812 L 8.109375 34.730469 C 8.097656 34.855469 7.960938 34.941406 7.769531 34.933594 C 7.59375 34.929688 7.4375 34.703125 7.449219 34.574219 L 7.457031 32.921875 C 7.457031 31.933594 6.6875 31.132812 5.699219 31.132812 "/>
<path fill="none" stroke-width="4" stroke-linecap="butt" stroke-linejoin="miter" stroke="rgb(100%, 100%, 100%)" stroke-opacity="1" stroke-miterlimit="4" d="M 58.584966 99.178542 C 48.425956 99.178542 40.194346 90.946932 40.194346 80.787922 L 40.2345 64.445165 C 40.354963 63.160231 39.070029 61.794989 37.102473 61.594218 C 35.175072 61.393447 33.0469 62.357147 32.926438 63.682236 L 32.926438 79.904529 C 32.926438 93.838034 44.209765 105.121362 58.14327 105.121362 C 72.076775 105.121362 83.360103 93.838034 83.360103 79.904529 L 83.360103 62.196531 C 83.23964 60.911597 81.834243 60.028204 79.866688 60.108513 C 78.059749 60.148667 76.453582 62.47761 76.574044 63.802698 L 76.654353 80.787922 C 76.654353 90.946932 68.743977 99.178542 58.584966 99.178542 Z M 58.584966 99.178542 " transform="matrix(0.0972813, 0, 0, -0.0972813, 0, 40.781025)"/>
<path fill-rule="nonzero" fill="rgb(0%, 0%, 0%)" fill-opacity="1" d="M 8.71875 39.003906 C 8.898438 39.003906 9.042969 38.855469 9.042969 38.675781 L 9.042969 34.671875 C 9.042969 34.492188 8.898438 34.34375 8.71875 34.34375 L 2.507812 34.34375 C 2.324219 34.34375 2.179688 34.492188 2.179688 34.671875 L 2.179688 38.675781 C 2.179688 38.855469 2.324219 39.003906 2.507812 39.003906 L 8.71875 39.003906 "/>
<g clip-path="url(#clip-5)">
<path fill="none" stroke-width="4" stroke-linecap="butt" stroke-linejoin="miter" stroke="rgb(100%, 100%, 100%)" stroke-opacity="1" stroke-miterlimit="4" d="M 89.624157 18.267845 C 91.47125 18.267845 92.956955 19.793704 92.956955 21.640797 L 92.956955 62.798844 C 92.956955 64.645936 91.47125 66.171796 89.624157 66.171796 L 25.778991 66.171796 C 23.891744 66.171796 22.406039 64.645936 22.406039 62.798844 L 22.406039 21.640797 C 22.406039 19.793704 23.891744 18.267845 25.778991 18.267845 Z M 89.624157 18.267845 " transform="matrix(0.0972813, 0, 0, -0.0972813, 0, 40.781025)"/>
</g>
</svg>
