<?xml version="1.0" encoding="UTF-8"?>
<svg xmlns="http://www.w3.org/2000/svg" xmlns:xlink="http://www.w3.org/1999/xlink" width="37.15" height="26.53" viewBox="0 0 37.15 26.53">
<defs>
<clipPath id="clip-0">
<path clip-rule="nonzero" d="M 0 0.0664062 L 36 0.0664062 L 36 6 L 0 6 Z M 0 0.0664062 "/>
</clipPath>
<clipPath id="clip-1">
<path clip-rule="nonzero" d="M 0 0.0664062 L 36.320312 0.0664062 L 36.320312 8 L 0 8 Z M 0 0.0664062 "/>
</clipPath>
<clipPath id="clip-2">
<path clip-rule="nonzero" d="M 30 0.0664062 L 36 0.0664062 L 36 26 L 30 26 Z M 30 0.0664062 "/>
</clipPath>
<clipPath id="clip-3">
<path clip-rule="nonzero" d="M 27 0.0664062 L 36.320312 0.0664062 L 36.320312 26.003906 L 27 26.003906 Z M 27 0.0664062 "/>
</clipPath>
<clipPath id="clip-4">
<path clip-rule="nonzero" d="M 2 20 L 9 20 L 9 26.003906 L 2 26.003906 Z M 2 20 "/>
</clipPath>
<clipPath id="clip-5">
<path clip-rule="nonzero" d="M 2 15 L 14 15 L 14 26.003906 L 2 26.003906 Z M 2 15 "/>
</clipPath>
</defs>
<path fill-rule="nonzero" fill="rgb(3.292847%, 48.298645%, 73.153687%)" fill-opacity="1" d="M 30.15625 25.589844 L 30.15625 5.105469 L 0.699219 5.105469 L 0.699219 25.589844 L 30.15625 25.589844 "/>
<path fill="none" stroke-width="4" stroke-linecap="butt" stroke-linejoin="miter" stroke="rgb(100%, 100%, 100%)" stroke-opacity="1" stroke-miterlimit="4" d="M 308.462315 4.231612 L 308.462315 213.762231 L 7.15217 213.762231 L 7.15217 4.231612 Z M 308.462315 4.231612 " transform="matrix(0.0977632, 0, 0, -0.0977632, 0, 26.003539)"/>
<g clip-path="url(#clip-0)">
<path fill-rule="nonzero" fill="rgb(3.292847%, 48.298645%, 73.153687%)" fill-opacity="1" d="M 30.15625 5.105469 L 35.773438 0.480469 L 8.296875 0.480469 L 0.699219 5.105469 L 30.15625 5.105469 "/>
</g>
<g clip-path="url(#clip-1)">
<path fill="none" stroke-width="4" stroke-linecap="butt" stroke-linejoin="miter" stroke="rgb(100%, 100%, 100%)" stroke-opacity="1" stroke-miterlimit="4" d="M 308.462315 213.762231 L 365.919415 261.070441 L 84.867093 261.070441 L 7.15217 213.762231 Z M 308.462315 213.762231 " transform="matrix(0.0977632, 0, 0, -0.0977632, 0, 26.003539)"/>
</g>
<g clip-path="url(#clip-2)">
<path fill-rule="nonzero" fill="rgb(3.292847%, 48.298645%, 73.153687%)" fill-opacity="1" d="M 35.773438 20.964844 L 35.773438 0.480469 L 30.15625 5.105469 L 30.15625 25.589844 L 35.773438 20.964844 "/>
</g>
<g clip-path="url(#clip-3)">
<path fill="none" stroke-width="4" stroke-linecap="butt" stroke-linejoin="miter" stroke="rgb(100%, 100%, 100%)" stroke-opacity="1" stroke-miterlimit="4" d="M 365.919415 51.539822 L 365.919415 261.070441 L 308.462315 213.762231 L 308.462315 4.231612 Z M 365.919415 51.539822 " transform="matrix(0.0977632, 0, 0, -0.0977632, 0, 26.003539)"/>
</g>
<path fill="none" stroke-width="10" stroke-linecap="round" stroke-linejoin="round" stroke="rgb(100%, 100%, 100%)" stroke-opacity="1" stroke-miterlimit="4" d="M 26.690781 88.779055 L 116.672275 88.779055 L 161.702978 178.800505 L 224.194566 51.300084 L 246.689939 88.779055 L 291.680686 88.779055 " transform="matrix(0.0977632, 0, 0, -0.0977632, 0, 26.003539)"/>
<path fill-rule="nonzero" fill="rgb(100%, 100%, 100%)" fill-opacity="1" d="M 5.386719 24.566406 C 5.902344 24.566406 6.320312 24.148438 6.320312 23.632812 C 6.320312 23.121094 5.902344 22.703125 5.386719 22.703125 C 4.871094 22.703125 4.453125 23.121094 4.453125 23.632812 C 4.453125 24.148438 4.871094 24.566406 5.386719 24.566406 "/>
<g clip-path="url(#clip-4)">
<path fill="none" stroke-width="3.7" stroke-linecap="butt" stroke-linejoin="miter" stroke="rgb(0%, 0%, 0%)" stroke-opacity="1" stroke-miterlimit="4" d="M 55.09968 14.700151 C 60.373906 14.700151 64.649226 18.975471 64.649226 24.249697 C 64.649226 29.483967 60.373906 33.759287 55.09968 33.759287 C 49.825454 33.759287 45.550135 29.483967 45.550135 24.249697 C 45.550135 18.975471 49.825454 14.700151 55.09968 14.700151 Z M 55.09968 14.700151 " transform="matrix(0.0977632, 0, 0, -0.0977632, 0, 26.003539)"/>
</g>
<path fill-rule="nonzero" fill="rgb(100%, 100%, 100%)" fill-opacity="1" d="M 4.589844 22.640625 L 6.410156 24.421875 L 11.5625 19.148438 L 9.742188 17.367188 L 4.589844 22.640625 "/>
<g clip-path="url(#clip-5)">
<path fill="none" stroke-width="3.7" stroke-linecap="butt" stroke-linejoin="miter" stroke="rgb(0%, 0%, 0%)" stroke-opacity="1" stroke-miterlimit="4" d="M 46.948604 34.398587 L 65.56822 16.178533 L 118.270525 70.119482 L 99.650908 88.339536 Z M 46.948604 34.398587 " transform="matrix(0.0977632, 0, 0, -0.0977632, 0, 26.003539)"/>
</g>
<path fill-rule="nonzero" fill="rgb(100%, 100%, 100%)" fill-opacity="1" d="M 9.011719 13.480469 C 9.011719 17.335938 12.148438 20.472656 16.003906 20.472656 C 19.859375 20.472656 22.996094 17.335938 22.996094 13.480469 C 22.996094 9.625 19.859375 6.488281 16.003906 6.488281 C 12.148438 6.488281 9.011719 9.625 9.011719 13.480469 Z M 9.988281 13.480469 C 9.988281 10.164062 12.6875 7.464844 16.003906 7.464844 C 19.320312 7.464844 22.019531 10.164062 22.019531 13.480469 C 22.019531 16.796875 19.320312 19.496094 16.003906 19.496094 C 12.6875 19.496094 9.988281 16.796875 9.988281 13.480469 "/>
<path fill="none" stroke-width="3.7" stroke-linecap="butt" stroke-linejoin="miter" stroke="rgb(0%, 0%, 0%)" stroke-opacity="1" stroke-miterlimit="4" d="M 92.179088 128.096013 C 92.179088 88.659186 124.263964 56.57431 163.700791 56.57431 C 203.137618 56.57431 235.222493 88.659186 235.222493 128.096013 C 235.222493 167.53284 203.137618 199.617715 163.700791 199.617715 C 124.263964 199.617715 92.179088 167.53284 92.179088 128.096013 Z M 102.168153 128.096013 C 102.168153 162.018876 129.777927 189.628651 163.700791 189.628651 C 197.623654 189.628651 225.233429 162.018876 225.233429 128.096013 C 225.233429 94.173149 197.623654 66.563375 163.700791 66.563375 C 129.777927 66.563375 102.168153 94.173149 102.168153 128.096013 Z M 102.168153 128.096013 " transform="matrix(0.0977632, 0, 0, -0.0977632, 0, 26.003539)"/>
<path fill-rule="nonzero" fill="rgb(100%, 100%, 100%)" fill-opacity="1" d="M 8.191406 13.882812 C 8.191406 17.738281 11.328125 20.875 15.183594 20.875 C 19.039062 20.875 22.175781 17.738281 22.175781 13.882812 C 22.175781 10.027344 19.039062 6.890625 15.183594 6.890625 C 11.328125 6.890625 8.191406 10.027344 8.191406 13.882812 Z M 9.167969 13.882812 C 9.167969 10.566406 11.867188 7.871094 15.183594 7.871094 C 18.5 7.871094 21.199219 10.566406 21.199219 13.882812 C 21.199219 17.199219 18.5 19.898438 15.183594 19.898438 C 11.867188 19.898438 9.167969 17.199219 9.167969 13.882812 "/>
<path fill="none" stroke-width="3.7" stroke-linecap="butt" stroke-linejoin="miter" stroke="rgb(0%, 0%, 0%)" stroke-opacity="1" stroke-miterlimit="4" d="M 83.788274 123.980518 C 83.788274 84.543691 115.873149 52.458816 155.309976 52.458816 C 194.746803 52.458816 226.831679 84.543691 226.831679 123.980518 C 226.831679 163.417345 194.746803 195.502221 155.309976 195.502221 C 115.873149 195.502221 83.788274 163.417345 83.788274 123.980518 Z M 93.777338 123.980518 C 93.777338 157.903382 121.387113 185.4732 155.309976 185.4732 C 189.23284 185.4732 216.842614 157.903382 216.842614 123.980518 C 216.842614 90.057655 189.23284 62.44788 155.309976 62.44788 C 121.387113 62.44788 93.777338 90.057655 93.777338 123.980518 Z M 93.777338 123.980518 " transform="matrix(0.0977632, 0, 0, -0.0977632, 0, 26.003539)"/>
</svg>
