<?xml version="1.0" encoding="UTF-8"?>
<svg xmlns="http://www.w3.org/2000/svg" xmlns:xlink="http://www.w3.org/1999/xlink" width="34.39" height="28.25" viewBox="0 0 34.39 28.25">
<defs>
<clipPath id="clip-0">
<path clip-rule="nonzero" d="M 14 0 L 33.269531 0 L 33.269531 27.324219 L 14 27.324219 Z M 14 0 "/>
</clipPath>
<clipPath id="clip-1">
<path clip-rule="nonzero" d="M 12 0 L 33.269531 0 L 33.269531 27.324219 L 12 27.324219 Z M 12 0 "/>
</clipPath>
<clipPath id="clip-2">
<path clip-rule="nonzero" d="M 0.148438 2 L 30 2 L 30 27.324219 L 0.148438 27.324219 Z M 0.148438 2 "/>
</clipPath>
<clipPath id="clip-3">
<path clip-rule="nonzero" d="M 0.148438 0 L 32 0 L 32 27.324219 L 0.148438 27.324219 Z M 0.148438 0 "/>
</clipPath>
<clipPath id="clip-4">
<path clip-rule="nonzero" d="M 3 4 L 20 4 L 20 27.324219 L 3 27.324219 Z M 3 4 "/>
</clipPath>
<clipPath id="clip-5">
<path clip-rule="nonzero" d="M 8 12 L 26 12 L 26 27.324219 L 8 27.324219 Z M 8 12 "/>
</clipPath>
</defs>
<g clip-path="url(#clip-0)">
<path fill-rule="nonzero" fill="rgb(3.115845%, 49.784851%, 74.839783%)" fill-opacity="1" d="M 29.722656 27.363281 L 33.386719 24.675781 L 18.058594 0.261719 L 14.449219 2.425781 "/>
</g>
<g clip-path="url(#clip-1)">
<path fill="none" stroke-width="4" stroke-linecap="butt" stroke-linejoin="miter" stroke="rgb(100%, 100%, 100%)" stroke-opacity="1" stroke-miterlimit="4" d="M 303.602489 1.6026 L 341.215874 29.191095 L 183.86521 279.81333 L 146.813219 257.598175 " transform="matrix(0.0974138, 0, 0, -0.0974138, 0.147586, 27.519397)"/>
</g>
<g clip-path="url(#clip-2)">
<path fill-rule="nonzero" fill="rgb(3.115845%, 49.784851%, 74.839783%)" fill-opacity="1" d="M 0.480469 27.222656 L 29.707031 27.242188 L 14.378906 2.613281 L 0.480469 27.222656 "/>
</g>
<g clip-path="url(#clip-3)">
<path fill="none" stroke-width="4" stroke-linecap="butt" stroke-linejoin="miter" stroke="rgb(100%, 100%, 100%)" stroke-opacity="1" stroke-miterlimit="4" d="M 3.417201 3.046184 L 303.442091 2.845686 L 146.091427 255.673396 Z M 3.417201 3.046184 " transform="matrix(0.0974138, 0, 0, -0.0974138, 0.147586, 27.519397)"/>
</g>
<path fill-rule="nonzero" fill="rgb(100%, 100%, 100%)" fill-opacity="1" d="M 14.394531 19.664062 C 15.5625 19.664062 16.511719 18.71875 16.511719 17.550781 C 16.511719 16.378906 15.5625 15.433594 14.394531 15.433594 C 13.226562 15.433594 12.277344 16.378906 12.277344 17.550781 C 12.277344 18.71875 13.226562 19.664062 14.394531 19.664062 "/>
<path fill-rule="nonzero" fill="rgb(100%, 100%, 100%)" fill-opacity="1" d="M 14.394531 11.933594 C 15.5625 11.933594 16.511719 10.988281 16.511719 9.816406 C 16.511719 8.648438 15.5625 7.703125 14.394531 7.703125 C 13.226562 7.703125 12.277344 8.648438 12.277344 9.816406 C 12.277344 10.988281 13.226562 11.933594 14.394531 11.933594 "/>
<path fill-rule="nonzero" fill="rgb(100%, 100%, 100%)" fill-opacity="1" d="M 20.097656 25.371094 C 21.269531 25.371094 22.214844 24.421875 22.214844 23.253906 C 22.214844 22.085938 21.269531 21.136719 20.097656 21.136719 C 18.929688 21.136719 17.984375 22.085938 17.984375 23.253906 C 17.984375 24.421875 18.929688 25.371094 20.097656 25.371094 "/>
<path fill-rule="nonzero" fill="rgb(100%, 100%, 100%)" fill-opacity="1" d="M 8.75 25.308594 C 9.921875 25.308594 10.867188 24.359375 10.867188 23.191406 C 10.867188 22.023438 9.921875 21.074219 8.75 21.074219 C 7.582031 21.074219 6.636719 22.023438 6.636719 23.191406 C 6.636719 24.359375 7.582031 25.308594 8.75 25.308594 "/>
<g clip-path="url(#clip-4)">
<path fill="none" stroke-width="10" stroke-linecap="butt" stroke-linejoin="miter" stroke="rgb(100%, 100%, 100%)" stroke-opacity="1" stroke-miterlimit="4" d="M 146.131527 177.238662 L 146.131527 103.615874 L 86.90448 44.428927 " transform="matrix(0.0974138, 0, 0, -0.0974138, 0.147586, 27.519397)"/>
</g>
<g clip-path="url(#clip-5)">
<path fill="none" stroke-width="10" stroke-linecap="butt" stroke-linejoin="miter" stroke="rgb(100%, 100%, 100%)" stroke-opacity="1" stroke-miterlimit="4" d="M 146.131527 100.448009 L 200.506527 46.032909 " transform="matrix(0.0974138, 0, 0, -0.0974138, 0.147586, 27.519397)"/>
</g>
</svg>
