<?xml version="1.0" encoding="UTF-8"?>
<svg xmlns="http://www.w3.org/2000/svg" xmlns:xlink="http://www.w3.org/1999/xlink" width="43.53" height="31.59" viewBox="0 0 43.53 31.59">
<defs>
<clipPath id="clip-0">
<path clip-rule="nonzero" d="M 0.046875 5 L 39 5 L 39 31 L 0.046875 31 Z M 0.046875 5 "/>
</clipPath>
<clipPath id="clip-1">
<path clip-rule="nonzero" d="M 36 0 L 43.019531 0 L 43.019531 31.183594 L 36 31.183594 Z M 36 0 "/>
</clipPath>
<clipPath id="clip-2">
<path clip-rule="nonzero" d="M 0.046875 0 L 43 0 L 43 6 L 0.046875 6 Z M 0.046875 0 "/>
</clipPath>
<clipPath id="clip-3">
<path clip-rule="nonzero" d="M 0.046875 0 L 43.019531 0 L 43.019531 9 L 0.046875 9 Z M 0.046875 0 "/>
</clipPath>
<clipPath id="clip-4">
<path clip-rule="nonzero" d="M 0.046875 6 L 39 6 L 39 31 L 0.046875 31 Z M 0.046875 6 "/>
</clipPath>
</defs>
<g clip-path="url(#clip-0)">
<path fill-rule="nonzero" fill="rgb(3.115845%, 49.784851%, 74.839783%)" fill-opacity="1" stroke-width="4" stroke-linecap="butt" stroke-linejoin="miter" stroke="rgb(100%, 100%, 100%)" stroke-opacity="1" stroke-miterlimit="4" d="M 5.658436 6.466635 L 387.147832 6.466635 L 387.147832 257.099747 L 5.658436 257.099747 Z M 5.658436 6.466635 " transform="matrix(0.0987188, 0, 0, -0.0987188, 0.046875, 31.185253)"/>
</g>
<path fill-rule="nonzero" fill="rgb(3.115845%, 49.784851%, 74.839783%)" fill-opacity="1" d="M 42.597656 24.210938 L 38.265625 30.546875 L 38.265625 5.804688 L 42.597656 0.550781 L 42.597656 24.210938 "/>
<g clip-path="url(#clip-1)">
<path fill="none" stroke-width="4" stroke-linecap="butt" stroke-linejoin="miter" stroke="rgb(100%, 100%, 100%)" stroke-opacity="1" stroke-miterlimit="4" d="M 431.030389 70.648338 L 387.147832 6.466635 L 387.147832 257.099747 L 431.030389 310.320703 Z M 431.030389 70.648338 " transform="matrix(0.0987188, 0, 0, -0.0987188, 0.046875, 31.185253)"/>
</g>
<g clip-path="url(#clip-2)">
<path fill-rule="nonzero" fill="rgb(3.115845%, 49.784851%, 74.839783%)" fill-opacity="1" d="M 7.105469 0.550781 L 42.597656 0.550781 L 38.265625 5.804688 L 0.605469 5.804688 L 7.105469 0.550781 "/>
</g>
<g clip-path="url(#clip-3)">
<path fill="none" stroke-width="4" stroke-linecap="butt" stroke-linejoin="miter" stroke="rgb(100%, 100%, 100%)" stroke-opacity="1" stroke-miterlimit="4" d="M 71.502058 310.320703 L 431.030389 310.320703 L 387.147832 257.099747 L 5.658436 257.099747 Z M 71.502058 310.320703 " transform="matrix(0.0987188, 0, 0, -0.0987188, 0.046875, 31.185253)"/>
</g>
<path fill-rule="nonzero" fill="rgb(100%, 100%, 100%)" fill-opacity="1" d="M 12.195312 19.21875 L 5.890625 19.222656 L 5.890625 18.222656 L 12.195312 18.21875 L 12.199219 16.652344 L 15.851562 18.71875 L 12.199219 20.785156 L 12.195312 19.21875 "/>
<path fill-rule="nonzero" fill="rgb(100%, 100%, 100%)" fill-opacity="1" d="M 25.316406 19.21875 L 19.007812 19.222656 L 19.007812 18.222656 L 25.316406 18.21875 L 25.316406 16.652344 L 28.96875 18.71875 L 25.316406 20.785156 L 25.316406 19.21875 "/>
<path fill-rule="nonzero" fill="rgb(100%, 100%, 100%)" fill-opacity="1" d="M 24.226562 14.167969 L 18.941406 17.605469 L 18.394531 16.765625 L 23.679688 13.328125 L 22.832031 12.011719 L 27.019531 11.757812 L 25.082031 15.480469 L 24.226562 14.167969 "/>
<path fill-rule="nonzero" fill="rgb(100%, 100%, 100%)" fill-opacity="1" d="M 24.226562 23.210938 L 18.941406 19.769531 L 18.394531 20.613281 L 23.679688 24.050781 L 22.832031 25.363281 L 27.019531 25.617188 L 25.082031 21.894531 L 24.226562 23.210938 "/>
<g clip-path="url(#clip-4)">
<path fill="none" stroke-width="4" stroke-linecap="butt" stroke-linejoin="miter" stroke="rgb(100%, 100%, 100%)" stroke-opacity="1" stroke-miterlimit="4" d="M 141.935739 208.864546 C 80.405192 221.131086 47.918645 189.633777 53.023109 162.370402 L 53.458373 160.906331 C 5.500158 152.715448 18.043685 96.091516 41.073124 96.091516 L 43.328585 96.170655 C 37.511871 69.579962 93.58183 42.514435 124.841722 56.007629 L 126.859766 58.22352 C 138.01836 34.323552 177.587844 30.287464 216.761633 29.298227 C 250.712251 28.427699 270.496993 31.118424 285.058563 45.99655 L 287.314023 45.363438 C 341.603355 40.971225 366.373852 78.483096 354.463438 105.429915 L 357.39158 106.260874 C 375.949668 111.16749 378.04685 153.902532 346.312124 160.23365 L 346.905666 161.895568 C 360.715416 189.712915 328.1893 215.947483 283.040519 211.001298 L 279.91453 212.623647 C 247.586261 241.905065 154.558405 237.117157 143.795505 208.191865 Z M 141.935739 208.864546 " transform="matrix(0.0987188, 0, 0, -0.0987188, 0.046875, 31.185253)"/>
</g>
</svg>
