<?xml version="1.0" encoding="UTF-8"?>
<svg xmlns="http://www.w3.org/2000/svg" xmlns:xlink="http://www.w3.org/1999/xlink" width="17.67" height="2.04" viewBox="0 0 17.67 2.04">
<defs>
<clipPath id="clip-0">
<path clip-rule="nonzero" d="M 2.714844 0 L 5 0 L 5 1.386719 L 2.714844 1.386719 Z M 2.714844 0 "/>
</clipPath>
<clipPath id="clip-1">
<path clip-rule="nonzero" d="M 6 0 L 8 0 L 8 1.386719 L 6 1.386719 Z M 6 0 "/>
</clipPath>
<clipPath id="clip-2">
<path clip-rule="nonzero" d="M 9 0 L 12 0 L 12 1.386719 L 9 1.386719 Z M 9 0 "/>
</clipPath>
<clipPath id="clip-3">
<path clip-rule="nonzero" d="M 13 0 L 14.730469 0 L 14.730469 1.386719 L 13 1.386719 Z M 13 0 "/>
</clipPath>
</defs>
<g clip-path="url(#clip-0)">
<path fill-rule="nonzero" fill="rgb(0.784302%, 43.920898%, 62.350464%)" fill-opacity="1" d="M 3.40625 1.386719 C 3.023438 1.386719 2.714844 1.082031 2.714844 0.695312 C 2.714844 0.3125 3.019531 0 3.40625 0 C 3.789062 0 4.101562 0.3125 4.101562 0.695312 C 4.101562 1.078125 3.789062 1.386719 3.40625 1.386719 "/>
</g>
<g clip-path="url(#clip-1)">
<path fill-rule="nonzero" fill="rgb(0.784302%, 43.920898%, 62.350464%)" fill-opacity="1" d="M 6.882812 1.386719 C 6.5 1.386719 6.191406 1.082031 6.191406 0.695312 C 6.191406 0.3125 6.496094 0 6.882812 0 C 7.265625 0 7.578125 0.3125 7.578125 0.695312 C 7.578125 1.078125 7.265625 1.386719 6.882812 1.386719 "/>
</g>
<g clip-path="url(#clip-2)">
<path fill-rule="nonzero" fill="rgb(0.784302%, 43.920898%, 62.350464%)" fill-opacity="1" d="M 10.359375 1.386719 C 9.976562 1.386719 9.667969 1.082031 9.667969 0.695312 C 9.667969 0.3125 9.972656 0 10.359375 0 C 10.742188 0 11.054688 0.3125 11.054688 0.695312 C 11.054688 1.078125 10.742188 1.386719 10.359375 1.386719 "/>
</g>
<g clip-path="url(#clip-3)">
<path fill-rule="nonzero" fill="rgb(0.784302%, 43.920898%, 62.350464%)" fill-opacity="1" d="M 14.03125 1.386719 C 13.648438 1.386719 13.339844 1.082031 13.339844 0.695312 C 13.339844 0.3125 13.644531 0 14.03125 0 C 14.414062 0 14.726562 0.3125 14.726562 0.695312 C 14.726562 1.078125 14.414062 1.386719 14.03125 1.386719 "/>
</g>
</svg>
