<?xml version="1.0" encoding="UTF-8"?>
<svg xmlns="http://www.w3.org/2000/svg" xmlns:xlink="http://www.w3.org/1999/xlink" width="36.88" height="26.08" viewBox="0 0 36.88 26.08">
<defs>
<clipPath id="clip-0">
<path clip-rule="nonzero" d="M 0.570312 0 L 36.195312 0 L 36.195312 9 L 0.570312 9 Z M 0.570312 0 "/>
</clipPath>
<clipPath id="clip-1">
<path clip-rule="nonzero" d="M 28 0 L 36.195312 0 L 36.195312 25.191406 L 28 25.191406 Z M 28 0 "/>
</clipPath>
</defs>
<path fill="none" stroke-width="4.49997" stroke-linecap="round" stroke-linejoin="miter" stroke="rgb(100%, 100%, 100%)" stroke-opacity="1" stroke-miterlimit="1" d="M 284.134155 52.976416 C 284.134155 52.976416 264.560966 2.66847 241.024612 53.138178 C 217.528698 103.567446 197.915069 53.2595 197.915069 53.2595 C 197.915069 53.2595 178.382321 2.911112 154.845967 53.340381 C 131.350053 103.769649 111.857745 53.016857 111.857745 53.016857 C 111.857745 53.016857 92.324998 2.66847 68.829084 53.138178 C 45.292729 103.567446 25.800422 53.29994 25.800422 53.29994 " transform="matrix(0.0965926, 0, 0, -0.0965926, 0.57037, 25.191348)"/>
<path fill="none" stroke-width="8.99994" stroke-linecap="round" stroke-linejoin="miter" stroke="rgb(100%, 100%, 100%)" stroke-opacity="1" stroke-miterlimit="1" d="M 25.800422 52.976416 C 25.800422 52.976416 45.37361 2.66847 68.909965 53.138178 C 92.405879 103.567446 112.019507 53.2595 112.019507 53.2595 C 112.019507 53.2595 131.592696 2.911112 155.08861 53.340381 C 178.584524 103.769649 198.076831 53.016857 198.076831 53.016857 C 198.076831 53.016857 217.609579 2.66847 241.105493 53.138178 C 264.601407 103.567446 284.134155 53.29994 284.134155 53.29994 " transform="matrix(0.0965926, 0, 0, -0.0965926, 0.57037, 25.191348)"/>
<path fill="none" stroke-width="4.49997" stroke-linecap="round" stroke-linejoin="miter" stroke="rgb(0%, 0%, 0%)" stroke-opacity="1" stroke-miterlimit="1" d="M 288.663487 52.976416 C 288.663487 52.976416 269.090299 2.66847 245.553945 53.138178 C 222.058031 103.567446 202.444402 53.2595 202.444402 53.2595 C 202.444402 53.2595 182.911654 2.911112 159.3753 53.340381 C 135.879386 103.769649 116.387078 53.016857 116.387078 53.016857 C 116.387078 53.016857 96.85433 2.66847 73.358416 53.138178 C 49.822062 103.567446 30.329755 53.2595 30.329755 53.2595 " transform="matrix(0.0965926, 0, 0, -0.0965926, 0.57037, 25.191348)"/>
<path fill="none" stroke-width="8.99994" stroke-linecap="round" stroke-linejoin="miter" stroke="rgb(0%, 0%, 0%)" stroke-opacity="1" stroke-miterlimit="1" d="M 30.329755 52.976416 C 30.329755 52.976416 49.902943 2.66847 73.439297 53.138178 C 96.935211 103.567446 116.54884 53.2595 116.54884 53.2595 C 116.54884 53.2595 136.122028 2.911112 159.617942 53.340381 C 183.113856 103.769649 202.606164 53.016857 202.606164 53.016857 C 202.606164 53.016857 222.098471 2.66847 245.634826 53.138178 C 269.13074 103.567446 288.663487 53.2595 288.663487 53.2595 " transform="matrix(0.0965926, 0, 0, -0.0965926, 0.57037, 25.191348)"/>
<path fill="none" stroke-width="4.49997" stroke-linecap="round" stroke-linejoin="miter" stroke="rgb(100%, 100%, 100%)" stroke-opacity="1" stroke-miterlimit="1" d="M 284.134155 52.976416 C 284.134155 52.976416 264.560966 2.66847 241.024612 53.138178 C 217.528698 103.567446 197.915069 53.2595 197.915069 53.2595 C 197.915069 53.2595 178.382321 2.911112 154.845967 53.340381 C 131.350053 103.769649 111.857745 53.016857 111.857745 53.016857 C 111.857745 53.016857 92.324998 2.66847 68.829084 53.138178 C 45.292729 103.567446 25.800422 53.29994 25.800422 53.29994 " transform="matrix(0.0965926, 0, 0, -0.0965926, 0.57037, 25.191348)"/>
<path fill="none" stroke-width="8.99994" stroke-linecap="round" stroke-linejoin="miter" stroke="rgb(100%, 100%, 100%)" stroke-opacity="1" stroke-miterlimit="1" d="M 25.800422 52.976416 C 25.800422 52.976416 45.37361 2.66847 68.909965 53.138178 C 92.405879 103.567446 112.019507 53.2595 112.019507 53.2595 C 112.019507 53.2595 131.592696 2.911112 155.08861 53.340381 C 178.584524 103.769649 198.076831 53.016857 198.076831 53.016857 C 198.076831 53.016857 217.609579 2.66847 241.105493 53.138178 C 264.601407 103.567446 284.134155 53.29994 284.134155 53.29994 " transform="matrix(0.0965926, 0, 0, -0.0965926, 0.57037, 25.191348)"/>
<path fill-rule="nonzero" fill="rgb(0.784302%, 43.920898%, 62.350464%)" fill-opacity="1" d="M 1.15625 5.941406 L 8.589844 0.449219 L 35.734375 0.449219 L 30.332031 5.941406 L 1.15625 5.941406 "/>
<g clip-path="url(#clip-0)">
<path fill="none" stroke-width="3.99994" stroke-linecap="butt" stroke-linejoin="miter" stroke="rgb(100%, 100%, 100%)" stroke-opacity="1" stroke-miterlimit="4" d="M 6.065472 199.290043 L 83.023689 256.149346 L 364.044526 256.149346 L 308.115354 199.290043 Z M 6.065472 199.290043 " transform="matrix(0.0965926, 0, 0, -0.0965926, 0.57037, 25.191348)"/>
</g>
<path fill-rule="nonzero" fill="rgb(0.784302%, 43.920898%, 62.350464%)" fill-opacity="1" d="M 30.332031 24.722656 L 35.734375 19.246094 L 35.734375 0.464844 L 30.332031 5.941406 L 30.332031 24.722656 "/>
<g clip-path="url(#clip-1)">
<path fill="none" stroke-width="3.99994" stroke-linecap="butt" stroke-linejoin="miter" stroke="rgb(100%, 100%, 100%)" stroke-opacity="1" stroke-miterlimit="4" d="M 308.115354 4.852255 L 364.044526 61.549796 L 364.044526 255.987584 L 308.115354 199.290043 Z M 308.115354 4.852255 " transform="matrix(0.0965926, 0, 0, -0.0965926, 0.57037, 25.191348)"/>
</g>
<path fill-rule="nonzero" fill="rgb(0.784302%, 43.920898%, 62.350464%)" fill-opacity="1" d="M 1.195312 24.730469 L 30.332031 24.730469 L 30.332031 5.941406 L 1.195312 5.941406 Z M 1.195312 24.730469 "/>
<path fill="none" stroke-width="3.99994" stroke-linecap="butt" stroke-linejoin="miter" stroke="rgb(100%, 100%, 100%)" stroke-opacity="1" stroke-miterlimit="4" d="M 308.115354 4.771374 L 308.115354 199.290043 L 6.469876 199.290043 L 6.469876 4.771374 Z M 308.115354 4.771374 " transform="matrix(0.0965926, 0, 0, -0.0965926, 0.57037, 25.191348)"/>
<path fill="none" stroke-width="4.49997" stroke-linecap="round" stroke-linejoin="miter" stroke="rgb(100%, 100%, 100%)" stroke-opacity="1" stroke-miterlimit="1" d="M 284.134155 149.548263 C 284.134155 149.548263 264.560966 99.240316 241.024612 149.710024 C 217.528698 200.139293 197.915069 149.831346 197.915069 149.831346 C 197.915069 149.831346 178.382321 99.482959 154.845967 149.912227 C 131.350053 200.341495 111.857745 149.588703 111.857745 149.588703 C 111.857745 149.588703 92.324998 99.240316 68.829084 149.710024 C 45.292729 200.139293 25.800422 149.871786 25.800422 149.871786 " transform="matrix(0.0965926, 0, 0, -0.0965926, 0.57037, 25.191348)"/>
<path fill="none" stroke-width="8.99994" stroke-linecap="round" stroke-linejoin="miter" stroke="rgb(100%, 100%, 100%)" stroke-opacity="1" stroke-miterlimit="1" d="M 25.800422 149.548263 C 25.800422 149.548263 45.37361 99.240316 68.909965 149.710024 C 92.405879 200.139293 112.019507 149.831346 112.019507 149.831346 C 112.019507 149.831346 131.592696 99.482959 155.08861 149.912227 C 178.584524 200.341495 198.076831 149.588703 198.076831 149.588703 C 198.076831 149.588703 217.609579 99.240316 241.105493 149.710024 C 264.601407 200.139293 284.134155 149.871786 284.134155 149.871786 " transform="matrix(0.0965926, 0, 0, -0.0965926, 0.57037, 25.191348)"/>
<path fill="none" stroke-width="4.49997" stroke-linecap="round" stroke-linejoin="miter" stroke="rgb(0%, 0%, 0%)" stroke-opacity="1" stroke-miterlimit="1" d="M 288.663487 149.548263 C 288.663487 149.548263 269.090299 99.240316 245.553945 149.710024 C 222.058031 200.139293 202.444402 149.831346 202.444402 149.831346 C 202.444402 149.831346 182.911654 99.482959 159.3753 149.912227 C 135.879386 200.341495 116.387078 149.588703 116.387078 149.588703 C 116.387078 149.588703 96.85433 99.240316 73.358416 149.710024 C 49.822062 200.139293 30.329755 149.871786 30.329755 149.871786 " transform="matrix(0.0965926, 0, 0, -0.0965926, 0.57037, 25.191348)"/>
<path fill="none" stroke-width="8.99994" stroke-linecap="round" stroke-linejoin="miter" stroke="rgb(0%, 0%, 0%)" stroke-opacity="1" stroke-miterlimit="1" d="M 30.329755 149.548263 C 30.329755 149.548263 49.902943 99.240316 73.439297 149.710024 C 96.935211 200.139293 116.54884 149.831346 116.54884 149.831346 C 116.54884 149.831346 136.122028 99.482959 159.617942 149.912227 C 183.113856 200.341495 202.606164 149.588703 202.606164 149.588703 C 202.606164 149.588703 222.098471 99.240316 245.634826 149.710024 C 269.13074 200.139293 288.663487 149.871786 288.663487 149.871786 " transform="matrix(0.0965926, 0, 0, -0.0965926, 0.57037, 25.191348)"/>
<path fill="none" stroke-width="4.49997" stroke-linecap="round" stroke-linejoin="miter" stroke="rgb(100%, 100%, 100%)" stroke-opacity="1" stroke-miterlimit="1" d="M 284.134155 149.548263 C 284.134155 149.548263 264.560966 99.240316 241.024612 149.710024 C 217.528698 200.139293 197.915069 149.831346 197.915069 149.831346 C 197.915069 149.831346 178.382321 99.482959 154.845967 149.912227 C 131.350053 200.341495 111.857745 149.588703 111.857745 149.588703 C 111.857745 149.588703 92.324998 99.240316 68.829084 149.710024 C 45.292729 200.139293 25.800422 149.871786 25.800422 149.871786 " transform="matrix(0.0965926, 0, 0, -0.0965926, 0.57037, 25.191348)"/>
<path fill="none" stroke-width="8.99994" stroke-linecap="round" stroke-linejoin="miter" stroke="rgb(100%, 100%, 100%)" stroke-opacity="1" stroke-miterlimit="1" d="M 25.800422 149.548263 C 25.800422 149.548263 45.37361 99.240316 68.909965 149.710024 C 92.405879 200.139293 112.019507 149.831346 112.019507 149.831346 C 112.019507 149.831346 131.592696 99.482959 155.08861 149.912227 C 178.584524 200.341495 198.076831 149.588703 198.076831 149.588703 C 198.076831 149.588703 217.609579 99.240316 241.105493 149.710024 C 264.601407 200.139293 284.134155 149.871786 284.134155 149.871786 " transform="matrix(0.0965926, 0, 0, -0.0965926, 0.57037, 25.191348)"/>
<path fill="none" stroke-width="4.49997" stroke-linecap="round" stroke-linejoin="miter" stroke="rgb(0%, 0%, 0%)" stroke-opacity="1" stroke-miterlimit="1" d="M 288.663487 149.548263 C 288.663487 149.548263 269.090299 99.240316 245.553945 149.710024 C 222.058031 200.139293 202.444402 149.831346 202.444402 149.831346 C 202.444402 149.831346 182.911654 99.482959 159.3753 149.912227 C 135.879386 200.341495 116.387078 149.588703 116.387078 149.588703 C 116.387078 149.588703 96.85433 99.240316 73.358416 149.710024 C 49.822062 200.139293 30.329755 149.871786 30.329755 149.871786 " transform="matrix(0.0965926, 0, 0, -0.0965926, 0.57037, 25.191348)"/>
<path fill="none" stroke-width="8.99994" stroke-linecap="round" stroke-linejoin="miter" stroke="rgb(0%, 0%, 0%)" stroke-opacity="1" stroke-miterlimit="1" d="M 30.329755 149.548263 C 30.329755 149.548263 49.902943 99.240316 73.439297 149.710024 C 96.935211 200.139293 116.54884 149.831346 116.54884 149.831346 C 116.54884 149.831346 136.122028 99.482959 159.617942 149.912227 C 183.113856 200.341495 202.606164 149.588703 202.606164 149.588703 C 202.606164 149.588703 222.098471 99.240316 245.634826 149.710024 C 269.13074 200.139293 288.663487 149.871786 288.663487 149.871786 " transform="matrix(0.0965926, 0, 0, -0.0965926, 0.57037, 25.191348)"/>
<path fill="none" stroke-width="4.49997" stroke-linecap="round" stroke-linejoin="miter" stroke="rgb(100%, 100%, 100%)" stroke-opacity="1" stroke-miterlimit="1" d="M 284.134155 149.548263 C 284.134155 149.548263 264.560966 99.240316 241.024612 149.710024 C 217.528698 200.139293 197.915069 149.831346 197.915069 149.831346 C 197.915069 149.831346 178.382321 99.482959 154.845967 149.912227 C 131.350053 200.341495 111.857745 149.588703 111.857745 149.588703 C 111.857745 149.588703 92.324998 99.240316 68.829084 149.710024 C 45.292729 200.139293 25.800422 149.871786 25.800422 149.871786 " transform="matrix(0.0965926, 0, 0, -0.0965926, 0.57037, 25.191348)"/>
<path fill="none" stroke-width="8.99994" stroke-linecap="round" stroke-linejoin="miter" stroke="rgb(100%, 100%, 100%)" stroke-opacity="1" stroke-miterlimit="1" d="M 25.800422 149.548263 C 25.800422 149.548263 45.37361 99.240316 68.909965 149.710024 C 92.405879 200.139293 112.019507 149.831346 112.019507 149.831346 C 112.019507 149.831346 131.592696 99.482959 155.08861 149.912227 C 178.584524 200.341495 198.076831 149.588703 198.076831 149.588703 C 198.076831 149.588703 217.609579 99.240316 241.105493 149.710024 C 264.601407 200.139293 284.134155 149.871786 284.134155 149.871786 " transform="matrix(0.0965926, 0, 0, -0.0965926, 0.57037, 25.191348)"/>
<path fill="none" stroke-width="4.49997" stroke-linecap="round" stroke-linejoin="miter" stroke="rgb(0%, 0%, 0%)" stroke-opacity="1" stroke-miterlimit="1" d="M 288.663487 52.976416 C 288.663487 52.976416 269.090299 2.66847 245.553945 53.138178 C 222.058031 103.567446 202.444402 53.2595 202.444402 53.2595 C 202.444402 53.2595 182.911654 2.911112 159.3753 53.340381 C 135.879386 103.769649 116.387078 53.016857 116.387078 53.016857 C 116.387078 53.016857 96.85433 2.66847 73.358416 53.138178 C 49.822062 103.567446 30.329755 53.2595 30.329755 53.2595 " transform="matrix(0.0965926, 0, 0, -0.0965926, 0.57037, 25.191348)"/>
<path fill="none" stroke-width="8.99994" stroke-linecap="round" stroke-linejoin="miter" stroke="rgb(0%, 0%, 0%)" stroke-opacity="1" stroke-miterlimit="1" d="M 30.329755 52.976416 C 30.329755 52.976416 49.902943 2.66847 73.439297 53.138178 C 96.935211 103.567446 116.54884 53.2595 116.54884 53.2595 C 116.54884 53.2595 136.122028 2.911112 159.617942 53.340381 C 183.113856 103.769649 202.606164 53.016857 202.606164 53.016857 C 202.606164 53.016857 222.098471 2.66847 245.634826 53.138178 C 269.13074 103.567446 288.663487 53.2595 288.663487 53.2595 " transform="matrix(0.0965926, 0, 0, -0.0965926, 0.57037, 25.191348)"/>
<path fill="none" stroke-width="4.49997" stroke-linecap="round" stroke-linejoin="miter" stroke="rgb(100%, 100%, 100%)" stroke-opacity="1" stroke-miterlimit="1" d="M 284.134155 52.976416 C 284.134155 52.976416 264.560966 2.66847 241.024612 53.138178 C 217.528698 103.567446 197.915069 53.2595 197.915069 53.2595 C 197.915069 53.2595 178.382321 2.911112 154.845967 53.340381 C 131.350053 103.769649 111.857745 53.016857 111.857745 53.016857 C 111.857745 53.016857 92.324998 2.66847 68.829084 53.138178 C 45.292729 103.567446 25.800422 53.29994 25.800422 53.29994 " transform="matrix(0.0965926, 0, 0, -0.0965926, 0.57037, 25.191348)"/>
<path fill="none" stroke-width="8.99994" stroke-linecap="round" stroke-linejoin="miter" stroke="rgb(100%, 100%, 100%)" stroke-opacity="1" stroke-miterlimit="1" d="M 25.800422 52.976416 C 25.800422 52.976416 45.37361 2.66847 68.909965 53.138178 C 92.405879 103.567446 112.019507 53.2595 112.019507 53.2595 C 112.019507 53.2595 131.592696 2.911112 155.08861 53.340381 C 178.584524 103.769649 198.076831 53.016857 198.076831 53.016857 C 198.076831 53.016857 217.609579 2.66847 241.105493 53.138178 C 264.601407 103.567446 284.134155 53.29994 284.134155 53.29994 " transform="matrix(0.0965926, 0, 0, -0.0965926, 0.57037, 25.191348)"/>
</svg>
