<?xml version="1.0" encoding="UTF-8"?>
<svg xmlns="http://www.w3.org/2000/svg" xmlns:xlink="http://www.w3.org/1999/xlink" width="24.26" height="34.42" viewBox="0 0 24.26 34.42">
<defs>
<clipPath id="clip-0">
<path clip-rule="nonzero" d="M 5 0.246094 L 12 0.246094 L 12 10 L 5 10 Z M 5 0.246094 "/>
</clipPath>
<clipPath id="clip-1">
<path clip-rule="nonzero" d="M 2 0.246094 L 14 0.246094 L 14 12 L 2 12 Z M 2 0.246094 "/>
</clipPath>
<clipPath id="clip-2">
<path clip-rule="nonzero" d="M 2 0.246094 L 13 0.246094 L 13 33.242188 L 2 33.242188 Z M 2 0.246094 "/>
</clipPath>
<clipPath id="clip-3">
<path clip-rule="nonzero" d="M 17 15 L 23.289062 15 L 23.289062 18 L 17 18 Z M 17 15 "/>
</clipPath>
</defs>
<g clip-path="url(#clip-0)">
<path fill-rule="nonzero" fill="rgb(3.115845%, 49.784851%, 74.839783%)" fill-opacity="1" d="M 10.128906 9.660156 L 5.09375 1.890625 L 6.4375 0.539062 L 11.640625 8.308594 L 10.128906 9.660156 "/>
</g>
<g clip-path="url(#clip-1)">
<path fill="none" stroke-width="4" stroke-linecap="butt" stroke-linejoin="miter" stroke="rgb(100%, 100%, 100%)" stroke-opacity="1" stroke-miterlimit="4" d="M 104.378671 247.001358 L 52.491241 327.066601 L 66.338623 340.994492 L 119.956977 260.929248 Z M 104.378671 247.001358 " transform="matrix(0.09704, 0, 0, -0.09704, 0, 33.629168)"/>
</g>
<path fill-rule="nonzero" fill="rgb(3.115845%, 49.784851%, 74.839783%)" fill-opacity="1" d="M 5.09375 32.972656 L 10.128906 25.203125 L 10.128906 9.660156 L 5.09375 1.890625 L 5.09375 32.972656 "/>
<g clip-path="url(#clip-2)">
<path fill="none" stroke-width="4" stroke-linecap="butt" stroke-linejoin="miter" stroke="rgb(100%, 100%, 100%)" stroke-opacity="1" stroke-miterlimit="4" d="M 52.491241 6.765373 L 104.378671 86.830616 L 104.378671 247.001358 L 52.491241 327.066601 Z M 52.491241 6.765373 " transform="matrix(0.09704, 0, 0, -0.09704, 0, 33.629168)"/>
</g>
<path fill="none" stroke-width="4" stroke-linecap="butt" stroke-linejoin="miter" stroke="rgb(100%, 100%, 100%)" stroke-opacity="1" stroke-miterlimit="4" d="M 104.378671 86.830616 L 104.378671 247.001358 " transform="matrix(0.09704, 0, 0, -0.09704, 0, 33.629168)"/>
<path fill="none" stroke-width="4" stroke-linecap="butt" stroke-linejoin="miter" stroke="rgb(100%, 100%, 100%)" stroke-opacity="1" stroke-miterlimit="4" d="M 104.378671 86.830616 L 104.378671 247.001358 " transform="matrix(0.09704, 0, 0, -0.09704, 0, 33.629168)"/>
<path fill-rule="nonzero" fill="rgb(3.115845%, 49.784851%, 74.839783%)" fill-opacity="1" d="M 17.863281 25.179688 L 17.863281 9.636719 L 19.207031 8.285156 L 19.207031 23.828125 L 17.863281 25.179688 "/>
<path fill="none" stroke-width="4" stroke-linecap="butt" stroke-linejoin="miter" stroke="rgb(100%, 100%, 100%)" stroke-opacity="1" stroke-miterlimit="4" d="M 184.081629 87.07214 L 184.081629 247.242882 L 197.929011 261.170772 L 197.929011 101.000031 Z M 184.081629 87.07214 " transform="matrix(0.09704, 0, 0, -0.09704, 0, 33.629168)"/>
<path fill-rule="nonzero" fill="rgb(3.115845%, 49.784851%, 74.839783%)" fill-opacity="1" d="M 17.863281 9.636719 L 10.144531 9.636719 L 11.652344 8.285156 L 19.207031 8.285156 L 17.863281 9.636719 "/>
<path fill="none" stroke-width="4" stroke-linecap="butt" stroke-linejoin="miter" stroke="rgb(100%, 100%, 100%)" stroke-opacity="1" stroke-miterlimit="4" d="M 184.081629 247.242882 L 104.539687 247.242882 L 120.077739 261.170772 L 197.929011 261.170772 Z M 184.081629 247.242882 " transform="matrix(0.09704, 0, 0, -0.09704, 0, 33.629168)"/>
<path fill-rule="nonzero" fill="rgb(3.115845%, 49.784851%, 74.839783%)" fill-opacity="1" d="M 10.144531 25.179688 L 17.863281 25.179688 L 17.863281 9.636719 L 10.144531 9.636719 Z M 10.144531 25.179688 "/>
<path fill="none" stroke-width="4" stroke-linecap="butt" stroke-linejoin="miter" stroke="rgb(100%, 100%, 100%)" stroke-opacity="1" stroke-miterlimit="4" d="M 104.539687 247.242882 L 104.539687 87.07214 L 184.081629 87.07214 L 184.081629 247.242882 Z M 104.539687 247.242882 " transform="matrix(0.09704, 0, 0, -0.09704, 0, 33.629168)"/>
<path fill="none" stroke-width="3.4" stroke-linecap="round" stroke-linejoin="round" stroke="rgb(100%, 100%, 100%)" stroke-opacity="1" stroke-miterlimit="1" d="M 104.539687 87.07214 L 184.081629 87.07214 " transform="matrix(0.09704, 0, 0, -0.09704, 0, 33.629168)"/>
<path fill="none" stroke-width="4" stroke-linecap="butt" stroke-linejoin="miter" stroke="rgb(100%, 100%, 100%)" stroke-opacity="1" stroke-miterlimit="4" d="M 184.081629 87.07214 L 184.081629 247.242882 " transform="matrix(0.09704, 0, 0, -0.09704, 0, 33.629168)"/>
<path fill="none" stroke-width="4" stroke-linecap="butt" stroke-linejoin="miter" stroke="rgb(100%, 100%, 100%)" stroke-opacity="1" stroke-miterlimit="4" d="M 184.081629 247.242882 L 104.539687 247.242882 " transform="matrix(0.09704, 0, 0, -0.09704, 0, 33.629168)"/>
<path fill="none" stroke-width="3.4" stroke-linecap="round" stroke-linejoin="round" stroke="rgb(100%, 100%, 100%)" stroke-opacity="1" stroke-miterlimit="1" d="M 104.539687 87.07214 L 184.081629 87.07214 " transform="matrix(0.09704, 0, 0, -0.09704, 0, 33.629168)"/>
<path fill="none" stroke-width="4" stroke-linecap="butt" stroke-linejoin="miter" stroke="rgb(100%, 100%, 100%)" stroke-opacity="1" stroke-miterlimit="4" d="M 184.081629 87.07214 L 184.081629 247.242882 " transform="matrix(0.09704, 0, 0, -0.09704, 0, 33.629168)"/>
<path fill="none" stroke-width="4" stroke-linecap="butt" stroke-linejoin="miter" stroke="rgb(100%, 100%, 100%)" stroke-opacity="1" stroke-miterlimit="4" d="M 184.081629 247.242882 L 104.539687 247.242882 " transform="matrix(0.09704, 0, 0, -0.09704, 0, 33.629168)"/>
<path fill="none" stroke-width="3.4" stroke-linecap="round" stroke-linejoin="round" stroke="rgb(100%, 100%, 100%)" stroke-opacity="1" stroke-miterlimit="4" d="M 103.895623 176.798349 L 53.819623 260.969502 " transform="matrix(0.09704, 0, 0, -0.09704, 0, 33.629168)"/>
<path fill="none" stroke-width="3.4" stroke-linecap="round" stroke-linejoin="round" stroke="rgb(100%, 100%, 100%)" stroke-opacity="1" stroke-miterlimit="4" d="M 103.895623 176.798349 L 53.819623 208.639278 " transform="matrix(0.09704, 0, 0, -0.09704, 0, 33.629168)"/>
<path fill="none" stroke-width="3.4" stroke-linecap="round" stroke-linejoin="round" stroke="rgb(100%, 100%, 100%)" stroke-opacity="1" stroke-miterlimit="4" d="M 103.895623 173.819551 L 53.819623 89.648398 " transform="matrix(0.09704, 0, 0, -0.09704, 0, 33.629168)"/>
<path fill="none" stroke-width="3.4" stroke-linecap="round" stroke-linejoin="round" stroke="rgb(100%, 100%, 100%)" stroke-opacity="1" stroke-miterlimit="4" d="M 103.895623 173.819551 L 53.819623 141.938368 " transform="matrix(0.09704, 0, 0, -0.09704, 0, 33.629168)"/>
<path fill="none" stroke-width="3.4" stroke-linecap="round" stroke-linejoin="round" stroke="rgb(100%, 100%, 100%)" stroke-opacity="1" stroke-miterlimit="4" d="M 103.895623 176.798349 L 53.819623 176.798349 " transform="matrix(0.09704, 0, 0, -0.09704, 0, 33.629168)"/>
<path fill="none" stroke-width="5" stroke-linecap="round" stroke-linejoin="round" stroke="rgb(3.115845%, 49.784851%, 74.839783%)" stroke-opacity="1" stroke-miterlimit="4" d="M 52.531495 260.325438 L 2.495749 260.325438 " transform="matrix(0.09704, 0, 0, -0.09704, 0, 33.629168)"/>
<path fill="none" stroke-width="5" stroke-linecap="round" stroke-linejoin="round" stroke="rgb(3.115845%, 49.784851%, 74.839783%)" stroke-opacity="1" stroke-miterlimit="4" d="M 52.531495 207.995213 L 2.495749 207.995213 " transform="matrix(0.09704, 0, 0, -0.09704, 0, 33.629168)"/>
<path fill="none" stroke-width="5" stroke-linecap="round" stroke-linejoin="round" stroke="rgb(3.115845%, 49.784851%, 74.839783%)" stroke-opacity="1" stroke-miterlimit="4" d="M 52.531495 175.027172 L 2.495749 175.027172 " transform="matrix(0.09704, 0, 0, -0.09704, 0, 33.629168)"/>
<path fill="none" stroke-width="5" stroke-linecap="round" stroke-linejoin="round" stroke="rgb(3.115845%, 49.784851%, 74.839783%)" stroke-opacity="1" stroke-miterlimit="4" d="M 52.531495 143.145989 L 2.495749 143.145989 " transform="matrix(0.09704, 0, 0, -0.09704, 0, 33.629168)"/>
<path fill="none" stroke-width="5" stroke-linecap="round" stroke-linejoin="round" stroke="rgb(3.115845%, 49.784851%, 74.839783%)" stroke-opacity="1" stroke-miterlimit="4" d="M 52.531495 89.688652 L 2.495749 89.688652 " transform="matrix(0.09704, 0, 0, -0.09704, 0, 33.629168)"/>
<g clip-path="url(#clip-3)">
<path fill="none" stroke-width="17" stroke-linecap="butt" stroke-linejoin="round" stroke="rgb(3.115845%, 49.784851%, 74.839783%)" stroke-opacity="1" stroke-miterlimit="4" d="M 242.651226 173.255995 L 190.321002 173.255995 " transform="matrix(0.09704, 0, 0, -0.09704, 0, 33.629168)"/>
</g>
</svg>
