<?xml version="1.0" encoding="UTF-8"?>
<svg xmlns="http://www.w3.org/2000/svg" xmlns:xlink="http://www.w3.org/1999/xlink" width="64.26" height="22.95" viewBox="0 0 64.26 22.95">
<defs>
<g>
<g id="glyph-0-0">
<path d="M 1.453125 -2.625 L 4.203125 -2.625 L 4.203125 -3.265625 L 1.453125 -3.265625 L 1.453125 -5.109375 L 4.578125 -5.109375 L 4.578125 -5.765625 L 0.71875 -5.765625 L 0.71875 0 L 1.453125 0 Z M 1.453125 -2.625 "/>
</g>
<g id="glyph-0-1">
<path d="M 0.703125 0 L 2.921875 0 C 4.375 0 5.265625 -1.09375 5.265625 -2.890625 C 5.265625 -4.671875 4.390625 -5.765625 2.921875 -5.765625 L 0.703125 -5.765625 Z M 1.4375 -0.640625 L 1.4375 -5.109375 L 2.796875 -5.109375 C 3.9375 -5.109375 4.53125 -4.34375 4.53125 -2.875 C 4.53125 -1.421875 3.9375 -0.640625 2.796875 -0.640625 Z M 1.4375 -0.640625 "/>
</g>
<g id="glyph-0-2">
<path d="M 1.53125 -5.765625 L 0.796875 -5.765625 L 0.796875 0 L 1.53125 0 Z M 1.53125 -5.765625 "/>
</g>
</g>
<clipPath id="clip-0">
<path clip-rule="nonzero" d="M 17 0.105469 L 63.269531 0.105469 L 63.269531 22.792969 L 17 22.792969 Z M 17 0.105469 "/>
</clipPath>
<clipPath id="clip-1">
<path clip-rule="nonzero" d="M 15 0.105469 L 63.269531 0.105469 L 63.269531 22.792969 L 15 22.792969 Z M 15 0.105469 "/>
</clipPath>
</defs>
<g clip-path="url(#clip-0)">
<path fill="none" stroke-width="4" stroke-linecap="butt" stroke-linejoin="miter" stroke="rgb(3.115845%, 49.784851%, 74.839783%)" stroke-opacity="1" stroke-miterlimit="4" d="M 408.755082 20.72143 C 523.024748 20.72143 615.641656 62.802064 615.641656 114.760781 C 615.641656 166.679987 523.024748 208.800133 408.755082 208.800133 C 294.485416 208.800133 201.868508 166.679987 201.868508 114.760781 C 201.868508 62.802064 294.485416 20.72143 408.755082 20.72143 Z M 408.755082 20.72143 " transform="matrix(0.0988615, 0, 0, -0.0988615, 0, 22.794646)"/>
</g>
<g fill="rgb(13.729858%, 12.159729%, 12.548828%)" fill-opacity="1">
<use xlink:href="#glyph-0-0" x="31.059923" y="14.291783"/>
<use xlink:href="#glyph-0-1" x="35.892275" y="14.291783"/>
<use xlink:href="#glyph-0-1" x="41.602517" y="14.291783"/>
<use xlink:href="#glyph-0-2" x="47.31276" y="14.291783"/>
</g>
<g clip-path="url(#clip-1)">
<path fill="none" stroke-width="4" stroke-linecap="butt" stroke-linejoin="miter" stroke="rgb(3.115845%, 49.784851%, 74.839783%)" stroke-opacity="1" stroke-miterlimit="4" d="M 408.755082 1.992584 C 536.77504 1.992584 640.61345 52.489345 640.61345 114.760781 C 640.61345 177.032218 536.77504 227.528979 408.755082 227.528979 C 280.695612 227.528979 176.896714 177.032218 176.896714 114.760781 C 176.896714 52.489345 280.695612 1.992584 408.755082 1.992584 Z M 408.755082 1.992584 " transform="matrix(0.0988615, 0, 0, -0.0988615, 0, 22.794646)"/>
</g>
<path fill="none" stroke-width="4" stroke-linecap="butt" stroke-linejoin="miter" stroke="rgb(3.115845%, 49.784851%, 74.839783%)" stroke-opacity="1" stroke-miterlimit="4" d="M 25.011307 99.746095 L 204.989982 99.746095 " transform="matrix(0.0988615, 0, 0, -0.0988615, 0, 22.794646)"/>
<path fill="none" stroke-width="4" stroke-linecap="butt" stroke-linejoin="miter" stroke="rgb(3.115845%, 49.784851%, 74.839783%)" stroke-opacity="1" stroke-miterlimit="4" d="M 0 123.493007 L 180.018188 123.493007 " transform="matrix(0.0988615, 0, 0, -0.0988615, 0, 22.794646)"/>
</svg>
