<?xml version="1.0" encoding="UTF-8"?>
<svg xmlns="http://www.w3.org/2000/svg" xmlns:xlink="http://www.w3.org/1999/xlink" width="21.39" height="30.51" viewBox="0 0 21.39 30.51">
<defs>
<clipPath id="clip-0">
<path clip-rule="nonzero" d="M 0 5 L 16 5 L 16 29.847656 L 0 29.847656 Z M 0 5 "/>
</clipPath>
<clipPath id="clip-1">
<path clip-rule="nonzero" d="M 0 0.195312 L 20.417969 0.195312 L 20.417969 29.847656 L 0 29.847656 Z M 0 0.195312 "/>
</clipPath>
<clipPath id="clip-2">
<path clip-rule="nonzero" d="M 15 0.195312 L 20.417969 0.195312 L 20.417969 6 L 15 6 Z M 15 0.195312 "/>
</clipPath>
<clipPath id="clip-3">
<path clip-rule="nonzero" d="M 0 5 L 16 5 L 16 29.847656 L 0 29.847656 Z M 0 5 "/>
</clipPath>
<clipPath id="clip-4">
<path clip-rule="nonzero" d="M 0 0.195312 L 20.417969 0.195312 L 20.417969 29.847656 L 0 29.847656 Z M 0 0.195312 "/>
</clipPath>
<clipPath id="clip-5">
<path clip-rule="nonzero" d="M 15 0.195312 L 20.417969 0.195312 L 20.417969 6 L 15 6 Z M 15 0.195312 "/>
</clipPath>
<clipPath id="clip-6">
<path clip-rule="nonzero" d="M 0 5 L 16 5 L 16 29.847656 L 0 29.847656 Z M 0 5 "/>
</clipPath>
<clipPath id="clip-7">
<path clip-rule="nonzero" d="M 0 0.195312 L 20.417969 0.195312 L 20.417969 29.847656 L 0 29.847656 Z M 0 0.195312 "/>
</clipPath>
<clipPath id="clip-8">
<path clip-rule="nonzero" d="M 13 0.195312 L 20.417969 0.195312 L 20.417969 8 L 13 8 Z M 13 0.195312 "/>
</clipPath>
</defs>
<g clip-path="url(#clip-0)">
<path fill-rule="nonzero" fill="rgb(3.115845%, 49.784851%, 74.839783%)" fill-opacity="1" d="M 0.664062 29.183594 L 15.625 29.183594 L 15.625 5.351562 L 0.664062 5.351562 Z M 0.664062 29.183594 "/>
</g>
<g clip-path="url(#clip-1)">
<path fill-rule="nonzero" fill="rgb(3.115845%, 49.784851%, 74.839783%)" fill-opacity="1" d="M 15.625 29.183594 L 20.402344 24.40625 L 20.402344 0.574219 L 5.441406 0.574219 L 0.664062 5.351562 L 15.625 5.351562 L 15.625 29.183594 "/>
</g>
<g clip-path="url(#clip-2)">
<path fill-rule="nonzero" fill="rgb(3.115845%, 49.784851%, 74.839783%)" fill-opacity="1" d="M 15.625 5.351562 L 20.402344 0.574219 "/>
</g>
<g clip-path="url(#clip-3)">
<path fill-rule="nonzero" fill="rgb(3.115845%, 49.784851%, 74.839783%)" fill-opacity="1" d="M 0.664062 29.183594 L 15.625 29.183594 L 15.625 5.351562 L 0.664062 5.351562 Z M 0.664062 29.183594 "/>
<path fill="none" stroke-width="4" stroke-linecap="butt" stroke-linejoin="miter" stroke="rgb(100%, 100%, 100%)" stroke-opacity="1" stroke-miterlimit="4" d="M 160.705937 251.958637 L 6.830002 251.958637 L 6.830002 6.841906 L 160.705937 6.841906 " transform="matrix(0.0972273, 0, 0, -0.0972273, 0, 29.848814)"/>
</g>
<g clip-path="url(#clip-4)">
<path fill-rule="nonzero" fill="rgb(3.115845%, 49.784851%, 74.839783%)" fill-opacity="1" d="M 15.625 29.183594 L 20.402344 24.40625 L 20.402344 0.574219 L 5.441406 0.574219 L 0.664062 5.351562 L 15.625 5.351562 L 15.625 29.183594 "/>
<path fill="none" stroke-width="4" stroke-linecap="butt" stroke-linejoin="miter" stroke="rgb(100%, 100%, 100%)" stroke-opacity="1" stroke-miterlimit="4" d="M 160.705937 6.841906 L 209.841778 55.977747 L 209.841778 301.094478 L 55.965843 301.094478 L 6.830002 251.958637 L 160.705937 251.958637 Z M 160.705937 6.841906 " transform="matrix(0.0972273, 0, 0, -0.0972273, 0, 29.848814)"/>
</g>
<g clip-path="url(#clip-5)">
<path fill-rule="nonzero" fill="rgb(13.729858%, 12.159729%, 12.548828%)" fill-opacity="1" stroke-width="4" stroke-linecap="round" stroke-linejoin="round" stroke="rgb(100%, 100%, 100%)" stroke-opacity="1" stroke-miterlimit="4" d="M 160.705937 251.958637 L 209.841778 301.094478 " transform="matrix(0.0972273, 0, 0, -0.0972273, 0, 29.848814)"/>
</g>
<g clip-path="url(#clip-6)">
<path fill="none" stroke-width="4" stroke-linecap="butt" stroke-linejoin="miter" stroke="rgb(100%, 100%, 100%)" stroke-opacity="1" stroke-miterlimit="4" d="M 160.705937 251.958637 L 6.830002 251.958637 L 6.830002 6.841906 L 160.705937 6.841906 " transform="matrix(0.0972273, 0, 0, -0.0972273, 0, 29.848814)"/>
</g>
<g clip-path="url(#clip-7)">
<path fill="none" stroke-width="4" stroke-linecap="butt" stroke-linejoin="miter" stroke="rgb(100%, 100%, 100%)" stroke-opacity="1" stroke-miterlimit="4" d="M 160.705937 6.841906 L 209.841778 55.977747 L 209.841778 301.094478 L 55.965843 301.094478 L 6.830002 251.958637 L 160.705937 251.958637 Z M 160.705937 6.841906 " transform="matrix(0.0972273, 0, 0, -0.0972273, 0, 29.848814)"/>
</g>
<g clip-path="url(#clip-8)">
<path fill="none" stroke-width="4" stroke-linecap="butt" stroke-linejoin="miter" stroke="rgb(100%, 100%, 100%)" stroke-opacity="1" stroke-miterlimit="4" d="M 160.705937 251.958637 L 209.841778 301.094478 " transform="matrix(0.0972273, 0, 0, -0.0972273, 0, 29.848814)"/>
</g>
<path fill-rule="nonzero" fill="rgb(100%, 100%, 100%)" fill-opacity="1" d="M 7.761719 23.425781 C 7.761719 24.015625 6.492188 24.496094 4.925781 24.496094 C 3.359375 24.496094 2.089844 24.015625 2.089844 23.425781 C 2.089844 22.835938 3.359375 22.355469 4.925781 22.355469 C 6.492188 22.355469 7.761719 22.835938 7.761719 23.425781 "/>
<path fill="none" stroke-width="3.5" stroke-linecap="round" stroke-linejoin="round" stroke="rgb(13.729858%, 12.159729%, 12.548828%)" stroke-opacity="1" stroke-miterlimit="4" d="M 79.830674 66.062044 C 79.830674 59.995395 66.773317 55.053687 50.662547 55.053687 C 34.551777 55.053687 21.494419 59.995395 21.494419 66.062044 C 21.494419 72.128693 34.551777 77.070401 50.662547 77.070401 C 66.773317 77.070401 79.830674 72.128693 79.830674 66.062044 Z M 79.830674 66.062044 " transform="matrix(0.0972273, 0, 0, -0.0972273, 0, 29.848814)"/>
<path fill-rule="nonzero" fill="rgb(13.729858%, 12.159729%, 12.548828%)" fill-opacity="1" d="M 5.765625 23.367188 C 5.765625 23.546875 5.382812 23.6875 4.914062 23.6875 C 4.441406 23.6875 4.0625 23.546875 4.0625 23.367188 C 4.0625 23.191406 4.441406 23.046875 4.914062 23.046875 C 5.382812 23.046875 5.765625 23.191406 5.765625 23.367188 "/>
<path fill-rule="nonzero" fill="rgb(13.729858%, 12.159729%, 12.548828%)" fill-opacity="1" d="M 5.765625 22.785156 C 5.765625 22.960938 5.382812 23.105469 4.914062 23.105469 C 4.441406 23.105469 4.0625 22.960938 4.0625 22.785156 C 4.0625 22.605469 4.441406 22.460938 4.914062 22.460938 C 5.382812 22.460938 5.765625 22.605469 5.765625 22.785156 "/>
<path fill-rule="nonzero" fill="rgb(100%, 100%, 100%)" fill-opacity="1" d="M 7.761719 22.257812 C 7.761719 22.851562 6.492188 23.328125 4.925781 23.328125 C 3.359375 23.328125 2.089844 22.851562 2.089844 22.257812 C 2.089844 21.667969 3.359375 21.1875 4.925781 21.1875 C 6.492188 21.1875 7.761719 21.667969 7.761719 22.257812 "/>
<path fill="none" stroke-width="3.5" stroke-linecap="round" stroke-linejoin="round" stroke="rgb(13.729858%, 12.159729%, 12.548828%)" stroke-opacity="1" stroke-miterlimit="4" d="M 79.830674 78.074813 C 79.830674 71.967987 66.773317 67.066456 50.662547 67.066456 C 34.551777 67.066456 21.494419 71.967987 21.494419 78.074813 C 21.494419 84.141462 34.551777 89.08317 50.662547 89.08317 C 66.773317 89.08317 79.830674 84.141462 79.830674 78.074813 Z M 79.830674 78.074813 " transform="matrix(0.0972273, 0, 0, -0.0972273, 0, 29.848814)"/>
<path fill-rule="nonzero" fill="rgb(13.729858%, 12.159729%, 12.548828%)" fill-opacity="1" d="M 5.765625 22.199219 C 5.765625 22.378906 5.382812 22.523438 4.914062 22.523438 C 4.441406 22.523438 4.0625 22.378906 4.0625 22.199219 C 4.0625 22.023438 4.441406 21.878906 4.914062 21.878906 C 5.382812 21.878906 5.765625 22.023438 5.765625 22.199219 "/>
<path fill-rule="nonzero" fill="rgb(13.729858%, 12.159729%, 12.548828%)" fill-opacity="1" d="M 5.765625 21.617188 C 5.765625 21.792969 5.382812 21.9375 4.914062 21.9375 C 4.441406 21.9375 4.0625 21.792969 4.0625 21.617188 C 4.0625 21.4375 4.441406 21.296875 4.914062 21.296875 C 5.382812 21.296875 5.765625 21.4375 5.765625 21.617188 "/>
<path fill-rule="nonzero" fill="rgb(100%, 100%, 100%)" fill-opacity="1" d="M 7.761719 21.09375 C 7.761719 21.683594 6.492188 22.160156 4.925781 22.160156 C 3.359375 22.160156 2.089844 21.683594 2.089844 21.09375 C 2.089844 20.5 3.359375 20.023438 4.925781 20.023438 C 6.492188 20.023438 7.761719 20.5 7.761719 21.09375 "/>
<path fill="none" stroke-width="3.5" stroke-linecap="round" stroke-linejoin="round" stroke="rgb(13.729858%, 12.159729%, 12.548828%)" stroke-opacity="1" stroke-miterlimit="4" d="M 79.830674 90.047405 C 79.830674 83.980756 66.773317 79.079225 50.662547 79.079225 C 34.551777 79.079225 21.494419 83.980756 21.494419 90.047405 C 21.494419 96.154231 34.551777 101.055762 50.662547 101.055762 C 66.773317 101.055762 79.830674 96.154231 79.830674 90.047405 Z M 79.830674 90.047405 " transform="matrix(0.0972273, 0, 0, -0.0972273, 0, 29.848814)"/>
<path fill-rule="nonzero" fill="rgb(13.729858%, 12.159729%, 12.548828%)" fill-opacity="1" d="M 5.765625 21.035156 C 5.765625 21.210938 5.382812 21.355469 4.914062 21.355469 C 4.441406 21.355469 4.0625 21.210938 4.0625 21.035156 C 4.0625 20.855469 4.441406 20.714844 4.914062 20.714844 C 5.382812 20.714844 5.765625 20.855469 5.765625 21.035156 "/>
<path fill-rule="nonzero" fill="rgb(100%, 100%, 100%)" fill-opacity="1" d="M 7.761719 18.757812 C 7.761719 19.347656 6.492188 19.828125 4.925781 19.828125 C 3.359375 19.828125 2.089844 19.347656 2.089844 18.757812 C 2.089844 18.167969 3.359375 17.6875 4.925781 17.6875 C 6.492188 17.6875 7.761719 18.167969 7.761719 18.757812 "/>
<path fill="none" stroke-width="3.5" stroke-linecap="round" stroke-linejoin="round" stroke="rgb(13.729858%, 12.159729%, 12.548828%)" stroke-opacity="1" stroke-miterlimit="4" d="M 79.830674 114.072943 C 79.830674 108.006294 66.773317 103.064586 50.662547 103.064586 C 34.551777 103.064586 21.494419 108.006294 21.494419 114.072943 C 21.494419 120.139592 34.551777 125.0813 50.662547 125.0813 C 66.773317 125.0813 79.830674 120.139592 79.830674 114.072943 Z M 79.830674 114.072943 " transform="matrix(0.0972273, 0, 0, -0.0972273, 0, 29.848814)"/>
<path fill-rule="nonzero" fill="rgb(13.729858%, 12.159729%, 12.548828%)" fill-opacity="1" d="M 5.765625 18.699219 C 5.765625 18.878906 5.382812 19.023438 4.914062 19.023438 C 4.441406 19.023438 4.0625 18.878906 4.0625 18.699219 C 4.0625 18.523438 4.441406 18.378906 4.914062 18.378906 C 5.382812 18.378906 5.765625 18.523438 5.765625 18.699219 "/>
<path fill-rule="nonzero" fill="rgb(13.729858%, 12.159729%, 12.548828%)" fill-opacity="1" d="M 5.765625 18.117188 C 5.765625 18.292969 5.382812 18.4375 4.914062 18.4375 C 4.441406 18.4375 4.0625 18.292969 4.0625 18.117188 C 4.0625 17.941406 4.441406 17.796875 4.914062 17.796875 C 5.382812 17.796875 5.765625 17.941406 5.765625 18.117188 "/>
<path fill-rule="nonzero" fill="rgb(100%, 100%, 100%)" fill-opacity="1" d="M 7.761719 17.589844 C 7.761719 18.183594 6.492188 18.660156 4.925781 18.660156 C 3.359375 18.660156 2.089844 18.183594 2.089844 17.589844 C 2.089844 17 3.359375 16.523438 4.925781 16.523438 C 6.492188 16.523438 7.761719 17 7.761719 17.589844 "/>
<path fill="none" stroke-width="3.5" stroke-linecap="round" stroke-linejoin="round" stroke="rgb(13.729858%, 12.159729%, 12.548828%)" stroke-opacity="1" stroke-miterlimit="4" d="M 79.830674 126.085712 C 79.830674 119.978886 66.773317 115.077355 50.662547 115.077355 C 34.551777 115.077355 21.494419 119.978886 21.494419 126.085712 C 21.494419 132.152361 34.551777 137.053892 50.662547 137.053892 C 66.773317 137.053892 79.830674 132.152361 79.830674 126.085712 Z M 79.830674 126.085712 " transform="matrix(0.0972273, 0, 0, -0.0972273, 0, 29.848814)"/>
<path fill-rule="nonzero" fill="rgb(13.729858%, 12.159729%, 12.548828%)" fill-opacity="1" d="M 5.765625 17.535156 C 5.765625 17.710938 5.382812 17.855469 4.914062 17.855469 C 4.441406 17.855469 4.0625 17.710938 4.0625 17.535156 C 4.0625 17.355469 4.441406 17.210938 4.914062 17.210938 C 5.382812 17.210938 5.765625 17.355469 5.765625 17.535156 "/>
<path fill-rule="nonzero" fill="rgb(13.729858%, 12.159729%, 12.548828%)" fill-opacity="1" d="M 5.765625 16.949219 C 5.765625 17.125 5.382812 17.269531 4.914062 17.269531 C 4.441406 17.269531 4.0625 17.125 4.0625 16.949219 C 4.0625 16.773438 4.441406 16.628906 4.914062 16.628906 C 5.382812 16.628906 5.765625 16.773438 5.765625 16.949219 "/>
<path fill-rule="nonzero" fill="rgb(100%, 100%, 100%)" fill-opacity="1" d="M 7.761719 16.425781 C 7.761719 17.015625 6.492188 17.496094 4.925781 17.496094 C 3.359375 17.496094 2.089844 17.015625 2.089844 16.425781 C 2.089844 15.832031 3.359375 15.355469 4.925781 15.355469 C 6.492188 15.355469 7.761719 15.832031 7.761719 16.425781 "/>
<path fill="none" stroke-width="3.5" stroke-linecap="round" stroke-linejoin="round" stroke="rgb(13.729858%, 12.159729%, 12.548828%)" stroke-opacity="1" stroke-miterlimit="4" d="M 79.830674 138.058304 C 79.830674 131.991655 66.773317 127.049947 50.662547 127.049947 C 34.551777 127.049947 21.494419 131.991655 21.494419 138.058304 C 21.494419 144.16513 34.551777 149.066661 50.662547 149.066661 C 66.773317 149.066661 79.830674 144.16513 79.830674 138.058304 Z M 79.830674 138.058304 " transform="matrix(0.0972273, 0, 0, -0.0972273, 0, 29.848814)"/>
<path fill-rule="nonzero" fill="rgb(13.729858%, 12.159729%, 12.548828%)" fill-opacity="1" d="M 5.765625 16.367188 C 5.765625 16.542969 5.382812 16.6875 4.914062 16.6875 C 4.441406 16.6875 4.0625 16.542969 4.0625 16.367188 C 4.0625 16.191406 4.441406 16.046875 4.914062 16.046875 C 5.382812 16.046875 5.765625 16.191406 5.765625 16.367188 "/>
<path fill-rule="nonzero" fill="rgb(100%, 100%, 100%)" fill-opacity="1" d="M 7.761719 14.09375 C 7.761719 14.683594 6.492188 15.160156 4.925781 15.160156 C 3.359375 15.160156 2.089844 14.683594 2.089844 14.09375 C 2.089844 13.5 3.359375 13.023438 4.925781 13.023438 C 6.492188 13.023438 7.761719 13.5 7.761719 14.09375 "/>
<path fill="none" stroke-width="3.5" stroke-linecap="round" stroke-linejoin="round" stroke="rgb(13.729858%, 12.159729%, 12.548828%)" stroke-opacity="1" stroke-miterlimit="4" d="M 79.830674 162.043665 C 79.830674 155.977016 66.773317 151.075485 50.662547 151.075485 C 34.551777 151.075485 21.494419 155.977016 21.494419 162.043665 C 21.494419 168.150491 34.551777 173.052022 50.662547 173.052022 C 66.773317 173.052022 79.830674 168.150491 79.830674 162.043665 Z M 79.830674 162.043665 " transform="matrix(0.0972273, 0, 0, -0.0972273, 0, 29.848814)"/>
<path fill-rule="nonzero" fill="rgb(13.729858%, 12.159729%, 12.548828%)" fill-opacity="1" d="M 5.765625 14.03125 C 5.765625 14.210938 5.382812 14.355469 4.914062 14.355469 C 4.441406 14.355469 4.0625 14.210938 4.0625 14.03125 C 4.0625 13.855469 4.441406 13.710938 4.914062 13.710938 C 5.382812 13.710938 5.765625 13.855469 5.765625 14.03125 "/>
<path fill-rule="nonzero" fill="rgb(13.729858%, 12.159729%, 12.548828%)" fill-opacity="1" d="M 5.765625 13.449219 C 5.765625 13.625 5.382812 13.769531 4.914062 13.769531 C 4.441406 13.769531 4.0625 13.625 4.0625 13.449219 C 4.0625 13.273438 4.441406 13.128906 4.914062 13.128906 C 5.382812 13.128906 5.765625 13.273438 5.765625 13.449219 "/>
<path fill-rule="nonzero" fill="rgb(100%, 100%, 100%)" fill-opacity="1" d="M 7.761719 12.925781 C 7.761719 13.515625 6.492188 13.992188 4.925781 13.992188 C 3.359375 13.992188 2.089844 13.515625 2.089844 12.925781 C 2.089844 12.332031 3.359375 11.855469 4.925781 11.855469 C 6.492188 11.855469 7.761719 12.332031 7.761719 12.925781 "/>
<path fill="none" stroke-width="3.5" stroke-linecap="round" stroke-linejoin="round" stroke="rgb(13.729858%, 12.159729%, 12.548828%)" stroke-opacity="1" stroke-miterlimit="4" d="M 79.830674 174.056434 C 79.830674 167.989785 66.773317 163.088254 50.662547 163.088254 C 34.551777 163.088254 21.494419 167.989785 21.494419 174.056434 C 21.494419 180.16326 34.551777 185.064791 50.662547 185.064791 C 66.773317 185.064791 79.830674 180.16326 79.830674 174.056434 Z M 79.830674 174.056434 " transform="matrix(0.0972273, 0, 0, -0.0972273, 0, 29.848814)"/>
<path fill-rule="nonzero" fill="rgb(13.729858%, 12.159729%, 12.548828%)" fill-opacity="1" d="M 5.765625 12.867188 C 5.765625 13.042969 5.382812 13.1875 4.914062 13.1875 C 4.441406 13.1875 4.0625 13.042969 4.0625 12.867188 C 4.0625 12.6875 4.441406 12.546875 4.914062 12.546875 C 5.382812 12.546875 5.765625 12.6875 5.765625 12.867188 "/>
<path fill-rule="nonzero" fill="rgb(13.729858%, 12.159729%, 12.548828%)" fill-opacity="1" d="M 5.765625 12.285156 C 5.765625 12.460938 5.382812 12.601562 4.914062 12.601562 C 4.441406 12.601562 4.0625 12.460938 4.0625 12.285156 C 4.0625 12.105469 4.441406 11.964844 4.914062 11.964844 C 5.382812 11.964844 5.765625 12.105469 5.765625 12.285156 "/>
<path fill-rule="nonzero" fill="rgb(100%, 100%, 100%)" fill-opacity="1" d="M 7.761719 11.757812 C 7.761719 12.347656 6.492188 12.828125 4.925781 12.828125 C 3.359375 12.828125 2.089844 12.347656 2.089844 11.757812 C 2.089844 11.167969 3.359375 10.6875 4.925781 10.6875 C 6.492188 10.6875 7.761719 11.167969 7.761719 11.757812 "/>
<path fill="none" stroke-width="3.5" stroke-linecap="round" stroke-linejoin="round" stroke="rgb(13.729858%, 12.159729%, 12.548828%)" stroke-opacity="1" stroke-miterlimit="4" d="M 79.830674 186.069203 C 79.830674 180.002554 66.773317 175.060846 50.662547 175.060846 C 34.551777 175.060846 21.494419 180.002554 21.494419 186.069203 C 21.494419 192.135852 34.551777 197.07756 50.662547 197.07756 C 66.773317 197.07756 79.830674 192.135852 79.830674 186.069203 Z M 79.830674 186.069203 " transform="matrix(0.0972273, 0, 0, -0.0972273, 0, 29.848814)"/>
<path fill-rule="nonzero" fill="rgb(13.729858%, 12.159729%, 12.548828%)" fill-opacity="1" d="M 5.765625 11.703125 C 5.765625 11.878906 5.382812 12.019531 4.914062 12.019531 C 4.441406 12.019531 4.0625 11.878906 4.0625 11.703125 C 4.0625 11.523438 4.441406 11.378906 4.914062 11.378906 C 5.382812 11.378906 5.765625 11.523438 5.765625 11.703125 "/>
<path fill-rule="nonzero" fill="rgb(100%, 100%, 100%)" fill-opacity="1" d="M 14.082031 23.425781 C 14.082031 24.015625 12.8125 24.496094 11.246094 24.496094 C 9.679688 24.496094 8.410156 24.015625 8.410156 23.425781 C 8.410156 22.835938 9.679688 22.355469 11.246094 22.355469 C 12.8125 22.355469 14.082031 22.835938 14.082031 23.425781 "/>
<path fill="none" stroke-width="3.5" stroke-linecap="round" stroke-linejoin="round" stroke="rgb(13.729858%, 12.159729%, 12.548828%)" stroke-opacity="1" stroke-miterlimit="4" d="M 144.836226 66.062044 C 144.836226 59.995395 131.778869 55.053687 115.668098 55.053687 C 99.557328 55.053687 86.499971 59.995395 86.499971 66.062044 C 86.499971 72.128693 99.557328 77.070401 115.668098 77.070401 C 131.778869 77.070401 144.836226 72.128693 144.836226 66.062044 Z M 144.836226 66.062044 " transform="matrix(0.0972273, 0, 0, -0.0972273, 0, 29.848814)"/>
<path fill-rule="nonzero" fill="rgb(13.729858%, 12.159729%, 12.548828%)" fill-opacity="1" d="M 12.082031 23.367188 C 12.082031 23.546875 11.703125 23.6875 11.234375 23.6875 C 10.761719 23.6875 10.382812 23.546875 10.382812 23.367188 C 10.382812 23.191406 10.761719 23.046875 11.234375 23.046875 C 11.703125 23.046875 12.082031 23.191406 12.082031 23.367188 "/>
<path fill-rule="nonzero" fill="rgb(13.729858%, 12.159729%, 12.548828%)" fill-opacity="1" d="M 12.082031 22.785156 C 12.082031 22.960938 11.703125 23.105469 11.234375 23.105469 C 10.761719 23.105469 10.382812 22.960938 10.382812 22.785156 C 10.382812 22.605469 10.761719 22.460938 11.234375 22.460938 C 11.703125 22.460938 12.082031 22.605469 12.082031 22.785156 "/>
<path fill-rule="nonzero" fill="rgb(100%, 100%, 100%)" fill-opacity="1" d="M 14.082031 22.257812 C 14.082031 22.851562 12.8125 23.328125 11.246094 23.328125 C 9.679688 23.328125 8.410156 22.851562 8.410156 22.257812 C 8.410156 21.667969 9.679688 21.1875 11.246094 21.1875 C 12.8125 21.1875 14.082031 21.667969 14.082031 22.257812 "/>
<path fill="none" stroke-width="3.5" stroke-linecap="round" stroke-linejoin="round" stroke="rgb(13.729858%, 12.159729%, 12.548828%)" stroke-opacity="1" stroke-miterlimit="4" d="M 144.836226 78.074813 C 144.836226 71.967987 131.778869 67.066456 115.668098 67.066456 C 99.557328 67.066456 86.499971 71.967987 86.499971 78.074813 C 86.499971 84.141462 99.557328 89.08317 115.668098 89.08317 C 131.778869 89.08317 144.836226 84.141462 144.836226 78.074813 Z M 144.836226 78.074813 " transform="matrix(0.0972273, 0, 0, -0.0972273, 0, 29.848814)"/>
<path fill-rule="nonzero" fill="rgb(13.729858%, 12.159729%, 12.548828%)" fill-opacity="1" d="M 12.082031 22.199219 C 12.082031 22.378906 11.703125 22.523438 11.234375 22.523438 C 10.761719 22.523438 10.382812 22.378906 10.382812 22.199219 C 10.382812 22.023438 10.761719 21.878906 11.234375 21.878906 C 11.703125 21.878906 12.082031 22.023438 12.082031 22.199219 "/>
<path fill-rule="nonzero" fill="rgb(13.729858%, 12.159729%, 12.548828%)" fill-opacity="1" d="M 12.082031 21.617188 C 12.082031 21.792969 11.703125 21.9375 11.234375 21.9375 C 10.761719 21.9375 10.382812 21.792969 10.382812 21.617188 C 10.382812 21.4375 10.761719 21.296875 11.234375 21.296875 C 11.703125 21.296875 12.082031 21.4375 12.082031 21.617188 "/>
<path fill-rule="nonzero" fill="rgb(100%, 100%, 100%)" fill-opacity="1" d="M 14.082031 21.09375 C 14.082031 21.683594 12.8125 22.160156 11.246094 22.160156 C 9.679688 22.160156 8.410156 21.683594 8.410156 21.09375 C 8.410156 20.5 9.679688 20.023438 11.246094 20.023438 C 12.8125 20.023438 14.082031 20.5 14.082031 21.09375 "/>
<path fill="none" stroke-width="3.5" stroke-linecap="round" stroke-linejoin="round" stroke="rgb(13.729858%, 12.159729%, 12.548828%)" stroke-opacity="1" stroke-miterlimit="4" d="M 144.836226 90.047405 C 144.836226 83.980756 131.778869 79.079225 115.668098 79.079225 C 99.557328 79.079225 86.499971 83.980756 86.499971 90.047405 C 86.499971 96.154231 99.557328 101.055762 115.668098 101.055762 C 131.778869 101.055762 144.836226 96.154231 144.836226 90.047405 Z M 144.836226 90.047405 " transform="matrix(0.0972273, 0, 0, -0.0972273, 0, 29.848814)"/>
<path fill-rule="nonzero" fill="rgb(13.729858%, 12.159729%, 12.548828%)" fill-opacity="1" d="M 12.082031 21.035156 C 12.082031 21.210938 11.703125 21.355469 11.234375 21.355469 C 10.761719 21.355469 10.382812 21.210938 10.382812 21.035156 C 10.382812 20.855469 10.761719 20.714844 11.234375 20.714844 C 11.703125 20.714844 12.082031 20.855469 12.082031 21.035156 "/>
<path fill-rule="nonzero" fill="rgb(100%, 100%, 100%)" fill-opacity="1" d="M 14.082031 18.757812 C 14.082031 19.347656 12.8125 19.828125 11.246094 19.828125 C 9.679688 19.828125 8.410156 19.347656 8.410156 18.757812 C 8.410156 18.167969 9.679688 17.6875 11.246094 17.6875 C 12.8125 17.6875 14.082031 18.167969 14.082031 18.757812 "/>
<path fill="none" stroke-width="3.5" stroke-linecap="round" stroke-linejoin="round" stroke="rgb(13.729858%, 12.159729%, 12.548828%)" stroke-opacity="1" stroke-miterlimit="4" d="M 144.836226 114.072943 C 144.836226 108.006294 131.778869 103.064586 115.668098 103.064586 C 99.557328 103.064586 86.499971 108.006294 86.499971 114.072943 C 86.499971 120.139592 99.557328 125.0813 115.668098 125.0813 C 131.778869 125.0813 144.836226 120.139592 144.836226 114.072943 Z M 144.836226 114.072943 " transform="matrix(0.0972273, 0, 0, -0.0972273, 0, 29.848814)"/>
<path fill-rule="nonzero" fill="rgb(13.729858%, 12.159729%, 12.548828%)" fill-opacity="1" d="M 12.082031 18.699219 C 12.082031 18.878906 11.703125 19.023438 11.234375 19.023438 C 10.761719 19.023438 10.382812 18.878906 10.382812 18.699219 C 10.382812 18.523438 10.761719 18.378906 11.234375 18.378906 C 11.703125 18.378906 12.082031 18.523438 12.082031 18.699219 "/>
<path fill-rule="nonzero" fill="rgb(13.729858%, 12.159729%, 12.548828%)" fill-opacity="1" d="M 12.082031 18.117188 C 12.082031 18.292969 11.703125 18.4375 11.234375 18.4375 C 10.761719 18.4375 10.382812 18.292969 10.382812 18.117188 C 10.382812 17.941406 10.761719 17.796875 11.234375 17.796875 C 11.703125 17.796875 12.082031 17.941406 12.082031 18.117188 "/>
<path fill-rule="nonzero" fill="rgb(100%, 100%, 100%)" fill-opacity="1" d="M 14.082031 17.589844 C 14.082031 18.183594 12.8125 18.660156 11.246094 18.660156 C 9.679688 18.660156 8.410156 18.183594 8.410156 17.589844 C 8.410156 17 9.679688 16.523438 11.246094 16.523438 C 12.8125 16.523438 14.082031 17 14.082031 17.589844 "/>
<path fill="none" stroke-width="3.5" stroke-linecap="round" stroke-linejoin="round" stroke="rgb(13.729858%, 12.159729%, 12.548828%)" stroke-opacity="1" stroke-miterlimit="4" d="M 144.836226 126.085712 C 144.836226 119.978886 131.778869 115.077355 115.668098 115.077355 C 99.557328 115.077355 86.499971 119.978886 86.499971 126.085712 C 86.499971 132.152361 99.557328 137.053892 115.668098 137.053892 C 131.778869 137.053892 144.836226 132.152361 144.836226 126.085712 Z M 144.836226 126.085712 " transform="matrix(0.0972273, 0, 0, -0.0972273, 0, 29.848814)"/>
<path fill-rule="nonzero" fill="rgb(13.729858%, 12.159729%, 12.548828%)" fill-opacity="1" d="M 12.082031 17.535156 C 12.082031 17.710938 11.703125 17.855469 11.234375 17.855469 C 10.761719 17.855469 10.382812 17.710938 10.382812 17.535156 C 10.382812 17.355469 10.761719 17.210938 11.234375 17.210938 C 11.703125 17.210938 12.082031 17.355469 12.082031 17.535156 "/>
<path fill-rule="nonzero" fill="rgb(13.729858%, 12.159729%, 12.548828%)" fill-opacity="1" d="M 12.082031 16.949219 C 12.082031 17.125 11.703125 17.269531 11.234375 17.269531 C 10.761719 17.269531 10.382812 17.125 10.382812 16.949219 C 10.382812 16.773438 10.761719 16.628906 11.234375 16.628906 C 11.703125 16.628906 12.082031 16.773438 12.082031 16.949219 "/>
<path fill-rule="nonzero" fill="rgb(100%, 100%, 100%)" fill-opacity="1" d="M 14.082031 16.425781 C 14.082031 17.015625 12.8125 17.496094 11.246094 17.496094 C 9.679688 17.496094 8.410156 17.015625 8.410156 16.425781 C 8.410156 15.832031 9.679688 15.355469 11.246094 15.355469 C 12.8125 15.355469 14.082031 15.832031 14.082031 16.425781 "/>
<path fill="none" stroke-width="3.5" stroke-linecap="round" stroke-linejoin="round" stroke="rgb(13.729858%, 12.159729%, 12.548828%)" stroke-opacity="1" stroke-miterlimit="4" d="M 144.836226 138.058304 C 144.836226 131.991655 131.778869 127.049947 115.668098 127.049947 C 99.557328 127.049947 86.499971 131.991655 86.499971 138.058304 C 86.499971 144.16513 99.557328 149.066661 115.668098 149.066661 C 131.778869 149.066661 144.836226 144.16513 144.836226 138.058304 Z M 144.836226 138.058304 " transform="matrix(0.0972273, 0, 0, -0.0972273, 0, 29.848814)"/>
<path fill-rule="nonzero" fill="rgb(13.729858%, 12.159729%, 12.548828%)" fill-opacity="1" d="M 12.082031 16.367188 C 12.082031 16.542969 11.703125 16.6875 11.234375 16.6875 C 10.761719 16.6875 10.382812 16.542969 10.382812 16.367188 C 10.382812 16.191406 10.761719 16.046875 11.234375 16.046875 C 11.703125 16.046875 12.082031 16.191406 12.082031 16.367188 "/>
<path fill-rule="nonzero" fill="rgb(100%, 100%, 100%)" fill-opacity="1" d="M 14.082031 14.09375 C 14.082031 14.683594 12.8125 15.160156 11.246094 15.160156 C 9.679688 15.160156 8.410156 14.683594 8.410156 14.09375 C 8.410156 13.5 9.679688 13.023438 11.246094 13.023438 C 12.8125 13.023438 14.082031 13.5 14.082031 14.09375 "/>
<path fill="none" stroke-width="3.5" stroke-linecap="round" stroke-linejoin="round" stroke="rgb(13.729858%, 12.159729%, 12.548828%)" stroke-opacity="1" stroke-miterlimit="4" d="M 144.836226 162.043665 C 144.836226 155.977016 131.778869 151.075485 115.668098 151.075485 C 99.557328 151.075485 86.499971 155.977016 86.499971 162.043665 C 86.499971 168.150491 99.557328 173.052022 115.668098 173.052022 C 131.778869 173.052022 144.836226 168.150491 144.836226 162.043665 Z M 144.836226 162.043665 " transform="matrix(0.0972273, 0, 0, -0.0972273, 0, 29.848814)"/>
<path fill-rule="nonzero" fill="rgb(13.729858%, 12.159729%, 12.548828%)" fill-opacity="1" d="M 12.082031 14.03125 C 12.082031 14.210938 11.703125 14.355469 11.234375 14.355469 C 10.761719 14.355469 10.382812 14.210938 10.382812 14.03125 C 10.382812 13.855469 10.761719 13.710938 11.234375 13.710938 C 11.703125 13.710938 12.082031 13.855469 12.082031 14.03125 "/>
<path fill-rule="nonzero" fill="rgb(13.729858%, 12.159729%, 12.548828%)" fill-opacity="1" d="M 12.082031 13.449219 C 12.082031 13.625 11.703125 13.769531 11.234375 13.769531 C 10.761719 13.769531 10.382812 13.625 10.382812 13.449219 C 10.382812 13.273438 10.761719 13.128906 11.234375 13.128906 C 11.703125 13.128906 12.082031 13.273438 12.082031 13.449219 "/>
<path fill-rule="nonzero" fill="rgb(100%, 100%, 100%)" fill-opacity="1" d="M 14.082031 12.925781 C 14.082031 13.515625 12.8125 13.992188 11.246094 13.992188 C 9.679688 13.992188 8.410156 13.515625 8.410156 12.925781 C 8.410156 12.332031 9.679688 11.855469 11.246094 11.855469 C 12.8125 11.855469 14.082031 12.332031 14.082031 12.925781 "/>
<path fill="none" stroke-width="3.5" stroke-linecap="round" stroke-linejoin="round" stroke="rgb(13.729858%, 12.159729%, 12.548828%)" stroke-opacity="1" stroke-miterlimit="4" d="M 144.836226 174.056434 C 144.836226 167.989785 131.778869 163.088254 115.668098 163.088254 C 99.557328 163.088254 86.499971 167.989785 86.499971 174.056434 C 86.499971 180.16326 99.557328 185.064791 115.668098 185.064791 C 131.778869 185.064791 144.836226 180.16326 144.836226 174.056434 Z M 144.836226 174.056434 " transform="matrix(0.0972273, 0, 0, -0.0972273, 0, 29.848814)"/>
<path fill-rule="nonzero" fill="rgb(13.729858%, 12.159729%, 12.548828%)" fill-opacity="1" d="M 12.082031 12.867188 C 12.082031 13.042969 11.703125 13.1875 11.234375 13.1875 C 10.761719 13.1875 10.382812 13.042969 10.382812 12.867188 C 10.382812 12.6875 10.761719 12.546875 11.234375 12.546875 C 11.703125 12.546875 12.082031 12.6875 12.082031 12.867188 "/>
<path fill-rule="nonzero" fill="rgb(13.729858%, 12.159729%, 12.548828%)" fill-opacity="1" d="M 12.082031 12.285156 C 12.082031 12.460938 11.703125 12.601562 11.234375 12.601562 C 10.761719 12.601562 10.382812 12.460938 10.382812 12.285156 C 10.382812 12.105469 10.761719 11.964844 11.234375 11.964844 C 11.703125 11.964844 12.082031 12.105469 12.082031 12.285156 "/>
<path fill-rule="nonzero" fill="rgb(100%, 100%, 100%)" fill-opacity="1" d="M 14.082031 11.757812 C 14.082031 12.347656 12.8125 12.828125 11.246094 12.828125 C 9.679688 12.828125 8.410156 12.347656 8.410156 11.757812 C 8.410156 11.167969 9.679688 10.6875 11.246094 10.6875 C 12.8125 10.6875 14.082031 11.167969 14.082031 11.757812 "/>
<path fill="none" stroke-width="3.5" stroke-linecap="round" stroke-linejoin="round" stroke="rgb(13.729858%, 12.159729%, 12.548828%)" stroke-opacity="1" stroke-miterlimit="4" d="M 144.836226 186.069203 C 144.836226 180.002554 131.778869 175.060846 115.668098 175.060846 C 99.557328 175.060846 86.499971 180.002554 86.499971 186.069203 C 86.499971 192.135852 99.557328 197.07756 115.668098 197.07756 C 131.778869 197.07756 144.836226 192.135852 144.836226 186.069203 Z M 144.836226 186.069203 " transform="matrix(0.0972273, 0, 0, -0.0972273, 0, 29.848814)"/>
<path fill-rule="nonzero" fill="rgb(13.729858%, 12.159729%, 12.548828%)" fill-opacity="1" d="M 12.082031 11.703125 C 12.082031 11.878906 11.703125 12.019531 11.234375 12.019531 C 10.761719 12.019531 10.382812 11.878906 10.382812 11.703125 C 10.382812 11.523438 10.761719 11.378906 11.234375 11.378906 C 11.703125 11.378906 12.082031 11.523438 12.082031 11.703125 "/>
</svg>
