<?xml version="1.0" encoding="UTF-8"?>
<svg xmlns="http://www.w3.org/2000/svg" xmlns:xlink="http://www.w3.org/1999/xlink" width="48.81" height="35.9" viewBox="0 0 48.81 35.9">
<defs>
<clipPath id="clip-0">
<path clip-rule="nonzero" d="M 0 0.0195312 L 48.621094 0.0195312 L 48.621094 13 L 0 13 Z M 0 0.0195312 "/>
</clipPath>
<clipPath id="clip-1">
<path clip-rule="nonzero" d="M 0 0.0195312 L 48.621094 0.0195312 L 48.621094 15 L 0 15 Z M 0 0.0195312 "/>
</clipPath>
<clipPath id="clip-2">
<path clip-rule="nonzero" d="M 36 0.0195312 L 48.621094 0.0195312 L 48.621094 24 L 36 24 Z M 36 0.0195312 "/>
</clipPath>
<clipPath id="clip-3">
<path clip-rule="nonzero" d="M 33 0.0195312 L 48.621094 0.0195312 L 48.621094 27 L 33 27 Z M 33 0.0195312 "/>
</clipPath>
<clipPath id="clip-4">
<path clip-rule="nonzero" d="M 0 23 L 37 23 L 37 35.78125 L 0 35.78125 Z M 0 23 "/>
</clipPath>
<clipPath id="clip-5">
<path clip-rule="nonzero" d="M 36 11 L 48.621094 11 L 48.621094 35.78125 L 36 35.78125 Z M 36 11 "/>
</clipPath>
<clipPath id="clip-6">
<path clip-rule="nonzero" d="M 33 9 L 48.621094 9 L 48.621094 35.78125 L 33 35.78125 Z M 33 9 "/>
</clipPath>
</defs>
<path fill-rule="nonzero" fill="rgb(3.115845%, 49.784851%, 74.839783%)" fill-opacity="1" d="M 0.65625 23.617188 L 36.234375 23.617188 L 36.234375 12.066406 L 0.65625 12.066406 Z M 0.65625 23.617188 "/>
<path fill="none" stroke-width="4" stroke-linecap="butt" stroke-linejoin="miter" stroke="rgb(100%, 100%, 100%)" stroke-opacity="1" stroke-miterlimit="4" d="M 363.754226 122.107522 L 363.754226 238.064965 L 6.588045 238.064965 L 6.588045 122.107522 Z M 363.754226 122.107522 " transform="matrix(0.0996122, 0, 0, -0.0996122, 0, 35.780592)"/>
<g clip-path="url(#clip-0)">
<path fill-rule="nonzero" fill="rgb(3.115845%, 49.784851%, 74.839783%)" fill-opacity="1" d="M 0.5625 12.125 L 14.933594 0.476562 L 48.136719 0.476562 L 36.203125 12.125 L 0.5625 12.125 "/>
</g>
<g clip-path="url(#clip-1)">
<path fill="none" stroke-width="4" stroke-linecap="butt" stroke-linejoin="miter" stroke="rgb(100%, 100%, 100%)" stroke-opacity="1" stroke-miterlimit="4" d="M 5.646896 237.476747 L 149.917249 354.414554 L 483.240979 354.414554 L 363.440509 237.476747 Z M 5.646896 237.476747 " transform="matrix(0.0996122, 0, 0, -0.0996122, 0, 35.780592)"/>
</g>
<g clip-path="url(#clip-2)">
<path fill-rule="nonzero" fill="rgb(3.115845%, 49.784851%, 74.839783%)" fill-opacity="1" d="M 36.214844 23.980469 L 48.101562 11.140625 L 48.109375 0.496094 L 36.214844 12.109375 L 36.214844 23.980469 "/>
</g>
<g clip-path="url(#clip-3)">
<path fill="none" stroke-width="4" stroke-linecap="butt" stroke-linejoin="miter" stroke="rgb(100%, 100%, 100%)" stroke-opacity="1" stroke-miterlimit="4" d="M 363.558153 118.460568 L 482.888048 247.358815 L 482.966477 354.218481 L 363.558153 237.633605 Z M 363.558153 118.460568 " transform="matrix(0.0996122, 0, 0, -0.0996122, 0, 35.780592)"/>
</g>
<path fill-rule="nonzero" fill="rgb(100%, 100%, 100%)" fill-opacity="1" d="M 21.417969 9.09375 L 20.726562 9.660156 L 11.855469 9.660156 L 10.96875 10.546875 L 8.5625 9.496094 L 13.398438 8.113281 L 12.542969 9.09375 L 21.417969 9.09375 "/>
<path fill-rule="nonzero" fill="rgb(100%, 100%, 100%)" fill-opacity="1" d="M 28.390625 4.734375 L 27.699219 5.300781 L 18.828125 5.300781 L 17.941406 6.1875 L 15.535156 5.140625 L 20.371094 3.753906 L 19.515625 4.734375 L 28.390625 4.734375 "/>
<path fill-rule="nonzero" fill="rgb(100%, 100%, 100%)" fill-opacity="1" d="M 22.984375 7.554688 L 23.671875 6.988281 L 32.550781 6.988281 L 33.433594 6.105469 L 35.839844 7.152344 L 31.003906 8.535156 L 31.859375 7.554688 L 22.984375 7.554688 "/>
<path fill-rule="nonzero" fill="rgb(100%, 100%, 100%)" fill-opacity="1" d="M 27.589844 3.199219 L 28.28125 2.632812 L 37.15625 2.632812 L 38.039062 1.746094 L 40.445312 2.792969 L 35.609375 4.179688 L 36.464844 3.199219 L 27.589844 3.199219 "/>
<path fill-rule="nonzero" fill="rgb(3.115845%, 49.784851%, 74.839783%)" fill-opacity="1" d="M 0.65625 34.90625 L 36.234375 34.90625 L 36.234375 23.355469 L 0.65625 23.355469 Z M 0.65625 34.90625 "/>
<g clip-path="url(#clip-4)">
<path fill="none" stroke-width="4" stroke-linecap="butt" stroke-linejoin="miter" stroke="rgb(100%, 100%, 100%)" stroke-opacity="1" stroke-miterlimit="4" d="M 363.754226 8.777453 L 363.754226 124.734897 L 6.588045 124.734897 L 6.588045 8.777453 Z M 363.754226 8.777453 " transform="matrix(0.0996122, 0, 0, -0.0996122, 0, 35.780592)"/>
</g>
<g clip-path="url(#clip-5)">
<path fill-rule="nonzero" fill="rgb(3.115845%, 49.784851%, 74.839783%)" fill-opacity="1" d="M 36.214844 35.273438 L 48.101562 22.429688 L 48.109375 11.789062 L 36.214844 23.398438 L 36.214844 35.273438 "/>
</g>
<g clip-path="url(#clip-6)">
<path fill="none" stroke-width="4" stroke-linecap="butt" stroke-linejoin="miter" stroke="rgb(100%, 100%, 100%)" stroke-opacity="1" stroke-miterlimit="4" d="M 363.558153 5.091285 L 482.888048 134.028747 L 482.966477 240.849198 L 363.558153 124.303537 Z M 363.558153 5.091285 " transform="matrix(0.0996122, 0, 0, -0.0996122, 0, 35.780592)"/>
</g>
<path fill-rule="nonzero" fill="rgb(100%, 100%, 100%)" fill-opacity="1" d="M 14.242188 17.53125 L 7.585938 17.53125 L 7.585938 16.921875 L 5.074219 17.824219 L 7.585938 18.722656 L 7.585938 18.113281 L 14.242188 18.113281 L 14.242188 17.53125 "/>
<path fill-rule="nonzero" fill="rgb(100%, 100%, 100%)" fill-opacity="1" d="M 18.007812 19.445312 L 18.007812 21.804688 L 16.285156 21.804688 L 18.820312 22.695312 L 21.355469 21.804688 L 19.636719 21.804688 L 19.636719 19.445312 L 18.007812 19.445312 "/>
<path fill-rule="nonzero" fill="rgb(100%, 100%, 100%)" fill-opacity="1" d="M 18.007812 16.265625 L 18.007812 13.90625 L 16.285156 13.90625 L 18.820312 13.015625 L 21.355469 13.90625 L 19.636719 13.90625 L 19.636719 16.265625 L 18.007812 16.265625 "/>
<path fill-rule="nonzero" fill="rgb(100%, 100%, 100%)" fill-opacity="1" d="M 23.398438 18.113281 L 30.058594 18.113281 L 30.058594 18.722656 L 32.570312 17.824219 L 30.058594 16.921875 L 30.058594 17.53125 L 23.398438 17.53125 L 23.398438 18.113281 "/>
<path fill="none" stroke-width="4" stroke-linecap="butt" stroke-linejoin="miter" stroke="rgb(100%, 100%, 100%)" stroke-opacity="1" stroke-miterlimit="4" d="M 296.462047 142.263804 C 283.913389 137.558057 226.267991 150.459646 167.759872 171.086503 C 109.251754 191.674145 71.997926 212.183358 84.546584 216.889104 C 97.095242 221.594851 154.701425 208.693262 213.248758 188.066405 C 271.756876 167.478763 309.010705 146.930336 296.462047 142.263804 Z M 296.462047 142.263804 " transform="matrix(0.0996122, 0, 0, -0.0996122, 0, 35.780592)"/>
<path fill="none" stroke-width="4" stroke-linecap="butt" stroke-linejoin="miter" stroke="rgb(100%, 100%, 100%)" stroke-opacity="1" stroke-miterlimit="4" d="M 293.128809 217.242035 C 306.383329 212.810791 269.953007 192.380007 211.797819 171.635506 C 153.642632 150.891006 95.801161 137.6757 82.546641 142.106945 C 69.331336 146.577405 105.722444 167.008189 163.877631 187.752689 C 221.993604 208.497189 279.874289 221.67328 293.128809 217.242035 Z M 293.128809 217.242035 " transform="matrix(0.0996122, 0, 0, -0.0996122, 0, 35.780592)"/>
<path fill-rule="nonzero" fill="rgb(74.978638%, 74.523926%, 74.636841%)" fill-opacity="1" d="M 21.550781 19.195312 C 23.75 18.648438 24.28125 17.574219 22.746094 16.792969 C 21.203125 16.015625 18.175781 15.828125 15.976562 16.371094 C 13.777344 16.917969 13.246094 17.992188 14.785156 18.769531 C 16.324219 19.550781 19.351562 19.738281 21.550781 19.195312 "/>
</svg>
