<?xml version="1.0" encoding="UTF-8"?>
<svg xmlns="http://www.w3.org/2000/svg" xmlns:xlink="http://www.w3.org/1999/xlink" width="24.51" height="30.11" viewBox="0 0 24.51 30.11">
<defs>
<clipPath id="clip-0">
<path clip-rule="nonzero" d="M 4 0.0078125 L 23.910156 0.0078125 L 23.910156 29 L 4 29 Z M 4 0.0078125 "/>
</clipPath>
<clipPath id="clip-1">
<path clip-rule="nonzero" d="M 1 0.0078125 L 23.910156 0.0078125 L 23.910156 29.148438 L 1 29.148438 Z M 1 0.0078125 "/>
</clipPath>
<clipPath id="clip-2">
<path clip-rule="nonzero" d="M 0.113281 14 L 19 14 L 19 23 L 0.113281 23 Z M 0.113281 14 "/>
</clipPath>
<clipPath id="clip-3">
<path clip-rule="nonzero" d="M 0.113281 11 L 22 11 L 22 26 L 0.113281 26 Z M 0.113281 11 "/>
</clipPath>
<clipPath id="clip-4">
<path clip-rule="nonzero" d="M 0.113281 15 L 16 15 L 16 23 L 0.113281 23 Z M 0.113281 15 "/>
</clipPath>
<clipPath id="clip-5">
<path clip-rule="nonzero" d="M 0.113281 15 L 16 15 L 16 24 L 0.113281 24 Z M 0.113281 15 "/>
</clipPath>
</defs>
<path fill-rule="nonzero" fill="rgb(0.784302%, 43.920898%, 62.350464%)" fill-opacity="1" d="M 4.007812 28.777344 L 18.953125 28.777344 L 18.953125 4.964844 L 4.007812 4.964844 Z M 4.007812 28.777344 "/>
<path fill="none" stroke-width="3.99994" stroke-linecap="butt" stroke-linejoin="miter" stroke="rgb(100%, 100%, 100%)" stroke-opacity="1" stroke-miterlimit="4" d="M 193.961101 249.98404 L 40.090398 249.98404 L 40.090398 4.820473 L 193.961101 4.820473 " transform="matrix(0.097129, 0, 0, -0.097129, 0.113871, 29.245552)"/>
<g clip-path="url(#clip-0)">
<path fill-rule="nonzero" fill="rgb(0.784302%, 43.920898%, 62.350464%)" fill-opacity="1" d="M 18.953125 28.777344 L 23.730469 24.003906 L 23.730469 0.195312 L 8.78125 0.195312 L 4.007812 4.964844 L 18.953125 4.964844 L 18.953125 28.777344 "/>
</g>
<g clip-path="url(#clip-1)">
<path fill="none" stroke-width="3.99994" stroke-linecap="butt" stroke-linejoin="miter" stroke="rgb(100%, 100%, 100%)" stroke-opacity="1" stroke-miterlimit="4" d="M 193.961101 4.820473 L 243.146639 53.965794 L 243.146639 299.089144 L 89.235719 299.089144 L 40.090398 249.98404 L 193.961101 249.98404 Z M 193.961101 4.820473 " transform="matrix(0.097129, 0, 0, -0.097129, 0.113871, 29.245552)"/>
</g>
<path fill="none" stroke-width="3.99994" stroke-linecap="butt" stroke-linejoin="miter" stroke="rgb(100%, 100%, 100%)" stroke-opacity="1" stroke-miterlimit="4" d="M 42.583859 174.617156 L 192.593719 174.617156 " transform="matrix(0.097129, 0, 0, -0.097129, 0.113871, 29.245552)"/>
<path fill="none" stroke-width="3.99994" stroke-linecap="butt" stroke-linejoin="miter" stroke="rgb(100%, 100%, 100%)" stroke-opacity="1" stroke-miterlimit="4" d="M 42.583859 98.44593 L 192.593719 98.44593 " transform="matrix(0.097129, 0, 0, -0.097129, 0.113871, 29.245552)"/>
<path fill="none" stroke-width="3.99994" stroke-linecap="butt" stroke-linejoin="miter" stroke="rgb(100%, 100%, 100%)" stroke-opacity="1" stroke-miterlimit="4" d="M 97.761749 213.989717 L 141.517976 213.989717 " transform="matrix(0.097129, 0, 0, -0.097129, 0.113871, 29.245552)"/>
<path fill-rule="nonzero" fill="rgb(0.784302%, 43.920898%, 62.350464%)" fill-opacity="1" d="M 7.910156 9.917969 L 15.4375 9.917969 L 15.4375 6.882812 L 7.910156 6.882812 Z M 7.910156 9.917969 "/>
<path fill="none" stroke-width="3.99994" stroke-linecap="butt" stroke-linejoin="miter" stroke="rgb(100%, 100%, 100%)" stroke-opacity="1" stroke-miterlimit="4" d="M 157.765692 198.988731 L 157.765692 230.237434 L 80.267301 230.237434 L 80.267301 198.988731 Z M 157.765692 198.988731 " transform="matrix(0.097129, 0, 0, -0.097129, 0.113871, 29.245552)"/>
<path fill="none" stroke-width="3.99994" stroke-linecap="butt" stroke-linejoin="miter" stroke="rgb(100%, 100%, 100%)" stroke-opacity="1" stroke-miterlimit="4" d="M 97.761749 57.504901 L 141.517976 57.504901 " transform="matrix(0.097129, 0, 0, -0.097129, 0.113871, 29.245552)"/>
<path fill-rule="nonzero" fill="rgb(0.784302%, 43.920898%, 62.350464%)" fill-opacity="1" d="M 7.910156 25.117188 L 15.4375 25.117188 L 15.4375 22.082031 L 7.910156 22.082031 Z M 7.910156 25.117188 "/>
<path fill="none" stroke-width="3.99994" stroke-linecap="butt" stroke-linejoin="miter" stroke="rgb(100%, 100%, 100%)" stroke-opacity="1" stroke-miterlimit="4" d="M 157.765692 42.503915 L 157.765692 73.752617 L 80.267301 73.752617 L 80.267301 42.503915 Z M 157.765692 42.503915 " transform="matrix(0.097129, 0, 0, -0.097129, 0.113871, 29.245552)"/>
<path fill="none" stroke-width="3.99994" stroke-linecap="butt" stroke-linejoin="miter" stroke="rgb(100%, 100%, 100%)" stroke-opacity="1" stroke-miterlimit="4" d="M 42.583859 22.31492 L 192.593719 22.31492 " transform="matrix(0.097129, 0, 0, -0.097129, 0.113871, 29.245552)"/>
<g clip-path="url(#clip-2)">
<path fill-rule="nonzero" fill="rgb(0.784302%, 43.920898%, 62.350464%)" fill-opacity="1" d="M 15.527344 22.972656 L 18.820312 19.683594 L 18.820312 14.195312 L 3.875 14.195312 L 0.582031 17.484375 L 15.527344 17.484375 L 15.527344 22.972656 "/>
</g>
<g clip-path="url(#clip-3)">
<path fill="none" stroke-width="3.99994" stroke-linecap="butt" stroke-linejoin="miter" stroke="rgb(100%, 100%, 100%)" stroke-opacity="1" stroke-miterlimit="4" d="M 158.690686 64.583114 L 192.593719 98.44593 L 192.593719 154.950984 L 38.723016 154.950984 L 4.819983 121.088168 L 158.690686 121.088168 Z M 158.690686 64.583114 " transform="matrix(0.097129, 0, 0, -0.097129, 0.113871, 29.245552)"/>
</g>
<path fill-rule="nonzero" fill="rgb(0.784302%, 43.920898%, 62.350464%)" fill-opacity="1" stroke-width="3.99994" stroke-linecap="butt" stroke-linejoin="miter" stroke="rgb(100%, 100%, 100%)" stroke-opacity="1" stroke-miterlimit="4" d="M 158.690686 121.088168 L 192.593719 154.950984 " transform="matrix(0.097129, 0, 0, -0.097129, 0.113871, 29.245552)"/>
<g clip-path="url(#clip-4)">
<path fill-rule="nonzero" fill="rgb(0.784302%, 43.920898%, 62.350464%)" fill-opacity="1" d="M 0.582031 22.972656 L 15.527344 22.972656 L 15.527344 15.527344 L 0.582031 15.527344 Z M 0.582031 22.972656 "/>
</g>
<g clip-path="url(#clip-5)">
<path fill="none" stroke-width="3.99994" stroke-linecap="butt" stroke-linejoin="miter" stroke="rgb(100%, 100%, 100%)" stroke-opacity="1" stroke-miterlimit="4" d="M 158.690686 64.583114 L 4.819983 64.583114 L 4.819983 141.236946 L 158.690686 141.236946 Z M 158.690686 64.583114 " transform="matrix(0.097129, 0, 0, -0.097129, 0.113871, 29.245552)"/>
</g>
<path fill="none" stroke-width="3.99994" stroke-linecap="butt" stroke-linejoin="miter" stroke="rgb(100%, 100%, 100%)" stroke-opacity="1" stroke-miterlimit="4" d="M 62.451117 101.904602 L 106.207344 101.904602 " transform="matrix(0.097129, 0, 0, -0.097129, 0.113871, 29.245552)"/>
<path fill-rule="nonzero" fill="rgb(0.784302%, 43.920898%, 62.350464%)" fill-opacity="1" d="M 4.480469 20.804688 L 12.007812 20.804688 L 12.007812 17.769531 L 4.480469 17.769531 Z M 4.480469 20.804688 "/>
<path fill="none" stroke-width="3.99994" stroke-linecap="butt" stroke-linejoin="miter" stroke="rgb(100%, 100%, 100%)" stroke-opacity="1" stroke-miterlimit="4" d="M 122.455061 86.903616 L 122.455061 118.152319 L 44.956669 118.152319 L 44.956669 86.903616 Z M 122.455061 86.903616 " transform="matrix(0.097129, 0, 0, -0.097129, 0.113871, 29.245552)"/>
</svg>
