<?xml version="1.0" encoding="UTF-8"?>
<svg xmlns="http://www.w3.org/2000/svg" xmlns:xlink="http://www.w3.org/1999/xlink" width="31.64" height="35.44" viewBox="0 0 31.64 35.44">
<defs>
<clipPath id="clip-0">
<path clip-rule="nonzero" d="M 0.0703125 6 L 31.175781 6 L 31.175781 34.496094 L 0.0703125 34.496094 Z M 0.0703125 6 "/>
</clipPath>
<clipPath id="clip-1">
<path clip-rule="nonzero" d="M 0.0703125 3 L 31.175781 3 L 31.175781 34.496094 L 0.0703125 34.496094 Z M 0.0703125 3 "/>
</clipPath>
<clipPath id="clip-2">
<path clip-rule="nonzero" d="M 0.0703125 0.0390625 L 31.175781 0.0390625 L 31.175781 13 L 0.0703125 13 Z M 0.0703125 0.0390625 "/>
</clipPath>
<clipPath id="clip-3">
<path clip-rule="nonzero" d="M 0.0703125 0.0390625 L 31.175781 0.0390625 L 31.175781 15 L 0.0703125 15 Z M 0.0703125 0.0390625 "/>
</clipPath>
</defs>
<g clip-path="url(#clip-0)">
<path fill-rule="nonzero" fill="rgb(3.115845%, 49.784851%, 74.839783%)" fill-opacity="1" d="M 31.046875 6.1875 C 31.046875 9.492188 24.15625 12.171875 15.65625 12.171875 C 7.15625 12.171875 0.265625 9.492188 0.265625 6.1875 L 0.265625 28.707031 C 0.265625 32.015625 7.15625 34.691406 15.65625 34.691406 C 24.15625 34.691406 31.046875 32.015625 31.046875 28.707031 L 31.046875 6.1875 "/>
</g>
<g clip-path="url(#clip-1)">
<path fill="none" stroke-width="4" stroke-linecap="butt" stroke-linejoin="miter" stroke="rgb(100%, 100%, 100%)" stroke-opacity="1" stroke-miterlimit="4" d="M 314.674802 291.547291 C 314.674802 257.978231 244.67974 230.757929 158.336625 230.757929 C 71.99351 230.757929 1.998448 257.978231 1.998448 291.547291 L 1.998448 62.793588 C 1.998448 29.184848 71.99351 2.004225 158.336625 2.004225 C 244.67974 2.004225 314.674802 29.184848 314.674802 62.793588 Z M 314.674802 291.547291 " transform="matrix(0.0984444, 0, 0, -0.0984444, 0.0688889, 34.888711)"/>
</g>
<g clip-path="url(#clip-2)">
<path fill-rule="nonzero" fill="rgb(3.115845%, 49.784851%, 74.839783%)" fill-opacity="1" d="M 15.65625 12.171875 C 24.15625 12.171875 31.046875 9.492188 31.046875 6.1875 C 31.046875 2.878906 24.15625 0.199219 15.65625 0.199219 C 7.15625 0.199219 0.265625 2.878906 0.265625 6.1875 C 0.265625 9.492188 7.15625 12.171875 15.65625 12.171875 "/>
</g>
<g clip-path="url(#clip-3)">
<path fill="none" stroke-width="4" stroke-linecap="butt" stroke-linejoin="miter" stroke="rgb(100%, 100%, 100%)" stroke-opacity="1" stroke-miterlimit="4" d="M 158.336625 230.757929 C 244.67974 230.757929 314.674802 257.978231 314.674802 291.547291 C 314.674802 325.156031 244.67974 352.376333 158.336625 352.376333 C 71.99351 352.376333 1.998448 325.156031 1.998448 291.547291 C 1.998448 257.978231 71.99351 230.757929 158.336625 230.757929 Z M 158.336625 230.757929 " transform="matrix(0.0984444, 0, 0, -0.0984444, 0.0688889, 34.888711)"/>
</g>
<path fill-rule="nonzero" fill="rgb(100%, 100%, 100%)" fill-opacity="1" d="M 12.140625 3.84375 L 13.414062 5.75 L 8.609375 6.863281 L 9.65625 5.988281 L 2.230469 4.71875 L 4.09375 3.324219 L 11.261719 4.535156 L 12.140625 3.84375 "/>
<path fill-rule="nonzero" fill="rgb(100%, 100%, 100%)" fill-opacity="1" d="M 18.902344 8.464844 L 18.035156 6.503906 L 22.371094 5.636719 L 21.617188 6.308594 L 28.84375 7.542969 L 27.109375 8.929688 L 19.929688 7.582031 L 18.902344 8.464844 "/>
<path fill-rule="nonzero" fill="rgb(100%, 100%, 100%)" fill-opacity="1" d="M 16.535156 2.804688 L 21.386719 1.476562 L 21.445312 3.554688 L 20.230469 3.324219 L 17.863281 5.289062 L 15.601562 4.960938 L 18.046875 3.039062 L 16.535156 2.804688 "/>
<path fill-rule="nonzero" fill="rgb(100%, 100%, 100%)" fill-opacity="1" d="M 14.453125 10.261719 L 9.828125 11.125 L 9.65625 8.988281 L 10.984375 9.277344 L 13.53125 7.105469 L 15.78125 7.484375 L 13.066406 9.855469 L 14.453125 10.261719 "/>
<path fill-rule="nonzero" fill="rgb(100%, 100%, 100%)" fill-opacity="1" d="M 15.894531 20.0625 L 15.894531 15.210938 L 16.71875 15.210938 L 15.503906 13.382812 L 14.289062 15.210938 L 15.109375 15.210938 L 15.109375 20.0625 L 15.894531 20.0625 "/>
<path fill-rule="nonzero" fill="rgb(100%, 100%, 100%)" fill-opacity="1" d="M 13.417969 20.765625 L 9.988281 17.335938 L 10.570312 16.753906 L 8.414062 16.316406 L 8.851562 18.46875 L 9.433594 17.886719 L 12.863281 21.316406 L 13.417969 20.765625 "/>
<path fill-rule="nonzero" fill="rgb(100%, 100%, 100%)" fill-opacity="1" d="M 12.164062 23.011719 L 7.3125 23.011719 L 7.3125 22.1875 L 5.480469 23.402344 L 7.3125 24.617188 L 7.3125 23.792969 L 12.164062 23.792969 L 12.164062 23.011719 "/>
<path fill-rule="nonzero" fill="rgb(100%, 100%, 100%)" fill-opacity="1" d="M 12.863281 25.484375 L 9.433594 28.917969 L 8.851562 28.335938 L 8.414062 30.492188 L 10.570312 30.054688 L 9.988281 29.472656 L 13.417969 26.039062 L 12.863281 25.484375 "/>
<path fill-rule="nonzero" fill="rgb(100%, 100%, 100%)" fill-opacity="1" d="M 15.109375 26.742188 L 15.109375 31.59375 L 14.289062 31.59375 L 15.503906 33.425781 L 16.71875 31.59375 L 15.894531 31.59375 L 15.894531 26.742188 L 15.109375 26.742188 "/>
<path fill-rule="nonzero" fill="rgb(100%, 100%, 100%)" fill-opacity="1" d="M 17.585938 26.039062 L 21.015625 29.472656 L 20.433594 30.054688 L 22.589844 30.492188 L 22.152344 28.335938 L 21.570312 28.917969 L 18.140625 25.484375 L 17.585938 26.039062 "/>
<path fill-rule="nonzero" fill="rgb(100%, 100%, 100%)" fill-opacity="1" d="M 18.839844 23.792969 L 23.691406 23.792969 L 23.691406 24.617188 L 25.523438 23.402344 L 23.691406 22.1875 L 23.691406 23.011719 L 18.839844 23.011719 L 18.839844 23.792969 "/>
<path fill-rule="nonzero" fill="rgb(100%, 100%, 100%)" fill-opacity="1" d="M 18.140625 21.316406 L 21.570312 17.886719 L 22.152344 18.46875 L 22.589844 16.316406 L 20.433594 16.753906 L 21.015625 17.335938 L 17.585938 20.765625 L 18.140625 21.316406 "/>
<path fill-rule="nonzero" fill="rgb(100%, 100%, 100%)" fill-opacity="1" d="M 18.472656 27.46875 C 20.742188 25.878906 21.296875 22.746094 19.703125 20.472656 C 18.113281 18.199219 14.980469 17.648438 12.707031 19.238281 C 10.433594 20.828125 9.882812 23.964844 11.472656 26.238281 C 13.066406 28.507812 16.199219 29.058594 18.472656 27.46875 "/>
</svg>
