<?xml version="1.0" encoding="UTF-8"?>
<svg xmlns="http://www.w3.org/2000/svg" xmlns:xlink="http://www.w3.org/1999/xlink" width="37.16" height="37.41" viewBox="0 0 37.16 37.41">
<defs>
<clipPath id="clip-0">
<path clip-rule="nonzero" d="M 0 7 L 36.183594 7 L 36.183594 36.316406 L 0 36.316406 Z M 0 7 "/>
</clipPath>
<clipPath id="clip-1">
<path clip-rule="nonzero" d="M 0 5 L 36.183594 5 L 36.183594 36.316406 L 0 36.316406 Z M 0 5 "/>
</clipPath>
<clipPath id="clip-2">
<path clip-rule="nonzero" d="M 0 0.136719 L 36.183594 0.136719 L 36.183594 15 L 0 15 Z M 0 0.136719 "/>
</clipPath>
<clipPath id="clip-3">
<path clip-rule="nonzero" d="M 0 0.136719 L 36.183594 0.136719 L 36.183594 17 L 0 17 Z M 0 0.136719 "/>
</clipPath>
<clipPath id="clip-4">
<path clip-rule="nonzero" d="M 20 6 L 27 6 L 27 9 L 20 9 Z M 20 6 "/>
</clipPath>
<clipPath id="clip-5">
<path clip-rule="nonzero" d="M 21.976562 9.980469 L 20.960938 7.683594 L 26.027344 6.671875 L 25.148438 7.460938 L 33.589844 8.902344 L 31.566406 10.523438 L 23.175781 8.945312 L 21.976562 9.980469 "/>
</clipPath>
<clipPath id="clip-6">
<path clip-rule="nonzero" d="M 25 7 L 34 7 L 34 10 L 25 10 Z M 25 7 "/>
</clipPath>
<clipPath id="clip-7">
<path clip-rule="nonzero" d="M 21.976562 9.980469 L 20.960938 7.683594 L 26.027344 6.671875 L 25.148438 7.460938 L 33.589844 8.902344 L 31.566406 10.523438 L 23.175781 8.945312 L 21.976562 9.980469 "/>
</clipPath>
<clipPath id="clip-8">
<path clip-rule="nonzero" d="M 18 1 L 25 1 L 25 4 L 18 4 Z M 18 1 "/>
</clipPath>
<clipPath id="clip-9">
<path clip-rule="nonzero" d="M 19.207031 3.363281 L 24.878906 1.808594 L 24.945312 4.242188 L 23.527344 3.96875 L 20.761719 6.265625 L 18.117188 5.882812 L 20.976562 3.636719 L 19.207031 3.363281 "/>
</clipPath>
<clipPath id="clip-10">
<path clip-rule="nonzero" d="M 11 8 L 19 8 L 19 12 L 11 12 Z M 11 8 "/>
</clipPath>
<clipPath id="clip-11">
<path clip-rule="nonzero" d="M 16.773438 12.074219 L 11.371094 13.085938 L 11.171875 10.589844 L 12.722656 10.925781 L 15.695312 8.386719 L 18.328125 8.832031 L 15.15625 11.601562 L 16.773438 12.074219 "/>
</clipPath>
<clipPath id="clip-12">
<path clip-rule="nonzero" d="M 15 11 L 18 11 L 18 13 L 15 13 Z M 15 11 "/>
</clipPath>
<clipPath id="clip-13">
<path clip-rule="nonzero" d="M 16.773438 12.074219 L 11.371094 13.085938 L 11.171875 10.589844 L 12.722656 10.925781 L 15.695312 8.386719 L 18.328125 8.832031 L 15.15625 11.601562 L 16.773438 12.074219 "/>
</clipPath>
<clipPath id="clip-14">
<path clip-rule="nonzero" d="M 2 9 L 34 9 L 34 36.316406 L 2 36.316406 Z M 2 9 "/>
</clipPath>
<clipPath id="clip-15">
<path clip-rule="nonzero" d="M 3 9 L 35 9 L 35 36.316406 L 3 36.316406 Z M 3 9 "/>
</clipPath>
<clipPath id="clip-16">
<path clip-rule="nonzero" d="M 2 10 L 35 10 L 35 36.316406 L 2 36.316406 Z M 2 10 "/>
</clipPath>
</defs>
<g clip-path="url(#clip-0)">
<path fill-rule="nonzero" fill="rgb(3.115845%, 49.784851%, 74.839783%)" fill-opacity="1" d="M 36.167969 7.3125 C 36.167969 11.175781 28.117188 14.308594 18.183594 14.308594 C 8.25 14.308594 0.195312 11.175781 0.195312 7.3125 L 0.195312 29.519531 C 0.195312 33.382812 8.25 36.511719 18.183594 36.511719 C 28.117188 36.511719 36.167969 33.382812 36.167969 29.519531 L 36.167969 7.3125 "/>
</g>
<g clip-path="url(#clip-1)">
<path fill="none" stroke-width="4" stroke-linecap="butt" stroke-linejoin="miter" stroke="rgb(100%, 100%, 100%)" stroke-opacity="1" stroke-miterlimit="4" d="M 369.855439 300.600269 C 369.855439 261.094164 287.527752 229.057868 185.94633 229.057868 C 84.364909 229.057868 1.997275 261.094164 1.997275 300.600269 L 1.997275 73.510068 C 1.997275 34.003963 84.364909 2.007612 185.94633 2.007612 C 287.527752 2.007612 369.855439 34.003963 369.855439 73.510068 Z M 369.855439 300.600269 " transform="matrix(0.0977895, 0, 0, -0.0977895, 0, 36.708042)"/>
</g>
<g clip-path="url(#clip-2)">
<path fill-rule="nonzero" fill="rgb(3.115845%, 49.784851%, 74.839783%)" fill-opacity="1" d="M 18.183594 14.308594 C 28.117188 14.308594 36.167969 11.175781 36.167969 7.3125 C 36.167969 3.449219 28.117188 0.320312 18.183594 0.320312 C 8.25 0.320312 0.195312 3.449219 0.195312 7.3125 C 0.195312 11.175781 8.25 14.308594 18.183594 14.308594 "/>
</g>
<g clip-path="url(#clip-3)">
<path fill="none" stroke-width="4" stroke-linecap="butt" stroke-linejoin="miter" stroke="rgb(100%, 100%, 100%)" stroke-opacity="1" stroke-miterlimit="4" d="M 185.94633 229.057868 C 287.527752 229.057868 369.855439 261.094164 369.855439 300.600269 C 369.855439 340.106374 287.527752 372.102725 185.94633 372.102725 C 84.364909 372.102725 1.997275 340.106374 1.997275 300.600269 C 1.997275 261.094164 84.364909 229.057868 185.94633 229.057868 Z M 185.94633 229.057868 " transform="matrix(0.0977895, 0, 0, -0.0977895, 0, 36.708042)"/>
</g>
<path fill-rule="nonzero" fill="rgb(13.729858%, 12.159729%, 12.548828%)" fill-opacity="1" d="M 16.03125 6.941406 L 14.613281 4.578125 L 13.871094 4.375 L 12.992188 5.050781 L 4.6875 3.632812 L 2.054688 5.523438 L 2.492188 6.273438 L 4.667969 4.644531 L 13.042969 6.0625 L 14.074219 5.253906 L 15.558594 7.480469 L 16.03125 6.941406 "/>
<g clip-path="url(#clip-4)">
<g clip-path="url(#clip-5)">
<path fill-rule="nonzero" fill="rgb(13.729858%, 12.159729%, 12.548828%)" fill-opacity="1" d="M 20.960938 8.496094 L 26.027344 7.480469 L 26.566406 6.605469 L 25.960938 6.199219 L 20.355469 7.480469 L 20.960938 8.496094 "/>
</g>
</g>
<g clip-path="url(#clip-6)">
<g clip-path="url(#clip-7)">
<path fill-rule="nonzero" fill="rgb(13.729858%, 12.159729%, 12.548828%)" fill-opacity="1" d="M 33.996094 8.628906 L 26.164062 7.144531 L 25.148438 7.550781 L 25.148438 8.269531 L 33.589844 9.710938 L 33.996094 8.628906 "/>
</g>
</g>
<g clip-path="url(#clip-8)">
<g clip-path="url(#clip-9)">
<path fill-rule="nonzero" fill="rgb(13.729858%, 12.159729%, 12.548828%)" fill-opacity="1" d="M 19.476562 3.96875 L 25.082031 2.417969 L 25.488281 1.878906 L 25.015625 1.335938 L 18.53125 3.160156 L 19.476562 3.96875 "/>
</g>
</g>
<g clip-path="url(#clip-10)">
<g clip-path="url(#clip-11)">
<path fill-rule="nonzero" fill="rgb(13.729858%, 12.159729%, 12.548828%)" fill-opacity="1" d="M 10.628906 9.980469 L 10.628906 11.332031 L 12.722656 11.738281 L 15.695312 9.195312 L 18.328125 9.644531 L 19.070312 8.628906 L 15.558594 7.957031 L 12.589844 10.453125 L 10.628906 9.980469 "/>
</g>
</g>
<g clip-path="url(#clip-12)">
<g clip-path="url(#clip-13)">
<path fill-rule="nonzero" fill="rgb(13.729858%, 12.159729%, 12.548828%)" fill-opacity="1" d="M 16.910156 11.398438 L 15.15625 11.601562 L 15.15625 12.414062 L 16.773438 12.886719 L 17.71875 12.074219 L 16.910156 11.398438 "/>
</g>
</g>
<path fill-rule="nonzero" fill="rgb(100%, 100%, 100%)" fill-opacity="1" d="M 19.207031 3.363281 L 24.878906 1.808594 L 24.945312 4.242188 L 23.527344 3.96875 L 20.761719 6.265625 L 18.117188 5.882812 L 20.976562 3.636719 L 19.207031 3.363281 "/>
<path fill-rule="nonzero" fill="rgb(100%, 100%, 100%)" fill-opacity="1" d="M 21.976562 9.980469 L 20.960938 7.683594 L 26.027344 6.671875 L 25.148438 7.460938 L 33.589844 8.902344 L 31.566406 10.523438 L 23.175781 8.945312 L 21.976562 9.980469 "/>
<path fill-rule="nonzero" fill="rgb(100%, 100%, 100%)" fill-opacity="1" d="M 16.773438 12.074219 L 11.371094 13.085938 L 11.171875 10.589844 L 12.722656 10.925781 L 15.695312 8.386719 L 18.328125 8.832031 L 15.15625 11.601562 L 16.773438 12.074219 "/>
<path fill-rule="nonzero" fill="rgb(100%, 100%, 100%)" fill-opacity="1" d="M 14.074219 4.578125 L 15.558594 6.808594 L 9.945312 8.105469 L 11.171875 7.082031 L 2.492188 5.597656 L 4.667969 3.96875 L 13.042969 5.386719 L 14.074219 4.578125 "/>
<g clip-path="url(#clip-14)">
<path fill="none" stroke-width="14.25" stroke-linecap="butt" stroke-linejoin="miter" stroke="rgb(13.729858%, 12.159729%, 12.548828%)" stroke-opacity="1" stroke-miterlimit="4" d="M 106.654501 58.450612 L 158.943168 58.450612 L 225.013035 193.586259 L 266.356633 193.586259 " transform="matrix(0.0977895, 0, 0, -0.0977895, 0, 36.708042)"/>
</g>
<path fill-rule="nonzero" fill="rgb(13.729858%, 12.159729%, 12.548828%)" fill-opacity="1" d="M 24.734375 15.410156 L 24.734375 20.097656 L 27.5625 17.84375 L 24.734375 15.410156 "/>
<path fill-rule="nonzero" fill="rgb(13.729858%, 12.159729%, 12.548828%)" fill-opacity="1" d="M 11.238281 33.40625 L 11.238281 28.71875 L 8.414062 30.96875 L 11.238281 33.40625 "/>
<path fill-rule="nonzero" fill="rgb(100%, 100%, 100%)" fill-opacity="1" d="M 11.246094 33.78125 L 11.246094 29.089844 L 8.421875 31.34375 L 11.246094 33.78125 "/>
<path fill-rule="nonzero" fill="rgb(100%, 100%, 100%)" fill-opacity="1" d="M 24.867188 15.71875 L 24.867188 20.410156 L 27.691406 18.15625 L 24.867188 15.71875 "/>
<path fill-rule="nonzero" fill="rgb(13.729858%, 12.159729%, 12.548828%)" fill-opacity="1" d="M 11.238281 20.207031 L 11.238281 15.515625 L 8.414062 17.769531 L 11.238281 20.207031 "/>
<path fill-rule="nonzero" fill="rgb(100%, 100%, 100%)" fill-opacity="1" d="M 11.246094 20.578125 L 11.246094 15.890625 L 8.421875 18.140625 L 11.246094 20.578125 "/>
<g clip-path="url(#clip-15)">
<path fill="none" stroke-width="14.25" stroke-linecap="butt" stroke-linejoin="miter" stroke="rgb(13.729858%, 12.159729%, 12.548828%)" stroke-opacity="1" stroke-miterlimit="4" d="M 267.315326 57.931321 L 222.376631 57.931321 L 155.068454 193.746041 L 112.766163 193.746041 " transform="matrix(0.0977895, 0, 0, -0.0977895, 0, 36.708042)"/>
</g>
<g clip-path="url(#clip-16)">
<path fill="none" stroke-width="14.25" stroke-linecap="butt" stroke-linejoin="miter" stroke="rgb(100%, 100%, 100%)" stroke-opacity="1" stroke-miterlimit="4" d="M 272.827805 54.416116 L 223.215487 54.416116 L 155.90731 190.230836 L 104.537389 190.230836 " transform="matrix(0.0977895, 0, 0, -0.0977895, 0, 36.708042)"/>
<path fill="none" stroke-width="14.25" stroke-linecap="butt" stroke-linejoin="miter" stroke="rgb(100%, 100%, 100%)" stroke-opacity="1" stroke-miterlimit="4" d="M 104.856953 54.615844 L 152.79156 54.615844 L 219.500555 189.791436 L 271.429713 189.791436 " transform="matrix(0.0977895, 0, 0, -0.0977895, 0, 36.708042)"/>
</g>
<path fill-rule="nonzero" fill="rgb(13.729858%, 12.159729%, 12.548828%)" fill-opacity="1" d="M 24.734375 28.671875 L 24.734375 33.359375 L 27.5625 31.109375 L 24.734375 28.671875 "/>
<path fill-rule="nonzero" fill="rgb(100%, 100%, 100%)" fill-opacity="1" d="M 24.867188 28.980469 L 24.867188 33.671875 L 27.691406 31.417969 L 24.867188 28.980469 "/>
</svg>
