<?xml version="1.0" encoding="UTF-8"?>
<svg xmlns="http://www.w3.org/2000/svg" xmlns:xlink="http://www.w3.org/1999/xlink" width="47.07" height="57.24" viewBox="0 0 47.07 57.24">
<defs>
<clipPath id="clip-0">
<path clip-rule="nonzero" d="M 0 7 L 46.15625 7 L 46.15625 19 L 0 19 Z M 0 7 "/>
</clipPath>
<clipPath id="clip-1">
<path clip-rule="nonzero" d="M 0 6 L 46.15625 6 L 46.15625 20 L 0 20 Z M 0 6 "/>
</clipPath>
<clipPath id="clip-2">
<path clip-rule="nonzero" d="M 0 0.183594 L 46.15625 0.183594 L 46.15625 16 L 0 16 Z M 0 0.183594 "/>
</clipPath>
<clipPath id="clip-3">
<path clip-rule="nonzero" d="M 22 0.183594 L 24 0.183594 L 24 17 L 22 17 Z M 22 0.183594 "/>
</clipPath>
<clipPath id="clip-4">
<path clip-rule="nonzero" d="M 5 38 L 42 38 L 42 56.3125 L 5 56.3125 Z M 5 38 "/>
</clipPath>
<clipPath id="clip-5">
<path clip-rule="nonzero" d="M 2 36 L 44 36 L 44 56.3125 L 2 56.3125 Z M 2 36 "/>
</clipPath>
</defs>
<path fill-rule="nonzero" fill="rgb(16.821289%, 40.113831%, 62.065125%)" fill-opacity="1" d="M 20.164062 24.160156 L 26.976562 24.160156 L 26.976562 33.015625 C 26.976562 33.015625 20.042969 35.164062 20.164062 35.164062 C 20.28125 35.164062 20.164062 24.160156 20.164062 24.160156 "/>
<path fill-rule="nonzero" fill="rgb(100%, 100%, 100%)" fill-opacity="1" d="M 23.078125 17.265625 C 35.714844 17.265625 45.960938 15.324219 45.960938 12.929688 C 45.960938 10.539062 35.714844 8.597656 23.078125 8.597656 C 10.441406 8.597656 0.195312 10.539062 0.195312 12.929688 C 0.195312 15.324219 10.441406 17.265625 23.078125 17.265625 "/>
<g clip-path="url(#clip-0)">
<path fill="none" stroke-width="1.5" stroke-linecap="butt" stroke-linejoin="miter" stroke="rgb(13.729858%, 12.159729%, 12.548828%)" stroke-opacity="1" stroke-miterlimit="4" d="M 235.340982 398.187126 C 364.204908 398.187126 468.690249 417.984767 468.690249 442.403187 C 468.690249 466.781772 364.204908 486.579414 235.340982 486.579414 C 106.477055 486.579414 1.991714 466.781772 1.991714 442.403187 C 1.991714 417.984767 106.477055 398.187126 235.340982 398.187126 Z M 235.340982 398.187126 " transform="matrix(0.0980625, 0, 0, -0.0980625, 0, 56.31285)"/>
</g>
<path fill-rule="nonzero" fill="rgb(16.821289%, 40.113831%, 62.065125%)" fill-opacity="1" d="M 23.199219 24.863281 C 35.839844 24.863281 45.960938 15.324219 45.960938 12.929688 C 45.960938 10.539062 35.714844 8.597656 23.078125 8.597656 C 10.441406 8.597656 0.195312 10.539062 0.195312 12.929688 C 0.195312 15.324219 10.5625 24.863281 23.199219 24.863281 "/>
<path fill-rule="nonzero" fill="rgb(100%, 100%, 100%)" fill-opacity="1" d="M 23.078125 17.265625 C 35.714844 17.265625 45.960938 15.324219 45.960938 12.929688 C 45.960938 10.539062 35.714844 8.597656 23.078125 8.597656 C 10.441406 8.597656 0.195312 10.539062 0.195312 12.929688 C 0.195312 15.324219 10.441406 17.265625 23.078125 17.265625 "/>
<g clip-path="url(#clip-1)">
<path fill="none" stroke-width="4" stroke-linecap="butt" stroke-linejoin="miter" stroke="rgb(16.821289%, 40.113831%, 62.065125%)" stroke-opacity="1" stroke-miterlimit="4" d="M 235.340982 398.187126 C 364.204908 398.187126 468.690249 417.984767 468.690249 442.403187 C 468.690249 466.781772 364.204908 486.579414 235.340982 486.579414 C 106.477055 486.579414 1.991714 466.781772 1.991714 442.403187 C 1.991714 417.984767 106.477055 398.187126 235.340982 398.187126 Z M 235.340982 398.187126 " transform="matrix(0.0980625, 0, 0, -0.0980625, 0, 56.31285)"/>
</g>
<path fill="none" stroke-width="3.75" stroke-linecap="butt" stroke-linejoin="miter" stroke="rgb(16.821289%, 40.113831%, 62.065125%)" stroke-opacity="1" stroke-miterlimit="4" d="M 174.673359 475.465647 C 137.866475 473.234927 105.202358 468.932823 79.668579 463.23652 " transform="matrix(0.0980625, 0, 0, -0.0980625, 0, 56.31285)"/>
<path fill="none" stroke-width="3.75" stroke-linecap="butt" stroke-linejoin="miter" stroke="rgb(16.821289%, 40.113831%, 62.065125%)" stroke-opacity="1" stroke-miterlimit="4" d="M 177.143085 466.224092 C 141.451562 463.634863 110.181644 458.854748 86.520076 452.640599 " transform="matrix(0.0980625, 0, 0, -0.0980625, 0, 56.31285)"/>
<path fill="none" stroke-width="3.75" stroke-linecap="butt" stroke-linejoin="miter" stroke="rgb(16.821289%, 40.113831%, 62.065125%)" stroke-opacity="1" stroke-miterlimit="4" d="M 179.692479 456.305354 C 144.717973 453.317782 114.60325 447.940153 92.853728 441.088655 " transform="matrix(0.0980625, 0, 0, -0.0980625, 0, 56.31285)"/>
<path fill="none" stroke-width="3.75" stroke-linecap="butt" stroke-linejoin="miter" stroke="rgb(16.821289%, 40.113831%, 62.065125%)" stroke-opacity="1" stroke-miterlimit="4" d="M 184.7116 444.75341 C 150.573614 441.486998 121.534417 435.711026 101.258764 428.341683 " transform="matrix(0.0980625, 0, 0, -0.0980625, 0, 56.31285)"/>
<path fill="none" stroke-width="3.75" stroke-linecap="butt" stroke-linejoin="miter" stroke="rgb(16.821289%, 40.113831%, 62.065125%)" stroke-opacity="1" stroke-miterlimit="4" d="M 187.181326 433.998152 C 154.796048 430.253728 127.708732 424.039579 109.663799 416.232059 " transform="matrix(0.0980625, 0, 0, -0.0980625, 0, 56.31285)"/>
<path fill="none" stroke-width="3.75" stroke-linecap="butt" stroke-linejoin="miter" stroke="rgb(16.821289%, 40.113831%, 62.065125%)" stroke-opacity="1" stroke-miterlimit="4" d="M 191.563098 421.251179 C 165.909815 417.785596 144.080625 412.487635 128.425749 405.994646 " transform="matrix(0.0980625, 0, 0, -0.0980625, 0, 56.31285)"/>
<path fill="none" stroke-width="3.75" stroke-linecap="butt" stroke-linejoin="miter" stroke="rgb(16.821289%, 40.113831%, 62.065125%)" stroke-opacity="1" stroke-miterlimit="4" d="M 193.076801 409.420395 C 182.719885 407.548184 173.159656 405.317463 164.674952 402.807903 " transform="matrix(0.0980625, 0, 0, -0.0980625, 0, 56.31285)"/>
<g clip-path="url(#clip-2)">
<path fill="none" stroke-width="4" stroke-linecap="butt" stroke-linejoin="miter" stroke="rgb(16.821289%, 40.113831%, 62.065125%)" stroke-opacity="1" stroke-miterlimit="4" d="M 1.3942 438.180752 L 236.575844 556.130083 L 468.690249 442.403187 " transform="matrix(0.0980625, 0, 0, -0.0980625, 0, 56.31285)"/>
</g>
<path fill-rule="nonzero" fill="rgb(16.821289%, 40.113831%, 62.065125%)" fill-opacity="1" d="M 23.324219 4.703125 C 24.183594 4.703125 24.882812 4.351562 24.882812 3.921875 C 24.882812 3.488281 24.183594 3.140625 23.324219 3.140625 C 22.460938 3.140625 21.761719 3.488281 21.761719 3.921875 C 21.761719 4.351562 22.460938 4.703125 23.324219 4.703125 "/>
<g clip-path="url(#clip-3)">
<path fill-rule="nonzero" fill="rgb(16.821289%, 40.113831%, 62.065125%)" fill-opacity="1" d="M 23.324219 0.183594 L 22.832031 16.238281 L 23.9375 16.238281 Z M 23.324219 0.183594 "/>
</g>
<path fill-rule="nonzero" fill="rgb(16.821289%, 40.113831%, 62.065125%)" fill-opacity="1" d="M 28.484375 30.277344 L 28.484375 25.898438 L 17.453125 25.898438 L 17.453125 30.277344 L 28.484375 30.277344 "/>
<path fill-rule="nonzero" fill="rgb(100%, 100%, 100%)" fill-opacity="1" d="M 22.539062 28.761719 L 19.144531 28.761719 L 19.144531 27.777344 L 22.539062 27.777344 L 22.539062 28.761719 "/>
<path fill-rule="nonzero" fill="rgb(100%, 100%, 100%)" fill-opacity="1" d="M 27.007812 28.761719 L 23.613281 28.761719 L 23.613281 27.777344 L 27.007812 27.777344 L 27.007812 28.761719 "/>
<g clip-path="url(#clip-4)">
<path fill-rule="nonzero" fill="rgb(16.821289%, 40.113831%, 62.065125%)" fill-opacity="1" d="M 41.109375 38.828125 C 41.109375 42.703125 33.035156 45.84375 23.074219 45.84375 C 13.113281 45.84375 5.039062 42.703125 5.039062 38.828125 L 5.039062 49.101562 C 5.039062 52.976562 13.113281 56.117188 23.074219 56.117188 C 33.035156 56.117188 41.109375 52.976562 41.109375 49.101562 L 41.109375 38.828125 "/>
</g>
<g clip-path="url(#clip-5)">
<path fill="none" stroke-width="4" stroke-linecap="butt" stroke-linejoin="miter" stroke="rgb(100%, 100%, 100%)" stroke-opacity="1" stroke-miterlimit="4" d="M 419.216061 178.301848 C 419.216061 138.786233 336.878585 106.759465 235.301147 106.759465 C 133.723709 106.759465 51.386233 138.786233 51.386233 178.301848 L 51.386233 73.537667 C 51.386233 34.022052 133.723709 1.995284 235.301147 1.995284 C 336.878585 1.995284 419.216061 34.022052 419.216061 73.537667 Z M 419.216061 178.301848 " transform="matrix(0.0980625, 0, 0, -0.0980625, 0, 56.31285)"/>
</g>
<path fill-rule="nonzero" fill="rgb(16.821289%, 40.113831%, 62.065125%)" fill-opacity="1" d="M 23.074219 45.84375 C 33.035156 45.84375 41.109375 42.703125 41.109375 38.828125 C 41.109375 34.953125 33.035156 31.816406 23.074219 31.816406 C 13.113281 31.816406 5.039062 34.953125 5.039062 38.828125 C 5.039062 42.703125 13.113281 45.84375 23.074219 45.84375 "/>
<path fill="none" stroke-width="4" stroke-linecap="butt" stroke-linejoin="miter" stroke="rgb(100%, 100%, 100%)" stroke-opacity="1" stroke-miterlimit="4" d="M 235.301147 106.759465 C 336.878585 106.759465 419.216061 138.786233 419.216061 178.301848 C 419.216061 217.817463 336.878585 249.804398 235.301147 249.804398 C 133.723709 249.804398 51.386233 217.817463 51.386233 178.301848 C 51.386233 138.786233 133.723709 106.759465 235.301147 106.759465 Z M 235.301147 106.759465 " transform="matrix(0.0980625, 0, 0, -0.0980625, 0, 56.31285)"/>
<path fill-rule="nonzero" fill="rgb(100%, 100%, 100%)" fill-opacity="1" d="M 18.957031 36.085938 L 20.445312 38.320312 L 14.8125 39.621094 L 16.042969 38.597656 L 7.339844 37.109375 L 9.523438 35.472656 L 17.921875 36.894531 L 18.957031 36.085938 "/>
<path fill-rule="nonzero" fill="rgb(100%, 100%, 100%)" fill-opacity="1" d="M 26.878906 41.503906 L 25.863281 39.199219 L 30.941406 38.183594 L 30.0625 38.972656 L 38.527344 40.421875 L 36.496094 42.046875 L 28.082031 40.464844 L 26.878906 41.503906 "/>
<path fill-rule="nonzero" fill="rgb(100%, 100%, 100%)" fill-opacity="1" d="M 24.101562 34.867188 L 29.792969 33.308594 L 29.859375 35.746094 L 28.4375 35.476562 L 25.660156 37.78125 L 23.011719 37.390625 L 25.875 35.140625 L 24.101562 34.867188 "/>
<path fill-rule="nonzero" fill="rgb(100%, 100%, 100%)" fill-opacity="1" d="M 21.664062 43.605469 L 16.246094 44.621094 L 16.042969 42.113281 L 17.601562 42.453125 L 20.582031 39.90625 L 23.222656 40.351562 L 20.039062 43.128906 L 21.664062 43.605469 "/>
</svg>
