<?xml version="1.0" encoding="UTF-8"?>
<svg xmlns="http://www.w3.org/2000/svg" xmlns:xlink="http://www.w3.org/1999/xlink" width="32.82" height="18.25" viewBox="0 0 32.82 18.25">
<defs>
<clipPath id="clip-0">
<path clip-rule="nonzero" d="M 30 0 L 32 0 L 32 17.335938 L 30 17.335938 Z M 30 0 "/>
</clipPath>
<clipPath id="clip-1">
<path clip-rule="nonzero" d="M 27 0 L 32.066406 0 L 32.066406 17.335938 L 27 17.335938 Z M 27 0 "/>
</clipPath>
<clipPath id="clip-2">
<path clip-rule="nonzero" d="M 1 1 L 31 1 L 31 17.335938 L 1 17.335938 Z M 1 1 "/>
</clipPath>
<clipPath id="clip-3">
<path clip-rule="nonzero" d="M 0.5625 1 L 31 1 L 31 17.335938 L 0.5625 17.335938 Z M 0.5625 1 "/>
</clipPath>
<clipPath id="clip-4">
<path clip-rule="nonzero" d="M 0.5625 1 L 27 1 L 27 17.335938 L 0.5625 17.335938 Z M 0.5625 1 "/>
</clipPath>
<clipPath id="clip-5">
<path clip-rule="nonzero" d="M 0.5625 0 L 32.066406 0 L 32.066406 4 L 0.5625 4 Z M 0.5625 0 "/>
</clipPath>
<clipPath id="clip-6">
<path clip-rule="nonzero" d="M 24 11 L 31 11 L 31 17.335938 L 24 17.335938 Z M 24 11 "/>
</clipPath>
</defs>
<g clip-path="url(#clip-0)">
<path fill-rule="nonzero" fill="rgb(0.784302%, 43.920898%, 62.350464%)" fill-opacity="1" d="M 31.578125 15.753906 L 31.578125 0.421875 L 30.039062 1.773438 L 30.039062 17.105469 L 31.578125 15.753906 "/>
</g>
<g clip-path="url(#clip-1)">
<path fill="none" stroke-width="3.99994" stroke-linecap="butt" stroke-linejoin="miter" stroke="rgb(100%, 100%, 100%)" stroke-opacity="1" stroke-miterlimit="4" d="M 322.914726 18.486729 L 322.914726 178.107877 L 306.89161 164.036815 L 306.89161 4.415668 Z M 322.914726 18.486729 " transform="matrix(0.0960526, 0, 0, -0.0960526, 0.561316, 17.529605)"/>
</g>
<g clip-path="url(#clip-2)">
<path fill-rule="nonzero" fill="rgb(0.784302%, 43.920898%, 62.350464%)" fill-opacity="1" d="M 1.074219 17.082031 L 30.003906 17.082031 L 30.003906 1.800781 L 1.074219 1.800781 Z M 1.074219 17.082031 "/>
</g>
<g clip-path="url(#clip-3)">
<path fill="none" stroke-width="3.99994" stroke-linecap="butt" stroke-linejoin="miter" stroke="rgb(100%, 100%, 100%)" stroke-opacity="1" stroke-miterlimit="4" d="M 306.525599 4.659675 L 306.525599 163.75214 L 5.339812 163.75214 L 5.339812 4.659675 Z M 306.525599 4.659675 " transform="matrix(0.0960526, 0, 0, -0.0960526, 0.561316, 17.529605)"/>
</g>
<path fill-rule="nonzero" fill="rgb(0.784302%, 43.920898%, 62.350464%)" fill-opacity="1" d="M 2.832031 5.152344 C 2.832031 3.617188 4.425781 3.390625 4.425781 3.390625 C 4.425781 3.390625 21.058594 3.390625 22.535156 3.390625 C 24.464844 3.390625 24.40625 5.210938 24.40625 5.210938 C 24.40625 5.210938 24.40625 12.707031 24.40625 13.785156 C 24.40625 14.867188 22.929688 15.320312 22.929688 15.320312 C 22.929688 15.320312 6.015625 15.320312 4.652344 15.320312 C 3.289062 15.320312 2.832031 13.898438 2.832031 13.898438 L 2.832031 5.152344 "/>
<g clip-path="url(#clip-4)">
<path fill="none" stroke-width="3.99994" stroke-linecap="butt" stroke-linejoin="miter" stroke="rgb(100%, 100%, 100%)" stroke-opacity="1" stroke-miterlimit="4" d="M 23.640325 128.859161 C 23.640325 144.84161 40.232791 147.200342 40.232791 147.200342 C 40.232791 147.200342 213.396318 147.200342 228.76875 147.200342 C 248.858647 147.200342 248.24863 128.249144 248.24863 128.249144 C 248.24863 128.249144 248.24863 50.20762 248.24863 38.983305 C 248.24863 27.718322 232.876199 23.000856 232.876199 23.000856 C 232.876199 23.000856 56.784589 23.000856 42.591524 23.000856 C 28.398459 23.000856 23.640325 37.803938 23.640325 37.803938 Z M 23.640325 128.859161 " transform="matrix(0.0960526, 0, 0, -0.0960526, 0.561316, 17.529605)"/>
</g>
<path fill-rule="nonzero" fill="rgb(0.784302%, 43.920898%, 62.350464%)" fill-opacity="1" d="M 31.578125 0.429688 L 2.644531 0.429688 L 1.074219 1.800781 L 30.003906 1.800781 L 31.578125 0.429688 "/>
<g clip-path="url(#clip-5)">
<path fill="none" stroke-width="3.99994" stroke-linecap="butt" stroke-linejoin="miter" stroke="rgb(100%, 100%, 100%)" stroke-opacity="1" stroke-miterlimit="4" d="M 322.914726 178.026541 L 21.688271 178.026541 L 5.339812 163.75214 L 306.525599 163.75214 Z M 322.914726 178.026541 " transform="matrix(0.0960526, 0, 0, -0.0960526, 0.561316, 17.529605)"/>
</g>
<path fill-rule="nonzero" fill="rgb(0.784302%, 43.920898%, 62.350464%)" fill-opacity="1" d="M 27.960938 4.949219 C 27.960938 5.191406 27.601562 5.390625 27.160156 5.390625 C 26.71875 5.390625 26.359375 5.191406 26.359375 4.949219 C 26.359375 4.707031 26.71875 4.507812 27.160156 4.507812 C 27.601562 4.507812 27.960938 4.707031 27.960938 4.949219 "/>
<path fill="none" stroke-width="3.99994" stroke-linecap="butt" stroke-linejoin="miter" stroke="rgb(100%, 100%, 100%)" stroke-opacity="1" stroke-miterlimit="4" d="M 285.256336 130.973887 C 285.256336 128.452483 281.514897 126.378425 276.919435 126.378425 C 272.323973 126.378425 268.582534 128.452483 268.582534 130.973887 C 268.582534 133.495291 272.323973 135.569349 276.919435 135.569349 C 281.514897 135.569349 285.256336 133.495291 285.256336 130.973887 Z M 285.256336 130.973887 " transform="matrix(0.0960526, 0, 0, -0.0960526, 0.561316, 17.529605)"/>
<path fill-rule="nonzero" fill="rgb(0.784302%, 43.920898%, 62.350464%)" fill-opacity="1" d="M 27.960938 8.152344 C 27.960938 8.394531 27.601562 8.59375 27.160156 8.59375 C 26.71875 8.59375 26.359375 8.394531 26.359375 8.152344 C 26.359375 7.90625 26.71875 7.710938 27.160156 7.710938 C 27.601562 7.710938 27.960938 7.90625 27.960938 8.152344 "/>
<path fill="none" stroke-width="3.99994" stroke-linecap="butt" stroke-linejoin="miter" stroke="rgb(100%, 100%, 100%)" stroke-opacity="1" stroke-miterlimit="4" d="M 285.256336 97.626284 C 285.256336 95.10488 281.514897 93.030822 276.919435 93.030822 C 272.323973 93.030822 268.582534 95.10488 268.582534 97.626284 C 268.582534 100.188356 272.323973 102.221747 276.919435 102.221747 C 281.514897 102.221747 285.256336 100.188356 285.256336 97.626284 Z M 285.256336 97.626284 " transform="matrix(0.0960526, 0, 0, -0.0960526, 0.561316, 17.529605)"/>
<path fill-rule="nonzero" fill="rgb(0.784302%, 43.920898%, 62.350464%)" fill-opacity="1" d="M 27.960938 11.351562 C 27.960938 11.59375 27.601562 11.792969 27.160156 11.792969 C 26.71875 11.792969 26.359375 11.59375 26.359375 11.351562 C 26.359375 11.109375 26.71875 10.914062 27.160156 10.914062 C 27.601562 10.914062 27.960938 11.109375 27.960938 11.351562 "/>
<path fill="none" stroke-width="3.99994" stroke-linecap="butt" stroke-linejoin="miter" stroke="rgb(100%, 100%, 100%)" stroke-opacity="1" stroke-miterlimit="4" d="M 285.256336 64.319349 C 285.256336 61.797945 281.514897 59.723887 276.919435 59.723887 C 272.323973 59.723887 268.582534 61.797945 268.582534 64.319349 C 268.582534 66.840753 272.323973 68.874144 276.919435 68.874144 C 281.514897 68.874144 285.256336 66.840753 285.256336 64.319349 Z M 285.256336 64.319349 " transform="matrix(0.0960526, 0, 0, -0.0960526, 0.561316, 17.529605)"/>
<path fill-rule="nonzero" fill="rgb(0.784302%, 43.920898%, 62.350464%)" fill-opacity="1" d="M 27.960938 14.554688 C 27.960938 14.796875 27.601562 14.996094 27.160156 14.996094 C 26.71875 14.996094 26.359375 14.796875 26.359375 14.554688 C 26.359375 14.308594 26.71875 14.113281 27.160156 14.113281 C 27.601562 14.113281 27.960938 14.308594 27.960938 14.554688 "/>
<g clip-path="url(#clip-6)">
<path fill="none" stroke-width="3.99994" stroke-linecap="butt" stroke-linejoin="miter" stroke="rgb(100%, 100%, 100%)" stroke-opacity="1" stroke-miterlimit="4" d="M 285.256336 30.971747 C 285.256336 28.450342 281.514897 26.376284 276.919435 26.376284 C 272.323973 26.376284 268.582534 28.450342 268.582534 30.971747 C 268.582534 33.533818 272.323973 35.567209 276.919435 35.567209 C 281.514897 35.567209 285.256336 33.533818 285.256336 30.971747 Z M 285.256336 30.971747 " transform="matrix(0.0960526, 0, 0, -0.0960526, 0.561316, 17.529605)"/>
</g>
</svg>
