<?xml version="1.0" encoding="UTF-8"?>
<svg xmlns="http://www.w3.org/2000/svg" xmlns:xlink="http://www.w3.org/1999/xlink" width="24.55" height="26.76" viewBox="0 0 24.55 26.76">
<defs>
<clipPath id="clip-0">
<path clip-rule="nonzero" d="M 0 4 L 20 4 L 20 26.402344 L 0 26.402344 Z M 0 4 "/>
</clipPath>
<clipPath id="clip-1">
<path clip-rule="nonzero" d="M 0 0.121094 L 24 0.121094 L 24 26 L 0 26 Z M 0 0.121094 "/>
</clipPath>
<clipPath id="clip-2">
<path clip-rule="nonzero" d="M 0 0.121094 L 24.109375 0.121094 L 24.109375 26.402344 L 0 26.402344 Z M 0 0.121094 "/>
</clipPath>
<clipPath id="clip-3">
<path clip-rule="nonzero" d="M 19 0.121094 L 24 0.121094 L 24 6 L 19 6 Z M 19 0.121094 "/>
</clipPath>
<clipPath id="clip-4">
<path clip-rule="nonzero" d="M 16 0.121094 L 24.109375 0.121094 L 24.109375 8 L 16 8 Z M 16 0.121094 "/>
</clipPath>
</defs>
<path fill-rule="nonzero" fill="rgb(0.784302%, 43.920898%, 62.350464%)" fill-opacity="1" d="M 0.472656 25.925781 L 19.082031 25.925781 L 19.082031 5.148438 L 0.472656 5.148438 Z M 0.472656 25.925781 "/>
<g clip-path="url(#clip-0)">
<path fill="none" stroke-width="3.99994" stroke-linecap="butt" stroke-linejoin="miter" stroke="rgb(100%, 100%, 100%)" stroke-opacity="1" stroke-miterlimit="4" d="M 194.318037 4.842553 L 194.318037 216.424465 L 4.8132 216.424465 L 4.8132 4.842553 Z M 194.318037 4.842553 " transform="matrix(0.0982, 0, 0, -0.0982, 0, 26.40132)"/>
</g>
<g clip-path="url(#clip-1)">
<path fill-rule="nonzero" fill="rgb(0.784302%, 43.920898%, 62.350464%)" fill-opacity="1" d="M 19.082031 25.925781 L 23.910156 21.101562 L 23.910156 0.324219 L 5.300781 0.324219 L 0.472656 5.148438 L 19.082031 5.148438 L 19.082031 25.925781 "/>
</g>
<g clip-path="url(#clip-2)">
<path fill="none" stroke-width="3.99994" stroke-linecap="butt" stroke-linejoin="miter" stroke="rgb(100%, 100%, 100%)" stroke-opacity="1" stroke-miterlimit="4" d="M 194.318037 4.842553 L 243.48428 53.969017 L 243.48428 265.550929 L 53.979442 265.550929 L 4.8132 216.424465 L 194.318037 216.424465 Z M 194.318037 4.842553 " transform="matrix(0.0982, 0, 0, -0.0982, 0, 26.40132)"/>
</g>
<g clip-path="url(#clip-3)">
<path fill-rule="nonzero" fill="rgb(0.784302%, 43.920898%, 62.350464%)" fill-opacity="1" d="M 19.082031 5.148438 L 23.910156 0.324219 "/>
</g>
<g clip-path="url(#clip-4)">
<path fill="none" stroke-width="3.99994" stroke-linecap="butt" stroke-linejoin="miter" stroke="rgb(100%, 100%, 100%)" stroke-opacity="1" stroke-miterlimit="4" d="M 194.318037 216.424465 L 243.48428 265.550929 " transform="matrix(0.0982, 0, 0, -0.0982, 0, 26.40132)"/>
</g>
<path fill="none" stroke-width="3.99994" stroke-linecap="butt" stroke-linejoin="miter" stroke="rgb(100%, 100%, 100%)" stroke-opacity="1" stroke-miterlimit="4" d="M 194.318037 164.513506 L 4.8132 164.513506 " transform="matrix(0.0982, 0, 0, -0.0982, 0, 26.40132)"/>
<path fill="none" stroke-width="3.99994" stroke-linecap="butt" stroke-linejoin="miter" stroke="rgb(100%, 100%, 100%)" stroke-opacity="1" stroke-miterlimit="4" d="M 194.318037 58.105983 L 4.8132 58.105983 " transform="matrix(0.0982, 0, 0, -0.0982, 0, 26.40132)"/>
<path fill="none" stroke-width="3.99994" stroke-linecap="butt" stroke-linejoin="miter" stroke="rgb(100%, 100%, 100%)" stroke-opacity="1" stroke-miterlimit="4" d="M 194.318037 109.658936 L 4.8132 109.658936 " transform="matrix(0.0982, 0, 0, -0.0982, 0, 26.40132)"/>
<path fill="none" stroke-width="3.99994" stroke-linecap="butt" stroke-linejoin="miter" stroke="rgb(100%, 100%, 100%)" stroke-opacity="1" stroke-miterlimit="4" d="M 132.820456 191.284445 L 174.269666 191.284445 " transform="matrix(0.0982, 0, 0, -0.0982, 0, 26.40132)"/>
<path fill="none" stroke-width="3.99994" stroke-linecap="butt" stroke-linejoin="miter" stroke="rgb(100%, 100%, 100%)" stroke-opacity="1" stroke-miterlimit="4" d="M 132.820456 136.429875 L 174.269666 136.429875 " transform="matrix(0.0982, 0, 0, -0.0982, 0, 26.40132)"/>
<path fill="none" stroke-width="3.99994" stroke-linecap="butt" stroke-linejoin="miter" stroke="rgb(100%, 100%, 100%)" stroke-opacity="1" stroke-miterlimit="4" d="M 132.820456 84.876922 L 174.269666 84.876922 " transform="matrix(0.0982, 0, 0, -0.0982, 0, 26.40132)"/>
<path fill="none" stroke-width="3.99994" stroke-linecap="butt" stroke-linejoin="miter" stroke="rgb(100%, 100%, 100%)" stroke-opacity="1" stroke-miterlimit="4" d="M 132.820456 31.653271 L 174.269666 31.653271 " transform="matrix(0.0982, 0, 0, -0.0982, 0, 26.40132)"/>
</svg>
