<?xml version="1.0" encoding="UTF-8"?>
<svg xmlns="http://www.w3.org/2000/svg" xmlns:xlink="http://www.w3.org/1999/xlink" width="24.15" height="33.83" viewBox="0 0 24.15 33.83">
<defs>
<clipPath id="clip-0">
<path clip-rule="nonzero" d="M 7 3 L 20 3 L 20 33.171875 L 7 33.171875 Z M 7 3 "/>
</clipPath>
<clipPath id="clip-1">
<path clip-rule="nonzero" d="M 17 0.523438 L 23 0.523438 L 23 32 L 17 32 Z M 17 0.523438 "/>
</clipPath>
<clipPath id="clip-2">
<path clip-rule="nonzero" d="M 15 0.523438 L 23.183594 0.523438 L 23.183594 33.171875 L 15 33.171875 Z M 15 0.523438 "/>
</clipPath>
<clipPath id="clip-3">
<path clip-rule="nonzero" d="M 8 0.523438 L 16 0.523438 L 16 8 L 8 8 Z M 8 0.523438 "/>
</clipPath>
<clipPath id="clip-4">
<path clip-rule="nonzero" d="M 0 0.523438 L 23 0.523438 L 23 9 L 0 9 Z M 0 0.523438 "/>
</clipPath>
<clipPath id="clip-5">
<path clip-rule="nonzero" d="M 0 0.523438 L 23.183594 0.523438 L 23.183594 11 L 0 11 Z M 0 0.523438 "/>
</clipPath>
<clipPath id="clip-6">
<path clip-rule="nonzero" d="M 0 6 L 10 6 L 10 33.171875 L 0 33.171875 Z M 0 6 "/>
</clipPath>
<clipPath id="clip-7">
<path clip-rule="nonzero" d="M 0 4 L 12 4 L 12 33.171875 L 0 33.171875 Z M 0 4 "/>
</clipPath>
<clipPath id="clip-8">
<path clip-rule="nonzero" d="M 8 0.523438 L 17 0.523438 L 17 8 L 8 8 Z M 8 0.523438 "/>
</clipPath>
</defs>
<path fill-rule="nonzero" fill="rgb(0.784302%, 43.920898%, 62.350464%)" fill-opacity="1" d="M 17.804688 6.171875 L 9.1875 6.171875 L 9.234375 31.960938 L 17.804688 31.960938 L 17.804688 6.171875 "/>
<g clip-path="url(#clip-0)">
<path fill="none" stroke-width="3.99994" stroke-linecap="butt" stroke-linejoin="miter" stroke="rgb(100%, 100%, 100%)" stroke-opacity="1" stroke-miterlimit="4" d="M 184.313535 279.512474 L 95.108696 279.512474 L 95.593944 12.544953 L 184.313535 12.544953 Z M 184.313535 279.512474 " transform="matrix(0.0966, 0, 0, -0.0966, 0, 33.17278)"/>
</g>
<path fill-rule="nonzero" fill="rgb(0.784302%, 43.920898%, 62.350464%)" fill-opacity="1" d="M 10.410156 15.570312 L 16.492188 15.570312 L 16.492188 9.734375 L 10.410156 9.734375 Z M 10.410156 15.570312 "/>
<path fill="none" stroke-width="3.99994" stroke-linecap="butt" stroke-linejoin="miter" stroke="rgb(100%, 100%, 100%)" stroke-opacity="1" stroke-miterlimit="4" d="M 107.765593 242.633592 L 170.726579 242.633592 L 170.726579 182.22016 L 107.765593 182.22016 Z M 107.765593 242.633592 " transform="matrix(0.0966, 0, 0, -0.0966, 0, 33.17278)"/>
<g clip-path="url(#clip-1)">
<path fill-rule="nonzero" fill="rgb(0.784302%, 43.920898%, 62.350464%)" fill-opacity="1" d="M 22.917969 0.976562 L 17.816406 6.277344 L 17.816406 31.96875 L 22.917969 25.925781 L 22.917969 0.976562 "/>
</g>
<g clip-path="url(#clip-2)">
<path fill="none" stroke-width="3.99994" stroke-linecap="butt" stroke-linejoin="miter" stroke="rgb(100%, 100%, 100%)" stroke-opacity="1" stroke-miterlimit="4" d="M 237.246053 333.294177 L 184.434847 278.420665 L 184.434847 12.464079 L 237.246053 75.020691 Z M 237.246053 333.294177 " transform="matrix(0.0966, 0, 0, -0.0966, 0, 33.17278)"/>
</g>
<path fill="none" stroke-width="3.99994" stroke-linecap="butt" stroke-linejoin="miter" stroke="rgb(100%, 100%, 100%)" stroke-opacity="1" stroke-miterlimit="4" d="M 17.630694 281.089532 L 90.701022 281.089532 " transform="matrix(0.0966, 0, 0, -0.0966, 0, 33.17278)"/>
<path fill-rule="nonzero" fill="rgb(0.784302%, 43.920898%, 62.350464%)" fill-opacity="1" d="M 10.199219 5.167969 L 13.441406 1.617188 "/>
<g clip-path="url(#clip-3)">
<path fill="none" stroke-width="3.99994" stroke-linecap="butt" stroke-linejoin="miter" stroke="rgb(100%, 100%, 100%)" stroke-opacity="1" stroke-miterlimit="4" d="M 105.581975 289.904878 L 139.144992 326.662448 " transform="matrix(0.0966, 0, 0, -0.0966, 0, 33.17278)"/>
</g>
<g clip-path="url(#clip-4)">
<path fill-rule="nonzero" fill="rgb(0.784302%, 43.920898%, 62.350464%)" fill-opacity="1" d="M 8.910156 6.554688 C 8.910156 6.554688 8.871094 8.261719 5.761719 8.226562 L 0.261719 7.386719 L 0.261719 7.058594 L 7.996094 0.890625 L 22.878906 0.902344 L 17.863281 6.167969 L 9.242188 6.167969 "/>
</g>
<g clip-path="url(#clip-5)">
<path fill="none" stroke-width="3.99994" stroke-linecap="butt" stroke-linejoin="miter" stroke="rgb(100%, 100%, 100%)" stroke-opacity="1" stroke-miterlimit="4" d="M 92.237642 275.549612 C 92.237642 275.549612 91.833269 257.878481 59.645122 258.242417 L 2.709304 266.936452 L 2.709304 270.333191 L 82.775298 334.183799 L 236.84168 334.062487 L 184.920096 279.552911 L 95.674819 279.552911 " transform="matrix(0.0966, 0, 0, -0.0966, 0, 33.17278)"/>
</g>
<g clip-path="url(#clip-6)">
<path fill-rule="nonzero" fill="rgb(0.784302%, 43.920898%, 62.350464%)" fill-opacity="1" d="M 9.171875 6.257812 C 9.171875 6.257812 6.675781 7.726562 3.808594 7.394531 L 0.191406 7.089844 L 0.191406 32.828125 L 3.808594 32.980469 C 7.472656 33.300781 9.1875 31.980469 9.1875 31.980469 L 9.171875 6.257812 "/>
</g>
<g clip-path="url(#clip-7)">
<path fill="none" stroke-width="3.99994" stroke-linecap="butt" stroke-linejoin="miter" stroke="rgb(100%, 100%, 100%)" stroke-opacity="1" stroke-miterlimit="4" d="M 94.946946 278.622852 C 94.946946 278.622852 69.107466 263.418401 39.426436 266.855577 L 1.981431 270.009692 L 1.981431 3.567857 L 39.426436 1.9908 C 77.35669 -1.325065 95.108696 12.342767 95.108696 12.342767 Z M 94.946946 278.622852 " transform="matrix(0.0966, 0, 0, -0.0966, 0, 33.17278)"/>
</g>
<path fill="none" stroke-width="3.99994" stroke-linecap="butt" stroke-linejoin="miter" stroke="rgb(100%, 100%, 100%)" stroke-opacity="1" stroke-miterlimit="4" d="M 18.358566 282.302653 L 91.428895 282.302653 " transform="matrix(0.0966, 0, 0, -0.0966, 0, 33.17278)"/>
<path fill-rule="nonzero" fill="rgb(0.784302%, 43.920898%, 62.350464%)" fill-opacity="1" d="M 10.90625 5.050781 L 14.777344 1.480469 "/>
<g clip-path="url(#clip-8)">
<path fill="none" stroke-width="3.99994" stroke-linecap="butt" stroke-linejoin="miter" stroke="rgb(100%, 100%, 100%)" stroke-opacity="1" stroke-miterlimit="4" d="M 112.901139 291.117999 L 152.974573 328.077756 " transform="matrix(0.0966, 0, 0, -0.0966, 0, 33.17278)"/>
</g>
</svg>
