<?xml version="1.0" encoding="UTF-8"?>
<svg xmlns="http://www.w3.org/2000/svg" xmlns:xlink="http://www.w3.org/1999/xlink" width="64.08" height="35.35" viewBox="0 0 64.08 35.35">
<defs>
<clipPath id="clip-0">
<path clip-rule="nonzero" d="M 0.125 28 L 30 28 L 30 32 L 0.125 32 Z M 0.125 28 "/>
</clipPath>
<clipPath id="clip-1">
<path clip-rule="nonzero" d="M 0.125 19 L 39 19 L 39 29 L 0.125 29 Z M 0.125 19 "/>
</clipPath>
<clipPath id="clip-2">
<path clip-rule="nonzero" d="M 0.125 17 L 41 17 L 41 31 L 0.125 31 Z M 0.125 17 "/>
</clipPath>
<clipPath id="clip-3">
<path clip-rule="nonzero" d="M 42 17 L 63.050781 17 L 63.050781 34 L 42 34 Z M 42 17 "/>
</clipPath>
<clipPath id="clip-4">
<path clip-rule="nonzero" d="M 54 30 L 59 30 L 59 34.710938 L 54 34.710938 Z M 54 30 "/>
</clipPath>
<clipPath id="clip-5">
<path clip-rule="nonzero" d="M 52 28 L 61 28 L 61 34.710938 L 52 34.710938 Z M 52 28 "/>
</clipPath>
</defs>
<path fill-rule="nonzero" fill="rgb(3.114319%, 49.784851%, 74.841309%)" fill-opacity="1" d="M 38.53125 18.492188 L 41.964844 0.464844 L 15.800781 0.464844 L 11.949219 18.492188 L 38.53125 18.492188 "/>
<path fill="none" stroke-width="4" stroke-linecap="butt" stroke-linejoin="miter" stroke="rgb(100%, 100%, 100%)" stroke-opacity="1" stroke-miterlimit="4" d="M 391.106082 165.177864 L 426.073373 348.766089 L 159.621818 348.766089 L 120.397984 165.177864 Z M 391.106082 165.177864 " transform="matrix(0.0981944, 0, 0, -0.0981944, 0.126806, 34.711736)"/>
<path fill-rule="nonzero" fill="rgb(3.114319%, 49.784851%, 74.841309%)" fill-opacity="1" d="M 41.964844 0.464844 L 42.984375 1.789062 L 39.796875 19.273438 L 38.53125 18.492188 L 41.964844 0.464844 "/>
<path fill="none" stroke-width="4" stroke-linecap="butt" stroke-linejoin="miter" stroke="rgb(100%, 100%, 100%)" stroke-opacity="1" stroke-miterlimit="4" d="M 426.073373 348.766089 L 436.456153 335.28041 L 403.99505 157.221711 L 391.106082 165.177864 Z M 426.073373 348.766089 " transform="matrix(0.0981944, 0, 0, -0.0981944, 0.126806, 34.711736)"/>
<path fill-rule="nonzero" fill="rgb(3.114319%, 49.784851%, 74.841309%)" fill-opacity="1" d="M 11.949219 18.492188 L 13.09375 19.273438 L 39.796875 19.273438 L 38.53125 18.492188 L 11.949219 18.492188 "/>
<path fill="none" stroke-width="4" stroke-linecap="butt" stroke-linejoin="miter" stroke="rgb(100%, 100%, 100%)" stroke-opacity="1" stroke-miterlimit="4" d="M 120.397984 165.177864 L 132.053748 157.221711 L 403.99505 157.221711 L 391.106082 165.177864 Z M 120.397984 165.177864 " transform="matrix(0.0981944, 0, 0, -0.0981944, 0.126806, 34.711736)"/>
<path fill-rule="nonzero" fill="rgb(3.114319%, 49.784851%, 74.841309%)" fill-opacity="1" d="M 38.773438 19.726562 L 38.773438 22.402344 L 38.082031 23.003906 C 38.082031 23.003906 36.457031 23.484375 36.816406 24.445312 L 29.570312 31.183594 L 29.570312 28.234375 L 38.773438 19.726562 "/>
<path fill="none" stroke-width="4" stroke-linecap="butt" stroke-linejoin="miter" stroke="rgb(100%, 100%, 100%)" stroke-opacity="1" stroke-miterlimit="4" d="M 393.572489 152.607143 L 393.572489 125.35732 L 386.531294 119.231082 C 386.531294 119.231082 369.982496 114.338048 373.642327 104.55198 L 299.84901 35.930163 L 299.84901 65.964639 Z M 393.572489 152.607143 " transform="matrix(0.0981944, 0, 0, -0.0981944, 0.126806, 34.711736)"/>
<g clip-path="url(#clip-0)">
<path fill-rule="nonzero" fill="rgb(3.114319%, 49.784851%, 74.841309%)" fill-opacity="1" d="M 0.734375 31.183594 L 29.570312 31.183594 L 29.570312 28.234375 L 0.734375 28.234375 Z M 0.734375 31.183594 "/>
<path fill="none" stroke-width="4" stroke-linecap="butt" stroke-linejoin="miter" stroke="rgb(100%, 100%, 100%)" stroke-opacity="1" stroke-miterlimit="4" d="M 6.187412 65.964639 L 6.187412 35.930163 L 299.84901 35.930163 L 299.84901 65.964639 L 6.187412 65.964639 " transform="matrix(0.0981944, 0, 0, -0.0981944, 0.126806, 34.711736)"/>
</g>
<g clip-path="url(#clip-1)">
<path fill-rule="nonzero" fill="rgb(3.114319%, 49.784851%, 74.841309%)" fill-opacity="1" d="M 12.25 19.90625 L 38.773438 19.726562 L 29.570312 28.234375 L 0.734375 28.234375 L 12.25 19.90625 "/>
</g>
<g clip-path="url(#clip-2)">
<path fill="none" stroke-width="4" stroke-linecap="butt" stroke-linejoin="miter" stroke="rgb(100%, 100%, 100%)" stroke-opacity="1" stroke-miterlimit="4" d="M 123.461103 150.777228 L 393.572489 152.607143 L 299.84901 65.964639 L 6.187412 65.964639 Z M 123.461103 150.777228 " transform="matrix(0.0981944, 0, 0, -0.0981944, 0.126806, 34.711736)"/>
</g>
<path fill-rule="nonzero" fill="rgb(3.114319%, 49.784851%, 74.841309%)" fill-opacity="1" d="M 36.3125 16.738281 L 39.050781 2.617188 L 17.777344 2.617188 L 15.039062 16.738281 L 36.3125 16.738281 "/>
<path fill="none" stroke-width="4" stroke-linecap="butt" stroke-linejoin="miter" stroke="rgb(100%, 100%, 100%)" stroke-opacity="1" stroke-miterlimit="4" d="M 368.510608 183.039427 L 396.396924 326.846888 L 179.750884 326.846888 L 151.864569 183.039427 Z M 368.510608 183.039427 " transform="matrix(0.0981944, 0, 0, -0.0981944, 0.126806, 34.711736)"/>
<path fill="none" stroke-width="1" stroke-linecap="butt" stroke-linejoin="round" stroke="rgb(100%, 100%, 100%)" stroke-opacity="1" stroke-miterlimit="4" d="M 129.826025 148.867751 L 61.681577 93.850955 " transform="matrix(0.0981944, 0, 0, -0.0981944, 0.126806, 34.711736)"/>
<path fill="none" stroke-width="1" stroke-linecap="butt" stroke-linejoin="round" stroke="rgb(100%, 100%, 100%)" stroke-opacity="1" stroke-miterlimit="4" d="M 151.665665 148.867751 L 83.560997 93.850955 " transform="matrix(0.0981944, 0, 0, -0.0981944, 0.126806, 34.711736)"/>
<path fill="none" stroke-width="1" stroke-linecap="butt" stroke-linejoin="round" stroke="rgb(100%, 100%, 100%)" stroke-opacity="1" stroke-miterlimit="4" d="M 173.545085 148.867751 L 105.440417 93.850955 " transform="matrix(0.0981944, 0, 0, -0.0981944, 0.126806, 34.711736)"/>
<path fill="none" stroke-width="1" stroke-linecap="butt" stroke-linejoin="round" stroke="rgb(100%, 100%, 100%)" stroke-opacity="1" stroke-miterlimit="4" d="M 195.424505 148.867751 L 127.319837 93.850955 " transform="matrix(0.0981944, 0, 0, -0.0981944, 0.126806, 34.711736)"/>
<path fill="none" stroke-width="1" stroke-linecap="butt" stroke-linejoin="round" stroke="rgb(100%, 100%, 100%)" stroke-opacity="1" stroke-miterlimit="4" d="M 217.303925 148.867751 L 149.199257 93.850955 " transform="matrix(0.0981944, 0, 0, -0.0981944, 0.126806, 34.711736)"/>
<path fill="none" stroke-width="1" stroke-linecap="butt" stroke-linejoin="round" stroke="rgb(100%, 100%, 100%)" stroke-opacity="1" stroke-miterlimit="4" d="M 239.183345 148.867751 L 171.078678 93.850955 " transform="matrix(0.0981944, 0, 0, -0.0981944, 0.126806, 34.711736)"/>
<path fill="none" stroke-width="1" stroke-linecap="butt" stroke-linejoin="round" stroke="rgb(100%, 100%, 100%)" stroke-opacity="1" stroke-miterlimit="4" d="M 261.062765 148.867751 L 192.918317 93.850955 " transform="matrix(0.0981944, 0, 0, -0.0981944, 0.126806, 34.711736)"/>
<path fill="none" stroke-width="1" stroke-linecap="butt" stroke-linejoin="round" stroke="rgb(100%, 100%, 100%)" stroke-opacity="1" stroke-miterlimit="4" d="M 282.942185 148.867751 L 214.797737 93.850955 " transform="matrix(0.0981944, 0, 0, -0.0981944, 0.126806, 34.711736)"/>
<path fill="none" stroke-width="1" stroke-linecap="butt" stroke-linejoin="round" stroke="rgb(100%, 100%, 100%)" stroke-opacity="1" stroke-miterlimit="4" d="M 304.821605 148.867751 L 236.677157 93.850955 " transform="matrix(0.0981944, 0, 0, -0.0981944, 0.126806, 34.711736)"/>
<path fill="none" stroke-width="1" stroke-linecap="butt" stroke-linejoin="round" stroke="rgb(100%, 100%, 100%)" stroke-opacity="1" stroke-miterlimit="4" d="M 326.661245 148.867751 L 258.556577 93.850955 " transform="matrix(0.0981944, 0, 0, -0.0981944, 0.126806, 34.711736)"/>
<path fill="none" stroke-width="1" stroke-linecap="butt" stroke-linejoin="round" stroke="rgb(100%, 100%, 100%)" stroke-opacity="1" stroke-miterlimit="4" d="M 348.540665 148.867751 L 280.435997 93.850955 " transform="matrix(0.0981944, 0, 0, -0.0981944, 0.126806, 34.711736)"/>
<path fill="none" stroke-width="1" stroke-linecap="butt" stroke-linejoin="round" stroke="rgb(100%, 100%, 100%)" stroke-opacity="1" stroke-miterlimit="4" d="M 370.420085 148.867751 L 302.315417 93.850955 " transform="matrix(0.0981944, 0, 0, -0.0981944, 0.126806, 34.711736)"/>
<path fill="none" stroke-width="1" stroke-linecap="butt" stroke-linejoin="round" stroke="rgb(100%, 100%, 100%)" stroke-opacity="1" stroke-miterlimit="4" d="M 69.319484 99.658946 L 311.82302 99.658946 " transform="matrix(0.0981944, 0, 0, -0.0981944, 0.126806, 34.711736)"/>
<path fill="none" stroke-width="1" stroke-linecap="butt" stroke-linejoin="round" stroke="rgb(100%, 100%, 100%)" stroke-opacity="1" stroke-miterlimit="4" d="M 85.589816 112.269448 L 324.393741 112.269448 " transform="matrix(0.0981944, 0, 0, -0.0981944, 0.126806, 34.711736)"/>
<path fill="none" stroke-width="1" stroke-linecap="butt" stroke-linejoin="round" stroke="rgb(100%, 100%, 100%)" stroke-opacity="1" stroke-miterlimit="4" d="M 102.536421 124.84017 L 340.664074 124.84017 " transform="matrix(0.0981944, 0, 0, -0.0981944, 0.126806, 34.711736)"/>
<path fill="none" stroke-width="1" stroke-linecap="butt" stroke-linejoin="round" stroke="rgb(100%, 100%, 100%)" stroke-opacity="1" stroke-miterlimit="4" d="M 117.57355 137.450672 L 357.610679 137.450672 " transform="matrix(0.0981944, 0, 0, -0.0981944, 0.126806, 34.711736)"/>
<path fill-rule="nonzero" fill="rgb(100%, 100%, 100%)" fill-opacity="1" d="M 26.175781 7.195312 L 30.019531 7.195312 C 30.953125 7.480469 30.859375 8.226562 30.859375 8.226562 C 30.859375 8.96875 30.207031 9.160156 30.207031 9.160156 L 23.203125 9.160156 C 21.898438 9.0625 22.371094 7.945312 22.371094 7.945312 L 25.339844 4.53125 C 25.8125 4.058594 26.894531 4.53125 26.894531 4.53125 C 27.574219 5.210938 27.269531 5.820312 27.269531 5.820312 L 26.175781 7.195312 "/>
<path fill-rule="nonzero" fill="rgb(100%, 100%, 100%)" fill-opacity="1" d="M 28.933594 12.589844 L 25.089844 12.589844 C 24.160156 12.304688 24.253906 11.558594 24.253906 11.558594 C 24.253906 10.8125 24.90625 10.621094 24.90625 10.621094 L 31.90625 10.621094 C 33.214844 10.71875 32.742188 11.835938 32.742188 11.835938 L 29.773438 15.253906 C 29.296875 15.726562 28.21875 15.253906 28.21875 15.253906 C 27.535156 14.570312 27.839844 13.964844 27.839844 13.964844 L 28.933594 12.589844 "/>
<path fill-rule="nonzero" fill="rgb(13.729858%, 12.159729%, 12.548828%)" fill-opacity="1" d="M 36.964844 30.605469 C 36.964844 31.210938 36.476562 31.699219 35.871094 31.699219 C 35.269531 31.699219 34.78125 31.210938 34.78125 30.605469 C 34.78125 30.003906 35.269531 29.515625 35.871094 29.515625 C 36.476562 29.515625 36.964844 30.003906 36.964844 30.605469 "/>
<path fill="none" stroke-width="4" stroke-linecap="butt" stroke-linejoin="round" stroke="rgb(0%, 0%, 0%)" stroke-opacity="1" stroke-miterlimit="4" d="M 570.477546 23.27988 C 536.544554 11.544554 474.247878 8.640559 423.408062 17.153642 C 389.912659 22.76273 368.987977 32.031648 364.055163 41.817716 " transform="matrix(0.0981944, 0, 0, -0.0981944, 0.126806, 34.711736)"/>
<g clip-path="url(#clip-3)">
<path fill="none" stroke-width="10" stroke-linecap="butt" stroke-linejoin="round" stroke="rgb(0%, 0%, 0%)" stroke-opacity="1" stroke-miterlimit="4" d="M 439.360149 79.887907 C 446.878713 97.829031 460.563296 116.00884 479.658062 131.722242 C 527.036952 170.786952 589.850778 179.936528 620.004597 152.209335 C 650.118635 124.482143 636.155587 70.340523 588.776697 31.315594 C 584.281471 27.615983 579.666902 24.194837 574.932992 21.052157 " transform="matrix(0.0981944, 0, 0, -0.0981944, 0.126806, 34.711736)"/>
</g>
<g clip-path="url(#clip-4)">
<path fill-rule="nonzero" fill="rgb(13.729858%, 12.159729%, 12.548828%)" fill-opacity="1" d="M 58.464844 32.644531 C 58.464844 33.6875 57.621094 34.53125 56.582031 34.53125 C 55.539062 34.53125 54.695312 33.6875 54.695312 32.644531 C 54.695312 31.605469 55.539062 30.761719 56.582031 30.761719 C 57.621094 30.761719 58.464844 31.605469 58.464844 32.644531 "/>
</g>
<g clip-path="url(#clip-5)">
<path fill="none" stroke-width="4" stroke-linecap="butt" stroke-linejoin="miter" stroke="rgb(100%, 100%, 100%)" stroke-opacity="1" stroke-miterlimit="4" d="M 594.10732 21.052157 C 594.10732 10.430693 585.514675 1.838048 574.932992 1.838048 C 564.311528 1.838048 555.718883 10.430693 555.718883 21.052157 C 555.718883 31.63384 564.311528 40.226485 574.932992 40.226485 C 585.514675 40.226485 594.10732 31.63384 594.10732 21.052157 Z M 594.10732 21.052157 " transform="matrix(0.0981944, 0, 0, -0.0981944, 0.126806, 34.711736)"/>
</g>
<path fill-rule="nonzero" fill="rgb(13.729858%, 12.159729%, 12.548828%)" fill-opacity="1" d="M 44.339844 26.855469 C 44.339844 27.457031 43.851562 27.949219 43.246094 27.949219 C 42.644531 27.949219 42.15625 27.457031 42.15625 26.855469 C 42.15625 26.253906 42.644531 25.765625 43.246094 25.765625 C 43.851562 25.765625 44.339844 26.253906 44.339844 26.855469 "/>
</svg>
