<?xml version="1.0" encoding="UTF-8"?>
<svg xmlns="http://www.w3.org/2000/svg" xmlns:xlink="http://www.w3.org/1999/xlink" width="34.07" height="30.51" viewBox="0 0 34.07 30.51">
<defs>
<clipPath id="clip-0">
<path clip-rule="nonzero" d="M 21 3 L 33.097656 3 L 33.097656 27 L 21 27 Z M 21 3 "/>
</clipPath>
<clipPath id="clip-1">
<path clip-rule="nonzero" d="M 0 0.175781 L 33 0.175781 L 33 15 L 0 15 Z M 0 0.175781 "/>
</clipPath>
<clipPath id="clip-2">
<path clip-rule="nonzero" d="M 0 0.175781 L 33.097656 0.175781 L 33.097656 17 L 0 17 Z M 0 0.175781 "/>
</clipPath>
<clipPath id="clip-3">
<path clip-rule="nonzero" d="M 0 8 L 24 8 L 24 29.867188 L 0 29.867188 Z M 0 8 "/>
</clipPath>
<clipPath id="clip-4">
<path clip-rule="nonzero" d="M 0 6 L 26 6 L 26 29.867188 L 0 29.867188 Z M 0 6 "/>
</clipPath>
<clipPath id="clip-5">
<path clip-rule="nonzero" d="M 0 6 L 23 6 L 23 29.867188 L 0 29.867188 Z M 0 6 "/>
</clipPath>
</defs>
<path fill-rule="nonzero" fill="rgb(3.115845%, 49.784851%, 74.839783%)" fill-opacity="1" d="M 32.664062 5.949219 L 32.664062 15.875 L 23.742188 24.066406 L 23.742188 14.140625 L 32.664062 5.949219 "/>
<g clip-path="url(#clip-0)">
<path fill="none" stroke-width="4" stroke-linecap="butt" stroke-linejoin="miter" stroke="rgb(100%, 100%, 100%)" stroke-opacity="1" stroke-miterlimit="4" d="M 335.55685 245.697988 L 335.55685 143.73076 L 243.902719 59.580711 L 243.902719 161.547938 Z M 335.55685 245.697988 " transform="matrix(0.0973429, 0, 0, -0.0973429, 0, 29.866163)"/>
</g>
<g clip-path="url(#clip-1)">
<path fill-rule="nonzero" fill="rgb(3.115845%, 49.784851%, 74.839783%)" fill-opacity="1" d="M 8.433594 8.390625 L 0.507812 8.390625 L 9.429688 0.363281 L 17.359375 0.363281 L 28.292969 5.949219 L 32.664062 5.949219 L 23.742188 14.140625 L 19.367188 14.140625 "/>
</g>
<g clip-path="url(#clip-2)">
<path fill="none" stroke-width="4" stroke-linecap="butt" stroke-linejoin="miter" stroke="rgb(100%, 100%, 100%)" stroke-opacity="1" stroke-miterlimit="4" d="M 86.638034 220.617501 L 5.216741 220.617501 L 96.870872 303.082142 L 178.332294 303.082142 L 290.652746 245.697988 L 335.55685 245.697988 L 243.902719 161.547938 L 198.958486 161.547938 " transform="matrix(0.0973429, 0, 0, -0.0973429, 0, 29.866163)"/>
</g>
<g clip-path="url(#clip-3)">
<path fill-rule="nonzero" fill="rgb(3.115845%, 49.784851%, 74.839783%)" fill-opacity="1" d="M 8.445312 8.402344 L 19.378906 14.140625 L 19.367188 14.140625 L 23.742188 14.140625 L 23.742188 24.066406 L 19.367188 24.066406 L 19.378906 24.066406 L 8.445312 29.617188 L 8.433594 29.601562 L 0.507812 29.601562 L 0.507812 8.378906 L 8.433594 8.378906 L 8.445312 8.402344 "/>
</g>
<g clip-path="url(#clip-4)">
<path fill="none" stroke-width="4" stroke-linecap="butt" stroke-linejoin="miter" stroke="rgb(100%, 100%, 100%)" stroke-opacity="1" stroke-miterlimit="4" d="M 86.75842 220.497114 L 199.078873 161.547938 L 198.958486 161.547938 L 243.902719 161.547938 L 243.902719 59.580711 L 198.958486 59.580711 L 199.078873 59.580711 L 86.75842 2.557716 L 86.638034 2.718231 L 5.216741 2.718231 L 5.216741 220.737887 L 86.638034 220.737887 Z M 86.75842 220.497114 " transform="matrix(0.0973429, 0, 0, -0.0973429, 0, 29.866163)"/>
</g>
<path fill-rule="nonzero" fill="rgb(100%, 100%, 100%)" fill-opacity="1" stroke-width="4" stroke-linecap="round" stroke-linejoin="round" stroke="rgb(100%, 100%, 100%)" stroke-opacity="1" stroke-miterlimit="4" d="M 181.622854 244.935541 L 138.604803 264.919673 " transform="matrix(0.0973429, 0, 0, -0.0973429, 0, 29.866163)"/>
<path fill-rule="nonzero" fill="rgb(100%, 100%, 100%)" fill-opacity="1" d="M 19.332031 9.328125 L 22.332031 7.027344 L 18.976562 7.101562 L 19.332031 9.328125 "/>
<path fill-rule="nonzero" fill="rgb(100%, 100%, 100%)" fill-opacity="1" d="M 14.476562 6.410156 L 17.476562 4.109375 L 17.964844 6.371094 L 14.476562 6.410156 "/>
<path fill-rule="nonzero" fill="rgb(100%, 100%, 100%)" fill-opacity="1" stroke-width="4" stroke-linecap="round" stroke-linejoin="round" stroke="rgb(100%, 100%, 100%)" stroke-opacity="1" stroke-miterlimit="4" d="M 240.531901 212.350972 L 202.690463 231.010854 " transform="matrix(0.0973429, 0, 0, -0.0973429, 0, 29.866163)"/>
<path fill-rule="nonzero" fill="rgb(100%, 100%, 100%)" fill-opacity="1" stroke-width="4" stroke-linecap="round" stroke-linejoin="round" stroke="rgb(100%, 100%, 100%)" stroke-opacity="1" stroke-miterlimit="4" d="M 194.704836 240.842405 L 216.093475 256.773531 " transform="matrix(0.0973429, 0, 0, -0.0973429, 0, 29.866163)"/>
<path fill-rule="nonzero" fill="rgb(100%, 100%, 100%)" fill-opacity="1" d="M 14.9375 7.386719 L 18.113281 9.101562 L 14.78125 9.664062 L 14.9375 7.386719 "/>
<path fill-rule="nonzero" fill="rgb(100%, 100%, 100%)" fill-opacity="1" d="M 19.160156 4.078125 L 22.332031 5.789062 L 22.109375 3.84375 L 19.160156 4.078125 "/>
<path fill-rule="nonzero" fill="rgb(100%, 100%, 100%)" fill-opacity="1" stroke-width="4" stroke-linecap="round" stroke-linejoin="round" stroke="rgb(100%, 100%, 100%)" stroke-opacity="1" stroke-miterlimit="4" d="M 161.317692 214.838957 L 185.274573 233.13768 " transform="matrix(0.0973429, 0, 0, -0.0973429, 0, 29.866163)"/>
<g clip-path="url(#clip-5)">
<path fill="none" stroke-width="14.25" stroke-linecap="butt" stroke-linejoin="miter" stroke="rgb(100%, 100%, 100%)" stroke-opacity="1" stroke-miterlimit="4" d="M 151.526269 69.653034 L 118.460156 69.653034 L 73.596181 160.18356 L 43.941013 160.18356 " transform="matrix(0.0973429, 0, 0, -0.0973429, 0, 29.866163)"/>
<path fill="none" stroke-width="14.25" stroke-linecap="butt" stroke-linejoin="miter" stroke="rgb(100%, 100%, 100%)" stroke-opacity="1" stroke-miterlimit="4" d="M 41.653673 69.813549 L 73.596181 69.813549 L 118.058868 159.902658 L 152.690004 159.902658 " transform="matrix(0.0973429, 0, 0, -0.0973429, 0, 29.866163)"/>
</g>
<path fill-rule="nonzero" fill="rgb(100%, 100%, 100%)" fill-opacity="1" d="M 13.75 12.6875 L 13.75 15.800781 L 15.625 14.304688 L 13.75 12.6875 "/>
<path fill="none" stroke-width="1.9" stroke-linecap="butt" stroke-linejoin="miter" stroke="rgb(100%, 100%, 100%)" stroke-opacity="1" stroke-miterlimit="4" d="M 141.253302 176.475844 L 141.253302 144.493207 L 160.515116 159.862529 Z M 141.253302 176.475844 " transform="matrix(0.0973429, 0, 0, -0.0973429, 0, 29.866163)"/>
<path fill-rule="nonzero" fill="rgb(100%, 100%, 100%)" fill-opacity="1" d="M 13.75 21.457031 L 13.75 24.570312 L 15.625 23.074219 L 13.75 21.457031 "/>
<path fill="none" stroke-width="1.9" stroke-linecap="butt" stroke-linejoin="miter" stroke="rgb(100%, 100%, 100%)" stroke-opacity="1" stroke-miterlimit="4" d="M 141.253302 86.386735 L 141.253302 54.404098 L 160.515116 69.773421 Z M 141.253302 86.386735 " transform="matrix(0.0973429, 0, 0, -0.0973429, 0, 29.866163)"/>
<path fill-rule="nonzero" fill="rgb(100%, 100%, 100%)" fill-opacity="1" d="M 4.710938 15.859375 L 4.710938 12.746094 L 2.835938 14.242188 L 4.710938 15.859375 "/>
<path fill="none" stroke-width="1.9" stroke-linecap="butt" stroke-linejoin="miter" stroke="rgb(100%, 100%, 100%)" stroke-opacity="1" stroke-miterlimit="4" d="M 48.395307 143.891275 L 48.395307 175.873912 L 29.133494 160.50459 Z M 48.395307 143.891275 " transform="matrix(0.0973429, 0, 0, -0.0973429, 0, 29.866163)"/>
<path fill-rule="nonzero" fill="rgb(100%, 100%, 100%)" fill-opacity="1" d="M 4.710938 24.671875 L 4.710938 21.5625 L 2.835938 23.054688 L 4.710938 24.671875 "/>
<path fill="none" stroke-width="1.9" stroke-linecap="butt" stroke-linejoin="miter" stroke="rgb(100%, 100%, 100%)" stroke-opacity="1" stroke-miterlimit="4" d="M 48.395307 53.36075 L 48.395307 85.303258 L 29.133494 69.974064 Z M 48.395307 53.36075 " transform="matrix(0.0973429, 0, 0, -0.0973429, 0, 29.866163)"/>
</svg>
