<?xml version="1.0" encoding="UTF-8"?>
<svg xmlns="http://www.w3.org/2000/svg" xmlns:xlink="http://www.w3.org/1999/xlink" width="31.16" height="35.31" viewBox="0 0 31.16 35.31">
<defs>
<clipPath id="clip-0">
<path clip-rule="nonzero" d="M 24 0.136719 L 30 0.136719 L 30 34.21875 L 24 34.21875 Z M 24 0.136719 "/>
</clipPath>
<clipPath id="clip-1">
<path clip-rule="nonzero" d="M 22 0.136719 L 30.1875 0.136719 L 30.1875 34.21875 L 22 34.21875 Z M 22 0.136719 "/>
</clipPath>
<clipPath id="clip-2">
<path clip-rule="nonzero" d="M 0 0.136719 L 30 0.136719 L 30 6 L 0 6 Z M 0 0.136719 "/>
</clipPath>
<clipPath id="clip-3">
<path clip-rule="nonzero" d="M 0 0.136719 L 30.1875 0.136719 L 30.1875 8 L 0 8 Z M 0 0.136719 "/>
</clipPath>
<clipPath id="clip-4">
<path clip-rule="nonzero" d="M 0 5 L 25 5 L 25 34.21875 L 0 34.21875 Z M 0 5 "/>
</clipPath>
<clipPath id="clip-5">
<path clip-rule="nonzero" d="M 0 5 L 26 5 L 26 34.21875 L 0 34.21875 Z M 0 5 "/>
</clipPath>
</defs>
<g clip-path="url(#clip-0)">
<path fill-rule="nonzero" fill="rgb(3.115845%, 49.784851%, 74.839783%)" fill-opacity="1" d="M 24.875 34.054688 L 29.851562 29.308594 L 29.851562 0.582031 L 24.875 5.332031 L 24.875 34.054688 "/>
</g>
<g clip-path="url(#clip-1)">
<path fill="none" stroke-width="4" stroke-linecap="butt" stroke-linejoin="miter" stroke="rgb(100%, 100%, 100%)" stroke-opacity="1" stroke-miterlimit="4" d="M 255.455712 4.682157 L 306.562901 53.422529 L 306.562901 348.432157 L 255.455712 299.651669 Z M 255.455712 4.682157 " transform="matrix(0.097375, 0, 0, -0.097375, 0, 34.510612)"/>
</g>
<g clip-path="url(#clip-2)">
<path fill-rule="nonzero" fill="rgb(3.115845%, 49.784851%, 74.839783%)" fill-opacity="1" d="M 29.851562 0.582031 L 24.875 5.332031 L 0.585938 5.332031 L 6.914062 0.582031 L 29.851562 0.582031 "/>
</g>
<g clip-path="url(#clip-3)">
<path fill="none" stroke-width="4" stroke-linecap="butt" stroke-linejoin="miter" stroke="rgb(100%, 100%, 100%)" stroke-opacity="1" stroke-miterlimit="4" d="M 306.562901 348.432157 L 255.455712 299.651669 L 6.01733 299.651669 L 71.004493 348.432157 Z M 306.562901 348.432157 " transform="matrix(0.097375, 0, 0, -0.097375, 0, 34.510612)"/>
</g>
<g clip-path="url(#clip-4)">
<path fill-rule="nonzero" fill="rgb(3.115845%, 49.784851%, 74.839783%)" fill-opacity="1" d="M 0.644531 34.054688 L 24.875 34.054688 L 24.875 5.332031 L 0.644531 5.332031 Z M 0.644531 34.054688 "/>
</g>
<g clip-path="url(#clip-5)">
<path fill="none" stroke-width="4" stroke-linecap="butt" stroke-linejoin="miter" stroke="rgb(100%, 100%, 100%)" stroke-opacity="1" stroke-miterlimit="4" d="M 255.455712 4.682157 L 255.455712 299.651669 L 6.619063 299.651669 L 6.619063 4.682157 Z M 255.455712 4.682157 " transform="matrix(0.097375, 0, 0, -0.097375, 0, 34.510612)"/>
</g>
<path fill-rule="nonzero" fill="rgb(100%, 100%, 100%)" fill-opacity="1" d="M 13.25 9.503906 L 14.140625 9.503906 L 12.835938 7.535156 L 11.527344 9.503906 L 12.40625 9.503906 L 12.40625 30.410156 L 11.519531 30.410156 L 12.824219 32.378906 L 14.128906 30.410156 L 13.25 30.410156 L 13.25 9.503906 "/>
<path fill-rule="nonzero" fill="rgb(100%, 100%, 100%)" fill-opacity="1" d="M 6.507812 9.503906 L 7.394531 9.503906 L 6.089844 7.535156 L 4.785156 9.503906 L 5.664062 9.503906 L 5.664062 30.410156 L 4.773438 30.410156 L 6.078125 32.378906 L 7.386719 30.410156 L 6.507812 30.410156 L 6.507812 9.503906 "/>
<path fill-rule="nonzero" fill="rgb(100%, 100%, 100%)" fill-opacity="1" d="M 19.699219 9.503906 L 20.585938 9.503906 L 19.28125 7.535156 L 17.972656 9.503906 L 18.855469 9.503906 L 18.855469 30.410156 L 17.964844 30.410156 L 19.273438 32.378906 L 20.578125 30.410156 L 19.699219 30.410156 L 19.699219 9.503906 "/>
</svg>
