<?xml version="1.0" encoding="UTF-8"?>
<svg xmlns="http://www.w3.org/2000/svg" xmlns:xlink="http://www.w3.org/1999/xlink" width="48.79" height="27.5" viewBox="0 0 48.79 27.5">
<defs>
<clipPath id="clip-0">
<path clip-rule="nonzero" d="M 0.332031 0 L 48 0 L 48 12 L 0.332031 12 Z M 0.332031 0 "/>
</clipPath>
<clipPath id="clip-1">
<path clip-rule="nonzero" d="M 0.332031 0 L 48.25 0 L 48.25 15 L 0.332031 15 Z M 0.332031 0 "/>
</clipPath>
<clipPath id="clip-2">
<path clip-rule="nonzero" d="M 33 0 L 48.25 0 L 48.25 27.007812 L 33 27.007812 Z M 33 0 "/>
</clipPath>
<clipPath id="clip-3">
<path clip-rule="nonzero" d="M 0.332031 11 L 37 11 L 37 27 L 0.332031 27 Z M 0.332031 11 "/>
</clipPath>
</defs>
<g clip-path="url(#clip-0)">
<path fill-rule="nonzero" fill="rgb(3.115845%, 49.784851%, 74.839783%)" fill-opacity="1" d="M 0.886719 11.902344 L 15.058594 0.441406 L 47.773438 0.441406 L 36.046875 11.902344 L 0.886719 11.902344 "/>
</g>
<g clip-path="url(#clip-1)">
<path fill="none" stroke-width="4" stroke-linecap="butt" stroke-linejoin="miter" stroke="rgb(100%, 100%, 100%)" stroke-opacity="1" stroke-miterlimit="4" d="M 5.642955 153.8125 L 149.938409 270.505682 L 483.035 270.505682 L 363.637273 153.8125 Z M 5.642955 153.8125 " transform="matrix(0.0982143, 0, 0, -0.0982143, 0.3325, 27.008929)"/>
</g>
<path fill-rule="nonzero" fill="rgb(3.115845%, 49.784851%, 74.839783%)" fill-opacity="1" d="M 36.046875 26.527344 L 47.773438 14.578125 L 47.773438 0.464844 L 36.046875 11.902344 L 36.046875 26.527344 "/>
<g clip-path="url(#clip-2)">
<path fill="none" stroke-width="4" stroke-linecap="butt" stroke-linejoin="miter" stroke="rgb(100%, 100%, 100%)" stroke-opacity="1" stroke-miterlimit="4" d="M 363.637273 4.903409 L 483.035 126.568182 L 483.035 270.267045 L 363.637273 153.8125 Z M 363.637273 4.903409 " transform="matrix(0.0982143, 0, 0, -0.0982143, 0.3325, 27.008929)"/>
</g>
<g clip-path="url(#clip-3)">
<path fill-rule="nonzero" fill="rgb(3.115845%, 49.784851%, 74.839783%)" fill-opacity="1" d="M 0.9375 26.539062 L 36.046875 26.539062 L 36.046875 11.902344 L 0.9375 11.902344 Z M 0.9375 26.539062 "/>
<path fill="none" stroke-width="4" stroke-linecap="butt" stroke-linejoin="miter" stroke="rgb(100%, 100%, 100%)" stroke-opacity="1" stroke-miterlimit="4" d="M 363.637273 4.784091 L 363.637273 153.8125 L 6.16 153.8125 L 6.16 4.784091 Z M 363.637273 4.784091 " transform="matrix(0.0982143, 0, 0, -0.0982143, 0.3325, 27.008929)"/>
</g>
<path fill-rule="nonzero" fill="rgb(100%, 100%, 100%)" fill-opacity="1" d="M 6.90625 17.351562 L 12.21875 17.351562 L 12.21875 14.585938 L 6.90625 14.585938 Z M 6.90625 17.351562 "/>
<path fill-rule="nonzero" fill="rgb(100%, 100%, 100%)" fill-opacity="1" d="M 24.359375 17.351562 L 29.671875 17.351562 L 29.671875 14.585938 L 24.359375 14.585938 Z M 24.359375 17.351562 "/>
<path fill-rule="nonzero" fill="rgb(100%, 100%, 100%)" fill-opacity="1" d="M 6.90625 24.261719 L 12.21875 24.261719 L 12.21875 21.5 L 6.90625 21.5 Z M 6.90625 24.261719 "/>
<path fill-rule="nonzero" fill="rgb(100%, 100%, 100%)" fill-opacity="1" d="M 24.359375 24.261719 L 29.671875 24.261719 L 29.671875 21.5 L 24.359375 21.5 Z M 24.359375 24.261719 "/>
<path fill="none" stroke-width="4" stroke-linecap="butt" stroke-linejoin="miter" stroke="rgb(100%, 100%, 100%)" stroke-opacity="1" stroke-miterlimit="4" d="M 103.642955 112.409091 L 269.773636 112.409091 " transform="matrix(0.0982143, 0, 0, -0.0982143, 0.3325, 27.008929)"/>
<path fill="none" stroke-width="4" stroke-linecap="butt" stroke-linejoin="miter" stroke="rgb(100%, 100%, 100%)" stroke-opacity="1" stroke-miterlimit="4" d="M 103.642955 42.409091 L 269.773636 42.409091 " transform="matrix(0.0982143, 0, 0, -0.0982143, 0.3325, 27.008929)"/>
<path fill="none" stroke-width="4" stroke-linecap="butt" stroke-linejoin="miter" stroke="rgb(100%, 100%, 100%)" stroke-opacity="1" stroke-miterlimit="4" d="M 93.978182 42.051136 L 269.773636 112.409091 " transform="matrix(0.0982143, 0, 0, -0.0982143, 0.3325, 27.008929)"/>
<path fill="none" stroke-width="4" stroke-linecap="butt" stroke-linejoin="miter" stroke="rgb(100%, 100%, 100%)" stroke-opacity="1" stroke-miterlimit="4" d="M 93.978182 112.409091 L 269.773636 42.051136 " transform="matrix(0.0982143, 0, 0, -0.0982143, 0.3325, 27.008929)"/>
<path fill-rule="nonzero" fill="rgb(100%, 100%, 100%)" fill-opacity="1" d="M 21.003906 2.675781 L 28.300781 1.964844 L 26.894531 4.296875 L 25.03125 3.9375 L 14.109375 8.0625 L 12.15625 7.523438 L 22.851562 3.457031 L 21.003906 2.675781 "/>
<path fill-rule="nonzero" fill="rgb(100%, 100%, 100%)" fill-opacity="1" d="M 29.449219 5.265625 L 36.746094 4.550781 L 35.34375 6.882812 L 33.476562 6.523438 L 22.554688 10.648438 L 20.601562 10.109375 L 31.296875 6.042969 L 29.449219 5.265625 "/>
</svg>
