<?xml version="1.0" encoding="UTF-8"?>
<svg xmlns="http://www.w3.org/2000/svg" xmlns:xlink="http://www.w3.org/1999/xlink" width="37.71" height="25.06" viewBox="0 0 37.71 25.06">
<defs>
<clipPath id="clip-0">
<path clip-rule="nonzero" d="M 0.542969 6 L 31 6 L 31 24 L 0.542969 24 Z M 0.542969 6 "/>
</clipPath>
<clipPath id="clip-1">
<path clip-rule="nonzero" d="M 30 0 L 36.886719 0 L 36.886719 24 L 30 24 Z M 30 0 "/>
</clipPath>
<clipPath id="clip-2">
<path clip-rule="nonzero" d="M 28 0 L 36.886719 0 L 36.886719 24.152344 L 28 24.152344 Z M 28 0 "/>
</clipPath>
<clipPath id="clip-3">
<path clip-rule="nonzero" d="M 1 0 L 36.886719 0 L 36.886719 7 L 1 7 Z M 1 0 "/>
</clipPath>
<clipPath id="clip-4">
<path clip-rule="nonzero" d="M 0.542969 0 L 36.886719 0 L 36.886719 10 L 0.542969 10 Z M 0.542969 0 "/>
</clipPath>
<clipPath id="clip-5">
<path clip-rule="nonzero" d="M 6 7 L 23 7 L 23 24.152344 L 6 24.152344 Z M 6 7 "/>
</clipPath>
</defs>
<path fill-rule="nonzero" fill="rgb(3.115845%, 49.784851%, 74.839783%)" fill-opacity="1" d="M 1.035156 23.570312 L 30.308594 23.570312 L 30.308594 7.007812 L 1.035156 7.007812 Z M 1.035156 23.570312 "/>
<g clip-path="url(#clip-0)">
<path fill="none" stroke-width="4" stroke-linecap="butt" stroke-linejoin="miter" stroke="rgb(100%, 100%, 100%)" stroke-opacity="1" stroke-miterlimit="4" d="M 5.117343 6.055656 L 5.117343 177.893246 L 308.832178 177.893246 L 308.832178 6.055656 Z M 5.117343 6.055656 " transform="matrix(0.0963846, 0, 0, -0.0963846, 0.541923, 24.153985)"/>
</g>
<g clip-path="url(#clip-1)">
<path fill-rule="nonzero" fill="rgb(3.115845%, 49.784851%, 74.839783%)" fill-opacity="1" d="M 30.332031 23.652344 L 30.332031 7.089844 L 36.375 0.496094 L 36.375 16.976562 L 30.332031 23.652344 "/>
</g>
<g clip-path="url(#clip-2)">
<path fill="none" stroke-width="4" stroke-linecap="butt" stroke-linejoin="miter" stroke="rgb(100%, 100%, 100%)" stroke-opacity="1" stroke-miterlimit="4" d="M 309.075344 5.204574 L 309.075344 177.042164 L 371.771748 245.452978 L 371.771748 74.46647 Z M 309.075344 5.204574 " transform="matrix(0.0963846, 0, 0, -0.0963846, 0.541923, 24.153985)"/>
</g>
<g clip-path="url(#clip-3)">
<path fill-rule="nonzero" fill="rgb(3.115845%, 49.784851%, 74.839783%)" fill-opacity="1" d="M 30.332031 6.996094 L 1.046875 6.996094 L 8.285156 0.5 L 36.441406 0.476562 L 30.332031 6.996094 "/>
</g>
<g clip-path="url(#clip-4)">
<path fill="none" stroke-width="4" stroke-linecap="butt" stroke-linejoin="miter" stroke="rgb(100%, 100%, 100%)" stroke-opacity="1" stroke-miterlimit="4" d="M 309.075344 178.014829 L 5.238927 178.014829 L 80.336817 245.41245 L 372.460719 245.655617 Z M 309.075344 178.014829 " transform="matrix(0.0963846, 0, 0, -0.0963846, 0.541923, 24.153985)"/>
</g>
<path fill-rule="nonzero" fill="rgb(100%, 100%, 100%)" fill-opacity="1" d="M 7.1875 13.128906 L 1.949219 13.132812 L 1.949219 12.152344 L 7.1875 12.148438 L 7.1875 10.621094 L 10.21875 12.640625 L 7.1875 14.660156 L 7.1875 13.128906 "/>
<path fill-rule="nonzero" fill="rgb(100%, 100%, 100%)" fill-opacity="1" d="M 26.242188 10.542969 L 21.792969 10.546875 L 21.792969 9.714844 L 26.242188 9.710938 L 26.242188 8.410156 L 28.820312 10.128906 L 26.242188 11.84375 L 26.242188 10.542969 "/>
<path fill-rule="nonzero" fill="rgb(100%, 100%, 100%)" fill-opacity="1" d="M 26.242188 15.730469 L 21.792969 15.734375 L 21.792969 14.902344 L 26.242188 14.898438 L 26.242188 13.601562 L 28.820312 15.316406 L 26.242188 17.03125 L 26.242188 15.730469 "/>
<path fill-rule="nonzero" fill="rgb(100%, 100%, 100%)" fill-opacity="1" d="M 26.242188 20.917969 L 21.792969 20.925781 L 21.792969 20.09375 L 26.242188 20.089844 L 26.242188 18.789062 L 28.820312 20.503906 L 26.242188 22.222656 L 26.242188 20.917969 "/>
<path fill-rule="nonzero" fill="rgb(100%, 100%, 100%)" fill-opacity="1" d="M 10.953125 16.226562 L 18.390625 16.226562 L 18.390625 9.929688 L 10.953125 9.929688 Z M 10.953125 16.226562 "/>
<path fill-rule="nonzero" fill="rgb(100%, 100%, 100%)" fill-opacity="1" d="M 19.039062 13.585938 L 20.527344 13.585938 L 20.527344 10.75 L 19.039062 10.75 Z M 19.039062 13.585938 "/>
<path fill="none" stroke-width="2.178" stroke-linecap="butt" stroke-linejoin="miter" stroke="rgb(13.729858%, 12.159729%, 12.548828%)" stroke-opacity="1" stroke-miterlimit="4" d="M 207.350733 139.067678 L 207.350733 109.644543 L 191.909667 109.644543 L 191.909667 139.067678 Z M 207.350733 139.067678 " transform="matrix(0.0963846, 0, 0, -0.0963846, 0.541923, 24.153985)"/>
<g clip-path="url(#clip-5)">
<path fill="none" stroke-width="9.68" stroke-linecap="round" stroke-linejoin="miter" stroke="rgb(100%, 100%, 100%)" stroke-opacity="1" stroke-miterlimit="4" d="M 118.068136 40.342119 L 146.599661 114.913148 L 176.103851 40.180008 " transform="matrix(0.0963846, 0, 0, -0.0963846, 0.541923, 24.153985)"/>
</g>
<path fill="none" stroke-width="15" stroke-linecap="round" stroke-linejoin="miter" stroke="rgb(100%, 100%, 100%)" stroke-opacity="1" stroke-miterlimit="4" d="M 168.200943 123.545556 L 191.342279 123.545556 " transform="matrix(0.0963846, 0, 0, -0.0963846, 0.541923, 24.153985)"/>
</svg>
