<?xml version="1.0" encoding="UTF-8"?>
<svg xmlns="http://www.w3.org/2000/svg" xmlns:xlink="http://www.w3.org/1999/xlink" width="48.81" height="36.81" viewBox="0 0 48.81 36.81">
<defs>
<clipPath id="clip-0">
<path clip-rule="nonzero" d="M 0.03125 12 L 37 12 L 37 24 L 0.03125 24 Z M 0.03125 12 "/>
</clipPath>
<clipPath id="clip-1">
<path clip-rule="nonzero" d="M 0.03125 11 L 37 11 L 37 24 L 0.03125 24 Z M 0.03125 11 "/>
</clipPath>
<clipPath id="clip-2">
<path clip-rule="nonzero" d="M 0.03125 0 L 48.589844 0 L 48.589844 13 L 0.03125 13 Z M 0.03125 0 "/>
</clipPath>
<clipPath id="clip-3">
<path clip-rule="nonzero" d="M 0.03125 0 L 48.589844 0 L 48.589844 15 L 0.03125 15 Z M 0.03125 0 "/>
</clipPath>
<clipPath id="clip-4">
<path clip-rule="nonzero" d="M 36 0 L 48.589844 0 L 48.589844 24 L 36 24 Z M 36 0 "/>
</clipPath>
<clipPath id="clip-5">
<path clip-rule="nonzero" d="M 33 0 L 48.589844 0 L 48.589844 27 L 33 27 Z M 33 0 "/>
</clipPath>
<clipPath id="clip-6">
<path clip-rule="nonzero" d="M 0.03125 23 L 37 23 L 37 36 L 0.03125 36 Z M 0.03125 23 "/>
</clipPath>
<clipPath id="clip-7">
<path clip-rule="nonzero" d="M 36 11 L 48.589844 11 L 48.589844 36.621094 L 36 36.621094 Z M 36 11 "/>
</clipPath>
<clipPath id="clip-8">
<path clip-rule="nonzero" d="M 33 9 L 48.589844 9 L 48.589844 36.621094 L 33 36.621094 Z M 33 9 "/>
</clipPath>
<clipPath id="clip-9">
<path clip-rule="nonzero" d="M 0.03125 23 L 37 23 L 37 24 L 0.03125 24 Z M 0.03125 23 "/>
</clipPath>
</defs>
<g clip-path="url(#clip-0)">
<path fill-rule="nonzero" fill="rgb(3.115845%, 49.784851%, 74.839783%)" fill-opacity="1" d="M 0.683594 23.5625 L 36.222656 23.5625 L 36.222656 12.027344 L 0.683594 12.027344 Z M 0.683594 23.5625 "/>
</g>
<g clip-path="url(#clip-1)">
<path fill="none" stroke-width="4" stroke-linecap="butt" stroke-linejoin="miter" stroke="rgb(100%, 100%, 100%)" stroke-opacity="1" stroke-miterlimit="4" d="M 363.786547 131.258788 L 363.786547 247.205754 L 6.561524 247.205754 L 6.561524 131.258788 Z M 363.786547 131.258788 " transform="matrix(0.0994865, 0, 0, -0.0994865, 0.0308108, 36.620976)"/>
</g>
<g clip-path="url(#clip-2)">
<path fill-rule="nonzero" fill="rgb(3.115845%, 49.784851%, 74.839783%)" fill-opacity="1" d="M 0.59375 12.085938 L 14.945312 0.453125 L 48.105469 0.453125 L 36.1875 12.085938 L 0.59375 12.085938 "/>
</g>
<g clip-path="url(#clip-3)">
<path fill="none" stroke-width="4" stroke-linecap="butt" stroke-linejoin="miter" stroke="rgb(100%, 100%, 100%)" stroke-opacity="1" stroke-miterlimit="4" d="M 5.658449 246.616792 L 149.91485 363.545361 L 483.228021 363.545361 L 363.43317 246.616792 Z M 5.658449 246.616792 " transform="matrix(0.0994865, 0, 0, -0.0994865, 0.0308108, 36.620976)"/>
</g>
<g clip-path="url(#clip-4)">
<path fill-rule="nonzero" fill="rgb(3.115845%, 49.784851%, 74.839783%)" fill-opacity="1" d="M 36.203125 23.925781 L 48.070312 11.8125 L 48.078125 0.472656 L 36.203125 12.066406 L 36.203125 23.925781 "/>
</g>
<g clip-path="url(#clip-5)">
<path fill="none" stroke-width="4" stroke-linecap="butt" stroke-linejoin="miter" stroke="rgb(100%, 100%, 100%)" stroke-opacity="1" stroke-miterlimit="4" d="M 363.590227 127.607225 L 482.874643 249.365281 L 482.953172 363.349041 L 363.590227 246.813113 Z M 363.590227 127.607225 " transform="matrix(0.0994865, 0, 0, -0.0994865, 0.0308108, 36.620976)"/>
</g>
<g clip-path="url(#clip-6)">
<path fill-rule="nonzero" fill="rgb(47.201538%, 71.127319%, 86.53717%)" fill-opacity="1" d="M 0.683594 35.769531 L 36.222656 35.769531 L 36.222656 23.300781 L 0.683594 23.300781 Z M 0.683594 35.769531 "/>
<path fill="none" stroke-width="4" stroke-linecap="butt" stroke-linejoin="miter" stroke="rgb(100%, 100%, 100%)" stroke-opacity="1" stroke-miterlimit="4" d="M 363.786547 8.558393 L 363.786547 133.889485 L 6.561524 133.889485 L 6.561524 8.558393 Z M 363.786547 8.558393 " transform="matrix(0.0994865, 0, 0, -0.0994865, 0.0308108, 36.620976)"/>
</g>
<g clip-path="url(#clip-7)">
<path fill-rule="nonzero" fill="rgb(47.201538%, 71.127319%, 86.53717%)" fill-opacity="1" d="M 36.203125 36.132812 L 48.070312 24.023438 L 48.078125 11.746094 L 36.203125 23.339844 L 36.203125 36.132812 "/>
</g>
<g clip-path="url(#clip-8)">
<path fill="none" stroke-width="4" stroke-linecap="butt" stroke-linejoin="miter" stroke="rgb(100%, 100%, 100%)" stroke-opacity="1" stroke-miterlimit="4" d="M 363.590227 4.906829 L 482.874643 126.625621 L 482.953172 250.032771 L 363.590227 133.496844 Z M 363.590227 4.906829 " transform="matrix(0.0994865, 0, 0, -0.0994865, 0.0308108, 36.620976)"/>
</g>
<path fill-rule="nonzero" fill="rgb(100%, 100%, 100%)" fill-opacity="1" d="M 26.167969 5.386719 L 28.359375 5.9375 L 34.382812 4.28125 L 36.574219 4.832031 L 35.476562 3.175781 L 28.359375 3.175781 L 31.644531 3.730469 L 26.167969 5.386719 "/>
<path fill-rule="nonzero" fill="rgb(100%, 100%, 100%)" fill-opacity="1" d="M 13.574219 3.730469 L 15.765625 3.175781 L 21.789062 4.832031 L 23.980469 4.28125 L 22.882812 5.9375 L 15.765625 5.9375 L 19.050781 5.386719 L 13.574219 3.730469 "/>
<path fill-rule="nonzero" fill="rgb(100%, 100%, 100%)" fill-opacity="1" d="M 36.027344 9.25 L 33.835938 9.800781 L 28.359375 8.144531 L 25.621094 8.699219 L 26.71875 7.039062 L 33.835938 7.039062 L 31.097656 7.59375 L 36.027344 9.25 "/>
<path fill-rule="nonzero" fill="rgb(100%, 100%, 100%)" fill-opacity="1" d="M 23.429688 7.59375 L 21.242188 7.039062 L 15.765625 8.699219 L 13.027344 8.144531 L 14.121094 9.820312 L 21.242188 9.890625 L 17.957031 9.25 L 23.429688 7.59375 "/>
<path fill-rule="nonzero" fill="rgb(100%, 100%, 100%)" fill-opacity="1" d="M 18.550781 21.957031 C 20.945312 21.957031 22.890625 21.363281 22.890625 20.636719 C 22.890625 19.910156 20.945312 19.324219 18.550781 19.324219 C 16.152344 19.324219 14.207031 19.910156 14.207031 20.636719 C 14.207031 21.363281 16.152344 21.957031 18.550781 21.957031 "/>
<path fill="none" stroke-width="3" stroke-linecap="round" stroke-linejoin="round" stroke="rgb(13.729858%, 12.159729%, 12.548828%)" stroke-opacity="1" stroke-miterlimit="4" d="M 186.155639 147.396344 C 210.224548 147.396344 229.778083 153.364492 229.778083 160.667619 C 229.778083 167.970747 210.224548 173.860366 186.155639 173.860366 C 162.047465 173.860366 142.49393 167.970747 142.49393 160.667619 C 142.49393 153.364492 162.047465 147.396344 186.155639 147.396344 Z M 186.155639 147.396344 " transform="matrix(0.0994865, 0, 0, -0.0994865, 0.0308108, 36.620976)"/>
<path fill-rule="nonzero" fill="rgb(100%, 100%, 100%)" fill-opacity="1" d="M 22.890625 14.550781 C 22.890625 15.277344 20.945312 15.867188 18.550781 15.867188 C 16.152344 15.867188 14.207031 15.277344 14.207031 14.550781 L 14.207031 19.992188 C 14.207031 20.71875 16.152344 21.308594 18.550781 21.308594 C 20.945312 21.308594 22.890625 20.71875 22.890625 19.992188 L 22.890625 14.550781 "/>
<path fill="none" stroke-width="3" stroke-linecap="round" stroke-linejoin="round" stroke="rgb(13.729858%, 12.159729%, 12.548828%)" stroke-opacity="1" stroke-miterlimit="4" d="M 229.778083 221.841128 C 229.778083 214.538001 210.224548 208.609118 186.155639 208.609118 C 162.047465 208.609118 142.49393 214.538001 142.49393 221.841128 L 142.49393 167.1462 C 142.49393 159.843073 162.047465 153.914189 186.155639 153.914189 C 210.224548 153.914189 229.778083 159.843073 229.778083 167.1462 Z M 229.778083 221.841128 " transform="matrix(0.0994865, 0, 0, -0.0994865, 0.0308108, 36.620976)"/>
<path fill-rule="nonzero" fill="rgb(100%, 100%, 100%)" fill-opacity="1" d="M 18.542969 15.867188 C 20.941406 15.867188 22.886719 15.277344 22.886719 14.550781 C 22.886719 13.824219 20.941406 13.234375 18.542969 13.234375 C 16.144531 13.234375 14.199219 13.824219 14.199219 14.550781 C 14.199219 15.277344 16.144531 15.867188 18.542969 15.867188 "/>
<path fill="none" stroke-width="3" stroke-linecap="round" stroke-linejoin="round" stroke="rgb(13.729858%, 12.159729%, 12.548828%)" stroke-opacity="1" stroke-miterlimit="4" d="M 186.07711 208.609118 C 210.185284 208.609118 229.738819 214.538001 229.738819 221.841128 C 229.738819 229.144256 210.185284 235.073139 186.07711 235.073139 C 161.968937 235.073139 142.415402 229.144256 142.415402 221.841128 C 142.415402 214.538001 161.968937 208.609118 186.07711 208.609118 Z M 186.07711 208.609118 " transform="matrix(0.0994865, 0, 0, -0.0994865, 0.0308108, 36.620976)"/>
<g clip-path="url(#clip-9)">
<path fill="none" stroke-width="4" stroke-linecap="round" stroke-linejoin="round" stroke="rgb(100%, 100%, 100%)" stroke-opacity="1" stroke-miterlimit="4" d="M 6.561524 131.887014 L 363.786547 131.887014 " transform="matrix(0.0994865, 0, 0, -0.0994865, 0.0308108, 36.620976)"/>
</g>
<path fill-rule="nonzero" fill="rgb(100%, 100%, 100%)" fill-opacity="1" d="M 14.304688 29.324219 L 7.65625 29.324219 L 7.65625 28.714844 L 5.144531 29.613281 L 7.65625 30.511719 L 7.65625 29.902344 L 14.304688 29.902344 L 14.304688 29.324219 "/>
<path fill-rule="nonzero" fill="rgb(100%, 100%, 100%)" fill-opacity="1" d="M 18.0625 31.234375 L 18.0625 33.589844 L 16.34375 33.589844 L 18.875 34.480469 L 21.40625 33.589844 L 19.691406 33.589844 L 19.691406 31.234375 L 18.0625 31.234375 "/>
<path fill-rule="nonzero" fill="rgb(100%, 100%, 100%)" fill-opacity="1" d="M 18.0625 28.0625 L 18.0625 25.703125 L 16.34375 25.703125 L 18.875 24.816406 L 21.40625 25.703125 L 19.691406 25.703125 L 19.691406 28.0625 L 18.0625 28.0625 "/>
<path fill-rule="nonzero" fill="rgb(100%, 100%, 100%)" fill-opacity="1" d="M 23.449219 29.902344 L 30.097656 29.902344 L 30.097656 30.511719 L 32.605469 29.613281 L 30.097656 28.714844 L 30.097656 29.324219 L 23.449219 29.324219 L 23.449219 29.902344 "/>
<path fill="none" stroke-width="4" stroke-linecap="butt" stroke-linejoin="miter" stroke="rgb(100%, 100%, 100%)" stroke-opacity="1" stroke-miterlimit="4" d="M 296.91974 32.391718 C 284.394483 27.680022 226.754746 40.59792 168.251197 61.211587 C 109.708384 81.825253 72.485992 102.360391 85.011249 107.032822 C 97.575769 111.744517 155.176243 98.82662 213.719056 78.212953 C 272.222604 57.599287 309.48426 37.103413 296.91974 32.391718 Z M 296.91974 32.391718 " transform="matrix(0.0994865, 0, 0, -0.0994865, 0.0308108, 36.620976)"/>
<path fill="none" stroke-width="4" stroke-linecap="butt" stroke-linejoin="miter" stroke="rgb(100%, 100%, 100%)" stroke-opacity="1" stroke-miterlimit="4" d="M 293.621553 107.386199 C 306.853564 102.949353 270.416454 82.532007 212.305547 61.761284 C 154.155376 41.029825 96.280053 27.797815 83.048042 32.273925 C 69.776768 36.710772 106.174613 57.167381 164.364048 77.89884 C 222.474956 98.630299 280.350278 111.823046 293.621553 107.386199 Z M 293.621553 107.386199 " transform="matrix(0.0994865, 0, 0, -0.0994865, 0.0308108, 36.620976)"/>
<path fill-rule="nonzero" fill="rgb(67.314148%, 81.752014%, 91.716003%)" fill-opacity="1" d="M 21.601562 30.984375 C 23.796875 30.4375 24.332031 29.367188 22.792969 28.589844 C 21.257812 27.808594 18.230469 27.621094 16.035156 28.167969 C 13.839844 28.710938 13.304688 29.785156 14.84375 30.558594 C 16.382812 31.339844 19.40625 31.527344 21.601562 30.984375 "/>
<path fill="none" stroke-width="4" stroke-linecap="butt" stroke-linejoin="miter" stroke="rgb(100%, 100%, 100%)" stroke-opacity="1" stroke-miterlimit="4" d="M 216.820922 56.656948 C 238.887361 62.153926 244.266546 72.912296 228.79648 80.725857 C 213.365678 88.578683 182.93598 90.463361 160.869541 84.966383 C 138.803102 79.50867 133.423917 68.711035 148.893983 60.936738 C 164.364048 53.083912 194.754482 51.199234 216.820922 56.656948 Z M 216.820922 56.656948 " transform="matrix(0.0994865, 0, 0, -0.0994865, 0.0308108, 36.620976)"/>
</svg>
