<?xml version="1.0" encoding="UTF-8"?>
<svg xmlns="http://www.w3.org/2000/svg" xmlns:xlink="http://www.w3.org/1999/xlink" width="15.14" height="30.51" viewBox="0 0 15.14 30.51">
<defs>
<clipPath id="clip-0">
<path clip-rule="nonzero" d="M 0 0.597656 L 14 0.597656 L 14 29 L 0 29 Z M 0 0.597656 "/>
</clipPath>
<clipPath id="clip-1">
<path clip-rule="nonzero" d="M 9 0.597656 L 14 0.597656 L 14 6 L 9 6 Z M 9 0.597656 "/>
</clipPath>
<clipPath id="clip-2">
<path clip-rule="nonzero" d="M 0 0.597656 L 14 0.597656 L 14 29 L 0 29 Z M 0 0.597656 "/>
</clipPath>
<clipPath id="clip-3">
<path clip-rule="nonzero" d="M 0 0.597656 L 14.195312 0.597656 L 14.195312 29.457031 L 0 29.457031 Z M 0 0.597656 "/>
</clipPath>
<clipPath id="clip-4">
<path clip-rule="nonzero" d="M 9 0.597656 L 14 0.597656 L 14 6 L 9 6 Z M 9 0.597656 "/>
</clipPath>
<clipPath id="clip-5">
<path clip-rule="nonzero" d="M 9 0.597656 L 14.195312 0.597656 L 14.195312 6 L 9 6 Z M 9 0.597656 "/>
</clipPath>
<clipPath id="clip-6">
<path clip-rule="nonzero" d="M 0 0.597656 L 14.195312 0.597656 L 14.195312 29.457031 L 0 29.457031 Z M 0 0.597656 "/>
</clipPath>
<clipPath id="clip-7">
<path clip-rule="nonzero" d="M 7 0.597656 L 14.195312 0.597656 L 14.195312 8 L 7 8 Z M 7 0.597656 "/>
</clipPath>
</defs>
<path fill-rule="nonzero" fill="rgb(3.115845%, 49.784851%, 74.839783%)" fill-opacity="1" d="M 0.644531 28.8125 L 9.292969 28.8125 L 9.292969 5.617188 L 0.644531 5.617188 Z M 0.644531 28.8125 "/>
<g clip-path="url(#clip-0)">
<path fill-rule="nonzero" fill="rgb(3.115845%, 49.784851%, 74.839783%)" fill-opacity="1" d="M 9.292969 28.8125 L 13.945312 24.164062 L 13.945312 0.96875 L 5.296875 0.96875 L 0.644531 5.617188 L 9.292969 5.617188 L 9.292969 28.8125 "/>
</g>
<g clip-path="url(#clip-1)">
<path fill-rule="nonzero" fill="rgb(3.115845%, 49.784851%, 74.839783%)" fill-opacity="1" d="M 9.292969 5.617188 L 13.945312 0.96875 "/>
</g>
<path fill-rule="nonzero" fill="rgb(3.115845%, 49.784851%, 74.839783%)" fill-opacity="1" d="M 0.644531 28.8125 L 9.292969 28.8125 L 9.292969 5.617188 L 0.644531 5.617188 Z M 0.644531 28.8125 "/>
<path fill="none" stroke-width="4" stroke-linecap="butt" stroke-linejoin="miter" stroke="rgb(100%, 100%, 100%)" stroke-opacity="1" stroke-miterlimit="4" d="M 98.208388 251.952708 L 6.811427 251.952708 L 6.811427 6.82391 L 98.208388 6.82391 " transform="matrix(0.094625, 0, 0, -0.094625, 0, 29.458213)"/>
<g clip-path="url(#clip-2)">
<path fill-rule="nonzero" fill="rgb(3.115845%, 49.784851%, 74.839783%)" fill-opacity="1" d="M 9.292969 28.8125 L 13.945312 24.164062 L 13.945312 0.96875 L 5.296875 0.96875 L 0.644531 5.617188 L 9.292969 5.617188 L 9.292969 28.8125 "/>
</g>
<g clip-path="url(#clip-3)">
<path fill="none" stroke-width="4" stroke-linecap="butt" stroke-linejoin="miter" stroke="rgb(100%, 100%, 100%)" stroke-opacity="1" stroke-miterlimit="4" d="M 98.208388 6.82391 L 147.374505 55.948745 L 147.374505 301.077543 L 55.977543 301.077543 L 6.811427 251.952708 L 98.208388 251.952708 Z M 98.208388 6.82391 " transform="matrix(0.094625, 0, 0, -0.094625, 0, 29.458213)"/>
</g>
<g clip-path="url(#clip-4)">
<path fill-rule="nonzero" fill="rgb(13.729858%, 12.159729%, 12.548828%)" fill-opacity="1" d="M 9.292969 5.617188 L 13.945312 0.96875 "/>
</g>
<g clip-path="url(#clip-5)">
<path fill="none" stroke-width="4" stroke-linecap="round" stroke-linejoin="round" stroke="rgb(100%, 100%, 100%)" stroke-opacity="1" stroke-miterlimit="4" d="M 98.208388 251.952708 L 147.374505 301.077543 " transform="matrix(0.094625, 0, 0, -0.094625, 0, 29.458213)"/>
</g>
<path fill="none" stroke-width="4" stroke-linecap="butt" stroke-linejoin="miter" stroke="rgb(100%, 100%, 100%)" stroke-opacity="1" stroke-miterlimit="4" d="M 98.208388 251.952708 L 6.811427 251.952708 L 6.811427 6.82391 L 98.208388 6.82391 " transform="matrix(0.094625, 0, 0, -0.094625, 0, 29.458213)"/>
<g clip-path="url(#clip-6)">
<path fill="none" stroke-width="4" stroke-linecap="butt" stroke-linejoin="miter" stroke="rgb(100%, 100%, 100%)" stroke-opacity="1" stroke-miterlimit="4" d="M 98.208388 6.82391 L 147.374505 55.948745 L 147.374505 301.077543 L 55.977543 301.077543 L 6.811427 251.952708 L 98.208388 251.952708 Z M 98.208388 6.82391 " transform="matrix(0.094625, 0, 0, -0.094625, 0, 29.458213)"/>
</g>
<g clip-path="url(#clip-7)">
<path fill="none" stroke-width="4" stroke-linecap="butt" stroke-linejoin="miter" stroke="rgb(100%, 100%, 100%)" stroke-opacity="1" stroke-miterlimit="4" d="M 98.208388 251.952708 L 147.374505 301.077543 " transform="matrix(0.094625, 0, 0, -0.094625, 0, 29.458213)"/>
</g>
<path fill-rule="nonzero" fill="rgb(100%, 100%, 100%)" fill-opacity="1" d="M 7.789062 23.207031 C 7.789062 23.78125 6.554688 24.246094 5.03125 24.246094 C 3.503906 24.246094 2.269531 23.78125 2.269531 23.207031 C 2.269531 22.632812 3.503906 22.167969 5.03125 22.167969 C 6.554688 22.167969 7.789062 22.632812 7.789062 23.207031 "/>
<path fill="none" stroke-width="3.5" stroke-linecap="round" stroke-linejoin="round" stroke="rgb(13.729858%, 12.159729%, 12.548828%)" stroke-opacity="1" stroke-miterlimit="4" d="M 82.315059 66.062682 C 82.315059 59.99432 69.270145 55.081836 53.17041 55.081836 C 37.029392 55.081836 23.984478 59.99432 23.984478 66.062682 C 23.984478 72.131044 37.029392 77.043527 53.17041 77.043527 C 69.270145 77.043527 82.315059 72.131044 82.315059 66.062682 Z M 82.315059 66.062682 " transform="matrix(0.094625, 0, 0, -0.094625, 0, 29.458213)"/>
<path fill-rule="nonzero" fill="rgb(13.729858%, 12.159729%, 12.548828%)" fill-opacity="1" d="M 5.84375 23.152344 C 5.84375 23.324219 5.472656 23.464844 5.015625 23.464844 C 4.558594 23.464844 4.1875 23.324219 4.1875 23.152344 C 4.1875 22.976562 4.558594 22.839844 5.015625 22.839844 C 5.472656 22.839844 5.84375 22.976562 5.84375 23.152344 "/>
<path fill-rule="nonzero" fill="rgb(13.729858%, 12.159729%, 12.548828%)" fill-opacity="1" d="M 5.84375 22.585938 C 5.84375 22.757812 5.472656 22.894531 5.015625 22.894531 C 4.558594 22.894531 4.1875 22.757812 4.1875 22.585938 C 4.1875 22.410156 4.558594 22.273438 5.015625 22.273438 C 5.472656 22.273438 5.84375 22.410156 5.84375 22.585938 "/>
<path fill-rule="nonzero" fill="rgb(100%, 100%, 100%)" fill-opacity="1" d="M 7.789062 22.070312 C 7.789062 22.648438 6.554688 23.113281 5.03125 23.113281 C 3.503906 23.113281 2.269531 22.648438 2.269531 22.070312 C 2.269531 21.496094 3.503906 21.03125 5.03125 21.03125 C 6.554688 21.03125 7.789062 21.496094 7.789062 22.070312 "/>
<path fill="none" stroke-width="3.5" stroke-linecap="round" stroke-linejoin="round" stroke="rgb(13.729858%, 12.159729%, 12.548828%)" stroke-opacity="1" stroke-miterlimit="4" d="M 82.315059 78.075561 C 82.315059 71.965918 69.270145 67.053435 53.17041 67.053435 C 37.029392 67.053435 23.984478 71.965918 23.984478 78.075561 C 23.984478 84.143923 37.029392 89.056407 53.17041 89.056407 C 69.270145 89.056407 82.315059 84.143923 82.315059 78.075561 Z M 82.315059 78.075561 " transform="matrix(0.094625, 0, 0, -0.094625, 0, 29.458213)"/>
<path fill-rule="nonzero" fill="rgb(13.729858%, 12.159729%, 12.548828%)" fill-opacity="1" d="M 5.84375 22.015625 C 5.84375 22.1875 5.472656 22.328125 5.015625 22.328125 C 4.558594 22.328125 4.1875 22.1875 4.1875 22.015625 C 4.1875 21.84375 4.558594 21.703125 5.015625 21.703125 C 5.472656 21.703125 5.84375 21.84375 5.84375 22.015625 "/>
<path fill-rule="nonzero" fill="rgb(13.729858%, 12.159729%, 12.548828%)" fill-opacity="1" d="M 5.84375 21.449219 C 5.84375 21.617188 5.472656 21.761719 5.015625 21.761719 C 4.558594 21.761719 4.1875 21.617188 4.1875 21.449219 C 4.1875 21.277344 4.558594 21.136719 5.015625 21.136719 C 5.472656 21.136719 5.84375 21.277344 5.84375 21.449219 "/>
<path fill-rule="nonzero" fill="rgb(100%, 100%, 100%)" fill-opacity="1" d="M 7.789062 20.9375 C 7.789062 21.511719 6.554688 21.976562 5.03125 21.976562 C 3.503906 21.976562 2.269531 21.511719 2.269531 20.9375 C 2.269531 20.359375 3.503906 19.894531 5.03125 19.894531 C 6.554688 19.894531 7.789062 20.359375 7.789062 20.9375 "/>
<path fill="none" stroke-width="3.5" stroke-linecap="round" stroke-linejoin="round" stroke="rgb(13.729858%, 12.159729%, 12.548828%)" stroke-opacity="1" stroke-miterlimit="4" d="M 82.315059 90.04716 C 82.315059 83.978798 69.270145 79.066314 53.17041 79.066314 C 37.029392 79.066314 23.984478 83.978798 23.984478 90.04716 C 23.984478 96.156803 37.029392 101.069287 53.17041 101.069287 C 69.270145 101.069287 82.315059 96.156803 82.315059 90.04716 Z M 82.315059 90.04716 " transform="matrix(0.094625, 0, 0, -0.094625, 0, 29.458213)"/>
<path fill-rule="nonzero" fill="rgb(13.729858%, 12.159729%, 12.548828%)" fill-opacity="1" d="M 5.84375 20.878906 C 5.84375 21.050781 5.472656 21.191406 5.015625 21.191406 C 4.558594 21.191406 4.1875 21.050781 4.1875 20.878906 C 4.1875 20.707031 4.558594 20.566406 5.015625 20.566406 C 5.472656 20.566406 5.84375 20.707031 5.84375 20.878906 "/>
<path fill-rule="nonzero" fill="rgb(100%, 100%, 100%)" fill-opacity="1" d="M 7.789062 18.664062 C 7.789062 19.242188 6.554688 19.707031 5.03125 19.707031 C 3.503906 19.707031 2.269531 19.242188 2.269531 18.664062 C 2.269531 18.089844 3.503906 17.625 5.03125 17.625 C 6.554688 17.625 7.789062 18.089844 7.789062 18.664062 "/>
<path fill="none" stroke-width="3.5" stroke-linecap="round" stroke-linejoin="round" stroke="rgb(13.729858%, 12.159729%, 12.548828%)" stroke-opacity="1" stroke-miterlimit="4" d="M 82.315059 114.072919 C 82.315059 107.963276 69.270145 103.050793 53.17041 103.050793 C 37.029392 103.050793 23.984478 107.963276 23.984478 114.072919 C 23.984478 120.141281 37.029392 125.053765 53.17041 125.053765 C 69.270145 125.053765 82.315059 120.141281 82.315059 114.072919 Z M 82.315059 114.072919 " transform="matrix(0.094625, 0, 0, -0.094625, 0, 29.458213)"/>
<path fill-rule="nonzero" fill="rgb(13.729858%, 12.159729%, 12.548828%)" fill-opacity="1" d="M 5.84375 18.609375 C 5.84375 18.78125 5.472656 18.921875 5.015625 18.921875 C 4.558594 18.921875 4.1875 18.78125 4.1875 18.609375 C 4.1875 18.4375 4.558594 18.296875 5.015625 18.296875 C 5.472656 18.296875 5.84375 18.4375 5.84375 18.609375 "/>
<path fill-rule="nonzero" fill="rgb(13.729858%, 12.159729%, 12.548828%)" fill-opacity="1" d="M 5.84375 18.042969 C 5.84375 18.214844 5.472656 18.355469 5.015625 18.355469 C 4.558594 18.355469 4.1875 18.214844 4.1875 18.042969 C 4.1875 17.871094 4.558594 17.730469 5.015625 17.730469 C 5.472656 17.730469 5.84375 17.871094 5.84375 18.042969 "/>
<path fill-rule="nonzero" fill="rgb(100%, 100%, 100%)" fill-opacity="1" d="M 7.789062 17.53125 C 7.789062 18.105469 6.554688 18.570312 5.03125 18.570312 C 3.503906 18.570312 2.269531 18.105469 2.269531 17.53125 C 2.269531 16.953125 3.503906 16.488281 5.03125 16.488281 C 6.554688 16.488281 7.789062 16.953125 7.789062 17.53125 "/>
<path fill="none" stroke-width="3.5" stroke-linecap="round" stroke-linejoin="round" stroke="rgb(13.729858%, 12.159729%, 12.548828%)" stroke-opacity="1" stroke-miterlimit="4" d="M 82.315059 126.044518 C 82.315059 119.976156 69.270145 115.063672 53.17041 115.063672 C 37.029392 115.063672 23.984478 119.976156 23.984478 126.044518 C 23.984478 132.154161 37.029392 137.066645 53.17041 137.066645 C 69.270145 137.066645 82.315059 132.154161 82.315059 126.044518 Z M 82.315059 126.044518 " transform="matrix(0.094625, 0, 0, -0.094625, 0, 29.458213)"/>
<path fill-rule="nonzero" fill="rgb(13.729858%, 12.159729%, 12.548828%)" fill-opacity="1" d="M 5.84375 17.472656 C 5.84375 17.644531 5.472656 17.785156 5.015625 17.785156 C 4.558594 17.785156 4.1875 17.644531 4.1875 17.472656 C 4.1875 17.300781 4.558594 17.160156 5.015625 17.160156 C 5.472656 17.160156 5.84375 17.300781 5.84375 17.472656 "/>
<path fill-rule="nonzero" fill="rgb(13.729858%, 12.159729%, 12.548828%)" fill-opacity="1" d="M 5.84375 16.90625 C 5.84375 17.078125 5.472656 17.21875 5.015625 17.21875 C 4.558594 17.21875 4.1875 17.078125 4.1875 16.90625 C 4.1875 16.734375 4.558594 16.59375 5.015625 16.59375 C 5.472656 16.59375 5.84375 16.734375 5.84375 16.90625 "/>
<path fill-rule="nonzero" fill="rgb(100%, 100%, 100%)" fill-opacity="1" d="M 7.789062 16.394531 C 7.789062 16.96875 6.554688 17.433594 5.03125 17.433594 C 3.503906 17.433594 2.269531 16.96875 2.269531 16.394531 C 2.269531 15.820312 3.503906 15.355469 5.03125 15.355469 C 6.554688 15.355469 7.789062 15.820312 7.789062 16.394531 "/>
<path fill="none" stroke-width="3.5" stroke-linecap="round" stroke-linejoin="round" stroke="rgb(13.729858%, 12.159729%, 12.548828%)" stroke-opacity="1" stroke-miterlimit="4" d="M 82.315059 138.057398 C 82.315059 131.989036 69.270145 127.076552 53.17041 127.076552 C 37.029392 127.076552 23.984478 131.989036 23.984478 138.057398 C 23.984478 144.12576 37.029392 149.038243 53.17041 149.038243 C 69.270145 149.038243 82.315059 144.12576 82.315059 138.057398 Z M 82.315059 138.057398 " transform="matrix(0.094625, 0, 0, -0.094625, 0, 29.458213)"/>
<path fill-rule="nonzero" fill="rgb(13.729858%, 12.159729%, 12.548828%)" fill-opacity="1" d="M 5.84375 16.339844 C 5.84375 16.511719 5.472656 16.648438 5.015625 16.648438 C 4.558594 16.648438 4.1875 16.511719 4.1875 16.339844 C 4.1875 16.164062 4.558594 16.023438 5.015625 16.023438 C 5.472656 16.023438 5.84375 16.164062 5.84375 16.339844 "/>
<path fill-rule="nonzero" fill="rgb(100%, 100%, 100%)" fill-opacity="1" d="M 7.789062 14.125 C 7.789062 14.699219 6.554688 15.164062 5.03125 15.164062 C 3.503906 15.164062 2.269531 14.699219 2.269531 14.125 C 2.269531 13.546875 3.503906 13.082031 5.03125 13.082031 C 6.554688 13.082031 7.789062 13.546875 7.789062 14.125 "/>
<path fill="none" stroke-width="3.5" stroke-linecap="round" stroke-linejoin="round" stroke="rgb(13.729858%, 12.159729%, 12.548828%)" stroke-opacity="1" stroke-miterlimit="4" d="M 82.315059 162.041876 C 82.315059 155.973514 69.270145 151.06103 53.17041 151.06103 C 37.029392 151.06103 23.984478 155.973514 23.984478 162.041876 C 23.984478 168.151519 37.029392 173.064003 53.17041 173.064003 C 69.270145 173.064003 82.315059 168.151519 82.315059 162.041876 Z M 82.315059 162.041876 " transform="matrix(0.094625, 0, 0, -0.094625, 0, 29.458213)"/>
<path fill-rule="nonzero" fill="rgb(13.729858%, 12.159729%, 12.548828%)" fill-opacity="1" d="M 5.84375 14.066406 C 5.84375 14.238281 5.472656 14.378906 5.015625 14.378906 C 4.558594 14.378906 4.1875 14.238281 4.1875 14.066406 C 4.1875 13.894531 4.558594 13.753906 5.015625 13.753906 C 5.472656 13.753906 5.84375 13.894531 5.84375 14.066406 "/>
<path fill-rule="nonzero" fill="rgb(13.729858%, 12.159729%, 12.548828%)" fill-opacity="1" d="M 5.84375 13.5 C 5.84375 13.671875 5.472656 13.8125 5.015625 13.8125 C 4.558594 13.8125 4.1875 13.671875 4.1875 13.5 C 4.1875 13.328125 4.558594 13.1875 5.015625 13.1875 C 5.472656 13.1875 5.84375 13.328125 5.84375 13.5 "/>
<path fill-rule="nonzero" fill="rgb(100%, 100%, 100%)" fill-opacity="1" d="M 7.789062 12.988281 C 7.789062 13.5625 6.554688 14.027344 5.03125 14.027344 C 3.503906 14.027344 2.269531 13.5625 2.269531 12.988281 C 2.269531 12.414062 3.503906 11.945312 5.03125 11.945312 C 6.554688 11.945312 7.789062 12.414062 7.789062 12.988281 "/>
<path fill="none" stroke-width="3.5" stroke-linecap="round" stroke-linejoin="round" stroke="rgb(13.729858%, 12.159729%, 12.548828%)" stroke-opacity="1" stroke-miterlimit="4" d="M 82.315059 174.054756 C 82.315059 167.986394 69.270145 163.07391 53.17041 163.07391 C 37.029392 163.07391 23.984478 167.986394 23.984478 174.054756 C 23.984478 180.123118 37.029392 185.076882 53.17041 185.076882 C 69.270145 185.076882 82.315059 180.123118 82.315059 174.054756 Z M 82.315059 174.054756 " transform="matrix(0.094625, 0, 0, -0.094625, 0, 29.458213)"/>
<path fill-rule="nonzero" fill="rgb(13.729858%, 12.159729%, 12.548828%)" fill-opacity="1" d="M 5.84375 12.929688 C 5.84375 13.101562 5.472656 13.242188 5.015625 13.242188 C 4.558594 13.242188 4.1875 13.101562 4.1875 12.929688 C 4.1875 12.757812 4.558594 12.621094 5.015625 12.621094 C 5.472656 12.621094 5.84375 12.757812 5.84375 12.929688 "/>
<path fill-rule="nonzero" fill="rgb(13.729858%, 12.159729%, 12.548828%)" fill-opacity="1" d="M 5.84375 12.363281 C 5.84375 12.535156 5.472656 12.675781 5.015625 12.675781 C 4.558594 12.675781 4.1875 12.535156 4.1875 12.363281 C 4.1875 12.191406 4.558594 12.050781 5.015625 12.050781 C 5.472656 12.050781 5.84375 12.191406 5.84375 12.363281 "/>
<path fill-rule="nonzero" fill="rgb(100%, 100%, 100%)" fill-opacity="1" d="M 7.789062 11.851562 C 7.789062 12.425781 6.554688 12.894531 5.03125 12.894531 C 3.503906 12.894531 2.269531 12.425781 2.269531 11.851562 C 2.269531 11.277344 3.503906 10.8125 5.03125 10.8125 C 6.554688 10.8125 7.789062 11.277344 7.789062 11.851562 "/>
<path fill="none" stroke-width="3.5" stroke-linecap="round" stroke-linejoin="round" stroke="rgb(13.729858%, 12.159729%, 12.548828%)" stroke-opacity="1" stroke-miterlimit="4" d="M 82.315059 186.067635 C 82.315059 179.999273 69.270145 175.045509 53.17041 175.045509 C 37.029392 175.045509 23.984478 179.999273 23.984478 186.067635 C 23.984478 192.135997 37.029392 197.048481 53.17041 197.048481 C 69.270145 197.048481 82.315059 192.135997 82.315059 186.067635 Z M 82.315059 186.067635 " transform="matrix(0.094625, 0, 0, -0.094625, 0, 29.458213)"/>
<path fill-rule="nonzero" fill="rgb(13.729858%, 12.159729%, 12.548828%)" fill-opacity="1" d="M 5.84375 11.796875 C 5.84375 11.96875 5.472656 12.109375 5.015625 12.109375 C 4.558594 12.109375 4.1875 11.96875 4.1875 11.796875 C 4.1875 11.625 4.558594 11.484375 5.015625 11.484375 C 5.472656 11.484375 5.84375 11.625 5.84375 11.796875 "/>
</svg>
