<?xml version="1.0" encoding="UTF-8"?>
<svg xmlns="http://www.w3.org/2000/svg" xmlns:xlink="http://www.w3.org/1999/xlink" width="23.96" height="11.16" viewBox="0 0 23.96 11.16">
<defs>
<clipPath id="clip-0">
<path clip-rule="nonzero" d="M 0.820312 0 L 17 0 L 17 10.285156 L 0.820312 10.285156 Z M 0.820312 0 "/>
</clipPath>
<clipPath id="clip-1">
<path clip-rule="nonzero" d="M 0.820312 0 L 14 0 L 14 10.285156 L 0.820312 10.285156 Z M 0.820312 0 "/>
</clipPath>
<clipPath id="clip-2">
<path clip-rule="nonzero" d="M 0.820312 0 L 19 0 L 19 10.285156 L 0.820312 10.285156 Z M 0.820312 0 "/>
</clipPath>
<clipPath id="clip-3">
<path clip-rule="nonzero" d="M 0.820312 0 L 17 0 L 17 10.285156 L 0.820312 10.285156 Z M 0.820312 0 "/>
</clipPath>
<clipPath id="clip-4">
<path clip-rule="nonzero" d="M 0.820312 0 L 13 0 L 13 10.285156 L 0.820312 10.285156 Z M 0.820312 0 "/>
</clipPath>
<clipPath id="clip-5">
<path clip-rule="nonzero" d="M 0.820312 0 L 18 0 L 18 10.285156 L 0.820312 10.285156 Z M 0.820312 0 "/>
</clipPath>
<clipPath id="clip-6">
<path clip-rule="nonzero" d="M 9 3 L 23.101562 3 L 23.101562 10.285156 L 9 10.285156 Z M 9 3 "/>
</clipPath>
</defs>
<g clip-path="url(#clip-0)">
<path fill="none" stroke-width="15" stroke-linecap="butt" stroke-linejoin="miter" stroke="rgb(69.726562%, 69.726562%, 69.726562%)" stroke-opacity="1" stroke-miterlimit="4" d="M 63.721438 50.486089 C 76.112231 50.486089 86.108871 60.482728 86.108871 72.873522 C 86.108871 85.222312 76.112231 95.260954 63.721438 95.260954 C 51.372648 95.260954 41.334005 85.222312 41.334005 72.873522 C 41.334005 60.482728 51.372648 50.486089 63.721438 50.486089 Z M 63.721438 50.486089 " transform="matrix(0.093, 0, 0, -0.093, 0.82, 10.3788)"/>
<path fill="none" stroke-width="15" stroke-linecap="butt" stroke-linejoin="miter" stroke="rgb(69.726562%, 69.726562%, 69.726562%)" stroke-opacity="1" stroke-miterlimit="4" d="M 63.721438 6.929301 C 76.112231 6.929301 86.108871 16.967944 86.108871 29.316734 C 86.108871 41.665524 76.112231 51.704167 63.721438 51.704167 C 51.372648 51.704167 41.334005 41.665524 41.334005 29.316734 C 41.334005 16.967944 51.372648 6.929301 63.721438 6.929301 Z M 63.721438 6.929301 " transform="matrix(0.093, 0, 0, -0.093, 0.82, 10.3788)"/>
</g>
<g clip-path="url(#clip-1)">
<path fill="none" stroke-width="15" stroke-linecap="butt" stroke-linejoin="miter" stroke="rgb(69.726562%, 69.726562%, 69.726562%)" stroke-opacity="1" stroke-miterlimit="4" d="M 30.62332 33.432997 C 40.493952 33.432997 48.516465 41.455511 48.516465 51.368145 C 48.516465 61.238777 40.493952 69.26129 30.62332 69.26129 C 20.710685 69.26129 12.688172 61.238777 12.688172 51.368145 C 12.688172 41.455511 20.710685 33.432997 30.62332 33.432997 Z M 30.62332 33.432997 " transform="matrix(0.093, 0, 0, -0.093, 0.82, 10.3788)"/>
</g>
<g clip-path="url(#clip-2)">
<path fill="none" stroke-width="15" stroke-linecap="butt" stroke-linejoin="miter" stroke="rgb(69.726562%, 69.726562%, 69.726562%)" stroke-opacity="1" stroke-miterlimit="4" d="M 84.470766 86.608401 C 84.554772 78.291868 87.914987 70.773387 91.233199 63.296909 C 93.711358 57.458535 99.549731 52.460215 106.228159 49.940054 " transform="matrix(0.093, 0, 0, -0.093, 0.82, 10.3788)"/>
<path fill="none" stroke-width="15" stroke-linecap="butt" stroke-linejoin="miter" stroke="rgb(69.726562%, 69.726562%, 69.726562%)" stroke-opacity="1" stroke-miterlimit="4" d="M 84.470766 14.111761 C 84.554772 22.428293 87.914987 29.946774 91.233199 37.423253 C 93.711358 43.261626 99.549731 48.259946 106.228159 50.780108 " transform="matrix(0.093, 0, 0, -0.093, 0.82, 10.3788)"/>
</g>
<g clip-path="url(#clip-3)">
<path fill="none" stroke-width="15" stroke-linecap="butt" stroke-linejoin="miter" stroke="rgb(0.784302%, 43.920898%, 62.350464%)" stroke-opacity="1" stroke-miterlimit="4" d="M 56.328965 59.852688 C 68.719758 59.852688 78.716398 69.849328 78.716398 82.240121 C 78.716398 94.588911 68.719758 104.627554 56.328965 104.627554 C 43.980175 104.627554 33.941532 94.588911 33.941532 82.240121 C 33.941532 69.849328 43.980175 59.852688 56.328965 59.852688 Z M 56.328965 59.852688 " transform="matrix(0.093, 0, 0, -0.093, 0.82, 10.3788)"/>
<path fill="none" stroke-width="15" stroke-linecap="butt" stroke-linejoin="miter" stroke="rgb(0.784302%, 43.920898%, 62.350464%)" stroke-opacity="1" stroke-miterlimit="4" d="M 56.328965 16.295901 C 68.719758 16.295901 78.716398 26.334543 78.716398 38.683333 C 78.716398 51.074126 68.719758 61.070766 56.328965 61.070766 C 43.980175 61.070766 33.941532 51.074126 33.941532 38.683333 C 33.941532 26.334543 43.980175 16.295901 56.328965 16.295901 Z M 56.328965 16.295901 " transform="matrix(0.093, 0, 0, -0.093, 0.82, 10.3788)"/>
</g>
<g clip-path="url(#clip-4)">
<path fill="none" stroke-width="15" stroke-linecap="butt" stroke-linejoin="miter" stroke="rgb(0.784302%, 43.920898%, 62.350464%)" stroke-opacity="1" stroke-miterlimit="4" d="M 23.230847 42.841599 C 33.101478 42.841599 41.123992 50.82211 41.123992 60.734745 C 41.123992 70.647379 33.101478 78.62789 23.230847 78.62789 C 13.318212 78.62789 5.295699 70.647379 5.295699 60.734745 C 5.295699 50.82211 13.318212 42.841599 23.230847 42.841599 Z M 23.230847 42.841599 " transform="matrix(0.093, 0, 0, -0.093, 0.82, 10.3788)"/>
</g>
<g clip-path="url(#clip-5)">
<path fill="none" stroke-width="15" stroke-linecap="butt" stroke-linejoin="miter" stroke="rgb(0.784302%, 43.920898%, 62.350464%)" stroke-opacity="1" stroke-miterlimit="4" d="M 77.078293 95.975 C 77.162298 87.658468 80.480511 80.139987 83.840726 72.663508 C 86.318884 66.825134 92.157258 61.826815 98.835685 59.306653 " transform="matrix(0.093, 0, 0, -0.093, 0.82, 10.3788)"/>
<path fill="none" stroke-width="15" stroke-linecap="butt" stroke-linejoin="miter" stroke="rgb(0%, 0%, 0%)" stroke-opacity="1" stroke-miterlimit="4" d="M 77.078293 23.47836 C 77.162298 31.836895 80.480511 39.313374 83.840726 46.831855 C 86.318884 52.670228 92.157258 57.668548 98.835685 60.146707 " transform="matrix(0.093, 0, 0, -0.093, 0.82, 10.3788)"/>
</g>
<g clip-path="url(#clip-6)">
<path fill-rule="nonzero" fill="rgb(69.726562%, 69.726562%, 69.726562%)" fill-opacity="1" d="M 23.097656 6.953125 L 23.097656 4.785156 L 13.617188 4.785156 C 13.492188 4.269531 13.265625 3.921875 13.003906 3.921875 C 12.742188 3.921875 12.515625 4.269531 12.390625 4.785156 L 12.230469 4.785156 C 12.109375 4.246094 11.878906 3.882812 11.609375 3.882812 C 11.339844 3.882812 11.109375 4.246094 10.988281 4.785156 L 9.402344 4.785156 L 9.402344 6.566406 L 11.007812 6.566406 C 11.132812 7.0625 11.355469 7.390625 11.609375 7.390625 C 11.863281 7.390625 12.085938 7.0625 12.214844 6.566406 L 12.390625 6.566406 C 12.515625 7.082031 12.742188 7.429688 13.003906 7.429688 C 13.265625 7.429688 13.492188 7.082031 13.617188 6.566406 L 20.714844 6.566406 L 20.714844 10.035156 L 22.980469 10.035156 L 22.980469 9.183594 L 21.957031 9.183594 L 21.957031 8.582031 L 23.042969 8.582031 L 23.042969 7.730469 L 21.957031 7.730469 L 21.957031 6.953125 L 23.097656 6.953125 "/>
</g>
<path fill-rule="nonzero" fill="rgb(0.784302%, 43.920898%, 62.350464%)" fill-opacity="1" d="M 22.414062 6.082031 L 22.414062 3.914062 L 12.929688 3.914062 C 12.804688 3.398438 12.578125 3.050781 12.316406 3.050781 C 12.054688 3.050781 11.828125 3.398438 11.703125 3.914062 L 11.542969 3.914062 C 11.421875 3.375 11.1875 3.011719 10.921875 3.011719 C 10.652344 3.011719 10.421875 3.375 10.300781 3.914062 L 8.714844 3.914062 L 8.714844 5.695312 L 10.320312 5.695312 C 10.445312 6.191406 10.667969 6.519531 10.921875 6.519531 C 11.175781 6.519531 11.398438 6.191406 11.523438 5.695312 L 11.703125 5.695312 C 11.828125 6.210938 12.054688 6.558594 12.316406 6.558594 C 12.578125 6.558594 12.804688 6.210938 12.929688 5.695312 L 20.027344 5.695312 L 20.027344 9.164062 L 22.292969 9.164062 L 22.292969 8.3125 L 21.269531 8.3125 L 21.269531 7.710938 L 22.355469 7.710938 L 22.355469 6.859375 L 21.269531 6.859375 L 21.269531 6.082031 L 22.414062 6.082031 "/>
</svg>
