<?xml version="1.0" encoding="UTF-8"?>
<svg xmlns="http://www.w3.org/2000/svg" xmlns:xlink="http://www.w3.org/1999/xlink" width="35.24" height="47.96" viewBox="0 0 35.24 47.96">
<defs>
<clipPath id="clip-0">
<path clip-rule="nonzero" d="M 0 0.488281 L 34.496094 0.488281 L 34.496094 47.433594 L 0 47.433594 Z M 0 0.488281 "/>
</clipPath>
</defs>
<g clip-path="url(#clip-0)">
<path fill-rule="evenodd" fill="rgb(13.729858%, 12.159729%, 12.548828%)" fill-opacity="1" d="M 34.5 9.417969 L 34.445312 8.527344 L 34.339844 7.640625 L 34.082031 6.753906 L 33.820312 5.96875 L 33.410156 5.1875 L 32.992188 4.457031 L 32.476562 3.722656 L 31.90625 3.097656 L 31.285156 2.523438 L 30.558594 2 L 29.832031 1.582031 L 29.058594 1.164062 L 28.28125 0.90625 L 27.402344 0.640625 L 26.519531 0.539062 L 25.636719 0.488281 L 24.707031 0.539062 L 23.824219 0.640625 L 22.996094 0.90625 L 22.171875 1.164062 L 21.390625 1.582031 L 20.667969 2 L 19.992188 2.523438 L 19.371094 3.097656 L 18.800781 3.722656 L 18.285156 4.457031 L 17.867188 5.1875 L 17.457031 5.96875 L 17.195312 6.753906 L 16.9375 7.640625 L 16.832031 8.527344 L 16.78125 9.417969 L 16.832031 10.25 L 16.886719 11.035156 L 17.039062 11.765625 L 17.296875 12.5 L 16.730469 12.234375 L 16.316406 12.027344 L 16.007812 11.921875 L 15.898438 11.871094 L 15.691406 11.765625 L 15.433594 11.765625 L 15.226562 11.871094 L 15.074219 12.027344 L 11.03125 16.363281 L 10.929688 16.519531 L 10.875 16.675781 L 10.824219 16.882812 L 10.875 17.09375 L 10.980469 17.40625 L 11.292969 18.191406 L 11.601562 19.078125 L 11.863281 19.808594 L 11.65625 20.070312 L 11.1875 20.539062 L 11.085938 20.644531 L 11.03125 20.800781 L 10.980469 20.90625 L 10.980469 21.273438 L 11.03125 21.792969 L 11.03125 22.835938 L 10.824219 23.046875 L 10.460938 23.464844 L 9.890625 24.09375 L 9.164062 24.820312 L 8.339844 25.710938 L 7.40625 26.703125 L 6.472656 27.746094 L 5.4375 28.84375 L 4.453125 29.886719 L 3.523438 30.929688 L 2.589844 31.925781 L 1.8125 32.757812 L 1.140625 33.492188 L 0.621094 34.066406 L 0.261719 34.429688 L 0.152344 34.535156 L 0.0507812 34.691406 L 0 34.898438 L 0 35.109375 L 0.0507812 35.265625 L 1.1875 38.398438 L 1.292969 38.609375 L 1.449219 38.765625 L 1.65625 38.816406 L 1.867188 38.867188 L 6.007812 38.765625 L 6.164062 38.710938 L 6.316406 38.664062 L 6.425781 38.609375 L 6.523438 38.503906 L 7.511719 37.40625 L 7.613281 37.300781 L 7.664062 37.199219 L 7.714844 37.042969 L 7.714844 35.996094 L 7.664062 35.527344 L 8.128906 35.527344 L 8.597656 35.472656 L 9.164062 35.472656 L 9.324219 35.421875 L 9.425781 35.371094 L 9.527344 35.265625 L 10.566406 34.167969 L 10.722656 33.960938 L 10.773438 33.644531 L 10.667969 33.386719 L 10.515625 33.179688 L 10.359375 32.96875 L 10.253906 32.707031 L 10.253906 32.394531 L 10.460938 32.082031 L 10.667969 31.925781 L 10.929688 31.816406 L 11.238281 31.816406 L 11.546875 32.027344 L 11.808594 32.183594 L 12.066406 32.238281 L 12.328125 32.183594 L 12.589844 32.027344 L 13.570312 30.929688 L 13.675781 30.828125 L 13.726562 30.671875 L 13.777344 30.566406 L 13.777344 29.941406 L 13.726562 29.523438 L 13.726562 29.050781 L 14.191406 29 L 15.226562 29 L 15.328125 28.949219 L 15.484375 28.84375 L 15.589844 28.792969 L 15.691406 28.6875 L 15.898438 28.425781 L 16.160156 28.164062 L 16.367188 27.902344 L 16.988281 27.902344 L 17.246094 27.851562 L 17.503906 28.113281 L 17.820312 28.476562 L 18.128906 28.792969 L 18.335938 29.050781 L 18.230469 31.816406 L 18.074219 37.300781 L 17.867188 42.679688 L 17.765625 45.085938 L 17.820312 45.292969 L 17.867188 45.449219 L 17.972656 45.605469 L 18.128906 45.761719 L 21.03125 47.332031 L 21.238281 47.433594 L 21.445312 47.433594 L 21.703125 47.332031 L 21.855469 47.226562 L 24.914062 44.351562 L 25.015625 44.25 L 25.070312 44.144531 L 25.121094 43.988281 L 25.121094 43.882812 L 25.171875 42.367188 L 25.171875 42.109375 L 25.070312 41.949219 L 25.015625 41.847656 L 24.914062 41.742188 L 24.707031 41.535156 L 24.394531 41.21875 L 24.085938 40.851562 L 24.449219 40.539062 L 24.757812 40.226562 L 25.070312 39.914062 L 25.171875 39.808594 L 25.226562 39.707031 L 25.273438 39.550781 L 25.328125 39.394531 L 25.378906 37.929688 L 25.328125 37.613281 L 25.171875 37.40625 L 24.964844 37.25 L 24.65625 37.199219 L 24.394531 37.148438 L 24.1875 36.988281 L 23.984375 36.78125 L 23.929688 36.414062 L 23.984375 36.152344 L 24.136719 35.894531 L 24.34375 35.738281 L 24.707031 35.683594 L 25.015625 35.632812 L 25.226562 35.472656 L 25.378906 35.265625 L 25.480469 34.953125 L 25.535156 33.492188 L 25.535156 33.332031 L 25.480469 33.230469 L 25.378906 33.070312 L 25.328125 32.96875 L 25.226562 32.867188 L 25.015625 32.601562 L 24.707031 32.289062 L 24.394531 31.976562 L 24.757812 31.664062 L 25.070312 31.351562 L 25.273438 31.140625 L 25.378906 31.039062 L 25.480469 30.929688 L 25.589844 30.773438 L 25.636719 30.671875 L 25.636719 29.3125 L 26 29 L 26.46875 28.632812 L 26.832031 28.269531 L 26.984375 28.113281 L 27.039062 28.007812 L 27.140625 27.851562 L 27.195312 27.746094 L 27.195312 27.589844 L 27.246094 26.234375 L 27.761719 25.710938 L 28.175781 25.136719 L 28.589844 24.558594 L 28.953125 23.933594 L 29.214844 23.257812 L 29.421875 22.527344 L 29.574219 21.792969 L 29.625 21.011719 L 29.625 20.121094 L 29.472656 19.289062 L 29.261719 18.449219 L 29.007812 17.667969 L 30.195312 17.09375 L 31.234375 16.308594 L 32.164062 15.421875 L 32.992188 14.378906 L 33.613281 13.28125 L 34.082031 12.082031 L 34.390625 10.773438 Z M 2.074219 36.625 L 2.539062 36.152344 L 3.105469 35.527344 L 3.78125 34.796875 L 4.558594 33.960938 L 5.382812 33.070312 L 6.316406 32.082031 L 7.199219 31.085938 L 8.128906 30.097656 L 9.0625 29.15625 L 9.890625 28.214844 L 10.722656 27.328125 L 11.449219 26.546875 L 12.066406 25.917969 L 12.535156 25.394531 L 12.898438 25.03125 L 13.050781 24.820312 L 13.152344 24.925781 L 13.261719 24.980469 L 13.3125 25.085938 L 13.414062 25.1875 L 13.261719 25.34375 L 12.898438 25.710938 L 12.429688 26.234375 L 11.863281 26.859375 L 11.136719 27.640625 L 10.359375 28.476562 L 9.480469 29.363281 L 8.597656 30.355469 L 7.664062 31.351562 L 6.785156 32.339844 L 5.851562 33.332031 L 4.972656 34.273438 L 4.195312 35.160156 L 3.417969 35.945312 L 2.796875 36.625 L 2.277344 37.199219 L 2.226562 37.09375 L 2.175781 36.9375 L 2.121094 36.78125 Z M 14.761719 27.535156 L 14.554688 27.535156 L 14.292969 27.589844 L 12.949219 27.589844 L 12.792969 27.640625 L 12.6875 27.695312 L 12.535156 27.746094 L 12.429688 27.851562 L 12.328125 28.0625 L 12.273438 28.214844 L 12.273438 28.582031 L 12.328125 29.105469 L 12.328125 30.148438 L 12.226562 30.253906 L 12.121094 30.355469 L 11.910156 30.566406 L 11.546875 30.410156 L 11.1875 30.355469 L 10.824219 30.410156 L 10.515625 30.460938 L 10.203125 30.566406 L 9.890625 30.722656 L 9.632812 30.878906 L 9.425781 31.085938 L 8.960938 31.769531 L 8.800781 32.445312 L 8.855469 33.070312 L 9.117188 33.644531 L 8.960938 33.804688 L 8.855469 33.855469 L 8.800781 33.960938 L 8.703125 34.066406 L 7.664062 34.066406 L 7.40625 34.117188 L 6.785156 34.117188 L 6.628906 34.167969 L 6.523438 34.273438 L 6.425781 34.328125 L 6.316406 34.429688 L 6.265625 34.585938 L 6.214844 34.691406 L 6.214844 35.054688 L 6.265625 35.582031 L 6.265625 36.675781 L 6.109375 36.835938 L 6.007812 36.988281 L 5.851562 37.148438 L 5.699219 37.300781 L 4.972656 37.300781 L 4.609375 37.355469 L 3.832031 37.355469 L 3.417969 37.40625 L 3.054688 37.40625 L 13.933594 25.65625 L 15.28125 26.964844 L 15.125 27.121094 L 15.019531 27.277344 L 14.867188 27.433594 Z M 18.4375 25.761719 L 18.285156 25.917969 L 18.128906 26.074219 L 17.972656 26.234375 L 17.820312 26.386719 L 17.457031 26.386719 L 17.246094 26.441406 L 15.953125 26.441406 L 15.898438 26.492188 L 15.847656 26.492188 L 14.449219 25.136719 L 14.140625 24.875 L 13 23.777344 L 1.757812 35.894531 L 1.710938 35.683594 L 1.65625 35.527344 L 1.605469 35.371094 L 1.550781 35.214844 L 1.757812 35.007812 L 2.175781 34.535156 L 2.746094 33.910156 L 3.46875 33.125 L 4.296875 32.238281 L 5.175781 31.246094 L 6.164062 30.253906 L 7.148438 29.15625 L 8.078125 28.113281 L 9.011719 27.121094 L 9.890625 26.179688 L 10.667969 25.34375 L 11.339844 24.613281 L 11.863281 24.09375 L 12.171875 23.726562 L 12.273438 23.621094 L 12.378906 23.515625 L 12.429688 23.359375 L 12.480469 23.257812 L 12.480469 22.367188 L 12.429688 21.792969 L 12.429688 21.324219 L 12.6875 21.0625 L 12.949219 20.75 L 13.152344 20.539062 L 13.261719 20.4375 L 13.363281 20.277344 L 13.414062 20.070312 L 13.414062 19.914062 L 13.363281 19.703125 L 13.261719 19.390625 L 12.949219 18.554688 L 12.636719 17.667969 L 12.378906 16.988281 L 12.636719 16.726562 L 13.050781 16.308594 L 13.515625 15.789062 L 14.554688 14.640625 L 15.074219 14.117188 L 15.484375 13.699219 L 15.746094 13.386719 L 15.953125 13.492188 L 16.210938 13.59375 L 16.523438 13.75 L 16.832031 13.90625 L 17.195312 14.0625 L 17.558594 14.222656 L 17.921875 14.429688 L 18.285156 14.585938 L 18.386719 14.585938 L 18.59375 14.898438 L 18.851562 15.214844 L 19.109375 15.472656 L 19.371094 15.789062 L 19.679688 16.050781 L 19.941406 16.308594 L 20.25 16.570312 L 20.5625 16.78125 L 20.613281 16.988281 L 20.71875 17.199219 L 20.820312 17.40625 L 20.976562 17.5625 L 21.238281 17.71875 L 21.492188 17.878906 L 21.753906 17.929688 L 22.324219 17.929688 L 22.582031 17.824219 L 22.84375 17.667969 L 23.050781 17.460938 L 23.359375 16.988281 L 23.460938 16.414062 L 23.308594 15.890625 L 22.996094 15.421875 L 22.734375 15.214844 L 22.480469 15.054688 L 22.171875 15.003906 L 21.855469 15.003906 L 21.648438 14.898438 L 21.492188 14.742188 L 21.285156 14.585938 L 21.082031 14.429688 L 21.339844 14.324219 L 21.597656 14.222656 L 21.855469 14.167969 L 22.171875 14.167969 L 22.480469 14.222656 L 22.789062 14.378906 L 23.097656 14.585938 L 23.460938 14.847656 L 23.515625 14.898438 L 23.566406 14.953125 L 23.929688 15.371094 L 24.1875 16.101562 L 24.1875 16.988281 L 23.566406 18.03125 L 23.460938 18.191406 L 23.410156 18.449219 L 23.410156 18.660156 L 23.460938 18.867188 L 23.515625 18.972656 L 23.722656 19.339844 L 23.984375 19.808594 L 24.292969 20.4375 L 24.65625 21.0625 L 24.964844 21.636719 L 25.226562 22.160156 L 25.433594 22.527344 L 25.171875 22.835938 L 24.757812 23.257812 L 24.238281 23.777344 L 23.722656 24.355469 L 23.203125 24.925781 L 22.734375 25.449219 L 22.324219 25.917969 L 22.0625 26.179688 L 21.753906 26.074219 L 21.390625 25.972656 L 20.921875 25.816406 L 20.511719 25.65625 L 20.042969 25.554688 L 19.679688 25.449219 L 19.472656 25.394531 L 19.371094 25.34375 L 19.164062 25.292969 L 18.957031 25.34375 L 18.800781 25.394531 L 18.644531 25.554688 L 18.59375 25.605469 L 18.492188 25.65625 Z M 20.097656 13.332031 L 19.632812 12.445312 L 19.214844 11.453125 L 19.007812 10.460938 L 18.90625 9.417969 L 19.0625 8.058594 L 19.425781 6.804688 L 20.042969 5.65625 L 20.875 4.664062 L 21.855469 3.828125 L 22.996094 3.203125 L 24.292969 2.835938 L 25.636719 2.679688 L 26.984375 2.835938 L 28.226562 3.203125 L 29.367188 3.828125 L 30.351562 4.664062 L 31.179688 5.65625 L 31.800781 6.804688 L 32.164062 8.058594 L 32.320312 9.417969 L 32.214844 10.511719 L 32.007812 11.503906 L 31.597656 12.5 L 31.074219 13.386719 L 30.402344 14.167969 L 29.625 14.847656 L 28.746094 15.421875 L 27.761719 15.839844 L 27.402344 15.472656 L 27.039062 15.109375 L 26.621094 14.796875 L 26.15625 14.480469 L 25.742188 14.222656 L 25.226562 13.960938 L 24.757812 13.75 L 24.238281 13.59375 L 23.667969 13.175781 L 23.097656 12.914062 L 22.53125 12.757812 L 22.011719 12.757812 L 21.445312 12.8125 L 20.976562 12.914062 L 20.511719 13.070312 Z M 21.03125 45.710938 L 20.921875 45.605469 L 20.820312 45.554688 L 20.667969 45.449219 L 20.5625 45.394531 L 20.71875 41.742188 L 20.875 36.46875 L 21.082031 31.609375 L 21.128906 29.210938 L 21.285156 29.261719 L 21.648438 29.261719 L 21.546875 31.558594 L 21.390625 36.363281 L 21.183594 41.691406 Z M 24.1875 30.148438 L 23.875 30.460938 L 23.410156 30.878906 L 23.050781 31.246094 L 22.894531 31.402344 L 22.789062 31.503906 L 22.734375 31.609375 L 22.6875 31.769531 L 22.6875 32.183594 L 22.789062 32.289062 L 22.84375 32.394531 L 22.996094 32.550781 L 23.359375 32.914062 L 23.773438 33.386719 L 24.085938 33.753906 L 24.085938 33.960938 L 24.03125 34.117188 L 24.03125 34.328125 L 23.667969 34.429688 L 23.359375 34.640625 L 23.097656 34.898438 L 22.894531 35.160156 L 22.734375 35.421875 L 22.582031 35.738281 L 22.480469 36.363281 L 22.582031 37.148438 L 22.894531 37.769531 L 23.359375 38.191406 L 23.875 38.503906 L 23.875 39.078125 L 23.566406 39.394531 L 23.097656 39.757812 L 22.734375 40.125 L 22.582031 40.28125 L 22.480469 40.382812 L 22.375 40.539062 L 22.324219 40.644531 L 22.324219 40.90625 L 22.425781 41.21875 L 22.6875 41.480469 L 23.050781 41.847656 L 23.460938 42.316406 L 23.773438 42.632812 L 23.722656 42.839844 L 23.722656 43.519531 L 23.621094 43.621094 L 23.410156 43.777344 L 23.203125 43.988281 L 22.945312 44.25 L 22.632812 44.507812 L 22.375 44.773438 L 22.0625 45.03125 L 21.808594 45.292969 L 22.375 29.261719 L 24.238281 29.363281 L 24.238281 29.785156 L 24.1875 29.988281 Z M 28.226562 20.957031 L 28.125 21.742188 L 27.972656 22.472656 L 27.710938 23.203125 L 27.347656 23.882812 L 27.039062 24.355469 L 26.675781 24.769531 L 26.261719 25.136719 L 25.84375 25.5 L 25.796875 26.074219 L 25.796875 27.277344 L 25.742188 27.277344 L 25.378906 27.589844 L 24.964844 28.007812 L 24.601562 28.320312 L 24.449219 28.476562 L 24.394531 28.53125 L 24.394531 28.582031 L 24.34375 28.632812 L 22.375 28.53125 L 22.011719 28.53125 L 20.457031 28.476562 L 19.835938 45.03125 L 19.679688 44.925781 L 19.527344 44.824219 L 19.371094 44.773438 L 19.214844 44.664062 L 19.316406 41.847656 L 19.527344 36.414062 L 19.679688 31.191406 L 19.785156 28.84375 L 19.785156 28.6875 L 19.734375 28.53125 L 19.679688 28.425781 L 19.578125 28.320312 L 19.527344 28.214844 L 19.316406 28.007812 L 19.0625 27.746094 L 18.800781 27.433594 L 18.957031 27.328125 L 19.109375 27.171875 L 19.214844 27.015625 L 19.371094 26.859375 L 19.679688 26.964844 L 20.042969 27.070312 L 20.511719 27.222656 L 20.976562 27.328125 L 21.390625 27.484375 L 21.753906 27.589844 L 22.011719 27.640625 L 22.117188 27.695312 L 22.480469 27.695312 L 22.6875 27.589844 L 22.84375 27.484375 L 26.832031 23.152344 L 26.984375 22.996094 L 27.039062 22.734375 L 27.039062 22.527344 L 26.984375 22.316406 L 26.933594 22.160156 L 26.726562 21.84375 L 26.46875 21.324219 L 26.105469 20.695312 L 25.742188 20.070312 L 25.433594 19.445312 L 25.171875 18.921875 L 24.964844 18.609375 L 25.378906 17.878906 L 25.636719 17.144531 L 25.6875 16.46875 L 25.589844 15.839844 L 26.15625 16.308594 L 26.726562 16.78125 L 27.140625 17.355469 L 27.554688 17.980469 L 27.867188 18.710938 L 28.074219 19.390625 L 28.175781 20.175781 Z M 28.644531 17.039062 L 28.433594 16.726562 L 28.335938 16.570312 L 28.226562 16.414062 L 29.261719 15.945312 L 30.195312 15.316406 L 31.027344 14.535156 L 31.699219 13.699219 L 32.269531 12.707031 L 32.683594 11.664062 L 32.941406 10.566406 L 33.046875 9.417969 L 32.890625 7.902344 L 32.476562 6.492188 L 31.800781 5.238281 L 30.871094 4.140625 L 29.785156 3.203125 L 28.539062 2.523438 L 27.140625 2.105469 L 25.636719 1.949219 L 24.136719 2.105469 L 22.734375 2.523438 L 21.492188 3.203125 L 20.355469 4.140625 L 19.472656 5.238281 L 18.75 6.492188 L 18.335938 7.902344 L 18.179688 9.417969 L 18.230469 10.511719 L 18.492188 11.558594 L 18.851562 12.550781 L 19.371094 13.4375 L 19.632812 13.800781 L 19.890625 14.167969 L 20.199219 14.535156 L 20.511719 14.847656 L 20.613281 14.953125 L 20.769531 15.054688 L 20.921875 15.214844 L 21.082031 15.316406 L 21.238281 15.421875 L 21.390625 15.527344 L 21.546875 15.683594 L 21.703125 15.789062 L 21.808594 15.839844 L 21.855469 15.890625 L 21.960938 15.945312 L 22.0625 15.996094 L 22.117188 16.050781 L 22.117188 16.152344 L 22.171875 16.207031 L 22.171875 16.414062 L 22.117188 16.46875 L 22.011719 16.570312 L 21.910156 16.621094 L 21.808594 16.675781 L 21.703125 16.570312 L 21.546875 16.519531 L 21.390625 16.414062 L 21.285156 16.363281 L 21.128906 16.257812 L 20.976562 16.152344 L 20.820312 16.050781 L 20.667969 15.945312 L 20.457031 15.734375 L 20.042969 15.421875 L 19.835938 15.214844 L 19.578125 14.953125 L 19.164062 14.429688 L 18.957031 14.117188 L 18.75 13.855469 L 18.59375 13.542969 L 18.4375 13.28125 L 18.285156 12.96875 L 17.921875 12.132812 L 17.660156 11.242188 L 17.503906 10.355469 L 17.457031 9.417969 L 17.613281 7.796875 L 18.074219 6.230469 L 18.851562 4.875 L 19.835938 3.621094 L 21.082031 2.628906 L 22.480469 1.84375 L 23.984375 1.375 L 25.636719 1.21875 L 27.246094 1.375 L 28.796875 1.84375 L 30.148438 2.628906 L 31.390625 3.621094 L 32.371094 4.875 L 33.148438 6.230469 L 33.613281 7.796875 L 33.773438 9.417969 L 33.667969 10.671875 L 33.410156 11.816406 L 32.941406 12.96875 L 32.371094 14.011719 L 31.597656 14.953125 L 30.710938 15.789062 L 29.730469 16.46875 L 28.644531 17.039062 "/>
</g>
<path fill-rule="evenodd" fill="rgb(75.610352%, 87.031555%, 95.944214%)" fill-opacity="1" d="M 19.371094 25.34375 L 19.472656 25.394531 L 19.679688 25.449219 L 20.042969 25.554688 L 20.511719 25.65625 L 20.921875 25.816406 L 21.390625 25.972656 L 21.753906 26.074219 L 22.0625 26.179688 L 22.324219 25.917969 L 22.734375 25.449219 L 23.203125 24.925781 L 23.722656 24.355469 L 24.238281 23.777344 L 24.757812 23.257812 L 25.171875 22.835938 L 25.433594 22.527344 L 25.226562 22.160156 L 24.964844 21.636719 L 24.65625 21.0625 L 24.292969 20.4375 L 23.984375 19.808594 L 23.722656 19.339844 L 23.515625 18.972656 L 23.460938 18.867188 L 23.410156 18.660156 L 23.410156 18.449219 L 23.460938 18.191406 L 23.566406 18.03125 L 24.1875 16.988281 L 24.1875 16.101562 L 23.929688 15.371094 L 23.566406 14.953125 L 23.515625 14.898438 L 23.460938 14.847656 L 23.097656 14.585938 L 22.789062 14.378906 L 22.480469 14.222656 L 22.171875 14.167969 L 21.855469 14.167969 L 21.597656 14.222656 L 21.339844 14.324219 L 21.082031 14.429688 L 21.285156 14.585938 L 21.492188 14.742188 L 21.648438 14.898438 L 21.855469 15.003906 L 22.171875 15.003906 L 22.480469 15.054688 L 22.734375 15.214844 L 22.996094 15.421875 L 23.308594 15.890625 L 23.460938 16.414062 L 23.359375 16.988281 L 23.050781 17.460938 L 22.84375 17.667969 L 22.582031 17.824219 L 22.324219 17.929688 L 21.753906 17.929688 L 21.492188 17.878906 L 21.238281 17.71875 L 20.976562 17.5625 L 20.820312 17.40625 L 20.71875 17.199219 L 20.613281 16.988281 L 20.5625 16.78125 L 20.25 16.570312 L 19.941406 16.308594 L 19.679688 16.050781 L 19.371094 15.789062 L 19.109375 15.472656 L 18.851562 15.214844 L 18.59375 14.898438 L 18.386719 14.585938 L 18.285156 14.585938 L 17.921875 14.429688 L 17.558594 14.222656 L 17.195312 14.0625 L 16.832031 13.90625 L 16.523438 13.75 L 16.210938 13.59375 L 15.953125 13.492188 L 15.746094 13.386719 L 15.484375 13.699219 L 15.074219 14.117188 L 14.554688 14.640625 L 13.515625 15.789062 L 13.050781 16.308594 L 12.636719 16.726562 L 12.378906 16.988281 L 12.636719 17.667969 L 12.949219 18.554688 L 13.261719 19.390625 L 13.363281 19.703125 L 13.414062 19.914062 L 13.414062 20.070312 L 13.363281 20.277344 L 13.261719 20.4375 L 13.152344 20.539062 L 12.949219 20.75 L 12.6875 21.0625 L 12.429688 21.324219 L 12.429688 21.792969 L 12.480469 22.367188 L 12.480469 23.257812 L 12.429688 23.359375 L 12.378906 23.515625 L 12.273438 23.621094 L 12.171875 23.726562 L 11.863281 24.09375 L 11.339844 24.613281 L 10.667969 25.34375 L 9.890625 26.179688 L 9.011719 27.121094 L 8.078125 28.113281 L 7.148438 29.15625 L 6.164062 30.253906 L 5.175781 31.246094 L 4.296875 32.238281 L 3.46875 33.125 L 2.746094 33.910156 L 2.175781 34.535156 L 1.757812 35.007812 L 1.550781 35.214844 L 1.605469 35.371094 L 1.65625 35.527344 L 1.710938 35.683594 L 1.757812 35.894531 L 13 23.777344 L 14.140625 24.875 L 14.449219 25.136719 L 15.847656 26.492188 L 15.898438 26.492188 L 15.953125 26.441406 L 17.246094 26.441406 L 17.457031 26.386719 L 17.820312 26.386719 L 17.972656 26.234375 L 18.128906 26.074219 L 18.285156 25.917969 L 18.4375 25.761719 L 18.492188 25.65625 L 18.59375 25.605469 L 18.644531 25.554688 L 18.800781 25.394531 L 18.957031 25.34375 L 19.164062 25.292969 L 19.371094 25.34375 "/>
<path fill-rule="evenodd" fill="rgb(75.610352%, 87.031555%, 95.944214%)" fill-opacity="1" d="M 3.054688 37.40625 L 3.417969 37.40625 L 3.832031 37.355469 L 4.609375 37.355469 L 4.972656 37.300781 L 5.699219 37.300781 L 5.851562 37.148438 L 6.007812 36.988281 L 6.109375 36.835938 L 6.265625 36.675781 L 6.265625 35.582031 L 6.214844 35.054688 L 6.214844 34.691406 L 6.265625 34.585938 L 6.316406 34.429688 L 6.425781 34.328125 L 6.523438 34.273438 L 6.628906 34.167969 L 6.785156 34.117188 L 7.40625 34.117188 L 7.664062 34.066406 L 8.703125 34.066406 L 8.800781 33.960938 L 8.855469 33.855469 L 8.960938 33.804688 L 9.117188 33.644531 L 8.855469 33.070312 L 8.800781 32.445312 L 8.960938 31.769531 L 9.425781 31.085938 L 9.632812 30.878906 L 9.890625 30.722656 L 10.203125 30.566406 L 10.515625 30.460938 L 10.824219 30.410156 L 11.1875 30.355469 L 11.546875 30.410156 L 11.910156 30.566406 L 12.121094 30.355469 L 12.226562 30.253906 L 12.328125 30.148438 L 12.328125 29.105469 L 12.273438 28.582031 L 12.273438 28.214844 L 12.328125 28.0625 L 12.429688 27.851562 L 12.535156 27.746094 L 12.6875 27.695312 L 12.792969 27.640625 L 12.949219 27.589844 L 14.292969 27.589844 L 14.554688 27.535156 L 14.761719 27.535156 L 14.867188 27.433594 L 15.019531 27.277344 L 15.125 27.121094 L 15.28125 26.964844 L 13.933594 25.65625 L 3.054688 37.40625 "/>
<path fill-rule="evenodd" fill="rgb(23.405457%, 65.632629%, 89.21814%)" fill-opacity="1" d="M 13.050781 24.820312 L 12.898438 25.03125 L 12.535156 25.394531 L 12.066406 25.917969 L 11.449219 26.546875 L 10.722656 27.328125 L 9.890625 28.214844 L 9.0625 29.15625 L 8.128906 30.097656 L 7.199219 31.085938 L 6.316406 32.082031 L 5.382812 33.070312 L 4.558594 33.960938 L 3.78125 34.796875 L 3.105469 35.527344 L 2.539062 36.152344 L 2.074219 36.625 L 2.121094 36.78125 L 2.175781 36.9375 L 2.226562 37.09375 L 2.277344 37.199219 L 2.796875 36.625 L 3.417969 35.945312 L 4.195312 35.160156 L 4.972656 34.273438 L 5.851562 33.332031 L 6.785156 32.339844 L 7.664062 31.351562 L 8.597656 30.355469 L 9.480469 29.363281 L 10.359375 28.476562 L 11.136719 27.640625 L 11.863281 26.859375 L 12.429688 26.234375 L 12.898438 25.710938 L 13.261719 25.34375 L 13.414062 25.1875 L 13.3125 25.085938 L 13.261719 24.980469 L 13.152344 24.925781 L 13.050781 24.820312 "/>
<path fill-rule="evenodd" fill="rgb(75.610352%, 87.031555%, 95.944214%)" fill-opacity="1" d="M 21.808594 45.292969 L 22.0625 45.03125 L 22.375 44.773438 L 22.632812 44.507812 L 22.945312 44.25 L 23.203125 43.988281 L 23.410156 43.777344 L 23.621094 43.621094 L 23.722656 43.519531 L 23.722656 42.839844 L 23.773438 42.632812 L 23.460938 42.316406 L 23.050781 41.847656 L 22.6875 41.480469 L 22.425781 41.21875 L 22.324219 40.90625 L 22.324219 40.644531 L 22.375 40.539062 L 22.480469 40.382812 L 22.582031 40.28125 L 22.734375 40.125 L 23.097656 39.757812 L 23.566406 39.394531 L 23.875 39.078125 L 23.875 38.503906 L 23.359375 38.191406 L 22.894531 37.769531 L 22.582031 37.148438 L 22.480469 36.363281 L 22.582031 35.738281 L 22.734375 35.421875 L 22.894531 35.160156 L 23.097656 34.898438 L 23.359375 34.640625 L 23.667969 34.429688 L 24.03125 34.328125 L 24.03125 34.117188 L 24.085938 33.960938 L 24.085938 33.753906 L 23.773438 33.386719 L 23.359375 32.914062 L 22.996094 32.550781 L 22.84375 32.394531 L 22.789062 32.289062 L 22.6875 32.183594 L 22.6875 31.769531 L 22.734375 31.609375 L 22.789062 31.503906 L 22.894531 31.402344 L 23.050781 31.246094 L 23.410156 30.878906 L 23.875 30.460938 L 24.1875 30.148438 L 24.1875 29.988281 L 24.238281 29.785156 L 24.238281 29.363281 L 22.375 29.261719 L 21.808594 45.292969 "/>
<path fill-rule="evenodd" fill="rgb(23.405457%, 65.632629%, 89.21814%)" fill-opacity="1" d="M 25.636719 1.21875 L 23.984375 1.375 L 22.480469 1.84375 L 21.082031 2.628906 L 19.835938 3.621094 L 18.851562 4.875 L 18.074219 6.230469 L 17.613281 7.796875 L 17.457031 9.417969 L 17.503906 10.355469 L 17.660156 11.242188 L 17.921875 12.132812 L 18.285156 12.96875 L 18.4375 13.28125 L 18.59375 13.542969 L 18.75 13.855469 L 18.957031 14.117188 L 19.164062 14.429688 L 19.578125 14.953125 L 19.835938 15.214844 L 20.042969 15.421875 L 20.457031 15.734375 L 20.667969 15.945312 L 20.820312 16.050781 L 20.976562 16.152344 L 21.128906 16.257812 L 21.285156 16.363281 L 21.390625 16.414062 L 21.546875 16.519531 L 21.703125 16.570312 L 21.808594 16.675781 L 21.910156 16.621094 L 22.011719 16.570312 L 22.117188 16.46875 L 22.171875 16.414062 L 22.171875 16.207031 L 22.117188 16.152344 L 22.117188 16.050781 L 22.0625 15.996094 L 21.960938 15.945312 L 21.855469 15.890625 L 21.808594 15.839844 L 21.703125 15.789062 L 21.546875 15.683594 L 21.390625 15.527344 L 21.238281 15.421875 L 21.082031 15.316406 L 20.921875 15.214844 L 20.769531 15.054688 L 20.613281 14.953125 L 20.511719 14.847656 L 20.199219 14.535156 L 19.890625 14.167969 L 19.632812 13.800781 L 19.371094 13.4375 L 18.851562 12.550781 L 18.492188 11.558594 L 18.230469 10.511719 L 18.179688 9.417969 L 18.335938 7.902344 L 18.75 6.492188 L 19.472656 5.238281 L 20.355469 4.140625 L 21.492188 3.203125 L 22.734375 2.523438 L 24.136719 2.105469 L 25.636719 1.949219 L 27.140625 2.105469 L 28.539062 2.523438 L 29.785156 3.203125 L 30.871094 4.140625 L 31.800781 5.238281 L 32.476562 6.492188 L 32.890625 7.902344 L 33.046875 9.417969 L 32.941406 10.566406 L 32.683594 11.664062 L 32.269531 12.707031 L 31.699219 13.699219 L 31.027344 14.535156 L 30.195312 15.316406 L 29.261719 15.945312 L 28.226562 16.414062 L 28.335938 16.570312 L 28.433594 16.726562 L 28.644531 17.039062 L 29.730469 16.46875 L 30.710938 15.789062 L 31.597656 14.953125 L 32.371094 14.011719 L 32.941406 12.96875 L 33.410156 11.816406 L 33.667969 10.671875 L 33.773438 9.417969 L 33.613281 7.796875 L 33.148438 6.230469 L 32.371094 4.875 L 31.390625 3.621094 L 30.148438 2.628906 L 28.796875 1.84375 L 27.246094 1.375 L 25.636719 1.21875 "/>
<path fill-rule="evenodd" fill="rgb(23.405457%, 65.632629%, 89.21814%)" fill-opacity="1" d="M 20.5625 45.394531 L 20.667969 45.449219 L 20.820312 45.554688 L 20.921875 45.605469 L 21.03125 45.710938 L 21.183594 41.691406 L 21.390625 36.363281 L 21.546875 31.558594 L 21.648438 29.261719 L 21.285156 29.261719 L 21.128906 29.210938 L 21.082031 31.609375 L 20.875 36.46875 L 20.71875 41.742188 L 20.5625 45.394531 "/>
<path fill-rule="evenodd" fill="rgb(75.610352%, 87.031555%, 95.944214%)" fill-opacity="1" d="M 25.589844 15.839844 L 25.6875 16.46875 L 25.636719 17.144531 L 25.378906 17.878906 L 24.964844 18.609375 L 25.171875 18.921875 L 25.433594 19.445312 L 25.742188 20.070312 L 26.105469 20.695312 L 26.46875 21.324219 L 26.726562 21.84375 L 26.933594 22.160156 L 26.984375 22.316406 L 27.039062 22.527344 L 27.039062 22.734375 L 26.984375 22.996094 L 26.832031 23.152344 L 22.84375 27.484375 L 22.6875 27.589844 L 22.480469 27.695312 L 22.117188 27.695312 L 22.011719 27.640625 L 21.753906 27.589844 L 21.390625 27.484375 L 20.976562 27.328125 L 20.511719 27.222656 L 20.042969 27.070312 L 19.679688 26.964844 L 19.371094 26.859375 L 19.214844 27.015625 L 19.109375 27.171875 L 18.957031 27.328125 L 18.800781 27.433594 L 19.0625 27.746094 L 19.316406 28.007812 L 19.527344 28.214844 L 19.578125 28.320312 L 19.679688 28.425781 L 19.734375 28.53125 L 19.785156 28.6875 L 19.785156 28.84375 L 19.679688 31.191406 L 19.527344 36.414062 L 19.316406 41.847656 L 19.214844 44.664062 L 19.371094 44.773438 L 19.527344 44.824219 L 19.679688 44.925781 L 19.835938 45.03125 L 20.457031 28.476562 L 22.011719 28.53125 L 22.375 28.53125 L 24.34375 28.632812 L 24.394531 28.582031 L 24.394531 28.53125 L 24.449219 28.476562 L 24.601562 28.320312 L 24.964844 28.007812 L 25.378906 27.589844 L 25.742188 27.277344 L 25.796875 27.277344 L 25.796875 26.074219 L 25.84375 25.5 L 26.261719 25.136719 L 26.675781 24.769531 L 27.039062 24.355469 L 27.347656 23.882812 L 27.710938 23.203125 L 27.972656 22.472656 L 28.125 21.742188 L 28.226562 20.957031 L 28.175781 20.175781 L 28.074219 19.390625 L 27.867188 18.710938 L 27.554688 17.980469 L 27.140625 17.355469 L 26.726562 16.78125 L 26.15625 16.308594 L 25.589844 15.839844 "/>
<path fill-rule="evenodd" fill="rgb(100%, 100%, 100%)" fill-opacity="1" d="M 14.347656 20.019531 L 13.363281 17.199219 L 16.574219 13.75 L 16.316406 13.644531 L 16.105469 13.542969 L 15.898438 13.492188 L 15.746094 13.386719 L 15.484375 13.699219 L 15.074219 14.117188 L 14.554688 14.640625 L 13.515625 15.789062 L 13.050781 16.308594 L 12.636719 16.726562 L 12.378906 16.988281 L 12.636719 17.667969 L 12.949219 18.554688 L 13.261719 19.390625 L 13.363281 19.703125 L 13.414062 19.914062 L 13.414062 20.070312 L 13.363281 20.277344 L 13.261719 20.4375 L 13.152344 20.539062 L 12.949219 20.75 L 12.6875 21.0625 L 12.429688 21.324219 L 12.429688 21.792969 L 12.480469 22.367188 L 12.480469 23.257812 L 12.429688 23.359375 L 12.378906 23.515625 L 12.273438 23.621094 L 12.171875 23.726562 L 11.863281 24.09375 L 11.339844 24.613281 L 10.667969 25.34375 L 9.890625 26.179688 L 9.011719 27.121094 L 8.078125 28.113281 L 7.148438 29.15625 L 6.164062 30.253906 L 5.175781 31.246094 L 4.296875 32.238281 L 3.46875 33.125 L 2.746094 33.910156 L 2.175781 34.535156 L 1.757812 35.007812 L 1.550781 35.214844 L 1.605469 35.371094 L 1.65625 35.527344 L 1.710938 35.683594 L 1.757812 35.894531 L 13 23.828125 L 13 21.636719 L 14.347656 20.019531 "/>
<path fill-rule="evenodd" fill="rgb(100%, 100%, 100%)" fill-opacity="1" d="M 18.800781 27.433594 L 19.0625 27.746094 L 19.316406 28.007812 L 19.527344 28.214844 L 19.578125 28.320312 L 19.679688 28.425781 L 19.734375 28.53125 L 19.785156 28.6875 L 19.785156 28.84375 L 19.679688 31.191406 L 19.527344 36.414062 L 19.316406 41.847656 L 19.214844 44.664062 L 19.371094 44.773438 L 19.527344 44.824219 L 19.679688 44.925781 L 19.835938 45.03125 L 20.457031 28.476562 L 19.214844 27.070312 L 19.109375 27.171875 L 19.007812 27.277344 L 18.90625 27.328125 L 18.800781 27.433594 "/>
</svg>
