<?xml version="1.0" encoding="UTF-8"?>
<svg xmlns="http://www.w3.org/2000/svg" xmlns:xlink="http://www.w3.org/1999/xlink" width="48.8" height="24.23" viewBox="0 0 48.8 24.23">
<defs>
<clipPath id="clip-0">
<path clip-rule="nonzero" d="M 1 0 L 47.953125 0 L 47.953125 12 L 1 12 Z M 1 0 "/>
</clipPath>
<clipPath id="clip-1">
<path clip-rule="nonzero" d="M 0.65625 0 L 47.953125 0 L 47.953125 14 L 0.65625 14 Z M 0.65625 0 "/>
</clipPath>
<clipPath id="clip-2">
<path clip-rule="nonzero" d="M 35 0 L 47.953125 0 L 47.953125 23 L 35 23 Z M 35 0 "/>
</clipPath>
<clipPath id="clip-3">
<path clip-rule="nonzero" d="M 33 0 L 47.953125 0 L 47.953125 23.484375 L 33 23.484375 Z M 33 0 "/>
</clipPath>
<clipPath id="clip-4">
<path clip-rule="nonzero" d="M 1 11 L 37 11 L 37 23.484375 L 1 23.484375 Z M 1 11 "/>
</clipPath>
</defs>
<g clip-path="url(#clip-0)">
<path fill-rule="nonzero" fill="rgb(3.292847%, 48.298645%, 73.153687%)" fill-opacity="1" d="M 1.203125 11.75 L 15.1875 0.441406 L 47.472656 0.441406 L 35.898438 11.75 L 1.203125 11.75 "/>
</g>
<g clip-path="url(#clip-1)">
<path fill="none" stroke-width="4" stroke-linecap="butt" stroke-linejoin="miter" stroke="rgb(100%, 100%, 100%)" stroke-opacity="1" stroke-miterlimit="4" d="M 5.659565 121.065993 L 149.947379 237.745664 L 483.058773 237.745664 L 363.638439 121.065993 Z M 5.659565 121.065993 " transform="matrix(0.09692, 0, 0, -0.09692, 0.6546, 23.483716)"/>
</g>
<path fill-rule="nonzero" fill="rgb(0%, 0%, 0%)" fill-opacity="1" d="M 32.921875 6.414062 L 33.78125 5.554688 L 36.46875 6.777344 L 31.753906 8.132812 L 32.824219 6.722656 L 24.230469 6.722656 L 24.539062 6.414062 L 32.921875 6.414062 "/>
<path fill-rule="nonzero" fill="rgb(0%, 0%, 0%)" fill-opacity="1" d="M 27.757812 3.53125 L 27.453125 3.839844 L 18.6875 3.839844 L 17.363281 4.871094 L 15.105469 3.765625 L 20.277344 2.25 L 18.996094 3.53125 L 27.757812 3.53125 "/>
<path fill-rule="nonzero" fill="rgb(0%, 0%, 0%)" fill-opacity="1" d="M 22.925781 8.40625 L 22.617188 8.714844 L 13.8125 8.714844 L 12.484375 9.703125 L 10.144531 8.601562 L 15.445312 7.128906 L 14.246094 8.40625 L 22.925781 8.40625 "/>
<path fill-rule="nonzero" fill="rgb(0%, 0%, 0%)" fill-opacity="1" d="M 37.882812 2.34375 L 38.742188 1.484375 L 41.429688 2.664062 L 36.714844 4.019531 L 37.742188 2.652344 L 29.109375 2.652344 L 29.414062 2.34375 L 37.882812 2.34375 "/>
<path fill-rule="nonzero" fill="rgb(100%, 100%, 100%)" fill-opacity="1" d="M 32.960938 6.710938 L 33.824219 5.851562 L 36.171875 6.863281 L 31.457031 8.21875 L 32.652344 7.019531 L 24.019531 7.019531 L 24.328125 6.710938 L 32.960938 6.710938 "/>
<path fill-rule="nonzero" fill="rgb(100%, 100%, 100%)" fill-opacity="1" d="M 27.460938 3.828125 L 27.152344 4.136719 L 18.519531 4.136719 L 17.660156 4.996094 L 15.316406 3.976562 L 20.023438 2.632812 L 18.828125 3.828125 L 27.460938 3.828125 "/>
<g clip-path="url(#clip-2)">
<path fill-rule="nonzero" fill="rgb(3.292847%, 48.298645%, 73.153687%)" fill-opacity="1" d="M 35.898438 22.988281 L 47.472656 10.492188 L 47.472656 0.460938 L 35.898438 11.75 L 35.898438 22.988281 "/>
</g>
<g clip-path="url(#clip-3)">
<path fill="none" stroke-width="4" stroke-linecap="butt" stroke-linejoin="miter" stroke="rgb(100%, 100%, 100%)" stroke-opacity="1" stroke-miterlimit="4" d="M 363.638439 5.111791 L 483.058773 134.043835 L 483.058773 237.544145 L 363.638439 121.065993 Z M 363.638439 5.111791 " transform="matrix(0.09692, 0, 0, -0.09692, 0.6546, 23.483716)"/>
</g>
<path fill-rule="nonzero" fill="rgb(100%, 100%, 100%)" fill-opacity="1" d="M 22.585938 8.703125 L 22.277344 9.011719 L 13.644531 9.011719 L 12.78125 9.875 L 10.441406 8.855469 L 15.148438 7.507812 L 13.949219 8.703125 L 22.585938 8.703125 "/>
<path fill-rule="nonzero" fill="rgb(100%, 100%, 100%)" fill-opacity="1" d="M 37.882812 2.640625 L 38.742188 1.78125 L 41.089844 2.789062 L 36.375 4.144531 L 37.574219 2.949219 L 28.9375 2.949219 L 29.246094 2.640625 L 37.882812 2.640625 "/>
<path fill="none" stroke-width="2.8" stroke-linecap="round" stroke-linejoin="miter" stroke="rgb(0%, 0%, 0%)" stroke-opacity="1" stroke-miterlimit="4" d="M 378.349347 211.346636 L 367.386698 200.383987 " transform="matrix(0.09692, 0, 0, -0.09692, 0.6546, 23.483716)"/>
<path fill="none" stroke-width="1.68" stroke-linecap="round" stroke-linejoin="miter" stroke="rgb(0%, 0%, 0%)" stroke-opacity="1" stroke-miterlimit="4" d="M 324.946734 166.730265 L 318.417509 160.160736 " transform="matrix(0.09692, 0, 0, -0.09692, 0.6546, 23.483716)"/>
<path fill="none" stroke-width="1.68" stroke-linecap="round" stroke-linejoin="miter" stroke="rgb(0%, 0%, 0%)" stroke-opacity="1" stroke-miterlimit="4" d="M 244.701751 173.702832 L 241.55805 171.083081 " transform="matrix(0.09692, 0, 0, -0.09692, 0.6546, 23.483716)"/>
<path fill="none" stroke-width="2.8" stroke-linecap="round" stroke-linejoin="miter" stroke="rgb(0%, 0%, 0%)" stroke-opacity="1" stroke-miterlimit="4" d="M 296.935553 217.02948 L 292.139393 212.63636 " transform="matrix(0.09692, 0, 0, -0.09692, 0.6546, 23.483716)"/>
<path fill-rule="nonzero" fill="rgb(3.292847%, 48.298645%, 73.153687%)" fill-opacity="1" d="M 35.898438 22.996094 L 35.898438 11.75 L 1.25 11.75 L 1.25 22.996094 L 35.898438 22.996094 "/>
<g clip-path="url(#clip-4)">
<path fill="none" stroke-width="4" stroke-linecap="butt" stroke-linejoin="miter" stroke="rgb(100%, 100%, 100%)" stroke-opacity="1" stroke-miterlimit="4" d="M 363.638439 5.031183 L 363.638439 121.065993 L 6.143211 121.065993 L 6.143211 5.031183 Z M 363.638439 5.031183 " transform="matrix(0.09692, 0, 0, -0.09692, 0.6546, 23.483716)"/>
</g>
<path fill-rule="nonzero" fill="rgb(100%, 100%, 100%)" fill-opacity="1" d="M 10.460938 16.019531 L 10.460938 13.769531 L 10.84375 13.769531 L 10.28125 12.921875 L 9.71875 13.769531 L 10.097656 13.769531 L 10.097656 16.019531 L 10.460938 16.019531 "/>
<path fill-rule="nonzero" fill="rgb(100%, 100%, 100%)" fill-opacity="1" d="M 9.316406 16.34375 L 7.726562 14.753906 L 7.996094 14.484375 L 6.996094 14.28125 L 7.199219 15.28125 L 7.46875 15.007812 L 9.058594 16.601562 L 9.316406 16.34375 "/>
<path fill-rule="nonzero" fill="rgb(100%, 100%, 100%)" fill-opacity="1" d="M 8.734375 17.382812 L 6.484375 17.382812 L 6.484375 17.003906 L 5.636719 17.566406 L 6.484375 18.128906 L 6.484375 17.746094 L 8.734375 17.746094 L 8.734375 17.382812 "/>
<path fill-rule="nonzero" fill="rgb(100%, 100%, 100%)" fill-opacity="1" d="M 9.058594 18.53125 L 7.46875 20.121094 L 7.199219 19.851562 L 6.996094 20.847656 L 7.996094 20.648438 L 7.726562 20.378906 L 9.316406 18.789062 L 9.058594 18.53125 "/>
<path fill-rule="nonzero" fill="rgb(100%, 100%, 100%)" fill-opacity="1" d="M 10.097656 19.113281 L 10.097656 21.359375 L 9.71875 21.359375 L 10.28125 22.210938 L 10.84375 21.359375 L 10.460938 21.359375 L 10.460938 19.113281 L 10.097656 19.113281 "/>
<path fill-rule="nonzero" fill="rgb(100%, 100%, 100%)" fill-opacity="1" d="M 11.503906 16.601562 L 13.09375 15.007812 L 13.359375 15.28125 L 13.5625 14.28125 L 12.566406 14.484375 L 12.835938 14.753906 L 11.246094 16.34375 L 11.503906 16.601562 "/>
<path fill-rule="nonzero" fill="rgb(100%, 100%, 100%)" fill-opacity="1" d="M 11.65625 19.449219 C 12.710938 18.710938 12.964844 17.261719 12.226562 16.207031 C 11.488281 15.152344 10.039062 14.898438 8.984375 15.636719 C 7.933594 16.371094 7.675781 17.824219 8.414062 18.878906 C 9.152344 19.933594 10.601562 20.1875 11.65625 19.449219 "/>
<path fill-rule="nonzero" fill="rgb(100%, 100%, 100%)" fill-opacity="1" d="M 11.453125 18.789062 L 13.042969 20.378906 L 12.773438 20.648438 L 13.769531 20.847656 L 13.570312 19.851562 L 13.300781 20.121094 L 11.710938 18.53125 L 11.453125 18.789062 "/>
<path fill="none" stroke-width="10" stroke-linecap="butt" stroke-linejoin="miter" stroke="rgb(100%, 100%, 100%)" stroke-opacity="1" stroke-miterlimit="4" d="M 113.029045 60.77142 L 265.700062 60.77142 " transform="matrix(0.09692, 0, 0, -0.09692, 0.6546, 23.483716)"/>
<path fill-rule="nonzero" fill="rgb(100%, 100%, 100%)" fill-opacity="1" d="M 27.382812 18.582031 L 27.382812 20.15625 L 27.117188 20.15625 L 27.511719 20.75 L 27.902344 20.15625 L 27.636719 20.15625 L 27.636719 18.582031 L 27.382812 18.582031 "/>
<path fill-rule="nonzero" fill="rgb(100%, 100%, 100%)" fill-opacity="1" d="M 28.1875 18.355469 L 29.300781 19.46875 L 29.109375 19.660156 L 29.808594 19.800781 L 29.667969 19.101562 L 29.480469 19.289062 L 28.367188 18.175781 L 28.1875 18.355469 "/>
<path fill-rule="nonzero" fill="rgb(100%, 100%, 100%)" fill-opacity="1" d="M 28.59375 17.628906 L 30.164062 17.628906 L 30.164062 17.894531 L 30.761719 17.5 L 30.164062 17.105469 L 30.164062 17.375 L 28.59375 17.375 L 28.59375 17.628906 "/>
<path fill-rule="nonzero" fill="rgb(100%, 100%, 100%)" fill-opacity="1" d="M 28.367188 16.824219 L 29.480469 15.710938 L 29.667969 15.902344 L 29.808594 15.203125 L 29.109375 15.34375 L 29.300781 15.53125 L 28.1875 16.644531 L 28.367188 16.824219 "/>
<path fill-rule="nonzero" fill="rgb(100%, 100%, 100%)" fill-opacity="1" d="M 27.636719 16.417969 L 27.636719 14.84375 L 27.902344 14.84375 L 27.511719 14.25 L 27.117188 14.84375 L 27.382812 14.84375 L 27.382812 16.417969 L 27.636719 16.417969 "/>
<path fill-rule="nonzero" fill="rgb(100%, 100%, 100%)" fill-opacity="1" d="M 26.65625 18.175781 L 25.542969 19.289062 L 25.351562 19.101562 L 25.210938 19.800781 L 25.910156 19.660156 L 25.722656 19.46875 L 26.835938 18.355469 L 26.65625 18.175781 "/>
<path fill-rule="nonzero" fill="rgb(100%, 100%, 100%)" fill-opacity="1" d="M 26.546875 16.183594 C 25.808594 16.699219 25.628906 17.714844 26.148438 18.449219 C 26.664062 19.1875 27.679688 19.367188 28.417969 18.851562 C 29.152344 18.335938 29.332031 17.320312 28.816406 16.582031 C 28.300781 15.84375 27.285156 15.667969 26.546875 16.183594 "/>
<path fill-rule="nonzero" fill="rgb(100%, 100%, 100%)" fill-opacity="1" d="M 26.6875 16.644531 L 25.578125 15.53125 L 25.765625 15.34375 L 25.066406 15.203125 L 25.207031 15.902344 L 25.394531 15.710938 L 26.507812 16.824219 L 26.6875 16.644531 "/>
</svg>
