<?xml version="1.0" encoding="UTF-8"?>
<svg xmlns="http://www.w3.org/2000/svg" xmlns:xlink="http://www.w3.org/1999/xlink" width="31.19" height="30.98" viewBox="0 0 31.19 30.98">
<defs>
<clipPath id="clip-0">
<path clip-rule="nonzero" d="M 0 4 L 27 4 L 27 30.578125 L 0 30.578125 Z M 0 4 "/>
</clipPath>
<clipPath id="clip-1">
<path clip-rule="nonzero" d="M 0 3 L 27 3 L 27 30.578125 L 0 30.578125 Z M 0 3 "/>
</clipPath>
<clipPath id="clip-2">
<path clip-rule="nonzero" d="M 26 0.382812 L 30 0.382812 L 30 30.578125 L 26 30.578125 Z M 26 0.382812 "/>
</clipPath>
<clipPath id="clip-3">
<path clip-rule="nonzero" d="M 24 0.382812 L 30.214844 0.382812 L 30.214844 30.578125 L 24 30.578125 Z M 24 0.382812 "/>
</clipPath>
<clipPath id="clip-4">
<path clip-rule="nonzero" d="M 0 0.382812 L 30 0.382812 L 30 4 L 0 4 Z M 0 0.382812 "/>
</clipPath>
<clipPath id="clip-5">
<path clip-rule="nonzero" d="M 0 0.382812 L 30.214844 0.382812 L 30.214844 7 L 0 7 Z M 0 0.382812 "/>
</clipPath>
<clipPath id="clip-6">
<path clip-rule="nonzero" d="M 26 0.382812 L 30 0.382812 L 30 5 L 26 5 Z M 26 0.382812 "/>
</clipPath>
<clipPath id="clip-7">
<path clip-rule="nonzero" d="M 24 0.382812 L 30.214844 0.382812 L 30.214844 7 L 24 7 Z M 24 0.382812 "/>
</clipPath>
<clipPath id="clip-8">
<path clip-rule="nonzero" d="M 26 3 L 27 3 L 27 30.578125 L 26 30.578125 Z M 26 3 "/>
</clipPath>
<clipPath id="clip-9">
<path clip-rule="nonzero" d="M 26 0.382812 L 30 0.382812 L 30 5 L 26 5 Z M 26 0.382812 "/>
</clipPath>
<clipPath id="clip-10">
<path clip-rule="nonzero" d="M 24 0.382812 L 30.214844 0.382812 L 30.214844 7 L 24 7 Z M 24 0.382812 "/>
</clipPath>
</defs>
<g clip-path="url(#clip-0)">
<path fill-rule="nonzero" fill="rgb(3.115845%, 49.784851%, 74.839783%)" fill-opacity="1" d="M 0.605469 30.109375 L 26.636719 30.109375 L 26.636719 4.105469 L 0.605469 4.105469 Z M 0.605469 30.109375 "/>
</g>
<g clip-path="url(#clip-1)">
<path fill="none" stroke-width="4" stroke-linecap="butt" stroke-linejoin="miter" stroke="rgb(100%, 100%, 100%)" stroke-opacity="1" stroke-miterlimit="4" d="M 6.211927 4.809618 L 6.211927 271.60186 L 273.284707 271.60186 L 273.284707 4.809618 Z M 6.211927 4.809618 " transform="matrix(0.0974688, 0, 0, -0.0974688, 0, 30.578162)"/>
</g>
<g clip-path="url(#clip-2)">
<path fill-rule="nonzero" fill="rgb(3.115845%, 49.784851%, 74.839783%)" fill-opacity="1" d="M 29.921875 26.855469 L 29.921875 0.847656 L 26.636719 4.105469 L 26.636719 30.109375 L 29.921875 26.855469 "/>
</g>
<g clip-path="url(#clip-3)">
<path fill="none" stroke-width="4" stroke-linecap="butt" stroke-linejoin="miter" stroke="rgb(100%, 100%, 100%)" stroke-opacity="1" stroke-miterlimit="4" d="M 306.98942 38.193716 L 306.98942 305.026034 L 273.284707 271.60186 L 273.284707 4.809618 Z M 306.98942 38.193716 " transform="matrix(0.0974688, 0, 0, -0.0974688, 0, 30.578162)"/>
</g>
<g clip-path="url(#clip-4)">
<path fill-rule="nonzero" fill="rgb(3.115845%, 49.784851%, 74.839783%)" fill-opacity="1" d="M 5.125 0.660156 L 0.605469 3.917969 L 26.636719 3.917969 L 29.921875 0.660156 L 5.125 0.660156 "/>
</g>
<g clip-path="url(#clip-5)">
<path fill="none" stroke-width="4" stroke-linecap="butt" stroke-linejoin="miter" stroke="rgb(100%, 100%, 100%)" stroke-opacity="1" stroke-miterlimit="4" d="M 52.580955 306.949727 L 6.211927 273.525553 L 273.284707 273.525553 L 306.98942 306.949727 Z M 52.580955 306.949727 " transform="matrix(0.0974688, 0, 0, -0.0974688, 0, 30.578162)"/>
</g>
<path fill="none" stroke-width="4" stroke-linecap="butt" stroke-linejoin="miter" stroke="rgb(100%, 100%, 100%)" stroke-opacity="1" stroke-miterlimit="4" d="M 273.284707 271.60186 L 6.211927 271.60186 " transform="matrix(0.0974688, 0, 0, -0.0974688, 0, 30.578162)"/>
<g clip-path="url(#clip-6)">
<path fill-rule="nonzero" fill="rgb(3.115845%, 49.784851%, 74.839783%)" fill-opacity="1" d="M 26.636719 4.105469 L 29.921875 0.847656 "/>
</g>
<g clip-path="url(#clip-7)">
<path fill="none" stroke-width="4" stroke-linecap="butt" stroke-linejoin="miter" stroke="rgb(100%, 100%, 100%)" stroke-opacity="1" stroke-miterlimit="4" d="M 273.284707 271.60186 L 306.98942 305.026034 " transform="matrix(0.0974688, 0, 0, -0.0974688, 0, 30.578162)"/>
</g>
<g clip-path="url(#clip-8)">
<path fill="none" stroke-width="4" stroke-linecap="butt" stroke-linejoin="miter" stroke="rgb(100%, 100%, 100%)" stroke-opacity="1" stroke-miterlimit="4" d="M 273.284707 271.60186 L 273.284707 4.809618 " transform="matrix(0.0974688, 0, 0, -0.0974688, 0, 30.578162)"/>
</g>
<path fill="none" stroke-width="4" stroke-linecap="butt" stroke-linejoin="miter" stroke="rgb(100%, 100%, 100%)" stroke-opacity="1" stroke-miterlimit="4" d="M 273.284707 271.60186 L 6.211927 271.60186 " transform="matrix(0.0974688, 0, 0, -0.0974688, 0, 30.578162)"/>
<g clip-path="url(#clip-9)">
<path fill-rule="nonzero" fill="rgb(3.115845%, 49.784851%, 74.839783%)" fill-opacity="1" d="M 26.636719 4.105469 L 29.921875 0.847656 "/>
</g>
<g clip-path="url(#clip-10)">
<path fill="none" stroke-width="4" stroke-linecap="butt" stroke-linejoin="miter" stroke="rgb(100%, 100%, 100%)" stroke-opacity="1" stroke-miterlimit="4" d="M 273.284707 271.60186 L 306.98942 305.026034 " transform="matrix(0.0974688, 0, 0, -0.0974688, 0, 30.578162)"/>
</g>
<path fill-rule="nonzero" fill="rgb(100%, 100%, 100%)" fill-opacity="1" d="M 14.183594 13.324219 L 14.183594 7.699219 L 15.136719 7.699219 L 13.730469 5.574219 L 12.320312 7.699219 L 13.273438 7.699219 L 13.273438 13.324219 L 14.183594 13.324219 "/>
<path fill-rule="nonzero" fill="rgb(100%, 100%, 100%)" fill-opacity="1" d="M 11.3125 14.136719 L 7.332031 10.160156 L 8.007812 9.484375 L 5.511719 8.976562 L 6.015625 11.476562 L 6.691406 10.800781 L 10.671875 14.78125 L 11.3125 14.136719 "/>
<path fill-rule="nonzero" fill="rgb(100%, 100%, 100%)" fill-opacity="1" d="M 9.855469 16.742188 L 4.230469 16.742188 L 4.230469 15.789062 L 2.105469 17.195312 L 4.230469 18.605469 L 4.230469 17.652344 L 9.855469 17.652344 L 9.855469 16.742188 "/>
<path fill-rule="nonzero" fill="rgb(100%, 100%, 100%)" fill-opacity="1" d="M 10.671875 19.613281 L 6.691406 23.59375 L 6.015625 22.917969 L 5.511719 25.414062 L 8.007812 24.910156 L 7.332031 24.234375 L 11.3125 20.253906 L 10.671875 19.613281 "/>
<path fill-rule="nonzero" fill="rgb(100%, 100%, 100%)" fill-opacity="1" d="M 13.273438 21.070312 L 13.273438 26.695312 L 12.320312 26.695312 L 13.730469 28.820312 L 15.136719 26.695312 L 14.183594 26.695312 L 14.183594 21.070312 L 13.273438 21.070312 "/>
<path fill-rule="nonzero" fill="rgb(100%, 100%, 100%)" fill-opacity="1" d="M 16.144531 20.253906 L 20.125 24.234375 L 19.449219 24.910156 L 21.949219 25.414062 L 21.441406 22.917969 L 20.765625 23.59375 L 16.789062 19.613281 L 16.144531 20.253906 "/>
<path fill-rule="nonzero" fill="rgb(100%, 100%, 100%)" fill-opacity="1" d="M 17.601562 17.652344 L 23.230469 17.652344 L 23.230469 18.605469 L 25.351562 17.195312 L 23.230469 15.789062 L 23.230469 16.742188 L 17.601562 16.742188 L 17.601562 17.652344 "/>
<path fill-rule="nonzero" fill="rgb(100%, 100%, 100%)" fill-opacity="1" d="M 16.789062 14.78125 L 20.765625 10.800781 L 21.441406 11.476562 L 21.949219 8.976562 L 19.449219 9.484375 L 20.125 10.160156 L 16.144531 14.136719 L 16.789062 14.78125 "/>
<path fill-rule="nonzero" fill="rgb(100%, 100%, 100%)" fill-opacity="1" d="M 17.183594 21.960938 C 19.839844 20.101562 20.484375 16.441406 18.625 13.785156 C 16.765625 11.132812 13.105469 10.484375 10.449219 12.347656 C 7.796875 14.203125 7.148438 17.863281 9.007812 20.519531 C 10.867188 23.171875 14.527344 23.820312 17.183594 21.960938 "/>
<path fill="none" stroke-width="4" stroke-linecap="butt" stroke-linejoin="miter" stroke="rgb(3.115845%, 49.784851%, 74.839783%)" stroke-opacity="1" stroke-miterlimit="4" d="M 176.298493 88.410131 C 203.550818 107.486759 210.163514 145.038859 191.086887 172.291183 C 172.01026 199.503431 134.45816 206.156204 107.205835 187.0395 C 79.993588 168.00295 73.340814 130.45085 92.417441 103.198525 C 111.494069 75.986278 149.046169 69.333504 176.298493 88.410131 Z M 176.298493 88.410131 " transform="matrix(0.0974688, 0, 0, -0.0974688, 0, 30.578162)"/>
</svg>
