<?xml version="1.0" encoding="UTF-8"?>
<svg xmlns="http://www.w3.org/2000/svg" xmlns:xlink="http://www.w3.org/1999/xlink" width="48.8" height="27.5" viewBox="0 0 48.8 27.5">
<defs>
<g>
<g id="glyph-0-0">
<path d="M 7.5 -4.765625 L 6.234375 -4.765625 L 0.6875 0 L 4.9375 0 L 5.875 -0.8125 L 2.890625 -0.8125 Z M 7.5 -4.765625 "/>
</g>
<g id="glyph-0-1">
<path d="M 6.21875 0 L 13.484375 -4.765625 L 12.125 -4.765625 L 7.03125 -1.1875 L 10.203125 -4.765625 L 8.9375 -4.765625 L 3.828125 -1.203125 L 7.015625 -4.765625 L 5.65625 -4.765625 L 1.859375 0 L 3.015625 0 L 8.359375 -3.71875 L 5.0625 0 Z M 6.21875 0 "/>
</g>
<g id="glyph-0-2">
<path d="M 5.390625 -0.96875 L 4.671875 0 L 5.984375 0 L 9.390625 -4.765625 L 7.96875 -4.765625 L 0.21875 0 L 1.53125 0 L 3.0625 -0.96875 Z M 6 -1.78125 L 4.375 -1.78125 L 7.34375 -3.640625 Z M 6 -1.78125 "/>
</g>
<g id="glyph-0-3">
<path d="M 3.90625 -1.703125 L 5.5 -1.703125 C 6.640625 -1.703125 8.09375 -2.328125 9.21875 -3.296875 C 10.328125 -4.25 10.234375 -4.765625 8.9375 -4.765625 L 6.1875 -4.765625 L 0.640625 0 L 1.921875 0 Z M 4.84375 -2.515625 L 6.515625 -3.953125 L 7.703125 -3.953125 C 8.390625 -3.953125 8.4375 -3.71875 7.875 -3.234375 C 7.3125 -2.75 6.71875 -2.515625 6.03125 -2.515625 Z M 4.84375 -2.515625 "/>
</g>
</g>
<clipPath id="clip-0">
<path clip-rule="nonzero" d="M 0.335938 0 L 48 0 L 48 12 L 0.335938 12 Z M 0.335938 0 "/>
</clipPath>
<clipPath id="clip-1">
<path clip-rule="nonzero" d="M 0.335938 0 L 48.265625 0 L 48.265625 15 L 0.335938 15 Z M 0.335938 0 "/>
</clipPath>
<clipPath id="clip-2">
<path clip-rule="nonzero" d="M 33 0 L 48.265625 0 L 48.265625 27.007812 L 33 27.007812 Z M 33 0 "/>
</clipPath>
<clipPath id="clip-3">
<path clip-rule="nonzero" d="M 0.335938 11 L 37 11 L 37 27 L 0.335938 27 Z M 0.335938 11 "/>
</clipPath>
</defs>
<g clip-path="url(#clip-0)">
<path fill-rule="nonzero" fill="rgb(3.292847%, 48.298645%, 73.153687%)" fill-opacity="1" d="M 0.894531 11.902344 L 15.0625 0.445312 L 47.78125 0.445312 L 36.050781 11.902344 L 0.894531 11.902344 "/>
</g>
<g clip-path="url(#clip-1)">
<path fill="none" stroke-width="4" stroke-linecap="butt" stroke-linejoin="miter" stroke="rgb(100%, 100%, 100%)" stroke-opacity="1" stroke-miterlimit="4" d="M 5.671591 153.8125 L 149.927273 270.465909 L 483.063636 270.465909 L 363.626136 153.8125 Z M 5.671591 153.8125 " transform="matrix(0.0982143, 0, 0, -0.0982143, 0.3375, 27.008929)"/>
</g>
<path fill-rule="nonzero" fill="rgb(3.292847%, 48.298645%, 73.153687%)" fill-opacity="1" d="M 36.050781 26.527344 L 47.78125 14.578125 L 47.78125 0.464844 L 36.050781 11.902344 L 36.050781 26.527344 "/>
<g clip-path="url(#clip-2)">
<path fill="none" stroke-width="4" stroke-linecap="butt" stroke-linejoin="miter" stroke="rgb(100%, 100%, 100%)" stroke-opacity="1" stroke-miterlimit="4" d="M 363.626136 4.903409 L 483.063636 126.568182 L 483.063636 270.267045 L 363.626136 153.8125 Z M 363.626136 4.903409 " transform="matrix(0.0982143, 0, 0, -0.0982143, 0.3375, 27.008929)"/>
</g>
<g clip-path="url(#clip-3)">
<path fill-rule="nonzero" fill="rgb(3.292847%, 48.298645%, 73.153687%)" fill-opacity="1" d="M 36.050781 26.539062 L 36.050781 11.902344 L 0.941406 11.902344 L 0.941406 26.539062 L 36.050781 26.539062 "/>
<path fill="none" stroke-width="4" stroke-linecap="butt" stroke-linejoin="miter" stroke="rgb(100%, 100%, 100%)" stroke-opacity="1" stroke-miterlimit="4" d="M 363.626136 4.784091 L 363.626136 153.8125 L 6.148864 153.8125 L 6.148864 4.784091 Z M 363.626136 4.784091 " transform="matrix(0.0982143, 0, 0, -0.0982143, 0.3375, 27.008929)"/>
</g>
<path fill="none" stroke-width="4.5" stroke-linecap="round" stroke-linejoin="miter" stroke="rgb(100%, 100%, 100%)" stroke-opacity="1" stroke-miterlimit="1" d="M 343.461364 75.102273 C 343.461364 75.102273 319.677273 13.931818 291.080682 75.301136 C 262.523864 136.590909 238.660227 75.420455 238.660227 75.420455 C 238.660227 75.420455 214.915909 14.210227 186.359091 75.539773 C 157.7625 136.829545 134.097727 75.142045 134.097727 75.142045 C 134.097727 75.142045 110.353409 13.931818 81.756818 75.301136 C 53.2 136.590909 29.495455 75.460227 29.495455 75.460227 " transform="matrix(0.0982143, 0, 0, -0.0982143, 0.3375, 27.008929)"/>
<path fill="none" stroke-width="9" stroke-linecap="round" stroke-linejoin="miter" stroke="rgb(100%, 100%, 100%)" stroke-opacity="1" stroke-miterlimit="1" d="M 29.495455 75.102273 C 29.495455 75.102273 53.279545 13.931818 81.876136 75.301136 C 110.432955 136.590909 134.296591 75.420455 134.296591 75.420455 C 134.296591 75.420455 158.040909 14.210227 186.597727 75.539773 C 215.194318 136.829545 238.859091 75.142045 238.859091 75.142045 C 238.859091 75.142045 262.603409 13.931818 291.2 75.301136 C 319.756818 136.590909 343.461364 75.460227 343.461364 75.460227 " transform="matrix(0.0982143, 0, 0, -0.0982143, 0.3375, 27.008929)"/>
<path fill="none" stroke-width="4.5" stroke-linecap="round" stroke-linejoin="miter" stroke="rgb(13.729858%, 12.159729%, 12.548828%)" stroke-opacity="1" stroke-miterlimit="1" d="M 348.989773 75.102273 C 348.989773 75.102273 325.205682 13.931818 296.609091 75.301136 C 268.0125 136.590909 244.188636 75.420455 244.188636 75.420455 C 244.188636 75.420455 220.444318 14.210227 191.847727 75.5 C 163.290909 136.829545 139.586364 75.142045 139.586364 75.142045 C 139.586364 75.142045 115.881818 13.931818 87.285227 75.301136 C 58.688636 136.590909 34.984091 75.420455 34.984091 75.420455 " transform="matrix(0.0982143, 0, 0, -0.0982143, 0.3375, 27.008929)"/>
<path fill="none" stroke-width="9" stroke-linecap="round" stroke-linejoin="miter" stroke="rgb(13.729858%, 12.159729%, 12.548828%)" stroke-opacity="1" stroke-miterlimit="1" d="M 34.984091 75.102273 C 34.984091 75.102273 58.768182 13.931818 87.364773 75.301136 C 115.961364 136.590909 139.785227 75.420455 139.785227 75.420455 C 139.785227 75.420455 163.569318 14.210227 192.126136 75.5 C 220.682955 136.829545 244.3875 75.142045 244.3875 75.142045 C 244.3875 75.142045 268.092045 13.931818 296.688636 75.301136 C 325.285227 136.590909 348.989773 75.420455 348.989773 75.420455 " transform="matrix(0.0982143, 0, 0, -0.0982143, 0.3375, 27.008929)"/>
<path fill="none" stroke-width="4.5" stroke-linecap="round" stroke-linejoin="miter" stroke="rgb(100%, 100%, 100%)" stroke-opacity="1" stroke-miterlimit="1" d="M 343.461364 75.102273 C 343.461364 75.102273 319.677273 13.931818 291.080682 75.301136 C 262.523864 136.590909 238.660227 75.420455 238.660227 75.420455 C 238.660227 75.420455 214.915909 14.210227 186.359091 75.539773 C 157.7625 136.829545 134.097727 75.142045 134.097727 75.142045 C 134.097727 75.142045 110.353409 13.931818 81.756818 75.301136 C 53.2 136.590909 29.495455 75.460227 29.495455 75.460227 " transform="matrix(0.0982143, 0, 0, -0.0982143, 0.3375, 27.008929)"/>
<path fill="none" stroke-width="9" stroke-linecap="round" stroke-linejoin="miter" stroke="rgb(100%, 100%, 100%)" stroke-opacity="1" stroke-miterlimit="1" d="M 29.495455 75.102273 C 29.495455 75.102273 53.279545 13.931818 81.876136 75.301136 C 110.432955 136.590909 134.296591 75.420455 134.296591 75.420455 C 134.296591 75.420455 158.040909 14.210227 186.597727 75.539773 C 215.194318 136.829545 238.859091 75.142045 238.859091 75.142045 C 238.859091 75.142045 262.603409 13.931818 291.2 75.301136 C 319.756818 136.590909 343.461364 75.460227 343.461364 75.460227 " transform="matrix(0.0982143, 0, 0, -0.0982143, 0.3375, 27.008929)"/>
<path fill="none" stroke-width="4.5" stroke-linecap="round" stroke-linejoin="miter" stroke="rgb(13.729858%, 12.159729%, 12.548828%)" stroke-opacity="1" stroke-miterlimit="1" d="M 348.989773 75.102273 C 348.989773 75.102273 325.205682 13.931818 296.609091 75.301136 C 268.0125 136.590909 244.188636 75.420455 244.188636 75.420455 C 244.188636 75.420455 220.444318 14.210227 191.847727 75.5 C 163.290909 136.829545 139.586364 75.142045 139.586364 75.142045 C 139.586364 75.142045 115.881818 13.931818 87.285227 75.301136 C 58.688636 136.590909 34.984091 75.420455 34.984091 75.420455 " transform="matrix(0.0982143, 0, 0, -0.0982143, 0.3375, 27.008929)"/>
<path fill="none" stroke-width="9" stroke-linecap="round" stroke-linejoin="miter" stroke="rgb(13.729858%, 12.159729%, 12.548828%)" stroke-opacity="1" stroke-miterlimit="1" d="M 34.984091 75.102273 C 34.984091 75.102273 58.768182 13.931818 87.364773 75.301136 C 115.961364 136.590909 139.785227 75.420455 139.785227 75.420455 C 139.785227 75.420455 163.569318 14.210227 192.126136 75.5 C 220.682955 136.829545 244.3875 75.142045 244.3875 75.142045 C 244.3875 75.142045 268.092045 13.931818 296.688636 75.301136 C 325.285227 136.590909 348.989773 75.420455 348.989773 75.420455 " transform="matrix(0.0982143, 0, 0, -0.0982143, 0.3375, 27.008929)"/>
<path fill="none" stroke-width="4.5" stroke-linecap="round" stroke-linejoin="miter" stroke="rgb(100%, 100%, 100%)" stroke-opacity="1" stroke-miterlimit="1" d="M 343.461364 75.102273 C 343.461364 75.102273 319.677273 13.931818 291.080682 75.301136 C 262.523864 136.590909 238.660227 75.420455 238.660227 75.420455 C 238.660227 75.420455 214.915909 14.210227 186.359091 75.539773 C 157.7625 136.829545 134.097727 75.142045 134.097727 75.142045 C 134.097727 75.142045 110.353409 13.931818 81.756818 75.301136 C 53.2 136.590909 29.495455 75.460227 29.495455 75.460227 " transform="matrix(0.0982143, 0, 0, -0.0982143, 0.3375, 27.008929)"/>
<path fill="none" stroke-width="9" stroke-linecap="round" stroke-linejoin="miter" stroke="rgb(100%, 100%, 100%)" stroke-opacity="1" stroke-miterlimit="1" d="M 29.495455 75.102273 C 29.495455 75.102273 53.279545 13.931818 81.876136 75.301136 C 110.432955 136.590909 134.296591 75.420455 134.296591 75.420455 C 134.296591 75.420455 158.040909 14.210227 186.597727 75.539773 C 215.194318 136.829545 238.859091 75.142045 238.859091 75.142045 C 238.859091 75.142045 262.603409 13.931818 291.2 75.301136 C 319.756818 136.590909 343.461364 75.460227 343.461364 75.460227 " transform="matrix(0.0982143, 0, 0, -0.0982143, 0.3375, 27.008929)"/>
<g fill="rgb(100%, 100%, 100%)" fill-opacity="1">
<use xlink:href="#glyph-0-0" x="6.658129" y="8.567232"/>
</g>
<g fill="rgb(100%, 100%, 100%)" fill-opacity="1">
<use xlink:href="#glyph-0-1" x="11.175987" y="8.567232"/>
</g>
<g fill="rgb(100%, 100%, 100%)" fill-opacity="1">
<use xlink:href="#glyph-0-2" x="18.697423" y="8.567232"/>
<use xlink:href="#glyph-0-3" x="24.840347" y="8.567232"/>
<use xlink:href="#glyph-0-3" x="30.515321" y="8.567232"/>
</g>
</svg>
