<?xml version="1.0" encoding="UTF-8"?>
<svg xmlns="http://www.w3.org/2000/svg" xmlns:xlink="http://www.w3.org/1999/xlink" width="25.97" height="29.5" viewBox="0 0 25.97 29.5">
<defs>
<clipPath id="clip-0">
<path clip-rule="nonzero" d="M 0.203125 14 L 22 14 L 22 28.613281 L 0.203125 28.613281 Z M 0.203125 14 "/>
</clipPath>
<clipPath id="clip-1">
<path clip-rule="nonzero" d="M 0.203125 12 L 24 12 L 24 28.613281 L 0.203125 28.613281 Z M 0.203125 12 "/>
</clipPath>
<clipPath id="clip-2">
<path clip-rule="nonzero" d="M 0.203125 10 L 25.738281 10 L 25.738281 15 L 0.203125 15 Z M 0.203125 10 "/>
</clipPath>
<clipPath id="clip-3">
<path clip-rule="nonzero" d="M 0.203125 8 L 25.738281 8 L 25.738281 17 L 0.203125 17 Z M 0.203125 8 "/>
</clipPath>
<clipPath id="clip-4">
<path clip-rule="nonzero" d="M 21 10 L 25.738281 10 L 25.738281 28.613281 L 21 28.613281 Z M 21 10 "/>
</clipPath>
<clipPath id="clip-5">
<path clip-rule="nonzero" d="M 19 8 L 25.738281 8 L 25.738281 28.613281 L 19 28.613281 Z M 19 8 "/>
</clipPath>
</defs>
<g clip-path="url(#clip-0)">
<path fill-rule="nonzero" fill="rgb(0.784302%, 43.920898%, 62.350464%)" fill-opacity="1" d="M 20.34375 28.5625 C 20.886719 28.5625 21.328125 28.121094 21.328125 27.578125 L 21.328125 15.53125 C 21.328125 14.988281 20.886719 14.546875 20.34375 14.546875 L 1.660156 14.546875 C 1.117188 14.546875 0.675781 14.988281 0.675781 15.53125 L 0.675781 27.578125 C 0.675781 28.121094 1.117188 28.5625 1.660156 28.5625 L 20.34375 28.5625 "/>
</g>
<g clip-path="url(#clip-1)">
<path fill="none" stroke-width="3.99994" stroke-linecap="butt" stroke-linejoin="miter" stroke="rgb(100%, 100%, 100%)" stroke-opacity="1" stroke-miterlimit="4" d="M 204.834746 4.533898 C 210.356462 4.533898 214.845339 9.022775 214.845339 14.544492 L 214.845339 137.055085 C 214.845339 142.576801 210.356462 147.065678 204.834746 147.065678 L 14.832097 147.065678 C 9.310381 147.065678 4.821504 142.576801 4.821504 137.055085 L 4.821504 14.544492 C 4.821504 9.022775 9.310381 4.533898 14.832097 4.533898 Z M 204.834746 4.533898 " transform="matrix(0.0983333, 0, 0, -0.0983333, 0.201667, 29.008333)"/>
</g>
<g clip-path="url(#clip-2)">
<path fill-rule="nonzero" fill="rgb(0.784302%, 43.920898%, 62.350464%)" fill-opacity="1" d="M 21.328125 14.519531 L 25.261719 10.589844 L 4.609375 10.589844 L 0.675781 14.519531 L 21.328125 14.519531 "/>
</g>
<g clip-path="url(#clip-3)">
<path fill="none" stroke-width="3.99994" stroke-linecap="butt" stroke-linejoin="miter" stroke="rgb(100%, 100%, 100%)" stroke-opacity="1" stroke-miterlimit="4" d="M 214.845339 147.34375 L 254.847987 187.306674 L 44.824153 187.306674 L 4.821504 147.34375 Z M 214.845339 147.34375 " transform="matrix(0.0983333, 0, 0, -0.0983333, 0.201667, 29.008333)"/>
</g>
<g clip-path="url(#clip-4)">
<path fill-rule="nonzero" fill="rgb(0.784302%, 43.920898%, 62.350464%)" fill-opacity="1" d="M 25.261719 24.601562 L 25.261719 10.589844 L 21.328125 14.519531 L 21.328125 28.535156 L 25.261719 24.601562 "/>
</g>
<g clip-path="url(#clip-5)">
<path fill="none" stroke-width="3.99994" stroke-linecap="butt" stroke-linejoin="miter" stroke="rgb(100%, 100%, 100%)" stroke-opacity="1" stroke-miterlimit="4" d="M 254.847987 44.814619 L 254.847987 187.306674 L 214.845339 147.34375 L 214.845339 4.81197 Z M 254.847987 44.814619 " transform="matrix(0.0983333, 0, 0, -0.0983333, 0.201667, 29.008333)"/>
</g>
<path fill-rule="nonzero" fill="rgb(0.784302%, 43.920898%, 62.350464%)" fill-opacity="1" d="M 13.097656 1.929688 C 10.125 1.929688 7.71875 4.339844 7.71875 7.3125 L 7.722656 12.09375 C 7.765625 12.476562 7.382812 12.871094 6.8125 12.929688 C 6.242188 12.992188 5.625 12.707031 5.585938 12.328125 L 5.582031 7.578125 C 5.582031 3.5 8.890625 0.195312 12.964844 0.195312 C 17.042969 0.195312 20.351562 3.5 20.351562 7.578125 L 20.351562 12.757812 C 20.308594 13.136719 19.898438 13.394531 19.324219 13.375 C 18.800781 13.355469 18.324219 12.675781 18.363281 12.292969 L 18.382812 7.3125 C 18.382812 4.339844 16.070312 1.929688 13.097656 1.929688 "/>
<path fill="none" stroke-width="3.99994" stroke-linecap="butt" stroke-linejoin="miter" stroke="rgb(100%, 100%, 100%)" stroke-opacity="1" stroke-miterlimit="4" d="M 131.145657 275.376059 C 100.915254 275.376059 76.444915 250.865996 76.444915 220.635593 L 76.48464 172.012712 C 76.92161 168.119703 73.028602 164.107521 67.228814 163.511653 C 61.429025 162.876059 55.152542 165.775953 54.755297 169.629237 L 54.715572 217.934322 C 54.715572 259.40678 88.362288 293.013771 129.795021 293.013771 C 171.267479 293.013771 204.914195 259.40678 204.914195 217.934322 L 204.914195 165.259534 C 204.477225 161.40625 200.306144 158.784428 194.466631 158.983051 C 189.143538 159.181674 184.29714 166.09375 184.694386 169.986758 L 184.893008 220.635593 C 184.893008 250.865996 161.376059 275.376059 131.145657 275.376059 Z M 131.145657 275.376059 " transform="matrix(0.0983333, 0, 0, -0.0983333, 0.201667, 29.008333)"/>
<path fill-rule="nonzero" fill="rgb(100%, 100%, 100%)" fill-opacity="1" d="M 10.976562 22.78125 C 11.910156 22.78125 12.667969 21.804688 12.667969 20.601562 C 12.667969 19.394531 11.910156 18.417969 10.976562 18.417969 C 10.042969 18.417969 9.289062 19.394531 9.289062 20.601562 C 9.289062 21.804688 10.042969 22.78125 10.976562 22.78125 "/>
<path fill-rule="nonzero" fill="rgb(100%, 100%, 100%)" fill-opacity="1" d="M 11.480469 25.023438 L 11.480469 20.734375 L 10.421875 21.507812 L 10.421875 25.796875 L 11.480469 25.023438 "/>
</svg>
