<?xml version="1.0" encoding="UTF-8"?>
<svg xmlns="http://www.w3.org/2000/svg" xmlns:xlink="http://www.w3.org/1999/xlink" width="32.43" height="50.58" viewBox="0 0 32.43 50.58">
<defs>
<clipPath id="clip-0">
<path clip-rule="nonzero" d="M 21 13 L 31.449219 13 L 31.449219 21 L 21 21 Z M 21 13 "/>
</clipPath>
<clipPath id="clip-1">
<path clip-rule="nonzero" d="M 2 19 L 31.449219 19 L 31.449219 25 L 2 25 Z M 2 19 "/>
</clipPath>
<clipPath id="clip-2">
<path clip-rule="nonzero" d="M 0 16 L 31.449219 16 L 31.449219 27 L 0 27 Z M 0 16 "/>
</clipPath>
<clipPath id="clip-3">
<path clip-rule="nonzero" d="M 25 20 L 31.449219 20 L 31.449219 44 L 25 44 Z M 25 20 "/>
</clipPath>
<clipPath id="clip-4">
<path clip-rule="nonzero" d="M 1 19 L 31.449219 19 L 31.449219 28 L 1 28 Z M 1 19 "/>
</clipPath>
<clipPath id="clip-5">
<path clip-rule="nonzero" d="M 30 20 L 31.449219 20 L 31.449219 25 L 30 25 Z M 30 20 "/>
</clipPath>
<clipPath id="clip-6">
<path clip-rule="nonzero" d="M 27 18 L 31.449219 18 L 31.449219 28 L 27 28 Z M 27 18 "/>
</clipPath>
<clipPath id="clip-7">
<path clip-rule="nonzero" d="M 2 19 L 31.449219 19 L 31.449219 21 L 2 21 Z M 2 19 "/>
</clipPath>
<clipPath id="clip-8">
<path clip-rule="nonzero" d="M 0 16 L 31.449219 16 L 31.449219 24 L 0 24 Z M 0 16 "/>
</clipPath>
<clipPath id="clip-9">
<path clip-rule="nonzero" d="M 6 0.230469 L 17 0.230469 L 17 11 L 6 11 Z M 6 0.230469 "/>
</clipPath>
<clipPath id="clip-10">
<path clip-rule="nonzero" d="M 4 0.230469 L 19 0.230469 L 19 13 L 4 13 Z M 4 0.230469 "/>
</clipPath>
<clipPath id="clip-11">
<path clip-rule="nonzero" d="M 4 36 L 16 36 L 16 49.9375 L 4 49.9375 Z M 4 36 "/>
</clipPath>
<clipPath id="clip-12">
<path clip-rule="nonzero" d="M 3 35 L 18 35 L 18 49.9375 L 3 49.9375 Z M 3 35 "/>
</clipPath>
</defs>
<path fill-rule="nonzero" fill="rgb(0.784302%, 43.920898%, 62.350464%)" fill-opacity="1" d="M 28.265625 17.941406 C 29.703125 17.25 28.234375 14.316406 23.855469 16.703125 "/>
<g clip-path="url(#clip-0)">
<path fill="none" stroke-width="3.99994" stroke-linecap="butt" stroke-linejoin="miter" stroke="rgb(100%, 100%, 100%)" stroke-opacity="1" stroke-miterlimit="4" d="M 287.624306 325.57755 C 302.251966 332.613136 287.306314 362.464691 242.747601 338.178006 " transform="matrix(0.0982727, 0, 0, -0.0982727, 0, 49.9368)"/>
</g>
<path fill-rule="nonzero" fill="rgb(0.784302%, 43.920898%, 62.350464%)" fill-opacity="1" d="M 11.527344 17.453125 L 24.734375 17.453125 L 24.734375 7.492188 L 11.527344 7.492188 Z M 11.527344 17.453125 "/>
<path fill="none" stroke-width="3.99994" stroke-linecap="butt" stroke-linejoin="miter" stroke="rgb(100%, 100%, 100%)" stroke-opacity="1" stroke-miterlimit="4" d="M 251.691142 330.546184 L 251.691142 431.906325 L 117.29952 431.906325 L 117.29952 330.546184 " transform="matrix(0.0982727, 0, 0, -0.0982727, 0, 49.9368)"/>
<path fill-rule="nonzero" fill="rgb(0.784302%, 43.920898%, 62.350464%)" fill-opacity="1" d="M 24.734375 7.492188 L 24.734375 17.488281 L 26.265625 14.765625 L 26.265625 6.035156 L 24.734375 7.492188 "/>
<path fill="none" stroke-width="3.99994" stroke-linecap="butt" stroke-linejoin="miter" stroke="rgb(100%, 100%, 100%)" stroke-opacity="1" stroke-miterlimit="4" d="M 251.691142 431.906325 L 251.691142 330.188442 L 267.27278 357.893548 L 267.27278 446.73273 Z M 251.691142 431.906325 " transform="matrix(0.0982727, 0, 0, -0.0982727, 0, 49.9368)"/>
<path fill-rule="nonzero" fill="rgb(0.784302%, 43.920898%, 62.350464%)" fill-opacity="1" d="M 26.265625 6.035156 L 16.597656 6.035156 L 11.527344 7.492188 L 24.734375 7.492188 L 26.265625 6.035156 "/>
<path fill="none" stroke-width="3.99994" stroke-linecap="butt" stroke-linejoin="miter" stroke="rgb(100%, 100%, 100%)" stroke-opacity="1" stroke-miterlimit="4" d="M 267.27278 446.73273 L 168.893819 446.73273 L 117.29952 431.906325 L 251.691142 431.906325 Z M 267.27278 446.73273 " transform="matrix(0.0982727, 0, 0, -0.0982727, 0, 49.9368)"/>
<path fill-rule="nonzero" fill="rgb(0.784302%, 43.920898%, 62.350464%)" fill-opacity="1" d="M 12.679688 16.300781 L 23.582031 16.300781 L 23.582031 8.648438 L 12.679688 8.648438 Z M 12.679688 16.300781 "/>
<path fill="none" stroke-width="3.99994" stroke-linecap="butt" stroke-linejoin="miter" stroke="rgb(100%, 100%, 100%)" stroke-opacity="1" stroke-miterlimit="4" d="M 239.965165 342.272161 L 239.965165 420.140599 L 129.025497 420.140599 L 129.025497 342.272161 Z M 239.965165 342.272161 " transform="matrix(0.0982727, 0, 0, -0.0982727, 0, 49.9368)"/>
<path fill-rule="nonzero" fill="rgb(0.784302%, 43.920898%, 62.350464%)" fill-opacity="1" stroke-width="3.99994" stroke-linecap="butt" stroke-linejoin="miter" stroke="rgb(100%, 100%, 100%)" stroke-opacity="1" stroke-miterlimit="4" d="M 230.385638 318.343218 L 235.91076 305.504267 L 251.333401 322.397624 L 249.504943 328.638228 " transform="matrix(0.0982727, 0, 0, -0.0982727, 0, 49.9368)"/>
<path fill-rule="nonzero" fill="rgb(0.784302%, 43.920898%, 62.350464%)" fill-opacity="1" d="M 22.640625 18.652344 L 24.738281 17.496094 L 11.519531 17.496094 L 14.445312 18.652344 L 22.640625 18.652344 "/>
<path fill="none" stroke-width="3.99994" stroke-linecap="butt" stroke-linejoin="miter" stroke="rgb(100%, 100%, 100%)" stroke-opacity="1" stroke-miterlimit="4" d="M 230.385638 318.343218 L 251.730892 330.108944 L 117.220022 330.108944 L 146.992079 318.343218 Z M 230.385638 318.343218 " transform="matrix(0.0982727, 0, 0, -0.0982727, 0, 49.9368)"/>
<path fill-rule="nonzero" fill="rgb(0.784302%, 43.920898%, 62.350464%)" fill-opacity="1" d="M 23.21875 19.949219 L 22.640625 18.652344 L 14.445312 18.652344 L 13.6875 19.949219 L 23.21875 19.949219 "/>
<path fill="none" stroke-width="3.99994" stroke-linecap="butt" stroke-linejoin="miter" stroke="rgb(100%, 100%, 100%)" stroke-opacity="1" stroke-miterlimit="4" d="M 236.268501 305.146525 L 230.385638 318.343218 L 146.992079 318.343218 L 139.280759 305.146525 Z M 236.268501 305.146525 " transform="matrix(0.0982727, 0, 0, -0.0982727, 0, 49.9368)"/>
<path fill-rule="nonzero" fill="rgb(0.784302%, 43.920898%, 62.350464%)" fill-opacity="1" stroke-width="3.99994" stroke-linecap="butt" stroke-linejoin="miter" stroke="rgb(100%, 100%, 100%)" stroke-opacity="1" stroke-miterlimit="4" d="M 60.378845 265.635945 L 59.186373 265.635945 L 59.544114 111.489032 C 59.186373 111.250538 47.062905 111.966021 46.82441 111.250538 C 46.744912 97.775601 46.983407 93.999439 47.301399 81.995219 C 46.585916 81.955469 32.832736 81.955469 32.832736 81.796473 C 32.951983 126.752677 32.315998 220.679741 31.839009 271.161066 " transform="matrix(0.0982727, 0, 0, -0.0982727, 0, 49.9368)"/>
<g clip-path="url(#clip-1)">
<path fill-rule="nonzero" fill="rgb(0.784302%, 43.920898%, 62.350464%)" fill-opacity="1" d="M 30.675781 22.734375 C 30.695312 20.816406 31.464844 20.675781 31.558594 20.394531 C 31.558594 20.09375 31.605469 19.65625 31.5625 19.398438 C 30.824219 19.375 30.695312 19.421875 29.695312 19.398438 L 8.515625 19.207031 C 8.515625 19.285156 5.132812 20.15625 5.074219 20.1875 C 4.042969 20.125 3.664062 20.519531 2.675781 20.566406 C 2.554688 20.839844 2.691406 20.730469 2.722656 21.066406 C 2.917969 21.230469 3.207031 21.308594 3.402344 21.535156 C 3.523438 22.234375 3.527344 22.519531 3.523438 23.113281 C 3.523438 23.492188 3.519531 23.871094 3.519531 24.25 "/>
</g>
<g clip-path="url(#clip-2)">
<path fill="none" stroke-width="3.99994" stroke-linecap="butt" stroke-linejoin="miter" stroke="rgb(100%, 100%, 100%)" stroke-opacity="1" stroke-miterlimit="4" d="M 312.149485 276.805435 C 312.348231 296.322231 320.178799 297.753197 321.132776 300.615131 C 321.132776 303.675809 321.609765 308.127706 321.172525 310.751145 C 313.65995 310.989639 312.348231 310.51265 302.172468 310.751145 L 86.652983 312.698849 C 86.652983 311.903868 52.230284 303.039824 51.634048 302.721832 C 41.140293 303.357817 37.284632 299.34316 27.228116 298.866171 C 25.995895 296.083736 27.387113 297.19671 27.705105 293.77829 C 29.692559 292.108829 32.633991 291.313847 34.621444 289.008401 C 35.853666 281.893316 35.893415 278.991634 35.853666 272.949775 C 35.853666 269.094114 35.813917 265.238454 35.813917 261.382794 " transform="matrix(0.0982727, 0, 0, -0.0982727, 0, 49.9368)"/>
</g>
<path fill-rule="nonzero" fill="rgb(0.784302%, 43.920898%, 62.350464%)" fill-opacity="1" d="M 30.589844 23.429688 L 30.472656 23.429688 L 30.511719 38.574219 C 30.472656 38.597656 29.285156 38.527344 29.261719 38.597656 C 29.253906 39.921875 29.273438 40.296875 29.304688 41.46875 C 29.238281 41.476562 27.886719 41.476562 27.886719 41.492188 C 27.898438 37.074219 27.835938 27.84375 27.785156 22.882812 "/>
<g clip-path="url(#clip-3)">
<path fill="none" stroke-width="3.99994" stroke-linecap="butt" stroke-linejoin="miter" stroke="rgb(100%, 100%, 100%)" stroke-opacity="1" stroke-miterlimit="4" d="M 311.275006 269.730099 L 310.082534 269.730099 L 310.480024 115.622936 C 310.082534 115.384441 297.998815 116.099925 297.76032 115.384441 C 297.680822 101.909505 297.879568 98.093594 298.19756 86.168871 C 297.521826 86.089373 283.768646 86.089373 283.768646 85.930377 C 283.887893 130.886581 283.251908 224.813645 282.73517 275.29497 " transform="matrix(0.0982727, 0, 0, -0.0982727, 0, 49.9368)"/>
</g>
<path fill-rule="nonzero" fill="rgb(0.784302%, 43.920898%, 62.350464%)" fill-opacity="1" d="M 30.105469 24.859375 L 30.105469 21.898438 L 3.484375 21.519531 L 3.484375 24.25 L 30.105469 24.859375 "/>
<g clip-path="url(#clip-4)">
<path fill="none" stroke-width="3.99994" stroke-linecap="butt" stroke-linejoin="miter" stroke="rgb(100%, 100%, 100%)" stroke-opacity="1" stroke-miterlimit="4" d="M 306.34612 255.181938 L 306.34612 285.311737 L 35.456175 289.167397 L 35.456175 261.382794 Z M 306.34612 255.181938 " transform="matrix(0.0982727, 0, 0, -0.0982727, 0, 49.9368)"/>
</g>
<g clip-path="url(#clip-5)">
<path fill-rule="nonzero" fill="rgb(0.784302%, 43.920898%, 62.350464%)" fill-opacity="1" d="M 31.355469 23.539062 L 31.355469 20.558594 L 30.105469 21.878906 L 30.105469 24.835938 L 31.355469 23.539062 "/>
</g>
<g clip-path="url(#clip-6)">
<path fill="none" stroke-width="3.99994" stroke-linecap="butt" stroke-linejoin="miter" stroke="rgb(100%, 100%, 100%)" stroke-opacity="1" stroke-miterlimit="4" d="M 319.065824 268.617125 L 319.065824 298.94567 L 306.34612 285.510482 L 306.34612 255.420432 Z M 319.065824 268.617125 " transform="matrix(0.0982727, 0, 0, -0.0982727, 0, 49.9368)"/>
</g>
<g clip-path="url(#clip-7)">
<path fill-rule="nonzero" fill="rgb(0.784302%, 43.920898%, 62.350464%)" fill-opacity="1" d="M 31.414062 19.398438 L 29.953125 20.914062 L 2.648438 20.535156 L 8.640625 19.09375 L 31.414062 19.398438 "/>
</g>
<g clip-path="url(#clip-8)">
<path fill="none" stroke-width="3.99994" stroke-linecap="butt" stroke-linejoin="miter" stroke="rgb(100%, 100%, 100%)" stroke-opacity="1" stroke-miterlimit="4" d="M 319.662061 310.751145 L 304.795907 295.328504 L 26.949873 299.184164 L 87.924954 313.851573 Z M 319.662061 310.751145 " transform="matrix(0.0982727, 0, 0, -0.0982727, 0, 49.9368)"/>
</g>
<path fill-rule="nonzero" fill="rgb(0.784302%, 43.920898%, 62.350464%)" fill-opacity="1" d="M 27.90625 20.023438 L 27.910156 19.492188 L 28.714844 17.882812 L 28.710938 18.988281 L 27.90625 20.023438 "/>
<path fill="none" stroke-width="3.99994" stroke-linecap="butt" stroke-linejoin="miter" stroke="rgb(100%, 100%, 100%)" stroke-opacity="1" stroke-miterlimit="4" d="M 283.967391 304.391293 L 284.00714 309.797167 L 292.19545 326.173786 L 292.155701 314.924798 Z M 283.967391 304.391293 " transform="matrix(0.0982727, 0, 0, -0.0982727, 0, 49.9368)"/>
<path fill-rule="nonzero" fill="rgb(0.784302%, 43.920898%, 62.350464%)" fill-opacity="1" d="M 27.917969 19.492188 L 28.726562 17.882812 L 26.882812 17.882812 L 26.078125 19.492188 L 27.917969 19.492188 "/>
<path fill="none" stroke-width="3.99994" stroke-linecap="butt" stroke-linejoin="miter" stroke="rgb(100%, 100%, 100%)" stroke-opacity="1" stroke-miterlimit="4" d="M 284.086639 309.797167 L 292.314697 326.173786 L 273.553134 326.173786 L 265.364824 309.797167 Z M 284.086639 309.797167 " transform="matrix(0.0982727, 0, 0, -0.0982727, 0, 49.9368)"/>
<path fill-rule="nonzero" fill="rgb(0.784302%, 43.920898%, 62.350464%)" fill-opacity="1" d="M 26.078125 20.011719 L 27.917969 20.011719 L 27.917969 19.492188 L 26.078125 19.492188 Z M 26.078125 20.011719 "/>
<path fill="none" stroke-width="3.99994" stroke-linecap="butt" stroke-linejoin="miter" stroke="rgb(100%, 100%, 100%)" stroke-opacity="1" stroke-miterlimit="4" d="M 265.364824 309.797167 L 284.086639 309.797167 L 284.086639 304.51054 L 265.364824 304.51054 Z M 265.364824 309.797167 " transform="matrix(0.0982727, 0, 0, -0.0982727, 0, 49.9368)"/>
<path fill-rule="nonzero" fill="rgb(0.784302%, 43.920898%, 62.350464%)" fill-opacity="1" d="M 23.703125 20.316406 L 23.703125 19.679688 L 25.082031 17.773438 L 25.082031 18.941406 L 23.703125 20.316406 "/>
<path fill="none" stroke-width="3.99994" stroke-linecap="butt" stroke-linejoin="miter" stroke="rgb(100%, 100%, 100%)" stroke-opacity="1" stroke-miterlimit="4" d="M 241.197387 301.410112 L 241.197387 307.889211 L 255.22881 327.28676 L 255.22881 315.401787 Z M 241.197387 301.410112 " transform="matrix(0.0982727, 0, 0, -0.0982727, 0, 49.9368)"/>
<path fill-rule="nonzero" fill="rgb(0.784302%, 43.920898%, 62.350464%)" fill-opacity="1" d="M 23.703125 19.6875 L 11.601562 19.6875 L 12.980469 17.773438 L 25.082031 17.773438 L 23.703125 19.6875 "/>
<path fill="none" stroke-width="3.99994" stroke-linecap="butt" stroke-linejoin="miter" stroke="rgb(100%, 100%, 100%)" stroke-opacity="1" stroke-miterlimit="4" d="M 241.197387 307.809713 L 118.054753 307.809713 L 132.086176 327.28676 L 255.22881 327.28676 Z M 241.197387 307.809713 " transform="matrix(0.0982727, 0, 0, -0.0982727, 0, 49.9368)"/>
<path fill-rule="nonzero" fill="rgb(0.784302%, 43.920898%, 62.350464%)" fill-opacity="1" d="M 11.59375 20.316406 L 23.703125 20.316406 L 23.703125 19.6875 L 11.59375 19.6875 Z M 11.59375 20.316406 "/>
<path fill="none" stroke-width="3.99994" stroke-linecap="butt" stroke-linejoin="miter" stroke="rgb(100%, 100%, 100%)" stroke-opacity="1" stroke-miterlimit="4" d="M 241.197387 307.809713 L 241.197387 301.410112 L 117.975254 301.410112 L 117.975254 307.809713 Z M 241.197387 307.809713 " transform="matrix(0.0982727, 0, 0, -0.0982727, 0, 49.9368)"/>
<path fill-rule="nonzero" fill="rgb(0.784302%, 43.920898%, 62.350464%)" fill-opacity="1" d="M 20.242188 41.347656 C 20.039062 42.722656 19.769531 43.035156 21.347656 43.273438 L 21.347656 43.347656 C 21.347656 43.347656 21.519531 42.976562 21.59375 43.660156 C 21.59375 43.660156 21.898438 44.722656 17.652344 43.582031 C 17.652344 43.582031 17.410156 42.800781 16.878906 43.257812 L 16.953125 43.332031 C 17.101562 42.765625 17.546875 42.585938 17.304688 41.707031 L 17.320312 41.789062 L 20.242188 41.347656 "/>
<path fill="none" stroke-width="3.99994" stroke-linecap="butt" stroke-linejoin="miter" stroke="rgb(100%, 100%, 100%)" stroke-opacity="1" stroke-miterlimit="4" d="M 205.979706 87.401093 C 203.912754 73.409418 201.170068 70.229492 217.228694 67.804799 L 217.228694 67.049566 C 217.228694 67.049566 218.977654 70.825728 219.732886 63.86964 C 219.732886 63.86964 222.833314 53.057892 179.62607 64.664622 C 179.62607 64.664622 177.161627 72.614437 171.755753 67.963795 L 172.510985 67.208563 C 174.02145 72.972179 178.552845 74.800636 176.088402 83.744178 L 176.247398 82.909447 Z M 205.979706 87.401093 " transform="matrix(0.0982727, 0, 0, -0.0982727, 0, 49.9368)"/>
<path fill-rule="nonzero" fill="rgb(0.784302%, 43.920898%, 62.350464%)" fill-opacity="1" d="M 22.703125 20.144531 C 22.96875 19.839844 22.761719 19.96875 23.042969 19.664062 C 23.460938 19.210938 23.867188 18.800781 24.222656 18.308594 C 24.4375 18.011719 24.625 17.722656 24.855469 17.4375 C 25.085938 17.160156 25.59375 17.144531 25.902344 17.296875 C 26.171875 17.429688 26.300781 17.5 26.578125 17.574219 C 26.742188 17.621094 26.878906 17.988281 26.683594 18.015625 C 26.839844 18.082031 26.984375 18.175781 27.042969 18.332031 C 27.054688 18.367188 27.015625 18.449219 27.023438 18.476562 C 27.113281 18.75 27.640625 19.023438 27.347656 19.238281 C 27.195312 19.347656 26.925781 19.167969 26.710938 19.234375 C 26.527344 19.289062 26.425781 19.46875 26.289062 19.609375 C 26.148438 19.75 25.972656 19.785156 25.800781 19.839844 C 25.550781 19.917969 25.324219 19.992188 25.074219 20.082031 C 24.886719 20.148438 24.75 20.285156 24.570312 20.378906 C 24.101562 20.617188 24.203125 20.628906 23.761719 20.910156 C 23.410156 20.730469 22.960938 20.445312 22.703125 20.144531 "/>
<path fill="none" stroke-width="3.99994" stroke-linecap="butt" stroke-linejoin="miter" stroke="rgb(100%, 100%, 100%)" stroke-opacity="1" stroke-miterlimit="4" d="M 231.021623 303.159071 C 233.724561 306.259499 231.61786 304.94778 234.479793 308.048208 C 238.732944 312.6591 242.866848 316.832753 246.484014 321.841137 C 248.670213 324.862066 250.578168 327.803498 252.923364 330.70518 C 255.268559 333.527365 260.435939 333.686361 263.576116 332.136147 C 266.318802 330.784679 267.630522 330.069195 270.452706 329.313963 C 272.122167 328.836974 273.513385 325.100561 271.525931 324.822317 C 273.115894 324.146583 274.58661 323.192605 275.182846 321.602642 C 275.302093 321.244901 274.904602 320.41017 274.9841 320.131926 C 275.898329 317.349491 281.264454 314.567056 278.283274 312.380857 C 276.73306 311.267883 273.990373 313.09634 271.804174 312.420606 C 269.935968 311.864119 268.902492 310.035661 267.511274 308.604695 C 266.080308 307.173728 264.291599 306.815986 262.54264 306.259499 C 259.998699 305.464518 257.693253 304.709285 255.149312 303.795057 C 253.241356 303.119322 251.850139 301.728105 250.021681 300.774127 C 245.251792 298.349433 246.285268 298.230186 241.793623 295.368253 C 238.216206 297.19671 233.645062 300.098393 231.021623 303.159071 Z M 231.021623 303.159071 " transform="matrix(0.0982727, 0, 0, -0.0982727, 0, 49.9368)"/>
<path fill-rule="nonzero" fill="rgb(0.784302%, 43.920898%, 62.350464%)" fill-opacity="1" d="M 21.347656 43.347656 C 22.15625 43.472656 23.023438 43.097656 22.78125 43.683594 C 22.691406 44.589844 22.773438 44.660156 22.28125 45.265625 C 22.105469 45.449219 22.121094 45.261719 21.851562 45.453125 C 20.566406 45.675781 18.574219 44.382812 18.402344 45.363281 C 18.457031 45.3125 17.773438 46.179688 17.753906 46.332031 C 17.671875 46.378906 17.488281 46.296875 17.402344 46.332031 C 16.527344 45.003906 16.457031 44.089844 16.652344 43.332031 C 17.179688 42.878906 17.652344 43.582031 17.652344 43.582031 C 22.203125 44.644531 21.59375 43.660156 21.59375 43.660156 C 21.519531 42.976562 21.347656 43.347656 21.347656 43.347656 "/>
<path fill="none" stroke-width="3.99994" stroke-linecap="butt" stroke-linejoin="miter" stroke="rgb(100%, 100%, 100%)" stroke-opacity="1" stroke-miterlimit="4" d="M 217.228694 67.049566 C 225.456753 65.777596 234.281048 69.593507 231.816605 63.631146 C 230.902376 54.409361 231.737107 53.693877 226.728723 47.532771 C 224.940015 45.664564 225.099011 47.57252 222.356325 45.624815 C 209.27888 43.359118 189.006851 56.516062 187.257892 46.539044 C 187.814379 47.055782 180.858291 38.231487 180.659546 36.681273 C 179.824815 36.204284 177.956608 37.039015 177.082129 36.681273 C 168.178336 50.195959 167.462853 59.497242 169.450306 67.208563 C 174.816432 71.819455 179.62607 64.664622 179.62607 64.664622 C 225.933742 53.852873 219.732886 63.86964 219.732886 63.86964 C 218.977654 70.825728 217.228694 67.049566 217.228694 67.049566 Z M 217.228694 67.049566 " transform="matrix(0.0982727, 0, 0, -0.0982727, 0, 49.9368)"/>
<path fill-rule="nonzero" fill="rgb(0.784302%, 43.920898%, 62.350464%)" fill-opacity="1" stroke-width="3.99994" stroke-linecap="butt" stroke-linejoin="miter" stroke="rgb(100%, 100%, 100%)" stroke-opacity="1" stroke-miterlimit="4" d="M 58.550387 258.600358 C 52.071288 229.583534 51.037812 201.043698 60.378845 173.537338 C 62.088055 171.510135 64.473 170.675405 67.533678 169.284187 C 84.506533 170.476659 83.79105 170.317663 103.586089 169.800925 L 127.19704 167.773722 C 128.90625 167.256984 130.933453 167.773722 132.443918 166.58125 C 141.625954 152.510077 194.094733 174.411818 195.605198 159.26742 C 196.519426 163.719317 174.89593 154.338535 173.703457 143.487037 C 177.956608 126.19619 173.623959 92.409476 172.789229 76.152105 C 176.446144 73.369669 167.5821 72.813182 176.247398 68.242039 C 188.609361 65.141611 205.979706 72.733684 205.979706 72.733684 C 210.709846 75.595617 212.26006 70.944976 217.188945 73.687662 C 218.381418 119.677342 215.638731 149.489148 221.919085 193.093883 C 222.59482 202.116923 219.891883 201.520687 219.375145 207.125306 C 219.057152 210.861719 214.804001 211.895195 212.578053 215.472612 C 203.396016 217.619062 191.471294 218.215298 184.952446 218.930782 L 160.467015 224.336656 C 163.050705 230.219519 161.261997 263.052255 162.41472 269.491605 C 165.674144 272.234291 166.508875 293.857788 168.933568 297.156961 L 170.722277 314.924798 C 171.159517 311.069137 169.569554 305.424769 177.002631 301.569108 C 181.176284 300.893374 179.467073 299.502157 183.600977 298.627677 C 184.077966 298.150688 184.594704 297.63395 185.071693 297.156961 C 186.343663 296.799219 187.575885 296.36198 188.728608 295.686245 C 192.902261 292.267825 198.50688 293.261552 202.680533 289.843131 C 209.000636 288.809655 214.128267 284.715501 220.488119 286.623456 C 222.753816 287.299191 225.019513 287.617183 227.364709 287.33894 C 233.605313 291.949832 239.209933 288.571161 243.542582 294.891264 C 244.854302 296.441478 250.578168 296.441478 252.24763 297.355707 C 254.195334 300.138142 253.758094 297.276208 254.751821 300.893374 C 257.574006 302.324341 258.885725 301.211367 262.304145 301.211367 C 262.781134 301.807603 267.113784 311.864119 267.352278 312.937344 C 267.352278 312.937344 260.753932 328.518981 247.835482 326.41228 L 232.01535 328.081741 C 222.078082 327.763749 211.624075 328.439483 203.23702 338.217756 L 200.812327 343.18639 L 202.084297 351.295201 C 204.866732 357.019068 198.864622 370.215761 197.23491 377.251347 C 188.450364 383.730446 193.657493 379.040056 184.713951 386.075642 L 65.108985 397.443877 C 63.916512 396.807892 61.770062 396.648896 60.935332 396.807892 C 51.395554 396.489899 43.803481 398.278608 35.297179 392.554741 C 33.230227 387.705354 29.295068 379.954284 29.732308 374.230417 C 31.918507 366.161355 17.1716 367.035835 21.305504 358.688529 C 23.332707 356.025341 22.299231 353.08391 23.332707 350.619467 C 21.305504 339.171733 23.769947 349.585991 21.305504 339.767969 L 20.470774 339.688471 C 7.274081 304.868282 2.106701 268.378631 2.106701 268.378631 C 3.02093 267.305406 4.133904 266.391177 4.73014 265.317952 C 12.44146 256.056418 54.336985 243.614957 54.336985 243.614957 L 54.495982 244.091946 " transform="matrix(0.0982727, 0, 0, -0.0982727, 0, 49.9368)"/>
<path fill-rule="nonzero" fill="rgb(0.784302%, 43.920898%, 62.350464%)" fill-opacity="1" d="M 10.5 42.164062 C 10.015625 42.65625 9.734375 43.050781 9.609375 43.4375 C 10.140625 42.675781 10.753906 43.515625 10.753906 43.515625 C 12.269531 44.121094 12.953125 44.425781 12.953125 44.425781 C 14.960938 44.257812 14.28125 43.128906 14.28125 43.128906 C 13.269531 42.691406 12.980469 42.410156 13.039062 42.226562 "/>
<path fill-rule="nonzero" fill="rgb(0.784302%, 43.920898%, 62.350464%)" fill-opacity="1" stroke-width="3.99994" stroke-linecap="butt" stroke-linejoin="miter" stroke="rgb(100%, 100%, 100%)" stroke-opacity="1" stroke-miterlimit="4" d="M 99.293189 133.231776 L 93.092333 89.030805 L 89.316171 75.993108 L 124.573601 70.587234 L 125.766073 70.74623 C 126.362309 72.654186 134.351873 69.633256 138.128035 69.951249 C 143.255666 72.89268 138.883268 70.865478 144.130146 73.608164 C 143.613408 74.403145 142.738928 90.064281 142.937673 133.947259 " transform="matrix(0.0982727, 0, 0, -0.0982727, 0, 49.9368)"/>
<path fill-rule="nonzero" fill="rgb(0.784302%, 43.920898%, 62.350464%)" fill-opacity="1" d="M 11.296875 46.8125 L 11.789062 43.4375 "/>
<path fill-rule="nonzero" fill="rgb(0.784302%, 43.920898%, 62.350464%)" fill-opacity="1" d="M 10.371094 34.054688 C 10.609375 34.015625 10.765625 33.789062 10.726562 33.550781 L 9.785156 28.210938 C 9.746094 27.972656 9.519531 27.816406 9.28125 27.855469 L 7.976562 28.085938 C 7.738281 28.128906 7.578125 28.355469 7.621094 28.59375 L 8.558594 33.929688 C 8.601562 34.167969 8.828125 34.328125 9.0625 34.285156 L 10.371094 34.054688 "/>
<path fill="none" stroke-width="3.99994" stroke-linecap="butt" stroke-linejoin="miter" stroke="rgb(100%, 100%, 100%)" stroke-opacity="1" stroke-miterlimit="4" d="M 105.533794 161.612616 C 107.958488 162.010106 109.548451 164.315553 109.15096 166.740246 L 99.571433 221.077232 C 99.173942 223.501925 96.868496 225.091888 94.443802 224.694398 L 81.167611 222.349202 C 78.742917 221.911962 77.113205 219.606516 77.550445 217.181822 L 87.090223 162.884586 C 87.527463 160.459892 89.832909 158.83018 92.217854 159.26742 Z M 105.533794 161.612616 " transform="matrix(0.0982727, 0, 0, -0.0982727, 0, 49.9368)"/>
<path fill-rule="nonzero" fill="rgb(0.784302%, 43.920898%, 62.350464%)" fill-opacity="1" stroke-width="3.99994" stroke-linecap="butt" stroke-linejoin="miter" stroke="rgb(100%, 100%, 100%)" stroke-opacity="1" stroke-miterlimit="4" d="M 106.448023 80.166761 C 97.504481 78.179307 86.931227 79.689772 86.136245 74.164651 C 85.381013 68.59978 89.475168 67.447057 93.489824 67.208563 " transform="matrix(0.0982727, 0, 0, -0.0982727, 0, 49.9368)"/>
<path fill-rule="nonzero" fill="rgb(0.784302%, 43.920898%, 62.350464%)" fill-opacity="1" d="M 20.019531 34.019531 C 20.261719 33.773438 20.292969 33.691406 20.292969 33.449219 L 20.292969 30.554688 C 20.292969 30.3125 20.097656 30.117188 19.855469 30.117188 L 16.660156 33.199219 C 16.421875 33.199219 16.226562 33.394531 16.226562 33.636719 L 16.226562 36.859375 C 16.226562 37.101562 16.421875 37.296875 16.660156 37.296875 L 20.019531 34.019531 "/>
<path fill="none" stroke-width="3.99994" stroke-linecap="butt" stroke-linejoin="miter" stroke="rgb(100%, 100%, 100%)" stroke-opacity="1" stroke-miterlimit="4" d="M 203.714009 161.970357 C 206.178452 164.474549 206.496444 165.30928 206.496444 167.773722 L 206.496444 197.227787 C 206.496444 199.692229 204.508991 201.679683 202.044548 201.679683 L 169.529805 170.317663 C 167.105111 170.317663 165.117657 168.330209 165.117657 165.865767 L 165.117657 133.07278 C 165.117657 130.608337 167.105111 128.620883 169.529805 128.620883 Z M 203.714009 161.970357 " transform="matrix(0.0982727, 0, 0, -0.0982727, 0, 49.9368)"/>
<path fill-rule="nonzero" fill="rgb(0.784302%, 43.920898%, 62.350464%)" fill-opacity="1" d="M 4.171875 22.074219 C 4.105469 21.421875 4.902344 19.664062 4.933594 19.132812 C 4.789062 19.722656 4.667969 22.445312 4.820312 22.84375 L 4.171875 22.074219 "/>
<path fill="none" stroke-width="3.99994" stroke-linecap="butt" stroke-linejoin="miter" stroke="rgb(100%, 100%, 100%)" stroke-opacity="1" stroke-miterlimit="4" d="M 42.452012 283.523028 C 41.776278 290.161124 49.885089 308.048208 50.203082 313.454082 C 48.732366 307.451972 47.500145 279.746866 49.050358 275.692461 Z M 42.452012 283.523028 " transform="matrix(0.0982727, 0, 0, -0.0982727, 0, 49.9368)"/>
<path fill-rule="nonzero" fill="rgb(0.784302%, 43.920898%, 62.350464%)" fill-opacity="1" stroke-width="3.99994" stroke-linecap="butt" stroke-linejoin="miter" stroke="rgb(100%, 100%, 100%)" stroke-opacity="1" stroke-miterlimit="4" d="M 36.767894 223.064685 L 36.171658 224.972641 C 38.357857 244.648433 27.784603 272.592033 49.527347 285.868224 C 142.102943 286.305464 69.799376 283.682025 162.374971 283.920519 L 167.820594 279.786615 C 179.308077 281.456077 176.446144 221.911962 176.446144 221.911962 L 168.178336 216.625335 " transform="matrix(0.0982727, 0, 0, -0.0982727, 0, 49.9368)"/>
<path fill-rule="nonzero" fill="rgb(0.784302%, 43.920898%, 62.350464%)" fill-opacity="1" d="M 2.679688 28.550781 C 2.894531 26.613281 1.746094 23.074219 3.882812 21.765625 C 12.96875 21.726562 6.449219 21.828125 15.539062 21.808594 L 15.734375 21.910156 C 16.863281 21.75 16.507812 28.625 16.507812 28.625 L 2.679688 28.550781 "/>
<path fill="none" stroke-width="3.99994" stroke-linecap="butt" stroke-linejoin="miter" stroke="rgb(100%, 100%, 100%)" stroke-opacity="1" stroke-miterlimit="4" d="M 27.267865 217.619062 C 29.454065 237.334603 17.767836 273.347265 39.51058 286.663205 C 131.966929 287.060696 65.625723 286.02722 158.12182 286.225966 L 160.109274 285.19249 C 171.596756 286.822202 167.979591 216.86383 167.979591 216.86383 Z M 27.267865 217.619062 " transform="matrix(0.0982727, 0, 0, -0.0982727, 0, 49.9368)"/>
<g clip-path="url(#clip-9)">
<path fill-rule="nonzero" fill="rgb(0.784302%, 43.920898%, 62.350464%)" fill-opacity="1" d="M 16.222656 5.984375 C 16.222656 5.984375 16.257812 6.136719 16.304688 6.21875 C 16.289062 6.632812 16.535156 6.992188 16.558594 7.398438 C 16.417969 7.601562 16.25 7.785156 16.140625 8.011719 C 15.816406 8.179688 15.4375 8.140625 15.101562 8.277344 C 14.78125 8.535156 14.589844 8.921875 14.226562 9.136719 C 13.808594 9.230469 13.371094 9.195312 12.976562 9.386719 C 12.742188 9.609375 12.441406 9.761719 12.265625 10.042969 C 11.867188 10.320312 11.394531 10.273438 10.945312 10.214844 C 10.746094 10.085938 10.519531 10.011719 10.328125 9.867188 C 9.859375 9.371094 9.375 8.886719 8.867188 8.433594 C 8.457031 8.425781 8.046875 8.464844 7.640625 8.390625 C 7.367188 8.261719 7.195312 7.976562 6.890625 7.890625 C 6.722656 7.488281 6.507812 7.101562 6.503906 6.664062 C 6.460938 6.609375 6.296875 6.519531 6.394531 6.417969 C 7.890625 5.90625 7.105469 4.832031 7.335938 3.886719 C 8.042969 3.414062 7.351562 3.054688 7.632812 2.503906 C 8.1875 0.382812 10.703125 0.785156 12.414062 0.433594 C 12.914062 0.523438 13.46875 0.445312 13.609375 0.992188 C 13.585938 1.078125 14.164062 1.152344 14.070312 1.242188 C 14.417969 1.695312 14.507812 1.410156 14.898438 1.894531 C 15.257812 2.40625 15.136719 2.59375 15.230469 2.785156 C 15.714844 3.378906 16.207031 3.695312 16.277344 4.527344 C 16.308594 4.957031 16.042969 5.332031 15.9375 5.363281 C 16.152344 5.875 16.433594 5.417969 16.222656 5.984375 "/>
</g>
<g clip-path="url(#clip-10)">
<path fill="none" stroke-width="3.99994" stroke-linecap="butt" stroke-linejoin="miter" stroke="rgb(100%, 100%, 100%)" stroke-opacity="1" stroke-miterlimit="4" d="M 165.077908 447.249468 C 165.077908 447.249468 165.43565 445.699254 165.912639 444.864524 C 165.753642 440.651122 168.257834 436.994207 168.496329 432.860303 C 167.065362 430.793351 165.356152 428.925145 164.243178 426.619698 C 160.944004 424.910488 157.088344 425.307979 153.669924 423.916761 C 150.4105 421.293322 148.462795 417.358164 144.766131 415.171965 C 140.51298 414.217987 136.061083 414.575728 132.046427 412.628024 C 129.661482 410.362327 126.600804 408.812113 124.812095 405.950179 C 120.75769 403.127995 115.948052 403.604984 111.376908 404.20122 C 109.349705 405.512939 107.044259 406.268172 105.096554 407.738888 C 100.326665 412.78702 95.39778 417.715905 90.2304 422.326798 C 86.056747 422.406296 81.883094 422.008806 77.749191 422.764038 C 74.966755 424.075757 73.217796 426.97744 70.117368 427.85192 C 68.408158 431.946074 66.221959 435.881233 66.18221 440.333129 C 65.74497 440.889616 64.075509 441.803845 65.069236 442.837321 C 80.293131 448.04445 72.303567 458.975445 74.648763 468.594721 C 81.843345 473.404359 74.807759 477.061274 77.669692 482.665894 C 83.314061 504.249642 108.912465 500.155487 126.32256 503.732904 C 131.410442 502.818675 137.05481 503.613656 138.485777 498.048786 C 138.247283 497.174306 144.130146 496.419074 143.176168 495.504845 C 146.713836 490.893952 147.628064 493.795635 151.602972 488.86675 C 155.259887 483.659621 154.027665 481.751665 154.981643 479.80396 C 159.910528 473.762101 164.918912 470.542426 165.634395 462.075873 C 165.952388 457.703475 163.249451 453.887564 162.176226 453.569571 C 164.362425 448.362442 167.224358 453.013084 165.077908 447.249468 " transform="matrix(0.0982727, 0, 0, -0.0982727, 0, 49.9368)"/>
</g>
<path fill-rule="nonzero" fill="rgb(0.784302%, 43.920898%, 62.350464%)" fill-opacity="1" d="M 16.714844 10.726562 C 16.683594 10.832031 16.621094 10.921875 16.542969 11 C 16.109375 10.960938 16.253906 12.035156 15.871094 11.878906 C 15.644531 12 15.425781 11.773438 15.210938 11.738281 C 15.046875 11.824219 14.863281 11.839844 14.691406 11.90625 C 14.464844 12.140625 14.160156 12.238281 13.855469 12.335938 C 12.722656 12.050781 11.710938 12.707031 10.621094 12.910156 C 10.355469 12.902344 9.644531 13.070312 9.566406 12.773438 C 9.03125 12.445312 8.941406 11.785156 8.441406 11.410156 C 7.722656 11.34375 7.007812 11.277344 6.289062 11.210938 C 6.167969 11.167969 6.089844 11.035156 5.941406 11.035156 C 5.9375 10.777344 5.875 10.714844 5.804688 10.507812 C 5.773438 10.4375 5.582031 10.285156 5.714844 10.226562 C 5.835938 10.175781 5.867188 10.066406 5.582031 9.859375 C 5.382812 9.160156 5.78125 6.992188 6.292969 6.472656 C 6.195312 6.574219 6.460938 6.40625 6.507812 6.457031 C 6.511719 6.894531 6.65625 7.3125 6.824219 7.714844 C 7.128906 7.800781 7.300781 8.089844 7.574219 8.21875 C 7.984375 8.289062 8.394531 8.25 8.800781 8.257812 C 9.3125 8.714844 9.792969 9.199219 10.261719 9.695312 C 10.453125 9.835938 10.683594 9.914062 10.882812 10.039062 C 11.328125 10.097656 11.804688 10.144531 12.199219 9.871094 C 12.378906 9.585938 12.675781 9.4375 12.910156 9.210938 C 13.304688 9.023438 13.742188 9.058594 14.164062 8.964844 C 14.523438 8.746094 14.714844 8.359375 15.039062 8.105469 C 15.371094 7.96875 15.75 8.007812 16.074219 7.835938 C 16.183594 7.613281 16.351562 7.429688 16.492188 7.222656 C 16.46875 6.816406 16.226562 6.457031 16.238281 6.042969 C 16.191406 5.964844 16.113281 5.921875 16.003906 5.839844 L 16.160156 5.8125 C 17.832031 7.273438 15.980469 8.90625 16.820312 10.378906 L 16.714844 10.726562 "/>
<path fill="none" stroke-width="3.99994" stroke-linecap="butt" stroke-linejoin="miter" stroke="rgb(100%, 100%, 100%)" stroke-opacity="1" stroke-miterlimit="4" d="M 170.086292 398.994091 C 169.768299 397.920866 169.132314 397.006637 168.337332 396.211656 C 163.925185 396.609147 165.395901 385.678151 161.500491 387.268114 C 159.195045 386.035893 156.969097 388.341339 154.782898 388.699081 C 153.113437 387.824601 151.24523 387.665605 149.496271 386.98987 C 147.190824 384.604926 144.090397 383.611199 140.989969 382.617472 C 129.462737 385.519155 119.167727 378.84131 108.077735 376.774358 C 105.374798 376.853856 98.140466 375.144646 97.345485 378.165576 C 91.899861 381.504498 90.985633 388.222092 85.897751 392.038003 C 78.583921 392.713737 71.30984 393.389472 63.996011 394.065206 C 62.763789 394.502446 61.968808 395.853914 60.458343 395.853914 C 60.418594 398.477353 59.782609 399.113338 59.067125 401.220039 C 58.749133 401.935523 56.801428 403.485737 58.152897 404.081973 C 59.385118 404.598711 59.703111 405.711685 56.801428 407.818386 C 54.774225 414.93347 58.828631 436.994207 64.03576 442.280834 C 63.042033 441.247358 65.74497 442.956568 66.221959 442.43983 C 66.261708 437.987934 67.732424 433.734783 69.441634 429.640628 C 72.542062 428.766148 74.291021 425.824717 77.073456 424.512997 C 81.247109 423.797514 85.420762 424.195005 89.554666 424.115506 C 94.761795 419.464865 99.650931 414.535979 104.42082 409.487847 C 106.368525 408.05688 108.71372 407.261899 110.740923 405.989928 C 115.272317 405.393692 120.121704 404.916703 124.136361 407.699139 C 125.964818 410.600821 128.985748 412.111286 131.370693 414.416732 C 135.385349 416.324688 139.837246 415.966946 144.130146 416.920924 C 147.787061 419.146872 149.734765 423.082031 153.033938 425.66572 C 156.41261 427.056938 160.26827 426.659447 163.567443 428.408407 C 164.680417 430.674104 166.389628 432.54231 167.820594 434.649011 C 167.5821 438.782915 165.117657 442.43983 165.236904 446.653232 C 164.759916 447.448213 163.964934 447.885453 162.85196 448.720184 L 164.441923 448.998427 C 181.454527 434.132273 162.613466 417.51716 171.159517 402.531759 Z M 170.086292 398.994091 " transform="matrix(0.0982727, 0, 0, -0.0982727, 0, 49.9368)"/>
<path fill-rule="nonzero" fill="rgb(0.784302%, 43.920898%, 62.350464%)" fill-opacity="1" d="M 14.300781 45.171875 C 14.054688 45.257812 13.371094 45.363281 13.046875 45.414062 C 11.890625 45.027344 13.136719 45.234375 11.414062 44.988281 C 10.957031 45.378906 11.097656 46.128906 10.9375 46.726562 C 10.847656 46.78125 10.683594 46.691406 10.59375 46.726562 C 9.824219 45.085938 9.328125 44.292969 9.609375 43.4375 C 10.140625 42.675781 10.753906 43.515625 10.753906 43.515625 C 12.269531 44.121094 12.953125 44.425781 12.953125 44.425781 C 14.960938 44.023438 14.28125 43.128906 14.28125 43.128906 C 15.265625 43.28125 15.226562 43.210938 15.226562 43.210938 C 15.757812 43.515625 14.300781 45.171875 14.300781 45.171875 "/>
<g clip-path="url(#clip-11)">
<path fill-rule="nonzero" fill="rgb(0.784302%, 43.920898%, 62.350464%)" fill-opacity="1" d="M 9.726562 36.945312 C 9.769531 40.921875 9.800781 37.71875 9.757812 41.648438 C 9.816406 41.769531 9.648438 41.96875 9.5 42.058594 C 8.617188 42.253906 7.554688 41.839844 7.503906 42.648438 C 7.425781 43.195312 7.828125 43.308594 8.222656 43.332031 C 7.253906 44.121094 6.328125 45.109375 5.386719 45.835938 C 4.703125 46.640625 5.085938 47.351562 5.023438 48.277344 C 5.28125 48.59375 5.554688 48.429688 5.933594 48.324219 C 5.84375 47.625 6.023438 47.140625 6.007812 46.53125 C 7.207031 45.472656 8.40625 44.425781 9.621094 43.363281 C 9.710938 43.332031 9.757812 43.410156 9.832031 43.4375 C 9.484375 45.230469 8.738281 47.851562 9.027344 49.445312 C 9.074219 49.550781 9.011719 49.75 9.210938 49.839844 C 9.5 49.886719 9.953125 50.113281 10.121094 49.78125 C 10.234375 48.71875 9.867188 47.890625 10.40625 46.683594 C 10.347656 46.714844 10.378906 46.65625 10.40625 46.683594 C 10.574219 47.214844 10.5 47.519531 10.484375 48.140625 C 10.816406 48.1875 11.273438 48.367188 11.46875 47.957031 C 11.605469 46.835938 11.242188 45.59375 11.136719 44.136719 C 11.179688 43.984375 11.0625 43.847656 11.257812 43.695312 C 12.394531 44.441406 13.472656 45.667969 14.59375 46.503906 C 15.050781 46.957031 14.882812 48.519531 14.882812 48.519531 C 15.566406 48.671875 15.71875 48.59375 15.71875 48.59375 L 15.832031 48.59375 C 15.832031 48.59375 16.132812 46.925781 15.449219 45.828125 L 12.417969 43.316406 C 12.457031 43.28125 13.046875 43.292969 13.183594 43.257812 C 13.625 43.074219 13.714844 42.648438 13.472656 42.269531 C 13.03125 42.195312 12.71875 42.148438 12.128906 42.132812 C 11.8125 42.15625 11.804688 41.941406 11.804688 41.253906 C 11.847656 37.566406 11.710938 40.859375 11.835938 37.128906 "/>
</g>
<g clip-path="url(#clip-12)">
<path fill="none" stroke-width="1.99997" stroke-linecap="butt" stroke-linejoin="miter" stroke="rgb(100%, 100%, 100%)" stroke-opacity="1" stroke-miterlimit="4" d="M 98.975197 132.1983 C 99.412436 91.733742 99.730429 124.327983 99.293189 84.340414 C 99.889425 83.108193 98.180215 81.08099 96.66975 80.166761 C 87.686459 78.179307 76.874711 82.392709 76.357973 74.164651 C 75.562991 68.59978 79.657146 67.447057 83.671803 67.208563 C 73.814032 59.17925 64.393501 49.122734 54.813974 41.729406 C 47.857886 33.541096 51.753296 26.306765 51.11731 16.886234 C 53.740749 13.666559 56.523185 15.33602 60.378845 16.409245 C 59.464616 23.524329 61.293074 28.453215 61.134077 34.65407 C 73.337043 45.42607 85.540009 56.078822 97.901972 66.89057 C 98.8162 67.208563 99.293189 66.413581 100.048422 66.135338 C 96.510754 47.890512 88.918681 21.218883 91.860112 5.00126 C 92.337101 3.928035 91.701116 1.900833 93.728319 0.986604 C 96.66975 0.509615 101.280643 -1.795831 102.989853 1.58284 C 104.142576 12.394588 100.406163 20.821392 105.891536 33.103856 C 105.295299 32.785864 105.613292 33.3821 105.891536 33.103856 C 107.600746 27.697982 106.845513 24.597554 106.686517 18.277451 C 110.065188 17.800463 114.71583 15.972005 116.703284 20.145658 C 118.094502 31.553642 114.397838 44.193848 113.324613 59.020253 C 113.761852 60.570467 112.56938 61.961685 114.556834 63.511899 C 126.123815 55.919825 137.094559 43.438616 148.502544 34.932314 C 153.153186 30.321421 151.443975 14.421791 151.443975 14.421791 C 158.400064 12.871577 159.950278 13.666559 159.950278 13.666559 L 161.103001 13.666559 C 161.103001 13.666559 164.163679 30.639414 157.207591 41.808904 L 126.362309 67.367559 C 126.7598 67.725301 132.76191 67.606053 134.153128 67.963795 C 138.644773 69.832002 139.559002 74.164651 137.094559 78.020311 C 132.602914 78.775543 129.422988 79.252532 123.420878 79.411529 C 120.201203 79.173034 120.121704 81.359233 120.121704 88.355071 C 120.558944 125.878197 119.167727 92.369727 120.439697 130.330094 " transform="matrix(0.0982727, 0, 0, -0.0982727, 0, 49.9368)"/>
</g>
<path fill-rule="nonzero" fill="rgb(0.784302%, 43.920898%, 62.350464%)" fill-opacity="1" d="M 13.117188 42.1875 C 13.359375 42.1875 13.554688 42.382812 13.554688 42.625 L 13.554688 42.851562 C 13.554688 43.089844 13.359375 43.289062 13.117188 43.289062 L 13.023438 43.289062 C 13.023438 43.289062 10.542969 43.894531 8 43.289062 C 7.757812 43.289062 7.5625 43.089844 7.5625 42.851562 L 7.5625 42.625 C 7.5625 42.382812 7.757812 42.1875 8 42.1875 C 10.277344 42.945312 13.117188 42.1875 13.117188 42.1875 "/>
<path fill="none" stroke-width="3.99994" stroke-linecap="butt" stroke-linejoin="miter" stroke="rgb(100%, 100%, 100%)" stroke-opacity="1" stroke-miterlimit="4" d="M 133.477394 78.855042 C 135.941836 78.855042 137.92929 76.867588 137.92929 74.403145 L 137.92929 72.097699 C 137.92929 69.673005 135.941836 67.645802 133.477394 67.645802 L 132.523416 67.645802 C 132.523416 67.645802 107.282753 61.484696 81.406105 67.645802 C 78.941663 67.645802 76.954209 69.673005 76.954209 72.097699 L 76.954209 74.403145 C 76.954209 76.867588 78.941663 78.855042 81.406105 78.855042 C 104.579816 71.143721 133.477394 78.855042 133.477394 78.855042 Z M 133.477394 78.855042 " transform="matrix(0.0982727, 0, 0, -0.0982727, 0, 49.9368)"/>
<path fill-rule="nonzero" fill="rgb(0.784302%, 43.920898%, 62.350464%)" fill-opacity="1" d="M 8.601562 26.613281 C 9.167969 26.613281 9.621094 26.132812 9.621094 25.539062 C 9.621094 24.949219 9.167969 24.46875 8.601562 24.46875 C 8.039062 24.46875 7.582031 24.949219 7.582031 25.539062 C 7.582031 26.132812 8.039062 26.613281 8.601562 26.613281 "/>
<path fill="none" stroke-width="3.99994" stroke-linecap="butt" stroke-linejoin="miter" stroke="rgb(100%, 100%, 100%)" stroke-opacity="1" stroke-miterlimit="4" d="M 87.527463 237.334603 C 93.291079 237.334603 97.901972 242.22374 97.901972 248.265599 C 97.901972 254.267709 93.291079 259.156846 87.527463 259.156846 C 81.803596 259.156846 77.152954 254.267709 77.152954 248.265599 C 77.152954 242.22374 81.803596 237.334603 87.527463 237.334603 Z M 87.527463 237.334603 " transform="matrix(0.0982727, 0, 0, -0.0982727, 0, 49.9368)"/>
<path fill-rule="nonzero" fill="rgb(0.784302%, 43.920898%, 62.350464%)" fill-opacity="1" d="M 8.222656 26.6875 C 8.785156 26.6875 9.242188 26.207031 9.242188 25.617188 C 9.242188 25.023438 8.785156 24.542969 8.222656 24.542969 C 7.660156 24.542969 7.203125 25.023438 7.203125 25.617188 C 7.203125 26.207031 7.660156 26.6875 8.222656 26.6875 "/>
<path fill="none" stroke-width="3.99994" stroke-linecap="butt" stroke-linejoin="miter" stroke="rgb(100%, 100%, 100%)" stroke-opacity="1" stroke-miterlimit="4" d="M 83.671803 236.579371 C 89.39567 236.579371 94.046311 241.468507 94.046311 247.470617 C 94.046311 253.512477 89.39567 258.401613 83.671803 258.401613 C 77.947936 258.401613 73.297294 253.512477 73.297294 247.470617 C 73.297294 241.468507 77.947936 236.579371 83.671803 236.579371 Z M 83.671803 236.579371 " transform="matrix(0.0982727, 0, 0, -0.0982727, 0, 49.9368)"/>
<path fill-rule="nonzero" fill="rgb(0.784302%, 43.920898%, 62.350464%)" fill-opacity="1" stroke-width="3.99994" stroke-linecap="butt" stroke-linejoin="miter" stroke="rgb(100%, 100%, 100%)" stroke-opacity="1" stroke-miterlimit="4" d="M 86.37474 169.16494 L 109.15096 168.767449 " transform="matrix(0.0982727, 0, 0, -0.0982727, 0, 49.9368)"/>
<path fill-rule="nonzero" fill="rgb(0.784302%, 43.920898%, 62.350464%)" fill-opacity="1" d="M 16.46875 37.296875 C 16.710938 37.296875 16.90625 37.101562 16.546875 36.738281 L 16.546875 33.515625 C 16.90625 33.394531 16.710938 33.199219 16.46875 33.199219 L 6.441406 33.199219 L 5.890625 32.898438 C 5.652344 32.898438 2.878906 33.128906 2.878906 33.371094 L 2.878906 36.859375 C 2.878906 37.101562 3.070312 37.296875 3.3125 37.296875 L 16.46875 37.296875 "/>
<path fill="none" stroke-width="3.99994" stroke-linecap="butt" stroke-linejoin="miter" stroke="rgb(100%, 100%, 100%)" stroke-opacity="1" stroke-miterlimit="4" d="M 167.5821 128.620883 C 170.046543 128.620883 172.033996 130.608337 168.377081 134.305001 L 168.377081 167.097988 C 172.033996 168.330209 170.046543 170.317663 167.5821 170.317663 L 65.546225 170.317663 L 59.941605 173.378342 C 57.516911 173.378342 29.295068 171.033146 29.295068 168.568704 L 29.295068 133.07278 C 29.295068 130.608337 31.242773 128.620883 33.707216 128.620883 Z M 167.5821 128.620883 " transform="matrix(0.0982727, 0, 0, -0.0982727, 0, 49.9368)"/>
<path fill-rule="nonzero" fill="rgb(0.784302%, 43.920898%, 62.350464%)" fill-opacity="1" d="M 3.730469 37.09375 C 3.511719 37.09375 3.335938 36.917969 3.335938 36.703125 L 3.335938 33.800781 C 3.335938 33.585938 3.511719 33.410156 3.730469 33.410156 L 15.570312 33.410156 C 15.789062 33.410156 15.964844 33.585938 15.964844 33.800781 L 15.964844 36.703125 C 15.964844 36.917969 15.789062 37.09375 15.570312 37.09375 L 3.730469 37.09375 "/>
<path fill="none" stroke-width="3.99994" stroke-linecap="butt" stroke-linejoin="miter" stroke="rgb(100%, 100%, 100%)" stroke-opacity="1" stroke-miterlimit="4" d="M 37.960367 130.687835 C 35.734418 130.687835 33.94571 132.476544 33.94571 134.662743 L 33.94571 164.196306 C 33.94571 166.382505 35.734418 168.171213 37.960367 168.171213 L 158.439813 168.171213 C 160.665761 168.171213 162.454469 166.382505 162.454469 164.196306 L 162.454469 134.662743 C 162.454469 132.476544 160.665761 130.687835 158.439813 130.687835 Z M 37.960367 130.687835 " transform="matrix(0.0982727, 0, 0, -0.0982727, 0, 49.9368)"/>
<path fill-rule="nonzero" fill="rgb(0.784302%, 43.920898%, 62.350464%)" fill-opacity="1" d="M 19.777344 33.882812 C 20.054688 33.628906 19.996094 33.21875 19.996094 33.503906 L 19.996094 30.925781 C 19.996094 30.710938 19.820312 30.535156 19.640625 30.648438 L 16.929688 33.261719 C 16.703125 33.453125 16.566406 33.695312 16.566406 33.910156 L 16.566406 36.328125 C 16.566406 36.546875 16.742188 36.71875 16.957031 36.71875 L 19.777344 33.882812 "/>
<path fill="none" stroke-width="3.99994" stroke-linecap="butt" stroke-linejoin="miter" stroke="rgb(100%, 100%, 100%)" stroke-opacity="1" stroke-miterlimit="4" d="M 201.249566 163.361575 C 204.071751 165.945265 203.475515 170.118918 203.475515 167.217235 L 203.475515 193.451625 C 203.475515 195.637824 201.686806 197.426532 199.858349 196.273809 L 172.272491 169.681678 C 169.967044 167.733973 168.575827 165.269531 168.575827 163.083331 L 168.575827 138.478654 C 168.575827 136.252706 170.364535 134.503747 172.550734 134.503747 Z M 201.249566 163.361575 " transform="matrix(0.0982727, 0, 0, -0.0982727, 0, 49.9368)"/>
<path fill-rule="nonzero" fill="rgb(0.784302%, 43.920898%, 62.350464%)" fill-opacity="1" d="M 3.339844 28.222656 C 3.535156 26.480469 2.5 23.292969 4.421875 22.117188 C 12.601562 22.082031 6.734375 22.175781 14.914062 22.152344 L 15.085938 22.246094 C 16.105469 22.101562 15.785156 28.289062 15.785156 28.289062 L 3.339844 28.222656 "/>
<path fill="none" stroke-width="3.99994" stroke-linecap="butt" stroke-linejoin="miter" stroke="rgb(100%, 100%, 100%)" stroke-opacity="1" stroke-miterlimit="4" d="M 33.985459 220.957985 C 35.972913 238.686072 25.439408 271.121317 44.995953 283.085789 C 128.230516 283.44353 68.527405 282.489552 151.761968 282.728047 L 153.510927 281.774069 C 163.885436 283.244785 160.626012 220.28225 160.626012 220.28225 Z M 33.985459 220.957985 " transform="matrix(0.0982727, 0, 0, -0.0982727, 0, 49.9368)"/>
<path fill-rule="nonzero" fill="rgb(0.784302%, 43.920898%, 62.350464%)" fill-opacity="1" d="M 6.058594 32.558594 L 7.023438 33.160156 L 3.289062 33.160156 L 5.457031 31.835938 L 6.058594 32.558594 "/>
<path fill="none" stroke-width="3.99994" stroke-linecap="butt" stroke-linejoin="miter" stroke="rgb(100%, 100%, 100%)" stroke-opacity="1" stroke-miterlimit="4" d="M 61.650815 176.836511 L 71.468837 170.715154 L 33.468721 170.715154 L 55.529458 184.19009 Z M 61.650815 176.836511 " transform="matrix(0.0982727, 0, 0, -0.0982727, 0, 49.9368)"/>
</svg>
