<?xml version="1.0" encoding="UTF-8"?>
<svg xmlns="http://www.w3.org/2000/svg" xmlns:xlink="http://www.w3.org/1999/xlink" width="49.76" height="72.9" viewBox="0 0 49.76 72.9">
<defs>
<clipPath id="clip-0">
<path clip-rule="nonzero" d="M 7 0.125 L 16 0.125 L 16 9 L 7 9 Z M 7 0.125 "/>
</clipPath>
<clipPath id="clip-1">
<path clip-rule="nonzero" d="M 12 69 L 22 69 L 22 72.675781 L 12 72.675781 Z M 12 69 "/>
</clipPath>
<clipPath id="clip-2">
<path clip-rule="nonzero" d="M 0 68 L 8 68 L 8 72.675781 L 0 72.675781 Z M 0 68 "/>
</clipPath>
<clipPath id="clip-3">
<path clip-rule="nonzero" d="M 26 12 L 49.519531 12 L 49.519531 53 L 26 53 Z M 26 12 "/>
</clipPath>
</defs>
<path fill-rule="nonzero" fill="rgb(0.784302%, 43.920898%, 62.350464%)" fill-opacity="1" d="M 29.667969 64.371094 L 28.613281 66.691406 C 28.613281 66.691406 28.613281 67.683594 30.007812 67.1875 L 31.199219 66.691406 L 32.496094 65.195312 L 32.707031 65.105469 C 32.734375 64.660156 32.769531 64.207031 32.867188 63.753906 C 33.035156 62.964844 32.769531 62.121094 33.019531 61.410156 C 33.644531 59.617188 34.261719 57.851562 34.917969 56.066406 C 35.433594 54.675781 34.683594 53.042969 35.222656 51.667969 L 31.363281 50.425781 C 31.097656 54.5625 31.042969 58.65625 30.839844 62.773438 C 30.46875 63.339844 30.0625 63.863281 29.65625 64.386719 L 29.667969 64.371094 "/>
<path fill-rule="nonzero" fill="rgb(0.784302%, 43.920898%, 62.350464%)" fill-opacity="1" d="M 40.191406 64.066406 L 40.242188 64.511719 L 41.335938 65.90625 L 43.128906 67.398438 L 44.324219 67.300781 C 44.621094 66.503906 45.015625 66.304688 45.015625 66.304688 C 44.292969 65.625 43.386719 65.136719 42.984375 64.164062 C 42.730469 63.554688 42.546875 62.878906 42.570312 62.277344 C 42.707031 58.355469 43.101562 54.484375 43.511719 50.535156 L 39.398438 51.527344 C 39.046875 51.699219 39.191406 52.09375 39.167969 52.328125 C 39.078125 53.246094 38.9375 54.171875 39.148438 55.097656 C 39.335938 55.933594 39.675781 56.683594 39.820312 57.511719 C 40.210938 59.726562 40.375 61.875 40.191406 64.066406 "/>
<g clip-path="url(#clip-0)">
<path fill-rule="nonzero" fill="rgb(0.784302%, 43.920898%, 62.350464%)" fill-opacity="1" d="M 11.039062 2.710938 C 11.1875 2.894531 11.253906 3.148438 11.269531 3.316406 C 11.355469 4.117188 11.0625 4.929688 10.777344 5.675781 C 10.703125 5.867188 10.710938 6.378906 10.484375 6.226562 C 10.21875 6.054688 9.996094 5.660156 9.71875 5.5625 C 9.367188 5.441406 8.996094 5.796875 8.644531 5.996094 C 9.289062 6.863281 10.082031 7.75 9.738281 8.882812 C 8.921875 7.671875 8.058594 6.472656 7.445312 5.15625 C 7.113281 4.441406 7.242188 3.398438 7.675781 2.804688 C 8.34375 1.890625 9.351562 1.121094 10.464844 0.835938 C 11.96875 0.457031 13.464844 0.144531 15.015625 0.125 C 13.617188 0.824219 12.292969 1.496094 10.949219 2.4375 C 10.878906 2.488281 10.96875 2.625 11.039062 2.710938 "/>
</g>
<path fill-rule="nonzero" fill="rgb(0.784302%, 43.920898%, 62.350464%)" fill-opacity="1" d="M 16.320312 2.820312 C 15.96875 3.503906 15.632812 4.167969 15.214844 4.804688 C 15.242188 4.707031 15.191406 4.628906 15.113281 4.617188 C 14.914062 4.582031 14.652344 4.671875 14.550781 4.570312 C 14.449219 4.46875 14.449219 4.148438 14.550781 4.039062 C 14.664062 3.910156 15.035156 4.105469 15.054688 4.070312 C 15.738281 2.972656 14.476562 2.078125 14.019531 1.121094 C 15.03125 1.101562 15.84375 1.773438 16.804688 1.917969 C 16.605469 2.195312 16.476562 2.511719 16.320312 2.820312 "/>
<path fill-rule="nonzero" fill="rgb(0%, 0%, 0%)" fill-opacity="1" d="M 12.523438 4.714844 C 12.359375 4.683594 12.09375 4.734375 12.082031 4.6875 C 11.789062 3.722656 13.121094 4.175781 13.722656 3.90625 C 13.578125 4.542969 13.203125 4.84375 12.523438 4.714844 "/>
<path fill-rule="nonzero" fill="rgb(0%, 0%, 0%)" fill-opacity="1" d="M 14.21875 6.296875 C 13.984375 6.296875 13.753906 6.296875 13.519531 6.296875 C 13.796875 6.058594 14.085938 5.847656 14.417969 5.699219 C 14.382812 5.910156 14.445312 6.101562 14.515625 6.296875 C 14.417969 6.296875 14.320312 6.296875 14.21875 6.296875 "/>
<path fill-rule="nonzero" fill="rgb(0%, 0%, 0%)" fill-opacity="1" d="M 14.019531 7.488281 C 13.554688 7.488281 13.089844 7.488281 12.625 7.488281 C 12.796875 7.332031 13.058594 7.273438 13.230469 7.253906 C 13.671875 7.203125 14.261719 6.886719 14.617188 7.488281 C 14.417969 7.488281 14.21875 7.488281 14.019531 7.488281 "/>
<path fill-rule="nonzero" fill="rgb(0%, 0%, 0%)" fill-opacity="1" d="M 13.910156 7.910156 C 14.246094 8.054688 13.769531 8.058594 13.820312 8.1875 C 13.558594 8.246094 13.476562 8.007812 13.324219 7.886719 C 13.519531 7.886719 13.738281 7.839844 13.910156 7.910156 "/>
<g clip-path="url(#clip-1)">
<path fill-rule="nonzero" fill="rgb(0.784302%, 43.920898%, 62.350464%)" fill-opacity="1" d="M 17.703125 69.089844 C 19.015625 69.960938 20.292969 70.875 21.582031 71.777344 C 21.390625 71.933594 21.453125 72.320312 21.285156 72.320312 C 20.226562 72.328125 19.167969 72.367188 18.109375 72.207031 C 17.140625 72.058594 16.328125 71.433594 15.394531 71.148438 C 15.242188 71.101562 15.222656 71.589844 15.101562 71.617188 C 14.316406 71.769531 13.476562 71.507812 12.902344 71.078125 C 12.460938 70.746094 12.90625 69.894531 12.609375 69.300781 L 17.703125 69.089844 "/>
</g>
<path fill-rule="nonzero" fill="rgb(0.784302%, 43.920898%, 62.350464%)" fill-opacity="1" d="M 12.609375 69.300781 C 12.59375 69.273438 12.449219 69.292969 12.449219 69.289062 C 12.15625 60.324219 12.3125 51.378906 12.027344 42.421875 C 10.585938 51.175781 9.457031 59.65625 7.769531 68.679688 C 7.738281 68.84375 7.160156 68.746094 7.113281 69.003906 L 2.769531 68.933594 C 2.929688 68.644531 2.625 68.085938 2.679688 67.601562 C 3.199219 62.832031 3.808594 58.195312 4.046875 53.460938 C 4.289062 48.648438 4.414062 43.855469 4.640625 39.039062 C 4.683594 38.183594 5.0625 37.308594 4.984375 36.457031 C 4.960938 36.183594 4.515625 36.03125 4.167969 35.953125 C 4.5 35.148438 4.59375 34.285156 4.863281 33.464844 C 3.40625 31.902344 1.867188 30.515625 0.585938 28.714844 C 0.175781 28.136719 -0.0390625 27.292969 0 26.605469 C 0.238281 22.429688 1.195312 18.351562 1.183594 14.15625 C 3.21875 12.875 5.640625 12.566406 7.804688 11.574219 C 8.609375 11.207031 9.449219 10.722656 9.738281 9.777344 C 10.847656 10.554688 11.742188 11.601562 12.953125 12.210938 C 13.066406 12.265625 13.152344 11.953125 13.222656 11.769531 C 13.257812 11.804688 13.289062 11.835938 13.324219 11.867188 C 13.433594 11.546875 13.429688 11.3125 13.722656 11.074219 C 13.652344 11.023438 13.570312 10.949219 13.632812 10.886719 C 13.820312 10.703125 13.847656 10.449219 14.019531 10.277344 C 14.199219 10.625 14.53125 10.878906 14.839844 11.019531 C 16.558594 11.808594 18.304688 12.433594 20.070312 13.117188 C 20.695312 13.359375 21.394531 13.800781 21.664062 14.320312 C 21.859375 14.695312 21.605469 15.371094 21.472656 15.945312 C 21.316406 16.628906 21.164062 17.296875 21.164062 17.941406 C 21.144531 20.878906 21.953125 23.757812 22.179688 26.699219 C 20.910156 28.296875 19.960938 30.101562 18.796875 31.773438 C 19.050781 33.183594 19.714844 34.558594 19.671875 35.949219 C 19.667969 36.066406 18.898438 36.214844 18.894531 36.453125 C 18.851562 38.0625 19.171875 39.6875 19.078125 41.324219 C 18.546875 50.613281 18.53125 59.851562 17.703125 69.089844 L 12.609375 69.300781 "/>
<g clip-path="url(#clip-2)">
<path fill-rule="nonzero" fill="rgb(0.784302%, 43.920898%, 62.350464%)" fill-opacity="1" d="M 7.113281 69.003906 C 7.011719 69.585938 7.371094 70.285156 7.0625 70.71875 C 6.644531 71.304688 5.867188 71.554688 5.183594 71.917969 C 4.945312 72.046875 5.078125 72.589844 4.757812 72.625 C 3.429688 72.773438 2.109375 72.675781 0.785156 72.675781 C 0.816406 72.042969 0.652344 71.328125 0.972656 70.839844 C 1.457031 70.105469 2.359375 69.671875 2.769531 68.933594 L 7.113281 69.003906 "/>
</g>
<path fill-rule="nonzero" fill="rgb(0.784302%, 43.920898%, 62.350464%)" fill-opacity="1" d="M 5.730469 25.503906 C 5.710938 24.335938 5.5625 23.171875 5.363281 22.019531 C 4.898438 23.136719 4.675781 24.371094 4.695312 25.5 C 4.707031 25.976562 5.296875 26.496094 5.660156 26.996094 C 5.902344 26.511719 5.742188 25.996094 5.730469 25.503906 "/>
<path fill-rule="nonzero" fill="rgb(0.784302%, 43.920898%, 62.350464%)" fill-opacity="1" d="M 32.132812 13.363281 C 31.820312 13.023438 31.234375 13.019531 31.234375 12.464844 C 31.582031 12.46875 31.933594 12.496094 32.230469 12.265625 C 31.644531 12.050781 31.351562 11.519531 31.292969 10.96875 C 31.285156 10.898438 31.421875 10.609375 31.53125 10.617188 C 31.769531 10.640625 31.78125 11.046875 32.035156 11.167969 C 32.125 11.210938 32.203125 11.148438 32.222656 11.070312 C 32.296875 10.761719 32.1875 10.472656 32.132812 10.175781 C 32.457031 10.28125 33.058594 10.40625 33.054688 10.078125 C 33.046875 9.589844 32.363281 9.046875 32.785156 8.644531 C 32.90625 8.53125 33.386719 9.144531 33.433594 8.773438 C 33.476562 8.417969 32.957031 8 32.992188 7.59375 C 33.015625 7.3125 33.566406 7.242188 33.671875 6.972656 C 33.851562 6.519531 33.484375 5.945312 33.609375 5.527344 C 33.984375 4.28125 34.722656 3.179688 35.316406 2.015625 C 36.847656 1.96875 37.421875 0.476562 39.890625 1.78125 C 39.953125 1.8125 39.644531 1.761719 39.707031 1.914062 C 39.738281 1.992188 39.824219 2.089844 39.898438 2.097656 C 40.304688 2.128906 40.773438 2.054688 40.945312 2.433594 C 41.070312 2.710938 40.660156 3.042969 40.746094 3.289062 C 40.878906 3.667969 41.621094 3.496094 41.703125 3.828125 C 41.855469 4.46875 41.109375 5.097656 41.207031 5.679688 C 41.265625 6.003906 42 6.144531 42.222656 6.53125 C 42.480469 6.976562 42.144531 7.621094 42.582031 8.085938 C 42.75 7.882812 42.960938 7.730469 43.179688 7.589844 C 43.238281 7.980469 43.394531 8.335938 43.578125 8.683594 C 43.832031 8.34375 44.132812 8.042969 44.371094 7.6875 C 44.609375 7.890625 44.503906 8.257812 44.421875 8.335938 C 44 8.738281 43.59375 9.277344 42.996094 9.4375 C 42.917969 9.457031 42.871094 9.511719 42.835938 9.582031 L 42.136719 9.183594 C 42.050781 9.351562 42.628906 9.609375 42.382812 9.679688 L 42.480469 10.078125 C 42.84375 10.46875 43.269531 10.203125 43.675781 10.078125 C 43.886719 10.773438 42.949219 10.863281 42.855469 11.386719 C 42.808594 11.652344 43.304688 11.574219 43.578125 11.472656 C 43.488281 11.964844 43.058594 12.210938 42.78125 12.566406 "/>
<path fill-rule="nonzero" fill="rgb(0%, 0%, 0%)" fill-opacity="1" d="M 45.015625 66.203125 C 45.675781 66.824219 46.105469 67.742188 46.691406 68.40625 C 46.816406 68.546875 46.386719 68.894531 46.167969 68.882812 C 45.03125 68.816406 44.042969 69.019531 43.015625 68.644531 C 42.128906 68.316406 42.101562 67.042969 40.890625 66.457031 C 40.484375 66.855469 40.742188 67.402344 40.5625 67.835938 C 40.546875 67.871094 40.332031 67.867188 40.324219 67.839844 C 39.9375 66.5625 38.933594 65.007812 40.191406 63.96875 L 40.242188 64.414062 L 41.335938 65.808594 L 43.128906 67.300781 L 44.324219 67.203125 C 44.621094 66.40625 45.015625 66.203125 45.015625 66.203125 "/>
<g clip-path="url(#clip-3)">
<path fill-rule="nonzero" fill="rgb(0.784302%, 43.920898%, 62.350464%)" fill-opacity="1" d="M 35.222656 52.214844 C 35.433594 51.679688 36.316406 51.597656 36.898438 51.65625 C 37.160156 51.683594 37.359375 52.269531 37.613281 52.292969 C 38.09375 52.332031 38.484375 51.6875 39.003906 51.628906 C 39.160156 51.609375 39.289062 51.890625 39.398438 52.074219 L 41.039062 51.578125 L 42.433594 52.324219 L 43.277344 51.078125 L 43.511719 51.082031 C 43.523438 50.980469 43.820312 50.90625 43.824219 50.875 C 44.382812 46.042969 44.589844 41.386719 45.175781 36.550781 C 45.261719 35.832031 45.015625 35.160156 45.070312 34.460938 C 45.285156 34.523438 45.457031 34.328125 45.667969 34.359375 C 45.609375 33.28125 45.199219 32.257812 45.167969 31.175781 C 46.632812 29.410156 48.15625 27.757812 49.363281 25.75 C 49.578125 25.386719 49.675781 24.804688 49.519531 24.316406 C 49.035156 22.789062 48.5 21.332031 47.949219 19.832031 C 47.132812 17.605469 46.488281 15.367188 45.667969 13.164062 C 44.726562 12.84375 43.71875 12.886719 42.78125 12.566406 L 38.25 12.019531 L 32.132812 13.363281 C 30.746094 13.804688 29.394531 14.289062 28.152344 15.054688 C 27.90625 17.171875 28.167969 19.238281 27.71875 21.414062 C 27.460938 22.65625 27.324219 23.785156 27.117188 25.015625 C 27.027344 25.539062 26.804688 26.070312 26.980469 26.589844 C 27.203125 27.222656 27.207031 27.984375 27.625 28.417969 C 28.785156 29.628906 30.371094 30.273438 31.632812 31.375 C 31.515625 32.238281 31.214844 33.03125 30.941406 33.863281 C 30.835938 34.183594 31.296875 34.136719 31.277344 34.25 C 31.175781 34.8125 30.789062 35.339844 30.734375 35.863281 C 30.199219 40.898438 30.402344 45.867188 30.648438 50.875 C 30.652344 50.984375 31.382812 50.6875 31.363281 50.976562 L 32.332031 51.925781 L 33.972656 51.425781 L 35.21875 52.324219 "/>
</g>
<path fill-rule="nonzero" fill="rgb(0%, 0%, 0%)" fill-opacity="1" d="M 41.386719 10.675781 C 41.136719 10.355469 40.765625 10.167969 40.492188 9.878906 C 40.390625 9.976562 40.226562 10.078125 40.226562 10.175781 C 40.234375 10.539062 40.101562 11.1875 40.488281 11.171875 C 40.730469 11.160156 40.527344 10.605469 40.589844 10.277344 C 40.703125 10.519531 40.792969 10.800781 41.007812 10.941406 C 41.183594 11.058594 41.222656 10.730469 41.386719 10.675781 "/>
<path fill-rule="nonzero" fill="rgb(100%, 100%, 100%)" fill-opacity="1" d="M 40.296875 14.839844 C 40.234375 14.816406 40.191406 14.726562 40.09375 14.753906 C 40.09375 14.621094 40.046875 14.445312 40.117188 14.378906 C 40.183594 14.3125 40.359375 14.355469 40.492188 14.355469 C 40.464844 14.453125 40.519531 14.507812 40.589844 14.554688 C 40.816406 13.859375 40.613281 13.15625 40.515625 12.476562 C 40.480469 12.210938 39.917969 12.222656 39.757812 12.019531 C 39.445312 11.617188 39.269531 10.175781 39.683594 10.207031 C 40.75 10.285156 40.800781 8.210938 41.109375 7.050781 C 41.234375 6.578125 40.992188 6.410156 40.789062 5.898438 C 40.648438 5.960938 40.726562 6.144531 40.675781 6.167969 C 40.449219 6.28125 40.109375 6.425781 39.929688 6.257812 C 39.828125 6.164062 39.828125 5.828125 39.929688 5.738281 C 40.105469 5.578125 40.882812 5.453125 40.875 5.476562 C 41.0625 4.933594 40.753906 4.5 40.390625 4.007812 C 40.210938 4.285156 40.03125 4.355469 39.695312 4.304688 C 39.910156 4.121094 39.894531 3.535156 39.640625 3.683594 C 39.21875 3.933594 39.273438 4.703125 38.601562 4.703125 C 38.617188 4.414062 38.617188 4.128906 38.402344 3.90625 C 38.1875 4.222656 37.941406 4.574219 37.613281 4.535156 C 37.398438 4.507812 37.472656 3.871094 37.15625 4.15625 C 36.789062 4.488281 37.425781 4.949219 37.289062 5.394531 C 37.023438 6.285156 37.03125 7.15625 36.535156 8.003906 C 36.460938 8.128906 36.46875 8.335938 36.53125 8.476562 C 36.632812 8.695312 36.84375 8.847656 37.109375 8.785156 C 37.09375 9.167969 36.679688 8.953125 36.527344 9.191406 C 36.480469 9.265625 36.480469 9.394531 36.527344 9.472656 C 36.710938 9.792969 37.070312 9.8125 37.40625 9.777344 C 37.3125 10.378906 36.636719 10.46875 36.210938 10.175781 C 36.113281 10.789062 36.433594 11.324219 37.007812 11.472656 C 36.742188 11.839844 36.3125 11.535156 36.054688 11.726562 C 35.714844 11.972656 36.136719 12.464844 36.011719 12.863281 C 35.949219 12.722656 35.773438 12.734375 35.742188 12.78125 C 35.445312 13.214844 35.816406 13.785156 35.914062 14.257812 C 35.976562 14.117188 36.113281 14.140625 36.207031 14.171875 C 36.390625 14.230469 36.289062 14.421875 36.3125 14.554688 C 36.210938 14.554688 36.101562 14.53125 36.019531 14.570312 C 35.738281 14.699219 36.121094 14.886719 36.011719 15.054688 C 36.957031 15.59375 38.03125 15.910156 39.089844 15.773438 C 39.367188 15.738281 39.722656 15.570312 39.992188 15.351562 C 39.738281 15.164062 39.230469 15.332031 39.414062 14.859375 C 39.496094 14.652344 39.757812 14.726562 39.878906 14.785156 C 40.035156 14.859375 39.859375 15.089844 39.902344 15.25 C 39.925781 15.328125 40.003906 15.398438 40.085938 15.34375 C 40.347656 15.15625 40.652344 15.023438 40.761719 14.746094 C 40.777344 14.710938 40.660156 14.578125 40.589844 14.578125 C 40.453125 14.574219 40.515625 14.921875 40.296875 14.839844 "/>
<path fill-rule="nonzero" fill="rgb(0%, 0%, 0%)" fill-opacity="1" d="M 39.089844 6.261719 C 39.046875 6.34375 38.960938 6.449219 38.902344 6.441406 C 38.476562 6.382812 38.035156 6.414062 37.804688 5.96875 C 38.335938 5.804688 38.886719 5.578125 39.363281 5.917969 C 39.492188 6.007812 39.171875 6.105469 39.089844 6.261719 "/>
<path fill-rule="nonzero" fill="rgb(0%, 0%, 0%)" fill-opacity="1" d="M 40.4375 7.667969 C 40.324219 7.980469 39.9375 7.714844 39.644531 7.789062 C 39.828125 7.480469 39.972656 7.351562 40.34375 7.292969 C 40.347656 7.460938 40.46875 7.582031 40.4375 7.667969 "/>
<path fill-rule="nonzero" fill="rgb(0%, 0%, 0%)" fill-opacity="1" d="M 40.066406 8.644531 C 39.734375 8.679688 39.402344 8.773438 39.066406 8.667969 C 39.582031 8.351562 40.183594 8.503906 40.734375 8.363281 C 40.667969 8.417969 40.621094 8.480469 40.660156 8.570312 C 40.460938 8.59375 40.261719 8.621094 40.066406 8.644531 "/>
<path fill-rule="nonzero" fill="rgb(0%, 0%, 0%)" fill-opacity="1" d="M 39.085938 15.527344 C 38.878906 15.660156 38.507812 15.457031 38.621094 15.160156 C 38.671875 15.019531 38.816406 14.882812 38.992188 14.964844 C 39.214844 15.0625 39.316406 15.378906 39.085938 15.527344 "/>
<path fill-rule="nonzero" fill="rgb(0%, 0%, 0%)" fill-opacity="1" d="M 38.203125 15.453125 C 38.070312 15.511719 38.035156 15.292969 37.902344 15.351562 C 37.925781 15.214844 37.824219 15.019531 38.007812 14.972656 C 38.132812 14.941406 38.324219 14.878906 38.390625 15.058594 C 38.449219 15.222656 38.378906 15.371094 38.203125 15.453125 "/>
<path fill-rule="nonzero" fill="rgb(0.784302%, 43.920898%, 62.350464%)" fill-opacity="1" d="M 37.40625 15.246094 C 37.296875 15.261719 37.144531 15.300781 37.121094 15.152344 C 37.101562 15.019531 37.027344 14.824219 37.210938 14.769531 C 37.476562 14.695312 37.707031 14.902344 37.589844 15.144531 C 37.566406 15.199219 37.476562 15.234375 37.40625 15.246094 "/>
<path fill-rule="nonzero" fill="rgb(0%, 0%, 0%)" fill-opacity="1" d="M 36.800781 14.839844 C 36.714844 14.878906 36.566406 14.902344 36.515625 14.753906 C 36.417969 14.476562 36.753906 14.363281 36.886719 14.480469 C 36.960938 14.550781 36.933594 14.769531 36.800781 14.839844 "/>
<path fill-rule="nonzero" fill="rgb(0%, 0%, 0%)" fill-opacity="1" d="M 40.015625 9.0625 C 39.816406 9.074219 39.65625 9.007812 39.5 8.914062 C 39.828125 8.875 40.15625 8.835938 40.484375 8.792969 C 40.382812 8.976562 40.234375 9.050781 40.015625 9.0625 "/>
<path fill-rule="nonzero" fill="rgb(100%, 100%, 100%)" fill-opacity="1" d="M 8.695312 11.320312 L 10.1875 15.800781 L 13.371094 23.363281 L 14.867188 15.5 L 14.566406 11.121094 L 13.96875 10.527344 L 12.972656 12.367188 L 9.691406 10.027344 C 9.691406 10.675781 8.695312 11.320312 8.695312 11.320312 "/>
<path fill-rule="nonzero" fill="rgb(0.784302%, 43.920898%, 62.350464%)" fill-opacity="1" d="M 12.625 12.464844 L 13.023438 12.714844 L 13.273438 12.414062 L 13.671875 12.964844 L 13.171875 13.660156 L 13.921875 20.625 L 13.371094 23.5625 L 11.929688 20.230469 L 12.625 13.609375 L 12.226562 13.113281 L 12.625 12.464844 "/>
<path fill-rule="nonzero" fill="rgb(100%, 100%, 100%)" fill-opacity="1" d="M 36.0625 15.054688 L 36.410156 16.644531 L 40.242188 23.710938 L 41.585938 17.144531 L 40.691406 14.804688 C 39.046875 16.894531 36.0625 15.054688 36.0625 15.054688 "/>
<path fill-rule="nonzero" fill="rgb(0%, 0%, 0%)" fill-opacity="1" d="M 32.480469 65.109375 L 31.1875 66.605469 L 29.992188 67.101562 C 28.597656 67.597656 28.597656 66.605469 28.597656 66.605469 L 29.65625 64.285156 C 29.097656 65 28.535156 65.710938 28.054688 66.515625 C 27.648438 67.199219 27.113281 67.945312 27.128906 68.742188 C 27.128906 68.882812 27.453125 69.121094 27.75 69.03125 C 28.648438 68.765625 29.601562 68.765625 30.402344 68.367188 C 31.117188 68.011719 31.421875 67.117188 32.03125 66.554688 C 32.265625 66.851562 32.023438 67.246094 32.230469 67.550781 C 32.621094 66.734375 32.648438 65.882812 32.707031 65.007812 L 32.480469 65.109375 "/>
<path fill-rule="nonzero" fill="rgb(100%, 100%, 100%)" fill-opacity="1" d="M 45.515625 20.179688 C 44.523438 18.785156 43.527344 20.128906 43.527344 20.128906 C 42.980469 20.925781 43.675781 21.621094 43.675781 21.621094 L 43.773438 21.472656 C 43.179688 20.625 43.925781 20.027344 43.925781 20.027344 C 44.671875 20.824219 45.515625 20.179688 45.515625 20.179688 "/>
<path fill-rule="nonzero" fill="rgb(100%, 100%, 100%)" fill-opacity="1" d="M 45.148438 18.335938 C 45.152344 17.867188 44.578125 18.097656 44.371094 18.335938 C 44.304688 18.179688 44.507812 18.074219 44.460938 17.945312 C 44.394531 17.761719 44.195312 17.820312 44.082031 17.859375 C 43.871094 17.933594 44.007812 18.171875 43.972656 18.335938 C 43.617188 18.105469 43.203125 17.882812 43.113281 18.441406 C 43.054688 18.792969 43.589844 18.632812 43.675781 18.933594 C 43.507812 18.96875 43.273438 18.832031 43.199219 19.042969 C 43.15625 19.15625 43.097656 19.367188 43.28125 19.414062 C 43.527344 19.476562 43.765625 19.382812 43.972656 19.234375 C 43.949219 19.535156 43.789062 19.976562 44.265625 19.8125 C 44.542969 19.714844 44.472656 19.394531 44.472656 19.132812 C 44.566406 19.351562 44.835938 19.28125 44.96875 19.433594 C 45.066406 19.316406 45.117188 19.175781 45.179688 19.039062 C 45.355469 18.65625 44.851562 18.816406 44.769531 18.636719 C 45.011719 18.683594 45.144531 18.527344 45.148438 18.335938 "/>
</svg>
