<?xml version="1.0" encoding="UTF-8"?>
<svg xmlns="http://www.w3.org/2000/svg" xmlns:xlink="http://www.w3.org/1999/xlink" width="28.28" height="28.59" viewBox="0 0 28.28 28.59">
<defs>
<clipPath id="clip-0">
<path clip-rule="nonzero" d="M 0 0.15625 L 27.304688 0.15625 L 27.304688 6 L 0 6 Z M 0 0.15625 "/>
</clipPath>
<clipPath id="clip-1">
<path clip-rule="nonzero" d="M 0 0.15625 L 27.304688 0.15625 L 27.304688 8 L 0 8 Z M 0 0.15625 "/>
</clipPath>
<clipPath id="clip-2">
<path clip-rule="nonzero" d="M 22 0.15625 L 27.304688 0.15625 L 27.304688 28 L 22 28 Z M 22 0.15625 "/>
</clipPath>
<clipPath id="clip-3">
<path clip-rule="nonzero" d="M 20 0.15625 L 27.304688 0.15625 L 27.304688 28.035156 L 20 28.035156 Z M 20 0.15625 "/>
</clipPath>
</defs>
<path fill-rule="nonzero" fill="rgb(3.115845%, 49.784851%, 74.839783%)" fill-opacity="1" d="M 0.519531 27.589844 L 22.632812 27.589844 L 22.632812 5.089844 L 0.519531 5.089844 Z M 0.519531 27.589844 "/>
<path fill="none" stroke-width="4" stroke-linecap="butt" stroke-linejoin="miter" stroke="rgb(100%, 100%, 100%)" stroke-opacity="1" stroke-miterlimit="4" d="M 232.090369 4.566737 L 232.090369 235.295167 L 5.327584 235.295167 L 5.327584 4.566737 Z M 232.090369 4.566737 " transform="matrix(0.0975172, 0, 0, -0.0975172, 0, 28.035179)"/>
<g clip-path="url(#clip-0)">
<path fill-rule="nonzero" fill="rgb(3.115845%, 49.784851%, 74.839783%)" fill-opacity="1" d="M 27.109375 0.609375 L 22.632812 5.082031 L 0.492188 5.082031 L 5.277344 0.609375 L 27.109375 0.609375 "/>
</g>
<g clip-path="url(#clip-1)">
<path fill="none" stroke-width="4" stroke-linecap="butt" stroke-linejoin="miter" stroke="rgb(100%, 100%, 100%)" stroke-opacity="1" stroke-miterlimit="4" d="M 277.995713 281.240568 L 232.090369 235.375281 L 5.047184 235.375281 L 54.117033 281.240568 Z M 277.995713 281.240568 " transform="matrix(0.0975172, 0, 0, -0.0975172, 0, 28.035179)"/>
</g>
<g clip-path="url(#clip-2)">
<path fill-rule="nonzero" fill="rgb(3.115845%, 49.784851%, 74.839783%)" fill-opacity="1" d="M 27.136719 22.167969 L 27.136719 0.625 L 22.632812 5.101562 L 22.632812 27.5 L 27.136719 22.167969 "/>
</g>
<g clip-path="url(#clip-3)">
<path fill="none" stroke-width="4" stroke-linecap="butt" stroke-linejoin="miter" stroke="rgb(100%, 100%, 100%)" stroke-opacity="1" stroke-miterlimit="4" d="M 278.276112 60.165879 L 278.276112 281.080339 L 232.090369 235.174996 L 232.090369 5.488048 Z M 278.276112 60.165879 " transform="matrix(0.0975172, 0, 0, -0.0975172, 0, 28.035179)"/>
</g>
<path fill-rule="nonzero" fill="rgb(100%, 100%, 100%)" fill-opacity="1" d="M 13.851562 22.070312 L 15.703125 20.21875 L 12.917969 19.40625 L 13.851562 22.070312 "/>
<path fill="none" stroke-width="8" stroke-linecap="butt" stroke-linejoin="miter" stroke="rgb(100%, 100%, 100%)" stroke-opacity="1" stroke-miterlimit="3.86" d="M 144.485668 78.712279 L 178.45402 44.70387 " transform="matrix(0.0975172, 0, 0, -0.0975172, 0, 28.035179)"/>
<path fill-rule="nonzero" fill="rgb(100%, 100%, 100%)" fill-opacity="1" d="M 3.773438 12.398438 L 5.625 10.546875 L 2.839844 9.738281 L 3.773438 12.398438 "/>
<path fill="none" stroke-width="8" stroke-linecap="butt" stroke-linejoin="miter" stroke="rgb(100%, 100%, 100%)" stroke-opacity="1" stroke-miterlimit="3.86" d="M 41.138559 177.853401 L 75.146968 143.885049 " transform="matrix(0.0975172, 0, 0, -0.0975172, 0, 28.035179)"/>
<path fill-rule="nonzero" fill="rgb(100%, 100%, 100%)" fill-opacity="1" d="M 4.625 17.929688 L 4.625 15.308594 L 2.082031 16.707031 L 4.625 17.929688 "/>
<path fill="none" stroke-width="8" stroke-linecap="butt" stroke-linejoin="miter" stroke="rgb(100%, 100%, 100%)" stroke-opacity="1" stroke-miterlimit="3.86" d="M 36.772344 117.767873 L 84.800709 117.727816 " transform="matrix(0.0975172, 0, 0, -0.0975172, 0, 28.035179)"/>
<path fill-rule="nonzero" fill="rgb(100%, 100%, 100%)" fill-opacity="1" d="M 13.851562 11.332031 L 15.703125 13.183594 L 12.917969 13.992188 L 13.851562 11.332031 "/>
<path fill="none" stroke-width="8" stroke-linecap="butt" stroke-linejoin="miter" stroke="rgb(100%, 100%, 100%)" stroke-opacity="1" stroke-miterlimit="3.86" d="M 144.485668 153.779133 L 178.45402 187.787542 " transform="matrix(0.0975172, 0, 0, -0.0975172, 0, 28.035179)"/>
<path fill-rule="nonzero" fill="rgb(100%, 100%, 100%)" fill-opacity="1" d="M 3.773438 21 L 5.625 22.851562 L 2.839844 23.664062 L 3.773438 21 "/>
<path fill="none" stroke-width="8" stroke-linecap="butt" stroke-linejoin="miter" stroke="rgb(100%, 100%, 100%)" stroke-opacity="1" stroke-miterlimit="3.86" d="M 41.138559 54.597954 L 75.146968 88.606363 " transform="matrix(0.0975172, 0, 0, -0.0975172, 0, 28.035179)"/>
<path fill-rule="nonzero" fill="rgb(3.115845%, 49.784851%, 74.839783%)" fill-opacity="1" d="M 7.273438 19.414062 L 12.441406 19.414062 L 12.441406 13.890625 L 7.273438 13.890625 Z M 7.273438 19.414062 "/>
<path fill="none" stroke-width="4" stroke-linecap="butt" stroke-linejoin="miter" stroke="rgb(100%, 100%, 100%)" stroke-opacity="1" stroke-miterlimit="4" d="M 74.58617 145.046703 L 127.581606 145.046703 L 127.581606 88.406078 L 74.58617 88.406078 Z M 74.58617 145.046703 " transform="matrix(0.0975172, 0, 0, -0.0975172, 0, 28.035179)"/>
<path fill-rule="nonzero" fill="rgb(3.115845%, 49.784851%, 74.839783%)" fill-opacity="1" d="M 16.683594 24.742188 L 20.925781 24.742188 L 20.925781 20.363281 L 16.683594 20.363281 Z M 16.683594 24.742188 "/>
<path fill="none" stroke-width="4" stroke-linecap="butt" stroke-linejoin="miter" stroke="rgb(100%, 100%, 100%)" stroke-opacity="1" stroke-miterlimit="4" d="M 171.083529 78.672222 L 214.585451 78.672222 L 214.585451 33.768304 L 171.083529 33.768304 Z M 171.083529 78.672222 " transform="matrix(0.0975172, 0, 0, -0.0975172, 0, 28.035179)"/>
<path fill-rule="nonzero" fill="rgb(3.115845%, 49.784851%, 74.839783%)" fill-opacity="1" d="M 16.683594 12.9375 L 20.925781 12.9375 L 20.925781 8.558594 L 16.683594 8.558594 Z M 16.683594 12.9375 "/>
<path fill="none" stroke-width="4" stroke-linecap="butt" stroke-linejoin="miter" stroke="rgb(100%, 100%, 100%)" stroke-opacity="1" stroke-miterlimit="4" d="M 171.083529 199.724534 L 214.585451 199.724534 L 214.585451 154.820615 L 171.083529 154.820615 Z M 171.083529 199.724534 " transform="matrix(0.0975172, 0, 0, -0.0975172, 0, 28.035179)"/>
</svg>
