<?xml version="1.0" encoding="UTF-8"?>
<svg xmlns="http://www.w3.org/2000/svg" xmlns:xlink="http://www.w3.org/1999/xlink" width="43.78" height="23.54" viewBox="0 0 43.78 23.54">
<defs>
<clipPath id="clip-0">
<path clip-rule="nonzero" d="M 0.3125 0 L 43 0 L 43 9 L 0.3125 9 Z M 0.3125 0 "/>
</clipPath>
<clipPath id="clip-1">
<path clip-rule="nonzero" d="M 0.3125 0 L 43.253906 0 L 43.253906 11 L 0.3125 11 Z M 0.3125 0 "/>
</clipPath>
<clipPath id="clip-2">
<path clip-rule="nonzero" d="M 32 0 L 43.253906 0 L 43.253906 23.089844 L 32 23.089844 Z M 32 0 "/>
</clipPath>
<clipPath id="clip-3">
<path clip-rule="nonzero" d="M 0.3125 8 L 35 8 L 35 23 L 0.3125 23 Z M 0.3125 8 "/>
</clipPath>
<clipPath id="clip-4">
<path clip-rule="nonzero" d="M 0.3125 10 L 10 10 L 10 12 L 0.3125 12 Z M 0.3125 10 "/>
</clipPath>
<clipPath id="clip-5">
<path clip-rule="nonzero" d="M 0.3125 15 L 10 15 L 10 16 L 0.3125 16 Z M 0.3125 15 "/>
</clipPath>
<clipPath id="clip-6">
<path clip-rule="nonzero" d="M 0.3125 19 L 10 19 L 10 20 L 0.3125 20 Z M 0.3125 19 "/>
</clipPath>
</defs>
<g clip-path="url(#clip-0)">
<path fill-rule="nonzero" fill="rgb(3.115845%, 49.784851%, 74.839783%)" fill-opacity="1" d="M 0.867188 8.464844 L 10.773438 0.457031 L 42.773438 0.457031 L 34.574219 8.464844 L 0.867188 8.464844 "/>
</g>
<g clip-path="url(#clip-1)">
<path fill="none" stroke-width="4" stroke-linecap="butt" stroke-linejoin="miter" stroke="rgb(100%, 100%, 100%)" stroke-opacity="1" stroke-miterlimit="4" d="M 5.663764 149.09743 L 106.662065 230.740378 L 432.915251 230.740378 L 349.320837 149.09743 Z M 5.663764 149.09743 " transform="matrix(0.0980833, 0, 0, -0.0980833, 0.311667, 23.088817)"/>
</g>
<path fill-rule="nonzero" fill="rgb(3.115845%, 49.784851%, 74.839783%)" fill-opacity="1" d="M 34.574219 22.609375 L 42.773438 14.253906 L 42.773438 0.46875 L 34.574219 8.464844 L 34.574219 22.609375 "/>
<g clip-path="url(#clip-2)">
<path fill="none" stroke-width="4" stroke-linecap="butt" stroke-linejoin="miter" stroke="rgb(100%, 100%, 100%)" stroke-opacity="1" stroke-miterlimit="4" d="M 349.320837 4.888105 L 432.915251 90.075552 L 432.915251 230.620901 L 349.320837 149.09743 Z M 349.320837 4.888105 " transform="matrix(0.0980833, 0, 0, -0.0980833, 0.311667, 23.088817)"/>
</g>
<g clip-path="url(#clip-3)">
<path fill-rule="nonzero" fill="rgb(3.115845%, 49.784851%, 74.839783%)" fill-opacity="1" d="M 0.898438 22.617188 L 34.574219 22.617188 L 34.574219 8.464844 L 0.898438 8.464844 Z M 0.898438 22.617188 "/>
<path fill="none" stroke-width="4" stroke-linecap="butt" stroke-linejoin="miter" stroke="rgb(100%, 100%, 100%)" stroke-opacity="1" stroke-miterlimit="4" d="M 349.320837 4.808454 L 349.320837 149.09743 L 5.98237 149.09743 L 5.98237 4.808454 Z M 349.320837 4.808454 " transform="matrix(0.0980833, 0, 0, -0.0980833, 0.311667, 23.088817)"/>
</g>
<path fill-rule="nonzero" fill="rgb(3.115845%, 49.784851%, 74.839783%)" fill-opacity="1" d="M 24.757812 13.628906 C 24.757812 14.984375 21.929688 16.085938 18.441406 16.085938 C 14.957031 16.085938 12.128906 14.984375 12.128906 13.628906 L 12.128906 17.226562 C 12.128906 18.582031 14.957031 19.679688 18.441406 19.679688 C 21.929688 19.679688 24.757812 18.582031 24.757812 17.226562 L 24.757812 13.628906 "/>
<path fill="none" stroke-width="4" stroke-linecap="butt" stroke-linejoin="miter" stroke="rgb(100%, 100%, 100%)" stroke-opacity="1" stroke-miterlimit="4" d="M 249.23853 96.447685 C 249.23853 82.628122 220.40463 71.397239 184.840166 71.397239 C 149.315527 71.397239 120.481627 82.628122 120.481627 96.447685 L 120.481627 59.768097 C 120.481627 45.948534 149.315527 34.757477 184.840166 34.757477 C 220.40463 34.757477 249.23853 45.948534 249.23853 59.768097 Z M 249.23853 96.447685 " transform="matrix(0.0980833, 0, 0, -0.0980833, 0.311667, 23.088817)"/>
<path fill-rule="nonzero" fill="rgb(3.115845%, 49.784851%, 74.839783%)" fill-opacity="1" d="M 18.441406 16.085938 C 21.929688 16.085938 24.757812 14.984375 24.757812 13.628906 C 24.757812 12.273438 21.929688 11.175781 18.441406 11.175781 C 14.957031 11.175781 12.128906 12.273438 12.128906 13.628906 C 12.128906 14.984375 14.957031 16.085938 18.441406 16.085938 "/>
<path fill="none" stroke-width="4" stroke-linecap="butt" stroke-linejoin="miter" stroke="rgb(100%, 100%, 100%)" stroke-opacity="1" stroke-miterlimit="4" d="M 184.840166 71.397239 C 220.40463 71.397239 249.23853 82.628122 249.23853 96.447685 C 249.23853 110.267247 220.40463 121.458305 184.840166 121.458305 C 149.315527 121.458305 120.481627 110.267247 120.481627 96.447685 C 120.481627 82.628122 149.315527 71.397239 184.840166 71.397239 Z M 184.840166 71.397239 " transform="matrix(0.0980833, 0, 0, -0.0980833, 0.311667, 23.088817)"/>
<g clip-path="url(#clip-4)">
<path fill="none" stroke-width="8" stroke-linecap="butt" stroke-linejoin="miter" stroke="rgb(100%, 100%, 100%)" stroke-opacity="1" stroke-miterlimit="4" d="M 85.673853 120.303356 L 7.495752 120.303356 " transform="matrix(0.0980833, 0, 0, -0.0980833, 0.311667, 23.088817)"/>
</g>
<path fill-rule="nonzero" fill="rgb(100%, 100%, 100%)" fill-opacity="1" d="M 11.460938 11.289062 L 6.804688 13.1875 L 7.910156 11.289062 L 6.804688 9.386719 L 11.460938 11.289062 "/>
<g clip-path="url(#clip-5)">
<path fill="none" stroke-width="8" stroke-linecap="butt" stroke-linejoin="miter" stroke="rgb(100%, 100%, 100%)" stroke-opacity="1" stroke-miterlimit="4" d="M 85.673853 78.326933 L 7.495752 78.326933 " transform="matrix(0.0980833, 0, 0, -0.0980833, 0.311667, 23.088817)"/>
</g>
<path fill-rule="nonzero" fill="rgb(100%, 100%, 100%)" fill-opacity="1" d="M 11.460938 15.40625 L 6.804688 17.308594 L 7.910156 15.40625 L 6.804688 13.503906 L 11.460938 15.40625 "/>
<path fill="none" stroke-width="8" stroke-linecap="butt" stroke-linejoin="miter" stroke="rgb(100%, 100%, 100%)" stroke-opacity="1" stroke-miterlimit="4" d="M 321.12415 78.326933 L 284.683517 78.326933 " transform="matrix(0.0980833, 0, 0, -0.0980833, 0.311667, 23.088817)"/>
<path fill-rule="nonzero" fill="rgb(100%, 100%, 100%)" fill-opacity="1" d="M 34.003906 15.40625 L 30.28125 16.929688 L 31.164062 15.40625 L 30.28125 13.886719 L 34.003906 15.40625 "/>
<g clip-path="url(#clip-6)">
<path fill="none" stroke-width="8" stroke-linecap="butt" stroke-linejoin="miter" stroke="rgb(100%, 100%, 100%)" stroke-opacity="1" stroke-miterlimit="4" d="M 85.673853 36.310684 L 7.495752 36.310684 " transform="matrix(0.0980833, 0, 0, -0.0980833, 0.311667, 23.088817)"/>
</g>
<path fill-rule="nonzero" fill="rgb(100%, 100%, 100%)" fill-opacity="1" d="M 11.460938 19.527344 L 6.804688 21.429688 L 7.910156 19.527344 L 6.804688 17.625 L 11.460938 19.527344 "/>
<path fill-rule="nonzero" fill="rgb(100%, 100%, 100%)" fill-opacity="1" d="M 29 13.921875 L 28.117188 15.441406 L 29 16.964844 L 25.277344 15.441406 L 29 13.921875 "/>
</svg>
