<?xml version="1.0" encoding="UTF-8"?>
<svg xmlns="http://www.w3.org/2000/svg" xmlns:xlink="http://www.w3.org/1999/xlink" width="36.04" height="39.78" viewBox="0 0 36.04 39.78">
<defs>
<clipPath id="clip-0">
<path clip-rule="nonzero" d="M 0 4 L 31 4 L 31 39.15625 L 0 39.15625 Z M 0 4 "/>
</clipPath>
<clipPath id="clip-1">
<path clip-rule="nonzero" d="M 0 0.410156 L 35 0.410156 L 35 39 L 0 39 Z M 0 0.410156 "/>
</clipPath>
<clipPath id="clip-2">
<path clip-rule="nonzero" d="M 0 0.410156 L 35.105469 0.410156 L 35.105469 39.15625 L 0 39.15625 Z M 0 0.410156 "/>
</clipPath>
<clipPath id="clip-3">
<path clip-rule="nonzero" d="M 28 0.410156 L 35 0.410156 L 35 7 L 28 7 Z M 28 0.410156 "/>
</clipPath>
<clipPath id="clip-4">
<path clip-rule="nonzero" d="M 25 0.410156 L 35.105469 0.410156 L 35.105469 10 L 25 10 Z M 25 0.410156 "/>
</clipPath>
</defs>
<path fill-rule="nonzero" fill="rgb(17.227173%, 41.427612%, 63.371277%)" fill-opacity="1" d="M 28.175781 38.578125 L 28.140625 6.976562 L 0.726562 6.957031 L 0.707031 38.585938 L 28.175781 38.578125 "/>
<g clip-path="url(#clip-0)">
<path fill="none" stroke-width="5.03733" stroke-linecap="butt" stroke-linejoin="miter" stroke="rgb(100%, 100%, 100%)" stroke-opacity="1" stroke-miterlimit="4" d="M 289.263015 5.940781 L 288.902088 330.374136 L 7.45916 330.574651 L 7.258645 5.860575 Z M 289.263015 5.940781 " transform="matrix(0.0974054, 0, 0, -0.0974054, 0, 39.156789)"/>
</g>
<g clip-path="url(#clip-1)">
<path fill-rule="nonzero" fill="rgb(17.227173%, 41.427612%, 63.371277%)" fill-opacity="1" d="M 28.140625 6.976562 L 0.726562 6.957031 L 8.953125 0.679688 L 34.855469 0.679688 L 34.855469 32.09375 L 28.175781 38.578125 L 28.140625 6.976562 "/>
</g>
<g clip-path="url(#clip-2)">
<path fill="none" stroke-width="5.03733" stroke-linecap="butt" stroke-linejoin="miter" stroke="rgb(100%, 100%, 100%)" stroke-opacity="1" stroke-miterlimit="4" d="M 288.902088 330.374136 L 7.45916 330.574651 L 91.9161 395.020189 L 357.839163 395.020189 L 357.839163 72.511779 L 289.263015 5.940781 Z M 288.902088 330.374136 " transform="matrix(0.0974054, 0, 0, -0.0974054, 0, 39.156789)"/>
</g>
<g clip-path="url(#clip-3)">
<path fill-rule="nonzero" fill="rgb(17.227173%, 41.427612%, 63.371277%)" fill-opacity="1" d="M 28.140625 6.976562 L 34.914062 0.59375 "/>
</g>
<g clip-path="url(#clip-4)">
<path fill="none" stroke-width="5.03733" stroke-linecap="butt" stroke-linejoin="miter" stroke="rgb(100%, 100%, 100%)" stroke-opacity="1" stroke-miterlimit="4" d="M 288.902088 330.374136 L 358.440708 395.902456 " transform="matrix(0.0974054, 0, 0, -0.0974054, 0, 39.156789)"/>
</g>
<path fill-rule="nonzero" fill="rgb(17.227173%, 41.427612%, 63.371277%)" fill-opacity="1" d="M 2.640625 32.398438 L 7.335938 32.398438 L 7.335938 24.648438 L 2.640625 24.648438 Z M 2.640625 32.398438 "/>
<path fill="none" stroke-width="3.72127" stroke-linecap="round" stroke-linejoin="round" stroke="rgb(100%, 100%, 100%)" stroke-opacity="1" stroke-miterlimit="4" d="M 75.313454 148.948117 L 27.109635 148.948117 L 27.109635 69.383744 L 75.313454 69.383744 " transform="matrix(0.0974054, 0, 0, -0.0974054, 0, 39.156789)"/>
<path fill-rule="nonzero" fill="rgb(17.227173%, 41.427612%, 63.371277%)" fill-opacity="1" d="M 7.335938 32.398438 L 9.929688 30.964844 L 9.929688 23.210938 L 5.234375 23.210938 L 2.640625 24.648438 L 7.335938 24.648438 L 7.335938 32.398438 "/>
<path fill="none" stroke-width="3.72127" stroke-linecap="round" stroke-linejoin="round" stroke="rgb(100%, 100%, 100%)" stroke-opacity="1" stroke-miterlimit="4" d="M 75.313454 69.383744 L 101.941853 84.101549 L 101.941853 163.706025 L 53.738034 163.706025 L 27.109635 148.948117 L 75.313454 148.948117 Z M 75.313454 69.383744 " transform="matrix(0.0974054, 0, 0, -0.0974054, 0, 39.156789)"/>
<path fill-rule="nonzero" fill="rgb(17.227173%, 41.427612%, 63.371277%)" fill-opacity="1" stroke-width="3.72127" stroke-linecap="round" stroke-linejoin="round" stroke="rgb(100%, 100%, 100%)" stroke-opacity="1" stroke-miterlimit="4" d="M 75.313454 148.948117 L 101.941853 163.706025 " transform="matrix(0.0974054, 0, 0, -0.0974054, 0, 39.156789)"/>
<path fill-rule="nonzero" fill="rgb(17.227173%, 41.427612%, 63.371277%)" fill-opacity="1" d="M 7.335938 32.398438 L 16.90625 32.398438 L 16.90625 15.042969 L 7.335938 15.042969 Z M 7.335938 32.398438 "/>
<path fill="none" stroke-width="3.72127" stroke-linecap="round" stroke-linejoin="round" stroke="rgb(100%, 100%, 100%)" stroke-opacity="1" stroke-miterlimit="4" d="M 173.56583 247.56142 L 75.313454 247.56142 L 75.313454 69.383744 L 173.56583 69.383744 " transform="matrix(0.0974054, 0, 0, -0.0974054, 0, 39.156789)"/>
<path fill-rule="nonzero" fill="rgb(17.227173%, 41.427612%, 63.371277%)" fill-opacity="1" d="M 16.90625 32.398438 L 20.800781 30.246094 L 20.800781 12.890625 L 11.226562 12.890625 L 7.335938 15.042969 L 16.90625 15.042969 L 16.90625 32.398438 "/>
<path fill="none" stroke-width="3.72127" stroke-linecap="round" stroke-linejoin="round" stroke="rgb(100%, 100%, 100%)" stroke-opacity="1" stroke-miterlimit="4" d="M 173.56583 69.383744 L 213.548531 91.480503 L 213.548531 269.658178 L 115.256052 269.658178 L 75.313454 247.56142 L 173.56583 247.56142 Z M 173.56583 69.383744 " transform="matrix(0.0974054, 0, 0, -0.0974054, 0, 39.156789)"/>
<path fill-rule="nonzero" fill="rgb(17.227173%, 41.427612%, 63.371277%)" fill-opacity="1" stroke-width="3.72127" stroke-linecap="round" stroke-linejoin="round" stroke="rgb(100%, 100%, 100%)" stroke-opacity="1" stroke-miterlimit="4" d="M 173.56583 247.56142 L 213.548531 269.658178 " transform="matrix(0.0974054, 0, 0, -0.0974054, 0, 39.156789)"/>
<path fill-rule="nonzero" fill="rgb(17.227173%, 41.427612%, 63.371277%)" fill-opacity="1" d="M 16.988281 32.398438 L 22.175781 32.398438 L 22.175781 17.773438 L 16.988281 17.773438 Z M 16.988281 32.398438 "/>
<path fill="none" stroke-width="3.72127" stroke-linecap="round" stroke-linejoin="round" stroke="rgb(100%, 100%, 100%)" stroke-opacity="1" stroke-miterlimit="4" d="M 227.664791 219.529415 L 174.407993 219.529415 L 174.407993 69.383744 L 227.664791 69.383744 " transform="matrix(0.0974054, 0, 0, -0.0974054, 0, 39.156789)"/>
<path fill-rule="nonzero" fill="rgb(17.227173%, 41.427612%, 63.371277%)" fill-opacity="1" d="M 22.175781 32.398438 L 25.984375 30.296875 L 25.984375 15.667969 L 20.796875 15.667969 L 16.988281 17.773438 L 22.175781 17.773438 L 22.175781 32.398438 "/>
<path fill="none" stroke-width="3.72127" stroke-linecap="round" stroke-linejoin="round" stroke="rgb(100%, 100%, 100%)" stroke-opacity="1" stroke-miterlimit="4" d="M 227.664791 69.383744 L 266.765226 90.959163 L 266.765226 241.144938 L 213.508428 241.144938 L 174.407993 219.529415 L 227.664791 219.529415 Z M 227.664791 69.383744 " transform="matrix(0.0974054, 0, 0, -0.0974054, 0, 39.156789)"/>
<path fill-rule="nonzero" fill="rgb(17.227173%, 41.427612%, 63.371277%)" fill-opacity="1" stroke-width="3.72127" stroke-linecap="round" stroke-linejoin="round" stroke="rgb(100%, 100%, 100%)" stroke-opacity="1" stroke-miterlimit="4" d="M 227.664791 219.529415 L 266.765226 241.144938 " transform="matrix(0.0974054, 0, 0, -0.0974054, 0, 39.156789)"/>
<path fill-rule="nonzero" fill="rgb(17.227173%, 41.427612%, 63.371277%)" fill-opacity="1" stroke-width="3.72127" stroke-linecap="round" stroke-linejoin="round" stroke="rgb(100%, 100%, 100%)" stroke-opacity="1" stroke-miterlimit="4" d="M 126.484895 174.413528 L 126.484895 166.112205 L 141.523524 166.112205 " transform="matrix(0.0974054, 0, 0, -0.0974054, 0, 39.156789)"/>
<path fill-rule="nonzero" fill="rgb(17.227173%, 41.427612%, 63.371277%)" fill-opacity="1" stroke-width="3.72127" stroke-linecap="round" stroke-linejoin="round" stroke="rgb(100%, 100%, 100%)" stroke-opacity="1" stroke-miterlimit="4" d="M 147.45877 174.413528 L 147.45877 166.112205 L 162.457296 166.112205 " transform="matrix(0.0974054, 0, 0, -0.0974054, 0, 39.156789)"/>
<path fill-rule="nonzero" fill="rgb(17.227173%, 41.427612%, 63.371277%)" fill-opacity="1" stroke-width="3.72127" stroke-linecap="round" stroke-linejoin="round" stroke="rgb(100%, 100%, 100%)" stroke-opacity="1" stroke-miterlimit="4" d="M 84.376734 174.17291 L 84.376734 165.871587 L 99.415363 165.871587 " transform="matrix(0.0974054, 0, 0, -0.0974054, 0, 39.156789)"/>
<path fill-rule="nonzero" fill="rgb(17.227173%, 41.427612%, 63.371277%)" fill-opacity="1" stroke-width="3.72127" stroke-linecap="round" stroke-linejoin="round" stroke="rgb(100%, 100%, 100%)" stroke-opacity="1" stroke-miterlimit="4" d="M 105.350609 174.17291 L 105.350609 165.871587 L 120.349135 165.871587 " transform="matrix(0.0974054, 0, 0, -0.0974054, 0, 39.156789)"/>
<path fill-rule="nonzero" fill="rgb(17.227173%, 41.427612%, 63.371277%)" fill-opacity="1" stroke-width="3.72127" stroke-linecap="round" stroke-linejoin="round" stroke="rgb(100%, 100%, 100%)" stroke-opacity="1" stroke-miterlimit="4" d="M 126.324483 157.089028 L 126.324483 148.827808 L 141.363112 148.827808 " transform="matrix(0.0974054, 0, 0, -0.0974054, 0, 39.156789)"/>
<path fill-rule="nonzero" fill="rgb(17.227173%, 41.427612%, 63.371277%)" fill-opacity="1" stroke-width="3.72127" stroke-linecap="round" stroke-linejoin="round" stroke="rgb(100%, 100%, 100%)" stroke-opacity="1" stroke-miterlimit="4" d="M 147.258255 157.089028 L 147.258255 148.827808 L 162.296884 148.827808 " transform="matrix(0.0974054, 0, 0, -0.0974054, 0, 39.156789)"/>
<path fill-rule="nonzero" fill="rgb(17.227173%, 41.427612%, 63.371277%)" fill-opacity="1" stroke-width="3.72127" stroke-linecap="round" stroke-linejoin="round" stroke="rgb(100%, 100%, 100%)" stroke-opacity="1" stroke-miterlimit="4" d="M 84.216322 156.888513 L 84.216322 148.547087 L 99.214848 148.547087 " transform="matrix(0.0974054, 0, 0, -0.0974054, 0, 39.156789)"/>
<path fill-rule="nonzero" fill="rgb(17.227173%, 41.427612%, 63.371277%)" fill-opacity="1" stroke-width="3.72127" stroke-linecap="round" stroke-linejoin="round" stroke="rgb(100%, 100%, 100%)" stroke-opacity="1" stroke-miterlimit="4" d="M 105.109991 156.888513 L 105.109991 148.547087 L 120.188723 148.547087 " transform="matrix(0.0974054, 0, 0, -0.0974054, 0, 39.156789)"/>
<path fill-rule="nonzero" fill="rgb(17.227173%, 41.427612%, 63.371277%)" fill-opacity="1" stroke-width="3.72127" stroke-linecap="round" stroke-linejoin="round" stroke="rgb(100%, 100%, 100%)" stroke-opacity="1" stroke-miterlimit="4" d="M 126.324483 140.526484 L 126.324483 132.225161 L 141.363112 132.225161 " transform="matrix(0.0974054, 0, 0, -0.0974054, 0, 39.156789)"/>
<path fill-rule="nonzero" fill="rgb(17.227173%, 41.427612%, 63.371277%)" fill-opacity="1" stroke-width="3.72127" stroke-linecap="round" stroke-linejoin="round" stroke="rgb(100%, 100%, 100%)" stroke-opacity="1" stroke-miterlimit="4" d="M 147.258255 140.526484 L 147.258255 132.225161 L 162.296884 132.225161 " transform="matrix(0.0974054, 0, 0, -0.0974054, 0, 39.156789)"/>
<path fill-rule="nonzero" fill="rgb(17.227173%, 41.427612%, 63.371277%)" fill-opacity="1" stroke-width="3.72127" stroke-linecap="round" stroke-linejoin="round" stroke="rgb(100%, 100%, 100%)" stroke-opacity="1" stroke-miterlimit="4" d="M 84.216322 140.325969 L 84.216322 131.984543 L 99.214848 131.984543 " transform="matrix(0.0974054, 0, 0, -0.0974054, 0, 39.156789)"/>
<path fill-rule="nonzero" fill="rgb(17.227173%, 41.427612%, 63.371277%)" fill-opacity="1" stroke-width="3.72127" stroke-linecap="round" stroke-linejoin="round" stroke="rgb(100%, 100%, 100%)" stroke-opacity="1" stroke-miterlimit="4" d="M 105.109991 140.325969 L 105.109991 131.984543 L 120.188723 131.984543 " transform="matrix(0.0974054, 0, 0, -0.0974054, 0, 39.156789)"/>
<path fill-rule="nonzero" fill="rgb(17.227173%, 41.427612%, 63.371277%)" fill-opacity="1" stroke-width="3.72127" stroke-linecap="round" stroke-linejoin="round" stroke="rgb(100%, 100%, 100%)" stroke-opacity="1" stroke-miterlimit="4" d="M 126.324483 125.207134 L 126.324483 116.865708 L 141.363112 116.865708 " transform="matrix(0.0974054, 0, 0, -0.0974054, 0, 39.156789)"/>
<path fill-rule="nonzero" fill="rgb(17.227173%, 41.427612%, 63.371277%)" fill-opacity="1" stroke-width="3.72127" stroke-linecap="round" stroke-linejoin="round" stroke="rgb(100%, 100%, 100%)" stroke-opacity="1" stroke-miterlimit="4" d="M 147.258255 125.207134 L 147.258255 116.865708 L 162.296884 116.865708 " transform="matrix(0.0974054, 0, 0, -0.0974054, 0, 39.156789)"/>
<path fill-rule="nonzero" fill="rgb(17.227173%, 41.427612%, 63.371277%)" fill-opacity="1" stroke-width="3.72127" stroke-linecap="round" stroke-linejoin="round" stroke="rgb(100%, 100%, 100%)" stroke-opacity="1" stroke-miterlimit="4" d="M 84.216322 125.006619 L 84.216322 116.665193 L 99.214848 116.665193 " transform="matrix(0.0974054, 0, 0, -0.0974054, 0, 39.156789)"/>
<path fill-rule="nonzero" fill="rgb(17.227173%, 41.427612%, 63.371277%)" fill-opacity="1" stroke-width="3.72127" stroke-linecap="round" stroke-linejoin="round" stroke="rgb(100%, 100%, 100%)" stroke-opacity="1" stroke-miterlimit="4" d="M 105.109991 125.006619 L 105.109991 116.665193 L 120.188723 116.665193 " transform="matrix(0.0974054, 0, 0, -0.0974054, 0, 39.156789)"/>
<path fill-rule="nonzero" fill="rgb(17.227173%, 41.427612%, 63.371277%)" fill-opacity="1" stroke-width="3.72127" stroke-linecap="round" stroke-linejoin="round" stroke="rgb(100%, 100%, 100%)" stroke-opacity="1" stroke-miterlimit="4" d="M 184.353539 212.511388 L 184.353539 204.169962 L 199.352065 204.169962 " transform="matrix(0.0974054, 0, 0, -0.0974054, 0, 39.156789)"/>
<path fill-rule="nonzero" fill="rgb(17.227173%, 41.427612%, 63.371277%)" fill-opacity="1" stroke-width="3.72127" stroke-linecap="round" stroke-linejoin="round" stroke="rgb(100%, 100%, 100%)" stroke-opacity="1" stroke-miterlimit="4" d="M 205.287311 212.511388 L 205.287311 204.169962 L 220.32594 204.169962 " transform="matrix(0.0974054, 0, 0, -0.0974054, 0, 39.156789)"/>
<path fill-rule="nonzero" fill="rgb(17.227173%, 41.427612%, 63.371277%)" fill-opacity="1" stroke-width="3.72127" stroke-linecap="round" stroke-linejoin="round" stroke="rgb(100%, 100%, 100%)" stroke-opacity="1" stroke-miterlimit="4" d="M 184.112921 196.831111 L 184.112921 188.569891 L 199.111447 188.569891 " transform="matrix(0.0974054, 0, 0, -0.0974054, 0, 39.156789)"/>
<path fill-rule="nonzero" fill="rgb(17.227173%, 41.427612%, 63.371277%)" fill-opacity="1" stroke-width="3.72127" stroke-linecap="round" stroke-linejoin="round" stroke="rgb(100%, 100%, 100%)" stroke-opacity="1" stroke-miterlimit="4" d="M 205.046693 196.831111 L 205.046693 188.569891 L 220.045219 188.569891 " transform="matrix(0.0974054, 0, 0, -0.0974054, 0, 39.156789)"/>
<path fill-rule="nonzero" fill="rgb(17.227173%, 41.427612%, 63.371277%)" fill-opacity="1" stroke-width="3.72127" stroke-linecap="round" stroke-linejoin="round" stroke="rgb(100%, 100%, 100%)" stroke-opacity="1" stroke-miterlimit="4" d="M 184.112921 182.795058 L 184.112921 174.493734 L 199.111447 174.493734 " transform="matrix(0.0974054, 0, 0, -0.0974054, 0, 39.156789)"/>
<path fill-rule="nonzero" fill="rgb(17.227173%, 41.427612%, 63.371277%)" fill-opacity="1" stroke-width="3.72127" stroke-linecap="round" stroke-linejoin="round" stroke="rgb(100%, 100%, 100%)" stroke-opacity="1" stroke-miterlimit="4" d="M 205.046693 182.795058 L 205.046693 174.493734 L 220.045219 174.493734 " transform="matrix(0.0974054, 0, 0, -0.0974054, 0, 39.156789)"/>
<path fill-rule="nonzero" fill="rgb(17.227173%, 41.427612%, 63.371277%)" fill-opacity="1" stroke-width="3.72127" stroke-linecap="round" stroke-linejoin="round" stroke="rgb(100%, 100%, 100%)" stroke-opacity="1" stroke-miterlimit="4" d="M 34.087559 142.210811 L 34.087559 133.909488 L 49.126188 133.909488 " transform="matrix(0.0974054, 0, 0, -0.0974054, 0, 39.156789)"/>
<path fill-rule="nonzero" fill="rgb(17.227173%, 41.427612%, 63.371277%)" fill-opacity="1" stroke-width="3.72127" stroke-linecap="round" stroke-linejoin="round" stroke="rgb(100%, 100%, 100%)" stroke-opacity="1" stroke-miterlimit="4" d="M 55.061433 142.210811 L 55.061433 133.909488 L 70.100062 133.909488 " transform="matrix(0.0974054, 0, 0, -0.0974054, 0, 39.156789)"/>
<path fill-rule="nonzero" fill="rgb(17.227173%, 41.427612%, 63.371277%)" fill-opacity="1" stroke-width="3.72127" stroke-linecap="round" stroke-linejoin="round" stroke="rgb(100%, 100%, 100%)" stroke-opacity="1" stroke-miterlimit="4" d="M 35.210443 126.61074 L 35.210443 118.229211 L 50.249072 118.229211 " transform="matrix(0.0974054, 0, 0, -0.0974054, 0, 39.156789)"/>
<path fill-rule="nonzero" fill="rgb(17.227173%, 41.427612%, 63.371277%)" fill-opacity="1" stroke-width="3.72127" stroke-linecap="round" stroke-linejoin="round" stroke="rgb(100%, 100%, 100%)" stroke-opacity="1" stroke-miterlimit="4" d="M 56.144215 126.61074 L 56.144215 118.229211 L 71.222947 118.229211 " transform="matrix(0.0974054, 0, 0, -0.0974054, 0, 39.156789)"/>
<path fill-rule="nonzero" fill="rgb(17.227173%, 41.427612%, 63.371277%)" fill-opacity="1" stroke-width="3.72127" stroke-linecap="round" stroke-linejoin="round" stroke="rgb(100%, 100%, 100%)" stroke-opacity="1" stroke-miterlimit="4" d="M 35.210443 112.49448 L 35.210443 104.193157 L 50.249072 104.193157 " transform="matrix(0.0974054, 0, 0, -0.0974054, 0, 39.156789)"/>
<path fill-rule="nonzero" fill="rgb(17.227173%, 41.427612%, 63.371277%)" fill-opacity="1" stroke-width="3.72127" stroke-linecap="round" stroke-linejoin="round" stroke="rgb(100%, 100%, 100%)" stroke-opacity="1" stroke-miterlimit="4" d="M 56.144215 112.49448 L 56.144215 104.193157 L 71.222947 104.193157 " transform="matrix(0.0974054, 0, 0, -0.0974054, 0, 39.156789)"/>
<path fill-rule="nonzero" fill="rgb(17.227173%, 41.427612%, 63.371277%)" fill-opacity="1" stroke-width="3.72127" stroke-linecap="round" stroke-linejoin="round" stroke="rgb(100%, 100%, 100%)" stroke-opacity="1" stroke-miterlimit="4" d="M 126.926028 238.698654 L 126.926028 230.357228 L 141.924554 230.357228 " transform="matrix(0.0974054, 0, 0, -0.0974054, 0, 39.156789)"/>
<path fill-rule="nonzero" fill="rgb(17.227173%, 41.427612%, 63.371277%)" fill-opacity="1" stroke-width="3.72127" stroke-linecap="round" stroke-linejoin="round" stroke="rgb(100%, 100%, 100%)" stroke-opacity="1" stroke-miterlimit="4" d="M 147.8598 238.698654 L 147.8598 230.357228 L 162.898429 230.357228 " transform="matrix(0.0974054, 0, 0, -0.0974054, 0, 39.156789)"/>
<path fill-rule="nonzero" fill="rgb(17.227173%, 41.427612%, 63.371277%)" fill-opacity="1" stroke-width="3.72127" stroke-linecap="round" stroke-linejoin="round" stroke="rgb(100%, 100%, 100%)" stroke-opacity="1" stroke-miterlimit="4" d="M 84.777764 238.458036 L 84.777764 230.156713 L 99.77629 230.156713 " transform="matrix(0.0974054, 0, 0, -0.0974054, 0, 39.156789)"/>
<path fill-rule="nonzero" fill="rgb(17.227173%, 41.427612%, 63.371277%)" fill-opacity="1" stroke-width="3.72127" stroke-linecap="round" stroke-linejoin="round" stroke="rgb(100%, 100%, 100%)" stroke-opacity="1" stroke-miterlimit="4" d="M 105.711536 238.458036 L 105.711536 230.156713 L 120.750165 230.156713 " transform="matrix(0.0974054, 0, 0, -0.0974054, 0, 39.156789)"/>
<path fill-rule="nonzero" fill="rgb(17.227173%, 41.427612%, 63.371277%)" fill-opacity="1" stroke-width="3.72127" stroke-linecap="round" stroke-linejoin="round" stroke="rgb(100%, 100%, 100%)" stroke-opacity="1" stroke-miterlimit="4" d="M 126.725513 221.374154 L 126.725513 213.032728 L 141.764142 213.032728 " transform="matrix(0.0974054, 0, 0, -0.0974054, 0, 39.156789)"/>
<path fill-rule="nonzero" fill="rgb(17.227173%, 41.427612%, 63.371277%)" fill-opacity="1" stroke-width="3.72127" stroke-linecap="round" stroke-linejoin="round" stroke="rgb(100%, 100%, 100%)" stroke-opacity="1" stroke-miterlimit="4" d="M 147.699388 221.374154 L 147.699388 213.032728 L 162.697914 213.032728 " transform="matrix(0.0974054, 0, 0, -0.0974054, 0, 39.156789)"/>
<path fill-rule="nonzero" fill="rgb(17.227173%, 41.427612%, 63.371277%)" fill-opacity="1" stroke-width="3.72127" stroke-linecap="round" stroke-linejoin="round" stroke="rgb(100%, 100%, 100%)" stroke-opacity="1" stroke-miterlimit="4" d="M 84.617352 221.173639 L 84.617352 212.832212 L 99.655981 212.832212 " transform="matrix(0.0974054, 0, 0, -0.0974054, 0, 39.156789)"/>
<path fill-rule="nonzero" fill="rgb(17.227173%, 41.427612%, 63.371277%)" fill-opacity="1" stroke-width="3.72127" stroke-linecap="round" stroke-linejoin="round" stroke="rgb(100%, 100%, 100%)" stroke-opacity="1" stroke-miterlimit="4" d="M 105.591227 221.173639 L 105.591227 212.832212 L 120.589753 212.832212 " transform="matrix(0.0974054, 0, 0, -0.0974054, 0, 39.156789)"/>
<path fill-rule="nonzero" fill="rgb(17.227173%, 41.427612%, 63.371277%)" fill-opacity="1" stroke-width="3.72127" stroke-linecap="round" stroke-linejoin="round" stroke="rgb(100%, 100%, 100%)" stroke-opacity="1" stroke-miterlimit="4" d="M 126.725513 204.81161 L 126.725513 196.470184 L 141.764142 196.470184 " transform="matrix(0.0974054, 0, 0, -0.0974054, 0, 39.156789)"/>
<path fill-rule="nonzero" fill="rgb(17.227173%, 41.427612%, 63.371277%)" fill-opacity="1" stroke-width="3.72127" stroke-linecap="round" stroke-linejoin="round" stroke="rgb(100%, 100%, 100%)" stroke-opacity="1" stroke-miterlimit="4" d="M 147.699388 204.81161 L 147.699388 196.470184 L 162.697914 196.470184 " transform="matrix(0.0974054, 0, 0, -0.0974054, 0, 39.156789)"/>
<path fill-rule="nonzero" fill="rgb(17.227173%, 41.427612%, 63.371277%)" fill-opacity="1" stroke-width="3.72127" stroke-linecap="round" stroke-linejoin="round" stroke="rgb(100%, 100%, 100%)" stroke-opacity="1" stroke-miterlimit="4" d="M 84.617352 204.570992 L 84.617352 196.269669 L 99.655981 196.269669 " transform="matrix(0.0974054, 0, 0, -0.0974054, 0, 39.156789)"/>
<path fill-rule="nonzero" fill="rgb(17.227173%, 41.427612%, 63.371277%)" fill-opacity="1" stroke-width="3.72127" stroke-linecap="round" stroke-linejoin="round" stroke="rgb(100%, 100%, 100%)" stroke-opacity="1" stroke-miterlimit="4" d="M 105.591227 204.570992 L 105.591227 196.269669 L 120.589753 196.269669 " transform="matrix(0.0974054, 0, 0, -0.0974054, 0, 39.156789)"/>
<path fill-rule="nonzero" fill="rgb(17.227173%, 41.427612%, 63.371277%)" fill-opacity="1" stroke-width="3.72127" stroke-linecap="round" stroke-linejoin="round" stroke="rgb(100%, 100%, 100%)" stroke-opacity="1" stroke-miterlimit="4" d="M 126.725513 189.49226 L 126.725513 181.150834 L 141.764142 181.150834 " transform="matrix(0.0974054, 0, 0, -0.0974054, 0, 39.156789)"/>
<path fill-rule="nonzero" fill="rgb(17.227173%, 41.427612%, 63.371277%)" fill-opacity="1" stroke-width="3.72127" stroke-linecap="round" stroke-linejoin="round" stroke="rgb(100%, 100%, 100%)" stroke-opacity="1" stroke-miterlimit="4" d="M 147.699388 189.49226 L 147.699388 181.150834 L 162.697914 181.150834 " transform="matrix(0.0974054, 0, 0, -0.0974054, 0, 39.156789)"/>
<path fill-rule="nonzero" fill="rgb(17.227173%, 41.427612%, 63.371277%)" fill-opacity="1" stroke-width="3.72127" stroke-linecap="round" stroke-linejoin="round" stroke="rgb(100%, 100%, 100%)" stroke-opacity="1" stroke-miterlimit="4" d="M 84.617352 189.291745 L 84.617352 180.950319 L 99.655981 180.950319 " transform="matrix(0.0974054, 0, 0, -0.0974054, 0, 39.156789)"/>
<path fill-rule="nonzero" fill="rgb(17.227173%, 41.427612%, 63.371277%)" fill-opacity="1" stroke-width="3.72127" stroke-linecap="round" stroke-linejoin="round" stroke="rgb(100%, 100%, 100%)" stroke-opacity="1" stroke-miterlimit="4" d="M 105.591227 189.291745 L 105.591227 180.950319 L 120.589753 180.950319 " transform="matrix(0.0974054, 0, 0, -0.0974054, 0, 39.156789)"/>
<path fill="none" stroke-width="3.72127" stroke-linecap="round" stroke-linejoin="round" stroke="rgb(100%, 100%, 100%)" stroke-opacity="1" stroke-miterlimit="4" d="M 183.8322 168.03715 L 183.8322 159.735827 " transform="matrix(0.0974054, 0, 0, -0.0974054, 0, 39.156789)"/>
<path fill="none" stroke-width="3.72127" stroke-linecap="round" stroke-linejoin="round" stroke="rgb(100%, 100%, 100%)" stroke-opacity="1" stroke-miterlimit="4" d="M 183.8322 159.735827 L 198.910932 159.735827 " transform="matrix(0.0974054, 0, 0, -0.0974054, 0, 39.156789)"/>
<path fill-rule="nonzero" fill="rgb(17.227173%, 41.427612%, 63.371277%)" fill-opacity="1" stroke-width="3.72127" stroke-linecap="round" stroke-linejoin="round" stroke="rgb(100%, 100%, 100%)" stroke-opacity="1" stroke-miterlimit="4" d="M 204.806075 168.03715 L 204.806075 159.735827 L 219.844704 159.735827 " transform="matrix(0.0974054, 0, 0, -0.0974054, 0, 39.156789)"/>
<path fill="none" stroke-width="3.72127" stroke-linecap="round" stroke-linejoin="round" stroke="rgb(100%, 100%, 100%)" stroke-opacity="1" stroke-miterlimit="4" d="M 183.8322 153.720375 L 183.8322 145.419052 " transform="matrix(0.0974054, 0, 0, -0.0974054, 0, 39.156789)"/>
<path fill="none" stroke-width="3.72127" stroke-linecap="round" stroke-linejoin="round" stroke="rgb(100%, 100%, 100%)" stroke-opacity="1" stroke-miterlimit="4" d="M 183.8322 145.419052 L 198.910932 145.419052 " transform="matrix(0.0974054, 0, 0, -0.0974054, 0, 39.156789)"/>
<path fill-rule="nonzero" fill="rgb(17.227173%, 41.427612%, 63.371277%)" fill-opacity="1" stroke-width="3.72127" stroke-linecap="round" stroke-linejoin="round" stroke="rgb(100%, 100%, 100%)" stroke-opacity="1" stroke-miterlimit="4" d="M 204.806075 153.720375 L 204.806075 145.419052 L 219.844704 145.419052 " transform="matrix(0.0974054, 0, 0, -0.0974054, 0, 39.156789)"/>
<path fill-rule="evenodd" fill="rgb(99.993896%, 99.992371%, 99.992371%)" fill-opacity="1" d="M 15.597656 14.484375 L 15.597656 14.085938 L 15.601562 13.808594 L 15.625 13.550781 L 15.664062 13.304688 L 15.714844 13.074219 L 15.777344 12.855469 L 15.847656 12.648438 L 15.929688 12.457031 L 16.019531 12.273438 L 16.121094 12.105469 L 16.226562 11.949219 L 16.339844 11.800781 L 16.457031 11.664062 L 16.578125 11.539062 L 16.703125 11.421875 L 16.828125 11.316406 L 16.953125 11.21875 L 17.082031 11.128906 L 17.207031 11.050781 L 17.332031 10.976562 L 17.453125 10.914062 L 17.570312 10.855469 L 17.683594 10.804688 L 17.789062 10.761719 L 17.890625 10.726562 L 17.980469 10.691406 L 18.0625 10.667969 L 18.132812 10.648438 L 18.195312 10.628906 L 18.28125 10.609375 L 18.3125 10.601562 L 15.492188 10.601562 L 15.460938 10.609375 L 15.375 10.628906 L 15.3125 10.648438 L 15.242188 10.667969 L 15.160156 10.691406 L 15.066406 10.726562 L 14.96875 10.761719 L 14.863281 10.804688 L 14.75 10.855469 L 14.632812 10.914062 L 14.511719 10.976562 L 14.386719 11.050781 L 14.261719 11.128906 L 14.132812 11.21875 L 14.003906 11.316406 L 13.878906 11.421875 L 13.753906 11.539062 L 13.632812 11.664062 L 13.519531 11.800781 L 13.40625 11.949219 L 13.296875 12.105469 L 13.199219 12.273438 L 13.109375 12.457031 L 13.023438 12.648438 L 12.953125 12.855469 L 12.890625 13.074219 L 12.84375 13.304688 L 12.804688 13.550781 L 12.78125 13.671875 L 12.773438 13.945312 L 12.773438 14.601562 L 15.597656 14.484375 "/>
<path fill-rule="nonzero" fill="rgb(9.594727%, 9.32312%, 9.126282%)" fill-opacity="1" d="M 15.785156 14.085938 L 15.40625 14.085938 L 15.40625 14.484375 L 15.785156 14.484375 L 15.785156 14.0625 L 15.78125 14.039062 L 15.777344 14.023438 L 15.761719 13.984375 L 15.75 13.96875 L 15.726562 13.945312 L 15.710938 13.933594 L 15.699219 13.925781 L 15.679688 13.914062 L 15.664062 13.910156 L 15.648438 13.902344 L 15.632812 13.902344 L 15.613281 13.898438 L 15.578125 13.898438 L 15.5625 13.902344 L 15.542969 13.902344 L 15.527344 13.910156 L 15.511719 13.914062 L 15.496094 13.925781 L 15.480469 13.933594 L 15.46875 13.945312 L 15.453125 13.957031 L 15.441406 13.96875 L 15.433594 13.984375 L 15.421875 14.003906 L 15.417969 14.023438 L 15.410156 14.039062 L 15.410156 14.0625 L 15.40625 14.085938 L 15.785156 14.085938 "/>
<path fill-rule="nonzero" fill="rgb(9.594727%, 9.32312%, 9.126282%)" fill-opacity="1" d="M 18.3125 10.789062 L 18.28125 10.421875 L 18.242188 10.429688 L 18.152344 10.449219 L 18.082031 10.464844 L 18.007812 10.488281 L 17.921875 10.515625 L 17.824219 10.550781 L 17.722656 10.589844 L 17.609375 10.636719 L 17.550781 10.660156 L 17.492188 10.6875 L 17.429688 10.714844 L 17.367188 10.746094 L 17.242188 10.816406 L 17.175781 10.851562 L 17.109375 10.890625 L 17.046875 10.933594 L 16.980469 10.976562 L 16.910156 11.019531 L 16.84375 11.066406 L 16.777344 11.117188 L 16.707031 11.171875 L 16.644531 11.226562 L 16.574219 11.285156 L 16.511719 11.34375 L 16.445312 11.40625 L 16.378906 11.472656 L 16.316406 11.539062 L 16.253906 11.609375 L 16.191406 11.683594 L 16.074219 11.839844 L 16.015625 11.921875 L 15.90625 12.09375 L 15.804688 12.28125 L 15.757812 12.378906 L 15.671875 12.582031 L 15.59375 12.800781 L 15.5625 12.914062 L 15.53125 13.03125 L 15.503906 13.148438 L 15.476562 13.269531 L 15.46875 13.335938 L 15.457031 13.398438 L 15.425781 13.664062 L 15.421875 13.730469 L 15.40625 14.011719 L 15.40625 14.085938 L 15.785156 14.085938 L 15.785156 13.953125 L 15.789062 13.882812 L 15.804688 13.632812 L 15.8125 13.574219 L 15.820312 13.511719 L 15.828125 13.453125 L 15.839844 13.394531 L 15.847656 13.339844 L 15.871094 13.226562 L 15.894531 13.117188 L 15.925781 13.011719 L 15.957031 12.910156 L 15.988281 12.8125 L 16.023438 12.714844 L 16.058594 12.621094 L 16.101562 12.535156 L 16.140625 12.445312 L 16.1875 12.363281 L 16.230469 12.28125 L 16.277344 12.203125 L 16.378906 12.054688 L 16.429688 11.984375 L 16.539062 11.851562 L 16.59375 11.789062 L 16.769531 11.613281 L 16.824219 11.5625 L 16.886719 11.511719 L 16.945312 11.460938 L 17.003906 11.414062 L 17.066406 11.371094 L 17.125 11.328125 L 17.1875 11.285156 L 17.246094 11.246094 L 17.363281 11.175781 L 17.425781 11.140625 L 17.480469 11.109375 L 17.539062 11.082031 L 17.597656 11.050781 L 17.652344 11.027344 L 17.703125 11 L 17.753906 10.976562 L 17.859375 10.9375 L 17.953125 10.898438 L 18.039062 10.871094 L 18.117188 10.847656 L 18.1875 10.828125 L 18.242188 10.8125 L 18.324219 10.792969 L 18.347656 10.789062 L 18.3125 10.417969 L 18.347656 10.789062 L 18.367188 10.785156 L 18.40625 10.769531 L 18.425781 10.757812 L 18.4375 10.746094 L 18.453125 10.734375 L 18.464844 10.71875 L 18.476562 10.707031 L 18.484375 10.691406 L 18.488281 10.675781 L 18.496094 10.660156 L 18.5 10.640625 L 18.5 10.570312 L 18.496094 10.554688 L 18.488281 10.539062 L 18.484375 10.523438 L 18.476562 10.507812 L 18.464844 10.492188 L 18.457031 10.476562 L 18.445312 10.464844 L 18.414062 10.441406 L 18.402344 10.433594 L 18.382812 10.425781 L 18.363281 10.421875 L 18.347656 10.417969 L 18.304688 10.417969 L 18.28125 10.421875 L 18.3125 10.789062 "/>
<path fill-rule="nonzero" fill="rgb(9.594727%, 9.32312%, 9.126282%)" fill-opacity="1" d="M 15.460938 10.421875 L 15.492188 10.789062 L 18.3125 10.789062 L 18.3125 10.417969 L 15.492188 10.417969 L 15.460938 10.421875 L 15.492188 10.417969 L 15.46875 10.417969 L 15.449219 10.421875 L 15.425781 10.425781 L 15.394531 10.441406 L 15.378906 10.453125 L 15.363281 10.460938 L 15.351562 10.476562 L 15.339844 10.488281 L 15.328125 10.503906 L 15.324219 10.519531 L 15.308594 10.550781 L 15.304688 10.570312 L 15.304688 10.640625 L 15.308594 10.65625 L 15.324219 10.6875 L 15.328125 10.703125 L 15.351562 10.734375 L 15.363281 10.746094 L 15.378906 10.757812 L 15.425781 10.78125 L 15.449219 10.785156 L 15.46875 10.789062 L 15.492188 10.789062 L 15.460938 10.421875 "/>
<path fill-rule="nonzero" fill="rgb(9.594727%, 9.32312%, 9.126282%)" fill-opacity="1" d="M 12.964844 13.945312 L 12.964844 13.8125 L 12.96875 13.746094 L 12.972656 13.683594 L 12.972656 13.757812 L 12.980469 13.695312 L 12.984375 13.632812 L 12.992188 13.570312 L 13.007812 13.453125 L 13.019531 13.394531 L 13.027344 13.335938 L 13.0625 13.171875 L 13.074219 13.121094 L 13.101562 13.011719 L 13.132812 12.910156 L 13.164062 12.8125 L 13.199219 12.714844 L 13.238281 12.621094 L 13.277344 12.53125 L 13.320312 12.445312 L 13.367188 12.363281 L 13.410156 12.28125 L 13.457031 12.203125 L 13.558594 12.054688 L 13.609375 11.984375 L 13.71875 11.851562 L 13.828125 11.726562 L 13.886719 11.671875 L 13.945312 11.613281 L 14.003906 11.5625 L 14.066406 11.511719 L 14.125 11.460938 L 14.183594 11.414062 L 14.246094 11.367188 L 14.304688 11.324219 L 14.367188 11.285156 L 14.425781 11.246094 L 14.484375 11.210938 L 14.542969 11.171875 L 14.660156 11.109375 L 14.71875 11.082031 L 14.882812 11 L 14.933594 10.976562 L 15.039062 10.9375 L 15.132812 10.898438 L 15.21875 10.871094 L 15.296875 10.847656 L 15.363281 10.828125 L 15.421875 10.8125 L 15.503906 10.792969 L 15.523438 10.789062 L 15.460938 10.421875 L 15.421875 10.429688 L 15.328125 10.449219 L 15.261719 10.464844 L 15.1875 10.488281 L 15.101562 10.515625 L 15.003906 10.550781 L 14.898438 10.589844 L 14.789062 10.632812 L 14.671875 10.6875 L 14.609375 10.714844 L 14.546875 10.746094 L 14.421875 10.816406 L 14.355469 10.851562 L 14.222656 10.929688 L 14.15625 10.972656 L 14.089844 11.019531 L 14.019531 11.066406 L 13.953125 11.117188 L 13.886719 11.171875 L 13.820312 11.222656 L 13.753906 11.285156 L 13.6875 11.34375 L 13.621094 11.40625 L 13.496094 11.539062 L 13.433594 11.609375 L 13.371094 11.683594 L 13.3125 11.757812 L 13.25 11.839844 L 13.140625 12.003906 L 13.085938 12.09375 L 13.035156 12.1875 L 12.984375 12.277344 L 12.9375 12.375 L 12.894531 12.480469 L 12.851562 12.582031 L 12.8125 12.6875 L 12.773438 12.800781 L 12.710938 13.027344 L 12.695312 13.089844 L 12.679688 13.148438 L 12.65625 13.273438 L 12.648438 13.335938 L 12.636719 13.398438 L 12.625 13.464844 L 12.621094 13.53125 L 12.597656 13.730469 L 12.597656 13.800781 L 12.59375 13.730469 L 12.585938 13.871094 L 12.585938 13.96875 L 12.589844 13.988281 L 12.597656 14.007812 L 12.601562 14.027344 L 12.613281 14.042969 L 12.621094 14.058594 L 12.632812 14.074219 L 12.644531 14.085938 L 12.660156 14.097656 L 12.671875 14.105469 L 12.691406 14.113281 L 12.707031 14.121094 L 12.738281 14.128906 L 12.757812 14.132812 L 12.792969 14.132812 L 12.808594 14.128906 L 12.828125 14.125 L 12.84375 14.121094 L 12.890625 14.097656 L 12.902344 14.085938 L 12.917969 14.074219 L 12.929688 14.058594 L 12.9375 14.042969 L 12.949219 14.027344 L 12.960938 13.96875 L 12.964844 13.945312 "/>
<path fill-rule="nonzero" fill="rgb(9.594727%, 9.32312%, 9.126282%)" fill-opacity="1" d="M 12.792969 14.789062 L 12.964844 14.601562 L 12.964844 13.945312 L 12.585938 13.945312 L 12.585938 14.601562 L 12.792969 14.789062 L 12.585938 14.601562 L 12.585938 14.625 L 12.589844 14.648438 L 12.597656 14.667969 L 12.601562 14.6875 L 12.613281 14.703125 L 12.621094 14.71875 L 12.644531 14.742188 L 12.660156 14.753906 L 12.671875 14.765625 L 12.691406 14.773438 L 12.707031 14.78125 L 12.738281 14.789062 L 12.808594 14.789062 L 12.828125 14.785156 L 12.84375 14.78125 L 12.875 14.765625 L 12.890625 14.753906 L 12.902344 14.742188 L 12.917969 14.730469 L 12.929688 14.71875 L 12.9375 14.703125 L 12.949219 14.6875 L 12.957031 14.648438 L 12.964844 14.601562 L 12.792969 14.789062 "/>
<path fill-rule="nonzero" fill="rgb(9.594727%, 9.32312%, 9.126282%)" fill-opacity="1" d="M 15.785156 14.484375 L 15.578125 14.296875 L 12.757812 14.417969 L 12.792969 14.789062 L 15.613281 14.667969 L 15.785156 14.484375 L 15.613281 14.667969 L 15.636719 14.667969 L 15.65625 14.664062 L 15.675781 14.65625 L 15.695312 14.644531 L 15.710938 14.636719 L 15.726562 14.625 L 15.738281 14.613281 L 15.75 14.597656 L 15.757812 14.585938 L 15.765625 14.566406 L 15.773438 14.554688 L 15.777344 14.535156 L 15.78125 14.519531 L 15.78125 14.503906 L 15.785156 14.484375 L 15.78125 14.46875 L 15.78125 14.449219 L 15.773438 14.417969 L 15.75 14.371094 L 15.738281 14.355469 L 15.726562 14.34375 L 15.695312 14.320312 L 15.679688 14.316406 L 15.664062 14.308594 L 15.644531 14.300781 L 15.625 14.296875 L 15.578125 14.296875 L 15.785156 14.484375 "/>
<path fill-rule="nonzero" fill="rgb(6.266785%, 5.734253%, 5.047607%)" fill-opacity="1" d="M 15.40625 14.085938 L 15.40625 14.484375 L 15.785156 14.484375 L 15.785156 14.085938 L 15.40625 14.085938 "/>
<path fill-rule="nonzero" fill="rgb(6.266785%, 5.734253%, 5.047607%)" fill-opacity="1" d="M 15.492188 10.789062 L 18.3125 10.789062 L 18.3125 10.417969 L 15.492188 10.417969 L 15.492188 10.789062 "/>
<path fill-rule="nonzero" fill="rgb(6.266785%, 5.734253%, 5.047607%)" fill-opacity="1" d="M 12.964844 14.601562 L 12.964844 13.945312 L 12.585938 13.945312 L 12.585938 14.601562 L 12.964844 14.601562 "/>
<path fill-rule="evenodd" fill="rgb(99.993896%, 99.992371%, 99.992371%)" fill-opacity="1" d="M 15.335938 10.601562 L 18.679688 10.601562 L 19.039062 10.652344 L 19.375 10.738281 L 19.6875 10.859375 L 19.980469 11.011719 L 20.25 11.195312 L 20.5 11.402344 L 20.730469 11.632812 L 20.941406 11.886719 L 21.136719 12.160156 L 21.3125 12.445312 L 21.472656 12.75 L 21.613281 13.0625 L 21.742188 13.386719 L 21.859375 13.71875 L 21.960938 14.050781 L 22.050781 14.386719 L 22.128906 14.722656 L 22.195312 15.054688 L 22.25 14.769531 L 22.296875 15.085938 L 22.335938 15.390625 L 22.367188 15.683594 L 22.394531 15.960938 L 22.410156 16.21875 L 22.425781 15.140625 L 22.433594 15.355469 L 22.4375 15.542969 L 22.441406 15.699219 L 22.441406 16 L 25.367188 16 L 20.769531 20.570312 L 16.171875 16 L 19.097656 16 L 19.097656 15.535156 L 19.089844 15.34375 L 19.082031 15.128906 L 19.066406 16.199219 L 19.050781 15.941406 L 19.023438 15.660156 L 18.992188 15.363281 L 18.953125 15.054688 L 18.90625 15.34375 L 18.847656 15.015625 L 18.78125 14.679688 L 18.703125 14.339844 L 18.617188 14.003906 L 18.515625 13.667969 L 18.398438 13.335938 L 18.269531 13.011719 L 18.125 12.695312 L 17.96875 12.394531 L 17.792969 12.105469 L 17.597656 11.835938 L 17.386719 11.585938 L 17.15625 11.359375 L 16.90625 11.152344 L 16.636719 10.976562 L 16.347656 10.832031 L 16.03125 10.71875 L 15.695312 10.644531 L 15.335938 10.601562 "/>
<path fill-rule="nonzero" fill="rgb(9.594727%, 9.32312%, 9.126282%)" fill-opacity="1" d="M 18.695312 10.417969 L 15.335938 10.417969 L 15.335938 10.789062 L 18.679688 10.789062 L 18.695312 10.417969 L 18.679688 10.789062 L 18.699219 10.789062 L 18.722656 10.785156 L 18.742188 10.78125 L 18.761719 10.773438 L 18.792969 10.757812 L 18.808594 10.746094 L 18.820312 10.734375 L 18.832031 10.71875 L 18.855469 10.671875 L 18.863281 10.640625 L 18.867188 10.621094 L 18.867188 10.585938 L 18.863281 10.570312 L 18.859375 10.550781 L 18.855469 10.535156 L 18.832031 10.488281 L 18.820312 10.476562 L 18.808594 10.460938 L 18.792969 10.453125 L 18.777344 10.441406 L 18.761719 10.433594 L 18.742188 10.425781 L 18.722656 10.421875 L 18.699219 10.417969 L 18.679688 10.417969 L 18.695312 10.417969 "/>
<path fill-rule="nonzero" fill="rgb(9.594727%, 9.32312%, 9.126282%)" fill-opacity="1" d="M 22.441406 15.8125 L 22.628906 16.007812 L 22.632812 15.925781 L 22.632812 15.699219 L 22.628906 15.539062 L 22.621094 15.347656 L 22.613281 15.132812 L 22.601562 16.207031 L 22.589844 16.078125 L 22.582031 15.945312 L 22.570312 15.808594 L 22.554688 15.667969 L 22.539062 15.519531 L 22.523438 15.367188 L 22.503906 15.214844 L 22.484375 15.058594 L 22.460938 14.902344 L 22.4375 14.738281 L 22.410156 15.183594 L 22.378906 15.019531 L 22.347656 14.851562 L 22.308594 14.683594 L 22.273438 14.511719 L 22.230469 14.339844 L 22.1875 14.171875 L 22.140625 14 L 22.089844 13.828125 L 22.039062 13.660156 L 22.007812 13.574219 L 21.980469 13.492188 L 21.953125 13.40625 L 21.921875 13.324219 L 21.886719 13.238281 L 21.824219 13.074219 L 21.753906 12.910156 L 21.714844 12.828125 L 21.679688 12.746094 L 21.601562 12.589844 L 21.558594 12.507812 L 21.519531 12.433594 L 21.476562 12.355469 L 21.429688 12.277344 L 21.386719 12.203125 L 21.292969 12.054688 L 21.246094 11.984375 L 21.195312 11.910156 L 21.144531 11.839844 L 21.089844 11.769531 L 21.039062 11.703125 L 20.929688 11.570312 L 20.8125 11.445312 L 20.691406 11.324219 L 20.566406 11.207031 L 20.433594 11.097656 L 20.363281 11.042969 L 20.292969 10.992188 L 20.226562 10.945312 L 20.152344 10.894531 L 20.003906 10.808594 L 19.925781 10.765625 L 19.847656 10.726562 L 19.765625 10.6875 L 19.6875 10.65625 L 19.605469 10.621094 L 19.519531 10.589844 L 19.347656 10.535156 L 19.167969 10.488281 L 19.074219 10.46875 L 18.984375 10.453125 L 18.886719 10.4375 L 18.792969 10.425781 L 18.695312 10.417969 L 18.664062 10.789062 L 18.75 10.796875 L 18.835938 10.808594 L 18.917969 10.820312 L 19.003906 10.835938 L 19.085938 10.855469 L 19.242188 10.894531 L 19.320312 10.917969 L 19.394531 10.945312 L 19.46875 10.96875 L 19.539062 11 L 19.613281 11.03125 L 19.679688 11.0625 L 19.820312 11.132812 L 19.882812 11.171875 L 19.949219 11.214844 L 20.011719 11.253906 L 20.078125 11.296875 L 20.136719 11.34375 L 20.199219 11.390625 L 20.257812 11.4375 L 20.375 11.539062 L 20.429688 11.589844 L 20.539062 11.699219 L 20.589844 11.757812 L 20.644531 11.816406 L 20.695312 11.875 L 20.746094 11.9375 L 20.886719 12.125 L 20.933594 12.191406 L 20.976562 12.257812 L 21.023438 12.328125 L 21.0625 12.394531 L 21.109375 12.464844 L 21.148438 12.539062 L 21.1875 12.609375 L 21.265625 12.757812 L 21.300781 12.832031 L 21.339844 12.90625 L 21.375 12.980469 L 21.410156 13.058594 L 21.441406 13.136719 L 21.476562 13.214844 L 21.503906 13.292969 L 21.566406 13.449219 L 21.597656 13.53125 L 21.652344 13.695312 L 21.679688 13.773438 L 21.730469 13.9375 L 21.824219 14.265625 L 21.867188 14.433594 L 21.90625 14.597656 L 21.941406 14.757812 L 21.976562 14.921875 L 22.007812 15.085938 L 22.039062 15.246094 L 22.066406 14.800781 L 22.089844 14.957031 L 22.109375 15.109375 L 22.132812 15.261719 L 22.148438 15.414062 L 22.167969 15.558594 L 22.183594 15.699219 L 22.195312 15.839844 L 22.207031 15.972656 L 22.21875 16.101562 L 22.222656 16.226562 L 22.238281 15.148438 L 22.246094 15.359375 L 22.253906 15.546875 L 22.253906 15.996094 L 22.441406 16.1875 L 22.253906 15.996094 L 22.253906 16.039062 L 22.261719 16.0625 L 22.265625 16.078125 L 22.277344 16.09375 L 22.285156 16.109375 L 22.296875 16.125 L 22.320312 16.148438 L 22.335938 16.160156 L 22.367188 16.175781 L 22.382812 16.179688 L 22.402344 16.183594 L 22.417969 16.1875 L 22.472656 16.1875 L 22.488281 16.183594 L 22.507812 16.179688 L 22.523438 16.171875 L 22.535156 16.164062 L 22.554688 16.15625 L 22.589844 16.121094 L 22.601562 16.105469 L 22.609375 16.085938 L 22.617188 16.070312 L 22.625 16.050781 L 22.628906 16.03125 L 22.628906 16.007812 L 22.441406 15.8125 "/>
<path fill-rule="nonzero" fill="rgb(9.594727%, 9.32312%, 9.126282%)" fill-opacity="1" d="M 22.652344 16.1875 L 22.652344 15.8125 L 22.441406 15.8125 L 22.441406 16.1875 L 22.671875 16.1875 L 22.695312 16.183594 L 22.714844 16.179688 L 22.730469 16.171875 L 22.75 16.164062 L 22.765625 16.15625 L 22.78125 16.144531 L 22.792969 16.132812 L 22.804688 16.117188 L 22.828125 16.070312 L 22.835938 16.039062 L 22.835938 16.019531 L 22.839844 16 L 22.835938 15.984375 L 22.835938 15.96875 L 22.832031 15.949219 L 22.828125 15.933594 L 22.804688 15.886719 L 22.792969 15.875 L 22.78125 15.859375 L 22.765625 15.847656 L 22.75 15.839844 L 22.730469 15.832031 L 22.714844 15.824219 L 22.695312 15.820312 L 22.671875 15.816406 L 22.652344 15.8125 L 22.652344 16.1875 "/>
<path fill-rule="nonzero" fill="rgb(9.594727%, 9.32312%, 9.126282%)" fill-opacity="1" d="M 25.5 16.132812 L 25.367188 15.8125 L 22.652344 15.8125 L 22.652344 16.1875 L 25.367188 16.1875 L 25.5 16.132812 L 25.367188 16.1875 L 25.390625 16.1875 L 25.414062 16.183594 L 25.429688 16.179688 L 25.449219 16.171875 L 25.464844 16.164062 L 25.484375 16.15625 L 25.507812 16.132812 L 25.519531 16.117188 L 25.542969 16.070312 L 25.550781 16.039062 L 25.554688 16.019531 L 25.554688 15.984375 L 25.550781 15.96875 L 25.546875 15.949219 L 25.542969 15.933594 L 25.519531 15.886719 L 25.507812 15.875 L 25.496094 15.859375 L 25.484375 15.847656 L 25.464844 15.839844 L 25.449219 15.832031 L 25.429688 15.824219 L 25.414062 15.820312 L 25.367188 15.8125 L 25.5 16.132812 "/>
<path fill-rule="nonzero" fill="rgb(9.594727%, 9.32312%, 9.126282%)" fill-opacity="1" d="M 20.636719 20.703125 L 20.902344 20.703125 L 25.5 16.132812 L 25.234375 15.871094 L 20.636719 20.4375 L 20.636719 20.703125 L 20.636719 20.4375 L 20.621094 20.453125 L 20.605469 20.472656 L 20.597656 20.488281 L 20.589844 20.507812 L 20.582031 20.523438 L 20.578125 20.542969 L 20.578125 20.578125 L 20.582031 20.597656 L 20.582031 20.613281 L 20.589844 20.628906 L 20.59375 20.644531 L 20.601562 20.660156 L 20.625 20.691406 L 20.648438 20.714844 L 20.664062 20.726562 L 20.675781 20.734375 L 20.707031 20.75 L 20.726562 20.753906 L 20.742188 20.757812 L 20.761719 20.761719 L 20.777344 20.761719 L 20.796875 20.757812 L 20.8125 20.753906 L 20.832031 20.75 L 20.851562 20.742188 L 20.867188 20.730469 L 20.886719 20.71875 L 20.902344 20.703125 L 20.636719 20.703125 "/>
<path fill-rule="nonzero" fill="rgb(9.594727%, 9.32312%, 9.126282%)" fill-opacity="1" d="M 16.171875 15.8125 L 16.039062 16.132812 L 20.636719 20.703125 L 20.902344 20.4375 L 16.304688 15.871094 L 16.171875 15.8125 L 16.304688 15.871094 L 16.289062 15.855469 L 16.269531 15.84375 L 16.253906 15.832031 L 16.234375 15.824219 L 16.21875 15.816406 L 16.199219 15.8125 L 16.148438 15.8125 L 16.128906 15.816406 L 16.097656 15.832031 L 16.078125 15.835938 L 16.066406 15.847656 L 16.050781 15.859375 L 16.027344 15.882812 L 16.015625 15.898438 L 16.007812 15.910156 L 15.984375 15.957031 L 15.980469 15.976562 L 15.980469 16.027344 L 15.984375 16.046875 L 15.992188 16.066406 L 16.007812 16.097656 L 16.023438 16.117188 L 16.039062 16.132812 L 16.171875 15.8125 "/>
<path fill-rule="nonzero" fill="rgb(9.594727%, 9.32312%, 9.126282%)" fill-opacity="1" d="M 19.285156 16.007812 L 19.097656 15.8125 L 16.171875 15.8125 L 16.171875 16.1875 L 19.097656 16.1875 L 19.285156 16.007812 L 19.097656 16.1875 L 19.121094 16.1875 L 19.160156 16.179688 L 19.179688 16.171875 L 19.210938 16.15625 L 19.226562 16.144531 L 19.238281 16.132812 L 19.25 16.117188 L 19.28125 16.054688 L 19.285156 16.039062 L 19.285156 15.96875 L 19.28125 15.949219 L 19.25 15.886719 L 19.238281 15.875 L 19.226562 15.859375 L 19.210938 15.847656 L 19.179688 15.832031 L 19.160156 15.824219 L 19.121094 15.816406 L 19.097656 15.8125 L 19.285156 16.007812 "/>
<path fill-rule="nonzero" fill="rgb(9.594727%, 9.32312%, 9.126282%)" fill-opacity="1" d="M 15.335938 10.417969 L 15.324219 10.789062 L 15.414062 10.796875 L 15.5 10.804688 L 15.582031 10.8125 L 15.746094 10.84375 L 15.824219 10.859375 L 15.902344 10.878906 L 15.976562 10.898438 L 16.054688 10.921875 L 16.128906 10.949219 L 16.199219 10.976562 L 16.273438 11.003906 L 16.339844 11.035156 L 16.410156 11.066406 L 16.476562 11.105469 L 16.542969 11.140625 L 16.609375 11.179688 L 16.671875 11.21875 L 16.796875 11.304688 L 16.972656 11.445312 L 17.03125 11.496094 L 17.085938 11.546875 L 17.195312 11.65625 L 17.246094 11.710938 L 17.300781 11.765625 L 17.351562 11.828125 L 17.398438 11.886719 L 17.449219 11.949219 L 17.496094 12.011719 L 17.542969 12.078125 L 17.589844 12.140625 L 17.632812 12.207031 L 17.675781 12.277344 L 17.722656 12.34375 L 17.761719 12.414062 L 17.804688 12.484375 L 17.84375 12.558594 L 17.882812 12.628906 L 17.921875 12.703125 L 17.957031 12.78125 L 17.996094 12.855469 L 18.027344 12.929688 L 18.0625 13.007812 L 18.097656 13.082031 L 18.128906 13.164062 L 18.222656 13.398438 L 18.253906 13.480469 L 18.308594 13.644531 L 18.335938 13.722656 L 18.386719 13.890625 L 18.480469 14.21875 L 18.523438 14.386719 L 18.5625 14.550781 L 18.601562 14.71875 L 18.695312 15.210938 L 18.722656 14.761719 L 18.746094 14.921875 L 18.769531 15.078125 L 18.789062 15.234375 L 18.804688 15.386719 L 18.824219 15.535156 L 18.847656 15.816406 L 18.863281 15.953125 L 18.871094 16.085938 L 18.882812 16.210938 L 18.894531 15.136719 L 18.902344 15.351562 L 18.910156 15.539062 L 18.910156 15.996094 L 19.285156 16.007812 L 19.285156 15.53125 L 19.277344 15.335938 L 19.269531 16.433594 L 19.257812 16.191406 L 19.246094 16.0625 L 19.238281 15.925781 L 19.222656 15.785156 L 19.210938 15.640625 L 19.195312 15.496094 L 19.179688 15.34375 L 19.160156 15.1875 L 19.140625 15.027344 L 19.117188 14.867188 L 19.09375 15.3125 L 19.066406 15.148438 L 19.035156 14.980469 L 19 14.8125 L 18.96875 14.640625 L 18.929688 14.46875 L 18.84375 14.125 L 18.796875 13.953125 L 18.695312 13.609375 L 18.664062 13.527344 L 18.609375 13.355469 L 18.578125 13.273438 L 18.546875 13.1875 L 18.476562 13.023438 L 18.445312 12.941406 L 18.40625 12.855469 L 18.371094 12.777344 L 18.332031 12.695312 L 18.296875 12.617188 L 18.253906 12.535156 L 18.175781 12.378906 L 18.128906 12.300781 L 18.042969 12.152344 L 17.902344 11.929688 L 17.851562 11.859375 L 17.800781 11.792969 L 17.746094 11.722656 L 17.695312 11.65625 L 17.640625 11.589844 L 17.582031 11.523438 L 17.523438 11.460938 L 17.46875 11.398438 L 17.347656 11.277344 L 17.28125 11.21875 L 17.21875 11.164062 L 17.152344 11.105469 L 17.019531 11.003906 L 16.949219 10.953125 L 16.878906 10.90625 L 16.804688 10.859375 L 16.65625 10.773438 L 16.5 10.695312 L 16.421875 10.660156 L 16.339844 10.628906 L 16.253906 10.597656 L 16.171875 10.566406 L 16.085938 10.542969 L 16 10.515625 L 15.90625 10.496094 L 15.820312 10.476562 L 15.632812 10.445312 L 15.539062 10.433594 L 15.441406 10.421875 L 15.34375 10.417969 L 15.335938 10.789062 L 15.34375 10.417969 L 15.324219 10.417969 L 15.300781 10.421875 L 15.28125 10.421875 L 15.261719 10.429688 L 15.246094 10.4375 L 15.226562 10.445312 L 15.214844 10.457031 L 15.199219 10.46875 L 15.191406 10.480469 L 15.179688 10.496094 L 15.15625 10.542969 L 15.152344 10.558594 L 15.148438 10.578125 L 15.148438 10.628906 L 15.152344 10.648438 L 15.160156 10.679688 L 15.175781 10.710938 L 15.1875 10.726562 L 15.199219 10.738281 L 15.214844 10.75 L 15.226562 10.761719 L 15.246094 10.769531 L 15.261719 10.777344 L 15.28125 10.785156 L 15.300781 10.789062 L 15.324219 10.789062 L 15.335938 10.417969 "/>
<path fill-rule="evenodd" fill="rgb(99.993896%, 99.992371%, 99.992371%)" fill-opacity="1" d="M 12.425781 34.222656 L 9.082031 34.222656 L 8.722656 34.171875 L 8.386719 34.085938 L 8.074219 33.964844 L 7.78125 33.8125 L 7.507812 33.632812 L 7.261719 33.425781 L 7.03125 33.191406 L 6.820312 32.941406 L 6.625 32.667969 L 6.449219 32.378906 L 6.289062 32.074219 L 6.144531 31.761719 L 6.019531 31.4375 L 5.902344 31.109375 L 5.800781 30.773438 L 5.710938 30.4375 L 5.632812 30.101562 L 5.566406 29.773438 L 5.511719 29.449219 L 5.464844 29.128906 L 5.421875 28.828125 L 5.394531 28.53125 L 5.367188 30.230469 L 5.347656 29.976562 L 5.335938 29.738281 L 5.328125 29.523438 L 5.324219 29.335938 L 5.320312 29.179688 L 5.320312 28.878906 L 2.394531 28.878906 L 6.992188 24.308594 L 11.589844 28.878906 L 8.664062 28.878906 L 8.664062 29.34375 L 8.671875 29.535156 L 8.679688 29.75 L 8.695312 29.992188 L 8.710938 30.253906 L 8.738281 28.558594 L 8.769531 28.851562 L 8.808594 29.164062 L 8.855469 29.484375 L 8.910156 29.808594 L 8.980469 30.144531 L 9.058594 30.484375 L 9.144531 30.820312 L 9.246094 31.15625 L 9.363281 31.488281 L 9.492188 31.8125 L 9.632812 32.128906 L 9.792969 32.429688 L 9.96875 32.71875 L 10.164062 32.988281 L 10.375 33.238281 L 10.605469 33.46875 L 10.855469 33.671875 L 11.125 33.847656 L 11.414062 33.992188 L 11.730469 34.105469 L 12.066406 34.183594 L 12.425781 34.222656 "/>
<path fill="none" stroke-width="6" stroke-linecap="butt" stroke-linejoin="miter" stroke="rgb(12.866211%, 11.170959%, 11.180115%)" stroke-opacity="1" stroke-miterlimit="4" d="M 127.567677 50.655638 L 93.2395 50.655638 L 89.550023 51.176977 L 86.101164 52.059243 L 82.892923 53.302437 L 79.885197 54.866454 L 77.077986 56.711192 L 74.551497 58.836652 L 72.185419 61.242833 L 70.019856 63.809425 L 68.014706 66.616636 L 66.21007 69.584259 L 64.565847 72.712294 L 63.082036 75.920534 L 61.798739 79.249084 L 60.595649 82.617737 L 59.552971 86.066596 L 58.630601 89.515455 L 57.828541 92.964314 L 57.14679 96.332967 L 56.585348 99.661517 L 56.104112 102.949964 L 55.662979 106.037895 L 55.382258 109.085724 L 55.101536 91.640915 L 54.901021 94.24761 L 54.780712 96.693894 L 54.700506 98.89956 L 54.660403 100.824504 L 54.6203 102.428624 L 54.6203 105.516556 L 24.583145 105.516556 L 71.784389 152.437079 L 118.985632 105.516556 L 88.948477 105.516556 L 88.948477 100.744298 L 89.028683 98.77925 L 89.108889 96.573585 L 89.269301 94.087198 L 89.429714 91.400297 L 89.710435 108.805003 L 90.031259 105.797277 L 90.432289 102.589036 L 90.913525 99.30059 L 91.474967 95.97204 L 92.196821 92.523181 L 92.998881 89.034219 L 93.881148 85.58536 L 94.923826 82.136501 L 96.126916 78.727745 L 97.450316 75.399195 L 98.894024 72.150851 L 100.538247 69.06292 L 102.342883 66.095297 L 104.348033 63.328189 L 106.513596 60.761596 L 108.879674 58.395519 L 111.446266 56.310162 L 114.213374 54.505527 L 117.180997 53.021715 L 120.429341 51.858728 L 123.8782 51.056668 Z M 127.567677 50.655638 " transform="matrix(0.0974054, 0, 0, -0.0974054, 0, 39.156789)"/>
<path fill-rule="nonzero" fill="rgb(99.993896%, 99.992371%, 99.992371%)" fill-opacity="1" stroke-width="6" stroke-linecap="butt" stroke-linejoin="miter" stroke="rgb(12.866211%, 11.170959%, 11.180115%)" stroke-opacity="1" stroke-miterlimit="4" d="M 146.055164 63.649013 C 141.483421 54.465424 126.484895 49.893681 126.484895 49.893681 C 119.827796 50.294711 111.887399 56.14975 111.887399 56.14975 L 118.584602 63.649013 " transform="matrix(0.0974054, 0, 0, -0.0974054, 0, 39.156789)"/>
</svg>
