<?xml version="1.0" encoding="UTF-8"?>
<svg xmlns="http://www.w3.org/2000/svg" xmlns:xlink="http://www.w3.org/1999/xlink" width="48.79" height="27.5" viewBox="0 0 48.79 27.5">
<defs>
<clipPath id="clip-0">
<path clip-rule="nonzero" d="M 0.332031 0 L 48 0 L 48 12 L 0.332031 12 Z M 0.332031 0 "/>
</clipPath>
<clipPath id="clip-1">
<path clip-rule="nonzero" d="M 0.332031 0 L 48.25 0 L 48.25 15 L 0.332031 15 Z M 0.332031 0 "/>
</clipPath>
<clipPath id="clip-2">
<path clip-rule="nonzero" d="M 33 0 L 48.25 0 L 48.25 27.007812 L 33 27.007812 Z M 33 0 "/>
</clipPath>
<clipPath id="clip-3">
<path clip-rule="nonzero" d="M 0.332031 11 L 37 11 L 37 27 L 0.332031 27 Z M 0.332031 11 "/>
</clipPath>
</defs>
<g clip-path="url(#clip-0)">
<path fill-rule="nonzero" fill="rgb(3.022766%, 50.531006%, 75.683594%)" fill-opacity="1" d="M 0.886719 11.902344 L 15.058594 0.441406 L 47.773438 0.441406 L 36.046875 11.902344 L 0.886719 11.902344 "/>
</g>
<g clip-path="url(#clip-1)">
<path fill="none" stroke-width="4" stroke-linecap="butt" stroke-linejoin="miter" stroke="rgb(100%, 100%, 100%)" stroke-opacity="1" stroke-miterlimit="4" d="M 5.642955 153.8125 L 149.938409 270.505682 L 483.035 270.505682 L 363.637273 153.8125 Z M 5.642955 153.8125 " transform="matrix(0.0982143, 0, 0, -0.0982143, 0.3325, 27.008929)"/>
</g>
<path fill-rule="nonzero" fill="rgb(3.022766%, 50.531006%, 75.683594%)" fill-opacity="1" d="M 36.046875 26.527344 L 47.773438 14.578125 L 47.773438 0.464844 L 36.046875 11.902344 L 36.046875 26.527344 "/>
<g clip-path="url(#clip-2)">
<path fill="none" stroke-width="4" stroke-linecap="butt" stroke-linejoin="miter" stroke="rgb(100%, 100%, 100%)" stroke-opacity="1" stroke-miterlimit="4" d="M 363.637273 4.903409 L 483.035 126.568182 L 483.035 270.267045 L 363.637273 153.8125 Z M 363.637273 4.903409 " transform="matrix(0.0982143, 0, 0, -0.0982143, 0.3325, 27.008929)"/>
</g>
<g clip-path="url(#clip-3)">
<path fill-rule="nonzero" fill="rgb(3.022766%, 50.531006%, 75.683594%)" fill-opacity="1" d="M 36.046875 26.539062 L 36.046875 11.902344 L 0.9375 11.902344 L 0.9375 26.539062 L 36.046875 26.539062 "/>
<path fill="none" stroke-width="4" stroke-linecap="butt" stroke-linejoin="miter" stroke="rgb(100%, 100%, 100%)" stroke-opacity="1" stroke-miterlimit="4" d="M 363.637273 4.784091 L 363.637273 153.8125 L 6.16 153.8125 L 6.16 4.784091 Z M 363.637273 4.784091 " transform="matrix(0.0982143, 0, 0, -0.0982143, 0.3325, 27.008929)"/>
</g>
<path fill="none" stroke-width="4.5" stroke-linecap="round" stroke-linejoin="miter" stroke="rgb(100%, 100%, 100%)" stroke-opacity="1" stroke-miterlimit="1" d="M 343.4725 75.102273 C 343.4725 75.102273 319.688409 13.931818 291.091818 75.301136 C 262.495227 136.590909 238.671364 75.420455 238.671364 75.420455 C 238.671364 75.420455 214.927045 14.210227 186.330455 75.539773 C 157.773636 136.869318 134.069091 75.142045 134.069091 75.142045 C 134.069091 75.142045 110.364545 13.931818 81.767955 75.301136 C 53.211136 136.590909 29.466818 75.460227 29.466818 75.460227 " transform="matrix(0.0982143, 0, 0, -0.0982143, 0.3325, 27.008929)"/>
<path fill="none" stroke-width="9" stroke-linecap="round" stroke-linejoin="miter" stroke="rgb(100%, 100%, 100%)" stroke-opacity="1" stroke-miterlimit="1" d="M 29.466818 75.102273 C 29.466818 75.102273 53.290682 13.931818 81.8475 75.301136 C 110.444091 136.590909 134.267955 75.420455 134.267955 75.420455 C 134.267955 75.420455 158.052045 14.210227 186.608864 75.539773 C 215.165682 136.869318 238.870227 75.142045 238.870227 75.142045 C 238.870227 75.142045 262.574773 13.931818 291.171364 75.301136 C 319.767955 136.590909 343.4725 75.460227 343.4725 75.460227 " transform="matrix(0.0982143, 0, 0, -0.0982143, 0.3325, 27.008929)"/>
<path fill="none" stroke-width="4.5" stroke-linecap="round" stroke-linejoin="miter" stroke="rgb(13.729858%, 12.159729%, 12.548828%)" stroke-opacity="1" stroke-miterlimit="1" d="M 348.961136 75.102273 C 348.961136 75.102273 325.177045 13.931818 296.580455 75.301136 C 268.023636 136.590909 244.199773 75.420455 244.199773 75.420455 C 244.199773 75.420455 220.415682 14.210227 191.858864 75.539773 C 163.262273 136.869318 139.5975 75.142045 139.5975 75.142045 C 139.5975 75.142045 115.853182 13.931818 87.256591 75.301136 C 58.699773 136.590909 34.995227 75.420455 34.995227 75.420455 " transform="matrix(0.0982143, 0, 0, -0.0982143, 0.3325, 27.008929)"/>
<path fill="none" stroke-width="9" stroke-linecap="round" stroke-linejoin="miter" stroke="rgb(13.729858%, 12.159729%, 12.548828%)" stroke-opacity="1" stroke-miterlimit="1" d="M 34.995227 75.102273 C 34.995227 75.102273 58.779318 13.931818 87.375909 75.301136 C 115.932727 136.590909 139.756591 75.420455 139.756591 75.420455 C 139.756591 75.420455 163.540682 14.210227 192.0975 75.539773 C 220.694091 136.869318 244.358864 75.142045 244.358864 75.142045 C 244.358864 75.142045 268.103182 13.931818 296.699773 75.301136 C 325.256591 136.590909 348.961136 75.420455 348.961136 75.420455 " transform="matrix(0.0982143, 0, 0, -0.0982143, 0.3325, 27.008929)"/>
<path fill="none" stroke-width="4.5" stroke-linecap="round" stroke-linejoin="miter" stroke="rgb(100%, 100%, 100%)" stroke-opacity="1" stroke-miterlimit="1" d="M 343.4725 75.102273 C 343.4725 75.102273 319.688409 13.931818 291.091818 75.301136 C 262.495227 136.590909 238.671364 75.420455 238.671364 75.420455 C 238.671364 75.420455 214.927045 14.210227 186.330455 75.539773 C 157.773636 136.869318 134.069091 75.142045 134.069091 75.142045 C 134.069091 75.142045 110.364545 13.931818 81.767955 75.301136 C 53.211136 136.590909 29.466818 75.460227 29.466818 75.460227 " transform="matrix(0.0982143, 0, 0, -0.0982143, 0.3325, 27.008929)"/>
<path fill="none" stroke-width="9" stroke-linecap="round" stroke-linejoin="miter" stroke="rgb(100%, 100%, 100%)" stroke-opacity="1" stroke-miterlimit="1" d="M 29.466818 75.102273 C 29.466818 75.102273 53.290682 13.931818 81.8475 75.301136 C 110.444091 136.590909 134.267955 75.420455 134.267955 75.420455 C 134.267955 75.420455 158.052045 14.210227 186.608864 75.539773 C 215.165682 136.869318 238.870227 75.142045 238.870227 75.142045 C 238.870227 75.142045 262.574773 13.931818 291.171364 75.301136 C 319.767955 136.590909 343.4725 75.460227 343.4725 75.460227 " transform="matrix(0.0982143, 0, 0, -0.0982143, 0.3325, 27.008929)"/>
<path fill="none" stroke-width="4.5" stroke-linecap="round" stroke-linejoin="miter" stroke="rgb(13.729858%, 12.159729%, 12.548828%)" stroke-opacity="1" stroke-miterlimit="1" d="M 348.961136 75.102273 C 348.961136 75.102273 325.177045 13.931818 296.580455 75.301136 C 268.023636 136.590909 244.199773 75.420455 244.199773 75.420455 C 244.199773 75.420455 220.415682 14.210227 191.858864 75.539773 C 163.262273 136.869318 139.5975 75.142045 139.5975 75.142045 C 139.5975 75.142045 115.853182 13.931818 87.256591 75.301136 C 58.699773 136.590909 34.995227 75.420455 34.995227 75.420455 " transform="matrix(0.0982143, 0, 0, -0.0982143, 0.3325, 27.008929)"/>
<path fill="none" stroke-width="9" stroke-linecap="round" stroke-linejoin="miter" stroke="rgb(13.729858%, 12.159729%, 12.548828%)" stroke-opacity="1" stroke-miterlimit="1" d="M 34.995227 75.102273 C 34.995227 75.102273 58.779318 13.931818 87.375909 75.301136 C 115.932727 136.590909 139.756591 75.420455 139.756591 75.420455 C 139.756591 75.420455 163.540682 14.210227 192.0975 75.539773 C 220.694091 136.869318 244.358864 75.142045 244.358864 75.142045 C 244.358864 75.142045 268.103182 13.931818 296.699773 75.301136 C 325.256591 136.590909 348.961136 75.420455 348.961136 75.420455 " transform="matrix(0.0982143, 0, 0, -0.0982143, 0.3325, 27.008929)"/>
<path fill="none" stroke-width="4.5" stroke-linecap="round" stroke-linejoin="miter" stroke="rgb(100%, 100%, 100%)" stroke-opacity="1" stroke-miterlimit="1" d="M 343.4725 75.102273 C 343.4725 75.102273 319.688409 13.931818 291.091818 75.301136 C 262.495227 136.590909 238.671364 75.420455 238.671364 75.420455 C 238.671364 75.420455 214.927045 14.210227 186.330455 75.539773 C 157.773636 136.869318 134.069091 75.142045 134.069091 75.142045 C 134.069091 75.142045 110.364545 13.931818 81.767955 75.301136 C 53.211136 136.590909 29.466818 75.460227 29.466818 75.460227 " transform="matrix(0.0982143, 0, 0, -0.0982143, 0.3325, 27.008929)"/>
<path fill="none" stroke-width="9" stroke-linecap="round" stroke-linejoin="miter" stroke="rgb(100%, 100%, 100%)" stroke-opacity="1" stroke-miterlimit="1" d="M 29.466818 75.102273 C 29.466818 75.102273 53.290682 13.931818 81.8475 75.301136 C 110.444091 136.590909 134.267955 75.420455 134.267955 75.420455 C 134.267955 75.420455 158.052045 14.210227 186.608864 75.539773 C 215.165682 136.869318 238.870227 75.142045 238.870227 75.142045 C 238.870227 75.142045 262.574773 13.931818 291.171364 75.301136 C 319.767955 136.590909 343.4725 75.460227 343.4725 75.460227 " transform="matrix(0.0982143, 0, 0, -0.0982143, 0.3325, 27.008929)"/>
<path fill="none" stroke-width="2.51" stroke-linecap="round" stroke-linejoin="miter" stroke="rgb(13.729858%, 12.159729%, 12.548828%)" stroke-opacity="1" stroke-miterlimit="1" d="M 475.438409 188.852273 C 475.438409 188.852273 465.0975 117.738636 458.892955 171.551136 C 452.648636 225.284091 442.3475 154.130682 442.3475 154.130682 C 442.3475 154.130682 432.006591 83.017045 425.762273 136.75 C 419.557727 190.5625 409.256591 118.892045 409.256591 118.892045 C 409.256591 118.892045 398.955455 47.778409 392.711136 101.590909 C 386.506591 155.323864 376.205455 84.210227 376.205455 84.210227 " transform="matrix(0.0982143, 0, 0, -0.0982143, 0.3325, 27.008929)"/>
<path fill="none" stroke-width="5.02" stroke-linecap="round" stroke-linejoin="miter" stroke="rgb(13.729858%, 12.159729%, 12.548828%)" stroke-opacity="1" stroke-miterlimit="1" d="M 376.165682 83.892045 C 376.165682 83.892045 380.898636 28.6875 392.750909 101.590909 C 404.603182 174.454545 409.296364 119.25 409.296364 119.25 C 409.296364 119.25 414.029318 63.965909 425.881591 136.869318 C 437.733864 209.732955 442.3475 153.931818 442.3475 153.931818 C 442.3475 153.931818 447.080455 98.647727 458.932727 171.590909 C 470.745227 244.414773 475.478182 189.170455 475.478182 189.170455 " transform="matrix(0.0982143, 0, 0, -0.0982143, 0.3325, 27.008929)"/>
<path fill="none" stroke-width="2.51" stroke-linecap="round" stroke-linejoin="miter" stroke="rgb(100%, 100%, 100%)" stroke-opacity="1" stroke-miterlimit="1" d="M 473.688409 187.022727 C 473.688409 187.022727 463.3475 115.909091 457.142955 169.721591 C 450.938409 223.414773 440.5975 152.301136 440.5975 152.301136 C 440.5975 152.301136 430.256591 81.1875 424.052045 134.920455 C 417.8475 188.693182 407.506591 117.0625 407.506591 117.0625 C 407.506591 117.0625 397.205455 45.948864 390.961136 99.721591 C 384.756591 153.454545 374.455455 82.420455 374.455455 82.420455 " transform="matrix(0.0982143, 0, 0, -0.0982143, 0.3325, 27.008929)"/>
<path fill="none" stroke-width="5.02" stroke-linecap="round" stroke-linejoin="miter" stroke="rgb(100%, 100%, 100%)" stroke-opacity="1" stroke-miterlimit="1" d="M 374.455455 82.0625 C 374.455455 82.0625 379.148636 26.857955 391.000909 99.761364 C 402.853182 172.585227 407.586136 117.380682 407.586136 117.380682 C 407.586136 117.380682 412.279318 62.136364 424.131591 135.039773 C 435.983864 207.903409 440.637273 152.102273 440.637273 152.102273 C 440.637273 152.102273 445.330455 96.818182 457.182727 169.721591 C 469.035 242.585227 473.728182 187.380682 473.728182 187.380682 " transform="matrix(0.0982143, 0, 0, -0.0982143, 0.3325, 27.008929)"/>
<path fill-rule="nonzero" fill="rgb(100%, 100%, 100%)" fill-opacity="1" d="M 26.453125 2.777344 L 25.125 2.691406 L 29.460938 1.578125 L 31.355469 3.058594 L 29.953125 2.984375 L 29.679688 2.972656 L 27.339844 4.636719 L 24.164062 4.65625 L 26.660156 2.792969 L 26.453125 2.777344 "/>
<path fill-rule="nonzero" fill="rgb(100%, 100%, 100%)" fill-opacity="1" d="M 23.082031 9.371094 L 24.410156 9.460938 L 20.074219 10.574219 L 18.179688 9.09375 L 19.582031 9.167969 L 19.855469 9.179688 L 22.191406 7.511719 L 25.367188 7.496094 L 22.875 9.355469 L 23.082031 9.371094 "/>
<path fill-rule="nonzero" fill="rgb(100%, 100%, 100%)" fill-opacity="1" d="M 16.613281 6.1875 L 11.476562 6.191406 L 12.996094 4.878906 L 18.132812 4.878906 L 18.835938 4.085938 L 21.230469 5.78125 L 15.257812 7.472656 L 16.613281 6.1875 "/>
<path fill-rule="nonzero" fill="rgb(100%, 100%, 100%)" fill-opacity="1" d="M 32.773438 5.546875 L 37.910156 5.542969 L 36.386719 6.855469 L 31.25 6.859375 L 30.546875 7.648438 L 28.15625 5.957031 L 34.128906 4.265625 L 32.773438 5.546875 "/>
</svg>
