<?xml version="1.0" encoding="UTF-8"?>
<svg xmlns="http://www.w3.org/2000/svg" xmlns:xlink="http://www.w3.org/1999/xlink" width="31.79" height="28.43" viewBox="0 0 31.79 28.43">
<defs>
<clipPath id="clip-0">
<path clip-rule="nonzero" d="M 0.210938 3 L 28 3 L 28 27.480469 L 0.210938 27.480469 Z M 0.210938 3 "/>
</clipPath>
<clipPath id="clip-1">
<path clip-rule="nonzero" d="M 0.210938 0.03125 L 31 0.03125 L 31 4 L 0.210938 4 Z M 0.210938 0.03125 "/>
</clipPath>
<clipPath id="clip-2">
<path clip-rule="nonzero" d="M 0.210938 0.03125 L 31.375 0.03125 L 31.375 6 L 0.210938 6 Z M 0.210938 0.03125 "/>
</clipPath>
<clipPath id="clip-3">
<path clip-rule="nonzero" d="M 27 0.03125 L 31 0.03125 L 31 27.480469 L 27 27.480469 Z M 27 0.03125 "/>
</clipPath>
<clipPath id="clip-4">
<path clip-rule="nonzero" d="M 25 0.03125 L 31.375 0.03125 L 31.375 27.480469 L 25 27.480469 Z M 25 0.03125 "/>
</clipPath>
</defs>
<g clip-path="url(#clip-0)">
<path fill-rule="nonzero" fill="rgb(3.115845%, 49.784851%, 74.839783%)" fill-opacity="1" d="M 0.675781 27.390625 L 27.785156 27.390625 L 27.785156 3.691406 L 0.675781 3.691406 Z M 0.675781 27.390625 "/>
<path fill="none" stroke-width="4" stroke-linecap="butt" stroke-linejoin="miter" stroke="rgb(100%, 100%, 100%)" stroke-opacity="1" stroke-miterlimit="4" d="M 4.756474 4.902137 L 4.756474 246.645838 L 281.285449 246.645838 L 281.285449 4.902137 Z M 4.756474 4.902137 " transform="matrix(0.0980345, 0, 0, -0.0980345, 0.209483, 27.871203)"/>
</g>
<g clip-path="url(#clip-1)">
<path fill-rule="nonzero" fill="rgb(3.115845%, 49.784851%, 74.839783%)" fill-opacity="1" d="M 3.796875 0.488281 L 0.675781 3.691406 L 27.785156 3.691406 L 30.910156 0.488281 L 3.796875 0.488281 "/>
</g>
<g clip-path="url(#clip-2)">
<path fill="none" stroke-width="4" stroke-linecap="butt" stroke-linejoin="miter" stroke="rgb(100%, 100%, 100%)" stroke-opacity="1" stroke-miterlimit="4" d="M 36.593167 279.319291 L 4.756474 246.645838 L 281.285449 246.645838 L 313.161988 279.319291 Z M 36.593167 279.319291 " transform="matrix(0.0980345, 0, 0, -0.0980345, 0.209483, 27.871203)"/>
</g>
<g clip-path="url(#clip-3)">
<path fill-rule="nonzero" fill="rgb(3.115845%, 49.784851%, 74.839783%)" fill-opacity="1" d="M 30.910156 24.183594 L 30.910156 0.488281 L 27.785156 3.691406 L 27.785156 27.390625 L 30.910156 24.183594 "/>
</g>
<g clip-path="url(#clip-4)">
<path fill="none" stroke-width="4" stroke-linecap="butt" stroke-linejoin="miter" stroke="rgb(100%, 100%, 100%)" stroke-opacity="1" stroke-miterlimit="4" d="M 313.161988 37.615435 L 313.161988 279.319291 L 281.285449 246.645838 L 281.285449 4.902137 Z M 313.161988 37.615435 " transform="matrix(0.0980345, 0, 0, -0.0980345, 0.209483, 27.871203)"/>
</g>
<path fill-rule="nonzero" fill="rgb(3.115845%, 49.784851%, 74.839783%)" fill-opacity="1" d="M 3.214844 25.503906 L 25.59375 25.503906 L 25.59375 5.871094 L 3.214844 5.871094 Z M 3.214844 25.503906 "/>
<path fill="none" stroke-width="4" stroke-linecap="butt" stroke-linejoin="miter" stroke="rgb(100%, 100%, 100%)" stroke-opacity="1" stroke-miterlimit="4" d="M 258.932026 224.411953 L 30.656162 224.411953 L 30.656162 24.147597 L 258.932026 24.147597 Z M 258.932026 224.411953 " transform="matrix(0.0980345, 0, 0, -0.0980345, 0.209483, 27.871203)"/>
<path fill="none" stroke-width="4" stroke-linecap="butt" stroke-linejoin="miter" stroke="rgb(100%, 100%, 100%)" stroke-opacity="1" stroke-dasharray="10 10" stroke-miterlimit="4" d="M 122.261366 142.92755 L 41.414494 116.230949 " transform="matrix(0.0980345, 0, 0, -0.0980345, 0.209483, 27.871203)"/>
<path fill-rule="nonzero" fill="rgb(3.115845%, 49.784851%, 74.839783%)" fill-opacity="1" d="M 15.871094 11.898438 L 25.546875 8.304688 L 25.546875 10.429688 L 15.871094 11.898438 "/>
<path fill="none" stroke-width="4" stroke-linecap="butt" stroke-linejoin="miter" stroke="rgb(100%, 100%, 100%)" stroke-opacity="1" stroke-miterlimit="4" d="M 159.756144 162.930078 L 258.453878 199.588098 L 258.453878 177.912052 Z M 159.756144 162.930078 " transform="matrix(0.0980345, 0, 0, -0.0980345, 0.209483, 27.871203)"/>
<path fill-rule="nonzero" fill="rgb(3.115845%, 49.784851%, 74.839783%)" fill-opacity="1" stroke-width="4" stroke-linecap="butt" stroke-linejoin="miter" stroke="rgb(100%, 100%, 100%)" stroke-opacity="1" stroke-miterlimit="4" d="M 159.756144 162.930078 L 258.453878 176.238533 L 258.453878 154.562487 L 159.756144 162.930078 " transform="matrix(0.0980345, 0, 0, -0.0980345, 0.209483, 27.871203)"/>
<path fill-rule="nonzero" fill="rgb(3.115845%, 49.784851%, 74.839783%)" fill-opacity="1" stroke-width="4" stroke-linecap="butt" stroke-linejoin="miter" stroke="rgb(100%, 100%, 100%)" stroke-opacity="1" stroke-miterlimit="4" d="M 159.756144 162.930078 L 258.453878 154.403104 L 258.453878 132.727058 L 159.756144 162.930078 " transform="matrix(0.0980345, 0, 0, -0.0980345, 0.209483, 27.871203)"/>
<path fill-rule="nonzero" fill="rgb(100%, 100%, 100%)" fill-opacity="1" d="M 21.605469 22.484375 L 7.703125 22.484375 L 14.652344 8.578125 L 21.605469 22.484375 "/>
</svg>
