<?xml version="1.0" encoding="UTF-8"?>
<svg xmlns="http://www.w3.org/2000/svg" xmlns:xlink="http://www.w3.org/1999/xlink" width="36.65" height="24.84" viewBox="0 0 36.65 24.84">
<defs>
<clipPath id="clip-0">
<path clip-rule="nonzero" d="M 0 7 L 36.304688 7 L 36.304688 24.644531 L 0 24.644531 Z M 0 7 "/>
</clipPath>
<clipPath id="clip-1">
<path clip-rule="nonzero" d="M 0 4 L 36.304688 4 L 36.304688 24.644531 L 0 24.644531 Z M 0 4 "/>
</clipPath>
<clipPath id="clip-2">
<path clip-rule="nonzero" d="M 0 7 L 36.304688 7 L 36.304688 24.644531 L 0 24.644531 Z M 0 7 "/>
</clipPath>
<clipPath id="clip-3">
<path clip-rule="nonzero" d="M 0 4 L 36.304688 4 L 36.304688 24.644531 L 0 24.644531 Z M 0 4 "/>
</clipPath>
<clipPath id="clip-4">
<path clip-rule="nonzero" d="M 0 0.0390625 L 36.304688 0.0390625 L 36.304688 15 L 0 15 Z M 0 0.0390625 "/>
</clipPath>
<clipPath id="clip-5">
<path clip-rule="nonzero" d="M 0 0.0390625 L 36.304688 0.0390625 L 36.304688 17 L 0 17 Z M 0 0.0390625 "/>
</clipPath>
</defs>
<g clip-path="url(#clip-0)">
<path fill-rule="nonzero" fill="rgb(0.784302%, 42.352295%, 60.78186%)" fill-opacity="1" d="M 36.128906 7.226562 C 36.128906 11.082031 28.085938 14.210938 18.164062 14.210938 C 8.242188 14.210938 0.199219 11.082031 0.199219 7.226562 L 0.199219 17.460938 C 0.199219 21.316406 8.242188 24.445312 18.164062 24.445312 C 28.085938 24.445312 36.128906 21.316406 36.128906 17.460938 L 36.128906 7.226562 "/>
</g>
<g clip-path="url(#clip-1)">
<path fill="none" stroke-width="4" stroke-linecap="butt" stroke-linejoin="miter" stroke="rgb(100%, 100%, 100%)" stroke-opacity="1" stroke-miterlimit="4" d="M 364.739299 175.830338 C 364.739299 136.907461 283.541525 105.319594 183.375256 105.319594 C 83.208987 105.319594 2.011212 136.907461 2.011212 175.830338 L 2.011212 72.509226 C 2.011212 33.586349 83.208987 1.998482 183.375256 1.998482 C 283.541525 1.998482 364.739299 33.586349 364.739299 72.509226 Z M 364.739299 175.830338 " transform="matrix(0.0990541, 0, 0, -0.0990541, 0, 24.64327)"/>
</g>
<g clip-path="url(#clip-2)">
<path fill-rule="nonzero" fill="rgb(0.784302%, 42.352295%, 60.78186%)" fill-opacity="1" d="M 36.128906 7.226562 C 36.128906 11.082031 28.085938 14.210938 18.164062 14.210938 C 8.242188 14.210938 0.199219 11.082031 0.199219 7.226562 L 0.199219 17.460938 C 0.199219 21.316406 8.242188 24.445312 18.164062 24.445312 C 28.085938 24.445312 36.128906 21.316406 36.128906 17.460938 L 36.128906 7.226562 "/>
</g>
<g clip-path="url(#clip-3)">
<path fill="none" stroke-width="4" stroke-linecap="butt" stroke-linejoin="miter" stroke="rgb(100%, 100%, 100%)" stroke-opacity="1" stroke-miterlimit="4" d="M 364.739299 175.830338 C 364.739299 136.907461 283.541525 105.319594 183.375256 105.319594 C 83.208987 105.319594 2.011212 136.907461 2.011212 175.830338 L 2.011212 72.509226 C 2.011212 33.586349 83.208987 1.998482 183.375256 1.998482 C 283.541525 1.998482 364.739299 33.586349 364.739299 72.509226 Z M 364.739299 175.830338 " transform="matrix(0.0990541, 0, 0, -0.0990541, 0, 24.64327)"/>
</g>
<g clip-path="url(#clip-4)">
<path fill-rule="nonzero" fill="rgb(0.784302%, 42.352295%, 60.78186%)" fill-opacity="1" d="M 18.164062 14.210938 C 28.085938 14.210938 36.128906 11.082031 36.128906 7.226562 C 36.128906 3.367188 28.085938 0.238281 18.164062 0.238281 C 8.242188 0.238281 0.199219 3.367188 0.199219 7.226562 C 0.199219 11.082031 8.242188 14.210938 18.164062 14.210938 "/>
</g>
<g clip-path="url(#clip-5)">
<path fill="none" stroke-width="4" stroke-linecap="butt" stroke-linejoin="miter" stroke="rgb(100%, 100%, 100%)" stroke-opacity="1" stroke-miterlimit="4" d="M 183.375256 105.319594 C 283.541525 105.319594 364.739299 136.907461 364.739299 175.830338 C 364.739299 214.79265 283.541525 246.380517 183.375256 246.380517 C 83.208987 246.380517 2.011212 214.79265 2.011212 175.830338 C 2.011212 136.907461 83.208987 105.319594 183.375256 105.319594 Z M 183.375256 105.319594 " transform="matrix(0.0990541, 0, 0, -0.0990541, 0, 24.64327)"/>
</g>
<path fill-rule="nonzero" fill="rgb(0.784302%, 42.352295%, 60.78186%)" fill-opacity="1" d="M 26.34375 9.320312 L 30.261719 10.761719 L 26.363281 12.597656 L 26.355469 11.496094 L 6.820312 11.46875 L 6.773438 10.003906 L 26.335938 9.960938 L 26.34375 9.320312 "/>
<path fill-rule="nonzero" fill="rgb(100%, 100%, 100%)" fill-opacity="1" d="M 10.703125 5.289062 L 11.59375 5.289062 C 12.109375 7.480469 12.15625 7.757812 12.230469 8.214844 L 12.242188 8.214844 C 12.316406 7.796875 12.375 7.390625 12.800781 5.289062 L 13.6875 5.289062 C 14.15625 7.484375 14.191406 7.695312 14.28125 8.214844 L 14.292969 8.214844 C 14.363281 7.835938 14.425781 7.492188 14.945312 5.289062 L 15.792969 5.289062 L 14.667969 9.292969 L 13.863281 9.292969 C 13.453125 7.328125 13.378906 6.9375 13.246094 6.167969 L 13.234375 6.167969 C 13.113281 6.9375 13.042969 7.230469 12.617188 9.292969 L 11.835938 9.292969 L 10.703125 5.289062 "/>
<path fill-rule="nonzero" fill="rgb(100%, 100%, 100%)" fill-opacity="1" d="M 15.964844 5.289062 L 16.855469 5.289062 C 17.371094 7.480469 17.417969 7.757812 17.492188 8.214844 L 17.503906 8.214844 C 17.574219 7.796875 17.636719 7.390625 18.0625 5.289062 L 18.949219 5.289062 C 19.417969 7.484375 19.457031 7.695312 19.542969 8.214844 L 19.554688 8.214844 C 19.621094 7.835938 19.691406 7.492188 20.207031 5.289062 L 21.054688 5.289062 L 19.929688 9.292969 L 19.128906 9.292969 C 18.710938 7.328125 18.640625 6.9375 18.507812 6.167969 L 18.496094 6.167969 C 18.375 6.9375 18.304688 7.230469 17.878906 9.292969 L 17.097656 9.292969 L 15.964844 5.289062 "/>
<path fill-rule="nonzero" fill="rgb(100%, 100%, 100%)" fill-opacity="1" d="M 21.226562 5.289062 L 22.117188 5.289062 C 22.628906 7.480469 22.679688 7.757812 22.753906 8.214844 L 22.765625 8.214844 C 22.835938 7.796875 22.898438 7.390625 23.324219 5.289062 L 24.210938 5.289062 C 24.675781 7.484375 24.71875 7.695312 24.804688 8.214844 L 24.816406 8.214844 C 24.882812 7.835938 24.953125 7.492188 25.46875 5.289062 L 26.316406 5.289062 L 25.191406 9.292969 L 24.386719 9.292969 C 23.976562 7.328125 23.902344 6.9375 23.769531 6.167969 L 23.757812 6.167969 C 23.636719 6.9375 23.566406 7.230469 23.136719 9.292969 L 22.359375 9.292969 L 21.226562 5.289062 "/>
</svg>
