<?xml version="1.0" encoding="UTF-8"?>
<svg xmlns="http://www.w3.org/2000/svg" xmlns:xlink="http://www.w3.org/1999/xlink" width="36.95" height="44.67" viewBox="0 0 36.95 44.67">
<defs>
<clipPath id="clip-0">
<path clip-rule="nonzero" d="M 0.109375 3 L 21 3 L 21 30 L 0.109375 30 Z M 0.109375 3 "/>
</clipPath>
<clipPath id="clip-1">
<path clip-rule="nonzero" d="M 0.109375 3 L 21 3 L 21 30 L 0.109375 30 Z M 0.109375 3 "/>
</clipPath>
<clipPath id="clip-2">
<path clip-rule="nonzero" d="M 1 37 L 24 37 L 24 44.34375 L 1 44.34375 Z M 1 37 "/>
</clipPath>
<clipPath id="clip-3">
<path clip-rule="nonzero" d="M 0.109375 34 L 26 34 L 26 44.34375 L 0.109375 44.34375 Z M 0.109375 34 "/>
</clipPath>
<clipPath id="clip-4">
<path clip-rule="nonzero" d="M 0.109375 0 L 11 0 L 11 12 L 0.109375 12 Z M 0.109375 0 "/>
</clipPath>
<clipPath id="clip-5">
<path clip-rule="nonzero" d="M 0.109375 0 L 13 0 L 13 15 L 0.109375 15 Z M 0.109375 0 "/>
</clipPath>
<clipPath id="clip-6">
<path clip-rule="nonzero" d="M 0.109375 0 L 11 0 L 11 12 L 0.109375 12 Z M 0.109375 0 "/>
</clipPath>
<clipPath id="clip-7">
<path clip-rule="nonzero" d="M 0.109375 0 L 13 0 L 13 15 L 0.109375 15 Z M 0.109375 0 "/>
</clipPath>
<clipPath id="clip-8">
<path clip-rule="nonzero" d="M 0.109375 4 L 13 4 L 13 15 L 0.109375 15 Z M 0.109375 4 "/>
</clipPath>
<clipPath id="clip-9">
<path clip-rule="nonzero" d="M 0.109375 3 L 12 3 L 12 13 L 0.109375 13 Z M 0.109375 3 "/>
</clipPath>
<clipPath id="clip-10">
<path clip-rule="nonzero" d="M 0.109375 2 L 11 2 L 11 12 L 0.109375 12 Z M 0.109375 2 "/>
</clipPath>
<clipPath id="clip-11">
<path clip-rule="nonzero" d="M 0.109375 1 L 11 1 L 11 11 L 0.109375 11 Z M 0.109375 1 "/>
</clipPath>
<clipPath id="clip-12">
<path clip-rule="nonzero" d="M 0.109375 0 L 10 0 L 10 10 L 0.109375 10 Z M 0.109375 0 "/>
</clipPath>
<clipPath id="clip-13">
<path clip-rule="nonzero" d="M 0.109375 0 L 10 0 L 10 9 L 0.109375 9 Z M 0.109375 0 "/>
</clipPath>
<clipPath id="clip-14">
<path clip-rule="nonzero" d="M 0.109375 0 L 9 0 L 9 8 L 0.109375 8 Z M 0.109375 0 "/>
</clipPath>
<clipPath id="clip-15">
<path clip-rule="nonzero" d="M 0.109375 0 L 8 0 L 8 7 L 0.109375 7 Z M 0.109375 0 "/>
</clipPath>
<clipPath id="clip-16">
<path clip-rule="nonzero" d="M 14 23 L 36.789062 23 L 36.789062 44.34375 L 14 44.34375 Z M 14 23 "/>
</clipPath>
</defs>
<path fill-rule="nonzero" fill="rgb(0.784302%, 43.920898%, 62.350464%)" fill-opacity="1" d="M 9.769531 6.035156 L 17.890625 20.5625 C 19.023438 22.597656 18.296875 25.167969 16.265625 26.304688 C 14.230469 27.441406 11.660156 26.710938 10.523438 24.679688 L 2.546875 10.40625 "/>
<g clip-path="url(#clip-0)">
<path fill="none" stroke-width="3.99994" stroke-linecap="butt" stroke-linejoin="miter" stroke="rgb(100%, 100%, 100%)" stroke-opacity="1" stroke-miterlimit="4" d="M 97.302195 385.90259 L 179.113079 239.555944 C 190.524891 219.054034 183.205591 193.161027 162.743032 181.709864 C 142.241122 170.258701 116.348115 177.617352 104.896953 198.079911 L 24.542058 341.868737 " transform="matrix(0.0992667, 0, 0, -0.0992667, 0.110667, 44.34242)"/>
</g>
<path fill-rule="nonzero" fill="rgb(0.784302%, 43.920898%, 62.350464%)" fill-opacity="1" d="M 9.769531 6.035156 L 17.890625 20.5625 C 19.023438 22.597656 18.296875 25.167969 16.265625 26.304688 C 14.230469 27.441406 11.660156 26.710938 10.523438 24.679688 L 2.546875 10.40625 "/>
<g clip-path="url(#clip-1)">
<path fill="none" stroke-width="3.99994" stroke-linecap="butt" stroke-linejoin="miter" stroke="rgb(100%, 100%, 100%)" stroke-opacity="1" stroke-miterlimit="4" d="M 97.302195 385.90259 L 179.113079 239.555944 C 190.524891 219.054034 183.205591 193.161027 162.743032 181.709864 C 142.241122 170.258701 116.348115 177.617352 104.896953 198.079911 L 24.542058 341.868737 " transform="matrix(0.0992667, 0, 0, -0.0992667, 0.110667, 44.34242)"/>
</g>
<g clip-path="url(#clip-2)">
<path fill-rule="nonzero" fill="rgb(0.784302%, 43.920898%, 62.350464%)" fill-opacity="1" d="M 12.308594 44.144531 C 6.109375 44.144531 1.078125 42.574219 1.078125 40.636719 C 1.078125 38.699219 6.109375 37.125 12.308594 37.125 C 18.511719 37.125 23.539062 38.699219 23.539062 40.636719 C 23.539062 42.574219 18.511719 44.144531 12.308594 44.144531 "/>
</g>
<g clip-path="url(#clip-3)">
<path fill="none" stroke-width="3.99994" stroke-linecap="butt" stroke-linejoin="miter" stroke="rgb(100%, 100%, 100%)" stroke-opacity="1" stroke-miterlimit="4" d="M 122.880394 1.993507 C 60.430238 1.993507 9.746054 17.812639 9.746054 37.330771 C 9.746054 56.848904 60.430238 72.707388 122.880394 72.707388 C 185.3699 72.707388 236.014733 56.848904 236.014733 37.330771 C 236.014733 17.812639 185.3699 1.993507 122.880394 1.993507 Z M 122.880394 1.993507 " transform="matrix(0.0992667, 0, 0, -0.0992667, 0.110667, 44.34242)"/>
</g>
<path fill-rule="nonzero" fill="rgb(0.784302%, 43.920898%, 62.350464%)" fill-opacity="1" d="M 12.308594 39.785156 C 9.210938 39.785156 6.695312 39 6.695312 38.03125 C 6.695312 37.0625 9.210938 36.273438 12.308594 36.273438 C 15.410156 36.273438 17.925781 37.0625 17.925781 38.03125 C 17.925781 39 15.410156 39.785156 12.308594 39.785156 "/>
<path fill="none" stroke-width="3.99994" stroke-linecap="butt" stroke-linejoin="miter" stroke="rgb(100%, 100%, 100%)" stroke-opacity="1" stroke-miterlimit="4" d="M 122.880394 45.909306 C 91.674992 45.909306 66.3329 53.818872 66.3329 63.577938 C 66.3329 73.337005 91.674992 81.285922 122.880394 81.285922 C 154.125147 81.285922 179.467239 73.337005 179.467239 63.577938 C 179.467239 53.818872 154.125147 45.909306 122.880394 45.909306 Z M 122.880394 45.909306 " transform="matrix(0.0992667, 0, 0, -0.0992667, 0.110667, 44.34242)"/>
<g clip-path="url(#clip-4)">
<path fill-rule="nonzero" fill="rgb(0%, 0%, 0%)" fill-opacity="1" d="M 9.882812 6.175781 C 11.023438 8.207031 9.796875 9.785156 7.761719 10.921875 C 5.730469 12.058594 3.65625 12.324219 2.519531 10.289062 L 1.058594 7.675781 L 0.839844 7.097656 C -0.296875 5.066406 0.117188 1.75 2.152344 0.613281 C 4.1875 -0.523438 6.882812 0.824219 8.019531 2.859375 L 8.28125 3.304688 L 9.882812 6.175781 "/>
</g>
<g clip-path="url(#clip-5)">
<path fill="none" stroke-width="3.99994" stroke-linecap="butt" stroke-linejoin="miter" stroke="rgb(100%, 100%, 100%)" stroke-opacity="1" stroke-miterlimit="4" d="M 98.443376 384.485951 C 109.93389 364.023392 97.577653 348.125558 77.075743 336.674396 C 56.613184 325.223233 35.717764 322.54736 24.266601 343.04927 L 9.549299 369.375139 L 7.345639 375.199098 C -4.105524 395.661656 0.0656901 429.070719 20.5676 440.521881 C 41.06951 451.973044 68.221751 438.396923 79.672914 417.895013 L 82.309436 413.408991 Z M 98.443376 384.485951 " transform="matrix(0.0992667, 0, 0, -0.0992667, 0.110667, 44.34242)"/>
</g>
<g clip-path="url(#clip-6)">
<path fill-rule="nonzero" fill="rgb(0.784302%, 43.920898%, 62.350464%)" fill-opacity="1" d="M 9.882812 6.175781 C 11.023438 8.207031 9.796875 9.785156 7.761719 10.921875 C 5.730469 12.058594 3.65625 12.324219 2.519531 10.289062 L 1.058594 7.675781 L 0.839844 7.097656 C -0.296875 5.066406 0.117188 1.75 2.152344 0.613281 C 4.1875 -0.523438 6.882812 0.824219 8.019531 2.859375 L 8.28125 3.304688 L 9.882812 6.175781 "/>
</g>
<g clip-path="url(#clip-7)">
<path fill="none" stroke-width="3.99994" stroke-linecap="butt" stroke-linejoin="miter" stroke="rgb(100%, 100%, 100%)" stroke-opacity="1" stroke-miterlimit="4" d="M 98.443376 384.485951 C 109.93389 364.023392 97.577653 348.125558 77.075743 336.674396 C 56.613184 325.223233 35.717764 322.54736 24.266601 343.04927 L 9.549299 369.375139 L 7.345639 375.199098 C -4.105524 395.661656 0.0656901 429.070719 20.5676 440.521881 C 41.06951 451.973044 68.221751 438.396923 79.672914 417.895013 L 82.309436 413.408991 Z M 98.443376 384.485951 " transform="matrix(0.0992667, 0, 0, -0.0992667, 0.110667, 44.34242)"/>
</g>
<path fill-rule="nonzero" fill="rgb(0.784302%, 43.920898%, 62.350464%)" fill-opacity="1" d="M 12.308594 38.773438 C 11.625 38.773438 11.070312 38.21875 11.070312 37.535156 L 11.070312 17.554688 C 11.070312 16.871094 11.625 16.316406 12.308594 16.316406 C 12.996094 16.316406 13.550781 16.871094 13.550781 17.554688 L 13.550781 37.535156 C 13.550781 38.21875 12.996094 38.773438 12.308594 38.773438 "/>
<path fill="none" stroke-width="3.99994" stroke-linecap="butt" stroke-linejoin="miter" stroke="rgb(100%, 100%, 100%)" stroke-opacity="1" stroke-miterlimit="4" d="M 122.880394 56.101234 C 115.993956 56.101234 110.406103 61.689087 110.406103 68.575525 L 110.406103 269.856271 C 110.406103 276.742709 115.993956 282.330562 122.880394 282.330562 C 129.806183 282.330562 135.394035 276.742709 135.394035 269.856271 L 135.394035 68.575525 C 135.394035 61.689087 129.806183 56.101234 122.880394 56.101234 Z M 122.880394 56.101234 " transform="matrix(0.0992667, 0, 0, -0.0992667, 0.110667, 44.34242)"/>
<path fill-rule="nonzero" fill="rgb(0.784302%, 43.920898%, 62.350464%)" fill-opacity="1" d="M 12.621094 19.804688 C 13.347656 19.804688 13.9375 19.214844 13.9375 18.488281 C 13.9375 17.761719 13.347656 17.171875 12.621094 17.171875 C 11.894531 17.171875 11.304688 17.761719 11.304688 18.488281 C 11.304688 19.214844 11.894531 19.804688 12.621094 19.804688 "/>
<path fill="none" stroke-width="3.99994" stroke-linecap="butt" stroke-linejoin="miter" stroke="rgb(100%, 100%, 100%)" stroke-opacity="1" stroke-miterlimit="4" d="M 126.02848 247.190052 C 133.34778 247.190052 139.289792 253.132064 139.289792 260.451364 C 139.289792 267.770664 133.34778 273.712676 126.02848 273.712676 C 118.70918 273.712676 112.767168 267.770664 112.767168 260.451364 C 112.767168 253.132064 118.70918 247.190052 126.02848 247.190052 Z M 126.02848 247.190052 " transform="matrix(0.0992667, 0, 0, -0.0992667, 0.110667, 44.34242)"/>
<g clip-path="url(#clip-8)">
<path fill="none" stroke-width="3.99994" stroke-linecap="butt" stroke-linejoin="miter" stroke="rgb(100%, 100%, 100%)" stroke-opacity="1" stroke-miterlimit="4" d="M 99.702611 383.226717 C 111.153774 362.764158 98.836887 346.866324 78.334977 335.415161 C 57.872419 323.963998 36.976998 321.288125 25.525835 341.790035 " transform="matrix(0.0992667, 0, 0, -0.0992667, 0.110667, 44.34242)"/>
</g>
<g clip-path="url(#clip-9)">
<path fill="none" stroke-width="3.00003" stroke-linecap="butt" stroke-linejoin="miter" stroke="rgb(100%, 100%, 100%)" stroke-opacity="1" stroke-miterlimit="4" d="M 93.44579 394.481124 C 104.936304 374.018565 92.580066 358.120731 72.078156 346.669569 C 51.615598 335.218406 30.720177 332.542533 19.269014 353.044443 " transform="matrix(0.0992667, 0, 0, -0.0992667, 0.110667, 44.34242)"/>
</g>
<g clip-path="url(#clip-10)">
<path fill="none" stroke-width="3.00003" stroke-linecap="butt" stroke-linejoin="miter" stroke="rgb(100%, 100%, 100%)" stroke-opacity="1" stroke-miterlimit="4" d="M 86.992214 401.328211 C 98.010515 381.652674 86.165841 366.423808 66.490304 355.405507 C 46.814767 344.426557 26.78507 341.868737 15.766769 361.544275 " transform="matrix(0.0992667, 0, 0, -0.0992667, 0.110667, 44.34242)"/>
</g>
<g clip-path="url(#clip-11)">
<path fill="none" stroke-width="3.00003" stroke-linecap="butt" stroke-linejoin="miter" stroke="rgb(100%, 100%, 100%)" stroke-opacity="1" stroke-miterlimit="4" d="M 81.36501 410.693767 C 92.383311 391.057581 80.538638 375.789364 60.8631 364.771063 C 41.187563 353.792113 21.157866 351.234293 10.139565 370.90983 " transform="matrix(0.0992667, 0, 0, -0.0992667, 0.110667, 44.34242)"/>
</g>
<g clip-path="url(#clip-12)">
<path fill="none" stroke-width="3.00003" stroke-linecap="butt" stroke-linejoin="miter" stroke="rgb(100%, 100%, 100%)" stroke-opacity="1" stroke-miterlimit="4" d="M 76.367424 420.68894 C 87.385724 401.052754 75.541051 385.784537 55.865514 374.805587 C 36.189976 363.787286 16.16028 361.229466 5.141979 380.905003 " transform="matrix(0.0992667, 0, 0, -0.0992667, 0.110667, 44.34242)"/>
</g>
<g clip-path="url(#clip-13)">
<path fill="none" stroke-width="3.00003" stroke-linecap="butt" stroke-linejoin="miter" stroke="rgb(100%, 100%, 100%)" stroke-opacity="1" stroke-miterlimit="4" d="M 70.543465 428.834612 C 81.128904 409.946096 69.756443 395.307497 50.867927 384.761409 C 31.979412 374.215321 12.736736 371.736203 2.151297 390.624719 " transform="matrix(0.0992667, 0, 0, -0.0992667, 0.110667, 44.34242)"/>
</g>
<g clip-path="url(#clip-14)">
<path fill="none" stroke-width="3.00003" stroke-linecap="butt" stroke-linejoin="miter" stroke="rgb(100%, 100%, 100%)" stroke-opacity="1" stroke-miterlimit="4" d="M 61.414015 433.753496 C 70.464762 417.540854 60.745047 404.987861 44.532404 395.937114 C 28.359113 386.886367 11.831661 384.761409 2.780914 400.974051 " transform="matrix(0.0992667, 0, 0, -0.0992667, 0.110667, 44.34242)"/>
</g>
<g clip-path="url(#clip-15)">
<path fill="none" stroke-width="3.00003" stroke-linecap="butt" stroke-linejoin="miter" stroke="rgb(100%, 100%, 100%)" stroke-opacity="1" stroke-miterlimit="4" d="M 52.245215 439.223296 C 59.918674 425.489771 51.654949 414.786279 37.882073 407.112819 C 24.109197 399.439359 10.100214 397.62921 2.387403 411.402086 " transform="matrix(0.0992667, 0, 0, -0.0992667, 0.110667, 44.34242)"/>
</g>
<g clip-path="url(#clip-16)">
<path fill="none" stroke-width="3.99994" stroke-linecap="butt" stroke-linejoin="miter" stroke="rgb(0.784302%, 43.920898%, 62.350464%)" stroke-opacity="1" stroke-miterlimit="4" d="M 164.159671 189.737483 C 171.793779 155.029835 171.872482 101.866534 209.413407 86.755721 C 220.274303 82.348401 232.905998 84.394657 243.884948 80.380847 C 269.935359 70.936589 281.032362 43.86305 302.20324 26.784684 C 321.367214 11.319711 347.260221 13.169212 369.139418 21.078778 " transform="matrix(0.0992667, 0, 0, -0.0992667, 0.110667, 44.34242)"/>
</g>
</svg>
