<?xml version="1.0" encoding="UTF-8"?>
<svg xmlns="http://www.w3.org/2000/svg" xmlns:xlink="http://www.w3.org/1999/xlink" width="43.52" height="39.23" viewBox="0 0 43.52 39.23">
<defs>
<clipPath id="clip-0">
<path clip-rule="nonzero" d="M 0.183594 21 L 14 21 L 14 23 L 0.183594 23 Z M 0.183594 21 "/>
</clipPath>
<clipPath id="clip-1">
<path clip-rule="nonzero" d="M 13 32 L 42.867188 32 L 42.867188 38.476562 L 13 38.476562 Z M 13 32 "/>
</clipPath>
<clipPath id="clip-2">
<path clip-rule="nonzero" d="M 13 0 L 24 0 L 24 38.476562 L 13 38.476562 Z M 13 0 "/>
</clipPath>
<clipPath id="clip-3">
<path clip-rule="nonzero" d="M 13 0 L 42.867188 0 L 42.867188 7 L 13 7 Z M 13 0 "/>
</clipPath>
<clipPath id="clip-4">
<path clip-rule="nonzero" d="M 13 5 L 34 5 L 34 38.476562 L 13 38.476562 Z M 13 5 "/>
</clipPath>
<clipPath id="clip-5">
<path clip-rule="nonzero" d="M 32 0 L 42.867188 0 L 42.867188 38.476562 L 32 38.476562 Z M 32 0 "/>
</clipPath>
<clipPath id="clip-6">
<path clip-rule="nonzero" d="M 33 0 L 42.867188 0 L 42.867188 38.476562 L 33 38.476562 Z M 33 0 "/>
</clipPath>
<clipPath id="clip-7">
<path clip-rule="nonzero" d="M 13 4 L 34 4 L 34 38.476562 L 13 38.476562 Z M 13 4 "/>
</clipPath>
</defs>
<g clip-path="url(#clip-0)">
<path fill="none" stroke-width="8" stroke-linecap="round" stroke-linejoin="round" stroke="rgb(6.385803%, 53.631592%, 76.15509%)" stroke-opacity="1" stroke-miterlimit="4" d="M 4.023706 169.853849 L 133.986426 169.853849 " transform="matrix(0.098075, 0, 0, -0.098075, 0.1835, 38.474823)"/>
</g>
<path fill="none" stroke-width="8" stroke-linecap="round" stroke-linejoin="round" stroke="rgb(6.385803%, 53.631592%, 76.15509%)" stroke-opacity="1" stroke-miterlimit="4" d="M 45.685062 132.494048 L 132.353428 132.494048 " transform="matrix(0.098075, 0, 0, -0.098075, 0.1835, 38.474823)"/>
<path fill="none" stroke-width="8" stroke-linecap="round" stroke-linejoin="round" stroke="rgb(6.385803%, 53.631592%, 76.15509%)" stroke-opacity="1" stroke-miterlimit="4" d="M 133.986426 222.90636 L 62.333673 222.90636 " transform="matrix(0.098075, 0, 0, -0.098075, 0.1835, 38.474823)"/>
<path fill="none" stroke-width="8" stroke-linecap="round" stroke-linejoin="round" stroke="rgb(6.385803%, 53.631592%, 76.15509%)" stroke-opacity="1" stroke-miterlimit="4" d="M 28.996622 188.892213 L 132.353428 188.892213 " transform="matrix(0.098075, 0, 0, -0.098075, 0.1835, 38.474823)"/>
<g clip-path="url(#clip-1)">
<path fill="none" stroke-width="8" stroke-linecap="round" stroke-linejoin="round" stroke="rgb(6.385803%, 53.631592%, 76.15509%)" stroke-opacity="1" stroke-miterlimit="4" d="M 338.947553 8.426051 L 144.501338 8.426051 L 229.616365 59.805735 L 426.770966 60.243857 Z M 338.947553 8.426051 " transform="matrix(0.098075, 0, 0, -0.098075, 0.1835, 38.474823)"/>
</g>
<g clip-path="url(#clip-2)">
<path fill="none" stroke-width="8" stroke-linecap="round" stroke-linejoin="round" stroke="rgb(6.385803%, 53.631592%, 76.15509%)" stroke-opacity="1" stroke-miterlimit="4" d="M 229.616365 59.805735 L 144.501338 8.426051 L 144.461509 333.910375 L 229.616365 383.298598 Z M 229.616365 59.805735 " transform="matrix(0.098075, 0, 0, -0.098075, 0.1835, 38.474823)"/>
</g>
<g clip-path="url(#clip-3)">
<path fill="none" stroke-width="8" stroke-linecap="round" stroke-linejoin="round" stroke="rgb(6.385803%, 53.631592%, 76.15509%)" stroke-opacity="1" stroke-miterlimit="4" d="M 338.907724 333.910375 L 144.461509 333.910375 L 229.616365 383.298598 L 426.691308 383.935865 Z M 338.907724 333.910375 " transform="matrix(0.098075, 0, 0, -0.098075, 0.1835, 38.474823)"/>
</g>
<g clip-path="url(#clip-4)">
<path fill="none" stroke-width="8" stroke-linecap="round" stroke-linejoin="round" stroke="rgb(6.385803%, 53.631592%, 76.15509%)" stroke-opacity="1" stroke-miterlimit="4" d="M 338.947553 6.9922 L 144.501338 6.9922 L 144.461509 333.910375 L 338.907724 333.910375 Z M 338.947553 6.9922 " transform="matrix(0.098075, 0, 0, -0.098075, 0.1835, 38.474823)"/>
</g>
<g clip-path="url(#clip-5)">
<path fill="none" stroke-width="8.8" stroke-linecap="round" stroke-linejoin="round" stroke="rgb(13.729858%, 12.159729%, 12.548828%)" stroke-opacity="1" stroke-miterlimit="4" d="M 426.770966 60.243857 L 338.947553 8.426051 L 338.907724 333.910375 L 426.691308 383.935865 Z M 426.770966 60.243857 " transform="matrix(0.098075, 0, 0, -0.098075, 0.1835, 38.474823)"/>
</g>
<g clip-path="url(#clip-6)">
<path fill="none" stroke-width="8" stroke-linecap="round" stroke-linejoin="round" stroke="rgb(6.385803%, 53.631592%, 76.15509%)" stroke-opacity="1" stroke-miterlimit="4" d="M 426.770966 60.243857 L 338.947553 8.426051 L 338.907724 333.910375 L 426.691308 383.935865 Z M 426.770966 60.243857 " transform="matrix(0.098075, 0, 0, -0.098075, 0.1835, 38.474823)"/>
<path fill="none" stroke-width="8" stroke-linecap="round" stroke-linejoin="round" stroke="rgb(6.385803%, 53.631592%, 76.15509%)" stroke-opacity="1" stroke-miterlimit="4" d="M 426.770966 60.243857 L 338.947553 8.426051 L 338.907724 333.910375 L 426.691308 383.935865 Z M 426.770966 60.243857 " transform="matrix(0.098075, 0, 0, -0.098075, 0.1835, 38.474823)"/>
</g>
<path fill="none" stroke-width="2.3" stroke-linecap="butt" stroke-linejoin="round" stroke="rgb(100%, 100%, 100%)" stroke-opacity="1" stroke-miterlimit="4" d="M 320.028677 316.664326 C 320.028677 316.664326 316.125414 317.819373 312.77976 318.735445 C 309.792569 319.571858 305.650331 320.607418 305.650331 320.607418 " transform="matrix(0.098075, 0, 0, -0.098075, 0.1835, 38.474823)"/>
<path fill-rule="nonzero" fill="rgb(6.385803%, 53.631592%, 76.15509%)" fill-opacity="1" d="M 31.445312 19.578125 C 31.710938 18.621094 32.8125 13.84375 32.859375 13.179688 C 32.910156 12.515625 32.664062 11.683594 32.308594 11.511719 C 32.328125 11.273438 32.332031 11.140625 32.332031 11.140625 C 32.246094 11.105469 32.15625 11.070312 32.070312 11.039062 L 32.097656 11.046875 C 32.097656 11.046875 32.351562 9.980469 32.5 9.242188 C 32.777344 7.824219 32.859375 7.390625 32.859375 7.390625 C 32.855469 7.199219 32.804688 7.027344 32.625 6.976562 L 31.800781 6.75 C 31.621094 6.699219 31.5 6.808594 31.386719 6.984375 C 31.386719 6.984375 31.066406 7.644531 30.609375 8.992188 C 30.367188 9.703125 30.082031 10.316406 30.082031 10.316406 L 30.089844 10.320312 C 29.597656 10.160156 29.101562 10.007812 28.59375 9.867188 C 27.304688 9.511719 26.019531 9.242188 24.730469 9.046875 C 24.730469 9.046875 24.667969 9.160156 24.558594 9.375 C 24.171875 9.339844 23.53125 9.929688 23.230469 10.523438 C 22.933594 11.117188 21.429688 15.785156 21.164062 16.738281 C 20.902344 17.695312 20.390625 20.128906 20.167969 21.335938 C 19.941406 22.546875 19.738281 24.660156 18.960938 27.476562 C 18.5 29.136719 17.757812 31.613281 17.371094 32.644531 C 17.269531 32.914062 16.457031 34.289062 17.636719 34.753906 C 18.796875 35.210938 20.523438 35.707031 21.394531 35.949219 C 22.269531 36.191406 24.003906 36.648438 25.238281 36.851562 C 26.488281 37.054688 26.496094 35.460938 26.546875 35.175781 C 26.742188 34.09375 27.375 31.585938 27.832031 29.925781 C 28.609375 27.109375 29.519531 25.191406 29.945312 24.035156 C 30.371094 22.882812 31.183594 20.53125 31.445312 19.578125 "/>
<path fill-rule="nonzero" fill="rgb(6.385803%, 53.631592%, 76.15509%)" fill-opacity="1" d="M 30.164062 19.703125 C 30.429688 18.75 31.53125 13.972656 31.578125 13.308594 C 31.625 12.644531 31.378906 11.808594 31.027344 11.640625 C 31.042969 11.402344 31.050781 11.269531 31.050781 11.269531 C 30.960938 11.234375 30.875 11.203125 30.789062 11.167969 L 30.816406 11.175781 C 30.816406 11.175781 31.070312 10.113281 31.214844 9.371094 C 31.496094 7.949219 31.578125 7.519531 31.578125 7.519531 C 31.574219 7.324219 31.523438 7.15625 31.34375 7.105469 L 30.519531 6.878906 C 30.335938 6.828125 30.21875 6.941406 30.101562 7.113281 C 30.101562 7.113281 29.785156 7.773438 29.328125 9.117188 C 29.085938 9.832031 28.796875 10.445312 28.796875 10.445312 L 28.808594 10.449219 C 28.316406 10.289062 27.816406 10.136719 27.3125 9.996094 C 26.023438 9.640625 24.734375 9.367188 23.449219 9.171875 C 23.449219 9.171875 23.386719 9.289062 23.277344 9.503906 C 22.890625 9.464844 22.25 10.054688 21.949219 10.652344 C 21.648438 11.246094 20.144531 15.910156 19.882812 16.867188 C 19.617188 17.824219 19.109375 20.253906 18.882812 21.46875 C 18.660156 22.675781 18.457031 24.785156 17.675781 27.605469 C 17.21875 29.265625 16.476562 31.742188 16.089844 32.773438 C 15.988281 33.042969 15.175781 34.414062 16.355469 34.882812 C 17.515625 35.339844 19.242188 35.835938 20.113281 36.078125 C 20.988281 36.316406 22.722656 36.777344 23.957031 36.980469 C 25.207031 37.183594 25.214844 35.589844 25.265625 35.304688 C 25.460938 34.222656 26.09375 31.714844 26.550781 30.054688 C 27.328125 27.238281 28.238281 25.320312 28.664062 24.164062 C 29.089844 23.011719 29.902344 20.664062 30.164062 19.703125 "/>
<g clip-path="url(#clip-7)">
<path fill="none" stroke-width="3.5" stroke-linecap="butt" stroke-linejoin="miter" stroke="rgb(100%, 100%, 100%)" stroke-opacity="1" stroke-miterlimit="4" d="M 305.690161 191.401453 C 308.398547 201.119781 319.630385 249.830907 320.108335 256.601874 C 320.586286 263.37284 318.077046 271.896291 314.492417 273.608947 C 314.651733 276.038529 314.731392 277.392722 314.731392 277.392722 C 313.81532 277.751185 312.939077 278.069819 312.062835 278.428282 L 312.341639 278.348624 C 312.341639 278.348624 314.930538 289.182169 316.404219 296.74972 C 319.271922 311.247553 320.108335 315.628766 320.108335 315.628766 C 320.068506 317.620227 319.550726 319.332883 317.718583 319.850663 L 309.314619 322.160757 C 307.442646 322.678537 306.24777 321.52349 305.052893 319.771004 C 305.052893 319.771004 301.826727 313.039867 297.166709 299.338618 C 294.697298 292.049873 291.749936 285.796686 291.749936 285.796686 L 291.869424 285.756857 C 286.850943 287.389855 281.752804 288.943194 276.614836 290.377046 C 263.471196 294.001504 250.327555 296.789549 237.223745 298.781009 C 237.223745 298.781009 236.586477 297.586133 235.471259 295.395526 C 231.528167 295.793819 224.996176 289.779607 221.929327 283.685738 C 218.862478 277.631698 203.528231 230.075618 200.859674 220.317461 C 198.151287 210.559304 192.97349 185.785534 190.663395 173.398649 C 188.39313 161.091422 186.322011 139.583648 178.356169 110.826956 C 173.696151 93.899541 166.128601 68.647821 162.185509 58.132908 C 161.149949 55.384693 152.865473 41.404639 164.893895 36.625134 C 176.723171 31.965116 194.327683 26.906806 203.209597 24.437395 C 212.131341 22.007813 229.815511 17.307966 242.401542 15.236847 C 255.14689 13.165728 255.226549 29.416046 255.744328 32.323579 C 257.735789 43.356271 264.188121 68.926625 268.848139 85.85404 C 276.774152 114.570902 286.054359 134.127046 290.395743 145.916492 C 294.737127 157.66611 303.021603 181.603467 305.690161 191.401453 Z M 305.690161 191.401453 " transform="matrix(0.098075, 0, 0, -0.098075, 0.1835, 38.474823)"/>
</g>
<path fill="none" stroke-width="2.3" stroke-linecap="butt" stroke-linejoin="round" stroke="rgb(100%, 100%, 100%)" stroke-opacity="1" stroke-miterlimit="4" d="M 244.074369 15.236847 C 256.819717 13.165728 256.899375 29.416046 257.417155 32.323579 C 259.408616 43.356271 265.860948 68.926625 270.520966 85.85404 C 278.446979 114.570902 287.687357 134.127046 292.06857 145.916492 C 296.409954 157.66611 304.69443 181.603467 307.362988 191.401453 C 310.031545 201.119781 321.303212 249.830907 321.781162 256.601874 C 322.259113 263.37284 319.749873 271.896291 316.165243 273.608947 C 316.32456 276.038529 316.404219 277.392722 316.404219 277.392722 C 315.488147 277.751185 314.611904 278.069819 313.735661 278.428282 L 313.974637 278.348624 C 313.974637 278.348624 316.603365 289.182169 318.077046 296.74972 C 320.944749 311.247553 321.781162 315.628766 321.781162 315.628766 C 321.741333 317.620227 321.223553 319.332883 319.39141 319.850663 L 310.987446 322.160757 " transform="matrix(0.098075, 0, 0, -0.098075, 0.1835, 38.474823)"/>
<path fill-rule="nonzero" fill="rgb(13.729858%, 12.159729%, 12.548828%)" fill-opacity="1" stroke-width="2.3" stroke-linecap="butt" stroke-linejoin="round" stroke="rgb(100%, 100%, 100%)" stroke-opacity="1" stroke-miterlimit="4" d="M 208.427224 37.262401 C 208.307736 36.82428 207.511152 36.625134 206.63491 36.864109 C 205.758667 37.103084 205.161229 37.660693 205.280716 38.138644 C 205.440033 38.616594 206.236617 38.775911 207.11286 38.536936 C 207.989103 38.297961 208.546712 37.740352 208.427224 37.262401 Z M 205.280716 38.138644 L 202.333355 27.384757 M 205.798496 37.262401 L 203.010451 27.22544 M 208.427224 37.262401 L 205.479862 26.508514 M 207.550981 36.744621 L 204.802766 26.70766 M 226.549516 192.675988 L 224.478397 185.227925 M 227.3461 192.437012 L 225.274981 184.909291 M 269.485407 180.806882 L 267.414288 173.398649 M 268.648993 181.045858 L 266.577874 173.518137 " transform="matrix(0.098075, 0, 0, -0.098075, 0.1835, 38.474823)"/>
<path fill-rule="nonzero" fill="rgb(6.385803%, 53.631592%, 76.15509%)" fill-opacity="1" d="M 30.816406 11.175781 C 30.816406 11.175781 31.070312 10.113281 31.214844 9.371094 C 31.496094 7.949219 31.578125 7.519531 31.578125 7.519531 C 31.574219 7.324219 31.523438 7.15625 31.34375 7.105469 L 30.519531 6.878906 C 30.335938 6.828125 30.21875 6.941406 30.101562 7.113281 C 30.101562 7.113281 29.785156 7.773438 29.328125 9.117188 C 29.085938 9.832031 28.796875 10.445312 28.796875 10.445312 M 30.910156 10.789062 C 30.25 10.535156 29.578125 10.296875 28.894531 10.082031 M 23.613281 9.199219 C 23.613281 9.199219 21.917969 12.652344 20.953125 16.160156 C 19.800781 20.332031 19.632812 21.722656 19.804688 23.660156 C 19.839844 24.058594 20.238281 24.546875 20.679688 24.671875 C 20.855469 24.71875 21.0625 24.773438 21.144531 24.796875 C 21.230469 24.824219 21.558594 24.902344 21.828125 25.113281 C 22.101562 25.324219 22.167969 25.378906 22.328125 25.464844 C 22.488281 25.554688 22.511719 25.609375 22.96875 25.738281 C 23.421875 25.863281 23.472656 25.828125 23.65625 25.832031 C 23.835938 25.839844 23.925781 25.828125 24.265625 25.785156 C 24.605469 25.742188 24.925781 25.84375 25.015625 25.867188 C 25.097656 25.886719 25.300781 25.945312 25.476562 25.992188 C 25.921875 26.117188 26.511719 25.898438 26.746094 25.574219 C 27.890625 24 28.457031 22.71875 29.609375 18.546875 C 30.578125 15.042969 30.898438 11.207031 30.898438 11.207031 M 22.617188 10.929688 C 23.976562 11.125 25.449219 11.441406 26.808594 11.816406 C 28.171875 12.195312 29.59375 12.679688 30.863281 13.207031 "/>
<path fill-rule="nonzero" fill="rgb(6.385803%, 53.631592%, 76.15509%)" fill-opacity="1" d="M 25.804688 23.117188 C 25.5 24.210938 24.371094 24.851562 23.28125 24.550781 C 22.1875 24.25 21.546875 23.117188 21.847656 22.027344 C 22.148438 20.933594 23.28125 20.292969 24.371094 20.59375 C 25.460938 20.894531 26.101562 22.027344 25.804688 23.117188 "/>
<path fill="none" stroke-width="3.5" stroke-linecap="butt" stroke-linejoin="miter" stroke="rgb(100%, 100%, 100%)" stroke-opacity="1" stroke-miterlimit="4" d="M 261.24076 156.590721 C 258.134081 145.438542 246.623439 138.906551 235.511088 141.9734 C 224.358909 145.04025 217.826918 156.590721 220.893768 167.703072 C 223.960617 178.855251 235.511088 185.387242 246.623439 182.320393 C 257.735789 179.253543 264.26778 167.703072 261.24076 156.590721 Z M 261.24076 156.590721 " transform="matrix(0.098075, 0, 0, -0.098075, 0.1835, 38.474823)"/>
<path fill-rule="nonzero" fill="rgb(13.729858%, 12.159729%, 12.548828%)" fill-opacity="1" stroke-width="2.3" stroke-linecap="butt" stroke-linejoin="round" stroke="rgb(100%, 100%, 100%)" stroke-opacity="1" stroke-miterlimit="4" d="M 268.131213 265.802422 L 275.021667 290.815167 " transform="matrix(0.098075, 0, 0, -0.098075, 0.1835, 38.474823)"/>
<path fill-rule="nonzero" fill="rgb(13.729858%, 12.159729%, 12.548828%)" fill-opacity="1" stroke-width="2.3" stroke-linecap="butt" stroke-linejoin="round" stroke="rgb(100%, 100%, 100%)" stroke-opacity="1" stroke-miterlimit="4" d="M 270.441308 265.204983 L 277.331761 290.1779 " transform="matrix(0.098075, 0, 0, -0.098075, 0.1835, 38.474823)"/>
<path fill-rule="nonzero" fill="rgb(13.729858%, 12.159729%, 12.548828%)" fill-opacity="1" d="M 28.753906 20.054688 C 28.703125 20.234375 28.519531 20.339844 28.339844 20.292969 L 21.238281 18.332031 C 21.058594 18.28125 20.949219 18.097656 21 17.917969 L 22.238281 13.425781 C 22.289062 13.246094 22.476562 13.140625 22.65625 13.191406 L 29.757812 15.148438 C 29.9375 15.199219 30.042969 15.386719 29.992188 15.566406 L 28.753906 20.054688 "/>
<path fill="none" stroke-width="2.3" stroke-linecap="butt" stroke-linejoin="round" stroke="rgb(100%, 100%, 100%)" stroke-opacity="1" stroke-miterlimit="4" d="M 291.311815 187.816824 C 290.794035 185.98468 288.922062 184.909291 287.089918 185.387242 L 214.68041 205.381507 C 212.848267 205.899286 211.733049 207.771259 212.250828 209.603403 L 224.876689 255.406997 C 225.394469 257.239141 227.306271 258.31453 229.138414 257.79675 L 301.547923 237.842315 C 303.380066 237.324535 304.455455 235.412733 303.937675 233.580589 Z M 291.311815 187.816824 " transform="matrix(0.098075, 0, 0, -0.098075, 0.1835, 38.474823)"/>
<path fill-rule="nonzero" fill="rgb(100%, 100%, 100%)" fill-opacity="1" d="M 20.78125 26.355469 C 20.667969 26.773438 20.234375 27.015625 19.820312 26.902344 C 19.402344 26.785156 19.160156 26.355469 19.273438 25.9375 C 19.386719 25.523438 19.820312 25.277344 20.234375 25.390625 C 20.652344 25.507812 20.898438 25.9375 20.78125 26.355469 "/>
<path fill-rule="nonzero" fill="rgb(100%, 100%, 100%)" fill-opacity="1" d="M 19.359375 31.152344 C 19.242188 31.570312 18.8125 31.8125 18.394531 31.699219 C 17.980469 31.582031 17.734375 31.152344 17.851562 30.734375 C 17.964844 30.320312 18.394531 30.074219 18.8125 30.191406 C 19.230469 30.304688 19.472656 30.734375 19.359375 31.152344 "/>
<path fill-rule="nonzero" fill="rgb(100%, 100%, 100%)" fill-opacity="1" d="M 25.957031 27.847656 C 25.84375 28.261719 25.414062 28.507812 24.996094 28.390625 C 24.578125 28.277344 24.335938 27.847656 24.449219 27.429688 C 24.566406 27.015625 24.996094 26.769531 25.414062 26.882812 C 25.828125 27 26.074219 27.429688 25.957031 27.847656 "/>
<path fill-rule="nonzero" fill="rgb(100%, 100%, 100%)" fill-opacity="1" d="M 24.535156 32.644531 C 24.421875 33.0625 23.988281 33.304688 23.574219 33.191406 C 23.15625 33.074219 22.910156 32.644531 23.027344 32.226562 C 23.140625 31.8125 23.574219 31.566406 23.988281 31.683594 C 24.40625 31.796875 24.648438 32.226562 24.535156 32.644531 "/>
<path fill-rule="nonzero" fill="rgb(100%, 100%, 100%)" fill-opacity="1" d="M 23.230469 27.671875 C 23.117188 28.085938 22.6875 28.332031 22.269531 28.21875 C 21.855469 28.101562 21.609375 27.671875 21.726562 27.253906 C 21.839844 26.839844 22.269531 26.59375 22.6875 26.707031 C 23.105469 26.824219 23.347656 27.253906 23.230469 27.671875 "/>
<path fill-rule="nonzero" fill="rgb(100%, 100%, 100%)" fill-opacity="1" d="M 20.085938 28.761719 C 19.972656 29.179688 19.539062 29.421875 19.125 29.308594 C 18.707031 29.191406 18.464844 28.761719 18.578125 28.34375 C 18.691406 27.929688 19.125 27.683594 19.539062 27.796875 C 19.957031 27.914062 20.203125 28.34375 20.085938 28.761719 "/>
<path fill-rule="nonzero" fill="rgb(100%, 100%, 100%)" fill-opacity="1" d="M 25.261719 30.253906 C 25.148438 30.671875 24.71875 30.914062 24.300781 30.800781 C 23.882812 30.683594 23.640625 30.253906 23.753906 29.835938 C 23.871094 29.421875 24.300781 29.175781 24.71875 29.289062 C 25.132812 29.40625 25.378906 29.835938 25.261719 30.253906 "/>
<path fill-rule="nonzero" fill="rgb(100%, 100%, 100%)" fill-opacity="1" d="M 22.535156 30.078125 C 22.421875 30.496094 21.992188 30.738281 21.574219 30.625 C 21.160156 30.507812 20.914062 30.078125 21.03125 29.660156 C 21.144531 29.246094 21.574219 29 21.992188 29.113281 C 22.40625 29.230469 22.652344 29.660156 22.535156 30.078125 "/>
<path fill-rule="nonzero" fill="rgb(100%, 100%, 100%)" fill-opacity="1" d="M 21.808594 32.46875 C 21.695312 32.886719 21.265625 33.128906 20.847656 33.015625 C 20.429688 32.898438 20.1875 32.46875 20.300781 32.050781 C 20.417969 31.636719 20.847656 31.390625 21.265625 31.507812 C 21.679688 31.621094 21.925781 32.050781 21.808594 32.46875 "/>
</svg>
