<?xml version="1.0" encoding="UTF-8"?>
<svg xmlns="http://www.w3.org/2000/svg" xmlns:xlink="http://www.w3.org/1999/xlink" width="36.68" height="13.82" viewBox="0 0 36.68 13.82">
<defs>
<clipPath id="clip-0">
<path clip-rule="nonzero" d="M 0.078125 5 L 31 5 L 31 13.640625 L 0.078125 13.640625 Z M 0.078125 5 "/>
</clipPath>
<clipPath id="clip-1">
<path clip-rule="nonzero" d="M 0.078125 0 L 36.285156 0 L 36.285156 13.640625 L 0.078125 13.640625 Z M 0.078125 0 "/>
</clipPath>
<clipPath id="clip-2">
<path clip-rule="nonzero" d="M 28 0 L 36.285156 0 L 36.285156 8 L 28 8 Z M 28 0 "/>
</clipPath>
</defs>
<g clip-path="url(#clip-0)">
<path fill-rule="nonzero" fill="rgb(0.784302%, 43.920898%, 62.350464%)" fill-opacity="1" d="M 0.679688 13.085938 L 30.074219 13.085938 L 30.074219 5.738281 L 0.679688 5.738281 Z M 0.679688 13.085938 "/>
<path fill="none" stroke-width="3.99994" stroke-linecap="butt" stroke-linejoin="miter" stroke="rgb(100%, 100%, 100%)" stroke-opacity="1" stroke-miterlimit="4" d="M 6.09669 5.636234 L 6.09669 80.069799 L 303.870523 80.069799 L 303.870523 5.636234 Z M 6.09669 5.636234 " transform="matrix(0.0987143, 0, 0, -0.0987143, 0.0778571, 13.642314)"/>
</g>
<g clip-path="url(#clip-1)">
<path fill-rule="nonzero" fill="rgb(0.784302%, 43.920898%, 62.350464%)" fill-opacity="1" d="M 30.074219 13.121094 L 30.074219 5.738281 L 0.664062 5.738281 L 7.933594 0.191406 L 36.082031 0.191406 L 36.082031 6.34375 L 30.074219 13.121094 "/>
<path fill="none" stroke-width="3.99994" stroke-linecap="butt" stroke-linejoin="miter" stroke="rgb(100%, 100%, 100%)" stroke-opacity="1" stroke-miterlimit="4" d="M 303.870523 5.280092 L 303.870523 80.069799 L 5.938404 80.069799 L 79.580545 136.261008 L 364.731141 136.261008 L 364.731141 73.936252 Z M 303.870523 5.280092 " transform="matrix(0.0987143, 0, 0, -0.0987143, 0.0778571, 13.642314)"/>
</g>
<path fill-rule="nonzero" fill="rgb(0.784302%, 43.920898%, 62.350464%)" fill-opacity="1" d="M 30.382812 5.605469 L 35.65625 0.308594 "/>
<g clip-path="url(#clip-2)">
<path fill="none" stroke-width="3.99994" stroke-linecap="butt" stroke-linejoin="miter" stroke="rgb(100%, 100%, 100%)" stroke-opacity="1" stroke-miterlimit="4" d="M 306.996653 81.415223 L 360.417873 135.073869 " transform="matrix(0.0987143, 0, 0, -0.0987143, 0.0778571, 13.642314)"/>
</g>
<path fill-rule="nonzero" fill="rgb(100%, 100%, 100%)" fill-opacity="1" d="M 5.757812 10.671875 C 6.335938 10.671875 6.804688 10.203125 6.804688 9.625 C 6.804688 9.046875 6.335938 8.578125 5.757812 8.578125 C 5.179688 8.578125 4.710938 9.046875 4.710938 9.625 C 4.710938 10.203125 5.179688 10.671875 5.757812 10.671875 "/>
<path fill-rule="nonzero" fill="rgb(100%, 100%, 100%)" fill-opacity="1" d="M 10.445312 10.671875 C 11.027344 10.671875 11.492188 10.203125 11.492188 9.625 C 11.492188 9.046875 11.027344 8.578125 10.445312 8.578125 C 9.867188 8.578125 9.398438 9.046875 9.398438 9.625 C 9.398438 10.203125 9.867188 10.671875 10.445312 10.671875 "/>
<path fill-rule="nonzero" fill="rgb(100%, 100%, 100%)" fill-opacity="1" d="M 15.136719 10.671875 C 15.714844 10.671875 16.183594 10.203125 16.183594 9.625 C 16.183594 9.046875 15.714844 8.578125 15.136719 8.578125 C 14.558594 8.578125 14.089844 9.046875 14.089844 9.625 C 14.089844 10.203125 14.558594 10.671875 15.136719 10.671875 "/>
<path fill-rule="nonzero" fill="rgb(100%, 100%, 100%)" fill-opacity="1" d="M 19.824219 10.671875 C 20.402344 10.671875 20.871094 10.203125 20.871094 9.625 C 20.871094 9.046875 20.402344 8.578125 19.824219 8.578125 C 19.246094 8.578125 18.777344 9.046875 18.777344 9.625 C 18.777344 10.203125 19.246094 10.671875 19.824219 10.671875 "/>
<path fill-rule="nonzero" fill="rgb(100%, 100%, 100%)" fill-opacity="1" d="M 24.515625 10.671875 C 25.09375 10.671875 25.5625 10.203125 25.5625 9.625 C 25.5625 9.046875 25.09375 8.578125 24.515625 8.578125 C 23.933594 8.578125 23.46875 9.046875 23.46875 9.625 C 23.46875 10.203125 23.933594 10.671875 24.515625 10.671875 "/>
</svg>
