<?xml version="1.0" encoding="UTF-8"?>
<svg xmlns="http://www.w3.org/2000/svg" xmlns:xlink="http://www.w3.org/1999/xlink" width="34.05" height="25.75" viewBox="0 0 34.05 25.75">
<defs>
<clipPath id="clip-0">
<path clip-rule="nonzero" d="M 0 5 L 6 5 L 6 25.277344 L 0 25.277344 Z M 0 5 "/>
</clipPath>
<clipPath id="clip-1">
<path clip-rule="nonzero" d="M 4 5 L 10 5 L 10 25.277344 L 4 25.277344 Z M 4 5 "/>
</clipPath>
<clipPath id="clip-2">
<path clip-rule="nonzero" d="M 9 5 L 15 5 L 15 25.277344 L 9 25.277344 Z M 9 5 "/>
</clipPath>
<clipPath id="clip-3">
<path clip-rule="nonzero" d="M 14 5 L 20 5 L 20 25.277344 L 14 25.277344 Z M 14 5 "/>
</clipPath>
<clipPath id="clip-4">
<path clip-rule="nonzero" d="M 18 5 L 24 5 L 24 25.277344 L 18 25.277344 Z M 18 5 "/>
</clipPath>
<clipPath id="clip-5">
<path clip-rule="nonzero" d="M 23 5 L 29 5 L 29 25.277344 L 23 25.277344 Z M 23 5 "/>
</clipPath>
<clipPath id="clip-6">
<path clip-rule="nonzero" d="M 0 0.226562 L 33 0.226562 L 33 25 L 0 25 Z M 0 0.226562 "/>
</clipPath>
<clipPath id="clip-7">
<path clip-rule="nonzero" d="M 0 0.226562 L 33.125 0.226562 L 33.125 25.277344 L 0 25.277344 Z M 0 0.226562 "/>
</clipPath>
<clipPath id="clip-8">
<path clip-rule="nonzero" d="M 28 0.226562 L 33 0.226562 L 33 6 L 28 6 Z M 28 0.226562 "/>
</clipPath>
<clipPath id="clip-9">
<path clip-rule="nonzero" d="M 25 0.226562 L 33.125 0.226562 L 33.125 8 L 25 8 Z M 25 0.226562 "/>
</clipPath>
</defs>
<path fill-rule="nonzero" fill="rgb(0.784302%, 43.920898%, 62.350464%)" fill-opacity="1" d="M 0.46875 24.808594 L 5.082031 24.808594 L 5.082031 5.203125 L 0.46875 5.203125 Z M 0.46875 24.808594 "/>
<g clip-path="url(#clip-0)">
<path fill="none" stroke-width="3.99994" stroke-linecap="butt" stroke-linejoin="miter" stroke="rgb(100%, 100%, 100%)" stroke-opacity="1" stroke-miterlimit="4" d="M 52.238207 4.834572 L 52.238207 206.359214 L 4.818282 206.359214 L 4.818282 4.834572 Z M 52.238207 4.834572 " transform="matrix(0.0972857, 0, 0, -0.0972857, 0, 25.278929)"/>
</g>
<path fill-rule="nonzero" fill="rgb(0.784302%, 43.920898%, 62.350464%)" fill-opacity="1" d="M 5.082031 24.808594 L 9.695312 24.808594 L 9.695312 5.203125 L 5.082031 5.203125 Z M 5.082031 24.808594 "/>
<g clip-path="url(#clip-1)">
<path fill="none" stroke-width="3.99994" stroke-linecap="butt" stroke-linejoin="miter" stroke="rgb(100%, 100%, 100%)" stroke-opacity="1" stroke-miterlimit="4" d="M 99.658131 4.834572 L 99.658131 206.359214 L 52.238207 206.359214 L 52.238207 4.834572 Z M 99.658131 4.834572 " transform="matrix(0.0972857, 0, 0, -0.0972857, 0, 25.278929)"/>
</g>
<path fill-rule="nonzero" fill="rgb(0.784302%, 43.920898%, 62.350464%)" fill-opacity="1" d="M 9.695312 24.808594 L 14.308594 24.808594 L 14.308594 5.203125 L 9.695312 5.203125 Z M 9.695312 24.808594 "/>
<g clip-path="url(#clip-2)">
<path fill="none" stroke-width="3.99994" stroke-linecap="butt" stroke-linejoin="miter" stroke="rgb(100%, 100%, 100%)" stroke-opacity="1" stroke-miterlimit="4" d="M 147.078056 4.834572 L 147.078056 206.359214 L 99.658131 206.359214 L 99.658131 4.834572 Z M 147.078056 4.834572 " transform="matrix(0.0972857, 0, 0, -0.0972857, 0, 25.278929)"/>
</g>
<path fill-rule="nonzero" fill="rgb(0.784302%, 43.920898%, 62.350464%)" fill-opacity="1" d="M 14.308594 24.808594 L 18.921875 24.808594 L 18.921875 5.203125 L 14.308594 5.203125 Z M 14.308594 24.808594 "/>
<g clip-path="url(#clip-3)">
<path fill="none" stroke-width="3.99994" stroke-linecap="butt" stroke-linejoin="miter" stroke="rgb(100%, 100%, 100%)" stroke-opacity="1" stroke-miterlimit="4" d="M 194.497981 4.834572 L 194.497981 206.359214 L 147.078056 206.359214 L 147.078056 4.834572 Z M 194.497981 4.834572 " transform="matrix(0.0972857, 0, 0, -0.0972857, 0, 25.278929)"/>
</g>
<path fill-rule="nonzero" fill="rgb(0.784302%, 43.920898%, 62.350464%)" fill-opacity="1" d="M 18.921875 24.808594 L 23.535156 24.808594 L 23.535156 5.203125 L 18.921875 5.203125 Z M 18.921875 24.808594 "/>
<g clip-path="url(#clip-4)">
<path fill="none" stroke-width="3.99994" stroke-linecap="butt" stroke-linejoin="miter" stroke="rgb(100%, 100%, 100%)" stroke-opacity="1" stroke-miterlimit="4" d="M 241.917906 4.834572 L 241.917906 206.359214 L 194.497981 206.359214 L 194.497981 4.834572 Z M 241.917906 4.834572 " transform="matrix(0.0972857, 0, 0, -0.0972857, 0, 25.278929)"/>
</g>
<path fill-rule="nonzero" fill="rgb(0.784302%, 43.920898%, 62.350464%)" fill-opacity="1" d="M 23.535156 24.808594 L 28.148438 24.808594 L 28.148438 5.203125 L 23.535156 5.203125 Z M 23.535156 24.808594 "/>
<g clip-path="url(#clip-5)">
<path fill="none" stroke-width="3.99994" stroke-linecap="butt" stroke-linejoin="miter" stroke="rgb(100%, 100%, 100%)" stroke-opacity="1" stroke-miterlimit="4" d="M 289.33783 4.834572 L 289.33783 206.359214 L 241.917906 206.359214 L 241.917906 4.834572 Z M 289.33783 4.834572 " transform="matrix(0.0972857, 0, 0, -0.0972857, 0, 25.278929)"/>
</g>
<g clip-path="url(#clip-6)">
<path fill-rule="nonzero" fill="rgb(0.784302%, 43.920898%, 62.350464%)" fill-opacity="1" d="M 28.148438 24.808594 L 32.929688 20.027344 L 32.929688 0.421875 L 5.25 0.421875 L 0.46875 5.203125 L 28.148438 5.203125 L 28.148438 24.808594 "/>
</g>
<g clip-path="url(#clip-7)">
<path fill="none" stroke-width="3.99994" stroke-linecap="butt" stroke-linejoin="miter" stroke="rgb(100%, 100%, 100%)" stroke-opacity="1" stroke-miterlimit="4" d="M 289.33783 4.834572 L 338.484306 53.981048 L 338.484306 255.50569 L 53.964758 255.50569 L 4.818282 206.359214 L 289.33783 206.359214 Z M 289.33783 4.834572 " transform="matrix(0.0972857, 0, 0, -0.0972857, 0, 25.278929)"/>
</g>
<g clip-path="url(#clip-8)">
<path fill-rule="nonzero" fill="rgb(0.784302%, 43.920898%, 62.350464%)" fill-opacity="1" d="M 28.148438 5.203125 L 32.929688 0.421875 "/>
</g>
<g clip-path="url(#clip-9)">
<path fill="none" stroke-width="3.99994" stroke-linecap="butt" stroke-linejoin="miter" stroke="rgb(100%, 100%, 100%)" stroke-opacity="1" stroke-miterlimit="4" d="M 289.33783 206.359214 L 338.484306 255.50569 " transform="matrix(0.0972857, 0, 0, -0.0972857, 0, 25.278929)"/>
</g>
<path fill="none" stroke-width="3.99994" stroke-linecap="butt" stroke-linejoin="miter" stroke="rgb(100%, 100%, 100%)" stroke-opacity="1" stroke-miterlimit="4" d="M 289.33783 105.576817 L 4.818282 105.576817 " transform="matrix(0.0972857, 0, 0, -0.0972857, 0, 25.278929)"/>
<path fill="none" stroke-width="3.99994" stroke-linecap="butt" stroke-linejoin="miter" stroke="rgb(100%, 100%, 100%)" stroke-opacity="1" stroke-miterlimit="4" d="M 13.129818 90.479534 L 43.92667 90.479534 " transform="matrix(0.0972857, 0, 0, -0.0972857, 0, 25.278929)"/>
<path fill="none" stroke-width="3.99994" stroke-linecap="butt" stroke-linejoin="miter" stroke="rgb(100%, 100%, 100%)" stroke-opacity="1" stroke-miterlimit="4" d="M 13.129818 78.594438 L 43.92667 78.594438 " transform="matrix(0.0972857, 0, 0, -0.0972857, 0, 25.278929)"/>
<path fill="none" stroke-width="3.99994" stroke-linecap="butt" stroke-linejoin="miter" stroke="rgb(100%, 100%, 100%)" stroke-opacity="1" stroke-miterlimit="4" d="M 13.129818 66.749495 L 43.92667 66.749495 " transform="matrix(0.0972857, 0, 0, -0.0972857, 0, 25.278929)"/>
<path fill="none" stroke-width="3.99994" stroke-linecap="butt" stroke-linejoin="miter" stroke="rgb(100%, 100%, 100%)" stroke-opacity="1" stroke-miterlimit="4" d="M 13.129818 54.8644 L 43.92667 54.8644 " transform="matrix(0.0972857, 0, 0, -0.0972857, 0, 25.278929)"/>
<path fill="none" stroke-width="3.99994" stroke-linecap="butt" stroke-linejoin="miter" stroke="rgb(100%, 100%, 100%)" stroke-opacity="1" stroke-miterlimit="4" d="M 13.129818 42.979304 L 43.92667 42.979304 " transform="matrix(0.0972857, 0, 0, -0.0972857, 0, 25.278929)"/>
<path fill="none" stroke-width="3.99994" stroke-linecap="butt" stroke-linejoin="miter" stroke="rgb(100%, 100%, 100%)" stroke-opacity="1" stroke-miterlimit="4" d="M 60.549743 90.479534 L 91.346595 90.479534 " transform="matrix(0.0972857, 0, 0, -0.0972857, 0, 25.278929)"/>
<path fill="none" stroke-width="3.99994" stroke-linecap="butt" stroke-linejoin="miter" stroke="rgb(100%, 100%, 100%)" stroke-opacity="1" stroke-miterlimit="4" d="M 60.549743 78.594438 L 91.346595 78.594438 " transform="matrix(0.0972857, 0, 0, -0.0972857, 0, 25.278929)"/>
<path fill="none" stroke-width="3.99994" stroke-linecap="butt" stroke-linejoin="miter" stroke="rgb(100%, 100%, 100%)" stroke-opacity="1" stroke-miterlimit="4" d="M 60.549743 66.749495 L 91.346595 66.749495 " transform="matrix(0.0972857, 0, 0, -0.0972857, 0, 25.278929)"/>
<path fill="none" stroke-width="3.99994" stroke-linecap="butt" stroke-linejoin="miter" stroke="rgb(100%, 100%, 100%)" stroke-opacity="1" stroke-miterlimit="4" d="M 60.549743 54.8644 L 91.346595 54.8644 " transform="matrix(0.0972857, 0, 0, -0.0972857, 0, 25.278929)"/>
<path fill="none" stroke-width="3.99994" stroke-linecap="butt" stroke-linejoin="miter" stroke="rgb(100%, 100%, 100%)" stroke-opacity="1" stroke-miterlimit="4" d="M 60.549743 42.979304 L 91.346595 42.979304 " transform="matrix(0.0972857, 0, 0, -0.0972857, 0, 25.278929)"/>
</svg>
