<?xml version="1.0" encoding="UTF-8"?>
<svg xmlns="http://www.w3.org/2000/svg" xmlns:xlink="http://www.w3.org/1999/xlink" width="41.56" height="32.24" viewBox="0 0 41.56 32.24">
<defs>
<clipPath id="clip-0">
<path clip-rule="nonzero" d="M 10 0 L 40.867188 0 L 40.867188 4 L 10 4 Z M 10 0 "/>
</clipPath>
<clipPath id="clip-1">
<path clip-rule="nonzero" d="M 8 0 L 40.867188 0 L 40.867188 7 L 8 7 Z M 8 0 "/>
</clipPath>
<clipPath id="clip-2">
<path clip-rule="nonzero" d="M 37 0 L 40.867188 0 L 40.867188 31 L 37 31 Z M 37 0 "/>
</clipPath>
<clipPath id="clip-3">
<path clip-rule="nonzero" d="M 35 0 L 40.867188 0 L 40.867188 31.496094 L 35 31.496094 Z M 35 0 "/>
</clipPath>
<clipPath id="clip-4">
<path clip-rule="nonzero" d="M 0.261719 4 L 12 4 L 12 31 L 0.261719 31 Z M 0.261719 4 "/>
</clipPath>
<clipPath id="clip-5">
<path clip-rule="nonzero" d="M 0.261719 3 L 12 3 L 12 31 L 0.261719 31 Z M 0.261719 3 "/>
</clipPath>
<clipPath id="clip-6">
<path clip-rule="nonzero" d="M 0.261719 0 L 15 0 L 15 4 L 0.261719 4 Z M 0.261719 0 "/>
</clipPath>
<clipPath id="clip-7">
<path clip-rule="nonzero" d="M 0.261719 0 L 17 0 L 17 7 L 0.261719 7 Z M 0.261719 0 "/>
</clipPath>
<clipPath id="clip-8">
<path clip-rule="nonzero" d="M 0.261719 16 L 12 16 L 12 17 L 0.261719 17 Z M 0.261719 16 "/>
</clipPath>
<clipPath id="clip-9">
<path clip-rule="nonzero" d="M 37 21 L 40.867188 21 L 40.867188 27 L 37 27 Z M 37 21 "/>
</clipPath>
<clipPath id="clip-10">
<path clip-rule="nonzero" d="M 37 18 L 40.867188 18 L 40.867188 23 L 37 23 Z M 37 18 "/>
</clipPath>
<clipPath id="clip-11">
<path clip-rule="nonzero" d="M 34 15 L 40.867188 15 L 40.867188 26 L 34 26 Z M 34 15 "/>
</clipPath>
</defs>
<path fill-rule="nonzero" fill="rgb(3.292847%, 48.298645%, 73.153687%)" fill-opacity="1" d="M 37.339844 30.234375 L 11.15625 30.234375 L 11.15625 4.027344 L 37.339844 4.027344 L 37.339844 30.234375 "/>
<path fill="none" stroke-width="4" stroke-linecap="butt" stroke-linejoin="miter" stroke="rgb(100%, 100%, 100%)" stroke-opacity="1" stroke-miterlimit="4" d="M 379.502123 12.92904 L 111.493874 12.92904 L 111.493874 281.177189 L 379.502123 281.177189 Z M 379.502123 12.92904 " transform="matrix(0.097697, 0, 0, -0.097697, 0.263636, 31.497503)"/>
<g clip-path="url(#clip-0)">
<path fill-rule="nonzero" fill="rgb(3.292847%, 48.298645%, 73.153687%)" fill-opacity="1" d="M 14.21875 0.640625 L 40.402344 0.640625 L 37.125 3.953125 L 10.941406 3.953125 L 14.21875 0.640625 "/>
</g>
<g clip-path="url(#clip-1)">
<path fill="none" stroke-width="4" stroke-linecap="butt" stroke-linejoin="miter" stroke="rgb(100%, 100%, 100%)" stroke-opacity="1" stroke-miterlimit="4" d="M 142.840803 315.842734 L 410.849052 315.842734 L 377.30304 281.936872 L 109.294791 281.936872 Z M 142.840803 315.842734 " transform="matrix(0.097697, 0, 0, -0.097697, 0.263636, 31.497503)"/>
</g>
<g clip-path="url(#clip-2)">
<path fill-rule="nonzero" fill="rgb(3.292847%, 48.298645%, 73.153687%)" fill-opacity="1" d="M 40.515625 26.074219 L 37.238281 30.867188 L 37.238281 3.78125 L 40.515625 0.472656 L 40.515625 26.074219 "/>
</g>
<g clip-path="url(#clip-3)">
<path fill="none" stroke-width="4" stroke-linecap="butt" stroke-linejoin="miter" stroke="rgb(100%, 100%, 100%)" stroke-opacity="1" stroke-miterlimit="4" d="M 412.008569 55.511285 L 378.462556 6.451741 L 378.462556 283.696138 L 412.008569 317.562017 Z M 412.008569 55.511285 " transform="matrix(0.097697, 0, 0, -0.097697, 0.263636, 31.497503)"/>
</g>
<g clip-path="url(#clip-4)">
<path fill-rule="nonzero" fill="rgb(3.292847%, 48.298645%, 73.153687%)" fill-opacity="1" d="M 11.15625 30.234375 L 0.542969 30.234375 L 0.542969 4.027344 L 11.15625 4.027344 L 11.15625 30.234375 "/>
</g>
<g clip-path="url(#clip-5)">
<path fill="none" stroke-width="4" stroke-linecap="butt" stroke-linejoin="miter" stroke="rgb(100%, 100%, 100%)" stroke-opacity="1" stroke-miterlimit="4" d="M 111.493874 12.92904 L 2.859171 12.92904 L 2.859171 281.177189 L 111.493874 281.177189 Z M 111.493874 12.92904 " transform="matrix(0.097697, 0, 0, -0.097697, 0.263636, 31.497503)"/>
</g>
<g clip-path="url(#clip-6)">
<path fill-rule="nonzero" fill="rgb(3.292847%, 48.298645%, 73.153687%)" fill-opacity="1" d="M 4.011719 0.640625 L 14.625 0.640625 L 11.347656 3.953125 L 0.730469 3.953125 L 4.011719 0.640625 "/>
</g>
<g clip-path="url(#clip-7)">
<path fill="none" stroke-width="4" stroke-linecap="butt" stroke-linejoin="miter" stroke="rgb(100%, 100%, 100%)" stroke-opacity="1" stroke-miterlimit="4" d="M 38.364367 315.842734 L 146.999069 315.842734 L 113.453057 281.936872 L 4.778371 281.936872 Z M 38.364367 315.842734 " transform="matrix(0.097697, 0, 0, -0.097697, 0.263636, 31.497503)"/>
</g>
<path fill="none" stroke-width="4" stroke-linecap="butt" stroke-linejoin="miter" stroke="rgb(100%, 100%, 100%)" stroke-opacity="1" stroke-miterlimit="4" d="M 111.493874 281.177189 L 111.493874 12.92904 " transform="matrix(0.097697, 0, 0, -0.097697, 0.263636, 31.497503)"/>
<path fill-rule="nonzero" fill="rgb(69.921875%, 69.921875%, 69.921875%)" fill-opacity="1" stroke-width="4" stroke-linecap="butt" stroke-linejoin="miter" stroke="rgb(100%, 100%, 100%)" stroke-opacity="1" stroke-miterlimit="4" d="M 113.133191 281.936872 L 146.679203 315.842734 " transform="matrix(0.097697, 0, 0, -0.097697, 0.263636, 31.497503)"/>
<path fill-rule="nonzero" fill="rgb(100%, 100%, 100%)" fill-opacity="1" d="M 5.515625 11.28125 L 5.421875 11.414062 C 4.765625 12.410156 4.222656 12.90625 3.800781 12.90625 C 3.316406 12.90625 2.839844 12.519531 2.371094 11.746094 C 2.433594 11.75 2.480469 11.753906 2.511719 11.753906 C 3.0625 11.753906 3.679688 11.324219 4.359375 10.46875 L 4.53125 10.25 L 4.308594 10.007812 C 3.679688 9.351562 3.367188 8.789062 3.367188 8.328125 C 3.367188 7.953125 3.710938 7.507812 4.398438 6.996094 C 4.492188 7.652344 4.785156 8.292969 5.265625 8.914062 L 5.453125 9.15625 L 5.605469 8.957031 C 6.308594 8.054688 6.949219 7.601562 7.523438 7.601562 C 7.96875 7.601562 8.308594 7.945312 8.539062 8.628906 C 8.472656 8.621094 8.421875 8.617188 8.390625 8.617188 C 8.191406 8.617188 7.90625 8.753906 7.539062 9.023438 C 7.175781 9.296875 6.863281 9.605469 6.613281 9.945312 L 6.414062 10.203125 L 6.605469 10.382812 C 7.285156 11.039062 7.988281 11.371094 8.722656 11.371094 C 8.332031 12.167969 7.921875 12.566406 7.492188 12.566406 C 7.101562 12.566406 6.542969 12.226562 5.808594 11.546875 L 5.515625 11.28125 "/>
<path fill-rule="nonzero" fill="rgb(100%, 100%, 100%)" fill-opacity="1" d="M 8.535156 21.121094 C 7.894531 21.804688 7.1875 22.699219 6.421875 23.800781 C 5.660156 24.90625 5.089844 25.847656 4.71875 26.628906 L 4.25 26.945312 C 3.863281 27.214844 3.597656 27.417969 3.460938 27.550781 C 3.40625 27.347656 3.285156 27.023438 3.097656 26.570312 L 2.921875 26.167969 C 2.667969 25.570312 2.433594 25.132812 2.21875 24.847656 C 2 24.566406 1.753906 24.382812 1.484375 24.292969 C 1.941406 23.800781 2.359375 23.554688 2.746094 23.554688 C 3.066406 23.554688 3.425781 23.996094 3.820312 24.886719 L 4.015625 25.332031 C 4.761719 24.074219 5.921875 22.671875 7.496094 21.121094 L 7.925781 20.710938 L 9.121094 19.765625 C 9.421875 19.5625 9.703125 19.390625 9.972656 19.246094 L 10.207031 19.574219 C 9.980469 19.738281 9.730469 19.941406 9.460938 20.175781 L 8.535156 21.121094 "/>
<g clip-path="url(#clip-8)">
<path fill="none" stroke-width="4" stroke-linecap="butt" stroke-linejoin="miter" stroke="rgb(100%, 100%, 100%)" stroke-opacity="1" stroke-miterlimit="4" d="M 110.574258 151.951072 L 1.899572 151.951072 " transform="matrix(0.097697, 0, 0, -0.097697, 0.263636, 31.497503)"/>
</g>
<path fill="none" stroke-width="4" stroke-linecap="round" stroke-linejoin="round" stroke="rgb(100%, 100%, 100%)" stroke-opacity="1" stroke-miterlimit="4" d="M 377.582923 88.37758 L 111.094041 88.37758 " transform="matrix(0.097697, 0, 0, -0.097697, 0.263636, 31.497503)"/>
<path fill="none" stroke-width="4" stroke-linecap="round" stroke-linejoin="round" stroke="rgb(100%, 100%, 100%)" stroke-opacity="1" stroke-miterlimit="4" d="M 377.582923 51.472968 L 111.094041 51.472968 " transform="matrix(0.097697, 0, 0, -0.097697, 0.263636, 31.497503)"/>
<g clip-path="url(#clip-9)">
<path fill="none" stroke-width="4" stroke-linecap="round" stroke-linejoin="round" stroke="rgb(100%, 100%, 100%)" stroke-opacity="1" stroke-miterlimit="4" d="M 409.289702 95.694529 L 379.782006 50.913202 " transform="matrix(0.097697, 0, 0, -0.097697, 0.263636, 31.497503)"/>
</g>
<path fill="none" stroke-width="4" stroke-linecap="round" stroke-linejoin="round" stroke="rgb(100%, 100%, 100%)" stroke-opacity="1" stroke-miterlimit="4" d="M 190.021131 49.633735 L 190.021131 16.127706 " transform="matrix(0.097697, 0, 0, -0.097697, 0.263636, 31.497503)"/>
<path fill="none" stroke-width="4" stroke-linecap="round" stroke-linejoin="round" stroke="rgb(100%, 100%, 100%)" stroke-opacity="1" stroke-miterlimit="4" d="M 293.098151 49.633735 L 293.098151 16.127706 " transform="matrix(0.097697, 0, 0, -0.097697, 0.263636, 31.497503)"/>
<path fill="none" stroke-width="4" stroke-linecap="round" stroke-linejoin="round" stroke="rgb(100%, 100%, 100%)" stroke-opacity="1" stroke-miterlimit="4" d="M 243.59879 86.738264 L 243.59879 53.232235 " transform="matrix(0.097697, 0, 0, -0.097697, 0.263636, 31.497503)"/>
<path fill="none" stroke-width="4" stroke-linecap="round" stroke-linejoin="round" stroke="rgb(100%, 100%, 100%)" stroke-opacity="1" stroke-miterlimit="4" d="M 140.561754 86.738264 L 140.561754 53.232235 " transform="matrix(0.097697, 0, 0, -0.097697, 0.263636, 31.497503)"/>
<path fill="none" stroke-width="4" stroke-linecap="round" stroke-linejoin="round" stroke="rgb(100%, 100%, 100%)" stroke-opacity="1" stroke-miterlimit="4" d="M 346.67581 86.738264 L 346.67581 53.232235 " transform="matrix(0.097697, 0, 0, -0.097697, 0.263636, 31.497503)"/>
<g clip-path="url(#clip-10)">
<path fill-rule="nonzero" fill="rgb(0%, 0%, 0%)" fill-opacity="1" d="M 37.195312 22.933594 L 40.429688 18.164062 "/>
</g>
<g clip-path="url(#clip-11)">
<path fill="none" stroke-width="4" stroke-linecap="butt" stroke-linejoin="miter" stroke="rgb(100%, 100%, 100%)" stroke-opacity="1" stroke-miterlimit="4" d="M 378.02274 87.65788 L 411.128935 136.477524 " transform="matrix(0.097697, 0, 0, -0.097697, 0.263636, 31.497503)"/>
</g>
<path fill="none" stroke-width="4" stroke-linecap="round" stroke-linejoin="round" stroke="rgb(100%, 100%, 100%)" stroke-opacity="1" stroke-miterlimit="4" d="M 393.776171 67.34635 L 393.776171 27.802838 " transform="matrix(0.097697, 0, 0, -0.097697, 0.263636, 31.497503)"/>
<path fill="none" stroke-width="4" stroke-linecap="round" stroke-linejoin="round" stroke="rgb(100%, 100%, 100%)" stroke-opacity="1" stroke-miterlimit="4" d="M 400.85322 116.885693 L 400.85322 77.342182 " transform="matrix(0.097697, 0, 0, -0.097697, 0.263636, 31.497503)"/>
<path fill-rule="nonzero" fill="rgb(100%, 100%, 100%)" fill-opacity="1" d="M 18.480469 21.714844 C 18.945312 21.714844 19.320312 21.339844 19.320312 20.875 C 19.320312 20.410156 18.945312 20.035156 18.480469 20.035156 C 18.015625 20.035156 17.640625 20.410156 17.640625 20.875 C 17.640625 21.339844 18.015625 21.714844 18.480469 21.714844 "/>
<path fill="none" stroke-width="4" stroke-linecap="butt" stroke-linejoin="miter" stroke="rgb(0%, 0%, 0%)" stroke-opacity="1" stroke-miterlimit="4" d="M 186.462614 100.132679 C 191.22063 100.132679 195.05903 103.971078 195.05903 108.729094 C 195.05903 113.48711 191.22063 117.32551 186.462614 117.32551 C 181.704598 117.32551 177.866199 113.48711 177.866199 108.729094 C 177.866199 103.971078 181.704598 100.132679 186.462614 100.132679 Z M 186.462614 100.132679 " transform="matrix(0.097697, 0, 0, -0.097697, 0.263636, 31.497503)"/>
<path fill-rule="nonzero" fill="rgb(100%, 100%, 100%)" fill-opacity="1" d="M 17.761719 19.976562 L 19.40625 21.582031 L 24.046875 16.832031 L 22.402344 15.226562 L 17.761719 19.976562 "/>
<path fill="none" stroke-width="4" stroke-linecap="butt" stroke-linejoin="miter" stroke="rgb(0%, 0%, 0%)" stroke-opacity="1" stroke-miterlimit="4" d="M 179.105682 117.92526 L 195.938663 101.492112 L 243.438857 150.111839 L 226.605876 166.544987 Z M 179.105682 117.92526 " transform="matrix(0.097697, 0, 0, -0.097697, 0.263636, 31.497503)"/>
<path fill-rule="nonzero" fill="rgb(100%, 100%, 100%)" fill-opacity="1" d="M 21.746094 11.726562 C 21.746094 15.199219 24.574219 18.023438 28.046875 18.023438 C 31.519531 18.023438 34.347656 15.199219 34.347656 11.726562 C 34.347656 8.253906 31.519531 5.425781 28.046875 5.425781 C 24.574219 5.425781 21.746094 8.253906 21.746094 11.726562 Z M 22.628906 11.726562 C 22.628906 8.738281 25.058594 6.308594 28.046875 6.308594 C 31.035156 6.308594 33.464844 8.738281 33.464844 11.726562 C 33.464844 14.714844 31.035156 17.144531 28.046875 17.144531 C 25.058594 17.144531 22.628906 14.714844 22.628906 11.726562 "/>
<path fill="none" stroke-width="4" stroke-linecap="butt" stroke-linejoin="miter" stroke="rgb(0%, 0%, 0%)" stroke-opacity="1" stroke-miterlimit="4" d="M 219.888677 202.370049 C 219.888677 166.82487 248.836606 137.916924 284.381785 137.916924 C 319.926964 137.916924 348.874893 166.82487 348.874893 202.370049 C 348.874893 237.915228 319.926964 266.863157 284.381785 266.863157 C 248.836606 266.863157 219.888677 237.915228 219.888677 202.370049 Z M 228.924909 202.370049 C 228.924909 232.957295 253.794539 257.826925 284.381785 257.826925 C 314.969031 257.826925 339.838661 232.957295 339.838661 202.370049 C 339.838661 171.782803 314.969031 146.913173 284.381785 146.913173 C 253.794539 146.913173 228.924909 171.782803 228.924909 202.370049 Z M 228.924909 202.370049 " transform="matrix(0.097697, 0, 0, -0.097697, 0.263636, 31.497503)"/>
<path fill-rule="nonzero" fill="rgb(100%, 100%, 100%)" fill-opacity="1" d="M 21.007812 12.089844 C 21.007812 15.5625 23.835938 18.390625 27.308594 18.390625 C 30.78125 18.390625 33.609375 15.5625 33.609375 12.089844 C 33.609375 8.617188 30.78125 5.789062 27.308594 5.789062 C 23.835938 5.789062 21.007812 8.617188 21.007812 12.089844 Z M 21.890625 12.089844 C 21.890625 9.101562 24.320312 6.671875 27.308594 6.671875 C 30.296875 6.671875 32.726562 9.101562 32.726562 12.089844 C 32.726562 15.078125 30.296875 17.507812 27.308594 17.507812 C 24.320312 17.507812 21.890625 15.078125 21.890625 12.089844 "/>
<path fill="none" stroke-width="4" stroke-linecap="butt" stroke-linejoin="miter" stroke="rgb(0%, 0%, 0%)" stroke-opacity="1" stroke-miterlimit="4" d="M 212.331828 198.651599 C 212.331828 163.106421 241.279757 134.158491 276.824936 134.158491 C 312.370115 134.158491 341.318044 163.106421 341.318044 198.651599 C 341.318044 234.196778 312.370115 263.144708 276.824936 263.144708 C 241.279757 263.144708 212.331828 234.196778 212.331828 198.651599 Z M 221.36806 198.651599 C 221.36806 229.238845 246.23769 254.108475 276.824936 254.108475 C 307.412182 254.108475 332.281812 229.238845 332.281812 198.651599 C 332.281812 168.064353 307.412182 143.194723 276.824936 143.194723 C 246.23769 143.194723 221.36806 168.064353 221.36806 198.651599 Z M 221.36806 198.651599 " transform="matrix(0.097697, 0, 0, -0.097697, 0.263636, 31.497503)"/>
</svg>
