<?xml version="1.0" encoding="UTF-8"?>
<svg xmlns="http://www.w3.org/2000/svg" xmlns:xlink="http://www.w3.org/1999/xlink" width="37.19" height="25.18" viewBox="0 0 37.19 25.18">
<defs>
<clipPath id="clip-0">
<path clip-rule="nonzero" d="M 0.195312 7 L 36.210938 7 L 36.210938 24.386719 L 0.195312 24.386719 Z M 0.195312 7 "/>
</clipPath>
<clipPath id="clip-1">
<path clip-rule="nonzero" d="M 0.195312 4 L 36.210938 4 L 36.210938 24.386719 L 0.195312 24.386719 Z M 0.195312 4 "/>
</clipPath>
<clipPath id="clip-2">
<path clip-rule="nonzero" d="M 0.195312 0 L 36.210938 0 L 36.210938 15 L 0.195312 15 Z M 0.195312 0 "/>
</clipPath>
<clipPath id="clip-3">
<path clip-rule="nonzero" d="M 0.195312 0 L 36.210938 0 L 36.210938 17 L 0.195312 17 Z M 0.195312 0 "/>
</clipPath>
</defs>
<g clip-path="url(#clip-0)">
<path fill-rule="nonzero" fill="rgb(17.227173%, 41.427612%, 63.371277%)" fill-opacity="1" d="M 36.011719 7.121094 C 36.011719 10.945312 28.039062 14.046875 18.199219 14.046875 C 8.363281 14.046875 0.386719 10.945312 0.386719 7.121094 L 0.386719 17.265625 C 0.386719 21.089844 8.363281 24.191406 18.199219 24.191406 C 28.039062 24.191406 36.011719 21.089844 36.011719 17.265625 L 36.011719 7.121094 "/>
</g>
<g clip-path="url(#clip-1)">
<path fill="none" stroke-width="4" stroke-linecap="butt" stroke-linejoin="miter" stroke="rgb(100%, 100%, 100%)" stroke-opacity="1" stroke-miterlimit="4" d="M 369.839034 178.270041 C 369.839034 138.782476 287.516134 106.756811 185.913299 106.756811 C 84.350799 106.756811 1.987565 138.782476 1.987565 178.270041 L 1.987565 73.521108 C 1.987565 34.033543 84.350799 2.007878 185.913299 2.007878 C 287.516134 2.007878 369.839034 34.033543 369.839034 73.521108 Z M 369.839034 178.270041 " transform="matrix(0.0968462, 0, 0, -0.0968462, 0.194231, 24.385862)"/>
</g>
<g clip-path="url(#clip-2)">
<path fill-rule="nonzero" fill="rgb(17.227173%, 41.427612%, 63.371277%)" fill-opacity="1" d="M 18.199219 14.046875 C 28.039062 14.046875 36.011719 10.945312 36.011719 7.121094 C 36.011719 3.292969 28.039062 0.191406 18.199219 0.191406 C 8.363281 0.191406 0.386719 3.292969 0.386719 7.121094 C 0.386719 10.945312 8.363281 14.046875 18.199219 14.046875 "/>
</g>
<g clip-path="url(#clip-3)">
<path fill="none" stroke-width="4" stroke-linecap="butt" stroke-linejoin="miter" stroke="rgb(100%, 100%, 100%)" stroke-opacity="1" stroke-miterlimit="4" d="M 185.913299 106.756811 C 287.516134 106.756811 369.839034 138.782476 369.839034 178.270041 C 369.839034 217.79794 287.516134 249.823605 185.913299 249.823605 C 84.350799 249.823605 1.987565 217.79794 1.987565 178.270041 C 1.987565 138.782476 84.350799 106.756811 185.913299 106.756811 Z M 185.913299 106.756811 " transform="matrix(0.0968462, 0, 0, -0.0968462, 0.194231, 24.385862)"/>
</g>
<path fill-rule="nonzero" fill="rgb(100%, 100%, 100%)" fill-opacity="1" d="M 14.132812 4.410156 L 15.601562 6.617188 L 10.042969 7.902344 L 11.257812 6.890625 L 2.664062 5.421875 L 4.820312 3.804688 L 13.113281 5.210938 L 14.132812 4.410156 "/>
<path fill-rule="nonzero" fill="rgb(100%, 100%, 100%)" fill-opacity="1" d="M 21.957031 9.761719 L 20.953125 7.484375 L 25.972656 6.484375 L 25.101562 7.261719 L 33.460938 8.691406 L 31.457031 10.296875 L 23.144531 8.734375 L 21.957031 9.761719 "/>
<path fill-rule="nonzero" fill="rgb(100%, 100%, 100%)" fill-opacity="1" d="M 19.214844 3.207031 L 24.835938 1.667969 L 24.898438 4.074219 L 23.496094 3.808594 L 20.753906 6.082031 L 18.136719 5.699219 L 20.96875 3.476562 L 19.214844 3.207031 "/>
<path fill-rule="nonzero" fill="rgb(100%, 100%, 100%)" fill-opacity="1" d="M 16.808594 11.835938 L 11.457031 12.835938 L 11.257812 10.363281 L 12.792969 10.695312 L 15.738281 8.183594 L 18.347656 8.621094 L 15.203125 11.367188 L 16.808594 11.835938 "/>
<path fill-rule="nonzero" fill="rgb(100%, 100%, 100%)" fill-opacity="1" d="M 11.410156 15.898438 L 11.410156 16.761719 L 9.40625 15.625 L 11.410156 14.488281 L 11.414062 15.351562 L 11.394531 15.308594 L 14.859375 15.308594 L 14.859375 14.449219 L 16.867188 15.585938 L 14.859375 16.722656 L 14.859375 15.859375 L 11.394531 15.859375 L 11.410156 15.898438 "/>
<path fill-rule="nonzero" fill="rgb(100%, 100%, 100%)" fill-opacity="1" d="M 11.410156 22.152344 L 11.410156 23.015625 L 9.40625 21.875 L 11.410156 20.742188 L 11.414062 21.601562 L 11.394531 21.5625 L 14.859375 21.5625 L 14.859375 20.703125 L 16.867188 21.839844 L 14.859375 22.976562 L 14.859375 22.113281 L 11.394531 22.113281 L 11.410156 22.152344 "/>
<path fill-rule="nonzero" fill="rgb(100%, 100%, 100%)" fill-opacity="1" d="M 11.410156 19.097656 L 11.410156 19.957031 L 9.40625 18.820312 L 11.410156 17.683594 L 11.414062 18.546875 L 11.394531 18.507812 L 13.808594 18.507812 L 13.8125 17.644531 L 15.816406 18.78125 L 13.808594 19.917969 L 13.808594 19.058594 L 11.394531 19.058594 L 11.410156 19.097656 "/>
<path fill-rule="nonzero" fill="rgb(100%, 100%, 100%)" fill-opacity="1" d="M 26.980469 21.273438 C 26.640625 21.269531 26.371094 20.292969 26.382812 19.085938 C 26.390625 17.882812 26.675781 16.910156 27.019531 16.914062 L 24.464844 16.890625 C 24.121094 16.890625 23.839844 17.863281 23.828125 19.066406 C 23.820312 20.269531 24.085938 21.25 24.429688 21.253906 L 26.980469 21.273438 "/>
<path fill-rule="nonzero" fill="rgb(17.227173%, 41.427612%, 63.371277%)" fill-opacity="1" d="M 26.382812 19.089844 C 26.371094 20.214844 26.640625 21.125 26.984375 21.128906 C 27.324219 21.132812 27.605469 20.222656 27.617188 19.097656 C 27.625 17.972656 27.359375 17.058594 27.015625 17.054688 C 26.675781 17.054688 26.390625 17.960938 26.382812 19.089844 "/>
<path fill="none" stroke-width="4" stroke-linecap="butt" stroke-linejoin="miter" stroke="rgb(100%, 100%, 100%)" stroke-opacity="1" stroke-miterlimit="4" d="M 270.414267 54.684854 C 270.293264 43.068492 273.07635 33.670532 276.625794 33.630198 C 280.134904 33.589863 283.038994 42.987823 283.159998 54.604185 C 283.240667 66.220547 280.497915 75.658841 276.948471 75.699176 C 273.439362 75.699176 270.494936 66.341551 270.414267 54.684854 Z M 270.414267 54.684854 " transform="matrix(0.0968462, 0, 0, -0.0968462, 0.194231, 24.385862)"/>
<path fill-rule="nonzero" fill="rgb(100%, 100%, 100%)" fill-opacity="1" d="M 25.019531 18.929688 C 25 21.3125 23.050781 23.230469 20.667969 23.210938 C 18.28125 23.191406 16.367188 21.242188 16.386719 18.859375 C 16.40625 16.472656 18.355469 14.558594 20.738281 14.574219 C 23.125 14.597656 25.042969 16.546875 25.019531 18.929688 "/>
<path fill-rule="nonzero" fill="rgb(17.227173%, 41.427612%, 63.371277%)" fill-opacity="1" d="M 22.808594 18.992188 C 22.800781 20.136719 21.863281 21.054688 20.71875 21.046875 C 19.574219 21.035156 18.65625 20.101562 18.664062 18.957031 C 18.675781 17.8125 19.609375 16.890625 20.753906 16.898438 C 21.898438 16.910156 22.820312 17.84375 22.808594 18.992188 "/>
</svg>
