<?xml version="1.0" encoding="UTF-8"?>
<svg xmlns="http://www.w3.org/2000/svg" xmlns:xlink="http://www.w3.org/1999/xlink" width="43.53" height="31.59" viewBox="0 0 43.53 31.59">
<defs>
<clipPath id="clip-0">
<path clip-rule="nonzero" d="M 0.046875 5 L 39 5 L 39 31 L 0.046875 31 Z M 0.046875 5 "/>
</clipPath>
<clipPath id="clip-1">
<path clip-rule="nonzero" d="M 36 0 L 43.019531 0 L 43.019531 31.183594 L 36 31.183594 Z M 36 0 "/>
</clipPath>
<clipPath id="clip-2">
<path clip-rule="nonzero" d="M 0.046875 0 L 43 0 L 43 6 L 0.046875 6 Z M 0.046875 0 "/>
</clipPath>
<clipPath id="clip-3">
<path clip-rule="nonzero" d="M 0.046875 0 L 43.019531 0 L 43.019531 9 L 0.046875 9 Z M 0.046875 0 "/>
</clipPath>
</defs>
<g clip-path="url(#clip-0)">
<path fill-rule="nonzero" fill="rgb(17.227173%, 41.427612%, 63.371277%)" fill-opacity="1" d="M 0.605469 30.546875 L 38.265625 30.546875 L 38.265625 5.804688 L 0.605469 5.804688 L 0.605469 30.546875 "/>
<path fill="none" stroke-width="4" stroke-linecap="butt" stroke-linejoin="miter" stroke="rgb(100%, 100%, 100%)" stroke-opacity="1" stroke-miterlimit="4" d="M 5.658436 6.466635 L 387.147832 6.466635 L 387.147832 257.099747 L 5.658436 257.099747 Z M 5.658436 6.466635 " transform="matrix(0.0987188, 0, 0, -0.0987188, 0.046875, 31.185253)"/>
</g>
<path fill-rule="nonzero" fill="rgb(17.227173%, 41.427612%, 63.371277%)" fill-opacity="1" d="M 42.597656 24.210938 L 38.265625 30.546875 L 38.265625 5.804688 L 42.597656 0.550781 L 42.597656 24.210938 "/>
<g clip-path="url(#clip-1)">
<path fill="none" stroke-width="4" stroke-linecap="butt" stroke-linejoin="miter" stroke="rgb(100%, 100%, 100%)" stroke-opacity="1" stroke-miterlimit="4" d="M 431.030389 70.648338 L 387.147832 6.466635 L 387.147832 257.099747 L 431.030389 310.320703 Z M 431.030389 70.648338 " transform="matrix(0.0987188, 0, 0, -0.0987188, 0.046875, 31.185253)"/>
</g>
<g clip-path="url(#clip-2)">
<path fill-rule="nonzero" fill="rgb(17.227173%, 41.427612%, 63.371277%)" fill-opacity="1" d="M 7.105469 0.550781 L 42.597656 0.550781 L 38.265625 5.804688 L 0.605469 5.804688 L 7.105469 0.550781 "/>
</g>
<g clip-path="url(#clip-3)">
<path fill="none" stroke-width="4" stroke-linecap="butt" stroke-linejoin="miter" stroke="rgb(100%, 100%, 100%)" stroke-opacity="1" stroke-miterlimit="4" d="M 71.502058 310.320703 L 431.030389 310.320703 L 387.147832 257.099747 L 5.658436 257.099747 Z M 71.502058 310.320703 " transform="matrix(0.0987188, 0, 0, -0.0987188, 0.046875, 31.185253)"/>
</g>
<path fill-rule="nonzero" fill="rgb(100%, 100%, 100%)" fill-opacity="1" d="M 7.199219 12.910156 L 7.195312 14.488281 L 3.519531 12.402344 L 7.199219 10.316406 L 7.199219 11.902344 L 7.167969 11.828125 L 13.523438 11.824219 L 13.527344 10.25 L 17.210938 12.335938 L 13.523438 14.417969 L 13.523438 12.835938 L 7.167969 12.839844 L 7.199219 12.910156 "/>
<path fill-rule="nonzero" fill="rgb(100%, 100%, 100%)" fill-opacity="1" d="M 7.199219 24.382812 L 7.195312 25.964844 L 3.519531 23.875 L 7.199219 21.792969 L 7.199219 23.375 L 7.167969 23.300781 L 13.523438 23.300781 L 13.527344 21.722656 L 17.210938 23.808594 L 13.523438 25.890625 L 13.523438 24.308594 L 7.167969 24.3125 L 7.199219 24.382812 "/>
<path fill-rule="nonzero" fill="rgb(100%, 100%, 100%)" fill-opacity="1" d="M 7.199219 18.773438 L 7.195312 20.355469 L 3.519531 18.269531 L 7.199219 16.183594 L 7.199219 17.765625 L 7.167969 17.691406 L 11.597656 17.691406 L 11.601562 16.113281 L 15.285156 18.199219 L 11.597656 20.28125 L 11.597656 18.703125 L 7.167969 18.703125 L 7.199219 18.773438 "/>
<path fill-rule="nonzero" fill="rgb(100%, 100%, 100%)" fill-opacity="1" d="M 35.765625 22.765625 C 35.140625 22.761719 34.648438 20.96875 34.667969 18.757812 C 34.6875 16.550781 35.207031 14.765625 35.835938 14.765625 L 31.148438 14.730469 C 30.523438 14.722656 30.003906 16.507812 29.984375 18.722656 C 29.96875 20.929688 30.457031 22.722656 31.082031 22.730469 L 35.765625 22.765625 "/>
<path fill-rule="nonzero" fill="rgb(17.227173%, 41.427612%, 63.371277%)" fill-opacity="1" d="M 34.667969 18.761719 C 34.652344 20.824219 35.144531 22.5 35.769531 22.503906 C 36.394531 22.511719 36.917969 20.839844 36.933594 18.78125 C 36.949219 16.710938 36.457031 15.035156 35.832031 15.03125 C 35.203125 15.027344 34.6875 16.695312 34.667969 18.761719 "/>
<path fill="none" stroke-width="4" stroke-linecap="butt" stroke-linejoin="miter" stroke="rgb(100%, 100%, 100%)" stroke-opacity="1" stroke-miterlimit="4" d="M 350.704337 125.847768 C 350.546059 104.955081 355.531814 87.979772 361.862931 87.940203 C 368.194049 87.861064 373.49636 104.796803 373.654638 125.649921 C 373.812915 146.621747 368.82716 163.597056 362.496043 163.636626 C 356.125356 163.676195 350.902184 146.780025 350.704337 125.847768 Z M 350.704337 125.847768 " transform="matrix(0.0987188, 0, 0, -0.0987188, 0.046875, 31.185253)"/>
<path fill-rule="nonzero" fill="rgb(100%, 100%, 100%)" fill-opacity="1" d="M 32.167969 18.46875 C 32.132812 22.84375 28.558594 26.359375 24.179688 26.328125 C 19.808594 26.289062 16.289062 22.714844 16.328125 18.335938 C 16.363281 13.960938 19.9375 10.445312 24.3125 10.480469 C 28.691406 10.519531 32.207031 14.09375 32.167969 18.46875 "/>
<path fill-rule="nonzero" fill="rgb(17.227173%, 41.427612%, 63.371277%)" fill-opacity="1" d="M 28.113281 18.578125 C 28.097656 20.679688 26.378906 22.371094 24.277344 22.351562 C 22.179688 22.335938 20.492188 20.617188 20.507812 18.519531 C 20.527344 16.417969 22.238281 14.726562 24.34375 14.746094 C 26.445312 14.761719 28.132812 16.476562 28.113281 18.578125 "/>
</svg>
