<?xml version="1.0" encoding="UTF-8"?>
<svg xmlns="http://www.w3.org/2000/svg" xmlns:xlink="http://www.w3.org/1999/xlink" width="36.4" height="24.23" viewBox="0 0 36.4 24.23">
<defs>
<clipPath id="clip-0">
<path clip-rule="nonzero" d="M 0.269531 0.0273438 L 35.160156 0.0273438 L 35.160156 14 L 0.269531 14 Z M 0.269531 0.0273438 "/>
</clipPath>
<clipPath id="clip-1">
<path clip-rule="nonzero" d="M 0.269531 0.0273438 L 35.160156 0.0273438 L 35.160156 16 L 0.269531 16 Z M 0.269531 0.0273438 "/>
</clipPath>
<clipPath id="clip-2">
<path clip-rule="nonzero" d="M 0.269531 5 L 35.160156 5 L 35.160156 9 L 0.269531 9 Z M 0.269531 5 "/>
</clipPath>
<clipPath id="clip-3">
<path clip-rule="nonzero" d="M 0.269531 3 L 35.160156 3 L 35.160156 11 L 0.269531 11 Z M 0.269531 3 "/>
</clipPath>
<clipPath id="clip-4">
<path clip-rule="nonzero" d="M 0.269531 0.0273438 L 35.160156 0.0273438 L 35.160156 8 L 0.269531 8 Z M 0.269531 0.0273438 "/>
</clipPath>
<clipPath id="clip-5">
<path clip-rule="nonzero" d="M 0.269531 6 L 35.160156 6 L 35.160156 15 L 0.269531 15 Z M 0.269531 6 "/>
</clipPath>
<clipPath id="clip-6">
<path clip-rule="nonzero" d="M 18 2 L 29 2 L 29 8 L 18 8 Z M 18 2 "/>
</clipPath>
<clipPath id="clip-7">
<path clip-rule="nonzero" d="M 22.566406 2.277344 L 28.824219 2.300781 L 27.976562 5.089844 L 26.722656 4.398438 L 20.742188 7.355469 L 18.128906 5.875 L 24.085938 3.023438 L 22.566406 2.277344 "/>
</clipPath>
<clipPath id="clip-8">
<path clip-rule="nonzero" d="M 19 7 L 31 7 L 31 13 L 19 13 Z M 19 7 "/>
</clipPath>
<clipPath id="clip-9">
<path clip-rule="nonzero" d="M 20.171875 10.652344 L 19.328125 7.933594 L 25.78125 7.976562 L 24.242188 8.667969 L 30.375 11.152344 L 27.683594 12.503906 L 21.601562 10.03125 L 20.171875 10.652344 "/>
</clipPath>
<clipPath id="clip-10">
<path clip-rule="nonzero" d="M 19 7 L 20 7 L 20 13 L 19 13 Z M 19 7 "/>
</clipPath>
<clipPath id="clip-11">
<path clip-rule="nonzero" d="M 20.171875 10.652344 L 19.328125 7.933594 L 25.78125 7.976562 L 24.242188 8.667969 L 30.375 11.152344 L 27.683594 12.503906 L 21.601562 10.03125 L 20.171875 10.652344 "/>
</clipPath>
<clipPath id="clip-12">
<path clip-rule="nonzero" d="M 0.269531 6 L 35.160156 6 L 35.160156 23.289062 L 0.269531 23.289062 Z M 0.269531 6 "/>
</clipPath>
<clipPath id="clip-13">
<path clip-rule="nonzero" d="M 0.269531 4 L 35.160156 4 L 35.160156 23.289062 L 0.269531 23.289062 Z M 0.269531 4 "/>
</clipPath>
</defs>
<g clip-path="url(#clip-0)">
<path fill-rule="nonzero" fill="rgb(0.784302%, 42.352295%, 60.78186%)" fill-opacity="1" d="M 17.917969 13.765625 C 27.558594 13.765625 35.375 10.726562 35.375 6.976562 C 35.375 3.226562 27.558594 0.1875 17.917969 0.1875 C 8.277344 0.1875 0.464844 3.226562 0.464844 6.976562 C 0.464844 10.726562 8.277344 13.765625 17.917969 13.765625 "/>
</g>
<g clip-path="url(#clip-1)">
<path fill="none" stroke-width="4" stroke-linecap="butt" stroke-linejoin="miter" stroke="rgb(100%, 100%, 100%)" stroke-opacity="1" stroke-miterlimit="4" d="M 182.090061 100.269201 C 281.559985 100.269201 362.208007 131.625604 362.208007 170.317308 C 362.208007 209.009013 281.559985 240.365415 182.090061 240.365415 C 82.620138 240.365415 2.01242 209.009013 2.01242 170.317308 C 2.01242 131.625604 82.620138 100.269201 182.090061 100.269201 Z M 182.090061 100.269201 " transform="matrix(0.09692, 0, 0, -0.09692, 0.2698, 23.483716)"/>
</g>
<g clip-path="url(#clip-2)">
<path fill-rule="nonzero" fill="rgb(0.784302%, 42.352295%, 60.78186%)" fill-opacity="1" d="M 34.976562 5.5625 C 29.738281 4.066406 28.171875 7.054688 25.128906 7.054688 C 21.097656 7.054688 22.578125 5.253906 17.949219 5.238281 C 12.457031 5.21875 14.6875 7 10.707031 7.015625 C 7.824219 7.027344 6.695312 4.660156 0.847656 5.5625 C 0.546875 6.167969 0.4375 6.542969 0.492188 7.46875 C 5.929688 6.242188 7.445312 9.023438 10.699219 8.882812 C 15.203125 8.6875 12.847656 6.964844 17.941406 7.105469 C 22.707031 7.238281 20.320312 8.921875 25.121094 8.921875 C 29.277344 8.921875 29.773438 6.007812 35.300781 7.328125 C 35.300781 7.328125 35.550781 6.488281 34.976562 5.5625 "/>
</g>
<g clip-path="url(#clip-3)">
<path fill="none" stroke-width="3.5" stroke-linecap="butt" stroke-linejoin="miter" stroke="rgb(100%, 100%, 100%)" stroke-opacity="1" stroke-miterlimit="4" d="M 358.097013 184.907305 C 304.049538 200.343683 287.887691 169.511231 256.490985 169.511231 C 214.897402 169.511231 230.172565 188.09131 182.412492 188.252525 C 125.745267 188.454045 148.75877 170.075485 107.689138 169.91427 C 77.94489 169.793358 66.297075 194.217496 5.962198 184.907305 C 2.858801 178.660207 1.730293 174.791036 2.294547 165.239022 C 58.397519 177.894434 74.035416 149.198086 107.60853 150.649025 C 154.078879 152.664218 129.775653 170.43822 182.331885 168.987281 C 231.502592 167.61695 206.876935 150.245986 256.410377 150.245986 C 299.293683 150.245986 304.412273 180.312665 361.442233 166.689961 C 361.442233 166.689961 364.02168 175.35529 358.097013 184.907305 Z M 358.097013 184.907305 " transform="matrix(0.09692, 0, 0, -0.09692, 0.2698, 23.483716)"/>
</g>
<path fill-rule="nonzero" fill="rgb(0.784302%, 42.352295%, 60.78186%)" fill-opacity="1" d="M 30.617188 2.308594 C 27.753906 1.785156 28.492188 3.632812 25.128906 3.632812 C 21.097656 3.632812 22.722656 1.832031 18.089844 1.816406 C 12.601562 1.796875 14.4375 3.792969 10.457031 3.816406 C 7.820312 3.832031 7.035156 2.570312 4.609375 2.605469 C 3.898438 2.855469 2.71875 3.601562 1.972656 4.207031 C 6.140625 3.210938 7.734375 5.445312 10.558594 5.460938 C 15.066406 5.488281 12.988281 3.542969 18.082031 3.683594 C 22.847656 3.816406 20.320312 5.5 25.121094 5.5 C 28.492188 5.5 28.550781 2.699219 33.339844 3.816406 C 33.339844 3.816406 32.117188 2.914062 30.617188 2.308594 "/>
<g clip-path="url(#clip-4)">
<path fill="none" stroke-width="3.5" stroke-linecap="butt" stroke-linejoin="miter" stroke="rgb(100%, 100%, 100%)" stroke-opacity="1" stroke-miterlimit="4" d="M 313.117907 218.480419 C 283.575178 223.881137 291.192607 204.817411 256.490985 204.817411 C 214.897402 204.817411 231.663808 223.39749 183.863431 223.558706 C 127.236509 223.760225 146.179323 203.164953 105.109691 202.92313 C 77.904586 202.761914 69.803511 215.780061 44.774814 215.417326 C 37.439512 212.837879 25.267747 205.139842 17.56971 198.892744 C 60.573927 209.170228 77.017901 186.116421 106.157591 185.955205 C 152.668244 185.673078 131.226592 205.7444 183.782823 204.293461 C 232.953531 202.92313 206.876935 185.552167 256.410377 185.552167 C 291.192607 185.552167 291.797165 214.450034 341.209696 202.92313 C 341.209696 202.92313 328.594588 212.233321 313.117907 218.480419 Z M 313.117907 218.480419 " transform="matrix(0.09692, 0, 0, -0.09692, 0.2698, 23.483716)"/>
</g>
<path fill-rule="nonzero" fill="rgb(0.784302%, 42.352295%, 60.78186%)" fill-opacity="1" d="M 34.648438 8.9375 C 29.335938 7.652344 29.3125 10.476562 25.554688 10.476562 C 21.527344 10.476562 23.148438 8.605469 18.519531 8.589844 C 13.027344 8.570312 14.976562 10.34375 10.992188 10.367188 C 8.359375 10.378906 5 7.703125 1.296875 9.019531 C 1.839844 9.875 3.664062 10.890625 3.664062 10.890625 C 5.820312 10.195312 7.460938 12.234375 10.984375 12.234375 C 15.492188 12.234375 13.417969 10.316406 18.511719 10.457031 C 23.277344 10.589844 20.75 12.160156 25.546875 12.273438 C 29.050781 12.351562 29.933594 9.746094 32.984375 10.410156 C 32.984375 10.410156 33.996094 9.839844 34.648438 8.9375 "/>
<g clip-path="url(#clip-5)">
<path fill="none" stroke-width="3.5" stroke-linecap="butt" stroke-linejoin="miter" stroke="rgb(100%, 100%, 100%)" stroke-opacity="1" stroke-miterlimit="4" d="M 354.711489 150.084771 C 299.898241 163.344741 299.656418 134.205051 260.884105 134.205051 C 219.330827 134.205051 236.056928 153.510599 188.296856 153.671814 C 131.62963 153.873334 151.741256 135.575382 110.63132 135.333559 C 83.466519 135.212647 48.8052 162.82079 10.597142 149.23839 C 16.199378 140.411845 35.02128 129.932842 35.02128 129.932842 C 57.269011 137.106928 74.196631 116.068314 110.550712 116.068314 C 157.061365 116.068314 135.660016 135.857509 188.216248 134.40657 C 237.386956 133.036239 211.310359 116.834087 260.803498 115.665275 C 296.956059 114.859198 306.064731 141.741872 337.542045 134.890216 C 337.542045 134.890216 347.980744 140.77458 354.711489 150.084771 Z M 354.711489 150.084771 " transform="matrix(0.09692, 0, 0, -0.09692, 0.2698, 23.483716)"/>
</g>
<path fill-rule="nonzero" fill="rgb(100%, 100%, 100%)" fill-opacity="1" d="M 14.203125 12.226562 L 7.914062 12.488281 L 8.796875 9.414062 L 10.046875 10.109375 L 16.039062 7.1875 L 18.648438 8.667969 L 12.683594 11.480469 L 14.203125 12.226562 "/>
<g clip-path="url(#clip-6)">
<g clip-path="url(#clip-7)">
<path fill-rule="nonzero" fill="rgb(100%, 100%, 100%)" fill-opacity="1" d="M 22.589844 2.046875 L 28.847656 2.070312 L 28 4.859375 L 26.746094 4.164062 L 20.765625 7.121094 L 18.152344 5.503906 L 24.109375 2.648438 L 22.589844 2.046875 "/>
</g>
</g>
<path fill-rule="nonzero" fill="rgb(100%, 100%, 100%)" fill-opacity="1" d="M 15.484375 4.117188 L 17.242188 6.351562 L 9.34375 6.757812 L 10.878906 6.066406 L 5.152344 3.640625 L 8.132812 2.023438 L 14.0625 4.730469 L 15.484375 4.117188 "/>
<g clip-path="url(#clip-8)">
<g clip-path="url(#clip-9)">
<path fill-rule="nonzero" fill="rgb(100%, 100%, 100%)" fill-opacity="1" d="M 20.238281 10.621094 L 19.394531 7.902344 L 25.847656 7.949219 L 24.308594 8.636719 L 30.441406 11.125 L 27.75 12.472656 L 21.667969 10 L 20.238281 10.621094 "/>
</g>
</g>
<g clip-path="url(#clip-10)">
<g clip-path="url(#clip-11)">
<path fill-rule="nonzero" fill="rgb(100%, 100%, 100%)" fill-opacity="1" d="M 14.847656 12.226562 L 8.5625 12.488281 L 9.441406 9.414062 L 10.691406 10.109375 L 16.683594 7.1875 L 19.292969 8.667969 L 13.332031 11.480469 L 14.847656 12.226562 "/>
</g>
</g>
<g clip-path="url(#clip-12)">
<path fill-rule="nonzero" fill="rgb(0.784302%, 42.352295%, 60.78186%)" fill-opacity="1" d="M 35.375 6.558594 C 35.375 10.308594 27.558594 13.347656 17.917969 13.347656 C 8.277344 13.347656 0.464844 10.308594 0.464844 6.558594 L 0.464844 16.503906 C 0.464844 20.25 8.277344 23.289062 17.917969 23.289062 C 27.558594 23.289062 35.375 20.25 35.375 16.503906 L 35.375 6.558594 "/>
</g>
<g clip-path="url(#clip-13)">
<path fill="none" stroke-width="4" stroke-linecap="butt" stroke-linejoin="miter" stroke="rgb(100%, 100%, 100%)" stroke-opacity="1" stroke-miterlimit="4" d="M 362.208007 174.629821 C 362.208007 135.938116 281.559985 104.581714 182.090061 104.581714 C 82.620138 104.581714 2.01242 135.938116 2.01242 174.629821 L 2.01242 72.016196 C 2.01242 33.364796 82.620138 2.008394 182.090061 2.008394 C 281.559985 2.008394 362.208007 33.364796 362.208007 72.016196 Z M 362.208007 174.629821 " transform="matrix(0.09692, 0, 0, -0.09692, 0.2698, 23.483716)"/>
</g>
</svg>
