<?xml version="1.0" encoding="UTF-8"?>
<svg xmlns="http://www.w3.org/2000/svg" xmlns:xlink="http://www.w3.org/1999/xlink" width="31.65" height="21.46" viewBox="0 0 31.65 21.46">
<defs>
<clipPath id="clip-0">
<path clip-rule="nonzero" d="M 0.21875 6 L 31 6 L 31 20.542969 L 0.21875 20.542969 Z M 0.21875 6 "/>
</clipPath>
<clipPath id="clip-1">
<path clip-rule="nonzero" d="M 0.21875 3 L 31.042969 3 L 31.042969 20.542969 L 0.21875 20.542969 Z M 0.21875 3 "/>
</clipPath>
<clipPath id="clip-2">
<path clip-rule="nonzero" d="M 0.21875 0 L 31 0 L 31 13 L 0.21875 13 Z M 0.21875 0 "/>
</clipPath>
<clipPath id="clip-3">
<path clip-rule="nonzero" d="M 0.21875 0 L 31.042969 0 L 31.042969 15 L 0.21875 15 Z M 0.21875 0 "/>
</clipPath>
</defs>
<g clip-path="url(#clip-0)">
<path fill-rule="nonzero" fill="rgb(0.784302%, 42.352295%, 60.78186%)" fill-opacity="1" d="M 30.914062 6.121094 C 30.914062 9.398438 24.085938 12.050781 15.664062 12.050781 C 7.242188 12.050781 0.414062 9.398438 0.414062 6.121094 L 0.414062 14.808594 C 0.414062 18.082031 7.242188 20.738281 15.664062 20.738281 C 24.085938 20.738281 30.914062 18.082031 30.914062 14.808594 L 30.914062 6.121094 "/>
</g>
<g clip-path="url(#clip-1)">
<path fill="none" stroke-width="4" stroke-linecap="butt" stroke-linejoin="miter" stroke="rgb(100%, 100%, 100%)" stroke-opacity="1" stroke-miterlimit="4" d="M 314.6875 151.848806 C 314.6875 118.250687 244.688082 91.059838 158.350128 91.059838 C 72.012174 91.059838 2.012756 118.250687 2.012756 151.848806 L 2.012756 62.787762 C 2.012756 29.229689 72.012174 1.998794 158.350128 1.998794 C 244.688082 1.998794 314.6875 29.229689 314.6875 62.787762 Z M 314.6875 151.848806 " transform="matrix(0.0975455, 0, 0, -0.0975455, 0.217727, 20.933255)"/>
</g>
<g clip-path="url(#clip-2)">
<path fill-rule="nonzero" fill="rgb(0.784302%, 42.352295%, 60.78186%)" fill-opacity="1" d="M 15.664062 12.050781 C 24.085938 12.050781 30.914062 9.398438 30.914062 6.121094 C 30.914062 2.847656 24.085938 0.191406 15.664062 0.191406 C 7.242188 0.191406 0.414062 2.847656 0.414062 6.121094 C 0.414062 9.398438 7.242188 12.050781 15.664062 12.050781 "/>
</g>
<g clip-path="url(#clip-3)">
<path fill="none" stroke-width="4" stroke-linecap="butt" stroke-linejoin="miter" stroke="rgb(100%, 100%, 100%)" stroke-opacity="1" stroke-miterlimit="4" d="M 158.350128 91.059838 C 244.688082 91.059838 314.6875 118.250687 314.6875 151.848806 C 314.6875 185.406879 244.688082 212.637774 158.350128 212.637774 C 72.012174 212.637774 2.012756 185.406879 2.012756 151.848806 C 2.012756 118.250687 72.012174 91.059838 158.350128 91.059838 Z M 158.350128 91.059838 " transform="matrix(0.0975455, 0, 0, -0.0975455, 0.217727, 20.933255)"/>
</g>
<path fill-rule="nonzero" fill="rgb(100%, 100%, 100%)" fill-opacity="1" d="M 15.898438 4.976562 L 13.773438 1.675781 L 14.726562 1.558594 L 12.734375 0.757812 L 11.917969 1.902344 L 12.867188 1.785156 L 14.996094 5.089844 L 15.898438 4.976562 "/>
<path fill-rule="nonzero" fill="rgb(100%, 100%, 100%)" fill-opacity="1" d="M 14.695312 5.394531 L 7.246094 3.488281 L 7.730469 3.15625 L 5.105469 3.226562 L 6.296875 4.308594 L 6.785156 3.917969 L 14.230469 5.824219 L 14.695312 5.394531 "/>
<path fill-rule="nonzero" fill="rgb(100%, 100%, 100%)" fill-opacity="1" d="M 14.242188 6.078125 L 5.886719 7.125 L 5.699219 6.765625 L 3.972656 7.671875 L 6.480469 8.058594 L 6.214844 7.621094 L 14.566406 6.570312 L 14.242188 6.078125 "/>
<path fill-rule="nonzero" fill="rgb(100%, 100%, 100%)" fill-opacity="1" d="M 14.574219 6.800781 L 10.3125 10.039062 L 9.453125 9.8125 L 9.636719 11.019531 L 11.988281 10.484375 L 11.128906 10.257812 L 15.390625 7.015625 L 14.574219 6.800781 "/>
<path fill-rule="nonzero" fill="rgb(100%, 100%, 100%)" fill-opacity="1" d="M 16.699219 5.082031 L 20.34375 2.046875 L 19.484375 1.820312 L 21.832031 1.285156 L 22.019531 2.488281 L 21.160156 2.261719 L 17.519531 5.296875 L 16.699219 5.082031 "/>
<path fill-rule="nonzero" fill="rgb(100%, 100%, 100%)" fill-opacity="1" d="M 16.128906 7.105469 L 18.304688 10.667969 L 17.355469 10.78125 L 19.34375 11.582031 L 20.164062 10.4375 L 19.210938 10.554688 L 17.03125 6.992188 L 16.128906 7.105469 "/>
<path fill-rule="nonzero" fill="rgb(100%, 100%, 100%)" fill-opacity="1" d="M 17.675781 6.746094 L 24.914062 8.597656 L 24.429688 8.992188 L 27.058594 8.917969 L 25.863281 7.835938 L 25.378906 8.105469 L 18.136719 6.25 L 17.675781 6.746094 "/>
<path fill-rule="nonzero" fill="rgb(100%, 100%, 100%)" fill-opacity="1" d="M 17.886719 6.253906 L 26.1875 5.203125 L 26.453125 5.640625 L 28.179688 4.738281 L 25.671875 4.351562 L 25.9375 4.675781 L 17.636719 5.726562 L 17.886719 6.253906 "/>
<path fill-rule="nonzero" fill="rgb(0.784302%, 42.352295%, 60.78186%)" fill-opacity="1" d="M 15.953125 7.21875 C 17.347656 7.269531 18.496094 6.792969 18.519531 6.152344 C 18.542969 5.515625 17.429688 4.957031 16.035156 4.910156 C 14.636719 4.859375 13.488281 5.335938 13.464844 5.972656 C 13.445312 6.613281 14.558594 7.167969 15.953125 7.21875 "/>
<path fill="none" stroke-width="4" stroke-linecap="butt" stroke-linejoin="miter" stroke="rgb(100%, 100%, 100%)" stroke-opacity="1" stroke-miterlimit="4" d="M 161.31349 140.596039 C 175.60971 140.075449 187.383067 144.960991 187.62334 151.528442 C 187.863613 158.055848 176.450664 163.782345 162.154444 164.26289 C 147.818179 164.783481 136.044822 159.897938 135.804549 153.370532 C 135.604322 146.803081 147.017271 141.11663 161.31349 140.596039 Z M 161.31349 140.596039 " transform="matrix(0.0975455, 0, 0, -0.0975455, 0.217727, 20.933255)"/>
</svg>
