<?xml version="1.0" encoding="UTF-8"?>
<svg xmlns="http://www.w3.org/2000/svg" xmlns:xlink="http://www.w3.org/1999/xlink" width="29.15" height="26.53" viewBox="0 0 29.15 26.53">
<defs>
<clipPath id="clip-0">
<path clip-rule="nonzero" d="M 0 5 L 23 5 L 23 25.925781 L 0 25.925781 Z M 0 5 "/>
</clipPath>
<clipPath id="clip-1">
<path clip-rule="nonzero" d="M 0 4 L 23 4 L 23 25.925781 L 0 25.925781 Z M 0 4 "/>
</clipPath>
<clipPath id="clip-2">
<path clip-rule="nonzero" d="M 0 0.175781 L 28 0.175781 L 28 6 L 0 6 Z M 0 0.175781 "/>
</clipPath>
<clipPath id="clip-3">
<path clip-rule="nonzero" d="M 0 0.175781 L 28.179688 0.175781 L 28.179688 8 L 0 8 Z M 0 0.175781 "/>
</clipPath>
<clipPath id="clip-4">
<path clip-rule="nonzero" d="M 22 0.175781 L 28 0.175781 L 28 25.925781 L 22 25.925781 Z M 22 0.175781 "/>
</clipPath>
<clipPath id="clip-5">
<path clip-rule="nonzero" d="M 20 0.175781 L 28.179688 0.175781 L 28.179688 25.925781 L 20 25.925781 Z M 20 0.175781 "/>
</clipPath>
<clipPath id="clip-6">
<path clip-rule="nonzero" d="M 0 21 L 5 21 L 5 25.925781 L 0 25.925781 Z M 0 21 "/>
</clipPath>
<clipPath id="clip-7">
<path clip-rule="nonzero" d="M 1 16 L 11 16 L 11 25.925781 L 1 25.925781 Z M 1 16 "/>
</clipPath>
</defs>
<g clip-path="url(#clip-0)">
<path fill-rule="nonzero" fill="rgb(0.784302%, 42.352295%, 60.78186%)" fill-opacity="1" d="M 0.691406 25.515625 L 22.199219 25.515625 L 22.199219 5.15625 L 0.691406 5.15625 Z M 0.691406 25.515625 "/>
</g>
<g clip-path="url(#clip-1)">
<path fill="none" stroke-width="4" stroke-linecap="butt" stroke-linejoin="miter" stroke="rgb(100%, 100%, 100%)" stroke-opacity="1" stroke-miterlimit="4" d="M 228.465373 4.221527 L 228.465373 213.751973 L 7.115673 213.751973 L 7.115673 4.221527 Z M 228.465373 4.221527 " transform="matrix(0.0971667, 0, 0, -0.0971667, 0, 25.925817)"/>
</g>
<g clip-path="url(#clip-2)">
<path fill-rule="nonzero" fill="rgb(0.784302%, 42.352295%, 60.78186%)" fill-opacity="1" d="M 22.199219 5.15625 L 27.78125 0.558594 L 8.246094 0.558594 L 0.691406 5.15625 L 22.199219 5.15625 "/>
</g>
<g clip-path="url(#clip-3)">
<path fill="none" stroke-width="4" stroke-linecap="butt" stroke-linejoin="miter" stroke="rgb(100%, 100%, 100%)" stroke-opacity="1" stroke-miterlimit="4" d="M 228.465373 213.751973 L 285.913379 261.06919 L 84.865459 261.06919 L 7.115673 213.751973 Z M 228.465373 213.751973 " transform="matrix(0.0971667, 0, 0, -0.0971667, 0, 25.925817)"/>
</g>
<g clip-path="url(#clip-4)">
<path fill-rule="nonzero" fill="rgb(0.784302%, 42.352295%, 60.78186%)" fill-opacity="1" d="M 27.78125 20.917969 L 27.78125 0.558594 L 22.199219 5.15625 L 22.199219 25.515625 L 27.78125 20.917969 "/>
</g>
<g clip-path="url(#clip-5)">
<path fill="none" stroke-width="4" stroke-linecap="butt" stroke-linejoin="miter" stroke="rgb(100%, 100%, 100%)" stroke-opacity="1" stroke-miterlimit="4" d="M 285.913379 51.538744 L 285.913379 261.06919 L 228.465373 213.751973 L 228.465373 4.221527 Z M 285.913379 51.538744 " transform="matrix(0.0971667, 0, 0, -0.0971667, 0, 25.925817)"/>
</g>
<path fill-rule="nonzero" fill="rgb(100%, 100%, 100%)" fill-opacity="1" d="M 2.925781 24.5 C 3.4375 24.5 3.851562 24.082031 3.851562 23.570312 C 3.851562 23.058594 3.4375 22.644531 2.925781 22.644531 C 2.414062 22.644531 1.996094 23.058594 1.996094 23.570312 C 1.996094 24.082031 2.414062 24.5 2.925781 24.5 "/>
<g clip-path="url(#clip-6)">
<path fill="none" stroke-width="2" stroke-linecap="butt" stroke-linejoin="miter" stroke="rgb(0%, 0%, 0%)" stroke-opacity="1" stroke-miterlimit="4" d="M 30.110956 14.673928 C 35.377358 14.673928 39.638722 18.975493 39.638722 24.241895 C 39.638722 29.508298 35.377358 33.769661 30.110956 33.769661 C 24.844554 33.769661 20.542989 29.508298 20.542989 24.241895 C 20.542989 18.975493 24.844554 14.673928 30.110956 14.673928 Z M 30.110956 14.673928 " transform="matrix(0.0971667, 0, 0, -0.0971667, 0, 25.925817)"/>
</g>
<path fill-rule="nonzero" fill="rgb(100%, 100%, 100%)" fill-opacity="1" d="M 2.128906 22.582031 L 3.941406 24.351562 L 9.0625 19.109375 L 7.25 17.339844 L 2.128906 22.582031 "/>
<g clip-path="url(#clip-7)">
<path fill="none" stroke-width="2" stroke-linecap="butt" stroke-linejoin="miter" stroke="rgb(0%, 0%, 0%)" stroke-opacity="1" stroke-miterlimit="4" d="M 21.909841 34.412886 L 40.563358 16.201587 L 93.267581 70.152058 L 74.614065 88.363358 Z M 21.909841 34.412886 " transform="matrix(0.0971667, 0, 0, -0.0971667, 0, 25.925817)"/>
</g>
<path fill-rule="nonzero" fill="rgb(100%, 100%, 100%)" fill-opacity="1" d="M 6.527344 13.480469 C 6.527344 17.3125 9.644531 20.429688 13.476562 20.429688 C 17.308594 20.429688 20.425781 17.3125 20.425781 13.480469 C 20.425781 9.648438 17.308594 6.53125 13.476562 6.53125 C 9.644531 6.53125 6.527344 9.648438 6.527344 13.480469 M 7.5 13.480469 C 7.5 10.183594 10.179688 7.503906 13.476562 7.503906 C 16.773438 7.503906 19.453125 10.183594 19.453125 13.480469 C 19.453125 16.777344 16.773438 19.457031 13.476562 19.457031 C 10.179688 19.457031 7.5 16.777344 7.5 13.480469 "/>
<path fill="none" stroke-width="2" stroke-linecap="butt" stroke-linejoin="miter" stroke="rgb(0%, 0%, 0%)" stroke-opacity="1" stroke-miterlimit="4" d="M 67.17678 128.082483 C 67.17678 88.644768 99.257611 56.563937 138.695326 56.563937 C 178.13304 56.563937 210.213872 88.644768 210.213872 128.082483 C 210.213872 167.520197 178.13304 199.601029 138.695326 199.601029 C 99.257611 199.601029 67.17678 167.520197 67.17678 128.082483 M 77.186964 128.082483 C 77.186964 162.012586 104.765223 189.590845 138.695326 189.590845 C 172.625429 189.590845 200.203688 162.012586 200.203688 128.082483 C 200.203688 94.15238 172.625429 66.574121 138.695326 66.574121 C 104.765223 66.574121 77.186964 94.15238 77.186964 128.082483 Z M 77.186964 128.082483 " transform="matrix(0.0971667, 0, 0, -0.0971667, 0, 25.925817)"/>
<path fill-rule="nonzero" fill="rgb(100%, 100%, 100%)" fill-opacity="1" d="M 5.710938 13.878906 C 5.710938 17.710938 8.832031 20.832031 12.664062 20.832031 C 16.492188 20.832031 19.609375 17.710938 19.609375 13.878906 C 19.609375 10.050781 16.492188 6.929688 12.664062 6.929688 C 8.832031 6.929688 5.710938 10.050781 5.710938 13.878906 M 6.683594 13.878906 C 6.683594 10.585938 9.367188 7.902344 12.664062 7.902344 C 15.957031 7.902344 18.636719 10.585938 18.636719 13.878906 C 18.636719 17.175781 15.957031 19.859375 12.664062 19.859375 C 9.367188 19.859375 6.683594 17.175781 6.683594 13.878906 "/>
<path fill="none" stroke-width="2" stroke-linecap="butt" stroke-linejoin="miter" stroke="rgb(0%, 0%, 0%)" stroke-opacity="1" stroke-miterlimit="4" d="M 58.774657 123.981925 C 58.774657 84.544211 90.89569 52.423178 130.333405 52.423178 C 169.730918 52.423178 201.81175 84.544211 201.81175 123.981925 C 201.81175 163.379438 169.730918 195.500472 130.333405 195.500472 C 90.89569 195.500472 58.774657 163.379438 58.774657 123.981925 M 68.784841 123.981925 C 68.784841 157.871827 96.403302 185.490287 130.333405 185.490287 C 164.223306 185.490287 191.801565 157.871827 191.801565 123.981925 C 191.801565 90.051822 164.223306 62.433362 130.333405 62.433362 C 96.403302 62.433362 68.784841 90.051822 68.784841 123.981925 Z M 68.784841 123.981925 " transform="matrix(0.0971667, 0, 0, -0.0971667, 0, 25.925817)"/>
<path fill="none" stroke-width="13.113" stroke-linecap="butt" stroke-linejoin="miter" stroke="rgb(100%, 100%, 100%)" stroke-opacity="1" stroke-miterlimit="4" d="M 159.760935 98.936364 L 159.760935 152.48482 L 106.25268 152.48482 L 106.25268 98.936364 Z M 159.760935 98.936364 " transform="matrix(0.0971667, 0, 0, -0.0971667, 0, 25.925817)"/>
</svg>
