<?xml version="1.0" encoding="UTF-8"?>
<svg xmlns="http://www.w3.org/2000/svg" xmlns:xlink="http://www.w3.org/1999/xlink" width="43.53" height="31.59" viewBox="0 0 43.53 31.59">
<defs>
<clipPath id="clip-0">
<path clip-rule="nonzero" d="M 0.046875 5 L 39 5 L 39 31 L 0.046875 31 Z M 0.046875 5 "/>
</clipPath>
<clipPath id="clip-1">
<path clip-rule="nonzero" d="M 36 0 L 43.019531 0 L 43.019531 31.183594 L 36 31.183594 Z M 36 0 "/>
</clipPath>
<clipPath id="clip-2">
<path clip-rule="nonzero" d="M 0.046875 0 L 43 0 L 43 6 L 0.046875 6 Z M 0.046875 0 "/>
</clipPath>
<clipPath id="clip-3">
<path clip-rule="nonzero" d="M 0.046875 0 L 43.019531 0 L 43.019531 9 L 0.046875 9 Z M 0.046875 0 "/>
</clipPath>
</defs>
<g clip-path="url(#clip-0)">
<path fill-rule="nonzero" fill="rgb(3.292847%, 48.298645%, 73.153687%)" fill-opacity="1" d="M 0.605469 30.546875 L 38.265625 30.546875 L 38.265625 5.804688 L 0.605469 5.804688 L 0.605469 30.546875 "/>
<path fill="none" stroke-width="4" stroke-linecap="butt" stroke-linejoin="miter" stroke="rgb(100%, 100%, 100%)" stroke-opacity="1" stroke-miterlimit="4" d="M 5.658436 6.466635 L 387.147832 6.466635 L 387.147832 257.099747 L 5.658436 257.099747 Z M 5.658436 6.466635 " transform="matrix(0.0987188, 0, 0, -0.0987188, 0.046875, 31.185253)"/>
</g>
<path fill-rule="nonzero" fill="rgb(3.292847%, 48.298645%, 73.153687%)" fill-opacity="1" d="M 42.597656 24.210938 L 38.265625 30.546875 L 38.265625 5.804688 L 42.597656 0.550781 L 42.597656 24.210938 "/>
<g clip-path="url(#clip-1)">
<path fill="none" stroke-width="4" stroke-linecap="butt" stroke-linejoin="miter" stroke="rgb(100%, 100%, 100%)" stroke-opacity="1" stroke-miterlimit="4" d="M 431.030389 70.648338 L 387.147832 6.466635 L 387.147832 257.099747 L 431.030389 310.320703 Z M 431.030389 70.648338 " transform="matrix(0.0987188, 0, 0, -0.0987188, 0.046875, 31.185253)"/>
</g>
<g clip-path="url(#clip-2)">
<path fill-rule="nonzero" fill="rgb(3.292847%, 48.298645%, 73.153687%)" fill-opacity="1" d="M 7.105469 0.550781 L 42.597656 0.550781 L 38.265625 5.804688 L 0.605469 5.804688 L 7.105469 0.550781 "/>
</g>
<g clip-path="url(#clip-3)">
<path fill="none" stroke-width="4" stroke-linecap="butt" stroke-linejoin="miter" stroke="rgb(100%, 100%, 100%)" stroke-opacity="1" stroke-miterlimit="4" d="M 71.502058 310.320703 L 431.030389 310.320703 L 387.147832 257.099747 L 5.658436 257.099747 Z M 71.502058 310.320703 " transform="matrix(0.0987188, 0, 0, -0.0987188, 0.046875, 31.185253)"/>
</g>
<path fill-rule="nonzero" fill="rgb(100%, 100%, 100%)" fill-opacity="1" d="M 18.734375 25.753906 L 18.730469 22.410156 L 19.734375 22.410156 L 19.738281 25.753906 L 21.304688 25.757812 L 19.238281 29.410156 L 17.167969 25.757812 L 18.734375 25.753906 "/>
<path fill-rule="nonzero" fill="rgb(100%, 100%, 100%)" fill-opacity="1" d="M 7.023438 24.875 L 9.648438 20.339844 L 8.597656 19.734375 L 5.972656 24.269531 L 4.332031 23.324219 L 4.285156 28.40625 L 8.664062 25.828125 L 7.023438 24.875 "/>
<path fill-rule="nonzero" fill="rgb(100%, 100%, 100%)" fill-opacity="1" d="M 31.78125 24.875 L 29.15625 20.339844 L 30.207031 19.734375 L 32.832031 24.269531 L 34.476562 23.324219 L 34.519531 28.40625 L 30.140625 25.828125 L 31.78125 24.875 "/>
<path fill-rule="nonzero" fill="rgb(100%, 100%, 100%)" fill-opacity="1" d="M 25.253906 25.347656 L 24.382812 22.121094 L 25.351562 21.859375 L 26.222656 25.089844 L 27.734375 24.6875 L 26.683594 28.75 L 23.742188 25.757812 L 25.253906 25.347656 "/>
<path fill-rule="nonzero" fill="rgb(100%, 100%, 100%)" fill-opacity="1" d="M 13.359375 25.347656 L 14.230469 22.121094 L 13.261719 21.859375 L 12.390625 25.089844 L 10.878906 24.6875 L 11.929688 28.75 L 14.875 25.757812 L 13.359375 25.347656 "/>
<path fill-rule="nonzero" fill="rgb(100%, 100%, 100%)" fill-opacity="1" d="M 11.082031 11.832031 L 11.089844 17.074219 L 9.875 17.074219 L 9.871094 11.832031 L 7.976562 11.828125 L 10.476562 7.410156 L 12.980469 11.828125 L 11.082031 11.832031 "/>
<path fill-rule="nonzero" fill="rgb(100%, 100%, 100%)" fill-opacity="1" d="M 28.210938 11.832031 L 28.21875 17.074219 L 27.003906 17.074219 L 27 11.832031 L 25.105469 11.828125 L 27.605469 7.410156 L 30.109375 11.828125 L 28.210938 11.832031 "/>
<path fill-rule="nonzero" fill="rgb(3.292847%, 48.298645%, 73.153687%)" fill-opacity="1" d="M 23.742188 16.964844 C 23.742188 19.46875 21.710938 21.496094 19.207031 21.496094 C 16.703125 21.496094 14.675781 19.46875 14.675781 16.964844 C 14.675781 14.457031 16.703125 12.429688 19.207031 12.429688 C 21.710938 12.429688 23.742188 14.457031 23.742188 16.964844 "/>
<path fill="none" stroke-width="8" stroke-linecap="butt" stroke-linejoin="miter" stroke="rgb(100%, 100%, 100%)" stroke-opacity="1" stroke-miterlimit="4" d="M 240.02849 144.049731 C 240.02849 118.685692 219.452358 98.149129 194.088319 98.149129 C 168.72428 98.149129 148.187718 118.685692 148.187718 144.049731 C 148.187718 169.45334 168.72428 189.989902 194.088319 189.989902 C 219.452358 189.989902 240.02849 169.45334 240.02849 144.049731 Z M 240.02849 144.049731 " transform="matrix(0.0987188, 0, 0, -0.0987188, 0.046875, 31.185253)"/>
</svg>
