<?xml version="1.0" encoding="UTF-8"?>
<svg xmlns="http://www.w3.org/2000/svg" xmlns:xlink="http://www.w3.org/1999/xlink" width="37.9" height="35.36" viewBox="0 0 37.9 35.36">
<defs>
<clipPath id="clip-0">
<path clip-rule="nonzero" d="M 0.289062 0 L 37.515625 0 L 37.515625 7 L 0.289062 7 Z M 0.289062 0 "/>
</clipPath>
<clipPath id="clip-1">
<path clip-rule="nonzero" d="M 0.289062 0 L 37.515625 0 L 37.515625 9 L 0.289062 9 Z M 0.289062 0 "/>
</clipPath>
<clipPath id="clip-2">
<path clip-rule="nonzero" d="M 0.289062 6 L 31 6 L 31 34.4375 L 0.289062 34.4375 Z M 0.289062 6 "/>
</clipPath>
<clipPath id="clip-3">
<path clip-rule="nonzero" d="M 0.289062 6 L 32 6 L 32 34.4375 L 0.289062 34.4375 Z M 0.289062 6 "/>
</clipPath>
<clipPath id="clip-4">
<path clip-rule="nonzero" d="M 30 0 L 37 0 L 37 34.4375 L 30 34.4375 Z M 30 0 "/>
</clipPath>
<clipPath id="clip-5">
<path clip-rule="nonzero" d="M 28 0 L 37.515625 0 L 37.515625 34.4375 L 28 34.4375 Z M 28 0 "/>
</clipPath>
<clipPath id="clip-6">
<path clip-rule="nonzero" d="M 0.289062 16 L 16 16 L 16 25 L 0.289062 25 Z M 0.289062 16 "/>
</clipPath>
</defs>
<g clip-path="url(#clip-0)">
<path fill-rule="nonzero" fill="rgb(0.784302%, 42.352295%, 60.78186%)" fill-opacity="1" d="M 37.019531 0.496094 L 30.96875 6.242188 L 0.855469 6.242188 L 8.164062 0.496094 L 37.019531 0.496094 "/>
</g>
<g clip-path="url(#clip-1)">
<path fill="none" stroke-width="4" stroke-linecap="butt" stroke-linejoin="miter" stroke="rgb(100%, 100%, 100%)" stroke-opacity="1" stroke-miterlimit="4" d="M 373.965816 348.549272 L 312.362839 290.048317 L 5.779659 290.048317 L 80.188419 348.549272 Z M 373.965816 348.549272 " transform="matrix(0.0982222, 0, 0, -0.0982222, 0.287778, 34.731378)"/>
</g>
<g clip-path="url(#clip-2)">
<path fill-rule="nonzero" fill="rgb(0.784302%, 42.352295%, 60.78186%)" fill-opacity="1" d="M 0.855469 34.25 L 30.96875 34.25 L 30.96875 6.242188 L 0.855469 6.242188 Z M 0.855469 34.25 "/>
</g>
<g clip-path="url(#clip-3)">
<path fill="none" stroke-width="4" stroke-linecap="butt" stroke-linejoin="miter" stroke="rgb(100%, 100%, 100%)" stroke-opacity="1" stroke-miterlimit="4" d="M 312.362839 4.900905 L 312.362839 290.048317 L 5.779659 290.048317 L 5.779659 4.900905 Z M 312.362839 4.900905 " transform="matrix(0.0982222, 0, 0, -0.0982222, 0.287778, 34.731378)"/>
</g>
<g clip-path="url(#clip-4)">
<path fill-rule="nonzero" fill="rgb(0.784302%, 42.352295%, 60.78186%)" fill-opacity="1" d="M 36.328125 28.492188 L 36.328125 0.484375 L 30.714844 6.242188 L 30.714844 34.25 L 36.328125 28.492188 "/>
</g>
<g clip-path="url(#clip-5)">
<path fill="none" stroke-width="4" stroke-linecap="butt" stroke-linejoin="miter" stroke="rgb(100%, 100%, 100%)" stroke-opacity="1" stroke-miterlimit="4" d="M 366.926612 63.521168 L 366.926612 348.66858 L 309.777821 290.048317 L 309.777821 4.900905 Z M 366.926612 63.521168 " transform="matrix(0.0982222, 0, 0, -0.0982222, 0.287778, 34.731378)"/>
</g>
<path fill-rule="nonzero" fill="rgb(0.784302%, 42.352295%, 60.78186%)" fill-opacity="1" d="M 2.359375 31.988281 L 29.261719 31.988281 L 29.261719 8.382812 L 2.359375 8.382812 Z M 2.359375 31.988281 "/>
<path fill="none" stroke-width="4" stroke-linecap="butt" stroke-linejoin="miter" stroke="rgb(100%, 100%, 100%)" stroke-opacity="1" stroke-miterlimit="4" d="M 294.983562 268.254624 L 21.090922 268.254624 L 21.090922 27.927453 L 294.983562 27.927453 Z M 294.983562 268.254624 " transform="matrix(0.0982222, 0, 0, -0.0982222, 0.287778, 34.731378)"/>
<g clip-path="url(#clip-6)">
<path fill="none" stroke-width="4.8" stroke-linecap="butt" stroke-linejoin="miter" stroke="rgb(100%, 100%, 100%)" stroke-opacity="1" stroke-dasharray="12 12" stroke-miterlimit="4" d="M 131.371783 161.47348 L 34.373939 129.459021 " transform="matrix(0.0982222, 0, 0, -0.0982222, 0.287778, 34.731378)"/>
</g>
<path fill-rule="nonzero" fill="rgb(0.784302%, 42.352295%, 60.78186%)" fill-opacity="1" d="M 17.613281 16.511719 L 29.25 12.191406 L 29.25 14.746094 L 17.613281 16.511719 "/>
<path fill="none" stroke-width="4" stroke-linecap="butt" stroke-linejoin="miter" stroke="rgb(100%, 100%, 100%)" stroke-opacity="1" stroke-miterlimit="4" d="M 176.390872 185.494266 L 294.864253 229.479348 L 294.864253 203.470086 Z M 176.390872 185.494266 " transform="matrix(0.0982222, 0, 0, -0.0982222, 0.287778, 34.731378)"/>
<path fill-rule="nonzero" fill="rgb(0.784302%, 42.352295%, 60.78186%)" fill-opacity="1" stroke-width="4" stroke-linecap="butt" stroke-linejoin="miter" stroke="rgb(100%, 100%, 100%)" stroke-opacity="1" stroke-miterlimit="4" d="M 176.390872 185.494266 L 294.864253 201.481611 L 294.864253 175.472349 L 176.390872 185.494266 " transform="matrix(0.0982222, 0, 0, -0.0982222, 0.287778, 34.731378)"/>
<path fill-rule="nonzero" fill="rgb(0.784302%, 42.352295%, 60.78186%)" fill-opacity="1" stroke-width="4" stroke-linecap="butt" stroke-linejoin="miter" stroke="rgb(100%, 100%, 100%)" stroke-opacity="1" stroke-miterlimit="4" d="M 176.390872 185.494266 L 294.864253 175.233732 L 294.864253 149.264239 L 176.390872 185.494266 " transform="matrix(0.0982222, 0, 0, -0.0982222, 0.287778, 34.731378)"/>
<path fill-rule="nonzero" fill="rgb(100%, 100%, 100%)" fill-opacity="1" d="M 25.398438 29.867188 L 7.007812 29.867188 L 16.203125 11.480469 L 25.398438 29.867188 "/>
<path fill-rule="nonzero" fill="rgb(0.784302%, 42.352295%, 60.78186%)" fill-opacity="1" d="M 14.945312 22.179688 L 13.140625 20.375 L 13.445312 20.070312 L 12.3125 19.839844 L 12.542969 20.972656 L 12.847656 20.667969 L 14.652344 22.472656 L 14.945312 22.179688 "/>
<path fill-rule="nonzero" fill="rgb(0.784302%, 42.352295%, 60.78186%)" fill-opacity="1" d="M 14.285156 23.363281 L 11.734375 23.363281 L 11.734375 22.929688 L 10.769531 23.566406 L 11.734375 24.207031 L 11.734375 23.773438 L 14.285156 23.773438 L 14.285156 23.363281 "/>
<path fill-rule="nonzero" fill="rgb(0.784302%, 42.352295%, 60.78186%)" fill-opacity="1" d="M 14.652344 24.664062 L 12.847656 26.46875 L 12.542969 26.164062 L 12.3125 27.296875 L 13.445312 27.066406 L 13.140625 26.761719 L 14.945312 24.957031 L 14.652344 24.664062 "/>
<path fill-rule="nonzero" fill="rgb(0.784302%, 42.352295%, 60.78186%)" fill-opacity="1" d="M 15.835938 25.324219 L 15.835938 27.875 L 15.402344 27.875 L 16.039062 28.839844 L 16.679688 27.875 L 16.246094 27.875 L 16.246094 25.324219 L 15.835938 25.324219 "/>
<path fill-rule="nonzero" fill="rgb(0.784302%, 42.352295%, 60.78186%)" fill-opacity="1" d="M 15.835938 21.886719 L 15.835938 19.332031 L 15.402344 19.332031 L 16.039062 18.371094 L 16.679688 19.332031 L 16.246094 19.332031 L 16.246094 21.886719 L 15.835938 21.886719 "/>
<path fill-rule="nonzero" fill="rgb(0.784302%, 42.352295%, 60.78186%)" fill-opacity="1" d="M 17.136719 24.957031 L 18.941406 26.761719 L 18.636719 27.066406 L 19.769531 27.296875 L 19.539062 26.164062 L 19.234375 26.46875 L 17.429688 24.664062 L 17.136719 24.957031 "/>
<path fill-rule="nonzero" fill="rgb(0.784302%, 42.352295%, 60.78186%)" fill-opacity="1" d="M 17.796875 23.773438 L 20.351562 23.773438 L 20.351562 24.207031 L 21.3125 23.566406 L 20.351562 22.929688 L 20.351562 23.363281 L 17.796875 23.363281 L 17.796875 23.773438 "/>
<path fill-rule="nonzero" fill="rgb(0.784302%, 42.352295%, 60.78186%)" fill-opacity="1" d="M 17.429688 22.472656 L 19.234375 20.667969 L 19.539062 20.972656 L 19.769531 19.839844 L 18.636719 20.070312 L 18.941406 20.375 L 17.136719 22.179688 L 17.429688 22.472656 "/>
<path fill-rule="nonzero" fill="rgb(0.784302%, 42.352295%, 60.78186%)" fill-opacity="1" d="M 17.609375 25.726562 C 18.8125 24.886719 19.105469 23.226562 18.261719 22.019531 C 17.417969 20.816406 15.757812 20.523438 14.554688 21.367188 C 13.351562 22.210938 13.058594 23.871094 13.898438 25.074219 C 14.742188 26.28125 16.402344 26.574219 17.609375 25.726562 "/>
<path fill="none" stroke-width="4" stroke-linecap="butt" stroke-linejoin="miter" stroke="rgb(100%, 100%, 100%)" stroke-opacity="1" stroke-miterlimit="4" d="M 176.351103 91.677984 C 188.600113 100.228429 191.582827 117.130472 182.992612 129.419252 C 174.402397 141.668262 157.500354 144.650976 145.251343 136.060761 C 133.002333 127.470546 130.01962 110.568503 138.570065 98.319492 C 147.16028 86.030713 164.062323 83.047999 176.351103 91.677984 Z M 176.351103 91.677984 " transform="matrix(0.0982222, 0, 0, -0.0982222, 0.287778, 34.731378)"/>
</svg>
