<?xml version="1.0" encoding="UTF-8"?>
<svg xmlns="http://www.w3.org/2000/svg" xmlns:xlink="http://www.w3.org/1999/xlink" width="35.22" height="30.55" viewBox="0 0 35.22 30.55">
<defs>
<clipPath id="clip-0">
<path clip-rule="nonzero" d="M 0 6 L 34.242188 6 L 34.242188 30 L 0 30 Z M 0 6 "/>
</clipPath>
<clipPath id="clip-1">
<path clip-rule="nonzero" d="M 0 4 L 34.242188 4 L 34.242188 30 L 0 30 Z M 0 4 "/>
</clipPath>
<clipPath id="clip-2">
<path clip-rule="nonzero" d="M 0 0.109375 L 34.242188 0.109375 L 34.242188 14 L 0 14 Z M 0 0.109375 "/>
</clipPath>
<clipPath id="clip-3">
<path clip-rule="nonzero" d="M 0 0.109375 L 34.242188 0.109375 L 34.242188 16 L 0 16 Z M 0 0.109375 "/>
</clipPath>
</defs>
<g clip-path="url(#clip-0)">
<path fill-rule="nonzero" fill="rgb(0.784302%, 42.352295%, 60.78186%)" fill-opacity="1" d="M 34.144531 6.753906 L 34.144531 23.230469 L 25.929688 29.804688 L 8.859375 29.804688 L 0.324219 23.230469 L 0.324219 6.753906 "/>
</g>
<g clip-path="url(#clip-1)">
<path fill="none" stroke-width="4" stroke-linecap="butt" stroke-linejoin="miter" stroke="rgb(100%, 100%, 100%)" stroke-opacity="1" stroke-miterlimit="4" d="M 349.007134 237.598062 L 349.007134 69.183454 L 265.039395 1.985307 L 90.555792 1.985307 L 3.313991 69.183454 L 3.313991 237.598062 " transform="matrix(0.0978333, 0, 0, -0.0978333, 0, 29.998917)"/>
</g>
<g clip-path="url(#clip-2)">
<path fill-rule="nonzero" fill="rgb(0.784302%, 42.352295%, 60.78186%)" fill-opacity="1" d="M 25.769531 0.304688 L 9.019531 0.304688 L 0.324219 6.753906 L 8.859375 13.324219 L 25.929688 13.324219 L 34.144531 6.753906 L 25.769531 0.304688 "/>
</g>
<g clip-path="url(#clip-3)">
<path fill="none" stroke-width="4" stroke-linecap="butt" stroke-linejoin="miter" stroke="rgb(100%, 100%, 100%)" stroke-opacity="1" stroke-miterlimit="4" d="M 263.402364 303.518526 L 92.192824 303.518526 L 3.313991 237.598062 L 90.555792 170.439842 L 265.039395 170.439842 L 349.007134 237.598062 Z M 263.402364 303.518526 " transform="matrix(0.0978333, 0, 0, -0.0978333, 0, 29.998917)"/>
</g>
<path fill="none" stroke-width="3.85" stroke-linecap="butt" stroke-linejoin="miter" stroke="rgb(100%, 100%, 100%)" stroke-opacity="1" stroke-miterlimit="4" d="M 89.038543 3.063352 L 89.038543 170.439842 " transform="matrix(0.0978333, 0, 0, -0.0978333, 0, 29.998917)"/>
<path fill="none" stroke-width="3.85" stroke-linecap="butt" stroke-linejoin="miter" stroke="rgb(100%, 100%, 100%)" stroke-opacity="1" stroke-miterlimit="4" d="M 264.719974 3.063352 L 264.719974 170.439842 " transform="matrix(0.0978333, 0, 0, -0.0978333, 0, 29.998917)"/>
<path fill="none" stroke-width="5.775" stroke-linecap="butt" stroke-linejoin="miter" stroke="rgb(100%, 100%, 100%)" stroke-opacity="1" stroke-miterlimit="1" d="M 178.476363 286.748935 L 178.476363 189.525234 " transform="matrix(0.0978333, 0, 0, -0.0978333, 0, 29.998917)"/>
<path fill="none" stroke-width="5.775" stroke-linecap="butt" stroke-linejoin="miter" stroke="rgb(100%, 100%, 100%)" stroke-opacity="1" stroke-miterlimit="1" d="M 270.1102 238.157049 L 91.673765 238.157049 " transform="matrix(0.0978333, 0, 0, -0.0978333, 0, 29.998917)"/>
<path fill="none" stroke-width="5.775" stroke-linecap="butt" stroke-linejoin="miter" stroke="rgb(100%, 100%, 100%)" stroke-opacity="1" stroke-miterlimit="1" d="M 91.673765 281.877768 L 135.075064 281.877768 L 226.748829 189.525234 L 265.318888 189.525234 " transform="matrix(0.0978333, 0, 0, -0.0978333, 0, 29.998917)"/>
<path fill="none" stroke-width="5.775" stroke-linecap="butt" stroke-linejoin="miter" stroke="rgb(100%, 100%, 100%)" stroke-opacity="1" stroke-miterlimit="1" d="M 265.318888 281.877768 L 226.748829 281.877768 L 135.075064 189.525234 L 91.673765 189.525234 " transform="matrix(0.0978333, 0, 0, -0.0978333, 0, 29.998917)"/>
<path fill="none" stroke-width="5.775" stroke-linecap="butt" stroke-linejoin="miter" stroke="rgb(100%, 100%, 100%)" stroke-opacity="1" stroke-miterlimit="1" d="M 270.1102 238.157049 L 91.673765 238.157049 " transform="matrix(0.0978333, 0, 0, -0.0978333, 0, 29.998917)"/>
<path fill="none" stroke-width="5.775" stroke-linecap="butt" stroke-linejoin="miter" stroke="rgb(100%, 100%, 100%)" stroke-opacity="1" stroke-miterlimit="1" d="M 91.673765 281.877768 L 135.075064 281.877768 L 226.748829 189.525234 L 265.318888 189.525234 " transform="matrix(0.0978333, 0, 0, -0.0978333, 0, 29.998917)"/>
<path fill="none" stroke-width="5.775" stroke-linecap="butt" stroke-linejoin="miter" stroke="rgb(100%, 100%, 100%)" stroke-opacity="1" stroke-miterlimit="1" d="M 265.318888 281.877768 L 226.748829 281.877768 L 135.075064 189.525234 L 91.673765 189.525234 " transform="matrix(0.0978333, 0, 0, -0.0978333, 0, 29.998917)"/>
<path fill="none" stroke-width="5.775" stroke-linecap="butt" stroke-linejoin="miter" stroke="rgb(100%, 100%, 100%)" stroke-opacity="1" stroke-miterlimit="1" d="M 178.476363 286.748935 L 178.476363 184.693995 " transform="matrix(0.0978333, 0, 0, -0.0978333, 0, 29.998917)"/>
<path fill="none" stroke-width="5.775" stroke-linecap="butt" stroke-linejoin="miter" stroke="rgb(100%, 100%, 100%)" stroke-opacity="1" stroke-miterlimit="1" d="M 178.476363 286.748935 L 178.476363 189.525234 " transform="matrix(0.0978333, 0, 0, -0.0978333, 0, 29.998917)"/>
<path fill="none" stroke-width="5.775" stroke-linecap="butt" stroke-linejoin="miter" stroke="rgb(100%, 100%, 100%)" stroke-opacity="1" stroke-miterlimit="1" d="M 270.1102 238.157049 L 91.673765 238.157049 " transform="matrix(0.0978333, 0, 0, -0.0978333, 0, 29.998917)"/>
<path fill="none" stroke-width="5.775" stroke-linecap="butt" stroke-linejoin="miter" stroke="rgb(100%, 100%, 100%)" stroke-opacity="1" stroke-miterlimit="1" d="M 91.673765 281.877768 L 135.075064 281.877768 L 226.748829 189.525234 L 265.318888 189.525234 " transform="matrix(0.0978333, 0, 0, -0.0978333, 0, 29.998917)"/>
<path fill="none" stroke-width="5.775" stroke-linecap="butt" stroke-linejoin="miter" stroke="rgb(100%, 100%, 100%)" stroke-opacity="1" stroke-miterlimit="1" d="M 265.318888 281.877768 L 226.748829 281.877768 L 135.075064 189.525234 L 91.673765 189.525234 " transform="matrix(0.0978333, 0, 0, -0.0978333, 0, 29.998917)"/>
<path fill="none" stroke-width="5.775" stroke-linecap="butt" stroke-linejoin="miter" stroke="rgb(100%, 100%, 100%)" stroke-opacity="1" stroke-miterlimit="1" d="M 91.673765 281.877768 L 135.075064 281.877768 L 226.748829 189.525234 L 265.318888 189.525234 " transform="matrix(0.0978333, 0, 0, -0.0978333, 0, 29.998917)"/>
<path fill="none" stroke-width="5.775" stroke-linecap="butt" stroke-linejoin="miter" stroke="rgb(100%, 100%, 100%)" stroke-opacity="1" stroke-miterlimit="1" d="M 265.318888 281.877768 L 226.748829 281.877768 L 135.075064 189.525234 L 91.673765 189.525234 " transform="matrix(0.0978333, 0, 0, -0.0978333, 0, 29.998917)"/>
<path fill="none" stroke-width="5.775" stroke-linecap="butt" stroke-linejoin="miter" stroke="rgb(100%, 100%, 100%)" stroke-opacity="1" stroke-miterlimit="1" d="M 270.1102 238.157049 L 91.673765 238.157049 " transform="matrix(0.0978333, 0, 0, -0.0978333, 0, 29.998917)"/>
<path fill="none" stroke-width="5.775" stroke-linecap="butt" stroke-linejoin="miter" stroke="rgb(100%, 100%, 100%)" stroke-opacity="1" stroke-miterlimit="1" d="M 91.673765 281.877768 L 135.075064 281.877768 L 226.748829 189.525234 L 265.318888 189.525234 " transform="matrix(0.0978333, 0, 0, -0.0978333, 0, 29.998917)"/>
<path fill="none" stroke-width="5.775" stroke-linecap="butt" stroke-linejoin="miter" stroke="rgb(100%, 100%, 100%)" stroke-opacity="1" stroke-miterlimit="1" d="M 265.318888 281.877768 L 226.748829 281.877768 L 135.075064 189.525234 L 91.673765 189.525234 " transform="matrix(0.0978333, 0, 0, -0.0978333, 0, 29.998917)"/>
<path fill="none" stroke-width="5.775" stroke-linecap="butt" stroke-linejoin="miter" stroke="rgb(100%, 100%, 100%)" stroke-opacity="1" stroke-miterlimit="1" d="M 91.673765 281.877768 L 135.075064 281.877768 L 226.748829 189.525234 L 265.318888 189.525234 " transform="matrix(0.0978333, 0, 0, -0.0978333, 0, 29.998917)"/>
<path fill="none" stroke-width="5.775" stroke-linecap="butt" stroke-linejoin="miter" stroke="rgb(100%, 100%, 100%)" stroke-opacity="1" stroke-miterlimit="1" d="M 265.318888 281.877768 L 226.748829 281.877768 L 135.075064 189.525234 L 91.673765 189.525234 " transform="matrix(0.0978333, 0, 0, -0.0978333, 0, 29.998917)"/>
<path fill="none" stroke-width="5.775" stroke-linecap="butt" stroke-linejoin="miter" stroke="rgb(100%, 100%, 100%)" stroke-opacity="1" stroke-miterlimit="1" d="M 178.476363 286.748935 L 178.476363 184.693995 " transform="matrix(0.0978333, 0, 0, -0.0978333, 0, 29.998917)"/>
<path fill-rule="nonzero" fill="rgb(100%, 100%, 100%)" fill-opacity="1" d="M 15.320312 22.839844 L 18.714844 22.839844 L 18.714844 19.890625 L 15.320312 19.890625 Z M 15.320312 22.839844 "/>
<path fill="none" stroke-width="10" stroke-linecap="butt" stroke-linejoin="miter" stroke="rgb(100%, 100%, 100%)" stroke-opacity="1" stroke-miterlimit="4" d="M 228.825064 90.824212 L 182.708688 90.824212 " transform="matrix(0.0978333, 0, 0, -0.0978333, 0, 29.998917)"/>
<path fill-rule="nonzero" fill="rgb(100%, 100%, 100%)" fill-opacity="1" d="M 24.753906 21.148438 L 20.601562 22.847656 L 21.585938 21.148438 L 20.601562 19.453125 L 24.753906 21.148438 "/>
<path fill="none" stroke-width="10" stroke-linecap="butt" stroke-linejoin="miter" stroke="rgb(100%, 100%, 100%)" stroke-opacity="1" stroke-miterlimit="4" d="M 122.17845 90.824212 L 160.229451 90.824212 " transform="matrix(0.0978333, 0, 0, -0.0978333, 0, 29.998917)"/>
<path fill-rule="nonzero" fill="rgb(100%, 100%, 100%)" fill-opacity="1" d="M 13.667969 19.355469 L 12.683594 21.050781 L 13.667969 22.75 L 9.519531 21.050781 L 13.667969 19.355469 "/>
<path fill="none" stroke-width="10" stroke-linecap="butt" stroke-linejoin="miter" stroke="rgb(100%, 100%, 100%)" stroke-opacity="1" stroke-miterlimit="4" d="M 174.124255 137.619357 L 174.124255 94.337841 " transform="matrix(0.0978333, 0, 0, -0.0978333, 0, 29.998917)"/>
<path fill-rule="nonzero" fill="rgb(100%, 100%, 100%)" fill-opacity="1" d="M 17.0625 14.21875 L 18.757812 18.371094 L 17.0625 17.382812 L 15.367188 18.371094 L 17.0625 14.21875 "/>
<path fill="none" stroke-width="10" stroke-linecap="butt" stroke-linejoin="miter" stroke="rgb(100%, 100%, 100%)" stroke-opacity="1" stroke-miterlimit="4" d="M 174.124255 35.484561 L 174.124255 78.087308 " transform="matrix(0.0978333, 0, 0, -0.0978333, 0, 29.998917)"/>
<path fill-rule="nonzero" fill="rgb(100%, 100%, 100%)" fill-opacity="1" d="M 15.332031 24.773438 L 17.03125 25.761719 L 18.726562 24.773438 L 17.03125 28.925781 L 15.332031 24.773438 "/>
</svg>
