<?xml version="1.0" encoding="UTF-8"?>
<svg xmlns="http://www.w3.org/2000/svg" xmlns:xlink="http://www.w3.org/1999/xlink" width="36.65" height="36.95" viewBox="0 0 36.65 36.95">
<defs>
<clipPath id="clip-0">
<path clip-rule="nonzero" d="M 0 7 L 36.304688 7 L 36.304688 36.75 L 0 36.75 Z M 0 7 "/>
</clipPath>
<clipPath id="clip-1">
<path clip-rule="nonzero" d="M 0 5 L 36.304688 5 L 36.304688 36.75 L 0 36.75 Z M 0 5 "/>
</clipPath>
<clipPath id="clip-2">
<path clip-rule="nonzero" d="M 0 0.148438 L 36.304688 0.148438 L 36.304688 15 L 0 15 Z M 0 0.148438 "/>
</clipPath>
<clipPath id="clip-3">
<path clip-rule="nonzero" d="M 0 0.148438 L 36.304688 0.148438 L 36.304688 17 L 0 17 Z M 0 0.148438 "/>
</clipPath>
<clipPath id="clip-4">
<path clip-rule="nonzero" d="M 1 10 L 35 10 L 35 36.75 L 1 36.75 Z M 1 10 "/>
</clipPath>
</defs>
<g clip-path="url(#clip-0)">
<path fill-rule="nonzero" fill="rgb(0.784302%, 42.352295%, 60.78186%)" fill-opacity="1" d="M 36.128906 7.28125 C 36.128906 11.140625 28.085938 14.269531 18.164062 14.269531 C 8.242188 14.269531 0.199219 11.140625 0.199219 7.28125 L 0.199219 29.566406 C 0.199219 33.425781 8.242188 36.554688 18.164062 36.554688 C 28.085938 36.554688 36.128906 33.425781 36.128906 29.566406 L 36.128906 7.28125 "/>
</g>
<g clip-path="url(#clip-1)">
<path fill="none" stroke-width="4" stroke-linecap="butt" stroke-linejoin="miter" stroke="rgb(100%, 100%, 100%)" stroke-opacity="1" stroke-miterlimit="4" d="M 364.739299 297.50648 C 364.739299 258.544168 283.541525 226.956301 183.375256 226.956301 C 83.208987 226.956301 2.011212 258.544168 2.011212 297.50648 L 2.011212 72.526731 C 2.011212 33.564418 83.208987 1.976552 183.375256 1.976552 C 283.541525 1.976552 364.739299 33.564418 364.739299 72.526731 Z M 364.739299 297.50648 " transform="matrix(0.0990541, 0, 0, -0.0990541, 0, 36.750473)"/>
</g>
<g clip-path="url(#clip-2)">
<path fill-rule="nonzero" fill="rgb(0.784302%, 42.352295%, 60.78186%)" fill-opacity="1" d="M 18.164062 14.300781 C 28.078125 14.300781 36.113281 11.175781 36.113281 7.324219 C 36.113281 3.46875 28.078125 0.34375 18.164062 0.34375 C 8.253906 0.34375 0.21875 3.46875 0.21875 7.324219 C 0.21875 11.175781 8.253906 14.300781 18.164062 14.300781 "/>
</g>
<g clip-path="url(#clip-3)">
<path fill="none" stroke-width="4" stroke-linecap="butt" stroke-linejoin="miter" stroke="rgb(100%, 100%, 100%)" stroke-opacity="1" stroke-miterlimit="4" d="M 183.375256 226.640817 C 283.462653 226.640817 364.581557 258.189248 364.581557 297.072689 C 364.581557 335.995566 283.462653 367.543997 183.375256 367.543997 C 83.327294 367.543997 2.20839 335.995566 2.20839 297.072689 C 2.20839 258.189248 83.327294 226.640817 183.375256 226.640817 Z M 183.375256 226.640817 " transform="matrix(0.0990541, 0, 0, -0.0990541, 0, 36.750473)"/>
</g>
<path fill-rule="nonzero" fill="rgb(100%, 100%, 100%)" fill-opacity="1" d="M 13.9375 3.15625 L 21.296875 2.4375 L 19.878906 4.792969 L 17.996094 4.429688 L 6.984375 8.589844 L 5.011719 8.046875 L 15.796875 3.945312 L 13.9375 3.15625 "/>
<path fill-rule="nonzero" fill="rgb(100%, 100%, 100%)" fill-opacity="1" d="M 22.453125 5.765625 L 29.816406 5.046875 L 28.398438 7.398438 L 26.515625 7.035156 L 15.503906 11.195312 L 13.53125 10.65625 L 24.316406 6.550781 L 22.453125 5.765625 "/>
<path fill-rule="nonzero" fill="rgb(100%, 100%, 100%)" fill-opacity="1" d="M 10.773438 33.992188 L 10.773438 29.242188 L 7.914062 31.523438 L 10.773438 33.992188 "/>
<path fill-rule="nonzero" fill="rgb(100%, 100%, 100%)" fill-opacity="1" d="M 24.570312 15.699219 L 24.570312 20.449219 L 27.429688 18.167969 L 24.570312 15.699219 "/>
<path fill-rule="nonzero" fill="rgb(100%, 100%, 100%)" fill-opacity="1" d="M 10.773438 20.621094 L 10.773438 15.871094 L 7.914062 18.152344 L 10.773438 20.621094 "/>
<g clip-path="url(#clip-4)">
<path fill="none" stroke-width="14.25" stroke-linecap="butt" stroke-linejoin="miter" stroke="rgb(100%, 100%, 100%)" stroke-opacity="1" stroke-miterlimit="4" d="M 266.584243 52.335735 L 217.01377 52.335735 L 149.697306 188.151731 L 98.312798 188.151731 " transform="matrix(0.0990541, 0, 0, -0.0990541, 0, 36.750473)"/>
<path fill="none" stroke-width="14.25" stroke-linecap="butt" stroke-linejoin="miter" stroke="rgb(100%, 100%, 100%)" stroke-opacity="1" stroke-miterlimit="4" d="M 98.628283 52.532913 L 146.542462 52.532913 L 213.267394 187.678504 L 265.203999 187.678504 " transform="matrix(0.0990541, 0, 0, -0.0990541, 0, 36.750473)"/>
</g>
<path fill-rule="nonzero" fill="rgb(100%, 100%, 100%)" fill-opacity="1" d="M 24.570312 29.132812 L 24.570312 33.882812 L 27.429688 31.601562 L 24.570312 29.132812 "/>
</svg>
