<?xml version="1.0" encoding="UTF-8"?>
<svg xmlns="http://www.w3.org/2000/svg" xmlns:xlink="http://www.w3.org/1999/xlink" width="40.92" height="23.76" viewBox="0 0 40.92 23.76">
<defs>
<clipPath id="clip-0">
<path clip-rule="nonzero" d="M 0.164062 0 L 40.675781 0 L 40.675781 3 L 0.164062 3 Z M 0.164062 0 "/>
</clipPath>
<clipPath id="clip-1">
<path clip-rule="nonzero" d="M 0.164062 0 L 40.675781 0 L 40.675781 5 L 0.164062 5 Z M 0.164062 0 "/>
</clipPath>
<clipPath id="clip-2">
<path clip-rule="nonzero" d="M 38 0 L 40.675781 0 L 40.675781 23.523438 L 38 23.523438 Z M 38 0 "/>
</clipPath>
<clipPath id="clip-3">
<path clip-rule="nonzero" d="M 36 0 L 40.675781 0 L 40.675781 23.523438 L 36 23.523438 Z M 36 0 "/>
</clipPath>
<clipPath id="clip-4">
<path clip-rule="nonzero" d="M 0.164062 21 L 40.675781 21 L 40.675781 23.523438 L 0.164062 23.523438 Z M 0.164062 21 "/>
</clipPath>
<clipPath id="clip-5">
<path clip-rule="nonzero" d="M 0.164062 18 L 40.675781 18 L 40.675781 23.523438 L 0.164062 23.523438 Z M 0.164062 18 "/>
</clipPath>
<clipPath id="clip-6">
<path clip-rule="nonzero" d="M 0.164062 0 L 3 0 L 3 23.523438 L 0.164062 23.523438 Z M 0.164062 0 "/>
</clipPath>
<clipPath id="clip-7">
<path clip-rule="nonzero" d="M 0.164062 0 L 5 0 L 5 23.523438 L 0.164062 23.523438 Z M 0.164062 0 "/>
</clipPath>
</defs>
<path fill-rule="nonzero" fill="rgb(0.784302%, 43.920898%, 62.350464%)" fill-opacity="1" d="M 2.65625 21.117188 L 38.257812 21.117188 L 38.257812 2.40625 L 2.65625 2.40625 Z M 2.65625 21.117188 "/>
<path fill="none" stroke-width="3.99994" stroke-linecap="butt" stroke-linejoin="miter" stroke="rgb(100%, 100%, 100%)" stroke-opacity="1" stroke-miterlimit="4" d="M 384.775884 24.295076 L 384.775884 213.294444 L 25.164141 213.294444 L 25.164141 24.295076 Z M 384.775884 24.295076 " transform="matrix(0.099, 0, 0, -0.099, 0.165, 23.5224)"/>
<g clip-path="url(#clip-0)">
<path fill-rule="nonzero" fill="rgb(0.784302%, 43.920898%, 62.350464%)" fill-opacity="1" d="M 38.257812 2.40625 L 40.195312 0.480469 L 0.65625 0.480469 L 2.65625 2.40625 L 38.257812 2.40625 "/>
</g>
<g clip-path="url(#clip-1)">
<path fill="none" stroke-width="3.99994" stroke-linecap="butt" stroke-linejoin="miter" stroke="rgb(100%, 100%, 100%)" stroke-opacity="1" stroke-miterlimit="4" d="M 384.775884 213.294444 L 404.346591 232.74678 L 4.962121 232.74678 L 25.164141 213.294444 Z M 384.775884 213.294444 " transform="matrix(0.099, 0, 0, -0.099, 0.165, 23.5224)"/>
</g>
<g clip-path="url(#clip-2)">
<path fill-rule="nonzero" fill="rgb(0.784302%, 43.920898%, 62.350464%)" fill-opacity="1" d="M 40.195312 23.046875 L 40.195312 0.480469 L 38.257812 2.40625 L 38.257812 21.117188 L 40.195312 23.046875 "/>
</g>
<g clip-path="url(#clip-3)">
<path fill="none" stroke-width="3.99994" stroke-linecap="butt" stroke-linejoin="miter" stroke="rgb(100%, 100%, 100%)" stroke-opacity="1" stroke-miterlimit="4" d="M 404.346591 4.803283 L 404.346591 232.74678 L 384.775884 213.294444 L 384.775884 24.295076 Z M 404.346591 4.803283 " transform="matrix(0.099, 0, 0, -0.099, 0.165, 23.5224)"/>
</g>
<g clip-path="url(#clip-4)">
<path fill-rule="nonzero" fill="rgb(0.784302%, 43.920898%, 62.350464%)" fill-opacity="1" d="M 38.257812 21.128906 L 40.195312 23.046875 L 0.65625 23.046875 L 2.65625 21.128906 L 38.257812 21.128906 "/>
</g>
<g clip-path="url(#clip-5)">
<path fill="none" stroke-width="3.99994" stroke-linecap="butt" stroke-linejoin="miter" stroke="rgb(100%, 100%, 100%)" stroke-opacity="1" stroke-miterlimit="4" d="M 384.775884 24.176705 L 404.346591 4.803283 L 4.962121 4.803283 L 25.164141 24.176705 Z M 384.775884 24.176705 " transform="matrix(0.099, 0, 0, -0.099, 0.165, 23.5224)"/>
</g>
<g clip-path="url(#clip-6)">
<path fill-rule="nonzero" fill="rgb(0.784302%, 43.920898%, 62.350464%)" fill-opacity="1" d="M 0.65625 23.046875 L 0.65625 0.480469 L 2.65625 2.40625 L 2.65625 21.117188 L 0.65625 23.046875 "/>
</g>
<g clip-path="url(#clip-7)">
<path fill="none" stroke-width="3.99994" stroke-linecap="butt" stroke-linejoin="miter" stroke="rgb(100%, 100%, 100%)" stroke-opacity="1" stroke-miterlimit="4" d="M 4.962121 4.803283 L 4.962121 232.74678 L 25.164141 213.294444 L 25.164141 24.295076 Z M 4.962121 4.803283 " transform="matrix(0.099, 0, 0, -0.099, 0.165, 23.5224)"/>
</g>
</svg>
