<?xml version="1.0" encoding="UTF-8"?>
<svg xmlns="http://www.w3.org/2000/svg" xmlns:xlink="http://www.w3.org/1999/xlink" width="28.07" height="28.59" viewBox="0 0 28.07 28.59">
<defs>
<clipPath id="clip-0">
<path clip-rule="nonzero" d="M 0 5 L 23 5 L 23 27.933594 L 0 27.933594 Z M 0 5 "/>
</clipPath>
<clipPath id="clip-1">
<path clip-rule="nonzero" d="M 0 4 L 23 4 L 23 27.933594 L 0 27.933594 Z M 0 4 "/>
</clipPath>
<clipPath id="clip-2">
<path clip-rule="nonzero" d="M 8 22 L 16 22 L 16 27.933594 L 8 27.933594 Z M 8 22 "/>
</clipPath>
<clipPath id="clip-3">
<path clip-rule="nonzero" d="M 0 0.261719 L 27 0.261719 L 27 6 L 0 6 Z M 0 0.261719 "/>
</clipPath>
<clipPath id="clip-4">
<path clip-rule="nonzero" d="M 0 0.261719 L 27.101562 0.261719 L 27.101562 8 L 0 8 Z M 0 0.261719 "/>
</clipPath>
<clipPath id="clip-5">
<path clip-rule="nonzero" d="M 22 0.261719 L 27 0.261719 L 27 27.933594 L 22 27.933594 Z M 22 0.261719 "/>
</clipPath>
<clipPath id="clip-6">
<path clip-rule="nonzero" d="M 20 0.261719 L 27.101562 0.261719 L 27.101562 27.933594 L 20 27.933594 Z M 20 0.261719 "/>
</clipPath>
</defs>
<g clip-path="url(#clip-0)">
<path fill-rule="nonzero" fill="rgb(0.784302%, 43.920898%, 62.350464%)" fill-opacity="1" d="M 0.527344 27.480469 L 22.480469 27.480469 L 22.480469 5.144531 L 0.527344 5.144531 Z M 0.527344 27.480469 "/>
</g>
<g clip-path="url(#clip-1)">
<path fill="none" stroke-width="3.99994" stroke-linecap="butt" stroke-linejoin="miter" stroke="rgb(100%, 100%, 100%)" stroke-opacity="1" stroke-miterlimit="4" d="M 232.252794 4.676775 L 232.252794 235.436371 L 5.448154 235.436371 L 5.448154 4.676775 Z M 232.252794 4.676775 " transform="matrix(0.0967931, 0, 0, -0.0967931, 0, 27.933148)"/>
</g>
<path fill-rule="nonzero" fill="rgb(0%, 0%, 0%)" fill-opacity="1" d="M 18.828125 13.074219 L 18.828125 17.960938 L 21.773438 15.613281 L 18.828125 13.074219 "/>
<path fill-rule="nonzero" fill="rgb(0%, 0%, 0%)" fill-opacity="1" d="M 9.761719 8.988281 L 14.648438 8.988281 L 12.300781 6.046875 L 9.761719 8.988281 "/>
<path fill-rule="nonzero" fill="rgb(0%, 0%, 0%)" fill-opacity="1" d="M 14.738281 23.109375 L 9.851562 23.109375 L 12.21875 26.050781 L 14.738281 23.109375 "/>
<path fill-rule="nonzero" fill="rgb(0%, 0%, 0%)" fill-opacity="1" d="M 5.117188 18.535156 L 5.117188 13.652344 L 2.171875 15.996094 L 5.117188 18.535156 "/>
<path fill-rule="nonzero" fill="rgb(100%, 100%, 100%)" fill-opacity="1" d="M 18.320312 13.582031 L 18.320312 18.46875 L 21.265625 16.121094 L 18.320312 13.582031 "/>
<path fill="none" stroke-width="1.99997" stroke-linecap="butt" stroke-linejoin="miter" stroke="rgb(100%, 100%, 100%)" stroke-opacity="1" stroke-miterlimit="4" d="M 189.272911 148.265904 L 189.272911 97.779676 L 219.701861 122.034051 Z M 189.272911 148.265904 " transform="matrix(0.0967931, 0, 0, -0.0967931, 0, 27.933148)"/>
<path fill-rule="nonzero" fill="rgb(100%, 100%, 100%)" fill-opacity="1" d="M 9.253906 9.496094 L 14.140625 9.496094 L 11.792969 6.554688 L 9.253906 9.496094 "/>
<path fill="none" stroke-width="1.99997" stroke-linecap="butt" stroke-linejoin="miter" stroke="rgb(100%, 100%, 100%)" stroke-opacity="1" stroke-miterlimit="4" d="M 95.605016 190.47901 L 146.091245 190.47901 L 121.83687 220.867603 Z M 95.605016 190.47901 " transform="matrix(0.0967931, 0, 0, -0.0967931, 0, 27.933148)"/>
<path fill-rule="nonzero" fill="rgb(100%, 100%, 100%)" fill-opacity="1" d="M 14.226562 23.617188 L 9.34375 23.617188 L 11.710938 26.5625 L 14.226562 23.617188 "/>
<g clip-path="url(#clip-2)">
<path fill="none" stroke-width="1.99997" stroke-linecap="butt" stroke-linejoin="miter" stroke="rgb(100%, 100%, 100%)" stroke-opacity="1" stroke-miterlimit="4" d="M 146.979092 44.589548 L 96.533221 44.589548 L 120.989379 14.160599 Z M 146.979092 44.589548 " transform="matrix(0.0967931, 0, 0, -0.0967931, 0, 27.933148)"/>
</g>
<path fill-rule="nonzero" fill="rgb(100%, 100%, 100%)" fill-opacity="1" d="M 4.542969 19.042969 L 4.542969 14.160156 L 1.601562 16.503906 L 4.542969 19.042969 "/>
<path fill="none" stroke-width="1.99997" stroke-linecap="butt" stroke-linejoin="miter" stroke="rgb(100%, 100%, 100%)" stroke-opacity="1" stroke-miterlimit="4" d="M 46.934839 91.847241 L 46.934839 142.293113 L 16.546246 118.079095 Z M 46.934839 91.847241 " transform="matrix(0.0967931, 0, 0, -0.0967931, 0, 27.933148)"/>
<g clip-path="url(#clip-3)">
<path fill-rule="nonzero" fill="rgb(0.784302%, 43.920898%, 62.350464%)" fill-opacity="1" d="M 22.402344 5.121094 L 0.554688 5.121094 L 6.09375 0.699219 L 26.976562 0.699219 L 26.976562 0.722656 L 26.914062 0.722656 L 22.457031 5.105469 L 22.457031 5.246094 L 22.402344 5.121094 "/>
</g>
<g clip-path="url(#clip-4)">
<path fill="none" stroke-width="3.99994" stroke-linecap="butt" stroke-linejoin="miter" stroke="rgb(100%, 100%, 100%)" stroke-opacity="1" stroke-miterlimit="4" d="M 231.44566 235.678511 L 5.730651 235.678511 L 62.956448 281.362293 L 278.703353 281.362293 L 278.703353 281.120153 L 278.057646 281.120153 L 232.010654 235.839938 L 232.010654 234.387097 Z M 231.44566 235.678511 " transform="matrix(0.0967931, 0, 0, -0.0967931, 0, 27.933148)"/>
</g>
<g clip-path="url(#clip-5)">
<path fill-rule="nonzero" fill="rgb(0.784302%, 43.920898%, 62.350464%)" fill-opacity="1" d="M 26.925781 23.019531 L 26.925781 0.722656 L 22.480469 5.167969 L 22.480469 27.464844 L 26.925781 23.019531 "/>
</g>
<g clip-path="url(#clip-6)">
<path fill="none" stroke-width="3.99994" stroke-linecap="butt" stroke-linejoin="miter" stroke="rgb(100%, 100%, 100%)" stroke-opacity="1" stroke-miterlimit="4" d="M 278.178716 50.764123 L 278.178716 281.120153 L 232.252794 235.194231 L 232.252794 4.838201 Z M 278.178716 50.764123 " transform="matrix(0.0967931, 0, 0, -0.0967931, 0, 27.933148)"/>
</g>
<path fill-rule="nonzero" fill="rgb(0%, 0%, 0%)" fill-opacity="1" d="M 15.234375 13.234375 L 15.234375 15.089844 L 17.617188 15.089844 L 17.617188 13.8125 C 17.617188 11.726562 14.976562 10.617188 11.71875 10.617188 L 11.8125 10.617188 C 8.558594 10.617188 5.917969 11.726562 5.917969 13.8125 L 5.917969 15.089844 L 8.300781 15.089844 L 8.300781 13.234375 C 11.445312 9.113281 15.234375 13.234375 15.234375 13.234375 "/>
<path fill-rule="nonzero" fill="rgb(0%, 0%, 0%)" fill-opacity="1" d="M 12.179688 12.59375 L 14.238281 12.59375 L 14.238281 14.917969 L 16.535156 16.835938 L 16.535156 21.421875 L 6.980469 21.421875 L 6.980469 16.835938 L 9.273438 14.917969 L 9.273438 12.59375 L 12.179688 12.59375 "/>
<path fill-rule="nonzero" fill="rgb(100%, 100%, 100%)" fill-opacity="1" d="M 15.222656 13.753906 L 15.222656 15.613281 L 17.605469 15.613281 L 17.605469 14.335938 C 17.605469 12.25 14.964844 11.140625 11.707031 11.140625 L 11.800781 11.140625 C 8.546875 11.140625 5.90625 12.25 5.90625 14.335938 L 5.90625 15.613281 L 8.289062 15.613281 L 8.289062 13.753906 C 11.433594 9.636719 15.222656 13.753906 15.222656 13.753906 "/>
<path fill-rule="nonzero" fill="rgb(100%, 100%, 100%)" fill-opacity="1" d="M 12.167969 13.117188 L 14.226562 13.117188 L 14.226562 15.441406 L 16.523438 17.355469 L 16.523438 21.945312 L 6.964844 21.945312 L 6.964844 17.355469 L 9.261719 15.441406 L 9.261719 13.117188 L 12.167969 13.117188 "/>
</svg>
