<?xml version="1.0" encoding="UTF-8"?>
<svg xmlns="http://www.w3.org/2000/svg" xmlns:xlink="http://www.w3.org/1999/xlink" width="31.13" height="41.56" viewBox="0 0 31.13 41.56">
<defs>
<clipPath id="clip-0">
<path clip-rule="nonzero" d="M 12 27 L 15 27 L 15 40.78125 L 12 40.78125 Z M 12 27 "/>
</clipPath>
<clipPath id="clip-1">
<path clip-rule="nonzero" d="M 10 25 L 17 25 L 17 40.78125 L 10 40.78125 Z M 10 25 "/>
</clipPath>
<clipPath id="clip-2">
<path clip-rule="nonzero" d="M 0 29 L 13 29 L 13 40.78125 L 0 40.78125 Z M 0 29 "/>
</clipPath>
<clipPath id="clip-3">
<path clip-rule="nonzero" d="M 13 29 L 25 29 L 25 40.78125 L 13 40.78125 Z M 13 29 "/>
</clipPath>
<clipPath id="clip-4">
<path clip-rule="nonzero" d="M 12 29 L 25 29 L 25 40.78125 L 12 40.78125 Z M 12 29 "/>
</clipPath>
<clipPath id="clip-5">
<path clip-rule="nonzero" d="M 24 0.351562 L 30 0.351562 L 30 30 L 24 30 Z M 24 0.351562 "/>
</clipPath>
<clipPath id="clip-6">
<path clip-rule="nonzero" d="M 22 0.351562 L 30.15625 0.351562 L 30.15625 32 L 22 32 Z M 22 0.351562 "/>
</clipPath>
<clipPath id="clip-7">
<path clip-rule="nonzero" d="M 24 25 L 30 25 L 30 40.78125 L 24 40.78125 Z M 24 25 "/>
</clipPath>
<clipPath id="clip-8">
<path clip-rule="nonzero" d="M 22 22 L 30.15625 22 L 30.15625 40.78125 L 22 40.78125 Z M 22 22 "/>
</clipPath>
<clipPath id="clip-9">
<path clip-rule="nonzero" d="M 0 0.351562 L 30 0.351562 L 30 6 L 0 6 Z M 0 0.351562 "/>
</clipPath>
<clipPath id="clip-10">
<path clip-rule="nonzero" d="M 0 0.351562 L 30.15625 0.351562 L 30.15625 8 L 0 8 Z M 0 0.351562 "/>
</clipPath>
</defs>
<g clip-path="url(#clip-0)">
<path fill-rule="nonzero" fill="rgb(0%, 0%, 0%)" fill-opacity="1" d="M 14.605469 38.050781 L 14.605469 27.472656 L 12.207031 29.75 L 12.207031 40.328125 L 14.605469 38.050781 "/>
</g>
<g clip-path="url(#clip-1)">
<path fill="none" stroke-width="4" stroke-linecap="butt" stroke-linejoin="miter" stroke="rgb(100%, 100%, 100%)" stroke-opacity="1" stroke-miterlimit="4" d="M 150.136524 28.065467 L 150.136524 136.80302 L 125.48185 113.393126 L 125.48185 4.655573 Z M 150.136524 28.065467 " transform="matrix(0.0972813, 0, 0, -0.0972813, 0, 40.781025)"/>
</g>
<g clip-path="url(#clip-2)">
<path fill-rule="nonzero" fill="rgb(0.784302%, 42.352295%, 60.78186%)" fill-opacity="1" d="M 0.578125 40.328125 L 12.207031 40.328125 L 12.207031 29.75 L 0.578125 29.75 Z M 0.578125 40.328125 "/>
<path fill="none" stroke-width="4" stroke-linecap="butt" stroke-linejoin="miter" stroke="rgb(100%, 100%, 100%)" stroke-opacity="1" stroke-miterlimit="4" d="M 125.48185 4.655573 L 125.48185 113.393126 L 5.94282 113.393126 L 5.94282 4.655573 Z M 125.48185 4.655573 " transform="matrix(0.0972813, 0, 0, -0.0972813, 0, 40.781025)"/>
</g>
<g clip-path="url(#clip-3)">
<path fill-rule="nonzero" fill="rgb(0.784302%, 42.352295%, 60.78186%)" fill-opacity="1" d="M 13.164062 40.328125 L 24.792969 40.328125 L 24.792969 29.75 L 13.164062 29.75 Z M 13.164062 40.328125 "/>
</g>
<g clip-path="url(#clip-4)">
<path fill="none" stroke-width="4" stroke-linecap="butt" stroke-linejoin="miter" stroke="rgb(100%, 100%, 100%)" stroke-opacity="1" stroke-miterlimit="4" d="M 254.858657 4.655573 L 254.858657 113.393126 L 135.319627 113.393126 L 135.319627 4.655573 Z M 254.858657 4.655573 " transform="matrix(0.0972813, 0, 0, -0.0972813, 0, 40.781025)"/>
</g>
<g clip-path="url(#clip-5)">
<path fill-rule="nonzero" fill="rgb(0.784302%, 42.352295%, 60.78186%)" fill-opacity="1" d="M 29.796875 24.761719 L 29.796875 0.808594 L 24.804688 5.550781 L 24.804688 29.503906 L 29.796875 24.761719 "/>
</g>
<g clip-path="url(#clip-6)">
<path fill="none" stroke-width="4" stroke-linecap="butt" stroke-linejoin="miter" stroke="rgb(100%, 100%, 100%)" stroke-opacity="1" stroke-miterlimit="4" d="M 306.296177 164.670029 L 306.296177 410.895535 L 254.97912 362.148346 L 254.97912 115.92284 Z M 306.296177 164.670029 " transform="matrix(0.0972813, 0, 0, -0.0972813, 0, 40.781025)"/>
</g>
<g clip-path="url(#clip-7)">
<path fill-rule="nonzero" fill="rgb(0.784302%, 42.352295%, 60.78186%)" fill-opacity="1" d="M 29.785156 35.585938 L 29.785156 25.007812 L 24.792969 29.75 L 24.792969 40.328125 L 29.785156 35.585938 "/>
</g>
<g clip-path="url(#clip-8)">
<path fill="none" stroke-width="4" stroke-linecap="butt" stroke-linejoin="miter" stroke="rgb(100%, 100%, 100%)" stroke-opacity="1" stroke-miterlimit="4" d="M 306.175715 53.402763 L 306.175715 162.140315 L 254.858657 113.393126 L 254.858657 4.655573 Z M 306.175715 53.402763 " transform="matrix(0.0972813, 0, 0, -0.0972813, 0, 40.781025)"/>
</g>
<g clip-path="url(#clip-9)">
<path fill-rule="nonzero" fill="rgb(0.784302%, 42.352295%, 60.78186%)" fill-opacity="1" d="M 29.796875 0.808594 L 24.804688 5.550781 L 0.578125 5.550781 L 6.855469 0.808594 L 29.796875 0.808594 "/>
</g>
<g clip-path="url(#clip-10)">
<path fill="none" stroke-width="4" stroke-linecap="butt" stroke-linejoin="miter" stroke="rgb(100%, 100%, 100%)" stroke-opacity="1" stroke-miterlimit="4" d="M 306.296177 410.895535 L 254.97912 362.148346 L 5.94282 362.148346 L 70.470607 410.895535 Z M 306.296177 410.895535 " transform="matrix(0.0972813, 0, 0, -0.0972813, 0, 40.781025)"/>
</g>
<path fill-rule="nonzero" fill="rgb(0.784302%, 42.352295%, 60.78186%)" fill-opacity="1" d="M 0.578125 29.503906 L 24.804688 29.503906 L 24.804688 5.550781 L 0.578125 5.550781 Z M 0.578125 29.503906 "/>
<path fill="none" stroke-width="4" stroke-linecap="butt" stroke-linejoin="miter" stroke="rgb(100%, 100%, 100%)" stroke-opacity="1" stroke-miterlimit="4" d="M 254.97912 115.92284 L 254.97912 362.148346 L 5.94282 362.148346 L 5.94282 115.92284 Z M 254.97912 115.92284 " transform="matrix(0.0972813, 0, 0, -0.0972813, 0, 40.781025)"/>
<path fill-rule="nonzero" fill="rgb(100%, 100%, 100%)" fill-opacity="1" d="M 10.53125 14.6875 L 6.847656 11.003906 L 7.472656 10.375 L 5.15625 9.910156 L 5.625 12.222656 L 6.25 11.597656 L 9.9375 15.28125 L 10.53125 14.6875 "/>
<path fill-rule="nonzero" fill="rgb(100%, 100%, 100%)" fill-opacity="1" d="M 9.183594 17.101562 L 3.972656 17.101562 L 3.972656 16.214844 L 2.003906 17.519531 L 3.972656 18.824219 L 3.972656 17.941406 L 9.183594 17.941406 L 9.183594 17.101562 "/>
<path fill-rule="nonzero" fill="rgb(100%, 100%, 100%)" fill-opacity="1" d="M 9.9375 19.757812 L 6.25 23.445312 L 5.625 22.820312 L 5.15625 25.132812 L 7.472656 24.664062 L 6.847656 24.039062 L 10.53125 20.355469 L 9.9375 19.757812 "/>
<path fill-rule="nonzero" fill="rgb(100%, 100%, 100%)" fill-opacity="1" d="M 12.351562 21.105469 L 12.351562 26.320312 L 11.464844 26.320312 L 12.769531 28.285156 L 14.074219 26.320312 L 13.191406 26.320312 L 13.191406 21.105469 L 12.351562 21.105469 "/>
<path fill-rule="nonzero" fill="rgb(100%, 100%, 100%)" fill-opacity="1" d="M 12.351562 14.085938 L 12.351562 8.871094 L 11.464844 8.871094 L 12.769531 6.90625 L 14.074219 8.871094 L 13.191406 8.871094 L 13.191406 14.085938 L 12.351562 14.085938 "/>
<path fill-rule="nonzero" fill="rgb(100%, 100%, 100%)" fill-opacity="1" d="M 15.007812 20.355469 L 18.695312 24.039062 L 18.070312 24.664062 L 20.382812 25.132812 L 19.914062 22.820312 L 19.289062 23.445312 L 15.601562 19.757812 L 15.007812 20.355469 "/>
<path fill-rule="nonzero" fill="rgb(100%, 100%, 100%)" fill-opacity="1" d="M 16.355469 17.941406 L 21.566406 17.941406 L 21.566406 18.824219 L 23.535156 17.519531 L 21.566406 16.214844 L 21.566406 17.101562 L 16.355469 17.101562 L 16.355469 17.941406 "/>
<path fill-rule="nonzero" fill="rgb(100%, 100%, 100%)" fill-opacity="1" d="M 15.601562 15.28125 L 19.289062 11.597656 L 19.914062 12.222656 L 20.382812 9.910156 L 18.070312 10.375 L 18.695312 11.003906 L 15.007812 14.6875 L 15.601562 15.28125 "/>
<path fill-rule="nonzero" fill="rgb(100%, 100%, 100%)" fill-opacity="1" d="M 2.769531 32.457031 L 3.515625 32.457031 L 2.417969 30.804688 L 1.320312 32.457031 L 2.058594 32.457031 L 2.058594 37.882812 L 1.3125 37.882812 L 2.410156 39.539062 L 3.507812 37.882812 L 2.769531 37.882812 L 2.769531 32.457031 "/>
<path fill-rule="nonzero" fill="rgb(100%, 100%, 100%)" fill-opacity="1" d="M 5.429688 32.457031 L 6.175781 32.457031 L 5.078125 30.804688 L 3.980469 32.457031 L 4.71875 32.457031 L 4.71875 37.882812 L 3.972656 37.882812 L 5.070312 39.539062 L 6.167969 37.882812 L 5.429688 37.882812 L 5.429688 32.457031 "/>
<path fill-rule="nonzero" fill="rgb(100%, 100%, 100%)" fill-opacity="1" d="M 8.085938 32.457031 L 8.835938 32.457031 L 7.738281 30.804688 L 6.640625 32.457031 L 7.378906 32.457031 L 7.378906 37.882812 L 6.632812 37.882812 L 7.730469 39.539062 L 8.828125 37.882812 L 8.085938 37.882812 L 8.085938 32.457031 "/>
<path fill-rule="nonzero" fill="rgb(100%, 100%, 100%)" fill-opacity="1" d="M 10.746094 32.457031 L 11.496094 32.457031 L 10.398438 30.804688 L 9.300781 32.457031 L 10.039062 32.457031 L 10.039062 37.882812 L 9.292969 37.882812 L 10.390625 39.539062 L 11.488281 37.882812 L 10.746094 37.882812 L 10.746094 32.457031 "/>
<path fill-rule="nonzero" fill="rgb(100%, 100%, 100%)" fill-opacity="1" d="M 15.355469 32.457031 L 16.101562 32.457031 L 15.003906 30.804688 L 13.90625 32.457031 L 14.644531 32.457031 L 14.644531 37.882812 L 13.898438 37.882812 L 14.996094 39.539062 L 16.09375 37.882812 L 15.355469 37.882812 L 15.355469 32.457031 "/>
<path fill-rule="nonzero" fill="rgb(100%, 100%, 100%)" fill-opacity="1" d="M 18.015625 32.457031 L 18.761719 32.457031 L 17.664062 30.804688 L 16.566406 32.457031 L 17.304688 32.457031 L 17.304688 37.882812 L 16.558594 37.882812 L 17.65625 39.539062 L 18.753906 37.882812 L 18.015625 37.882812 L 18.015625 32.457031 "/>
<path fill-rule="nonzero" fill="rgb(100%, 100%, 100%)" fill-opacity="1" d="M 20.671875 32.457031 L 21.421875 32.457031 L 20.324219 30.804688 L 19.226562 32.457031 L 19.964844 32.457031 L 19.964844 37.882812 L 19.21875 37.882812 L 20.316406 39.539062 L 21.414062 37.882812 L 20.671875 37.882812 L 20.671875 32.457031 "/>
<path fill-rule="nonzero" fill="rgb(100%, 100%, 100%)" fill-opacity="1" d="M 23.332031 32.457031 L 24.082031 32.457031 L 22.984375 30.804688 L 21.886719 32.457031 L 22.625 32.457031 L 22.625 37.882812 L 21.878906 37.882812 L 22.976562 39.539062 L 24.074219 37.882812 L 23.332031 37.882812 L 23.332031 32.457031 "/>
</svg>
