<?xml version="1.0" encoding="UTF-8"?>
<svg xmlns="http://www.w3.org/2000/svg" xmlns:xlink="http://www.w3.org/1999/xlink" width="48.96" height="68.75" viewBox="0 0 48.96 68.75">
<defs>
<clipPath id="clip-0">
<path clip-rule="nonzero" d="M 42 18 L 48.851562 18 L 48.851562 27 L 42 27 Z M 42 18 "/>
</clipPath>
<clipPath id="clip-1">
<path clip-rule="nonzero" d="M 3 51 L 27 51 L 27 68.5 L 3 68.5 Z M 3 51 "/>
</clipPath>
<clipPath id="clip-2">
<path clip-rule="nonzero" d="M 44 24 L 48.851562 24 L 48.851562 27 L 44 27 Z M 44 24 "/>
</clipPath>
<clipPath id="clip-3">
<path clip-rule="nonzero" d="M 42 22 L 48.851562 22 L 48.851562 29 L 42 29 Z M 42 22 "/>
</clipPath>
<clipPath id="clip-4">
<path clip-rule="nonzero" d="M 47 24 L 48.851562 24 L 48.851562 28 L 47 28 Z M 47 24 "/>
</clipPath>
<clipPath id="clip-5">
<path clip-rule="nonzero" d="M 44 22 L 48.851562 22 L 48.851562 30 L 44 30 Z M 44 22 "/>
</clipPath>
<clipPath id="clip-6">
<path clip-rule="nonzero" d="M 0.0703125 8 L 37 8 L 37 56 L 0.0703125 56 Z M 0.0703125 8 "/>
</clipPath>
<clipPath id="clip-7">
<path clip-rule="nonzero" d="M 0.0703125 30 L 14 30 L 14 54 L 0.0703125 54 Z M 0.0703125 30 "/>
</clipPath>
<clipPath id="clip-8">
<path clip-rule="nonzero" d="M 0.0703125 27 L 17 27 L 17 56 L 0.0703125 56 Z M 0.0703125 27 "/>
</clipPath>
</defs>
<path fill-rule="nonzero" fill="rgb(0.784302%, 43.920898%, 62.350464%)" fill-opacity="1" d="M 47.449219 24.558594 C 49.019531 22.316406 44.757812 21.195312 44.757812 21.195312 "/>
<g clip-path="url(#clip-0)">
<path fill="none" stroke-width="3.99994" stroke-linecap="butt" stroke-linejoin="miter" stroke="rgb(100%, 100%, 100%)" stroke-opacity="1" stroke-miterlimit="4" d="M 475.527432 441.021023 C 491.287659 463.524432 448.5155 474.776136 448.5155 474.776136 " transform="matrix(0.0996377, 0, 0, -0.0996377, 0.0687681, 68.500906)"/>
</g>
<path fill-rule="nonzero" fill="rgb(0.784302%, 43.920898%, 62.350464%)" fill-opacity="1" d="M 44.832031 4.949219 L 42.664062 6.742188 L 25.925781 6.742188 L 28.09375 4.949219 L 44.832031 4.949219 "/>
<path fill="none" stroke-width="3.99994" stroke-linecap="butt" stroke-linejoin="miter" stroke="rgb(100%, 100%, 100%)" stroke-opacity="1" stroke-miterlimit="4" d="M 449.260386 637.827841 L 427.501864 619.832955 L 259.510386 619.832955 L 281.268909 637.827841 Z M 449.260386 637.827841 " transform="matrix(0.0996377, 0, 0, -0.0996377, 0.0687681, 68.500906)"/>
<path fill-rule="nonzero" fill="rgb(0.784302%, 43.920898%, 62.350464%)" fill-opacity="1" d="M 25.777344 20.152344 L 42.664062 20.152344 L 42.664062 6.773438 L 25.777344 6.773438 Z M 25.777344 20.152344 "/>
<path fill="none" stroke-width="3.99994" stroke-linecap="butt" stroke-linejoin="miter" stroke="rgb(100%, 100%, 100%)" stroke-opacity="1" stroke-miterlimit="4" d="M 427.501864 485.24375 L 427.501864 619.519318 L 258.020614 619.519318 L 258.020614 485.24375 Z M 427.501864 485.24375 " transform="matrix(0.0996377, 0, 0, -0.0996377, 0.0687681, 68.500906)"/>
<path fill-rule="nonzero" fill="rgb(0.784302%, 43.920898%, 62.350464%)" fill-opacity="1" d="M 44.832031 18.574219 L 44.832031 4.980469 L 42.589844 6.773438 L 42.589844 20.367188 L 44.832031 18.574219 "/>
<path fill="none" stroke-width="3.99994" stroke-linecap="butt" stroke-linejoin="miter" stroke="rgb(100%, 100%, 100%)" stroke-opacity="1" stroke-miterlimit="4" d="M 449.260386 501.082386 L 449.260386 637.514205 L 426.756977 619.519318 L 426.756977 483.0875 Z M 449.260386 501.082386 " transform="matrix(0.0996377, 0, 0, -0.0996377, 0.0687681, 68.500906)"/>
<path fill-rule="nonzero" fill="rgb(0.784302%, 43.920898%, 62.350464%)" fill-opacity="1" stroke-width="3.99994" stroke-linecap="butt" stroke-linejoin="miter" stroke="rgb(100%, 100%, 100%)" stroke-opacity="1" stroke-miterlimit="4" d="M 201.017205 651.000568 C 202.506977 636.024432 192.745045 625.517614 209.995045 603.759091 C 212.504136 600.583523 206.231409 594.389205 203.99675 590.821591 C 201.762091 587.253977 201.017205 582.000568 202.506977 577.53125 C 201.017205 577.53125 199.527432 573.767614 199.527432 570.748864 C 197.998455 563.260795 201.017205 558.007386 196.508682 556.517614 C 189.020614 553.498864 178.513795 553.498864 174.005273 549.029545 C 168.006977 544.521023 162.008682 536.99375 158.989932 528.015909 C 157.500159 528.015909 154.520614 528.015909 152.991636 528.015909 C 139.505273 541.502273 123.000159 570.003977 103.5155 576.002273 C 96.027432 595.526136 109.513795 612.03125 118.530841 628.497159 C 128.998455 646.53125 148.522318 658.488636 169.49675 660.017614 " transform="matrix(0.0996377, 0, 0, -0.0996377, 0.0687681, 68.500906)"/>
<path fill-rule="nonzero" fill="rgb(0.784302%, 43.920898%, 62.350464%)" fill-opacity="1" d="M 10.007812 10.972656 C 10.246094 11.207031 10.832031 10.808594 11.277344 10.957031 C 12.023438 11.257812 13.074219 11.40625 13.519531 10.957031 C 14.121094 10.511719 14.417969 9.613281 14.867188 8.867188 C 14.867188 8.71875 15.015625 8.417969 15.3125 8.269531 C 16.0625 8.269531 17.109375 8.566406 17.40625 8.121094 C 18.304688 7.222656 17.109375 5.429688 18.453125 4.683594 C 19.5 4.234375 21.292969 3.933594 20.992188 2.441406 C 18.152344 0.945312 15.015625 -0.546875 11.878906 0.199219 C 10.980469 0.496094 10.234375 1.542969 9.484375 2.289062 C 9.335938 2.589844 9.035156 2.890625 9.035156 3.1875 C 8.886719 5.128906 8.738281 6.925781 9.1875 8.867188 C 9.335938 9.464844 9.558594 10.523438 10.007812 10.972656 "/>
<path fill="none" stroke-width="3.99994" stroke-linecap="butt" stroke-linejoin="miter" stroke="rgb(100%, 100%, 100%)" stroke-opacity="1" stroke-miterlimit="4" d="M 99.751864 577.374432 C 102.143341 575.022159 108.024023 579.021023 112.493341 577.53125 C 119.981409 574.5125 130.527432 573.022727 134.99675 577.53125 C 141.03425 582.000568 144.013795 591.017614 148.522318 598.505682 C 148.522318 599.995455 150.012091 603.014205 152.991636 604.503977 C 160.518909 604.503977 171.025727 601.524432 174.005273 605.99375 C 183.022318 615.010795 171.025727 633.005682 184.512091 640.49375 C 195.018909 645.002273 213.013795 648.021023 209.995045 662.997159 C 181.493341 678.0125 150.012091 692.988636 118.530841 685.500568 C 109.513795 682.521023 102.025727 672.014205 94.498455 664.526136 C 93.008682 661.507386 89.989932 658.488636 89.989932 655.509091 C 88.500159 636.024432 87.010386 617.990341 91.518909 598.505682 C 93.008682 592.507386 95.243341 581.882955 99.751864 577.374432 Z M 99.751864 577.374432 " transform="matrix(0.0996377, 0, 0, -0.0996377, 0.0687681, 68.500906)"/>
<path fill-rule="nonzero" fill="rgb(0.784302%, 43.920898%, 62.350464%)" fill-opacity="1" stroke-width="3.99994" stroke-linecap="butt" stroke-linejoin="miter" stroke="rgb(100%, 100%, 100%)" stroke-opacity="1" stroke-miterlimit="4" d="M 255.74675 219.005682 C 255.74675 207.009091 255.74675 195.0125 255.74675 183.015909 C 247.513795 175.488636 248.258682 163.492045 248.258682 153.024432 C 260.255273 146.28125 274.525727 149.260795 287.267205 148.515909 C 287.267205 150.750568 287.267205 153.769318 288.012091 153.769318 C 300.008682 155.259091 311.260386 156.003977 323.256977 157.49375 C 326.236523 165.765909 327.7655 175.488636 327.7655 184.505682 C 317.258682 189.759091 301.498455 189.014205 296.245045 201.010795 C 291.775727 213.007386 291.775727 225.748864 292.481409 237.745455 " transform="matrix(0.0996377, 0, 0, -0.0996377, 0.0687681, 68.500906)"/>
<path fill-rule="nonzero" fill="rgb(0.784302%, 43.920898%, 62.350464%)" fill-opacity="1" stroke-width="3.99994" stroke-linecap="butt" stroke-linejoin="miter" stroke="rgb(100%, 100%, 100%)" stroke-opacity="1" stroke-miterlimit="4" d="M 213.758682 234.765909 C 241.5155 231.747159 265.508682 246.7625 291.030841 257.269318 C 297.734818 260.248864 307.49675 258.014205 315.768909 258.014205 C 318.003568 229.5125 313.53425 201.010795 314.984818 172.509091 C 329.255273 172.509091 342.741636 171.019318 357.012091 173.253977 C 364.500159 173.998864 372.027432 177.7625 378.731409 181.486932 C 378.731409 221.279545 381.005273 260.99375 376.49675 301.492045 C 375.751864 306.000568 372.772318 310.509091 369.753568 315.017614 C 368.263795 317.252273 365.245045 319.526136 362.2655 320.271023 C 328.510386 327.759091 323.256977 323.995455 290.24675 328.503977 C 287.267205 328.503977 297.734818 345.009091 295.500159 347.988636 C 289.580273 355.907955 211.484818 351.752273 201.762091 351.007386 " transform="matrix(0.0996377, 0, 0, -0.0996377, 0.0687681, 68.500906)"/>
<path fill-rule="nonzero" fill="rgb(0.784302%, 43.920898%, 62.350464%)" fill-opacity="1" stroke-width="3.99994" stroke-linecap="butt" stroke-linejoin="miter" stroke="rgb(100%, 100%, 100%)" stroke-opacity="1" stroke-miterlimit="4" d="M 353.248455 173.998864 C 353.248455 168.745455 351.758682 163.492045 353.993341 159.022727 C 354.777432 156.748864 359.24675 156.748864 362.2655 154.514205 C 364.500159 152.240341 366.774023 149.260795 369.753568 147.771023 C 374.262091 145.497159 379.5155 144.752273 384.768909 144.007386 C 392.256977 143.2625 399.78425 145.497159 406.488227 142.517614 C 407.272318 141.772727 409.506977 141.772727 410.99675 140.24375 C 415.505273 135.029545 416.995045 128.247159 414.0155 123.777841 C 408.017205 114.760795 399.78425 108.017614 389.277432 105.74375 C 375.006977 103.509091 360.775727 105.74375 346.505273 102.764205 C 345.0155 102.764205 345.760386 102.764205 345.0155 102.019318 C 344.270614 99.745455 345.760386 93.747159 345.0155 93.747159 C 330.745045 93.002273 314.239932 89.983523 304.517205 103.509091 C 301.498455 108.017614 300.753568 114.760795 303.027432 120.759091 C 306.006977 126.757386 307.49675 132.755682 308.986523 139.498864 C 311.260386 144.752273 310.5155 144.752273 312.750159 150.005682 C 315.768909 157.49375 314.239932 165.765909 314.239932 173.998864 " transform="matrix(0.0996377, 0, 0, -0.0996377, 0.0687681, 68.500906)"/>
<g clip-path="url(#clip-1)">
<path fill-rule="nonzero" fill="rgb(0.784302%, 43.920898%, 62.350464%)" fill-opacity="1" d="M 17.628906 51.984375 L 17.628906 55.722656 L 24.878906 52.734375 C 26.074219 52.507812 26.375 54.003906 26.375 54.003906 L 26.375 55.046875 L 25.777344 55.046875 L 25.777344 56.019531 C 25.179688 57.066406 24.207031 56.019531 24.207031 56.019531 L 24.207031 54.824219 L 18.453125 57.441406 L 25.253906 62.96875 C 26.148438 64.613281 25.328125 66.109375 25.328125 66.109375 C 26.074219 67.527344 24.730469 68.5 24.730469 68.5 C 22.9375 69.398438 23.011719 67.230469 23.011719 67.230469 C 22.785156 65.960938 24.058594 65.960938 24.058594 65.960938 L 24.429688 65.210938 L 16.507812 58.039062 L 6.195312 63.941406 L 5.824219 64.839844 C 6.644531 66.632812 5.152344 67.230469 5.152344 67.230469 C 3.058594 67.605469 3.878906 65.734375 3.878906 65.734375 C 3.804688 64.6875 4.628906 64.6875 4.628906 64.6875 L 5.226562 64.015625 C 5.226562 64.015625 5.75 64.242188 5.152344 63.71875 C 4.554688 63.195312 5 61.773438 5 61.773438 L 14.714844 56.992188 L 11.503906 53.855469 L 10.457031 54.527344 C 10.457031 56.246094 9.261719 55.722656 9.261719 55.722656 C 7.992188 55.722656 8.738281 54.375 8.738281 54.375 C 9.1875 54.003906 9.785156 53.777344 9.785156 53.777344 L 10.53125 52.132812 L 13 53.40625 L 15.835938 55.796875 L 15.835938 52.507812 "/>
</g>
<path fill-rule="nonzero" fill="rgb(0.784302%, 43.920898%, 62.350464%)" fill-opacity="1" stroke-width="3.99994" stroke-linecap="butt" stroke-linejoin="miter" stroke="rgb(100%, 100%, 100%)" stroke-opacity="1" stroke-miterlimit="4" d="M 219.756977 203.990341 L 304.517205 242.253977 C 310.5155 249.742045 300.753568 260.99375 300.753568 260.99375 L 221.24675 231.002273 " transform="matrix(0.0996377, 0, 0, -0.0996377, 0.0687681, 68.500906)"/>
<path fill-rule="nonzero" fill="rgb(0.784302%, 43.920898%, 62.350464%)" fill-opacity="1" d="M 27.195312 18.65625 L 41.246094 18.65625 L 41.246094 8.566406 L 27.195312 8.566406 Z M 27.195312 18.65625 "/>
<path fill="none" stroke-width="3.99994" stroke-linecap="butt" stroke-linejoin="miter" stroke="rgb(100%, 100%, 100%)" stroke-opacity="1" stroke-miterlimit="4" d="M 413.270614 500.259091 L 413.270614 601.524432 L 272.251864 601.524432 L 272.251864 500.259091 Z M 413.270614 500.259091 " transform="matrix(0.0996377, 0, 0, -0.0996377, 0.0687681, 68.500906)"/>
<path fill-rule="nonzero" fill="rgb(0.784302%, 43.920898%, 62.350464%)" fill-opacity="1" d="M 25.917969 23.300781 L 42.878906 23.300781 L 42.878906 20.832031 L 25.917969 20.832031 Z M 25.917969 23.300781 "/>
<path fill="none" stroke-width="3.99994" stroke-linecap="butt" stroke-linejoin="miter" stroke="rgb(100%, 100%, 100%)" stroke-opacity="1" stroke-miterlimit="4" d="M 429.658114 453.644886 L 429.658114 478.422159 L 259.431977 478.422159 L 259.431977 453.644886 Z M 429.658114 453.644886 " transform="matrix(0.0996377, 0, 0, -0.0996377, 0.0687681, 68.500906)"/>
<path fill-rule="nonzero" fill="rgb(0.784302%, 43.920898%, 62.350464%)" fill-opacity="1" d="M 22.039062 27.472656 L 40.871094 27.472656 L 40.871094 26.652344 L 22.039062 26.652344 Z M 22.039062 27.472656 "/>
<path fill="none" stroke-width="3.99994" stroke-linecap="butt" stroke-linejoin="miter" stroke="rgb(100%, 100%, 100%)" stroke-opacity="1" stroke-miterlimit="4" d="M 409.506977 411.774432 L 409.506977 420.007386 L 220.501864 420.007386 L 220.501864 411.774432 Z M 409.506977 411.774432 " transform="matrix(0.0996377, 0, 0, -0.0996377, 0.0687681, 68.500906)"/>
<path fill-rule="nonzero" fill="rgb(0.784302%, 43.920898%, 62.350464%)" fill-opacity="1" d="M 44.535156 27.101562 L 47.296875 27.101562 L 47.296875 26.503906 L 44.535156 26.503906 Z M 44.535156 27.101562 "/>
<path fill="none" stroke-width="3.99994" stroke-linecap="butt" stroke-linejoin="miter" stroke="rgb(100%, 100%, 100%)" stroke-opacity="1" stroke-miterlimit="4" d="M 473.998455 415.498864 L 473.998455 421.497159 L 446.280841 421.497159 L 446.280841 415.498864 Z M 473.998455 415.498864 " transform="matrix(0.0996377, 0, 0, -0.0996377, 0.0687681, 68.500906)"/>
<g clip-path="url(#clip-2)">
<path fill-rule="nonzero" fill="rgb(0.784302%, 43.920898%, 62.350464%)" fill-opacity="1" d="M 47.296875 26.351562 L 48.496094 24.410156 L 45.730469 24.410156 L 44.535156 26.351562 L 47.296875 26.351562 "/>
</g>
<g clip-path="url(#clip-3)">
<path fill="none" stroke-width="3.99994" stroke-linecap="butt" stroke-linejoin="miter" stroke="rgb(100%, 100%, 100%)" stroke-opacity="1" stroke-miterlimit="4" d="M 473.998455 423.026136 L 486.03425 442.510795 L 458.277432 442.510795 L 446.280841 423.026136 Z M 473.998455 423.026136 " transform="matrix(0.0996377, 0, 0, -0.0996377, 0.0687681, 68.500906)"/>
</g>
<g clip-path="url(#clip-4)">
<path fill-rule="nonzero" fill="rgb(0.784302%, 43.920898%, 62.350464%)" fill-opacity="1" d="M 48.566406 26.128906 L 48.566406 24.410156 L 47.222656 26.503906 L 47.222656 27.101562 L 48.566406 26.128906 "/>
</g>
<g clip-path="url(#clip-5)">
<path fill="none" stroke-width="3.99994" stroke-linecap="butt" stroke-linejoin="miter" stroke="rgb(100%, 100%, 100%)" stroke-opacity="1" stroke-miterlimit="4" d="M 486.739932 425.260795 L 486.739932 442.510795 L 473.253568 421.497159 L 473.253568 415.498864 Z M 486.739932 425.260795 " transform="matrix(0.0996377, 0, 0, -0.0996377, 0.0687681, 68.500906)"/>
</g>
<path fill-rule="nonzero" fill="rgb(0.784302%, 43.920898%, 62.350464%)" fill-opacity="1" d="M 43.5625 24.859375 L 43.5625 23.4375 L 40.796875 26.652344 L 40.796875 27.472656 L 43.5625 24.859375 "/>
<path fill="none" stroke-width="3.99994" stroke-linecap="butt" stroke-linejoin="miter" stroke="rgb(100%, 100%, 100%)" stroke-opacity="1" stroke-miterlimit="4" d="M 436.518909 438.002273 L 436.518909 452.272727 L 408.762091 420.007386 L 408.762091 411.774432 Z M 436.518909 438.002273 " transform="matrix(0.0996377, 0, 0, -0.0996377, 0.0687681, 68.500906)"/>
<path fill-rule="nonzero" fill="rgb(0.784302%, 43.920898%, 62.350464%)" fill-opacity="1" d="M 45.132812 21.945312 L 45.132812 18.804688 L 42.878906 20.746094 L 42.878906 24.035156 L 45.132812 21.945312 "/>
<path fill="none" stroke-width="3.99994" stroke-linecap="butt" stroke-linejoin="miter" stroke="rgb(100%, 100%, 100%)" stroke-opacity="1" stroke-miterlimit="4" d="M 452.279136 467.248864 L 452.279136 498.769318 L 429.658114 479.284659 L 429.658114 446.274432 Z M 452.279136 467.248864 " transform="matrix(0.0996377, 0, 0, -0.0996377, 0.0687681, 68.500906)"/>
<path fill-rule="nonzero" fill="rgb(0.784302%, 43.920898%, 62.350464%)" fill-opacity="1" d="M 26.300781 20.824219 L 42.738281 20.824219 L 42.738281 20.226562 L 26.300781 20.226562 Z M 26.300781 20.824219 "/>
<path fill="none" stroke-width="3.99994" stroke-linecap="butt" stroke-linejoin="miter" stroke="rgb(100%, 100%, 100%)" stroke-opacity="1" stroke-miterlimit="4" d="M 428.24675 478.500568 L 428.24675 484.498864 L 263.274023 484.498864 L 263.274023 478.500568 Z M 428.24675 478.500568 " transform="matrix(0.0996377, 0, 0, -0.0996377, 0.0687681, 68.500906)"/>
<path fill-rule="nonzero" fill="rgb(0.784302%, 43.920898%, 62.350464%)" fill-opacity="1" d="M 44.90625 19.105469 L 44.90625 18.722656 L 42.589844 20.441406 L 42.589844 20.824219 L 44.90625 19.105469 "/>
<path fill="none" stroke-width="3.99994" stroke-linecap="butt" stroke-linejoin="miter" stroke="rgb(100%, 100%, 100%)" stroke-opacity="1" stroke-miterlimit="4" d="M 450.005273 495.750568 L 450.005273 499.592614 L 426.756977 482.342614 L 426.756977 478.500568 Z M 450.005273 495.750568 " transform="matrix(0.0996377, 0, 0, -0.0996377, 0.0687681, 68.500906)"/>
<path fill-rule="nonzero" fill="rgb(0.784302%, 43.920898%, 62.350464%)" fill-opacity="1" d="M 43.414062 23.363281 L 40.871094 26.726562 L 22.113281 26.726562 L 25.101562 23.363281 L 43.414062 23.363281 "/>
<path fill="none" stroke-width="3.99994" stroke-linecap="butt" stroke-linejoin="miter" stroke="rgb(100%, 100%, 100%)" stroke-opacity="1" stroke-miterlimit="4" d="M 435.029136 453.017614 L 409.506977 419.2625 L 221.24675 419.2625 L 251.238227 453.017614 Z M 435.029136 453.017614 " transform="matrix(0.0996377, 0, 0, -0.0996377, 0.0687681, 68.500906)"/>
<path fill="none" stroke-width="3.99994" stroke-linecap="butt" stroke-linejoin="miter" stroke="rgb(100%, 100%, 100%)" stroke-opacity="1" stroke-miterlimit="4" d="M 369.008682 466.503977 L 415.505273 466.503977 " transform="matrix(0.0996377, 0, 0, -0.0996377, 0.0687681, 68.500906)"/>
<path fill-rule="nonzero" fill="rgb(0.784302%, 43.920898%, 62.350464%)" fill-opacity="1" stroke-width="3.99994" stroke-linecap="butt" stroke-linejoin="miter" stroke="rgb(100%, 100%, 100%)" stroke-opacity="1" stroke-miterlimit="4" d="M 197.018341 621.009091 L 192.000159 612.03125 L 199.997886 613.011364 " transform="matrix(0.0996377, 0, 0, -0.0996377, 0.0687681, 68.500906)"/>
<path fill-rule="nonzero" fill="rgb(0.784302%, 43.920898%, 62.350464%)" fill-opacity="1" stroke-width="3.99994" stroke-linecap="butt" stroke-linejoin="miter" stroke="rgb(100%, 100%, 100%)" stroke-opacity="1" stroke-miterlimit="4" d="M 285.424591 441.805114 L 295.42175 441.726705 " transform="matrix(0.0996377, 0, 0, -0.0996377, 0.0687681, 68.500906)"/>
<path fill-rule="nonzero" fill="rgb(0.784302%, 43.920898%, 62.350464%)" fill-opacity="1" stroke-width="3.99994" stroke-linecap="butt" stroke-linejoin="miter" stroke="rgb(100%, 100%, 100%)" stroke-opacity="1" stroke-miterlimit="4" d="M 299.420614 441.726705 L 309.417773 441.648295 " transform="matrix(0.0996377, 0, 0, -0.0996377, 0.0687681, 68.500906)"/>
<path fill-rule="nonzero" fill="rgb(0.784302%, 43.920898%, 62.350464%)" fill-opacity="1" stroke-width="3.99994" stroke-linecap="butt" stroke-linejoin="miter" stroke="rgb(100%, 100%, 100%)" stroke-opacity="1" stroke-miterlimit="4" d="M 256.413227 442.001136 L 266.410386 441.922727 " transform="matrix(0.0996377, 0, 0, -0.0996377, 0.0687681, 68.500906)"/>
<path fill-rule="nonzero" fill="rgb(0.784302%, 43.920898%, 62.350464%)" fill-opacity="1" stroke-width="3.99994" stroke-linecap="butt" stroke-linejoin="miter" stroke="rgb(100%, 100%, 100%)" stroke-opacity="1" stroke-miterlimit="4" d="M 270.40925 441.883523 L 280.406409 441.844318 " transform="matrix(0.0996377, 0, 0, -0.0996377, 0.0687681, 68.500906)"/>
<path fill-rule="nonzero" fill="rgb(0.784302%, 43.920898%, 62.350464%)" fill-opacity="1" stroke-width="3.99994" stroke-linecap="butt" stroke-linejoin="miter" stroke="rgb(100%, 100%, 100%)" stroke-opacity="1" stroke-miterlimit="4" d="M 313.416636 441.609091 L 323.413795 441.569886 " transform="matrix(0.0996377, 0, 0, -0.0996377, 0.0687681, 68.500906)"/>
<path fill-rule="nonzero" fill="rgb(0.784302%, 43.920898%, 62.350464%)" fill-opacity="1" stroke-width="3.99994" stroke-linecap="butt" stroke-linejoin="miter" stroke="rgb(100%, 100%, 100%)" stroke-opacity="1" stroke-miterlimit="4" d="M 327.412659 441.530682 L 337.409818 441.452273 " transform="matrix(0.0996377, 0, 0, -0.0996377, 0.0687681, 68.500906)"/>
<path fill-rule="nonzero" fill="rgb(0.784302%, 43.920898%, 62.350464%)" fill-opacity="1" stroke-width="3.99994" stroke-linecap="butt" stroke-linejoin="miter" stroke="rgb(100%, 100%, 100%)" stroke-opacity="1" stroke-miterlimit="4" d="M 341.408682 441.452273 L 351.405841 441.373864 " transform="matrix(0.0996377, 0, 0, -0.0996377, 0.0687681, 68.500906)"/>
<path fill-rule="nonzero" fill="rgb(0.784302%, 43.920898%, 62.350464%)" fill-opacity="1" stroke-width="3.99994" stroke-linecap="butt" stroke-linejoin="miter" stroke="rgb(100%, 100%, 100%)" stroke-opacity="1" stroke-miterlimit="4" d="M 355.404705 441.334659 L 365.401864 441.295455 " transform="matrix(0.0996377, 0, 0, -0.0996377, 0.0687681, 68.500906)"/>
<path fill-rule="nonzero" fill="rgb(0.784302%, 43.920898%, 62.350464%)" fill-opacity="1" stroke-width="3.99994" stroke-linecap="butt" stroke-linejoin="miter" stroke="rgb(100%, 100%, 100%)" stroke-opacity="1" stroke-miterlimit="4" d="M 369.400727 441.25625 L 379.397886 441.177841 " transform="matrix(0.0996377, 0, 0, -0.0996377, 0.0687681, 68.500906)"/>
<path fill-rule="nonzero" fill="rgb(0.784302%, 43.920898%, 62.350464%)" fill-opacity="1" stroke-width="3.99994" stroke-linecap="butt" stroke-linejoin="miter" stroke="rgb(100%, 100%, 100%)" stroke-opacity="1" stroke-miterlimit="4" d="M 383.435955 441.177841 L 393.433114 441.099432 " transform="matrix(0.0996377, 0, 0, -0.0996377, 0.0687681, 68.500906)"/>
<path fill-rule="nonzero" fill="rgb(0.784302%, 43.920898%, 62.350464%)" fill-opacity="1" stroke-width="3.99994" stroke-linecap="butt" stroke-linejoin="miter" stroke="rgb(100%, 100%, 100%)" stroke-opacity="1" stroke-miterlimit="4" d="M 397.392773 441.060227 L 407.389932 441.021023 " transform="matrix(0.0996377, 0, 0, -0.0996377, 0.0687681, 68.500906)"/>
<path fill-rule="nonzero" fill="rgb(0.784302%, 43.920898%, 62.350464%)" fill-opacity="1" stroke-width="3.99994" stroke-linecap="butt" stroke-linejoin="miter" stroke="rgb(100%, 100%, 100%)" stroke-opacity="1" stroke-miterlimit="4" d="M 280.406409 433.807386 L 290.403568 433.728977 " transform="matrix(0.0996377, 0, 0, -0.0996377, 0.0687681, 68.500906)"/>
<path fill-rule="nonzero" fill="rgb(0.784302%, 43.920898%, 62.350464%)" fill-opacity="1" stroke-width="3.99994" stroke-linecap="butt" stroke-linejoin="miter" stroke="rgb(100%, 100%, 100%)" stroke-opacity="1" stroke-miterlimit="4" d="M 294.402432 433.728977 L 304.399591 433.650568 " transform="matrix(0.0996377, 0, 0, -0.0996377, 0.0687681, 68.500906)"/>
<path fill-rule="nonzero" fill="rgb(0.784302%, 43.920898%, 62.350464%)" fill-opacity="1" stroke-width="3.99994" stroke-linecap="butt" stroke-linejoin="miter" stroke="rgb(100%, 100%, 100%)" stroke-opacity="1" stroke-miterlimit="4" d="M 251.395045 434.003409 L 261.392205 433.925 " transform="matrix(0.0996377, 0, 0, -0.0996377, 0.0687681, 68.500906)"/>
<path fill-rule="nonzero" fill="rgb(0.784302%, 43.920898%, 62.350464%)" fill-opacity="1" stroke-width="3.99994" stroke-linecap="butt" stroke-linejoin="miter" stroke="rgb(100%, 100%, 100%)" stroke-opacity="1" stroke-miterlimit="4" d="M 265.391068 433.925 L 275.427432 433.846591 " transform="matrix(0.0996377, 0, 0, -0.0996377, 0.0687681, 68.500906)"/>
<path fill-rule="nonzero" fill="rgb(0.784302%, 43.920898%, 62.350464%)" fill-opacity="1" stroke-width="3.99994" stroke-linecap="butt" stroke-linejoin="miter" stroke="rgb(100%, 100%, 100%)" stroke-opacity="1" stroke-miterlimit="4" d="M 308.398455 433.611364 L 318.434818 433.572159 " transform="matrix(0.0996377, 0, 0, -0.0996377, 0.0687681, 68.500906)"/>
<path fill-rule="nonzero" fill="rgb(0.784302%, 43.920898%, 62.350464%)" fill-opacity="1" stroke-width="3.99994" stroke-linecap="butt" stroke-linejoin="miter" stroke="rgb(100%, 100%, 100%)" stroke-opacity="1" stroke-miterlimit="4" d="M 322.394477 433.532955 L 332.391636 433.454545 " transform="matrix(0.0996377, 0, 0, -0.0996377, 0.0687681, 68.500906)"/>
<path fill-rule="nonzero" fill="rgb(0.784302%, 43.920898%, 62.350464%)" fill-opacity="1" stroke-width="3.99994" stroke-linecap="butt" stroke-linejoin="miter" stroke="rgb(100%, 100%, 100%)" stroke-opacity="1" stroke-miterlimit="4" d="M 336.3905 433.454545 L 346.387659 433.376136 " transform="matrix(0.0996377, 0, 0, -0.0996377, 0.0687681, 68.500906)"/>
<path fill-rule="nonzero" fill="rgb(0.784302%, 43.920898%, 62.350464%)" fill-opacity="1" stroke-width="3.99994" stroke-linecap="butt" stroke-linejoin="miter" stroke="rgb(100%, 100%, 100%)" stroke-opacity="1" stroke-miterlimit="4" d="M 350.425727 433.336932 L 360.422886 433.297727 " transform="matrix(0.0996377, 0, 0, -0.0996377, 0.0687681, 68.500906)"/>
<path fill-rule="nonzero" fill="rgb(0.784302%, 43.920898%, 62.350464%)" fill-opacity="1" stroke-width="3.99994" stroke-linecap="butt" stroke-linejoin="miter" stroke="rgb(100%, 100%, 100%)" stroke-opacity="1" stroke-miterlimit="4" d="M 364.42175 433.258523 L 374.418909 433.180114 " transform="matrix(0.0996377, 0, 0, -0.0996377, 0.0687681, 68.500906)"/>
<path fill-rule="nonzero" fill="rgb(0.784302%, 43.920898%, 62.350464%)" fill-opacity="1" stroke-width="3.99994" stroke-linecap="butt" stroke-linejoin="miter" stroke="rgb(100%, 100%, 100%)" stroke-opacity="1" stroke-miterlimit="4" d="M 378.417773 433.180114 L 388.414932 433.101705 " transform="matrix(0.0996377, 0, 0, -0.0996377, 0.0687681, 68.500906)"/>
<path fill-rule="nonzero" fill="rgb(0.784302%, 43.920898%, 62.350464%)" fill-opacity="1" stroke-width="3.99994" stroke-linecap="butt" stroke-linejoin="miter" stroke="rgb(100%, 100%, 100%)" stroke-opacity="1" stroke-miterlimit="4" d="M 392.413795 433.0625 L 402.410955 433.023295 " transform="matrix(0.0996377, 0, 0, -0.0996377, 0.0687681, 68.500906)"/>
<path fill-rule="nonzero" fill="rgb(0.784302%, 43.920898%, 62.350464%)" fill-opacity="1" stroke-width="3.99994" stroke-linecap="butt" stroke-linejoin="miter" stroke="rgb(100%, 100%, 100%)" stroke-opacity="1" stroke-miterlimit="4" d="M 275.427432 425.809659 L 285.424591 425.73125 " transform="matrix(0.0996377, 0, 0, -0.0996377, 0.0687681, 68.500906)"/>
<path fill-rule="nonzero" fill="rgb(0.784302%, 43.920898%, 62.350464%)" fill-opacity="1" stroke-width="3.99994" stroke-linecap="butt" stroke-linejoin="miter" stroke="rgb(100%, 100%, 100%)" stroke-opacity="1" stroke-miterlimit="4" d="M 289.423455 425.73125 L 299.420614 425.652841 " transform="matrix(0.0996377, 0, 0, -0.0996377, 0.0687681, 68.500906)"/>
<path fill-rule="nonzero" fill="rgb(0.784302%, 43.920898%, 62.350464%)" fill-opacity="1" stroke-width="3.99994" stroke-linecap="butt" stroke-linejoin="miter" stroke="rgb(100%, 100%, 100%)" stroke-opacity="1" stroke-miterlimit="4" d="M 246.416068 426.005682 L 256.413227 425.927273 " transform="matrix(0.0996377, 0, 0, -0.0996377, 0.0687681, 68.500906)"/>
<path fill-rule="nonzero" fill="rgb(0.784302%, 43.920898%, 62.350464%)" fill-opacity="1" stroke-width="3.99994" stroke-linecap="butt" stroke-linejoin="miter" stroke="rgb(100%, 100%, 100%)" stroke-opacity="1" stroke-miterlimit="4" d="M 260.412091 425.888068 L 270.40925 425.848864 " transform="matrix(0.0996377, 0, 0, -0.0996377, 0.0687681, 68.500906)"/>
<path fill-rule="nonzero" fill="rgb(0.784302%, 43.920898%, 62.350464%)" fill-opacity="1" stroke-width="3.99994" stroke-linecap="butt" stroke-linejoin="miter" stroke="rgb(100%, 100%, 100%)" stroke-opacity="1" stroke-miterlimit="4" d="M 303.419477 425.613636 L 313.416636 425.574432 " transform="matrix(0.0996377, 0, 0, -0.0996377, 0.0687681, 68.500906)"/>
<path fill-rule="nonzero" fill="rgb(0.784302%, 43.920898%, 62.350464%)" fill-opacity="1" stroke-width="3.99994" stroke-linecap="butt" stroke-linejoin="miter" stroke="rgb(100%, 100%, 100%)" stroke-opacity="1" stroke-miterlimit="4" d="M 317.4155 425.535227 L 327.412659 425.456818 " transform="matrix(0.0996377, 0, 0, -0.0996377, 0.0687681, 68.500906)"/>
<path fill-rule="nonzero" fill="rgb(0.784302%, 43.920898%, 62.350464%)" fill-opacity="1" stroke-width="3.99994" stroke-linecap="butt" stroke-linejoin="miter" stroke="rgb(100%, 100%, 100%)" stroke-opacity="1" stroke-miterlimit="4" d="M 331.411523 425.456818 L 341.408682 425.378409 " transform="matrix(0.0996377, 0, 0, -0.0996377, 0.0687681, 68.500906)"/>
<path fill-rule="nonzero" fill="rgb(0.784302%, 43.920898%, 62.350464%)" fill-opacity="1" stroke-width="3.99994" stroke-linecap="butt" stroke-linejoin="miter" stroke="rgb(100%, 100%, 100%)" stroke-opacity="1" stroke-miterlimit="4" d="M 345.407545 425.339205 L 355.404705 425.3 " transform="matrix(0.0996377, 0, 0, -0.0996377, 0.0687681, 68.500906)"/>
<path fill-rule="nonzero" fill="rgb(0.784302%, 43.920898%, 62.350464%)" fill-opacity="1" stroke-width="3.99994" stroke-linecap="butt" stroke-linejoin="miter" stroke="rgb(100%, 100%, 100%)" stroke-opacity="1" stroke-miterlimit="4" d="M 359.403568 425.260795 L 369.400727 425.182386 " transform="matrix(0.0996377, 0, 0, -0.0996377, 0.0687681, 68.500906)"/>
<path fill-rule="nonzero" fill="rgb(0.784302%, 43.920898%, 62.350464%)" fill-opacity="1" stroke-width="3.99994" stroke-linecap="butt" stroke-linejoin="miter" stroke="rgb(100%, 100%, 100%)" stroke-opacity="1" stroke-miterlimit="4" d="M 373.399591 425.182386 L 383.435955 425.103977 " transform="matrix(0.0996377, 0, 0, -0.0996377, 0.0687681, 68.500906)"/>
<path fill-rule="nonzero" fill="rgb(0.784302%, 43.920898%, 62.350464%)" fill-opacity="1" stroke-width="3.99994" stroke-linecap="butt" stroke-linejoin="miter" stroke="rgb(100%, 100%, 100%)" stroke-opacity="1" stroke-miterlimit="4" d="M 387.395614 425.064773 L 397.392773 425.025568 " transform="matrix(0.0996377, 0, 0, -0.0996377, 0.0687681, 68.500906)"/>
<path fill-rule="nonzero" fill="rgb(0.784302%, 43.920898%, 62.350464%)" fill-opacity="1" stroke-width="3.99994" stroke-linecap="butt" stroke-linejoin="miter" stroke="rgb(100%, 100%, 100%)" stroke-opacity="1" stroke-miterlimit="4" d="M 224.2655 459.015909 C 231.753568 459.015909 239.986523 457.526136 247.513795 459.760795 C 251.238227 461.250568 254.256977 466.503977 258.020614 467.99375 C 263.274023 469.522727 269.272318 470.267614 274.525727 467.248864 C 275.270614 466.503977 276.0155 465.014205 277.505273 464.269318 C 284.248455 463.524432 291.030841 462.740341 296.245045 458.271023 C 300.008682 454.507386 297.029136 448.509091 297.734818 444.000568 C 296.245045 444.000568 294.010386 441.021023 294.010386 442.510795 C 291.775727 446.274432 291.030841 450.74375 288.012091 453.017614 C 283.503568 454.507386 278.250159 455.252273 273.741636 453.017614 C 272.99675 453.017614 273.741636 449.253977 276.0155 449.253977 C 280.524023 449.253977 285.777432 446.274432 282.758682 443.255682 C 272.99675 433.49375 258.020614 436.5125 244.495045 438.002273 C 239.986523 438.002273 235.517205 441.765909 230.263795 441.765909 " transform="matrix(0.0996377, 0, 0, -0.0996377, 0.0687681, 68.500906)"/>
<path fill-rule="nonzero" fill="rgb(0.784302%, 43.920898%, 62.350464%)" fill-opacity="1" stroke-width="3.99994" stroke-linecap="butt" stroke-linejoin="miter" stroke="rgb(100%, 100%, 100%)" stroke-opacity="1" stroke-miterlimit="4" d="M 335.998455 384.017614 C 339.762091 383.272727 341.99675 386.252273 345.760386 386.997159 C 348.739932 388.526136 352.503568 386.997159 355.522318 387.742045 C 361.520614 390.015909 366.029136 394.524432 372.027432 396.759091 C 373.517205 406.521023 373.517205 417.027841 375.751864 426.750568 C 376.49675 426.005682 388.258114 429.494886 389.003 429.494886 C 388.258114 431.76875 390.492773 435.493182 388.258114 436.277273 C 379.985955 439.256818 360.775727 436.5125 351.758682 434.238636 C 351.013795 434.238636 351.013795 435.022727 351.013795 435.767614 C 345.760386 435.767614 340.506977 436.5125 335.998455 433.49375 C 330.000159 429.769318 333.018909 422.242045 332.274023 415.498864 C 330.745045 411.774432 327.020614 409.500568 324.001864 408.010795 C 321.767205 406.521023 318.003568 405.776136 315.768909 403.502273 " transform="matrix(0.0996377, 0, 0, -0.0996377, 0.0687681, 68.500906)"/>
<path fill-rule="nonzero" fill="rgb(0.784302%, 43.920898%, 62.350464%)" fill-opacity="1" stroke-width="3.99994" stroke-linecap="butt" stroke-linejoin="miter" stroke="rgb(100%, 100%, 100%)" stroke-opacity="1" stroke-miterlimit="4" d="M 188.275727 461.995455 C 198.743341 461.995455 217.483114 463.524432 223.520614 459.015909 C 227.989932 454.507386 232.498455 439.53125 227.989932 433.49375 C 226.500159 430.514205 214.503568 429.769318 208.505273 429.769318 " transform="matrix(0.0996377, 0, 0, -0.0996377, 0.0687681, 68.500906)"/>
<path fill-rule="nonzero" fill="rgb(0.784302%, 43.920898%, 62.350464%)" fill-opacity="1" d="M 9.636719 11.257812 C 10.234375 11.257812 11.128906 11.109375 11.429688 11.40625 C 13.074219 12.601562 14.417969 14.097656 15.613281 15.742188 C 16.359375 17.085938 17.554688 17.835938 17.855469 19.179688 C 18.152344 20.375 18.453125 21.570312 18.902344 22.617188 C 20.097656 24.707031 21.292969 26.503906 22.636719 28.59375 C 22.9375 28.894531 23.683594 28.746094 24.28125 29.042969 C 24.429688 29.191406 24.582031 29.640625 24.730469 29.640625 C 25.625 29.640625 26.523438 29.789062 27.269531 29.492188 C 28.617188 28.746094 30.109375 28.59375 31.453125 28.144531 C 32.054688 29.492188 33.996094 29.941406 33.996094 31.433594 C 32.351562 32.480469 30.707031 33.230469 29.066406 34.125 C 28.019531 34.574219 26.972656 35.46875 25.777344 35.46875 C 25.027344 35.46875 21.59375 34.125 21.441406 34.421875 C 20.84375 36.21875 23.980469 39.503906 23.535156 41.597656 C 22.9375 43.839844 22.636719 45.78125 22.191406 48.023438 C 22.039062 48.621094 21.738281 49.21875 21.59375 49.96875 C 21.441406 50.417969 21.140625 50.863281 20.84375 51.164062 C 20.246094 51.613281 19.648438 52.359375 19.050781 52.507812 C 18.304688 52.808594 17.480469 52.582031 16.734375 52.882812 C 16.285156 53.03125 15.761719 53.105469 15.3125 53.253906 C 14.566406 53.703125 13.519531 53.40625 13.371094 52.957031 C 12.625 50.863281 13.222656 48.472656 12.476562 46.382812 C 10.980469 42.195312 9.722656 38.550781 6.945312 33.828125 C 6.351562 32.820312 4.230469 33.207031 3.507812 32.03125 C 1.148438 28.207031 3.058594 22.019531 4.402344 16.789062 C 4.703125 15.441406 5.972656 13.574219 7.316406 13.125 C 7.765625 12.828125 7.914062 12.527344 8.363281 12.378906 C 8.960938 11.929688 9.035156 11.257812 9.636719 11.257812 "/>
<g clip-path="url(#clip-6)">
<path fill="none" stroke-width="3.99994" stroke-linecap="butt" stroke-linejoin="miter" stroke="rgb(100%, 100%, 100%)" stroke-opacity="1" stroke-miterlimit="4" d="M 96.027432 574.5125 C 102.025727 574.5125 111.003568 576.002273 114.022318 573.022727 C 130.527432 561.026136 144.013795 546.010795 156.010386 529.505682 C 163.498455 516.019318 175.495045 508.492045 178.513795 495.005682 C 181.493341 483.009091 184.512091 471.0125 189.020614 460.505682 C 201.017205 439.53125 213.013795 421.497159 226.500159 400.522727 C 229.518909 397.503977 237.006977 398.99375 243.005273 396.014205 C 244.495045 394.524432 246.024023 390.015909 247.513795 390.015909 C 256.491636 390.015909 265.508682 388.526136 272.99675 391.505682 C 286.522318 398.99375 301.498455 400.522727 314.984818 405.03125 C 321.022318 391.505682 340.506977 386.997159 340.506977 372.021023 C 324.001864 361.514205 307.49675 353.986932 291.030841 345.009091 C 280.524023 340.500568 270.017205 331.522727 258.020614 331.522727 C 250.493341 331.522727 216.032545 345.009091 214.503568 342.029545 C 208.505273 323.995455 239.986523 291.024432 235.517205 270.010795 C 229.518909 247.507386 226.500159 228.022727 222.030841 205.519318 C 220.501864 199.521023 217.483114 193.522727 216.032545 185.995455 C 214.503568 181.486932 211.484818 177.017614 208.505273 173.998864 C 202.506977 169.490341 196.508682 162.002273 190.510386 160.5125 C 183.022318 157.49375 174.750159 159.767614 167.262091 156.748864 C 162.753568 155.259091 157.500159 154.514205 152.991636 153.024432 C 145.503568 148.515909 134.99675 151.495455 133.506977 156.003977 C 126.018909 177.017614 132.017205 201.010795 124.529136 221.985227 C 109.513795 264.0125 96.889932 300.590341 69.0155 347.988636 C 63.056409 358.103409 41.768341 354.222159 34.5155 366.022727 C 10.835955 404.403977 30.006977 466.503977 43.493341 518.998864 C 46.512091 532.524432 59.253568 551.264205 72.739932 555.772727 C 77.248455 558.752273 78.738227 561.771023 83.24675 563.260795 C 89.245045 567.769318 89.989932 574.5125 96.027432 574.5125 Z M 96.027432 574.5125 " transform="matrix(0.0996377, 0, 0, -0.0996377, 0.0687681, 68.500906)"/>
</g>
<g clip-path="url(#clip-7)">
<path fill-rule="nonzero" fill="rgb(0.784302%, 43.920898%, 62.350464%)" fill-opacity="1" d="M 7.019531 50.640625 L 13.96875 53.253906 L 13.894531 47.277344 C 8.738281 33.976562 7.914062 34.050781 7.914062 34.050781 C 6.195312 33.078125 5.75 33.003906 5.75 33.003906 C 3.28125 33.152344 1.9375 30.238281 1.9375 30.238281 C 1.113281 29.566406 0.292969 30.539062 0.292969 30.539062 L 7.019531 50.640625 "/>
</g>
<g clip-path="url(#clip-8)">
<path fill="none" stroke-width="3.99994" stroke-linecap="butt" stroke-linejoin="miter" stroke="rgb(100%, 100%, 100%)" stroke-opacity="1" stroke-miterlimit="4" d="M 69.760386 179.252273 L 139.505273 153.024432 L 138.760386 213.007386 C 87.010386 346.498864 78.738227 345.753977 78.738227 345.753977 C 61.488227 355.515909 57.018909 356.260795 57.018909 356.260795 C 32.241636 354.771023 18.755273 384.017614 18.755273 384.017614 C 10.483114 390.760795 2.250159 380.998864 2.250159 380.998864 Z M 69.760386 179.252273 " transform="matrix(0.0996377, 0, 0, -0.0996377, 0.0687681, 68.500906)"/>
</g>
</svg>
