<?xml version="1.0" encoding="UTF-8"?>
<svg xmlns="http://www.w3.org/2000/svg" xmlns:xlink="http://www.w3.org/1999/xlink" width="33.15" height="46.14" viewBox="0 0 33.15 46.14">
<defs>
<clipPath id="clip-0">
<path clip-rule="nonzero" d="M 19 0.15625 L 32.320312 0.15625 L 32.320312 19 L 19 19 Z M 19 0.15625 "/>
</clipPath>
<clipPath id="clip-1">
<path clip-rule="nonzero" d="M 22 0.15625 L 32.320312 0.15625 L 32.320312 21 L 22 21 Z M 22 0.15625 "/>
</clipPath>
<clipPath id="clip-2">
<path clip-rule="nonzero" d="M 0 0.15625 L 32 0.15625 L 32 45.144531 L 0 45.144531 Z M 0 0.15625 "/>
</clipPath>
<clipPath id="clip-3">
<path clip-rule="nonzero" d="M 10 9 L 32 9 L 32 45.144531 L 10 45.144531 Z M 10 9 "/>
</clipPath>
<clipPath id="clip-4">
<path clip-rule="nonzero" d="M 5 3 L 32.320312 3 L 32.320312 45.144531 L 5 45.144531 Z M 5 3 "/>
</clipPath>
</defs>
<g clip-path="url(#clip-0)">
<path fill="none" stroke-width="4" stroke-linecap="butt" stroke-linejoin="miter" stroke="rgb(13.729858%, 12.159729%, 12.548828%)" stroke-opacity="1" stroke-miterlimit="10" d="M 265.905449 426.957692 C 272.195513 437.454487 272.155449 435.891987 274.679487 439.738141 C 299.799679 477.71891 325.360577 459.369551 308.012821 424.073077 C 293.669872 394.866346 292.1875 392.983333 286.658654 383.287821 C 276.883013 366.300641 267.067308 347.630769 260.176282 334.089103 " transform="matrix(0.0975, 0, 0, -0.0975, 0, 45.144)"/>
</g>
<g clip-path="url(#clip-1)">
<path fill="none" stroke-width="4" stroke-linecap="butt" stroke-linejoin="miter" stroke="rgb(13.729858%, 12.159729%, 12.548828%)" stroke-opacity="1" stroke-miterlimit="10" d="M 290.905449 389.818269 C 316.225962 427.318269 340.464744 409.970513 324.839744 375.515385 C 311.458333 346.068269 307.892628 344.90641 303.004808 334.529808 C 293.990385 315.339103 296.794872 318.34391 289.903846 304.802244 " transform="matrix(0.0975, 0, 0, -0.0975, 0, 45.144)"/>
</g>
<g clip-path="url(#clip-2)">
<path fill="none" stroke-width="4" stroke-linecap="butt" stroke-linejoin="miter" stroke="rgb(13.729858%, 12.159729%, 12.548828%)" stroke-opacity="1" stroke-miterlimit="10" d="M 239.663462 381.484936 C 246.594551 390.339103 246.714744 392.141987 262.299679 420.507372 C 281.850962 456.164423 254.326923 473.592308 228.725962 436.613141 C 201.602564 397.390385 194.711538 386.2125 179.6875 368.824679 C 164.623397 351.436859 136.538462 283.648397 118.870192 265.258974 C 107.091346 252.999359 123.758013 300.996154 122.235577 314.978526 C 118.990385 345.387179 118.229167 341.861538 114.703526 352.558654 C 111.217949 363.255769 89.543269 382.20609 84.975962 365.779808 C 82.612179 357.246154 83.69391 357.005769 85.456731 347.310256 C 86.338141 342.342308 82.772436 343.784615 83.774038 319.946474 C 84.375 306.484936 62.780449 266.380769 56.25 248.472115 C 42.387821 210.53141 57.692308 208.528205 52.003205 176.997756 C 45.793269 142.382372 53.084936 149.59391 46.875 134.810256 C 40.625 120.026603 5.248397 63.215705 1.762821 54.121154 " transform="matrix(0.0975, 0, 0, -0.0975, 0, 45.144)"/>
</g>
<path fill="none" stroke-width="4" stroke-linecap="butt" stroke-linejoin="miter" stroke="rgb(13.729858%, 12.159729%, 12.548828%)" stroke-opacity="1" stroke-miterlimit="10" d="M 129.607372 248.432051 C 150.280449 236.693269 131.129808 172.83109 131.129808 172.83109 " transform="matrix(0.0975, 0, 0, -0.0975, 0, 45.144)"/>
<path fill="none" stroke-width="4" stroke-linecap="butt" stroke-linejoin="miter" stroke="rgb(13.729858%, 12.159729%, 12.548828%)" stroke-opacity="1" stroke-miterlimit="10" d="M 119.751603 252.999359 C 114.903846 259.249359 114.703526 263.335897 114.703526 263.335897 " transform="matrix(0.0975, 0, 0, -0.0975, 0, 45.144)"/>
<path fill-rule="evenodd" fill="rgb(3.160095%, 49.407959%, 74.412537%)" fill-opacity="1" d="M 5.589844 25.382812 L 21.023438 25.382812 L 30.933594 7.230469 L 16.253906 7.230469 L 5.589844 25.382812 "/>
<path fill="none" stroke-width="4" stroke-linecap="round" stroke-linejoin="round" stroke="rgb(100%, 100%, 100%)" stroke-opacity="1" stroke-miterlimit="10" d="M 57.331731 202.678846 L 215.625 202.678846 L 317.267628 388.856731 L 166.706731 388.856731 Z M 57.331731 202.678846 " transform="matrix(0.0975, 0, 0, -0.0975, 0, 45.144)"/>
<path fill-rule="evenodd" fill="rgb(3.160095%, 49.407959%, 74.412537%)" fill-opacity="1" d="M 5.589844 28.386719 L 21.023438 28.386719 L 21.023438 25.382812 L 5.589844 25.382812 Z M 5.589844 28.386719 "/>
<path fill="none" stroke-width="4" stroke-linecap="round" stroke-linejoin="round" stroke="rgb(100%, 100%, 100%)" stroke-opacity="1" stroke-miterlimit="10" d="M 57.331731 202.678846 L 57.331731 171.869551 L 215.625 171.869551 L 215.625 202.678846 Z M 57.331731 202.678846 " transform="matrix(0.0975, 0, 0, -0.0975, 0, 45.144)"/>
<path fill-rule="evenodd" fill="rgb(3.160095%, 49.407959%, 74.412537%)" fill-opacity="1" d="M 30.933594 7.230469 L 30.933594 10.046875 L 21.023438 28.386719 L 21.023438 25.382812 L 30.933594 7.230469 "/>
<path fill="none" stroke-width="4" stroke-linecap="round" stroke-linejoin="round" stroke="rgb(100%, 100%, 100%)" stroke-opacity="1" stroke-miterlimit="10" d="M 317.267628 388.856731 L 317.267628 359.970513 L 215.625 171.869551 L 215.625 202.678846 Z M 317.267628 388.856731 " transform="matrix(0.0975, 0, 0, -0.0975, 0, 45.144)"/>
<path fill-rule="evenodd" fill="rgb(100%, 100%, 100%)" fill-opacity="1" d="M 28.347656 9.058594 L 21.816406 21.203125 L 9.773438 21.203125 L 16.8125 9.058594 L 28.347656 9.058594 "/>
<path fill="none" stroke-width="1.926" stroke-linecap="round" stroke-linejoin="round" stroke="rgb(100%, 100%, 100%)" stroke-opacity="1" stroke-miterlimit="10" d="M 290.745192 370.106731 L 223.758013 245.547436 L 100.240385 245.547436 L 172.435897 370.106731 Z M 290.745192 370.106731 " transform="matrix(0.0975, 0, 0, -0.0975, 0, 45.144)"/>
<path fill-rule="evenodd" fill="rgb(100%, 100%, 100%)" fill-opacity="1" d="M 10.371094 22.886719 L 9.65625 24.210938 L 8.273438 24.210938 L 9.035156 22.886719 L 10.371094 22.886719 "/>
<path fill="none" stroke-width="1.926" stroke-linecap="round" stroke-linejoin="round" stroke="rgb(100%, 100%, 100%)" stroke-opacity="1" stroke-miterlimit="10" d="M 106.370192 228.279808 L 99.038462 214.698077 L 84.855769 214.698077 L 92.668269 228.279808 Z M 106.370192 228.279808 " transform="matrix(0.0975, 0, 0, -0.0975, 0, 45.144)"/>
<path fill-rule="evenodd" fill="rgb(100%, 100%, 100%)" fill-opacity="1" d="M 21.046875 22.886719 L 20.328125 24.210938 L 18.945312 24.210938 L 19.710938 22.886719 L 21.046875 22.886719 "/>
<path fill="none" stroke-width="1.926" stroke-linecap="round" stroke-linejoin="round" stroke="rgb(100%, 100%, 100%)" stroke-opacity="1" stroke-miterlimit="10" d="M 215.865385 228.279808 L 208.49359 214.698077 L 194.310897 214.698077 L 202.163462 228.279808 Z M 215.865385 228.279808 " transform="matrix(0.0975, 0, 0, -0.0975, 0, 45.144)"/>
<path fill-rule="evenodd" fill="rgb(100%, 100%, 100%)" fill-opacity="1" d="M 18.382812 22.886719 L 17.667969 24.210938 L 16.285156 24.210938 L 17.046875 22.886719 L 18.382812 22.886719 "/>
<path fill="none" stroke-width="1.926" stroke-linecap="round" stroke-linejoin="round" stroke="rgb(100%, 100%, 100%)" stroke-opacity="1" stroke-miterlimit="10" d="M 188.541667 228.279808 L 181.209936 214.698077 L 167.027244 214.698077 L 174.839744 228.279808 Z M 188.541667 228.279808 " transform="matrix(0.0975, 0, 0, -0.0975, 0, 45.144)"/>
<path fill-rule="evenodd" fill="rgb(100%, 100%, 100%)" fill-opacity="1" d="M 15.597656 22.886719 L 14.878906 24.210938 L 13.496094 24.210938 L 14.261719 22.886719 L 15.597656 22.886719 "/>
<path fill="none" stroke-width="1.926" stroke-linecap="round" stroke-linejoin="round" stroke="rgb(100%, 100%, 100%)" stroke-opacity="1" stroke-miterlimit="10" d="M 159.975962 228.279808 L 152.604167 214.698077 L 138.421474 214.698077 L 146.274038 228.279808 Z M 159.975962 228.279808 " transform="matrix(0.0975, 0, 0, -0.0975, 0, 45.144)"/>
<path fill-rule="evenodd" fill="rgb(100%, 100%, 100%)" fill-opacity="1" d="M 12.960938 22.886719 L 12.242188 24.210938 L 10.859375 24.210938 L 11.625 22.886719 L 12.960938 22.886719 "/>
<path fill="none" stroke-width="1.926" stroke-linecap="round" stroke-linejoin="round" stroke="rgb(100%, 100%, 100%)" stroke-opacity="1" stroke-miterlimit="10" d="M 132.932692 228.279808 L 125.560897 214.698077 L 111.378205 214.698077 L 119.230769 228.279808 Z M 132.932692 228.279808 " transform="matrix(0.0975, 0, 0, -0.0975, 0, 45.144)"/>
<g clip-path="url(#clip-3)">
<path fill-rule="nonzero" fill="rgb(100%, 100%, 100%)" fill-opacity="1" d="M 10.871094 45.03125 C 11.75 43.675781 15.953125 37.480469 16.339844 37.375 C 20.683594 36.191406 25.640625 26.53125 27.957031 23.71875 C 28.464844 23.105469 28.898438 21.90625 29.121094 21.34375 C 29.226562 21.070312 30.210938 18.996094 30.757812 18.019531 L 31.632812 14.042969 L 31.777344 10.550781 C 31.777344 10.550781 30.394531 7.238281 29.605469 11.484375 L 29.042969 14.21875 C 28.785156 14.644531 27.832031 16.042969 27.582031 16.652344 C 27.335938 17.257812 25.835938 19.121094 25.847656 20.160156 "/>
</g>
<g clip-path="url(#clip-4)">
<path fill="none" stroke-width="4" stroke-linecap="butt" stroke-linejoin="miter" stroke="rgb(13.729858%, 12.159729%, 12.548828%)" stroke-opacity="1" stroke-miterlimit="10" d="M 111.498397 1.15641 C 120.512821 15.058654 163.621795 78.600321 167.588141 79.682051 C 212.139423 91.821474 262.980769 190.9 286.738782 219.746154 C 291.947115 226.036218 296.394231 238.335897 298.677885 244.105128 C 299.759615 246.909615 309.855769 268.183654 315.464744 278.199679 L 324.439103 318.984936 L 325.921474 354.802244 C 325.921474 354.802244 311.738782 388.776603 303.645833 345.226923 L 297.876603 317.182051 C 295.232372 312.815064 285.456731 298.472115 282.892628 292.222115 C 280.36859 286.012179 264.983974 266.901603 265.104167 256.244551 " transform="matrix(0.0975, 0, 0, -0.0975, 0, 45.144)"/>
</g>
</svg>
