<?xml version="1.0" encoding="UTF-8"?>
<svg xmlns="http://www.w3.org/2000/svg" xmlns:xlink="http://www.w3.org/1999/xlink" width="36.5" height="24.73" viewBox="0 0 36.5 24.73">
<defs>
<clipPath id="clip-0">
<path clip-rule="nonzero" d="M 0 7 L 35.511719 7 L 35.511719 24.429688 L 0 24.429688 Z M 0 7 "/>
</clipPath>
<clipPath id="clip-1">
<path clip-rule="nonzero" d="M 0 4 L 35.511719 4 L 35.511719 24.429688 L 0 24.429688 Z M 0 4 "/>
</clipPath>
<clipPath id="clip-2">
<path clip-rule="nonzero" d="M 0 7 L 35.511719 7 L 35.511719 24.429688 L 0 24.429688 Z M 0 7 "/>
</clipPath>
<clipPath id="clip-3">
<path clip-rule="nonzero" d="M 0 4 L 35.511719 4 L 35.511719 24.429688 L 0 24.429688 Z M 0 4 "/>
</clipPath>
<clipPath id="clip-4">
<path clip-rule="nonzero" d="M 0 0.0625 L 35.511719 0.0625 L 35.511719 15 L 0 15 Z M 0 0.0625 "/>
</clipPath>
<clipPath id="clip-5">
<path clip-rule="nonzero" d="M 0 0.0625 L 35.511719 0.0625 L 35.511719 17 L 0 17 Z M 0 0.0625 "/>
</clipPath>
</defs>
<g clip-path="url(#clip-0)">
<path fill-rule="nonzero" fill="rgb(0.784302%, 42.352295%, 60.78186%)" fill-opacity="1" d="M 35.832031 7.15625 C 35.832031 10.984375 27.855469 14.085938 18.015625 14.085938 C 8.175781 14.085938 0.199219 10.984375 0.199219 7.15625 L 0.199219 17.304688 C 0.199219 21.128906 8.175781 24.234375 18.015625 24.234375 C 27.855469 24.234375 35.832031 21.128906 35.832031 17.304688 L 35.832031 7.15625 "/>
</g>
<g clip-path="url(#clip-1)">
<path fill="none" stroke-width="4" stroke-linecap="butt" stroke-linejoin="miter" stroke="rgb(100%, 100%, 100%)" stroke-opacity="1" stroke-miterlimit="4" d="M 363.22881 175.101027 C 363.22881 136.295377 282.370505 104.85488 182.624144 104.85488 C 82.877783 104.85488 2.019478 136.295377 2.019478 175.101027 L 2.019478 72.226455 C 2.019478 33.460402 82.877783 1.980308 182.624144 1.980308 C 282.370505 1.980308 363.22881 33.460402 363.22881 72.226455 Z M 363.22881 175.101027 " transform="matrix(0.0986486, 0, 0, -0.0986486, 0, 24.42973)"/>
</g>
<g clip-path="url(#clip-2)">
<path fill-rule="nonzero" fill="rgb(0.784302%, 42.352295%, 60.78186%)" fill-opacity="1" d="M 35.832031 7.15625 C 35.832031 10.984375 27.855469 14.085938 18.015625 14.085938 C 8.175781 14.085938 0.199219 10.984375 0.199219 7.15625 L 0.199219 17.304688 C 0.199219 21.128906 8.175781 24.234375 18.015625 24.234375 C 27.855469 24.234375 35.832031 21.128906 35.832031 17.304688 L 35.832031 7.15625 "/>
</g>
<g clip-path="url(#clip-3)">
<path fill="none" stroke-width="4" stroke-linecap="butt" stroke-linejoin="miter" stroke="rgb(100%, 100%, 100%)" stroke-opacity="1" stroke-miterlimit="4" d="M 363.22881 175.101027 C 363.22881 136.295377 282.370505 104.85488 182.624144 104.85488 C 82.877783 104.85488 2.019478 136.295377 2.019478 175.101027 L 2.019478 72.226455 C 2.019478 33.460402 82.877783 1.980308 182.624144 1.980308 C 282.370505 1.980308 363.22881 33.460402 363.22881 72.226455 Z M 363.22881 175.101027 " transform="matrix(0.0986486, 0, 0, -0.0986486, 0, 24.42973)"/>
</g>
<g clip-path="url(#clip-4)">
<path fill-rule="nonzero" fill="rgb(0.784302%, 42.352295%, 60.78186%)" fill-opacity="1" d="M 18.015625 14.085938 C 27.855469 14.085938 35.832031 10.984375 35.832031 7.15625 C 35.832031 3.328125 27.855469 0.226562 18.015625 0.226562 C 8.175781 0.226562 0.199219 3.328125 0.199219 7.15625 C 0.199219 10.984375 8.175781 14.085938 18.015625 14.085938 "/>
</g>
<g clip-path="url(#clip-5)">
<path fill="none" stroke-width="4" stroke-linecap="butt" stroke-linejoin="miter" stroke="rgb(100%, 100%, 100%)" stroke-opacity="1" stroke-miterlimit="4" d="M 182.624144 104.85488 C 282.370505 104.85488 363.22881 136.295377 363.22881 175.101027 C 363.22881 213.906678 282.370505 245.347175 182.624144 245.347175 C 82.877783 245.347175 2.019478 213.906678 2.019478 175.101027 C 2.019478 136.295377 82.877783 104.85488 182.624144 104.85488 Z M 182.624144 104.85488 " transform="matrix(0.0986486, 0, 0, -0.0986486, 0, 24.42973)"/>
</g>
<path fill-rule="nonzero" fill="rgb(100%, 100%, 100%)" fill-opacity="1" d="M 12.757812 11 L 12.757812 2.011719 L 21.335938 6.355469 L 12.757812 11 "/>
<path fill-rule="nonzero" fill="rgb(100%, 100%, 100%)" fill-opacity="1" d="M 21.480469 10.589844 L 24.148438 10.589844 L 24.148438 2.269531 L 21.480469 2.269531 Z M 21.480469 10.589844 "/>
</svg>
