<?xml version="1.0" encoding="UTF-8"?>
<svg xmlns="http://www.w3.org/2000/svg" xmlns:xlink="http://www.w3.org/1999/xlink" width="31.5" height="25.21" viewBox="0 0 31.5 25.21">
<defs>
<clipPath id="clip-0">
<path clip-rule="nonzero" d="M 0.234375 5 L 30.292969 5 L 30.292969 24.25 L 0.234375 24.25 Z M 0.234375 5 "/>
</clipPath>
<clipPath id="clip-1">
<path clip-rule="nonzero" d="M 0.234375 3 L 30.292969 3 L 30.292969 24.25 L 0.234375 24.25 Z M 0.234375 3 "/>
</clipPath>
<clipPath id="clip-2">
<path clip-rule="nonzero" d="M 0.234375 0.0078125 L 30.292969 0.0078125 L 30.292969 12 L 0.234375 12 Z M 0.234375 0.0078125 "/>
</clipPath>
<clipPath id="clip-3">
<path clip-rule="nonzero" d="M 0.234375 0.0078125 L 30.292969 0.0078125 L 30.292969 14 L 0.234375 14 Z M 0.234375 0.0078125 "/>
</clipPath>
</defs>
<g clip-path="url(#clip-0)">
<path fill-rule="nonzero" fill="rgb(0.784302%, 42.352295%, 60.78186%)" fill-opacity="1" d="M 30.605469 5.785156 C 30.605469 8.871094 23.851562 11.375 15.519531 11.375 C 7.183594 11.375 0.429688 8.871094 0.429688 5.785156 L 0.429688 18.664062 C 0.429688 21.75 7.183594 24.25 15.519531 24.25 C 23.851562 24.25 30.605469 21.75 30.605469 18.664062 L 30.605469 5.785156 "/>
</g>
<g clip-path="url(#clip-1)">
<path fill="none" stroke-width="4" stroke-linecap="butt" stroke-linejoin="miter" stroke="rgb(100%, 100%, 100%)" stroke-opacity="1" stroke-miterlimit="4" d="M 313.209912 192.435556 C 313.209912 160.609148 243.554393 134.785442 157.623091 134.785442 C 71.651502 134.785442 1.995984 160.609148 1.995984 192.435556 L 1.995984 59.61066 C 1.995984 27.784252 71.651502 2.000833 157.623091 2.000833 C 243.554393 2.000833 313.209912 27.784252 313.209912 59.61066 Z M 313.209912 192.435556 " transform="matrix(0.0969615, 0, 0, -0.0969615, 0.236154, 24.444004)"/>
</g>
<g clip-path="url(#clip-2)">
<path fill-rule="nonzero" fill="rgb(0.784302%, 42.352295%, 60.78186%)" fill-opacity="1" d="M 15.519531 11.375 C 23.851562 11.375 30.605469 8.871094 30.605469 5.785156 C 30.605469 2.699219 23.851562 0.199219 15.519531 0.199219 C 7.183594 0.199219 0.429688 2.699219 0.429688 5.785156 C 0.429688 8.871094 7.183594 11.375 15.519531 11.375 "/>
</g>
<g clip-path="url(#clip-3)">
<path fill="none" stroke-width="4" stroke-linecap="butt" stroke-linejoin="miter" stroke="rgb(100%, 100%, 100%)" stroke-opacity="1" stroke-miterlimit="4" d="M 157.623091 134.785442 C 243.554393 134.785442 313.209912 160.609148 313.209912 192.435556 C 313.209912 224.261964 243.554393 250.045384 157.623091 250.045384 C 71.651502 250.045384 1.995984 224.261964 1.995984 192.435556 C 1.995984 160.609148 71.651502 134.785442 157.623091 134.785442 Z M 157.623091 134.785442 " transform="matrix(0.0969615, 0, 0, -0.0969615, 0.236154, 24.444004)"/>
</g>
</svg>
