<?xml version="1.0" encoding="UTF-8"?>
<svg xmlns="http://www.w3.org/2000/svg" xmlns:xlink="http://www.w3.org/1999/xlink" width="37.17" height="29.85" viewBox="0 0 37.17 29.85">
<defs>
<clipPath id="clip-0">
<path clip-rule="nonzero" d="M 0 12 L 36.191406 12 L 36.191406 29.449219 L 0 29.449219 Z M 0 12 "/>
</clipPath>
<clipPath id="clip-1">
<path clip-rule="nonzero" d="M 0 9 L 36.191406 9 L 36.191406 29.449219 L 0 29.449219 Z M 0 9 "/>
</clipPath>
<clipPath id="clip-2">
<path clip-rule="nonzero" d="M 0 5 L 36.191406 5 L 36.191406 20 L 0 20 Z M 0 5 "/>
</clipPath>
<clipPath id="clip-3">
<path clip-rule="nonzero" d="M 0 2 L 36.191406 2 L 36.191406 22 L 0 22 Z M 0 2 "/>
</clipPath>
<clipPath id="clip-4">
<path clip-rule="nonzero" d="M 0 0.300781 L 36.191406 0.300781 L 36.191406 15 L 0 15 Z M 0 0.300781 "/>
</clipPath>
<clipPath id="clip-5">
<path clip-rule="nonzero" d="M 0 0.300781 L 36.191406 0.300781 L 36.191406 17 L 0 17 Z M 0 0.300781 "/>
</clipPath>
<clipPath id="clip-6">
<path clip-rule="nonzero" d="M 0 7 L 36.191406 7 L 36.191406 20 L 0 20 Z M 0 7 "/>
</clipPath>
<clipPath id="clip-7">
<path clip-rule="nonzero" d="M 0 5 L 36.191406 5 L 36.191406 22 L 0 22 Z M 0 5 "/>
</clipPath>
<clipPath id="clip-8">
<path clip-rule="nonzero" d="M 29 5 L 36.191406 5 L 36.191406 14 L 29 14 Z M 29 5 "/>
</clipPath>
<clipPath id="clip-9">
<path clip-rule="nonzero" d="M 4 0.300781 L 13 0.300781 L 13 7 L 4 7 Z M 4 0.300781 "/>
</clipPath>
<clipPath id="clip-10">
<path clip-rule="nonzero" d="M 9 0.300781 L 19 0.300781 L 19 8 L 9 8 Z M 9 0.300781 "/>
</clipPath>
<clipPath id="clip-11">
<path clip-rule="nonzero" d="M 12 0.300781 L 25 0.300781 L 25 10 L 12 10 Z M 12 0.300781 "/>
</clipPath>
<clipPath id="clip-12">
<path clip-rule="nonzero" d="M 17 0.300781 L 30 0.300781 L 30 10 L 17 10 Z M 17 0.300781 "/>
</clipPath>
<clipPath id="clip-13">
<path clip-rule="nonzero" d="M 28 3 L 36.191406 3 L 36.191406 11 L 28 11 Z M 28 3 "/>
</clipPath>
<clipPath id="clip-14">
<path clip-rule="nonzero" d="M 31 4 L 36.191406 4 L 36.191406 9 L 31 9 Z M 31 4 "/>
</clipPath>
</defs>
<g clip-path="url(#clip-0)">
<path fill-rule="nonzero" fill="rgb(0.784302%, 42.352295%, 60.78186%)" fill-opacity="1" d="M 36.179688 12.011719 C 36.179688 15.875 28.125 19.007812 18.1875 19.007812 C 8.25 19.007812 0.195312 15.875 0.195312 12.011719 L 0.195312 22.257812 C 0.195312 26.125 8.25 29.253906 18.1875 29.253906 C 28.125 29.253906 36.179688 26.125 36.179688 22.257812 L 36.179688 12.011719 "/>
</g>
<g clip-path="url(#clip-1)">
<path fill="none" stroke-width="4" stroke-linecap="butt" stroke-linejoin="miter" stroke="rgb(100%, 100%, 100%)" stroke-opacity="1" stroke-miterlimit="4" d="M 369.87574 178.283343 C 369.87574 138.787867 287.530266 106.76019 185.936239 106.76019 C 84.342211 106.76019 1.996738 138.787867 1.996738 178.283343 L 1.996738 73.53447 C 1.996738 33.999058 84.342211 2.011316 185.936239 2.011316 C 287.530266 2.011316 369.87574 33.999058 369.87574 73.53447 Z M 369.87574 178.283343 " transform="matrix(0.0978158, 0, 0, -0.0978158, 0, 29.450645)"/>
</g>
<g clip-path="url(#clip-2)">
<path fill-rule="nonzero" fill="rgb(0.784302%, 42.352295%, 60.78186%)" fill-opacity="1" d="M 18.1875 19.007812 C 28.125 19.007812 36.179688 15.875 36.179688 12.011719 C 36.179688 8.148438 28.125 5.015625 18.1875 5.015625 C 8.25 5.015625 0.195312 8.148438 0.195312 12.011719 C 0.195312 15.875 8.25 19.007812 18.1875 19.007812 "/>
</g>
<g clip-path="url(#clip-3)">
<path fill="none" stroke-width="4" stroke-linecap="butt" stroke-linejoin="miter" stroke="rgb(100%, 100%, 100%)" stroke-opacity="1" stroke-miterlimit="4" d="M 185.936239 106.76019 C 287.530266 106.76019 369.87574 138.787867 369.87574 178.283343 C 369.87574 217.77882 287.530266 249.806497 185.936239 249.806497 C 84.342211 249.806497 1.996738 217.77882 1.996738 178.283343 C 1.996738 138.787867 84.342211 106.76019 185.936239 106.76019 Z M 185.936239 106.76019 " transform="matrix(0.0978158, 0, 0, -0.0978158, 0, 29.450645)"/>
</g>
<g clip-path="url(#clip-4)">
<path fill-rule="nonzero" fill="rgb(0.784302%, 42.352295%, 60.78186%)" fill-opacity="1" d="M 18.183594 14.386719 C 28.082031 14.386719 36.101562 11.269531 36.101562 7.417969 C 36.101562 3.570312 28.082031 0.453125 18.183594 0.453125 C 8.289062 0.453125 0.265625 3.570312 0.265625 7.417969 C 0.265625 11.269531 8.289062 14.386719 18.183594 14.386719 "/>
</g>
<g clip-path="url(#clip-5)">
<path fill="none" stroke-width="4" stroke-linecap="butt" stroke-linejoin="miter" stroke="rgb(100%, 100%, 100%)" stroke-opacity="1" stroke-miterlimit="4" d="M 185.896304 154.00301 C 287.090984 154.00301 369.077045 185.870948 369.077045 225.24662 C 369.077045 264.582358 287.090984 296.450296 185.896304 296.450296 C 84.741559 296.450296 2.715564 264.582358 2.715564 225.24662 C 2.715564 185.870948 84.741559 154.00301 185.896304 154.00301 Z M 185.896304 154.00301 " transform="matrix(0.0978158, 0, 0, -0.0978158, 0, 29.450645)"/>
</g>
<g clip-path="url(#clip-6)">
<path fill-rule="nonzero" fill="rgb(0.784302%, 42.352295%, 60.78186%)" fill-opacity="1" d="M 36.101562 7.417969 C 36.101562 11.269531 28.082031 14.386719 18.183594 14.386719 C 8.289062 14.386719 0.265625 11.269531 0.265625 7.417969 L 0.265625 12.355469 C 0.265625 16.207031 8.289062 19.324219 18.183594 19.324219 C 28.082031 19.324219 36.101562 16.207031 36.101562 12.355469 L 36.101562 7.417969 "/>
</g>
<g clip-path="url(#clip-7)">
<path fill="none" stroke-width="4" stroke-linecap="butt" stroke-linejoin="miter" stroke="rgb(100%, 100%, 100%)" stroke-opacity="1" stroke-miterlimit="4" d="M 369.077045 225.24662 C 369.077045 185.870948 287.090984 154.00301 185.896304 154.00301 C 84.741559 154.00301 2.715564 185.870948 2.715564 225.24662 L 2.715564 174.769085 C 2.715564 135.393412 84.741559 103.525474 185.896304 103.525474 C 287.090984 103.525474 369.077045 135.393412 369.077045 174.769085 Z M 369.077045 225.24662 " transform="matrix(0.0978158, 0, 0, -0.0978158, 0, 29.450645)"/>
</g>
<path fill-rule="nonzero" fill="rgb(100%, 100%, 100%)" fill-opacity="1" d="M 14.078125 4.386719 L 15.566406 6.613281 L 9.945312 7.914062 L 11.175781 6.890625 L 2.492188 5.40625 L 4.671875 3.773438 L 13.046875 5.195312 L 14.078125 4.386719 "/>
<path fill-rule="nonzero" fill="rgb(100%, 100%, 100%)" fill-opacity="1" d="M 21.984375 9.789062 L 20.96875 7.492188 L 26.035156 6.480469 L 25.15625 7.265625 L 33.601562 8.710938 L 31.574219 10.332031 L 23.183594 8.753906 L 21.984375 9.789062 "/>
<path fill-rule="nonzero" fill="rgb(100%, 100%, 100%)" fill-opacity="1" d="M 19.210938 3.167969 L 24.886719 1.617188 L 24.957031 4.046875 L 23.535156 3.777344 L 20.765625 6.074219 L 18.125 5.6875 L 20.980469 3.441406 L 19.210938 3.167969 "/>
<path fill-rule="nonzero" fill="rgb(100%, 100%, 100%)" fill-opacity="1" d="M 16.78125 11.886719 L 11.375 12.898438 L 11.171875 10.398438 L 12.726562 10.734375 L 15.703125 8.195312 L 18.335938 8.640625 L 15.160156 11.410156 L 16.78125 11.886719 "/>
<path fill="none" stroke-width="3" stroke-linecap="butt" stroke-linejoin="miter" stroke="rgb(100%, 100%, 100%)" stroke-opacity="1" stroke-miterlimit="4" d="M 144.24435 221.532688 L 193.683582 218.297972 " transform="matrix(0.0978158, 0, 0, -0.0978158, 0, 29.450645)"/>
<path fill="none" stroke-width="3" stroke-linecap="butt" stroke-linejoin="miter" stroke="rgb(100%, 100%, 100%)" stroke-opacity="1" stroke-miterlimit="4" d="M 39.77502 228.161858 L 90.651903 224.887207 " transform="matrix(0.0978158, 0, 0, -0.0978158, 0, 29.450645)"/>
<path fill="none" stroke-width="3" stroke-linecap="butt" stroke-linejoin="miter" stroke="rgb(100%, 100%, 100%)" stroke-opacity="1" stroke-miterlimit="4" d="M 18.409924 250.92467 L 59.422922 247.370477 " transform="matrix(0.0978158, 0, 0, -0.0978158, 0, 29.450645)"/>
<path fill="none" stroke-width="3" stroke-linecap="butt" stroke-linejoin="miter" stroke="rgb(100%, 100%, 100%)" stroke-opacity="1" stroke-miterlimit="4" d="M 63.895615 249.127606 L 13.418079 207.196109 " transform="matrix(0.0978158, 0, 0, -0.0978158, 0, 29.450645)"/>
<path fill="none" stroke-width="3" stroke-linecap="butt" stroke-linejoin="miter" stroke="rgb(100%, 100%, 100%)" stroke-opacity="1" stroke-miterlimit="4" d="M 114.333216 243.057523 L 43.409083 183.434927 " transform="matrix(0.0978158, 0, 0, -0.0978158, 0, 29.450645)"/>
<path fill="none" stroke-width="3" stroke-linecap="butt" stroke-linejoin="miter" stroke="rgb(100%, 100%, 100%)" stroke-opacity="1" stroke-miterlimit="4" d="M 169.642857 240.581568 L 82.625017 169.897044 " transform="matrix(0.0978158, 0, 0, -0.0978158, 0, 29.450645)"/>
<path fill="none" stroke-width="3" stroke-linecap="butt" stroke-linejoin="miter" stroke="rgb(100%, 100%, 100%)" stroke-opacity="1" stroke-miterlimit="4" d="M 64.61444 201.764982 L 115.770867 198.490332 " transform="matrix(0.0978158, 0, 0, -0.0978158, 0, 29.450645)"/>
<path fill="none" stroke-width="3" stroke-linecap="butt" stroke-linejoin="miter" stroke="rgb(100%, 100%, 100%)" stroke-opacity="1" stroke-miterlimit="4" d="M 286.212419 196.333855 L 337.129237 193.059204 " transform="matrix(0.0978158, 0, 0, -0.0978158, 0, 29.450645)"/>
<path fill="none" stroke-width="3" stroke-linecap="butt" stroke-linejoin="miter" stroke="rgb(100%, 100%, 100%)" stroke-opacity="1" stroke-miterlimit="4" d="M 183.180741 202.92309 L 234.057624 199.64844 " transform="matrix(0.0978158, 0, 0, -0.0978158, 0, 29.450645)"/>
<path fill="none" stroke-width="3" stroke-linecap="butt" stroke-linejoin="miter" stroke="rgb(100%, 100%, 100%)" stroke-opacity="1" stroke-miterlimit="4" d="M 205.144858 225.206685 L 128.390251 159.673746 " transform="matrix(0.0978158, 0, 0, -0.0978158, 0, 29.450645)"/>
<path fill="none" stroke-width="3" stroke-linecap="butt" stroke-linejoin="miter" stroke="rgb(100%, 100%, 100%)" stroke-opacity="1" stroke-miterlimit="4" d="M 259.935348 220.534319 L 183.380414 155.919878 " transform="matrix(0.0978158, 0, 0, -0.0978158, 0, 29.450645)"/>
<path fill="none" stroke-width="3" stroke-linecap="butt" stroke-linejoin="miter" stroke="rgb(100%, 100%, 100%)" stroke-opacity="1" stroke-miterlimit="4" d="M 310.372949 217.339538 L 242.16438 157.197791 " transform="matrix(0.0978158, 0, 0, -0.0978158, 0, 29.450645)"/>
<g clip-path="url(#clip-8)">
<path fill="none" stroke-width="3" stroke-linecap="butt" stroke-linejoin="miter" stroke="rgb(100%, 100%, 100%)" stroke-opacity="1" stroke-miterlimit="4" d="M 367.319915 223.64923 L 319.837487 177.364844 " transform="matrix(0.0978158, 0, 0, -0.0978158, 0, 29.450645)"/>
</g>
<path fill="none" stroke-width="3" stroke-linecap="butt" stroke-linejoin="miter" stroke="rgb(100%, 100%, 100%)" stroke-opacity="1" stroke-miterlimit="4" d="M 102.991744 183.275188 L 154.188105 179.960603 " transform="matrix(0.0978158, 0, 0, -0.0978158, 0, 29.450645)"/>
<path fill="none" stroke-width="3" stroke-linecap="butt" stroke-linejoin="miter" stroke="rgb(100%, 100%, 100%)" stroke-opacity="1" stroke-miterlimit="4" d="M 207.540944 176.566149 L 258.69737 173.291499 " transform="matrix(0.0978158, 0, 0, -0.0978158, 0, 29.450645)"/>
<g clip-path="url(#clip-9)">
<path fill="none" stroke-width="3" stroke-linecap="butt" stroke-linejoin="miter" stroke="rgb(100%, 100%, 100%)" stroke-opacity="1" stroke-miterlimit="4" d="M 108.382937 288.423409 L 60.780704 247.130868 " transform="matrix(0.0978158, 0, 0, -0.0978158, 0, 29.450645)"/>
</g>
<g clip-path="url(#clip-10)">
<path fill="none" stroke-width="3" stroke-linecap="butt" stroke-linejoin="miter" stroke="rgb(100%, 100%, 100%)" stroke-opacity="1" stroke-miterlimit="4" d="M 175.912614 295.931144 L 113.694259 240.861111 " transform="matrix(0.0978158, 0, 0, -0.0978158, 0, 29.450645)"/>
</g>
<path fill="none" stroke-width="3" stroke-linecap="butt" stroke-linejoin="miter" stroke="rgb(100%, 100%, 100%)" stroke-opacity="1" stroke-miterlimit="4" d="M 309.574253 262.984968 L 344.636972 258.432405 " transform="matrix(0.0978158, 0, 0, -0.0978158, 0, 29.450645)"/>
<g clip-path="url(#clip-11)">
<path fill="none" stroke-width="3" stroke-linecap="butt" stroke-linejoin="miter" stroke="rgb(100%, 100%, 100%)" stroke-opacity="1" stroke-miterlimit="4" d="M 233.378733 293.455189 L 148.4375 222.610926 " transform="matrix(0.0978158, 0, 0, -0.0978158, 0, 29.450645)"/>
</g>
<g clip-path="url(#clip-12)">
<path fill="none" stroke-width="3" stroke-linecap="butt" stroke-linejoin="miter" stroke="rgb(100%, 100%, 100%)" stroke-opacity="1" stroke-miterlimit="4" d="M 280.381944 287.225367 L 198.515688 219.216472 " transform="matrix(0.0978158, 0, 0, -0.0978158, 0, 29.450645)"/>
</g>
<path fill="none" stroke-width="3" stroke-linecap="butt" stroke-linejoin="miter" stroke="rgb(100%, 100%, 100%)" stroke-opacity="1" stroke-miterlimit="4" d="M 319.637813 272.169962 L 254.304547 215.822017 " transform="matrix(0.0978158, 0, 0, -0.0978158, 0, 29.450645)"/>
<g clip-path="url(#clip-13)">
<path fill="none" stroke-width="3" stroke-linecap="butt" stroke-linejoin="miter" stroke="rgb(100%, 100%, 100%)" stroke-opacity="1" stroke-miterlimit="4" d="M 353.382684 252.202583 L 307.218103 212.427563 " transform="matrix(0.0978158, 0, 0, -0.0978158, 0, 29.450645)"/>
</g>
<path fill="none" stroke-width="3" stroke-linecap="butt" stroke-linejoin="miter" stroke="rgb(100%, 100%, 100%)" stroke-opacity="1" stroke-miterlimit="4" d="M 126.353578 249.926301 L 177.510005 246.651651 " transform="matrix(0.0978158, 0, 0, -0.0978158, 0, 29.450645)"/>
<path fill="none" stroke-width="3" stroke-linecap="butt" stroke-linejoin="miter" stroke="rgb(100%, 100%, 100%)" stroke-opacity="1" stroke-miterlimit="4" d="M 230.902778 243.217262 L 282.01927 239.942612 " transform="matrix(0.0978158, 0, 0, -0.0978158, 0, 29.450645)"/>
<g clip-path="url(#clip-14)">
<path fill="none" stroke-width="3" stroke-linecap="butt" stroke-linejoin="miter" stroke="rgb(100%, 100%, 100%)" stroke-opacity="1" stroke-miterlimit="4" d="M 334.413674 236.588092 L 364.644286 234.671223 " transform="matrix(0.0978158, 0, 0, -0.0978158, 0, 29.450645)"/>
</g>
</svg>
