<?xml version="1.0" encoding="UTF-8"?>
<svg xmlns="http://www.w3.org/2000/svg" xmlns:xlink="http://www.w3.org/1999/xlink" width="43.59" height="65.54" viewBox="0 0 43.59 65.54">
<defs>
<clipPath id="clip-0">
<path clip-rule="nonzero" d="M 0 32 L 17 32 L 17 65.007812 L 0 65.007812 Z M 0 32 "/>
</clipPath>
<clipPath id="clip-1">
<path clip-rule="nonzero" d="M 9 0.078125 L 34 0.078125 L 34 65 L 9 65 Z M 9 0.078125 "/>
</clipPath>
<clipPath id="clip-2">
<path clip-rule="nonzero" d="M 6 0.078125 L 36 0.078125 L 36 65.007812 L 6 65.007812 Z M 6 0.078125 "/>
</clipPath>
<clipPath id="clip-3">
<path clip-rule="nonzero" d="M 26 0.078125 L 34 0.078125 L 34 8 L 26 8 Z M 26 0.078125 "/>
</clipPath>
<clipPath id="clip-4">
<path clip-rule="nonzero" d="M 24 0.078125 L 36 0.078125 L 36 10 L 24 10 Z M 24 0.078125 "/>
</clipPath>
<clipPath id="clip-5">
<path clip-rule="nonzero" d="M 24 7 L 43.183594 7 L 43.183594 65.007812 L 24 65.007812 Z M 24 7 "/>
</clipPath>
<clipPath id="clip-6">
<path clip-rule="nonzero" d="M 36 9 L 43.183594 9 L 43.183594 17 L 36 17 Z M 36 9 "/>
</clipPath>
<clipPath id="clip-7">
<path clip-rule="nonzero" d="M 33 7 L 43.183594 7 L 43.183594 19 L 33 19 Z M 33 7 "/>
</clipPath>
</defs>
<path fill-rule="nonzero" fill="rgb(1.176453%, 41.175842%, 59.605408%)" fill-opacity="1" d="M 0.476562 64.527344 L 9.039062 64.527344 L 9.039062 39 L 0.476562 39 Z M 0.476562 64.527344 "/>
<path fill="none" stroke-width="3.99994" stroke-linecap="butt" stroke-linejoin="miter" stroke="rgb(100%, 100%, 100%)" stroke-opacity="1" stroke-miterlimit="4" d="M 91.240824 262.514017 L 4.81045 262.514017 L 4.81045 4.839522 L 91.240824 4.839522 " transform="matrix(0.0990682, 0, 0, -0.0990682, 0, 65.006786)"/>
<path fill-rule="nonzero" fill="rgb(1.176453%, 41.175842%, 59.605408%)" fill-opacity="1" d="M 9.039062 64.527344 L 13.769531 59.796875 L 13.769531 34.265625 L 5.210938 34.265625 L 0.476562 39 L 9.039062 39 L 9.039062 64.527344 "/>
<g clip-path="url(#clip-0)">
<path fill="none" stroke-width="3.99994" stroke-linecap="butt" stroke-linejoin="miter" stroke="rgb(100%, 100%, 100%)" stroke-opacity="1" stroke-miterlimit="4" d="M 91.240824 4.839522 L 138.990451 52.589149 L 138.990451 310.303074 L 52.599507 310.303074 L 4.81045 262.514017 L 91.240824 262.514017 Z M 91.240824 4.839522 " transform="matrix(0.0990682, 0, 0, -0.0990682, 0, 65.006786)"/>
</g>
<path fill-rule="nonzero" fill="rgb(1.176453%, 41.175842%, 59.605408%)" fill-opacity="1" stroke-width="3.99994" stroke-linecap="butt" stroke-linejoin="miter" stroke="rgb(100%, 100%, 100%)" stroke-opacity="1" stroke-miterlimit="4" d="M 91.240824 262.514017 L 138.990451 310.303074 " transform="matrix(0.0990682, 0, 0, -0.0990682, 0, 65.006786)"/>
<path fill-rule="nonzero" fill="rgb(1.176453%, 41.175842%, 59.605408%)" fill-opacity="1" d="M 9.039062 64.527344 L 26.492188 64.527344 L 26.492188 7.375 L 9.039062 7.375 Z M 9.039062 64.527344 "/>
<path fill="none" stroke-width="3.99994" stroke-linecap="butt" stroke-linejoin="miter" stroke="rgb(100%, 100%, 100%)" stroke-opacity="1" stroke-miterlimit="4" d="M 267.413684 581.73861 L 91.240824 581.73861 L 91.240824 4.839522 L 267.413684 4.839522 " transform="matrix(0.0990682, 0, 0, -0.0990682, 0, 65.006786)"/>
<g clip-path="url(#clip-1)">
<path fill-rule="nonzero" fill="rgb(1.176453%, 41.175842%, 59.605408%)" fill-opacity="1" d="M 26.492188 64.527344 L 33.589844 57.429688 L 33.589844 0.277344 L 16.136719 0.277344 L 9.039062 7.375 L 26.492188 7.375 L 26.492188 64.527344 "/>
</g>
<g clip-path="url(#clip-2)">
<path fill="none" stroke-width="3.99994" stroke-linecap="butt" stroke-linejoin="miter" stroke="rgb(100%, 100%, 100%)" stroke-opacity="1" stroke-miterlimit="4" d="M 267.413684 4.839522 L 339.05784 76.483677 L 339.05784 653.382766 L 162.884979 653.382766 L 91.240824 581.73861 L 267.413684 581.73861 Z M 267.413684 4.839522 " transform="matrix(0.0990682, 0, 0, -0.0990682, 0, 65.006786)"/>
</g>
<g clip-path="url(#clip-3)">
<path fill-rule="nonzero" fill="rgb(1.176453%, 41.175842%, 59.605408%)" fill-opacity="1" d="M 26.492188 7.375 L 33.589844 0.277344 "/>
</g>
<g clip-path="url(#clip-4)">
<path fill="none" stroke-width="3.99994" stroke-linecap="butt" stroke-linejoin="miter" stroke="rgb(100%, 100%, 100%)" stroke-opacity="1" stroke-miterlimit="4" d="M 267.413684 581.73861 L 339.05784 653.382766 " transform="matrix(0.0990682, 0, 0, -0.0990682, 0, 65.006786)"/>
</g>
<path fill-rule="nonzero" fill="rgb(1.176453%, 41.175842%, 59.605408%)" fill-opacity="1" stroke-width="3.99994" stroke-linecap="butt" stroke-linejoin="miter" stroke="rgb(100%, 100%, 100%)" stroke-opacity="1" stroke-miterlimit="4" d="M 182.954806 344.961969 L 182.954806 318.031337 L 209.924868 318.031337 " transform="matrix(0.0990682, 0, 0, -0.0990682, 0, 65.006786)"/>
<path fill-rule="nonzero" fill="rgb(1.176453%, 41.175842%, 59.605408%)" fill-opacity="1" stroke-width="3.99994" stroke-linecap="butt" stroke-linejoin="miter" stroke="rgb(100%, 100%, 100%)" stroke-opacity="1" stroke-miterlimit="4" d="M 220.531515 344.961969 L 220.531515 318.031337 L 247.462147 318.031337 " transform="matrix(0.0990682, 0, 0, -0.0990682, 0, 65.006786)"/>
<path fill-rule="nonzero" fill="rgb(1.176453%, 41.175842%, 59.605408%)" fill-opacity="1" stroke-width="3.99994" stroke-linecap="butt" stroke-linejoin="miter" stroke="rgb(100%, 100%, 100%)" stroke-opacity="1" stroke-miterlimit="4" d="M 107.446519 344.252231 L 107.446519 317.321599 L 134.377151 317.321599 " transform="matrix(0.0990682, 0, 0, -0.0990682, 0, 65.006786)"/>
<path fill-rule="nonzero" fill="rgb(1.176453%, 41.175842%, 59.605408%)" fill-opacity="1" stroke-width="3.99994" stroke-linecap="butt" stroke-linejoin="miter" stroke="rgb(100%, 100%, 100%)" stroke-opacity="1" stroke-miterlimit="4" d="M 145.023228 344.252231 L 145.023228 317.321599 L 171.95386 317.321599 " transform="matrix(0.0990682, 0, 0, -0.0990682, 0, 65.006786)"/>
<path fill-rule="nonzero" fill="rgb(1.176453%, 41.175842%, 59.605408%)" fill-opacity="1" stroke-width="3.99994" stroke-linecap="butt" stroke-linejoin="miter" stroke="rgb(100%, 100%, 100%)" stroke-opacity="1" stroke-miterlimit="4" d="M 182.678797 288.89263 L 182.678797 261.961998 L 209.609429 261.961998 " transform="matrix(0.0990682, 0, 0, -0.0990682, 0, 65.006786)"/>
<path fill-rule="nonzero" fill="rgb(1.176453%, 41.175842%, 59.605408%)" fill-opacity="1" stroke-width="3.99994" stroke-linecap="butt" stroke-linejoin="miter" stroke="rgb(100%, 100%, 100%)" stroke-opacity="1" stroke-miterlimit="4" d="M 220.216076 288.89263 L 220.216076 261.961998 L 247.146708 261.961998 " transform="matrix(0.0990682, 0, 0, -0.0990682, 0, 65.006786)"/>
<path fill-rule="nonzero" fill="rgb(1.176453%, 41.175842%, 59.605408%)" fill-opacity="1" stroke-width="3.99994" stroke-linecap="butt" stroke-linejoin="miter" stroke="rgb(100%, 100%, 100%)" stroke-opacity="1" stroke-miterlimit="4" d="M 107.131079 288.222322 L 107.131079 261.25226 L 134.061711 261.25226 " transform="matrix(0.0990682, 0, 0, -0.0990682, 0, 65.006786)"/>
<path fill-rule="nonzero" fill="rgb(1.176453%, 41.175842%, 59.605408%)" fill-opacity="1" stroke-width="3.99994" stroke-linecap="butt" stroke-linejoin="miter" stroke="rgb(100%, 100%, 100%)" stroke-opacity="1" stroke-miterlimit="4" d="M 144.707788 288.222322 L 144.707788 261.25226 L 171.638421 261.25226 " transform="matrix(0.0990682, 0, 0, -0.0990682, 0, 65.006786)"/>
<path fill="none" stroke-width="3.99994" stroke-linecap="butt" stroke-linejoin="miter" stroke="rgb(100%, 100%, 100%)" stroke-opacity="1" stroke-miterlimit="4" d="M 182.678797 235.228516 L 182.678797 208.297884 L 209.609429 208.297884 " transform="matrix(0.0990682, 0, 0, -0.0990682, 0, 65.006786)"/>
<path fill="none" stroke-width="3.99994" stroke-linecap="butt" stroke-linejoin="miter" stroke="rgb(100%, 100%, 100%)" stroke-opacity="1" stroke-miterlimit="4" d="M 220.216076 235.228516 L 220.216076 208.297884 L 247.146708 208.297884 " transform="matrix(0.0990682, 0, 0, -0.0990682, 0, 65.006786)"/>
<path fill="none" stroke-width="3.99994" stroke-linecap="butt" stroke-linejoin="miter" stroke="rgb(100%, 100%, 100%)" stroke-opacity="1" stroke-miterlimit="4" d="M 107.131079 234.558207 L 107.131079 207.627575 L 134.061711 207.627575 " transform="matrix(0.0990682, 0, 0, -0.0990682, 0, 65.006786)"/>
<path fill="none" stroke-width="3.99994" stroke-linecap="butt" stroke-linejoin="miter" stroke="rgb(100%, 100%, 100%)" stroke-opacity="1" stroke-miterlimit="4" d="M 144.707788 234.558207 L 144.707788 207.627575 L 171.638421 207.627575 " transform="matrix(0.0990682, 0, 0, -0.0990682, 0, 65.006786)"/>
<path fill="none" stroke-width="3.99994" stroke-linecap="butt" stroke-linejoin="miter" stroke="rgb(100%, 100%, 100%)" stroke-opacity="1" stroke-miterlimit="4" d="M 17.309733 240.709274 L 17.309733 213.778642 L 44.279795 213.778642 " transform="matrix(0.0990682, 0, 0, -0.0990682, 0, 65.006786)"/>
<path fill="none" stroke-width="3.99994" stroke-linecap="butt" stroke-linejoin="miter" stroke="rgb(100%, 100%, 100%)" stroke-opacity="1" stroke-miterlimit="4" d="M 54.886442 240.709274 L 54.886442 213.778642 L 81.817074 213.778642 " transform="matrix(0.0990682, 0, 0, -0.0990682, 0, 65.006786)"/>
<path fill="none" stroke-width="3.99994" stroke-linecap="butt" stroke-linejoin="miter" stroke="rgb(100%, 100%, 100%)" stroke-opacity="1" stroke-miterlimit="4" d="M 19.360088 190.081263 L 19.360088 163.150631 L 46.29072 163.150631 " transform="matrix(0.0990682, 0, 0, -0.0990682, 0, 65.006786)"/>
<path fill="none" stroke-width="3.99994" stroke-linecap="butt" stroke-linejoin="miter" stroke="rgb(100%, 100%, 100%)" stroke-opacity="1" stroke-miterlimit="4" d="M 56.936797 190.081263 L 56.936797 163.150631 L 83.867429 163.150631 " transform="matrix(0.0990682, 0, 0, -0.0990682, 0, 65.006786)"/>
<path fill="none" stroke-width="3.99994" stroke-linecap="butt" stroke-linejoin="miter" stroke="rgb(100%, 100%, 100%)" stroke-opacity="1" stroke-miterlimit="4" d="M 19.360088 144.500281 L 19.360088 117.569649 L 46.29072 117.569649 " transform="matrix(0.0990682, 0, 0, -0.0990682, 0, 65.006786)"/>
<path fill="none" stroke-width="3.99994" stroke-linecap="butt" stroke-linejoin="miter" stroke="rgb(100%, 100%, 100%)" stroke-opacity="1" stroke-miterlimit="4" d="M 56.936797 144.500281 L 56.936797 117.569649 L 83.867429 117.569649 " transform="matrix(0.0990682, 0, 0, -0.0990682, 0, 65.006786)"/>
<path fill-rule="nonzero" fill="rgb(1.176453%, 41.175842%, 59.605408%)" fill-opacity="1" stroke-width="3.99994" stroke-linecap="butt" stroke-linejoin="miter" stroke="rgb(100%, 100%, 100%)" stroke-opacity="1" stroke-miterlimit="4" d="M 183.743404 553.033632 L 183.743404 526.103 L 210.674036 526.103 " transform="matrix(0.0990682, 0, 0, -0.0990682, 0, 65.006786)"/>
<path fill-rule="nonzero" fill="rgb(1.176453%, 41.175842%, 59.605408%)" fill-opacity="1" stroke-width="3.99994" stroke-linecap="butt" stroke-linejoin="miter" stroke="rgb(100%, 100%, 100%)" stroke-opacity="1" stroke-miterlimit="4" d="M 221.280684 553.033632 L 221.280684 526.103 L 248.211316 526.103 " transform="matrix(0.0990682, 0, 0, -0.0990682, 0, 65.006786)"/>
<path fill-rule="nonzero" fill="rgb(1.176453%, 41.175842%, 59.605408%)" fill-opacity="1" stroke-width="3.99994" stroke-linecap="butt" stroke-linejoin="miter" stroke="rgb(100%, 100%, 100%)" stroke-opacity="1" stroke-miterlimit="4" d="M 108.195687 552.363323 L 108.195687 525.393261 L 135.126319 525.393261 " transform="matrix(0.0990682, 0, 0, -0.0990682, 0, 65.006786)"/>
<path fill-rule="nonzero" fill="rgb(1.176453%, 41.175842%, 59.605408%)" fill-opacity="1" stroke-width="3.99994" stroke-linecap="butt" stroke-linejoin="miter" stroke="rgb(100%, 100%, 100%)" stroke-opacity="1" stroke-miterlimit="4" d="M 145.772396 552.363323 L 145.772396 525.393261 L 172.703028 525.393261 " transform="matrix(0.0990682, 0, 0, -0.0990682, 0, 65.006786)"/>
<path fill-rule="nonzero" fill="rgb(1.176453%, 41.175842%, 59.605408%)" fill-opacity="1" stroke-width="3.99994" stroke-linecap="butt" stroke-linejoin="miter" stroke="rgb(100%, 100%, 100%)" stroke-opacity="1" stroke-miterlimit="4" d="M 183.427965 497.003722 L 183.427965 470.07309 L 210.358597 470.07309 " transform="matrix(0.0990682, 0, 0, -0.0990682, 0, 65.006786)"/>
<path fill-rule="nonzero" fill="rgb(1.176453%, 41.175842%, 59.605408%)" fill-opacity="1" stroke-width="3.99994" stroke-linecap="butt" stroke-linejoin="miter" stroke="rgb(100%, 100%, 100%)" stroke-opacity="1" stroke-miterlimit="4" d="M 221.004674 497.003722 L 221.004674 470.07309 L 247.895876 470.07309 " transform="matrix(0.0990682, 0, 0, -0.0990682, 0, 65.006786)"/>
<path fill-rule="nonzero" fill="rgb(1.176453%, 41.175842%, 59.605408%)" fill-opacity="1" stroke-width="3.99994" stroke-linecap="butt" stroke-linejoin="miter" stroke="rgb(100%, 100%, 100%)" stroke-opacity="1" stroke-miterlimit="4" d="M 107.880248 496.293984 L 107.880248 469.363352 L 134.81088 469.363352 " transform="matrix(0.0990682, 0, 0, -0.0990682, 0, 65.006786)"/>
<path fill-rule="nonzero" fill="rgb(1.176453%, 41.175842%, 59.605408%)" fill-opacity="1" stroke-width="3.99994" stroke-linecap="butt" stroke-linejoin="miter" stroke="rgb(100%, 100%, 100%)" stroke-opacity="1" stroke-miterlimit="4" d="M 145.456957 496.293984 L 145.456957 469.363352 L 172.387589 469.363352 " transform="matrix(0.0990682, 0, 0, -0.0990682, 0, 65.006786)"/>
<path fill-rule="nonzero" fill="rgb(1.176453%, 41.175842%, 59.605408%)" fill-opacity="1" stroke-width="3.99994" stroke-linecap="butt" stroke-linejoin="miter" stroke="rgb(100%, 100%, 100%)" stroke-opacity="1" stroke-miterlimit="4" d="M 183.427965 443.339608 L 183.427965 416.408976 L 210.358597 416.408976 " transform="matrix(0.0990682, 0, 0, -0.0990682, 0, 65.006786)"/>
<path fill-rule="nonzero" fill="rgb(1.176453%, 41.175842%, 59.605408%)" fill-opacity="1" stroke-width="3.99994" stroke-linecap="butt" stroke-linejoin="miter" stroke="rgb(100%, 100%, 100%)" stroke-opacity="1" stroke-miterlimit="4" d="M 221.004674 443.339608 L 221.004674 416.408976 L 247.895876 416.408976 " transform="matrix(0.0990682, 0, 0, -0.0990682, 0, 65.006786)"/>
<path fill-rule="nonzero" fill="rgb(1.176453%, 41.175842%, 59.605408%)" fill-opacity="1" stroke-width="3.99994" stroke-linecap="butt" stroke-linejoin="miter" stroke="rgb(100%, 100%, 100%)" stroke-opacity="1" stroke-miterlimit="4" d="M 107.880248 442.629869 L 107.880248 415.699237 L 134.81088 415.699237 " transform="matrix(0.0990682, 0, 0, -0.0990682, 0, 65.006786)"/>
<path fill-rule="nonzero" fill="rgb(1.176453%, 41.175842%, 59.605408%)" fill-opacity="1" stroke-width="3.99994" stroke-linecap="butt" stroke-linejoin="miter" stroke="rgb(100%, 100%, 100%)" stroke-opacity="1" stroke-miterlimit="4" d="M 145.456957 442.629869 L 145.456957 415.699237 L 172.387589 415.699237 " transform="matrix(0.0990682, 0, 0, -0.0990682, 0, 65.006786)"/>
<path fill-rule="nonzero" fill="rgb(1.176453%, 41.175842%, 59.605408%)" fill-opacity="1" stroke-width="3.99994" stroke-linecap="butt" stroke-linejoin="miter" stroke="rgb(100%, 100%, 100%)" stroke-opacity="1" stroke-miterlimit="4" d="M 183.427965 393.736774 L 183.427965 366.806142 L 210.358597 366.806142 " transform="matrix(0.0990682, 0, 0, -0.0990682, 0, 65.006786)"/>
<path fill-rule="nonzero" fill="rgb(1.176453%, 41.175842%, 59.605408%)" fill-opacity="1" stroke-width="3.99994" stroke-linecap="butt" stroke-linejoin="miter" stroke="rgb(100%, 100%, 100%)" stroke-opacity="1" stroke-miterlimit="4" d="M 221.004674 393.736774 L 221.004674 366.806142 L 247.895876 366.806142 " transform="matrix(0.0990682, 0, 0, -0.0990682, 0, 65.006786)"/>
<path fill-rule="nonzero" fill="rgb(1.176453%, 41.175842%, 59.605408%)" fill-opacity="1" stroke-width="3.99994" stroke-linecap="butt" stroke-linejoin="miter" stroke="rgb(100%, 100%, 100%)" stroke-opacity="1" stroke-miterlimit="4" d="M 107.880248 393.027036 L 107.880248 366.096404 L 134.81088 366.096404 " transform="matrix(0.0990682, 0, 0, -0.0990682, 0, 65.006786)"/>
<path fill-rule="nonzero" fill="rgb(1.176453%, 41.175842%, 59.605408%)" fill-opacity="1" stroke-width="3.99994" stroke-linecap="butt" stroke-linejoin="miter" stroke="rgb(100%, 100%, 100%)" stroke-opacity="1" stroke-miterlimit="4" d="M 145.456957 393.027036 L 145.456957 366.096404 L 172.387589 366.096404 " transform="matrix(0.0990682, 0, 0, -0.0990682, 0, 65.006786)"/>
<path fill="none" stroke-width="3.99994" stroke-linecap="butt" stroke-linejoin="miter" stroke="rgb(100%, 100%, 100%)" stroke-opacity="1" stroke-miterlimit="4" d="M 285.827455 324.300694 L 285.827455 297.370062 " transform="matrix(0.0990682, 0, 0, -0.0990682, 0, 65.006786)"/>
<path fill="none" stroke-width="3.99994" stroke-linecap="butt" stroke-linejoin="miter" stroke="rgb(100%, 100%, 100%)" stroke-opacity="1" stroke-miterlimit="4" d="M 285.827455 278.049404 L 285.827455 251.118772 " transform="matrix(0.0990682, 0, 0, -0.0990682, 0, 65.006786)"/>
<path fill-rule="nonzero" fill="rgb(1.176453%, 41.175842%, 59.605408%)" fill-opacity="1" d="M 26.539062 64.527344 L 36 64.527344 L 36 16.371094 L 26.539062 16.371094 Z M 26.539062 64.527344 "/>
<path fill="none" stroke-width="3.99994" stroke-linecap="butt" stroke-linejoin="miter" stroke="rgb(100%, 100%, 100%)" stroke-opacity="1" stroke-miterlimit="4" d="M 363.386098 490.931515 L 267.886843 490.931515 L 267.886843 4.839522 L 363.386098 4.839522 " transform="matrix(0.0990682, 0, 0, -0.0990682, 0, 65.006786)"/>
<path fill-rule="nonzero" fill="rgb(1.176453%, 41.175842%, 59.605408%)" fill-opacity="1" d="M 36 64.527344 L 42.941406 57.589844 L 42.941406 9.429688 L 33.476562 9.429688 L 26.539062 16.371094 L 36 16.371094 L 36 64.527344 "/>
<g clip-path="url(#clip-5)">
<path fill="none" stroke-width="3.99994" stroke-linecap="butt" stroke-linejoin="miter" stroke="rgb(100%, 100%, 100%)" stroke-opacity="1" stroke-miterlimit="4" d="M 363.386098 4.839522 L 433.453057 74.867051 L 433.453057 560.998474 L 337.914373 560.998474 L 267.886843 490.931515 L 363.386098 490.931515 Z M 363.386098 4.839522 " transform="matrix(0.0990682, 0, 0, -0.0990682, 0, 65.006786)"/>
</g>
<path fill-rule="nonzero" fill="rgb(1.176453%, 41.175842%, 59.605408%)" fill-opacity="1" stroke-width="3.99994" stroke-linecap="butt" stroke-linejoin="miter" stroke="rgb(100%, 100%, 100%)" stroke-opacity="1" stroke-miterlimit="4" d="M 285.630305 468.259314 L 285.630305 441.328682 L 312.600367 441.328682 " transform="matrix(0.0990682, 0, 0, -0.0990682, 0, 65.006786)"/>
<path fill-rule="nonzero" fill="rgb(1.176453%, 41.175842%, 59.605408%)" fill-opacity="1" stroke-width="3.99994" stroke-linecap="butt" stroke-linejoin="miter" stroke="rgb(100%, 100%, 100%)" stroke-opacity="1" stroke-miterlimit="4" d="M 323.207014 468.259314 L 323.207014 441.328682 L 350.137646 441.328682 " transform="matrix(0.0990682, 0, 0, -0.0990682, 0, 65.006786)"/>
<path fill-rule="nonzero" fill="rgb(1.176453%, 41.175842%, 59.605408%)" fill-opacity="1" stroke-width="3.99994" stroke-linecap="butt" stroke-linejoin="miter" stroke="rgb(100%, 100%, 100%)" stroke-opacity="1" stroke-miterlimit="4" d="M 285.196576 417.631303 L 285.196576 390.700671 L 312.127208 390.700671 " transform="matrix(0.0990682, 0, 0, -0.0990682, 0, 65.006786)"/>
<path fill-rule="nonzero" fill="rgb(1.176453%, 41.175842%, 59.605408%)" fill-opacity="1" stroke-width="3.99994" stroke-linecap="butt" stroke-linejoin="miter" stroke="rgb(100%, 100%, 100%)" stroke-opacity="1" stroke-miterlimit="4" d="M 322.733855 417.631303 L 322.733855 390.700671 L 349.664487 390.700671 " transform="matrix(0.0990682, 0, 0, -0.0990682, 0, 65.006786)"/>
<path fill-rule="nonzero" fill="rgb(1.176453%, 41.175842%, 59.605408%)" fill-opacity="1" stroke-width="3.99994" stroke-linecap="butt" stroke-linejoin="miter" stroke="rgb(100%, 100%, 100%)" stroke-opacity="1" stroke-miterlimit="4" d="M 285.196576 372.050321 L 285.196576 345.119689 L 312.127208 345.119689 " transform="matrix(0.0990682, 0, 0, -0.0990682, 0, 65.006786)"/>
<path fill-rule="nonzero" fill="rgb(1.176453%, 41.175842%, 59.605408%)" fill-opacity="1" stroke-width="3.99994" stroke-linecap="butt" stroke-linejoin="miter" stroke="rgb(100%, 100%, 100%)" stroke-opacity="1" stroke-miterlimit="4" d="M 322.733855 372.050321 L 322.733855 345.119689 L 349.664487 345.119689 " transform="matrix(0.0990682, 0, 0, -0.0990682, 0, 65.006786)"/>
<path fill="none" stroke-width="3.99994" stroke-linecap="butt" stroke-linejoin="miter" stroke="rgb(100%, 100%, 100%)" stroke-opacity="1" stroke-miterlimit="4" d="M 284.802277 297.370062 L 311.732909 297.370062 " transform="matrix(0.0990682, 0, 0, -0.0990682, 0, 65.006786)"/>
<path fill-rule="nonzero" fill="rgb(1.176453%, 41.175842%, 59.605408%)" fill-opacity="1" stroke-width="3.99994" stroke-linecap="butt" stroke-linejoin="miter" stroke="rgb(100%, 100%, 100%)" stroke-opacity="1" stroke-miterlimit="4" d="M 322.378986 324.300694 L 322.378986 297.370062 L 349.309618 297.370062 " transform="matrix(0.0990682, 0, 0, -0.0990682, 0, 65.006786)"/>
<path fill="none" stroke-width="3.99994" stroke-linecap="butt" stroke-linejoin="miter" stroke="rgb(100%, 100%, 100%)" stroke-opacity="1" stroke-miterlimit="4" d="M 284.802277 251.118772 L 311.732909 251.118772 " transform="matrix(0.0990682, 0, 0, -0.0990682, 0, 65.006786)"/>
<path fill-rule="nonzero" fill="rgb(1.176453%, 41.175842%, 59.605408%)" fill-opacity="1" stroke-width="3.99994" stroke-linecap="butt" stroke-linejoin="miter" stroke="rgb(100%, 100%, 100%)" stroke-opacity="1" stroke-miterlimit="4" d="M 322.378986 278.049404 L 322.378986 251.118772 L 349.309618 251.118772 " transform="matrix(0.0990682, 0, 0, -0.0990682, 0, 65.006786)"/>
<path fill-rule="nonzero" fill="rgb(100%, 100%, 100%)" fill-opacity="1" d="M 32.410156 51.839844 C 32.410156 54.015625 27.875 55.78125 22.277344 55.78125 C 16.683594 55.78125 12.144531 54.015625 12.144531 51.839844 L 12.144531 57.613281 C 12.144531 59.789062 16.683594 61.554688 22.277344 61.554688 C 27.875 61.554688 32.410156 59.789062 32.410156 57.613281 L 32.410156 51.839844 "/>
<path fill="none" stroke-width="3.99994" stroke-linecap="butt" stroke-linejoin="miter" stroke="rgb(1.176453%, 41.175842%, 59.605408%)" stroke-opacity="1" stroke-miterlimit="4" d="M 327.150006 132.907886 C 327.150006 110.945423 281.371874 93.123102 224.868806 93.123102 C 168.405167 93.123102 122.587606 110.945423 122.587606 132.907886 L 122.587606 74.630471 C 122.587606 52.668009 168.405167 34.845687 224.868806 34.845687 C 281.371874 34.845687 327.150006 52.668009 327.150006 74.630471 Z M 327.150006 132.907886 " transform="matrix(0.0990682, 0, 0, -0.0990682, 0, 65.006786)"/>
<path fill-rule="nonzero" fill="rgb(100%, 100%, 100%)" fill-opacity="1" d="M 22.277344 55.78125 C 27.875 55.78125 32.410156 54.015625 32.410156 51.839844 C 32.410156 49.664062 27.875 47.898438 22.277344 47.898438 C 16.683594 47.898438 12.144531 49.664062 12.144531 51.839844 C 12.144531 54.015625 16.683594 55.78125 22.277344 55.78125 "/>
<path fill="none" stroke-width="3.99994" stroke-linecap="butt" stroke-linejoin="miter" stroke="rgb(1.176453%, 41.175842%, 59.605408%)" stroke-opacity="1" stroke-miterlimit="4" d="M 224.868806 93.123102 C 281.371874 93.123102 327.150006 110.945423 327.150006 132.907886 C 327.150006 154.870349 281.371874 172.69267 224.868806 172.69267 C 168.405167 172.69267 122.587606 154.870349 122.587606 132.907886 C 122.587606 110.945423 168.405167 93.123102 224.868806 93.123102 Z M 224.868806 93.123102 " transform="matrix(0.0990682, 0, 0, -0.0990682, 0, 65.006786)"/>
<path fill-rule="nonzero" fill="rgb(1.176453%, 41.175842%, 59.605408%)" fill-opacity="1" d="M 19.207031 50.800781 L 20.390625 51.429688 L 17.796875 51.90625 L 18.402344 51.402344 L 13.894531 50.671875 L 14.273438 50.371094 L 18.753906 51.101562 L 19.207031 50.800781 "/>
<path fill-rule="nonzero" fill="rgb(1.176453%, 41.175842%, 59.605408%)" fill-opacity="1" d="M 25.378906 52.78125 L 24.203125 52.144531 L 26.796875 51.6875 L 26.191406 52.183594 L 30.691406 52.949219 L 30.308594 53.25 L 25.835938 52.484375 L 25.378906 52.78125 "/>
<path fill-rule="nonzero" fill="rgb(1.176453%, 41.175842%, 59.605408%)" fill-opacity="1" d="M 24.042969 49.492188 L 26.308594 48.558594 L 26.003906 49.71875 L 25.324219 49.667969 L 23.613281 51.101562 L 23.035156 50.976562 L 24.746094 49.589844 L 24.042969 49.492188 "/>
<path fill-rule="nonzero" fill="rgb(1.176453%, 41.175842%, 59.605408%)" fill-opacity="1" d="M 20.875 54.050781 L 18.625 55.015625 L 18.910156 53.851562 L 19.589844 53.894531 L 21.230469 52.511719 L 21.8125 52.628906 L 20.167969 53.960938 L 20.875 54.050781 "/>
<g clip-path="url(#clip-6)">
<path fill-rule="nonzero" fill="rgb(1.176453%, 41.175842%, 59.605408%)" fill-opacity="1" d="M 36.101562 16.371094 L 43.039062 9.429688 "/>
</g>
<g clip-path="url(#clip-7)">
<path fill="none" stroke-width="3.99994" stroke-linecap="butt" stroke-linejoin="miter" stroke="rgb(100%, 100%, 100%)" stroke-opacity="1" stroke-miterlimit="4" d="M 364.411276 490.931515 L 434.438805 560.998474 " transform="matrix(0.0990682, 0, 0, -0.0990682, 0, 65.006786)"/>
</g>
</svg>
