<?xml version="1.0" encoding="UTF-8"?>
<svg xmlns="http://www.w3.org/2000/svg" xmlns:xlink="http://www.w3.org/1999/xlink" width="31.35" height="41.98" viewBox="0 0 31.35 41.98">
<defs>
<clipPath id="clip-0">
<path clip-rule="nonzero" d="M 0 14 L 27 14 L 27 41.542969 L 0 41.542969 Z M 0 14 "/>
</clipPath>
<clipPath id="clip-1">
<path clip-rule="nonzero" d="M 0 14 L 28 14 L 28 41.542969 L 0 41.542969 Z M 0 14 "/>
</clipPath>
<clipPath id="clip-2">
<path clip-rule="nonzero" d="M 26 11 L 30.371094 11 L 30.371094 41.542969 L 26 41.542969 Z M 26 11 "/>
</clipPath>
<clipPath id="clip-3">
<path clip-rule="nonzero" d="M 24 9 L 30.371094 9 L 30.371094 41.542969 L 24 41.542969 Z M 24 9 "/>
</clipPath>
<clipPath id="clip-4">
<path clip-rule="nonzero" d="M 0 0.417969 L 30.371094 0.417969 L 30.371094 5 L 0 5 Z M 0 0.417969 "/>
</clipPath>
<clipPath id="clip-5">
<path clip-rule="nonzero" d="M 0 0.417969 L 30.371094 0.417969 L 30.371094 7 L 0 7 Z M 0 0.417969 "/>
</clipPath>
<clipPath id="clip-6">
<path clip-rule="nonzero" d="M 26 0.417969 L 30.371094 0.417969 L 30.371094 15 L 26 15 Z M 26 0.417969 "/>
</clipPath>
<clipPath id="clip-7">
<path clip-rule="nonzero" d="M 24 0.417969 L 30.371094 0.417969 L 30.371094 18 L 24 18 Z M 24 0.417969 "/>
</clipPath>
<clipPath id="clip-8">
<path clip-rule="nonzero" d="M 26 11 L 30.371094 11 L 30.371094 15 L 26 15 Z M 26 11 "/>
</clipPath>
<clipPath id="clip-9">
<path clip-rule="nonzero" d="M 24 9 L 30.371094 9 L 30.371094 18 L 24 18 Z M 24 9 "/>
</clipPath>
</defs>
<g clip-path="url(#clip-0)">
<path fill-rule="nonzero" fill="rgb(0.784302%, 42.352295%, 60.78186%)" fill-opacity="1" d="M 0.632812 41.074219 L 26.914062 41.074219 L 26.914062 14.816406 L 0.632812 14.816406 Z M 0.632812 41.074219 "/>
</g>
<g clip-path="url(#clip-1)">
<path fill="none" stroke-width="4" stroke-linecap="butt" stroke-linejoin="miter" stroke="rgb(100%, 100%, 100%)" stroke-opacity="1" stroke-miterlimit="4" d="M 6.45933 4.79362 L 6.45933 272.815949 L 274.720893 272.815949 L 274.720893 4.79362 Z M 6.45933 4.79362 " transform="matrix(0.0979688, 0, 0, -0.0979688, 0, 41.543844)"/>
</g>
<g clip-path="url(#clip-2)">
<path fill-rule="nonzero" fill="rgb(0.784302%, 42.352295%, 60.78186%)" fill-opacity="1" d="M 30.234375 37.789062 L 30.234375 11.53125 L 26.914062 14.816406 L 26.914062 41.074219 L 30.234375 37.789062 "/>
</g>
<g clip-path="url(#clip-3)">
<path fill="none" stroke-width="4" stroke-linecap="butt" stroke-linejoin="miter" stroke="rgb(100%, 100%, 100%)" stroke-opacity="1" stroke-miterlimit="4" d="M 308.61244 38.326316 L 308.61244 306.348644 L 274.720893 272.815949 L 274.720893 4.79362 Z M 308.61244 38.326316 " transform="matrix(0.0979688, 0, 0, -0.0979688, 0, 41.543844)"/>
</g>
<g clip-path="url(#clip-4)">
<path fill-rule="nonzero" fill="rgb(0.784302%, 42.352295%, 60.78186%)" fill-opacity="1" d="M 5.4375 0.886719 L 0.632812 4.171875 L 26.914062 4.171875 L 30.234375 0.886719 L 5.4375 0.886719 "/>
</g>
<g clip-path="url(#clip-5)">
<path fill="none" stroke-width="4" stroke-linecap="butt" stroke-linejoin="miter" stroke="rgb(100%, 100%, 100%)" stroke-opacity="1" stroke-miterlimit="4" d="M 55.502392 415.000957 L 6.45933 381.468262 L 274.720893 381.468262 L 308.61244 415.000957 Z M 55.502392 415.000957 " transform="matrix(0.0979688, 0, 0, -0.0979688, 0, 41.543844)"/>
</g>
<path fill-rule="nonzero" fill="rgb(0.784302%, 42.352295%, 60.78186%)" fill-opacity="1" d="M 0.632812 14.816406 L 26.914062 14.816406 L 26.914062 4.171875 L 0.632812 4.171875 Z M 0.632812 14.816406 "/>
<path fill="none" stroke-width="4" stroke-linecap="butt" stroke-linejoin="miter" stroke="rgb(100%, 100%, 100%)" stroke-opacity="1" stroke-miterlimit="4" d="M 6.45933 272.815949 L 6.45933 381.468262 L 274.720893 381.468262 L 274.720893 272.815949 Z M 6.45933 272.815949 " transform="matrix(0.0979688, 0, 0, -0.0979688, 0, 41.543844)"/>
<g clip-path="url(#clip-6)">
<path fill-rule="nonzero" fill="rgb(0.784302%, 42.352295%, 60.78186%)" fill-opacity="1" d="M 30.234375 11.53125 L 30.234375 0.886719 L 26.914062 4.171875 L 26.914062 14.816406 L 30.234375 11.53125 "/>
</g>
<g clip-path="url(#clip-7)">
<path fill="none" stroke-width="4" stroke-linecap="butt" stroke-linejoin="miter" stroke="rgb(100%, 100%, 100%)" stroke-opacity="1" stroke-miterlimit="4" d="M 308.61244 306.348644 L 308.61244 415.000957 L 274.720893 381.468262 L 274.720893 272.815949 Z M 308.61244 306.348644 " transform="matrix(0.0979688, 0, 0, -0.0979688, 0, 41.543844)"/>
</g>
<path fill="none" stroke-width="4" stroke-linecap="butt" stroke-linejoin="miter" stroke="rgb(100%, 100%, 100%)" stroke-opacity="1" stroke-miterlimit="4" d="M 274.720893 272.815949 L 6.45933 272.815949 " transform="matrix(0.0979688, 0, 0, -0.0979688, 0, 41.543844)"/>
<g clip-path="url(#clip-8)">
<path fill-rule="nonzero" fill="rgb(0.784302%, 42.352295%, 60.78186%)" fill-opacity="1" d="M 26.914062 14.816406 L 30.234375 11.53125 "/>
</g>
<g clip-path="url(#clip-9)">
<path fill="none" stroke-width="4" stroke-linecap="butt" stroke-linejoin="miter" stroke="rgb(100%, 100%, 100%)" stroke-opacity="1" stroke-miterlimit="4" d="M 274.720893 272.815949 L 308.61244 306.348644 " transform="matrix(0.0979688, 0, 0, -0.0979688, 0, 41.543844)"/>
</g>
<path fill-rule="nonzero" fill="rgb(100%, 100%, 100%)" fill-opacity="1" d="M 4.921875 7.808594 L 9.160156 7.808594 L 9.160156 5.601562 L 4.921875 5.601562 Z M 4.921875 7.808594 "/>
<path fill-rule="nonzero" fill="rgb(100%, 100%, 100%)" fill-opacity="1" d="M 18.847656 7.808594 L 23.085938 7.808594 L 23.085938 5.601562 L 18.847656 5.601562 Z M 18.847656 7.808594 "/>
<path fill-rule="nonzero" fill="rgb(100%, 100%, 100%)" fill-opacity="1" d="M 4.921875 13.324219 L 9.160156 13.324219 L 9.160156 11.117188 L 4.921875 11.117188 Z M 4.921875 13.324219 "/>
<path fill-rule="nonzero" fill="rgb(100%, 100%, 100%)" fill-opacity="1" d="M 18.847656 13.324219 L 23.085938 13.324219 L 23.085938 11.117188 L 18.847656 11.117188 Z M 18.847656 13.324219 "/>
<path fill="none" stroke-width="4" stroke-linecap="butt" stroke-linejoin="miter" stroke="rgb(100%, 100%, 100%)" stroke-opacity="1" stroke-miterlimit="4" d="M 79.585327 355.591069 L 212.480064 355.591069 " transform="matrix(0.0979688, 0, 0, -0.0979688, 0, 41.543844)"/>
<path fill="none" stroke-width="4" stroke-linecap="butt" stroke-linejoin="miter" stroke="rgb(100%, 100%, 100%)" stroke-opacity="1" stroke-miterlimit="4" d="M 79.585327 299.291228 L 212.480064 299.291228 " transform="matrix(0.0979688, 0, 0, -0.0979688, 0, 41.543844)"/>
<path fill-rule="nonzero" fill="rgb(0%, 0%, 0%)" fill-opacity="1" stroke-width="4" stroke-linecap="butt" stroke-linejoin="miter" stroke="rgb(100%, 100%, 100%)" stroke-opacity="1" stroke-miterlimit="4" d="M 71.889952 299.291228 L 212.480064 355.591069 " transform="matrix(0.0979688, 0, 0, -0.0979688, 0, 41.543844)"/>
<path fill-rule="nonzero" fill="rgb(0%, 0%, 0%)" fill-opacity="1" stroke-width="4" stroke-linecap="butt" stroke-linejoin="miter" stroke="rgb(100%, 100%, 100%)" stroke-opacity="1" stroke-miterlimit="4" d="M 71.889952 355.591069 L 212.480064 299.291228 " transform="matrix(0.0979688, 0, 0, -0.0979688, 0, 41.543844)"/>
<path fill-rule="nonzero" fill="rgb(100%, 100%, 100%)" fill-opacity="1" d="M 14.34375 24.128906 L 14.34375 18.445312 L 15.308594 18.445312 L 13.886719 16.300781 L 12.460938 18.445312 L 13.425781 18.445312 L 13.425781 24.128906 L 14.34375 24.128906 "/>
<path fill-rule="nonzero" fill="rgb(100%, 100%, 100%)" fill-opacity="1" d="M 11.445312 24.949219 L 7.429688 20.929688 L 8.109375 20.25 L 5.585938 19.738281 L 6.097656 22.261719 L 6.78125 21.578125 L 10.796875 25.597656 L 11.445312 24.949219 "/>
<path fill-rule="nonzero" fill="rgb(100%, 100%, 100%)" fill-opacity="1" d="M 9.976562 27.578125 L 4.292969 27.578125 L 4.292969 26.613281 L 2.152344 28.035156 L 4.292969 29.460938 L 4.292969 28.496094 L 9.976562 28.496094 L 9.976562 27.578125 "/>
<path fill-rule="nonzero" fill="rgb(100%, 100%, 100%)" fill-opacity="1" d="M 10.796875 30.476562 L 6.78125 34.492188 L 6.097656 33.8125 L 5.585938 36.335938 L 8.109375 35.824219 L 7.429688 35.140625 L 11.445312 31.125 L 10.796875 30.476562 "/>
<path fill-rule="nonzero" fill="rgb(100%, 100%, 100%)" fill-opacity="1" d="M 13.425781 31.945312 L 13.425781 37.628906 L 12.460938 37.628906 L 13.886719 39.773438 L 15.308594 37.628906 L 14.34375 37.628906 L 14.34375 31.945312 L 13.425781 31.945312 "/>
<path fill-rule="nonzero" fill="rgb(100%, 100%, 100%)" fill-opacity="1" d="M 16.324219 31.125 L 20.34375 35.140625 L 19.660156 35.824219 L 22.183594 36.335938 L 21.671875 33.8125 L 20.992188 34.492188 L 16.972656 30.476562 L 16.324219 31.125 "/>
<path fill-rule="nonzero" fill="rgb(100%, 100%, 100%)" fill-opacity="1" d="M 17.792969 28.496094 L 23.476562 28.496094 L 23.476562 29.460938 L 25.621094 28.035156 L 23.476562 26.613281 L 23.476562 27.578125 L 17.792969 27.578125 L 17.792969 28.496094 "/>
<path fill-rule="nonzero" fill="rgb(100%, 100%, 100%)" fill-opacity="1" d="M 16.972656 25.597656 L 20.992188 21.578125 L 21.671875 22.261719 L 22.183594 19.738281 L 19.660156 20.25 L 20.34375 20.929688 L 16.324219 24.949219 L 16.972656 25.597656 "/>
<path fill-rule="nonzero" fill="rgb(100%, 100%, 100%)" fill-opacity="1" d="M 17.359375 32.796875 C 20.023438 30.933594 20.667969 27.265625 18.804688 24.605469 C 16.941406 21.945312 13.273438 21.296875 10.613281 23.160156 C 7.949219 25.023438 7.304688 28.691406 9.167969 31.355469 C 11.03125 34.015625 14.699219 34.660156 17.359375 32.796875 "/>
</svg>
