<?xml version="1.0" encoding="UTF-8"?>
<svg xmlns="http://www.w3.org/2000/svg" xmlns:xlink="http://www.w3.org/1999/xlink" width="39.14" height="43.89" viewBox="0 0 39.14 43.89">
<defs>
<clipPath id="clip-0">
<path clip-rule="nonzero" d="M 27 22 L 38.160156 22 L 38.160156 33 L 27 33 Z M 27 22 "/>
</clipPath>
<clipPath id="clip-1">
<path clip-rule="nonzero" d="M 27 40 L 35 40 L 35 43.363281 L 27 43.363281 Z M 27 40 "/>
</clipPath>
<clipPath id="clip-2">
<path clip-rule="nonzero" d="M 23 0.417969 L 30 0.417969 L 30 5 L 23 5 Z M 23 0.417969 "/>
</clipPath>
</defs>
<path fill-rule="nonzero" fill="rgb(1.176453%, 41.175842%, 59.605408%)" fill-opacity="1" d="M 28.988281 3.011719 L 26.722656 2.214844 L 23.351562 4.496094 L 25.507812 6.625 L 25.691406 6.3125 L 26.113281 6.707031 L 26.613281 6.730469 L 26.824219 6.230469 L 27.003906 6.226562 L 27.0625 5.890625 L 27.296875 5.941406 L 27.484375 5.519531 L 28.089844 5.730469 L 28.246094 5.625 L 28.324219 4.335938 L 28.800781 4.070312 L 29.007812 3.175781 "/>
<path fill-rule="nonzero" fill="rgb(1.176453%, 41.175842%, 59.605408%)" fill-opacity="1" d="M 29.214844 21.136719 L 30.382812 19.894531 L 30.726562 20.308594 L 32.449219 20.789062 L 32.859375 22.238281 L 32.308594 22.167969 L 31.898438 23.0625 L 31.621094 22.71875 L 30.933594 23.335938 L 30.867188 22.648438 L 30.175781 22.582031 L 29.765625 21.546875 L 29.214844 21.136719 "/>
<path fill-rule="nonzero" fill="rgb(1.176453%, 41.175842%, 59.605408%)" fill-opacity="1" d="M 8.140625 14.84375 L 7.019531 15.433594 L 6.742188 15.96875 L 5.351562 16.960938 L 5.480469 17.371094 L 6.6875 16.613281 L 5.5625 17.8125 L 5.8125 18.125 L 6.949219 17.242188 L 6.015625 18.710938 L 6.363281 18.960938 L 7.378906 17.695312 L 7.039062 19.035156 L 7.449219 19.144531 L 8.164062 17.414062 L 8.480469 17.402344 L 8.953125 18.21875 L 9.375 18.191406 L 9.121094 16.789062 L 9.261719 15.554688 L 8.140625 14.84375 "/>
<path fill-rule="nonzero" fill="rgb(1.176453%, 41.175842%, 59.605408%)" fill-opacity="1" d="M 30.175781 22.855469 L 30.589844 23.0625 L 30.453125 23.542969 L 30.316406 24.300781 L 29.695312 24.027344 L 29.832031 23.335938 L 30.175781 22.855469 "/>
<path fill-rule="nonzero" fill="rgb(1.176453%, 41.175842%, 59.605408%)" fill-opacity="1" d="M 32.929688 21.546875 L 33.6875 21.894531 L 33.824219 22.582031 L 33.207031 22.855469 L 33.207031 22.238281 L 32.929688 21.546875 "/>
<g clip-path="url(#clip-0)">
<path fill-rule="nonzero" fill="rgb(1.176453%, 41.175842%, 59.605408%)" fill-opacity="1" d="M 35.820312 22.167969 L 27.078125 25.265625 L 28.933594 31.367188 L 30.175781 32.421875 L 38.296875 29.324219 L 37.402344 23.0625 L 35.820312 22.167969 "/>
</g>
<g clip-path="url(#clip-1)">
<path fill-rule="nonzero" fill="rgb(1.176453%, 41.175842%, 59.605408%)" fill-opacity="1" d="M 29.832031 40.265625 L 28.800781 41.230469 L 27.425781 41.09375 L 27.148438 42.195312 L 27.425781 43.363281 L 29.421875 43.363281 L 29.832031 42.949219 L 30.933594 43.363281 L 33.34375 43.363281 L 34.238281 43.019531 L 33.960938 42.261719 L 31.621094 41.78125 L 30.175781 40.816406 L 29.832031 40.265625 "/>
</g>
<path fill-rule="nonzero" fill="rgb(1.176453%, 41.175842%, 59.605408%)" fill-opacity="1" d="M 3.804688 35.3125 L 3.101562 34.089844 L 3.542969 32.78125 L 2.535156 32.265625 L 1.332031 32.269531 L 0.882812 34.214844 L 1.191406 34.710938 L 0.542969 35.691406 L 0 38.035156 L 0.132812 38.984375 L 0.933594 38.886719 L 1.929688 36.714844 L 3.191406 35.523438 L 3.804688 35.3125 "/>
<path fill-rule="nonzero" fill="rgb(1.176453%, 41.175842%, 59.605408%)" fill-opacity="1" d="M 13.457031 21.546875 L 12.148438 20.378906 L 14.625 16.386719 L 15.65625 10.195312 L 13.179688 11.570312 L 10.910156 15.628906 L 8.222656 14.046875 L 11.046875 8.746094 L 17.308594 4.894531 L 22.46875 5.03125 L 25.292969 7.164062 L 27.835938 10.605469 L 26.941406 11.570312 L 26.597656 16.316406 L 30.175781 19.550781 L 27.769531 21.480469 L 23.570312 17.832031 L 23.707031 22.375 "/>
<path fill-rule="nonzero" fill="rgb(1.176453%, 41.175842%, 59.605408%)" fill-opacity="1" d="M 23.707031 22.375 L 27.632812 28.980469 L 31.003906 38.753906 L 26.941406 40.128906 L 23.707031 31.183594 L 18.753906 24.230469 L 16.207031 31.871094 L 5.953125 35.792969 L 4.371094 32.421875 L 12.011719 29.460938 L 12.148438 28.570312 L 12.972656 28.636719 L 13.800781 23.132812 L 13.457031 21.546875 L 23.707031 22.375 "/>
<path fill-rule="nonzero" fill="rgb(1.176453%, 41.175842%, 59.605408%)" fill-opacity="1" d="M 13.128906 21.222656 L 20.019531 23.417969 L 23.28125 21.867188 "/>
<g clip-path="url(#clip-2)">
<path fill-rule="nonzero" fill="rgb(1.176453%, 41.175842%, 59.605408%)" fill-opacity="1" d="M 29.007812 3.175781 L 29.773438 3.203125 L 29.246094 1.96875 L 27.0625 0.46875 L 25.71875 0.414062 L 24.535156 1.097656 L 23.351562 4.496094 L 24.460938 3.683594 L 25.746094 3.132812 L 25.867188 3.4375 L 26.539062 3.804688 L 27.152344 2.703125 L 28.988281 3.011719 "/>
</g>
</svg>
