<?xml version="1.0" encoding="UTF-8"?>
<svg xmlns="http://www.w3.org/2000/svg" xmlns:xlink="http://www.w3.org/1999/xlink" width="63.77" height="21.71" viewBox="0 0 63.77 21.71">
<defs>
<clipPath id="clip-0">
<path clip-rule="nonzero" d="M 37 2 L 63.234375 2 L 63.234375 9 L 37 9 Z M 37 2 "/>
</clipPath>
<clipPath id="clip-1">
<path clip-rule="nonzero" d="M 35 0 L 63.234375 0 L 63.234375 11 L 35 11 Z M 35 0 "/>
</clipPath>
<clipPath id="clip-2">
<path clip-rule="nonzero" d="M 29 18 L 36 18 L 36 21.421875 L 29 21.421875 Z M 29 18 "/>
</clipPath>
<clipPath id="clip-3">
<path clip-rule="nonzero" d="M 26 16 L 38 16 L 38 21.421875 L 26 21.421875 Z M 26 16 "/>
</clipPath>
<clipPath id="clip-4">
<path clip-rule="nonzero" d="M 37 0 L 63.234375 0 L 63.234375 7 L 37 7 Z M 37 0 "/>
</clipPath>
<clipPath id="clip-5">
<path clip-rule="nonzero" d="M 35 0 L 63.234375 0 L 63.234375 9 L 35 9 Z M 35 0 "/>
</clipPath>
<clipPath id="clip-6">
<path clip-rule="nonzero" d="M 37 0 L 63.234375 0 L 63.234375 9 L 37 9 Z M 37 0 "/>
</clipPath>
<clipPath id="clip-7">
<path clip-rule="nonzero" d="M 35 0 L 63.234375 0 L 63.234375 11 L 35 11 Z M 35 0 "/>
</clipPath>
<clipPath id="clip-8">
<path clip-rule="nonzero" d="M 23 0 L 41 0 L 41 21.421875 L 23 21.421875 Z M 23 0 "/>
</clipPath>
<clipPath id="clip-9">
<path clip-rule="nonzero" d="M 0.308594 13 L 27 13 L 27 20 L 0.308594 20 Z M 0.308594 13 "/>
</clipPath>
<clipPath id="clip-10">
<path clip-rule="nonzero" d="M 0.308594 11 L 29 11 L 29 21.421875 L 0.308594 21.421875 Z M 0.308594 11 "/>
</clipPath>
<clipPath id="clip-11">
<path clip-rule="nonzero" d="M 0.308594 11 L 27 11 L 27 19 L 0.308594 19 Z M 0.308594 11 "/>
</clipPath>
<clipPath id="clip-12">
<path clip-rule="nonzero" d="M 0.308594 8 L 29 8 L 29 21 L 0.308594 21 Z M 0.308594 8 "/>
</clipPath>
</defs>
<g clip-path="url(#clip-0)">
<path fill-rule="nonzero" fill="rgb(1.176453%, 41.175842%, 59.605408%)" fill-opacity="1" d="M 63.035156 2.015625 L 63.035156 3.328125 L 49.789062 8.179688 L 43.753906 7.140625 L 40.132812 6.4375 L 37.648438 5.921875 L 37.585938 4.257812 "/>
</g>
<g clip-path="url(#clip-1)">
<path fill="none" stroke-width="3.99994" stroke-linecap="butt" stroke-linejoin="miter" stroke="rgb(100%, 100%, 100%)" stroke-opacity="1" stroke-miterlimit="4" d="M 635.662569 196.674505 L 635.662569 183.374182 L 501.432232 134.210491 L 440.274499 144.739912 L 403.57986 151.865085 L 378.404249 157.090212 L 377.770901 173.953121 " transform="matrix(0.0986818, 0, 0, -0.0986818, 0.306818, 21.423823)"/>
</g>
<g clip-path="url(#clip-2)">
<path fill-rule="nonzero" fill="rgb(1.176453%, 41.175842%, 59.605408%)" fill-opacity="1" d="M 32.101562 21.230469 C 33.78125 21.230469 35.148438 20.632812 35.148438 19.898438 C 35.148438 19.160156 33.78125 18.5625 32.101562 18.5625 C 30.417969 18.5625 29.054688 19.160156 29.054688 19.898438 C 29.054688 20.632812 30.417969 21.230469 32.101562 21.230469 "/>
</g>
<g clip-path="url(#clip-3)">
<path fill="none" stroke-width="3.99994" stroke-linecap="butt" stroke-linejoin="miter" stroke="rgb(100%, 100%, 100%)" stroke-opacity="1" stroke-miterlimit="4" d="M 322.194553 1.959368 C 339.215799 1.959368 353.070302 8.015765 353.070302 15.457612 C 353.070302 22.939043 339.215799 28.99544 322.194553 28.99544 C 305.133723 28.99544 291.318805 22.939043 291.318805 15.457612 C 291.318805 8.015765 305.133723 1.959368 322.194553 1.959368 Z M 322.194553 1.959368 " transform="matrix(0.0986818, 0, 0, -0.0986818, 0.306818, 21.423823)"/>
</g>
<g clip-path="url(#clip-4)">
<path fill-rule="nonzero" fill="rgb(1.176453%, 41.175842%, 59.605408%)" fill-opacity="1" d="M 44.121094 5.554688 L 49.824219 6.464844 L 63.035156 2.015625 L 51.492188 0.207031 L 37.585938 4.257812 L 41.585938 4.9375 "/>
</g>
<g clip-path="url(#clip-5)">
<path fill="none" stroke-width="3.99994" stroke-linecap="butt" stroke-linejoin="miter" stroke="rgb(100%, 100%, 100%)" stroke-opacity="1" stroke-miterlimit="4" d="M 443.995423 160.811135 L 501.78849 151.587995 L 635.662569 196.674505 L 518.690983 215.002032 L 377.770901 173.953121 L 418.305216 167.065454 " transform="matrix(0.0986818, 0, 0, -0.0986818, 0.306818, 21.423823)"/>
</g>
<path fill-rule="nonzero" fill="rgb(1.176453%, 41.175842%, 59.605408%)" fill-opacity="1" d="M 43.160156 5.792969 C 47.265625 4.75 48.160156 3.734375 48.160156 3.734375 C 46.777344 3.066406 41.816406 4.863281 41.816406 4.863281 L 40.9375 5.164062 L 43.160156 5.792969 "/>
<path fill="none" stroke-width="3.99994" stroke-linecap="butt" stroke-linejoin="miter" stroke="rgb(100%, 100%, 100%)" stroke-opacity="1" stroke-miterlimit="4" d="M 434.257687 158.396494 C 475.860778 168.9655 484.925582 179.257416 484.925582 179.257416 C 470.912742 186.02633 420.64069 167.817555 420.64069 167.817555 L 411.734224 164.769565 Z M 434.257687 158.396494 " transform="matrix(0.0986818, 0, 0, -0.0986818, 0.306818, 21.423823)"/>
<g clip-path="url(#clip-6)">
<path fill-rule="nonzero" fill="rgb(1.176453%, 41.175842%, 59.605408%)" fill-opacity="1" d="M 41.585938 4.9375 L 37.585938 4.238281 L 51.492188 0.207031 L 63.035156 2.015625 L 49.824219 6.464844 L 44.058594 5.578125 C 47.363281 4.78125 48.125 3.734375 48.125 3.734375 C 46.738281 3.066406 42.402344 4.667969 42.402344 4.667969 L 42.386719 4.695312 L 38.371094 5.917969 L 38.375 8.128906 L 43.609375 6.347656 L 43.664062 6.324219 C 43.664062 6.324219 43.910156 5.769531 43.910156 5.582031 "/>
</g>
<g clip-path="url(#clip-7)">
<path fill="none" stroke-width="3.99994" stroke-linecap="butt" stroke-linejoin="miter" stroke="rgb(100%, 100%, 100%)" stroke-opacity="1" stroke-miterlimit="4" d="M 418.305216 167.065454 L 377.770901 174.151042 L 518.690983 215.002032 L 635.662569 196.674505 L 501.78849 151.587995 L 443.362074 160.57363 C 476.850386 168.648825 484.569323 179.257416 484.569323 179.257416 C 470.516899 186.02633 426.578334 169.79677 426.578334 169.79677 L 426.419997 169.51968 L 385.727343 157.129796 L 385.766928 134.725086 L 438.80988 152.775524 L 439.36406 153.01303 C 439.36406 153.01303 441.857871 158.633999 441.857871 160.534045 " transform="matrix(0.0986818, 0, 0, -0.0986818, 0.306818, 21.423823)"/>
</g>
<path fill-rule="nonzero" fill="rgb(1.176453%, 41.175842%, 59.605408%)" fill-opacity="1" d="M 43.621094 5.5625 C 43.664062 5.570312 43.707031 5.523438 43.71875 5.457031 C 43.730469 5.390625 43.703125 5.332031 43.664062 5.324219 C 43.621094 5.320312 43.578125 5.367188 43.566406 5.429688 C 43.554688 5.496094 43.578125 5.554688 43.621094 5.5625 "/>
<path fill="none" stroke-width="3.99994" stroke-linecap="butt" stroke-linejoin="miter" stroke="rgb(100%, 100%, 100%)" stroke-opacity="1" stroke-miterlimit="4" d="M 438.928633 160.731967 C 439.36406 160.652798 439.799488 161.12781 439.91824 161.800743 C 440.036993 162.473676 439.759903 163.06744 439.36406 163.146609 C 438.928633 163.186193 438.493206 162.711181 438.374453 162.077833 C 438.2557 161.4049 438.493206 160.811135 438.928633 160.731967 Z M 438.928633 160.731967 " transform="matrix(0.0986818, 0, 0, -0.0986818, 0.306818, 21.423823)"/>
<path fill-rule="nonzero" fill="rgb(1.176453%, 41.175842%, 59.605408%)" fill-opacity="1" d="M 25.789062 0.511719 L 25.789062 16.921875 C 25.789062 18.445312 28.605469 19.675781 32.082031 19.675781 C 35.558594 19.675781 38.375 18.445312 38.375 16.921875 L 38.375 0.375 "/>
<g clip-path="url(#clip-8)">
<path fill="none" stroke-width="3.99994" stroke-linecap="butt" stroke-linejoin="miter" stroke="rgb(100%, 100%, 100%)" stroke-opacity="1" stroke-miterlimit="4" d="M 258.226336 211.914458 L 258.226336 45.620843 C 258.226336 30.182969 286.766611 17.713916 321.996632 17.713916 C 357.226652 17.713916 385.766928 30.182969 385.766928 45.620843 L 385.766928 213.299908 " transform="matrix(0.0986818, 0, 0, -0.0986818, 0.306818, 21.423823)"/>
</g>
<g clip-path="url(#clip-9)">
<path fill-rule="nonzero" fill="rgb(1.176453%, 41.175842%, 59.605408%)" fill-opacity="1" d="M 26.507812 13.488281 L 26.507812 14.984375 L 12.671875 19.882812 L 0.5 17.066406 L 0.476562 15.296875 "/>
</g>
<g clip-path="url(#clip-10)">
<path fill="none" stroke-width="3.99994" stroke-linecap="butt" stroke-linejoin="miter" stroke="rgb(100%, 100%, 100%)" stroke-opacity="1" stroke-miterlimit="4" d="M 265.509846 80.415436 L 265.509846 65.254652 L 125.30228 15.615949 L 1.957623 44.156224 L 1.720117 62.087909 " transform="matrix(0.0986818, 0, 0, -0.0986818, 0.306818, 21.423823)"/>
</g>
<g clip-path="url(#clip-11)">
<path fill-rule="nonzero" fill="rgb(1.176453%, 41.175842%, 59.605408%)" fill-opacity="1" d="M 22.058594 12.859375 L 26.507812 13.488281 L 12.671875 18.078125 L 0.5 15.261719 L 15 11.195312 L 18.332031 11.761719 "/>
</g>
<g clip-path="url(#clip-12)">
<path fill="none" stroke-width="3.99994" stroke-linecap="butt" stroke-linejoin="miter" stroke="rgb(100%, 100%, 100%)" stroke-opacity="1" stroke-miterlimit="4" d="M 220.423336 86.788508 L 265.509846 80.415436 L 125.30228 33.903892 L 1.957623 62.444167 L 148.894519 103.651416 L 182.659921 97.911694 " transform="matrix(0.0986818, 0, 0, -0.0986818, 0.306818, 21.423823)"/>
</g>
<path fill-rule="nonzero" fill="rgb(1.176453%, 41.175842%, 59.605408%)" fill-opacity="1" stroke-width="3.99994" stroke-linecap="butt" stroke-linejoin="miter" stroke="rgb(100%, 100%, 100%)" stroke-opacity="1" stroke-miterlimit="4" d="M 181.947403 98.228368 C 150.952902 90.469847 139.671378 74.992388 139.671378 74.992388 C 186.460013 73.567354 219.90874 87.026013 219.90874 87.026013 " transform="matrix(0.0986818, 0, 0, -0.0986818, 0.306818, 21.423823)"/>
<path fill-rule="nonzero" fill="rgb(1.176453%, 41.175842%, 59.605408%)" fill-opacity="1" stroke-width="3.99994" stroke-linecap="butt" stroke-linejoin="miter" stroke="rgb(100%, 100%, 100%)" stroke-opacity="1" stroke-miterlimit="4" d="M 179.493177 97.436682 L 282.689429 127.481161 C 297.493954 126.808228 295.554324 114.814187 295.554324 114.814187 C 296.266841 107.055666 284.510306 103.691001 284.510306 103.691001 L 217.098255 86.155159 " transform="matrix(0.0986818, 0, 0, -0.0986818, 0.306818, 21.423823)"/>
<path fill-rule="nonzero" fill="rgb(1.176453%, 41.175842%, 59.605408%)" fill-opacity="1" d="M 21.574219 12.9375 C 21.660156 12.9375 21.726562 12.902344 21.726562 12.859375 C 21.726562 12.816406 21.660156 12.785156 21.574219 12.785156 C 21.488281 12.785156 21.421875 12.816406 21.421875 12.859375 C 21.421875 12.902344 21.488281 12.9375 21.574219 12.9375 "/>
<path fill="none" stroke-width="3.99994" stroke-linecap="butt" stroke-linejoin="miter" stroke="rgb(100%, 100%, 100%)" stroke-opacity="1" stroke-miterlimit="4" d="M 215.514884 85.996822 C 216.385738 85.996822 217.058671 86.35308 217.058671 86.788508 C 217.058671 87.223935 216.385738 87.540609 215.514884 87.540609 C 214.644029 87.540609 213.971096 87.223935 213.971096 86.788508 C 213.971096 86.35308 214.644029 85.996822 215.514884 85.996822 Z M 215.514884 85.996822 " transform="matrix(0.0986818, 0, 0, -0.0986818, 0.306818, 21.423823)"/>
</svg>
