<?xml version="1.0" encoding="UTF-8"?>
<svg xmlns="http://www.w3.org/2000/svg" xmlns:xlink="http://www.w3.org/1999/xlink" width="38.54" height="36.55" viewBox="0 0 38.54 36.55">
<defs>
<clipPath id="clip-0">
<path clip-rule="nonzero" d="M 10 0 L 38.078125 0 L 38.078125 17 L 10 17 Z M 10 0 "/>
</clipPath>
<clipPath id="clip-1">
<path clip-rule="nonzero" d="M 30 0 L 38.078125 0 L 38.078125 21 L 30 21 Z M 30 0 "/>
</clipPath>
<clipPath id="clip-2">
<path clip-rule="nonzero" d="M 0.0078125 14 L 31 14 L 31 32 L 0.0078125 32 Z M 0.0078125 14 "/>
</clipPath>
<clipPath id="clip-3">
<path clip-rule="nonzero" d="M 0.0078125 12 L 34 12 L 34 35 L 0.0078125 35 Z M 0.0078125 12 "/>
</clipPath>
<clipPath id="clip-4">
<path clip-rule="nonzero" d="M 0.0078125 31 L 19 31 L 19 36 L 0.0078125 36 Z M 0.0078125 31 "/>
</clipPath>
<clipPath id="clip-5">
<path clip-rule="nonzero" d="M 0.0078125 29 L 21 29 L 21 36.105469 L 0.0078125 36.105469 Z M 0.0078125 29 "/>
</clipPath>
<clipPath id="clip-6">
<path clip-rule="nonzero" d="M 13 12 L 35 12 L 35 36.105469 L 13 36.105469 Z M 13 12 "/>
</clipPath>
</defs>
<path fill-rule="nonzero" fill="rgb(1.176453%, 41.175842%, 59.605408%)" fill-opacity="1" d="M 12.703125 14.414062 L 33.035156 14.414062 L 35.921875 0.578125 L 16.582031 0.578125 L 12.703125 14.414062 "/>
<g clip-path="url(#clip-0)">
<path fill="none" stroke-width="3.99994" stroke-linecap="butt" stroke-linejoin="miter" stroke="rgb(100%, 100%, 100%)" stroke-opacity="1" stroke-miterlimit="4" d="M 128.522743 219.58473 L 334.346315 219.58473 L 363.568912 359.647572 L 167.789372 359.647572 Z M 128.522743 219.58473 " transform="matrix(0.0987838, 0, 0, -0.0987838, 0.00716216, 36.105473)"/>
</g>
<path fill-rule="nonzero" fill="rgb(1.176453%, 41.175842%, 59.605408%)" fill-opacity="1" d="M 12.703125 14.414062 L 14.78125 18.367188 L 35.113281 18.367188 L 33.035156 14.414062 L 12.703125 14.414062 "/>
<path fill="none" stroke-width="3.99994" stroke-linecap="butt" stroke-linejoin="miter" stroke="rgb(100%, 100%, 100%)" stroke-opacity="1" stroke-miterlimit="4" d="M 128.522743 219.58473 L 149.55985 179.566775 L 355.383422 179.566775 L 334.346315 219.58473 Z M 128.522743 219.58473 " transform="matrix(0.0987838, 0, 0, -0.0987838, 0.00716216, 36.105473)"/>
<path fill-rule="nonzero" fill="rgb(1.176453%, 41.175842%, 59.605408%)" fill-opacity="1" d="M 35.921875 0.578125 L 37.875 4.28125 L 35.113281 18.367188 L 33.035156 14.414062 L 35.921875 0.578125 "/>
<g clip-path="url(#clip-1)">
<path fill="none" stroke-width="3.99994" stroke-linecap="butt" stroke-linejoin="miter" stroke="rgb(100%, 100%, 100%)" stroke-opacity="1" stroke-miterlimit="4" d="M 363.568912 359.647572 L 383.340629 322.160397 L 355.383422 179.566775 L 334.346315 219.58473 Z M 363.568912 359.647572 " transform="matrix(0.0987838, 0, 0, -0.0987838, 0.00716216, 36.105473)"/>
</g>
<g clip-path="url(#clip-2)">
<path fill-rule="nonzero" fill="rgb(1.176453%, 41.175842%, 59.605408%)" fill-opacity="1" d="M 0.460938 31.800781 L 16.042969 31.800781 L 30.785156 14.800781 L 16.195312 14.800781 L 0.460938 31.800781 "/>
</g>
<g clip-path="url(#clip-3)">
<path fill="none" stroke-width="3.99994" stroke-linecap="butt" stroke-linejoin="miter" stroke="rgb(100%, 100%, 100%)" stroke-opacity="1" stroke-miterlimit="4" d="M 4.593622 43.576907 L 162.332379 43.576907 L 311.569297 215.66993 L 163.874573 215.66993 Z M 4.593622 43.576907 " transform="matrix(0.0987838, 0, 0, -0.0987838, 0.00716216, 36.105473)"/>
</g>
<g clip-path="url(#clip-4)">
<path fill-rule="nonzero" fill="rgb(1.176453%, 41.175842%, 59.605408%)" fill-opacity="1" d="M 0.460938 31.800781 L 2.539062 35.753906 L 18.125 35.753906 L 16.042969 31.800781 L 0.460938 31.800781 "/>
</g>
<g clip-path="url(#clip-5)">
<path fill="none" stroke-width="3.99994" stroke-linecap="butt" stroke-linejoin="miter" stroke="rgb(100%, 100%, 100%)" stroke-opacity="1" stroke-miterlimit="4" d="M 4.593622 43.576907 L 25.630728 3.558952 L 183.409029 3.558952 L 162.332379 43.576907 Z M 4.593622 43.576907 " transform="matrix(0.0987838, 0, 0, -0.0987838, 0.00716216, 36.105473)"/>
</g>
<path fill-rule="nonzero" fill="rgb(1.176453%, 41.175842%, 59.605408%)" fill-opacity="1" d="M 30.785156 14.800781 L 32.734375 18.507812 L 18.125 35.753906 L 16.042969 31.800781 L 30.785156 14.800781 "/>
<g clip-path="url(#clip-6)">
<path fill="none" stroke-width="3.99994" stroke-linecap="butt" stroke-linejoin="miter" stroke="rgb(100%, 100%, 100%)" stroke-opacity="1" stroke-miterlimit="4" d="M 311.569297 215.66993 L 331.301471 178.143211 L 183.409029 3.558952 L 162.332379 43.576907 Z M 311.569297 215.66993 " transform="matrix(0.0987838, 0, 0, -0.0987838, 0.00716216, 36.105473)"/>
</g>
<path fill-rule="nonzero" fill="rgb(100%, 100%, 100%)" fill-opacity="1" d="M 15.613281 16.304688 L 17.199219 16.304688 L 16.117188 17.492188 L 14.53125 17.492188 L 15.613281 16.304688 "/>
<path fill-rule="nonzero" fill="rgb(100%, 100%, 100%)" fill-opacity="1" d="M 13.179688 20.019531 L 15.089844 19.574219 L 14.011719 20.757812 L 12.972656 20.121094 "/>
<path fill-rule="nonzero" fill="rgb(100%, 100%, 100%)" fill-opacity="1" d="M 18.386719 16.304688 L 19.972656 16.304688 L 18.894531 17.492188 L 17.308594 17.492188 L 18.386719 16.304688 "/>
<path fill-rule="nonzero" fill="rgb(100%, 100%, 100%)" fill-opacity="1" d="M 21.167969 16.304688 L 22.753906 16.304688 L 21.871094 17.492188 L 20.085938 17.492188 L 21.167969 16.304688 "/>
<path fill-rule="nonzero" fill="rgb(100%, 100%, 100%)" fill-opacity="1" d="M 23.941406 16.304688 L 25.53125 16.304688 L 24.648438 17.492188 L 23.0625 17.492188 L 23.941406 16.304688 "/>
<path fill-rule="nonzero" fill="rgb(100%, 100%, 100%)" fill-opacity="1" d="M 12.527344 23.15625 L 14.113281 23.15625 L 12.992188 24.339844 L 11.40625 24.339844 L 12.527344 23.15625 "/>
<path fill-rule="nonzero" fill="rgb(100%, 100%, 100%)" fill-opacity="1" d="M 15.304688 23.15625 L 16.890625 23.15625 L 15.964844 24.339844 L 14.183594 24.339844 L 15.304688 23.15625 "/>
<path fill-rule="nonzero" fill="rgb(100%, 100%, 100%)" fill-opacity="1" d="M 18.082031 23.15625 L 19.667969 23.15625 L 18.746094 24.339844 L 17.15625 24.339844 L 18.082031 23.15625 "/>
<path fill-rule="nonzero" fill="rgb(100%, 100%, 100%)" fill-opacity="1" d="M 9.363281 26.316406 L 10.949219 26.316406 L 9.945312 27.503906 L 8.355469 27.503906 L 9.363281 26.316406 "/>
<path fill-rule="nonzero" fill="rgb(100%, 100%, 100%)" fill-opacity="1" d="M 12.140625 26.316406 L 13.726562 26.316406 L 12.921875 27.503906 L 11.132812 27.503906 L 12.140625 26.316406 "/>
<path fill-rule="nonzero" fill="rgb(100%, 100%, 100%)" fill-opacity="1" d="M 14.917969 26.316406 L 16.503906 26.316406 L 15.695312 27.503906 L 14.109375 27.503906 L 14.917969 26.316406 "/>
<path fill-rule="nonzero" fill="rgb(100%, 100%, 100%)" fill-opacity="1" d="M 26.917969 16.304688 L 28.507812 16.304688 L 27.425781 17.492188 L 25.839844 17.492188 L 26.917969 16.304688 "/>
<path fill-rule="nonzero" fill="rgb(100%, 100%, 100%)" fill-opacity="1" d="M 23.019531 19.78125 L 24.140625 20.335938 L 23.929688 20.4375 L 21.941406 20.96875 L 23.019531 19.78125 "/>
<path fill-rule="nonzero" fill="rgb(100%, 100%, 100%)" fill-opacity="1" d="M 20.363281 20.148438 C 20.058594 20.660156 18.867188 21.070312 17.703125 21.070312 C 16.539062 21.070312 15.84375 20.660156 16.148438 20.148438 C 16.453125 19.640625 17.644531 19.226562 18.808594 19.226562 C 19.972656 19.226562 20.667969 19.640625 20.363281 20.148438 "/>
<path fill-rule="nonzero" fill="rgb(1.176453%, 41.175842%, 59.605408%)" fill-opacity="1" d="M 29.878906 11.347656 C 29.710938 11.972656 29.066406 12.484375 28.4375 12.484375 L 17.808594 12.484375 C 17.179688 12.484375 16.804688 11.972656 16.972656 11.347656 L 19.035156 3.609375 C 19.203125 2.980469 19.847656 2.472656 20.476562 2.472656 L 31.105469 2.472656 C 31.734375 2.472656 32.109375 2.980469 31.941406 3.609375 L 29.878906 11.347656 "/>
<path fill="none" stroke-width="3.99994" stroke-linecap="butt" stroke-linejoin="miter" stroke="rgb(100%, 100%, 100%)" stroke-opacity="1" stroke-miterlimit="4" d="M 302.395221 250.626325 C 300.694853 244.299376 294.170186 239.119186 287.803694 239.119186 L 180.206011 239.119186 C 173.839518 239.119186 170.043348 244.299376 171.743716 250.626325 L 192.622649 328.961867 C 194.323016 335.32836 200.847683 340.469006 207.214176 340.469006 L 314.811859 340.469006 C 321.178352 340.469006 324.974521 335.32836 323.274154 328.961867 Z M 302.395221 250.626325 " transform="matrix(0.0987838, 0, 0, -0.0987838, 0.00716216, 36.105473)"/>
</svg>
