<?xml version="1.0" encoding="UTF-8"?>
<svg xmlns="http://www.w3.org/2000/svg" xmlns:xlink="http://www.w3.org/1999/xlink" width="26.6" height="26.42" viewBox="0 0 26.6 26.42">
<defs>
<clipPath id="clip-0">
<path clip-rule="nonzero" d="M 0.0898438 0 L 26 0 L 26 3 L 0.0898438 3 Z M 0.0898438 0 "/>
</clipPath>
<clipPath id="clip-1">
<path clip-rule="nonzero" d="M 23 0 L 26 0 L 26 25.851562 L 23 25.851562 Z M 23 0 "/>
</clipPath>
<clipPath id="clip-2">
<path clip-rule="nonzero" d="M 20 0 L 26.117188 0 L 26.117188 25.851562 L 20 25.851562 Z M 20 0 "/>
</clipPath>
<clipPath id="clip-3">
<path clip-rule="nonzero" d="M 0.0898438 2 L 24 2 L 24 25.851562 L 0.0898438 25.851562 Z M 0.0898438 2 "/>
</clipPath>
</defs>
<g clip-path="url(#clip-0)">
<path fill-rule="nonzero" fill="rgb(36.447144%, 69.651794%, 90.304565%)" fill-opacity="1" d="M 23.144531 2.613281 L 0.285156 2.613281 L 3.035156 0.417969 L 25.894531 0.417969 L 23.144531 2.613281 "/>
</g>
<g clip-path="url(#clip-1)">
<path fill-rule="nonzero" fill="rgb(11.280823%, 26.489258%, 42.788696%)" fill-opacity="1" d="M 25.921875 23.261719 L 23.105469 25.453125 L 23.105469 2.59375 L 25.921875 0.402344 L 25.921875 23.261719 "/>
</g>
<g clip-path="url(#clip-2)">
<path fill="none" stroke-width="4" stroke-linecap="butt" stroke-linejoin="miter" stroke="rgb(99.993896%, 99.992371%, 99.992371%)" stroke-opacity="1" stroke-miterlimit="4" d="M 263.989639 26.476152 L 235.207289 4.081009 L 235.207289 237.693092 L 263.989639 260.088236 Z M 263.989639 26.476152 " transform="matrix(0.0978519, 0, 0, -0.0978519, 0.09, 25.852459)"/>
</g>
<g clip-path="url(#clip-3)">
<path fill-rule="nonzero" fill="rgb(25.987244%, 58.74939%, 84.701538%)" fill-opacity="1" d="M 23.144531 25.453125 L 0.285156 25.453125 L 0.285156 2.59375 L 23.144531 2.59375 L 23.144531 25.453125 "/>
<path fill="none" stroke-width="4" stroke-linecap="butt" stroke-linejoin="miter" stroke="rgb(99.993896%, 99.992371%, 99.992371%)" stroke-opacity="1" stroke-miterlimit="4" d="M 235.606489 4.081009 L 1.994405 4.081009 L 1.994405 237.693092 L 235.606489 237.693092 Z M 235.606489 4.081009 " transform="matrix(0.0978519, 0, 0, -0.0978519, 0.09, 25.852459)"/>
</g>
<path fill-rule="nonzero" fill="rgb(6.266785%, 5.734253%, 5.047607%)" fill-opacity="1" d="M 11.777344 13.507812 C 11.777344 13.59375 11.707031 13.664062 11.621094 13.664062 L 8.40625 13.664062 C 8.320312 13.664062 8.25 13.59375 8.25 13.507812 L 8.25 10.292969 C 8.25 10.207031 8.320312 10.132812 8.40625 10.132812 L 11.621094 10.132812 C 11.707031 10.132812 11.777344 10.207031 11.777344 10.292969 L 11.777344 13.507812 "/>
<path fill-rule="nonzero" fill="rgb(6.266785%, 5.734253%, 5.047607%)" fill-opacity="1" d="M 15.941406 13.484375 C 15.941406 13.546875 15.890625 13.601562 15.828125 13.601562 L 13.488281 13.601562 C 13.425781 13.601562 13.375 13.546875 13.375 13.484375 L 13.375 11.144531 C 13.375 11.082031 13.425781 11.03125 13.488281 11.03125 L 15.828125 11.03125 C 15.890625 11.03125 15.941406 11.082031 15.941406 11.144531 L 15.941406 13.484375 "/>
<path fill-rule="nonzero" fill="rgb(6.266785%, 5.734253%, 5.047607%)" fill-opacity="1" d="M 10.953125 17.214844 C 10.953125 17.277344 10.902344 17.332031 10.839844 17.332031 L 8.5 17.332031 C 8.4375 17.332031 8.386719 17.277344 8.386719 17.214844 L 8.386719 14.875 C 8.386719 14.816406 8.4375 14.765625 8.5 14.765625 L 10.839844 14.765625 C 10.902344 14.765625 10.953125 14.816406 10.953125 14.875 L 10.953125 17.214844 "/>
<path fill-rule="nonzero" fill="rgb(6.266785%, 5.734253%, 5.047607%)" fill-opacity="1" d="M 15.617188 17.820312 C 15.617188 17.898438 15.554688 17.960938 15.480469 17.960938 L 12.617188 17.960938 C 12.539062 17.960938 12.476562 17.898438 12.476562 17.820312 L 12.476562 14.957031 C 12.476562 14.882812 12.539062 14.820312 12.617188 14.820312 L 15.480469 14.820312 C 15.554688 14.820312 15.617188 14.882812 15.617188 14.957031 L 15.617188 17.820312 "/>
<path fill-rule="nonzero" fill="rgb(6.266785%, 5.734253%, 5.047607%)" fill-opacity="1" d="M 9.019531 6.664062 L 4.53125 6.664062 L 4.53125 16.691406 L 6.628906 16.691406 L 6.628906 8.761719 L 9.019531 8.761719 L 9.019531 6.664062 "/>
<path fill-rule="nonzero" fill="rgb(6.266785%, 5.734253%, 5.047607%)" fill-opacity="1" d="M 12.015625 6.664062 L 12.015625 8.761719 L 17.550781 8.761719 L 17.550781 14.746094 L 19.644531 14.746094 L 19.644531 6.664062 L 12.015625 6.664062 "/>
<path fill-rule="nonzero" fill="rgb(6.266785%, 5.734253%, 5.047607%)" fill-opacity="1" d="M 17.550781 17.738281 L 17.550781 19.683594 L 4.53125 19.683594 L 4.53125 21.777344 L 19.644531 21.777344 L 19.644531 17.738281 L 17.550781 17.738281 "/>
<path fill-rule="nonzero" fill="rgb(99.993896%, 99.992371%, 99.992371%)" fill-opacity="1" d="M 11.464844 13.191406 C 11.464844 13.277344 11.394531 13.351562 11.308594 13.351562 L 8.09375 13.351562 C 8.007812 13.351562 7.9375 13.277344 7.9375 13.191406 L 7.9375 9.976562 C 7.9375 9.890625 8.007812 9.820312 8.09375 9.820312 L 11.308594 9.820312 C 11.394531 9.820312 11.464844 9.890625 11.464844 9.976562 L 11.464844 13.191406 "/>
<path fill-rule="nonzero" fill="rgb(99.993896%, 99.992371%, 99.992371%)" fill-opacity="1" d="M 15.628906 13.171875 C 15.628906 13.234375 15.578125 13.285156 15.515625 13.285156 L 13.175781 13.285156 C 13.113281 13.285156 13.0625 13.234375 13.0625 13.171875 L 13.0625 10.832031 C 13.0625 10.769531 13.113281 10.71875 13.175781 10.71875 L 15.515625 10.71875 C 15.578125 10.71875 15.628906 10.769531 15.628906 10.832031 L 15.628906 13.171875 "/>
<path fill-rule="nonzero" fill="rgb(99.993896%, 99.992371%, 99.992371%)" fill-opacity="1" d="M 10.640625 16.90625 C 10.640625 16.964844 10.585938 17.015625 10.523438 17.015625 L 8.1875 17.015625 C 8.121094 17.015625 8.070312 16.964844 8.070312 16.90625 L 8.070312 14.566406 C 8.070312 14.503906 8.121094 14.449219 8.1875 14.449219 L 10.523438 14.449219 C 10.585938 14.449219 10.640625 14.503906 10.640625 14.566406 L 10.640625 16.90625 "/>
<path fill-rule="nonzero" fill="rgb(99.993896%, 99.992371%, 99.992371%)" fill-opacity="1" d="M 15.304688 17.507812 C 15.304688 17.585938 15.242188 17.648438 15.167969 17.648438 L 12.304688 17.648438 C 12.226562 17.648438 12.164062 17.585938 12.164062 17.507812 L 12.164062 14.644531 C 12.164062 14.570312 12.226562 14.503906 12.304688 14.503906 L 15.167969 14.503906 C 15.242188 14.503906 15.304688 14.570312 15.304688 14.644531 L 15.304688 17.507812 "/>
<path fill-rule="nonzero" fill="rgb(6.266785%, 5.734253%, 5.047607%)" fill-opacity="1" d="M 14.109375 15.820312 C 14.109375 15.917969 14.03125 15.992188 13.933594 15.992188 L 10.390625 15.992188 C 10.296875 15.992188 10.21875 15.917969 10.21875 15.820312 L 10.21875 12.273438 C 10.21875 12.179688 10.296875 12.101562 10.390625 12.101562 L 13.933594 12.101562 C 14.03125 12.101562 14.109375 12.179688 14.109375 12.273438 L 14.109375 15.820312 "/>
<path fill-rule="nonzero" fill="rgb(99.993896%, 99.992371%, 99.992371%)" fill-opacity="1" d="M 13.796875 15.507812 C 13.796875 15.601562 13.71875 15.679688 13.621094 15.679688 L 10.078125 15.679688 C 9.984375 15.679688 9.90625 15.601562 9.90625 15.507812 L 9.90625 11.960938 C 9.90625 11.867188 9.984375 11.789062 10.078125 11.789062 L 13.621094 11.789062 C 13.71875 11.789062 13.796875 11.867188 13.796875 11.960938 L 13.796875 15.507812 "/>
<path fill="none" stroke-width="2.5" stroke-linecap="butt" stroke-linejoin="miter" stroke="rgb(6.266785%, 5.734253%, 5.047607%)" stroke-opacity="1" stroke-miterlimit="4" d="M 140.077829 105.717435 C 140.077829 104.759354 139.279428 103.960953 138.281427 103.960953 L 102.07395 103.960953 C 101.115869 103.960953 100.317468 104.759354 100.317468 105.717435 L 100.317468 141.964833 C 100.317468 142.922914 101.115869 143.721314 102.07395 143.721314 L 138.281427 143.721314 C 139.279428 143.721314 140.077829 142.922914 140.077829 141.964833 Z M 140.077829 105.717435 " transform="matrix(0.0978519, 0, 0, -0.0978519, 0.09, 25.852459)"/>
<path fill-rule="nonzero" fill="rgb(99.993896%, 99.992371%, 99.992371%)" fill-opacity="1" d="M 8.707031 6.351562 L 4.21875 6.351562 L 4.21875 16.375 L 6.3125 16.375 L 6.3125 8.445312 L 8.707031 8.445312 L 8.707031 6.351562 "/>
<path fill-rule="nonzero" fill="rgb(99.993896%, 99.992371%, 99.992371%)" fill-opacity="1" d="M 11.699219 6.351562 L 11.699219 8.445312 L 17.238281 8.445312 L 17.238281 14.433594 L 19.332031 14.433594 L 19.332031 6.351562 L 11.699219 6.351562 "/>
<path fill-rule="nonzero" fill="rgb(99.993896%, 99.992371%, 99.992371%)" fill-opacity="1" d="M 17.238281 17.425781 L 17.238281 19.371094 L 4.21875 19.371094 L 4.21875 21.464844 L 19.332031 21.464844 L 19.332031 17.425781 L 17.238281 17.425781 "/>
</svg>
