<?xml version="1.0" encoding="UTF-8"?>
<svg xmlns="http://www.w3.org/2000/svg" xmlns:xlink="http://www.w3.org/1999/xlink" width="35.39" height="23.6" viewBox="0 0 35.39 23.6">
<defs>
<clipPath id="clip-0">
<path clip-rule="nonzero" d="M 0 0.00390625 L 34.789062 0.00390625 L 34.789062 23 L 0 23 Z M 0 0.00390625 "/>
</clipPath>
<clipPath id="clip-1">
<path clip-rule="nonzero" d="M 0 0.00390625 L 34.789062 0.00390625 L 34.789062 23.203125 L 0 23.203125 Z M 0 0.00390625 "/>
</clipPath>
<clipPath id="clip-2">
<path clip-rule="nonzero" d="M 30 0.00390625 L 34.789062 0.00390625 L 34.789062 4 L 30 4 Z M 30 0.00390625 "/>
</clipPath>
<clipPath id="clip-3">
<path clip-rule="nonzero" d="M 28 0.00390625 L 34.789062 0.00390625 L 34.789062 7 L 28 7 Z M 28 0.00390625 "/>
</clipPath>
</defs>
<path fill-rule="nonzero" fill="rgb(3.292847%, 48.298645%, 73.153687%)" fill-opacity="1" d="M 30.738281 22.664062 L 30.738281 4.015625 L 0.625 4.015625 L 0.625 22.664062 L 30.738281 22.664062 "/>
<path fill="none" stroke-width="4.6" stroke-linecap="butt" stroke-linejoin="miter" stroke="rgb(100%, 100%, 100%)" stroke-opacity="1" stroke-miterlimit="4" d="M 312.681019 5.48679 L 312.681019 195.185504 L 6.357728 195.185504 L 6.357728 5.48679 Z M 312.681019 5.48679 " transform="matrix(0.0983056, 0, 0, -0.0983056, 0, 23.203444)"/>
<g clip-path="url(#clip-0)">
<path fill-rule="nonzero" fill="rgb(3.292847%, 48.298645%, 73.153687%)" fill-opacity="1" d="M 30.675781 3.996094 L 0.644531 3.996094 L 5.359375 0.234375 L 34.566406 0.234375 L 34.566406 18.761719 L 30.71875 22.652344 L 30.71875 4.105469 L 30.675781 3.996094 "/>
</g>
<g clip-path="url(#clip-1)">
<path fill="none" stroke-width="4.6" stroke-linecap="butt" stroke-linejoin="miter" stroke="rgb(100%, 100%, 100%)" stroke-opacity="1" stroke-miterlimit="4" d="M 312.045246 195.384183 L 6.556407 195.384183 L 54.517519 233.64976 L 351.622104 233.64976 L 351.622104 45.182855 L 312.48234 5.605997 L 312.48234 194.271581 Z M 312.045246 195.384183 " transform="matrix(0.0983056, 0, 0, -0.0983056, 0, 23.203444)"/>
</g>
<g clip-path="url(#clip-2)">
<path fill-rule="nonzero" fill="rgb(0%, 0%, 0%)" fill-opacity="1" d="M 30.707031 3.960938 L 34.597656 0.179688 "/>
</g>
<g clip-path="url(#clip-3)">
<path fill="none" stroke-width="4.6" stroke-linecap="butt" stroke-linejoin="miter" stroke="rgb(100%, 100%, 100%)" stroke-opacity="1" stroke-miterlimit="4" d="M 312.363132 195.741806 L 351.93999 234.206061 " transform="matrix(0.0983056, 0, 0, -0.0983056, 0, 23.203444)"/>
</g>
<path fill-rule="nonzero" fill="rgb(100%, 100%, 100%)" fill-opacity="1" d="M 5.085938 20.949219 L 8.597656 20.949219 L 12.460938 17.003906 L 16.183594 17.003906 L 20.058594 20.882812 L 26.753906 20.882812 L 26.753906 18.140625 L 21.636719 18.140625 L 17.675781 14.179688 L 12.609375 14.179688 L 8.726562 10.285156 L 5.027344 10.28125 L 5.027344 9.78125 L 3.519531 11.285156 L 4.976562 12.738281 L 4.976562 12.1875 L 8.019531 12.1875 L 7.996094 14.734375 L 5.085938 14.734375 L 5.085938 14.230469 L 3.582031 15.738281 L 5.035156 17.191406 L 5.035156 16.640625 L 7.996094 16.628906 L 7.996094 19.042969 L 5.085938 19.042969 L 5.085938 18.542969 L 3.582031 20.046875 L 5.035156 21.5 L 5.035156 20.949219 "/>
<path fill-rule="nonzero" fill="rgb(100%, 100%, 100%)" fill-opacity="1" d="M 26.121094 5.476562 L 22.609375 5.476562 L 18.746094 9.421875 L 15.023438 9.421875 L 11.148438 5.546875 L 4.453125 5.546875 L 4.453125 8.285156 L 9.566406 8.285156 L 13.53125 12.246094 L 18.597656 12.246094 L 22.480469 16.140625 L 26.179688 16.144531 L 26.179688 16.648438 L 27.683594 15.140625 L 26.230469 13.6875 L 26.230469 14.238281 L 23.1875 14.238281 L 23.210938 11.691406 L 26.121094 11.691406 L 26.121094 12.195312 L 27.625 10.691406 L 26.167969 9.234375 L 26.167969 9.785156 L 23.210938 9.796875 L 23.210938 7.382812 L 26.121094 7.382812 L 26.121094 7.886719 L 27.625 6.378906 L 26.167969 4.925781 L 26.167969 5.476562 "/>
</svg>
