<?xml version="1.0" encoding="UTF-8"?>
<svg xmlns="http://www.w3.org/2000/svg" xmlns:xlink="http://www.w3.org/1999/xlink" width="37.26" height="25.26" viewBox="0 0 37.26 25.26">
<defs>
<clipPath id="clip-0">
<path clip-rule="nonzero" d="M 0.171875 7 L 36.371094 7 L 36.371094 24.542969 L 0.171875 24.542969 Z M 0.171875 7 "/>
</clipPath>
<clipPath id="clip-1">
<path clip-rule="nonzero" d="M 0.171875 0 L 36.371094 0 L 36.371094 15 L 0.171875 15 Z M 0.171875 0 "/>
</clipPath>
<clipPath id="clip-2">
<path clip-rule="nonzero" d="M 0.171875 6 L 36.371094 6 L 36.371094 24.542969 L 0.171875 24.542969 Z M 0.171875 6 "/>
</clipPath>
<clipPath id="clip-3">
<path clip-rule="nonzero" d="M 0.171875 0 L 36.371094 0 L 36.371094 15 L 0.171875 15 Z M 0.171875 0 "/>
</clipPath>
</defs>
<g clip-path="url(#clip-0)">
<path fill-rule="evenodd" fill="rgb(12.594604%, 64.027405%, 89.407349%)" fill-opacity="1" d="M 36.140625 7.179688 C 36.140625 11.019531 28.140625 14.132812 18.273438 14.132812 C 8.402344 14.132812 0.402344 11.019531 0.402344 7.179688 L 0.402344 17.359375 C 0.402344 21.199219 8.402344 24.308594 18.273438 24.308594 C 28.140625 24.308594 36.140625 21.199219 36.140625 17.359375 L 36.140625 7.179688 "/>
</g>
<g clip-path="url(#clip-1)">
<path fill-rule="evenodd" fill="rgb(12.594604%, 64.027405%, 89.407349%)" fill-opacity="1" d="M 18.273438 14.132812 C 28.140625 14.132812 36.140625 11.019531 36.140625 7.179688 C 36.140625 3.34375 28.140625 0.230469 18.273438 0.230469 C 8.402344 0.230469 0.402344 3.34375 0.402344 7.179688 C 0.402344 11.019531 8.402344 14.132812 18.273438 14.132812 "/>
</g>
<g clip-path="url(#clip-2)">
<path fill="none" stroke-width="4.771" stroke-linecap="square" stroke-linejoin="bevel" stroke="rgb(68.643188%, 87.557983%, 95.843506%)" stroke-opacity="1" stroke-miterlimit="10" d="M 370.236045 178.699812 C 370.236045 139.17648 287.892419 107.131621 186.329919 107.131621 C 84.727212 107.131621 2.383586 139.17648 2.383586 178.699812 L 2.383586 73.920764 C 2.383586 34.397432 84.727212 2.39278 186.329919 2.39278 C 287.892419 2.39278 370.236045 34.397432 370.236045 73.920764 Z M 370.236045 178.699812 " transform="matrix(0.0971538, 0, 0, -0.0971538, 0.170769, 24.541062)"/>
</g>
<g clip-path="url(#clip-3)">
<path fill="none" stroke-width="4.771" stroke-linecap="square" stroke-linejoin="bevel" stroke="rgb(68.643188%, 87.557983%, 95.843506%)" stroke-opacity="1" stroke-miterlimit="10" d="M 186.329919 107.131621 C 287.892419 107.131621 370.236045 139.17648 370.236045 178.699812 C 370.236045 218.182937 287.892419 250.227796 186.329919 250.227796 C 84.727212 250.227796 2.383586 218.182937 2.383586 178.699812 C 2.383586 139.17648 84.727212 107.131621 186.329919 107.131621 Z M 186.329919 107.131621 " transform="matrix(0.0971538, 0, 0, -0.0971538, 0.170769, 24.541062)"/>
</g>
<path fill-rule="nonzero" fill="rgb(100%, 100%, 100%)" fill-opacity="1" d="M 14.191406 4.464844 L 15.667969 6.675781 L 10.085938 7.964844 L 11.308594 6.949219 L 2.683594 5.476562 L 4.847656 3.855469 L 13.167969 5.265625 L 14.191406 4.464844 "/>
<path fill-rule="nonzero" fill="rgb(100%, 100%, 100%)" fill-opacity="1" d="M 22.042969 9.832031 L 21.035156 7.546875 L 26.066406 6.542969 L 25.195312 7.324219 L 33.582031 8.757812 L 31.566406 10.367188 L 23.230469 8.804688 L 22.042969 9.832031 "/>
<path fill-rule="nonzero" fill="rgb(100%, 100%, 100%)" fill-opacity="1" d="M 19.289062 3.253906 L 24.925781 1.710938 L 24.992188 4.128906 L 23.585938 3.859375 L 20.832031 6.140625 L 18.207031 5.757812 L 21.046875 3.527344 L 19.289062 3.253906 "/>
<path fill-rule="nonzero" fill="rgb(100%, 100%, 100%)" fill-opacity="1" d="M 16.875 11.910156 L 11.507812 12.917969 L 11.304688 10.433594 L 12.847656 10.769531 L 15.804688 8.25 L 18.417969 8.691406 L 15.265625 11.441406 L 16.875 11.910156 "/>
<path fill-rule="evenodd" fill="rgb(10.96344%, 48.161316%, 65.560913%)" fill-opacity="1" d="M 10.324219 15.519531 L 26.371094 15.519531 L 26.371094 22.570312 L 10.324219 22.570312 L 10.324219 15.519531 "/>
<path fill="none" stroke-width="7.157" stroke-linecap="square" stroke-linejoin="miter" stroke="rgb(55.514526%, 81.394958%, 94.932556%)" stroke-opacity="1" stroke-miterlimit="10" d="M 104.508982 92.85819 L 269.678716 92.85819 L 269.678716 20.284828 L 104.508982 20.284828 Z M 104.508982 92.85819 " transform="matrix(0.0971538, 0, 0, -0.0971538, 0.170769, 24.541062)"/>
<path fill-rule="evenodd" fill="rgb(100%, 100%, 100%)" fill-opacity="1" d="M 22.667969 17.421875 L 24.851562 17.421875 L 24.851562 20.472656 L 22.667969 20.472656 L 22.667969 17.421875 "/>
<path fill="none" stroke-width="2.386" stroke-linecap="square" stroke-linejoin="miter" stroke="rgb(100%, 100%, 100%)" stroke-opacity="1" stroke-miterlimit="10" d="M 231.562624 73.277454 L 254.038252 73.277454 L 254.038252 41.875906 L 231.562624 41.875906 Z M 231.562624 73.277454 " transform="matrix(0.0971538, 0, 0, -0.0971538, 0.170769, 24.541062)"/>
<path fill-rule="evenodd" fill="rgb(100%, 100%, 100%)" fill-opacity="1" d="M 24.851562 15.996094 L 25.515625 15.996094 L 25.515625 16.5625 L 24.851562 16.5625 L 24.851562 15.996094 "/>
<path fill="none" stroke-width="2.386" stroke-linecap="square" stroke-linejoin="miter" stroke="rgb(100%, 100%, 100%)" stroke-opacity="1" stroke-miterlimit="10" d="M 254.038252 87.952954 L 260.873416 87.952954 L 260.873416 82.122961 L 254.038252 82.122961 Z M 254.038252 87.952954 " transform="matrix(0.0971538, 0, 0, -0.0971538, 0.170769, 24.541062)"/>
<path fill-rule="evenodd" fill="rgb(100%, 100%, 100%)" fill-opacity="1" d="M 23.523438 15.996094 L 24.1875 15.996094 L 24.1875 16.5625 L 23.523438 16.5625 L 23.523438 15.996094 "/>
<path fill="none" stroke-width="2.386" stroke-linecap="square" stroke-linejoin="miter" stroke="rgb(100%, 100%, 100%)" stroke-opacity="1" stroke-miterlimit="10" d="M 240.367924 87.952954 L 247.203088 87.952954 L 247.203088 82.122961 L 240.367924 82.122961 Z M 240.367924 87.952954 " transform="matrix(0.0971538, 0, 0, -0.0971538, 0.170769, 24.541062)"/>
<path fill-rule="evenodd" fill="rgb(100%, 100%, 100%)" fill-opacity="1" d="M 22.191406 15.996094 L 22.859375 15.996094 L 22.859375 16.5625 L 22.191406 16.5625 L 22.191406 15.996094 "/>
<path fill="none" stroke-width="2.386" stroke-linecap="square" stroke-linejoin="miter" stroke="rgb(100%, 100%, 100%)" stroke-opacity="1" stroke-miterlimit="10" d="M 226.657388 87.952954 L 233.532759 87.952954 L 233.532759 82.122961 L 226.657388 82.122961 Z M 226.657388 87.952954 " transform="matrix(0.0971538, 0, 0, -0.0971538, 0.170769, 24.541062)"/>
<path fill-rule="evenodd" fill="rgb(100%, 100%, 100%)" fill-opacity="1" d="M 20.957031 15.996094 L 21.527344 15.996094 L 21.527344 16.5625 L 20.957031 16.5625 L 20.957031 15.996094 "/>
<path fill="none" stroke-width="2.386" stroke-linecap="square" stroke-linejoin="miter" stroke="rgb(100%, 100%, 100%)" stroke-opacity="1" stroke-miterlimit="10" d="M 213.952024 87.952954 L 219.822224 87.952954 L 219.822224 82.122961 L 213.952024 82.122961 Z M 213.952024 87.952954 " transform="matrix(0.0971538, 0, 0, -0.0971538, 0.170769, 24.541062)"/>
<path fill-rule="evenodd" fill="rgb(100%, 100%, 100%)" fill-opacity="1" d="M 19.628906 15.996094 L 20.199219 15.996094 L 20.199219 16.5625 L 19.628906 16.5625 L 19.628906 15.996094 "/>
<path fill="none" stroke-width="2.386" stroke-linecap="square" stroke-linejoin="miter" stroke="rgb(100%, 100%, 100%)" stroke-opacity="1" stroke-miterlimit="10" d="M 200.281695 87.952954 L 206.151895 87.952954 L 206.151895 82.122961 L 200.281695 82.122961 Z M 200.281695 87.952954 " transform="matrix(0.0971538, 0, 0, -0.0971538, 0.170769, 24.541062)"/>
<path fill-rule="evenodd" fill="rgb(100%, 100%, 100%)" fill-opacity="1" d="M 18.296875 15.996094 L 18.964844 15.996094 L 18.964844 16.5625 L 18.296875 16.5625 L 18.296875 15.996094 "/>
<path fill="none" stroke-width="2.386" stroke-linecap="square" stroke-linejoin="miter" stroke="rgb(100%, 100%, 100%)" stroke-opacity="1" stroke-miterlimit="10" d="M 186.57116 87.952954 L 193.446531 87.952954 L 193.446531 82.122961 L 186.57116 82.122961 Z M 186.57116 87.952954 " transform="matrix(0.0971538, 0, 0, -0.0971538, 0.170769, 24.541062)"/>
<path fill-rule="evenodd" fill="rgb(100%, 100%, 100%)" fill-opacity="1" d="M 16.96875 15.996094 L 17.632812 15.996094 L 17.632812 16.5625 L 16.96875 16.5625 L 16.96875 15.996094 "/>
<path fill="none" stroke-width="2.386" stroke-linecap="square" stroke-linejoin="miter" stroke="rgb(100%, 100%, 100%)" stroke-opacity="1" stroke-miterlimit="10" d="M 172.900831 87.952954 L 179.735996 87.952954 L 179.735996 82.122961 L 172.900831 82.122961 Z M 172.900831 87.952954 " transform="matrix(0.0971538, 0, 0, -0.0971538, 0.170769, 24.541062)"/>
<path fill-rule="evenodd" fill="rgb(100%, 100%, 100%)" fill-opacity="1" d="M 15.640625 15.996094 L 16.304688 15.996094 L 16.304688 16.5625 L 15.640625 16.5625 L 15.640625 15.996094 "/>
<path fill="none" stroke-width="2.386" stroke-linecap="square" stroke-linejoin="miter" stroke="rgb(100%, 100%, 100%)" stroke-opacity="1" stroke-miterlimit="10" d="M 159.230503 87.952954 L 166.065667 87.952954 L 166.065667 82.122961 L 159.230503 82.122961 Z M 159.230503 87.952954 " transform="matrix(0.0971538, 0, 0, -0.0971538, 0.170769, 24.541062)"/>
<path fill-rule="evenodd" fill="rgb(100%, 100%, 100%)" fill-opacity="1" d="M 14.308594 15.996094 L 14.976562 15.996094 L 14.976562 16.5625 L 14.308594 16.5625 L 14.308594 15.996094 "/>
<path fill="none" stroke-width="2.386" stroke-linecap="square" stroke-linejoin="miter" stroke="rgb(100%, 100%, 100%)" stroke-opacity="1" stroke-miterlimit="10" d="M 145.519967 87.952954 L 152.395338 87.952954 L 152.395338 82.122961 L 145.519967 82.122961 Z M 145.519967 87.952954 " transform="matrix(0.0971538, 0, 0, -0.0971538, 0.170769, 24.541062)"/>
<path fill-rule="evenodd" fill="rgb(100%, 100%, 100%)" fill-opacity="1" d="M 13.078125 15.996094 L 13.644531 15.996094 L 13.644531 16.5625 L 13.078125 16.5625 L 13.078125 15.996094 "/>
<path fill="none" stroke-width="2.386" stroke-linecap="square" stroke-linejoin="miter" stroke="rgb(100%, 100%, 100%)" stroke-opacity="1" stroke-miterlimit="10" d="M 132.85481 87.952954 L 138.684803 87.952954 L 138.684803 82.122961 L 132.85481 82.122961 Z M 132.85481 87.952954 " transform="matrix(0.0971538, 0, 0, -0.0971538, 0.170769, 24.541062)"/>
<path fill-rule="evenodd" fill="rgb(100%, 100%, 100%)" fill-opacity="1" d="M 11.746094 15.996094 L 12.316406 15.996094 L 12.414062 16.5625 L 11.746094 16.5625 L 11.746094 15.996094 "/>
<path fill="none" stroke-width="2.386" stroke-linecap="square" stroke-linejoin="miter" stroke="rgb(100%, 100%, 100%)" stroke-opacity="1" stroke-miterlimit="10" d="M 119.144275 87.952954 L 125.014474 87.952954 L 126.019646 82.122961 L 119.144275 82.122961 Z M 119.144275 87.952954 " transform="matrix(0.0971538, 0, 0, -0.0971538, 0.170769, 24.541062)"/>
<path fill-rule="evenodd" fill="rgb(100%, 100%, 100%)" fill-opacity="1" d="M 24.851562 21.332031 L 25.515625 21.332031 L 25.515625 21.902344 L 24.851562 21.902344 L 24.851562 21.332031 "/>
<path fill="none" stroke-width="2.386" stroke-linecap="square" stroke-linejoin="miter" stroke="rgb(100%, 100%, 100%)" stroke-opacity="1" stroke-miterlimit="10" d="M 254.038252 33.030399 L 260.873416 33.030399 L 260.873416 27.160199 L 254.038252 27.160199 Z M 254.038252 33.030399 " transform="matrix(0.0971538, 0, 0, -0.0971538, 0.170769, 24.541062)"/>
<path fill-rule="evenodd" fill="rgb(100%, 100%, 100%)" fill-opacity="1" d="M 23.523438 21.332031 L 24.1875 21.332031 L 24.1875 21.902344 L 23.523438 21.902344 L 23.523438 21.332031 "/>
<path fill="none" stroke-width="2.386" stroke-linecap="square" stroke-linejoin="miter" stroke="rgb(100%, 100%, 100%)" stroke-opacity="1" stroke-miterlimit="10" d="M 240.367924 33.030399 L 247.203088 33.030399 L 247.203088 27.160199 L 240.367924 27.160199 Z M 240.367924 33.030399 " transform="matrix(0.0971538, 0, 0, -0.0971538, 0.170769, 24.541062)"/>
<path fill-rule="evenodd" fill="rgb(100%, 100%, 100%)" fill-opacity="1" d="M 22.191406 21.332031 L 22.859375 21.332031 L 22.859375 21.902344 L 22.191406 21.902344 L 22.191406 21.332031 "/>
<path fill="none" stroke-width="2.386" stroke-linecap="square" stroke-linejoin="miter" stroke="rgb(100%, 100%, 100%)" stroke-opacity="1" stroke-miterlimit="10" d="M 226.657388 33.030399 L 233.532759 33.030399 L 233.532759 27.160199 L 226.657388 27.160199 Z M 226.657388 33.030399 " transform="matrix(0.0971538, 0, 0, -0.0971538, 0.170769, 24.541062)"/>
<path fill-rule="evenodd" fill="rgb(100%, 100%, 100%)" fill-opacity="1" d="M 20.957031 21.332031 L 21.527344 21.332031 L 21.527344 21.902344 L 20.957031 21.902344 L 20.957031 21.332031 "/>
<path fill="none" stroke-width="2.386" stroke-linecap="square" stroke-linejoin="miter" stroke="rgb(100%, 100%, 100%)" stroke-opacity="1" stroke-miterlimit="10" d="M 213.952024 33.030399 L 219.822224 33.030399 L 219.822224 27.160199 L 213.952024 27.160199 Z M 213.952024 33.030399 " transform="matrix(0.0971538, 0, 0, -0.0971538, 0.170769, 24.541062)"/>
<path fill-rule="evenodd" fill="rgb(100%, 100%, 100%)" fill-opacity="1" d="M 19.628906 21.332031 L 20.199219 21.332031 L 20.199219 21.902344 L 19.628906 21.902344 L 19.628906 21.332031 "/>
<path fill="none" stroke-width="2.386" stroke-linecap="square" stroke-linejoin="miter" stroke="rgb(100%, 100%, 100%)" stroke-opacity="1" stroke-miterlimit="10" d="M 200.281695 33.030399 L 206.151895 33.030399 L 206.151895 27.160199 L 200.281695 27.160199 Z M 200.281695 33.030399 " transform="matrix(0.0971538, 0, 0, -0.0971538, 0.170769, 24.541062)"/>
<path fill-rule="evenodd" fill="rgb(100%, 100%, 100%)" fill-opacity="1" d="M 18.296875 21.332031 L 18.964844 21.332031 L 18.964844 21.902344 L 18.296875 21.902344 L 18.296875 21.332031 "/>
<path fill="none" stroke-width="2.386" stroke-linecap="square" stroke-linejoin="miter" stroke="rgb(100%, 100%, 100%)" stroke-opacity="1" stroke-miterlimit="10" d="M 186.57116 33.030399 L 193.446531 33.030399 L 193.446531 27.160199 L 186.57116 27.160199 Z M 186.57116 33.030399 " transform="matrix(0.0971538, 0, 0, -0.0971538, 0.170769, 24.541062)"/>
<path fill-rule="evenodd" fill="rgb(100%, 100%, 100%)" fill-opacity="1" d="M 16.96875 21.332031 L 17.632812 21.332031 L 17.632812 21.902344 L 16.96875 21.902344 L 16.96875 21.332031 "/>
<path fill="none" stroke-width="2.386" stroke-linecap="square" stroke-linejoin="miter" stroke="rgb(100%, 100%, 100%)" stroke-opacity="1" stroke-miterlimit="10" d="M 172.900831 33.030399 L 179.735996 33.030399 L 179.735996 27.160199 L 172.900831 27.160199 Z M 172.900831 33.030399 " transform="matrix(0.0971538, 0, 0, -0.0971538, 0.170769, 24.541062)"/>
<path fill-rule="evenodd" fill="rgb(100%, 100%, 100%)" fill-opacity="1" d="M 15.640625 21.332031 L 16.304688 21.332031 L 16.304688 21.902344 L 15.640625 21.902344 L 15.640625 21.332031 "/>
<path fill="none" stroke-width="2.386" stroke-linecap="square" stroke-linejoin="miter" stroke="rgb(100%, 100%, 100%)" stroke-opacity="1" stroke-miterlimit="10" d="M 159.230503 33.030399 L 166.065667 33.030399 L 166.065667 27.160199 L 159.230503 27.160199 Z M 159.230503 33.030399 " transform="matrix(0.0971538, 0, 0, -0.0971538, 0.170769, 24.541062)"/>
<path fill-rule="evenodd" fill="rgb(100%, 100%, 100%)" fill-opacity="1" d="M 14.308594 21.332031 L 14.976562 21.332031 L 14.976562 21.902344 L 14.308594 21.902344 L 14.308594 21.332031 "/>
<path fill="none" stroke-width="2.386" stroke-linecap="square" stroke-linejoin="miter" stroke="rgb(100%, 100%, 100%)" stroke-opacity="1" stroke-miterlimit="10" d="M 145.519967 33.030399 L 152.395338 33.030399 L 152.395338 27.160199 L 145.519967 27.160199 Z M 145.519967 33.030399 " transform="matrix(0.0971538, 0, 0, -0.0971538, 0.170769, 24.541062)"/>
<path fill-rule="evenodd" fill="rgb(100%, 100%, 100%)" fill-opacity="1" d="M 13.078125 21.332031 L 13.644531 21.332031 L 13.644531 21.902344 L 13.078125 21.902344 L 13.078125 21.332031 "/>
<path fill="none" stroke-width="2.386" stroke-linecap="square" stroke-linejoin="miter" stroke="rgb(100%, 100%, 100%)" stroke-opacity="1" stroke-miterlimit="10" d="M 132.85481 33.030399 L 138.684803 33.030399 L 138.684803 27.160199 L 132.85481 27.160199 Z M 132.85481 33.030399 " transform="matrix(0.0971538, 0, 0, -0.0971538, 0.170769, 24.541062)"/>
<path fill-rule="evenodd" fill="rgb(100%, 100%, 100%)" fill-opacity="1" d="M 11.746094 21.332031 L 12.414062 21.332031 L 12.414062 21.902344 L 11.746094 21.902344 L 11.746094 21.332031 "/>
<path fill="none" stroke-width="2.386" stroke-linecap="square" stroke-linejoin="miter" stroke="rgb(100%, 100%, 100%)" stroke-opacity="1" stroke-miterlimit="10" d="M 119.144275 33.030399 L 126.019646 33.030399 L 126.019646 27.160199 L 119.144275 27.160199 Z M 119.144275 33.030399 " transform="matrix(0.0971538, 0, 0, -0.0971538, 0.170769, 24.541062)"/>
<path fill-rule="evenodd" fill="rgb(100%, 100%, 100%)" fill-opacity="1" d="M 19.15625 17.421875 L 21.339844 17.421875 L 21.339844 20.472656 L 19.15625 20.472656 L 19.15625 17.421875 "/>
<path fill="none" stroke-width="2.386" stroke-linecap="square" stroke-linejoin="miter" stroke="rgb(100%, 100%, 100%)" stroke-opacity="1" stroke-miterlimit="10" d="M 195.416667 73.277454 L 217.892295 73.277454 L 217.892295 41.875906 L 195.416667 41.875906 Z M 195.416667 73.277454 " transform="matrix(0.0971538, 0, 0, -0.0971538, 0.170769, 24.541062)"/>
<path fill-rule="evenodd" fill="rgb(100%, 100%, 100%)" fill-opacity="1" d="M 15.640625 17.421875 L 17.824219 17.421875 L 17.824219 20.472656 L 15.640625 20.472656 L 15.640625 17.421875 "/>
<path fill="none" stroke-width="2.386" stroke-linecap="square" stroke-linejoin="miter" stroke="rgb(100%, 100%, 100%)" stroke-opacity="1" stroke-miterlimit="10" d="M 159.230503 73.277454 L 181.706131 73.277454 L 181.706131 41.875906 L 159.230503 41.875906 Z M 159.230503 73.277454 " transform="matrix(0.0971538, 0, 0, -0.0971538, 0.170769, 24.541062)"/>
<path fill-rule="evenodd" fill="rgb(100%, 100%, 100%)" fill-opacity="1" d="M 12.222656 17.421875 L 14.308594 17.421875 L 14.308594 20.472656 L 12.222656 20.472656 L 12.222656 17.421875 "/>
<path fill="none" stroke-width="2.386" stroke-linecap="square" stroke-linejoin="miter" stroke="rgb(100%, 100%, 100%)" stroke-opacity="1" stroke-miterlimit="10" d="M 124.04951 73.277454 L 145.519967 73.277454 L 145.519967 41.875906 L 124.04951 41.875906 Z M 124.04951 73.277454 " transform="matrix(0.0971538, 0, 0, -0.0971538, 0.170769, 24.541062)"/>
</svg>
