<?xml version="1.0" encoding="UTF-8"?>
<svg xmlns="http://www.w3.org/2000/svg" xmlns:xlink="http://www.w3.org/1999/xlink" width="26.78" height="27.03" viewBox="0 0 26.78 27.03">
<defs>
<clipPath id="clip-0">
<path clip-rule="nonzero" d="M 0.359375 4 L 22 4 L 22 26 L 0.359375 26 Z M 0.359375 4 "/>
</clipPath>
<clipPath id="clip-1">
<path clip-rule="nonzero" d="M 0.359375 0 L 26.210938 0 L 26.210938 26 L 0.359375 26 Z M 0.359375 0 "/>
</clipPath>
<clipPath id="clip-2">
<path clip-rule="nonzero" d="M 0.359375 0 L 26.210938 0 L 26.210938 26.09375 L 0.359375 26.09375 Z M 0.359375 0 "/>
</clipPath>
<clipPath id="clip-3">
<path clip-rule="nonzero" d="M 21 0 L 26.210938 0 L 26.210938 5 L 21 5 Z M 21 0 "/>
</clipPath>
<clipPath id="clip-4">
<path clip-rule="nonzero" d="M 19 0 L 26.210938 0 L 26.210938 7 L 19 7 Z M 19 0 "/>
</clipPath>
</defs>
<g clip-path="url(#clip-0)">
<path fill-rule="nonzero" fill="rgb(1.179504%, 40.779114%, 59.208679%)" fill-opacity="1" d="M 21.707031 25.636719 L 21.707031 4.421875 L 0.882812 4.421875 L 0.882812 25.636719 L 21.707031 25.636719 "/>
<path fill="none" stroke-width="4" stroke-linecap="butt" stroke-linejoin="miter" stroke="rgb(100%, 100%, 100%)" stroke-opacity="1" stroke-miterlimit="4" d="M 221.154967 4.732806 L 221.154967 224.494414 L 5.439789 224.494414 L 5.439789 4.732806 Z M 221.154967 4.732806 " transform="matrix(0.0965357, 0, 0, -0.0965357, 0.357679, 26.093604)"/>
</g>
<g clip-path="url(#clip-1)">
<path fill-rule="nonzero" fill="rgb(1.179504%, 40.779114%, 59.208679%)" fill-opacity="1" d="M 21.707031 4.421875 L 0.90625 4.421875 L 6.167969 0.191406 L 26.015625 0.191406 L 26.015625 21.28125 L 21.707031 25.625 L 21.707031 4.421875 "/>
</g>
<g clip-path="url(#clip-2)">
<path fill="none" stroke-width="4" stroke-linecap="butt" stroke-linejoin="miter" stroke="rgb(100%, 100%, 100%)" stroke-opacity="1" stroke-miterlimit="4" d="M 221.154967 224.494414 L 5.682575 224.494414 L 60.187986 268.317249 L 265.787088 268.317249 L 265.787088 49.850499 L 221.154967 4.854199 Z M 221.154967 224.494414 " transform="matrix(0.0965357, 0, 0, -0.0965357, 0.357679, 26.093604)"/>
</g>
<g clip-path="url(#clip-3)">
<path fill-rule="nonzero" fill="rgb(1.179504%, 40.779114%, 59.208679%)" fill-opacity="1" d="M 21.707031 4.421875 L 26.015625 0.191406 "/>
</g>
<g clip-path="url(#clip-4)">
<path fill="none" stroke-width="4" stroke-linecap="butt" stroke-linejoin="miter" stroke="rgb(100%, 100%, 100%)" stroke-opacity="1" stroke-miterlimit="4" d="M 221.154967 224.494414 L 265.787088 268.317249 " transform="matrix(0.0965357, 0, 0, -0.0965357, 0.357679, 26.093604)"/>
</g>
<path fill="none" stroke-width="4" stroke-linecap="butt" stroke-linejoin="miter" stroke="rgb(100%, 100%, 100%)" stroke-opacity="1" stroke-miterlimit="4" d="M 35.423835 167.723002 L 209.622642 167.723002 " transform="matrix(0.0965357, 0, 0, -0.0965357, 0.357679, 26.093604)"/>
<path fill="none" stroke-width="4" stroke-linecap="butt" stroke-linejoin="miter" stroke="rgb(100%, 100%, 100%)" stroke-opacity="1" stroke-miterlimit="4" d="M 27.209582 114.471985 L 202.581853 114.471985 " transform="matrix(0.0965357, 0, 0, -0.0965357, 0.357679, 26.093604)"/>
<path fill="none" stroke-width="4" stroke-linecap="butt" stroke-linejoin="miter" stroke="rgb(100%, 100%, 100%)" stroke-opacity="1" stroke-miterlimit="4" d="M 19.440437 63.932075 L 193.720172 63.932075 " transform="matrix(0.0965357, 0, 0, -0.0965357, 0.357679, 26.093604)"/>
<path fill-rule="nonzero" fill="rgb(1.179504%, 40.779114%, 59.208679%)" fill-opacity="1" stroke-width="4" stroke-linecap="butt" stroke-linejoin="miter" stroke="rgb(100%, 100%, 100%)" stroke-opacity="1" stroke-miterlimit="4" d="M 43.314373 34.150351 L 79.24667 199.730263 " transform="matrix(0.0965357, 0, 0, -0.0965357, 0.357679, 26.093604)"/>
<path fill-rule="nonzero" fill="rgb(1.179504%, 40.779114%, 59.208679%)" fill-opacity="1" stroke-width="4" stroke-linecap="butt" stroke-linejoin="miter" stroke="rgb(100%, 100%, 100%)" stroke-opacity="1" stroke-miterlimit="4" d="M 155.117231 34.150351 L 191.049528 199.730263 " transform="matrix(0.0965357, 0, 0, -0.0965357, 0.357679, 26.093604)"/>
<path fill-rule="nonzero" fill="rgb(1.179504%, 40.779114%, 59.208679%)" fill-opacity="1" stroke-width="4" stroke-linecap="butt" stroke-linejoin="miter" stroke="rgb(100%, 100%, 100%)" stroke-opacity="1" stroke-miterlimit="4" d="M 99.19557 35.445209 L 135.127867 200.984656 " transform="matrix(0.0965357, 0, 0, -0.0965357, 0.357679, 26.093604)"/>
<path fill-rule="nonzero" fill="rgb(0%, 0%, 0%)" fill-opacity="1" d="M 8.636719 9.855469 C 8.636719 10.339844 8.046875 10.734375 7.320312 10.734375 C 6.589844 10.734375 6.003906 10.339844 6.003906 9.855469 C 6.003906 9.371094 6.589844 8.976562 7.320312 8.976562 C 8.046875 8.976562 8.636719 9.371094 8.636719 9.855469 "/>
<path fill-rule="nonzero" fill="rgb(0%, 0%, 0%)" fill-opacity="1" d="M 14.089844 9.636719 C 14.089844 10.121094 13.5 10.515625 12.773438 10.515625 C 12.046875 10.515625 11.457031 10.121094 11.457031 9.636719 C 11.457031 9.152344 12.046875 8.757812 12.773438 8.757812 C 13.5 8.757812 14.089844 9.152344 14.089844 9.636719 "/>
<path fill-rule="nonzero" fill="rgb(0%, 0%, 0%)" fill-opacity="1" d="M 19.554688 10.023438 C 19.554688 10.507812 18.964844 10.902344 18.238281 10.902344 C 17.511719 10.902344 16.921875 10.507812 16.921875 10.023438 C 16.921875 9.539062 17.511719 9.144531 18.238281 9.144531 C 18.964844 9.144531 19.554688 9.539062 19.554688 10.023438 "/>
<path fill-rule="nonzero" fill="rgb(0%, 0%, 0%)" fill-opacity="1" d="M 7.394531 15.066406 C 7.394531 15.550781 6.804688 15.945312 6.078125 15.945312 C 5.351562 15.945312 4.761719 15.550781 4.761719 15.066406 C 4.761719 14.582031 5.351562 14.191406 6.078125 14.191406 C 6.804688 14.191406 7.394531 14.582031 7.394531 15.066406 "/>
<path fill-rule="nonzero" fill="rgb(0%, 0%, 0%)" fill-opacity="1" d="M 12.847656 15.234375 C 12.847656 15.71875 12.257812 16.109375 11.53125 16.109375 C 10.804688 16.109375 10.214844 15.71875 10.214844 15.234375 C 10.214844 14.75 10.804688 14.355469 11.53125 14.355469 C 12.257812 14.355469 12.847656 14.75 12.847656 15.234375 "/>
<path fill-rule="nonzero" fill="rgb(0%, 0%, 0%)" fill-opacity="1" d="M 18.316406 14.976562 C 18.316406 15.460938 17.722656 15.855469 17 15.855469 C 16.269531 15.855469 15.679688 15.460938 15.679688 14.976562 C 15.679688 14.492188 16.269531 14.097656 17 14.097656 C 17.722656 14.097656 18.316406 14.492188 18.316406 14.976562 "/>
<path fill-rule="nonzero" fill="rgb(0%, 0%, 0%)" fill-opacity="1" d="M 6.308594 20.019531 C 6.308594 20.503906 5.71875 20.894531 4.992188 20.894531 C 4.261719 20.894531 3.675781 20.503906 3.675781 20.019531 C 3.675781 19.53125 4.261719 19.140625 4.992188 19.140625 C 5.71875 19.140625 6.308594 19.53125 6.308594 20.019531 "/>
<path fill-rule="nonzero" fill="rgb(0%, 0%, 0%)" fill-opacity="1" d="M 11.761719 20.054688 C 11.761719 20.539062 11.171875 20.933594 10.445312 20.933594 C 9.71875 20.933594 9.128906 20.539062 9.128906 20.054688 C 9.128906 19.570312 9.71875 19.175781 10.445312 19.175781 C 11.171875 19.175781 11.761719 19.570312 11.761719 20.054688 "/>
<path fill-rule="nonzero" fill="rgb(0%, 0%, 0%)" fill-opacity="1" d="M 17.226562 20.054688 C 17.226562 20.539062 16.636719 20.933594 15.910156 20.933594 C 15.183594 20.933594 14.59375 20.539062 14.59375 20.054688 C 14.59375 19.570312 15.183594 19.175781 15.910156 19.175781 C 16.636719 19.175781 17.226562 19.570312 17.226562 20.054688 "/>
</svg>
