<?xml version="1.0" encoding="UTF-8"?>
<svg xmlns="http://www.w3.org/2000/svg" xmlns:xlink="http://www.w3.org/1999/xlink" width="54.81" height="20.64" viewBox="0 0 54.81 20.64">
<defs>
<clipPath id="clip-0">
<path clip-rule="nonzero" d="M 0.375 0 L 54 0 L 54 12 L 0.375 12 Z M 0.375 0 "/>
</clipPath>
<clipPath id="clip-1">
<path clip-rule="nonzero" d="M 0.375 0 L 54.246094 0 L 54.246094 15 L 0.375 15 Z M 0.375 0 "/>
</clipPath>
<clipPath id="clip-2">
<path clip-rule="nonzero" d="M 39 0 L 54.246094 0 L 54.246094 20.285156 L 39 20.285156 Z M 39 0 "/>
</clipPath>
<clipPath id="clip-3">
<path clip-rule="nonzero" d="M 21 10 L 37 10 L 37 20.285156 L 21 20.285156 Z M 21 10 "/>
</clipPath>
<clipPath id="clip-4">
<path clip-rule="nonzero" d="M 23 11 L 35 11 L 35 20.285156 L 23 20.285156 Z M 23 11 "/>
</clipPath>
</defs>
<path fill-rule="nonzero" fill="rgb(3.022766%, 50.531006%, 75.683594%)" fill-opacity="1" d="M 42.027344 19.453125 L 42.027344 11.878906 L 1.023438 11.878906 L 1.023438 19.453125 L 42.027344 19.453125 "/>
<path fill-rule="nonzero" fill="rgb(3.022766%, 50.531006%, 75.683594%)" fill-opacity="1" d="M 41.027344 19.109375 L 41.027344 12.925781 L 1.832031 12.925781 L 1.832031 19.109375 L 41.027344 19.109375 "/>
<path fill="none" stroke-width="4" stroke-linecap="butt" stroke-linejoin="miter" stroke="rgb(100%, 100%, 100%)" stroke-opacity="1" stroke-miterlimit="4" d="M 413.599428 11.973219 L 413.599428 74.887691 L 14.809911 74.887691 L 14.809911 11.973219 Z M 413.599428 11.973219 " transform="matrix(0.0982857, 0, 0, -0.0982857, 0.376429, 20.286171)"/>
<g clip-path="url(#clip-0)">
<path fill-rule="nonzero" fill="rgb(3.022766%, 50.531006%, 75.683594%)" fill-opacity="1" d="M 0.929688 11.9375 L 15.113281 0.445312 L 53.769531 0.445312 L 41.996094 11.9375 L 0.929688 11.9375 "/>
</g>
<g clip-path="url(#clip-1)">
<path fill="none" stroke-width="4" stroke-linecap="butt" stroke-linejoin="miter" stroke="rgb(100%, 100%, 100%)" stroke-opacity="1" stroke-miterlimit="4" d="M 5.629088 84.942878 L 149.938908 201.869204 L 543.243777 201.869204 L 423.455896 84.942878 Z M 5.629088 84.942878 " transform="matrix(0.0982857, 0, 0, -0.0982857, 0.376429, 20.286171)"/>
</g>
<path fill-rule="nonzero" fill="rgb(3.022766%, 50.531006%, 75.683594%)" fill-opacity="1" d="M 42.007812 19.8125 L 53.734375 8.132812 L 53.742188 0.464844 L 42.007812 11.921875 L 42.007812 19.8125 "/>
<g clip-path="url(#clip-2)">
<path fill="none" stroke-width="4" stroke-linecap="butt" stroke-linejoin="miter" stroke="rgb(100%, 100%, 100%)" stroke-opacity="1" stroke-miterlimit="4" d="M 423.575127 4.819331 L 542.886083 123.653361 L 542.96557 201.670485 L 423.575127 85.101853 Z M 423.575127 4.819331 " transform="matrix(0.0982857, 0, 0, -0.0982857, 0.376429, 20.286171)"/>
</g>
<path fill-rule="nonzero" fill="rgb(100%, 100%, 100%)" fill-opacity="1" d="M 5.933594 16.898438 L 3.507812 16.898438 L 3.507812 15.054688 L 5.933594 15.054688 L 5.933594 16.898438 "/>
<path fill-rule="nonzero" fill="rgb(100%, 100%, 100%)" fill-opacity="1" d="M 21.660156 16.898438 L 19.234375 16.898438 L 19.234375 15.054688 L 21.660156 15.054688 L 21.660156 16.898438 "/>
<path fill-rule="nonzero" fill="rgb(100%, 100%, 100%)" fill-opacity="1" d="M 40.007812 16.898438 L 37.578125 16.898438 L 37.578125 15.054688 L 40.007812 15.054688 L 40.007812 16.898438 "/>
<path fill-rule="nonzero" fill="rgb(3.022766%, 50.531006%, 75.683594%)" fill-opacity="1" d="M 31.753906 12.839844 C 33.210938 13.472656 34.175781 14.566406 34.175781 15.8125 C 34.175781 17.769531 31.789062 19.355469 28.851562 19.355469 C 25.910156 19.355469 23.527344 17.769531 23.527344 15.8125 C 23.527344 13.855469 25.910156 12.269531 28.851562 12.269531 C 29.921875 12.269531 30.917969 12.480469 31.753906 12.839844 "/>
<g clip-path="url(#clip-3)">
<path fill="none" stroke-width="3.731" stroke-linecap="butt" stroke-linejoin="miter" stroke="rgb(100%, 100%, 100%)" stroke-opacity="1" stroke-miterlimit="4" d="M 319.247593 75.762055 C 334.072039 69.323556 343.888763 58.195285 343.888763 45.517006 C 343.888763 25.605351 319.605287 9.469359 289.717932 9.469359 C 259.790834 9.469359 235.547102 25.605351 235.547102 45.517006 C 235.547102 65.428661 259.790834 81.564653 289.717932 81.564653 C 300.60774 81.564653 310.742415 79.418487 319.247593 75.762055 " transform="matrix(0.0982857, 0, 0, -0.0982857, 0.376429, 20.286171)"/>
</g>
<path fill-rule="nonzero" fill="rgb(100%, 100%, 100%)" fill-opacity="1" d="M 32.882812 15.792969 C 32.882812 17.261719 31.097656 18.453125 28.890625 18.453125 C 26.6875 18.453125 24.898438 17.261719 24.898438 15.792969 C 24.898438 14.328125 26.6875 13.136719 28.890625 13.136719 C 31.097656 13.136719 32.882812 14.328125 32.882812 15.792969 "/>
<g clip-path="url(#clip-4)">
<path fill="none" stroke-width="2.798" stroke-linecap="butt" stroke-linejoin="miter" stroke="rgb(100%, 100%, 100%)" stroke-opacity="1" stroke-miterlimit="4" d="M 330.733557 45.715725 C 330.733557 30.772048 312.57063 18.650182 290.115371 18.650182 C 267.699855 18.650182 249.497184 30.772048 249.497184 45.715725 C 249.497184 60.619658 267.699855 72.741524 290.115371 72.741524 C 312.57063 72.741524 330.733557 60.619658 330.733557 45.715725 Z M 330.733557 45.715725 " transform="matrix(0.0982857, 0, 0, -0.0982857, 0.376429, 20.286171)"/>
</g>
</svg>
