<?xml version="1.0" encoding="UTF-8"?>
<svg xmlns="http://www.w3.org/2000/svg" xmlns:xlink="http://www.w3.org/1999/xlink" width="26.55" height="41.18" viewBox="0 0 26.55 41.18">
<defs>
<clipPath id="clip-0">
<path clip-rule="nonzero" d="M 0.0390625 4 L 10 4 L 10 11 L 0.0390625 11 Z M 0.0390625 4 "/>
</clipPath>
<clipPath id="clip-1">
<path clip-rule="nonzero" d="M 9 27 L 26 27 L 26 40.277344 L 9 40.277344 Z M 9 27 "/>
</clipPath>
<clipPath id="clip-2">
<path clip-rule="nonzero" d="M 15 11 L 26.070312 11 L 26.070312 29 L 15 29 Z M 15 11 "/>
</clipPath>
</defs>
<g clip-path="url(#clip-0)">
<path fill-rule="nonzero" fill="rgb(1.176453%, 41.175842%, 59.605408%)" fill-opacity="1" d="M 6.992188 4.707031 L 0.398438 4.550781 L 0.0390625 4.859375 L 1.929688 10.585938 L 8.933594 10.226562 L 9.242188 9.871094 L 6.992188 4.707031 "/>
</g>
<path fill-rule="nonzero" fill="rgb(1.176453%, 41.175842%, 59.605408%)" fill-opacity="1" d="M 15.632812 0.00390625 L 18.121094 2.046875 L 17.824219 2.84375 L 18.023438 3.941406 L 18.421875 5.035156 L 20.847656 6.085938 L 21.460938 4.808594 L 20.796875 4.296875 L 20.949219 3.121094 L 19.464844 0.257812 L 15.632812 0.00390625 "/>
<path fill-rule="nonzero" fill="rgb(1.176453%, 41.175842%, 59.605408%)" fill-opacity="1" d="M 15.828125 1.050781 L 15.019531 2.25 L 14.8125 3.480469 L 14.097656 1.742188 L 15.828125 1.050781 "/>
<path fill-rule="nonzero" fill="rgb(1.176453%, 41.175842%, 59.605408%)" fill-opacity="1" d="M 15.171875 1.6875 L 15.480469 2.097656 L 15.835938 2.148438 L 15.683594 1.84375 L 15.886719 1.433594 L 16.09375 1.84375 L 16.296875 2.25 L 16.757812 2.457031 L 16.757812 2.046875 L 16.960938 1.6875 L 17.167969 2.097656 L 17.625 2.355469 L 17.675781 1.996094 L 18.238281 1.945312 L 16.195312 0.257812 L 15.121094 0.308594 L 14.761719 0.667969 L 15.171875 1.6875 "/>
<path fill-rule="nonzero" fill="rgb(1.176453%, 41.175842%, 59.605408%)" fill-opacity="1" d="M 14.863281 3.273438 L 14.917969 3.785156 L 14.917969 5.214844 L 14.199219 5.167969 L 13.84375 4.757812 L 14.148438 4.195312 L 14.25 3.683594 L 14.660156 2.8125 L 14.863281 3.273438 "/>
<path fill-rule="nonzero" fill="rgb(1.176453%, 41.175842%, 59.605408%)" fill-opacity="1" d="M 9.394531 10.429688 L 2.238281 10.941406 L 1.929688 11.351562 L 2.035156 12.167969 L 5.304688 13.601562 L 12.460938 12.78125 L 12.566406 11.863281 L 9.394531 10.429688 "/>
<path fill-rule="nonzero" fill="rgb(1.176453%, 41.175842%, 59.605408%)" fill-opacity="1" d="M 8.371094 9.253906 L 2.75 9.5625 L 1.214844 5.269531 L 6.683594 5.269531 L 8.371094 9.253906 "/>
<path fill-rule="nonzero" fill="rgb(1.176453%, 41.175842%, 59.605408%)" fill-opacity="1" d="M 8.269531 13.394531 L 7.605469 12.273438 L 6.734375 11.554688 L 6.683594 11.914062 L 5.40625 11.351562 L 5.5625 11.761719 L 4.742188 11.453125 L 5.050781 11.964844 L 4.589844 11.914062 L 5.050781 12.679688 L 5.609375 13.191406 L 7.246094 14.011719 L 8.269531 13.394531 "/>
<path fill-rule="nonzero" fill="rgb(1.176453%, 41.175842%, 59.605408%)" fill-opacity="1" d="M 9.871094 20.449219 L 7.058594 20.988281 L 6.367188 22.007812 L 6.421875 23.761719 L 8.023438 30.636719 L 7.996094 33.316406 L 6.960938 34.925781 L 9.257812 34.890625 L 10.378906 34.050781 L 10.878906 33.898438 L 10.917969 32.535156 L 10.140625 31.195312 L 9.902344 30.027344 L 10.054688 26.804688 L 9.789062 24.878906 L 9.871094 20.449219 "/>
<path fill-rule="nonzero" fill="rgb(1.176453%, 41.175842%, 59.605408%)" fill-opacity="1" d="M 10.714844 32.035156 L 10.222656 32.074219 L 9.488281 32.816406 L 8.40625 34.097656 L 7.472656 34.285156 L 7.816406 33.75 L 6.914062 34.652344 L 5.46875 35.320312 L 5.570312 35.59375 L 7.089844 35.914062 L 8.40625 35.957031 L 9.234375 35.601562 L 9.820312 34.46875 L 10.257812 36.125 L 10.421875 36.128906 L 11.144531 34.074219 L 11.128906 32.8125 L 10.714844 32.035156 "/>
<path fill-rule="nonzero" fill="rgb(1.176453%, 41.175842%, 59.605408%)" fill-opacity="1" d="M 13.488281 20.289062 L 10.078125 20.839844 L 9.605469 21.917969 L 9.359375 22.785156 L 11.882812 29.664062 L 11.855469 32.34375 L 10.820312 33.953125 L 13.121094 33.914062 L 14.242188 33.074219 L 14.738281 32.925781 L 14.78125 31.558594 L 14 30.222656 L 13.761719 29.054688 L 13.917969 25.828125 L 13.648438 23.90625 L 13.488281 20.289062 "/>
<path fill-rule="nonzero" fill="rgb(1.176453%, 41.175842%, 59.605408%)" fill-opacity="1" d="M 14.578125 31.058594 L 14.082031 31.097656 L 13.351562 31.84375 L 12.269531 33.121094 L 11.332031 33.3125 L 11.679688 32.777344 L 10.773438 33.675781 L 9.332031 34.34375 L 9.429688 34.621094 L 10.953125 34.941406 L 12.265625 34.984375 L 13.097656 34.625 L 13.679688 33.496094 L 14.121094 35.148438 L 14.285156 35.15625 L 15.007812 33.097656 L 14.992188 31.839844 L 14.578125 31.058594 "/>
<path fill-rule="nonzero" fill="rgb(1.176453%, 41.175842%, 59.605408%)" fill-opacity="1" d="M 18.902344 6.648438 L 16.347656 7.464844 L 13.792969 7.671875 L 11.746094 8.386719 L 11.234375 9.203125 L 11.847656 12.476562 L 11.03125 13.703125 L 10.417969 13.703125 L 10.109375 14.214844 L 8.882812 13.292969 L 7.859375 13.292969 L 6.839844 14.113281 L 7.246094 15.542969 L 10.109375 17.484375 L 12.257812 17.792969 L 13.28125 16.976562 L 12.15625 19.941406 L 9.804688 20.554688 L 8.882812 22.699219 L 9.804688 25.257812 L 14.710938 26.175781 L 17.574219 26.484375 L 20.027344 26.175781 L 21.359375 25.15625 L 21.765625 23.929688 L 21.871094 22.90625 L 22.480469 22.1875 L 21.664062 19.835938 L 21.460938 17.382812 L 22.175781 17.484375 L 23.300781 16.976562 L 24.425781 9.410156 L 23.710938 8.183594 L 21.359375 7.160156 L 18.902344 6.648438 "/>
<path fill-rule="nonzero" fill="rgb(1.176453%, 41.175842%, 59.605408%)" fill-opacity="1" d="M 15.039062 1.546875 L 16.183594 1.140625 L 18.46875 1.875 L 18.960938 5.308594 L 18.714844 6.859375 L 16.019531 7.511719 L 14.792969 6.125 L 14.546875 4.082031 L 15.039062 1.546875 "/>
<path fill-rule="nonzero" fill="rgb(1.176453%, 41.175842%, 59.605408%)" fill-opacity="1" d="M 21.847656 23.070312 L 20.929688 22.582031 L 20.011719 23.5625 L 17.191406 23.992188 L 14.371094 22.886719 L 12.15625 19.941406 L 9.804688 20.554688 L 8.882812 22.699219 L 9.804688 25.257812 L 16.578125 26.441406 L 20.027344 26.175781 L 21.359375 25.15625 L 21.847656 23.070312 "/>
<path fill-rule="nonzero" fill="rgb(1.176453%, 41.175842%, 59.605408%)" fill-opacity="1" d="M 14.917969 5.113281 L 15.582031 6.445312 L 15.992188 6.800781 L 16.398438 7.007812 L 16.550781 8.027344 L 15.582031 8.539062 L 15.171875 8.695312 L 13.742188 8.847656 L 13.023438 8.589844 L 12.667969 7.925781 L 13.125 8.027344 L 13.433594 7.773438 L 12.921875 7.570312 L 12.617188 7.210938 L 12.617188 6.75 L 13.023438 7.007812 L 13.640625 6.851562 L 13.382812 6.648438 L 13.28125 6.289062 L 13.894531 6.238281 L 14.046875 5.832031 L 13.945312 5.472656 L 14.40625 4.707031 L 14.917969 5.113281 "/>
<path fill-rule="nonzero" fill="rgb(1.176453%, 41.175842%, 59.605408%)" fill-opacity="1" d="M 18.601562 5.195312 L 18.652344 5.65625 L 18.449219 5.910156 L 18.089844 5.910156 L 18.292969 6.164062 L 18.652344 6.21875 L 18.601562 6.574219 L 18.292969 6.78125 L 17.832031 6.730469 L 18.039062 7.085938 L 18.496094 7.238281 L 18.90625 7.035156 L 18.855469 7.496094 L 18.652344 7.957031 L 18.191406 8.109375 L 18.601562 8.363281 L 19.214844 8.261719 L 19.058594 8.722656 L 19.058594 9.234375 L 19.417969 9.082031 L 19.777344 8.671875 L 20.03125 8.976562 L 20.542969 9.234375 L 21.308594 9.488281 L 22.179688 9.640625 L 22.84375 9.285156 L 22.996094 8.875 L 22.535156 8.925781 L 22.078125 8.773438 L 22.433594 8.621094 L 22.691406 8.3125 L 22.945312 7.75 L 22.640625 7.394531 L 22.484375 7.75 L 22.179688 7.957031 L 22.128906 7.496094 L 22.230469 7.085938 L 21.871094 7.1875 L 21.410156 7.085938 L 21.566406 6.625 L 21.769531 6.269531 L 21.71875 5.757812 L 21.515625 5.960938 L 21.207031 6.0625 L 20.746094 5.960938 L 20.902344 5.65625 L 20.953125 5.195312 L 20.695312 4.988281 L 20.59375 5.246094 L 20.289062 5.144531 L 20.289062 4.582031 L 19.265625 4.582031 L 18.601562 5.195312 "/>
<path fill-rule="nonzero" fill="rgb(1.176453%, 41.175842%, 59.605408%)" fill-opacity="1" d="M 18.722656 8.730469 L 18.050781 9.527344 L 17.128906 8.609375 C 17.128906 8.609375 16.699219 9.773438 16.394531 9.40625 L 16.273438 8.671875 L 15.71875 9.097656 C 15.71875 9.097656 14.433594 9.34375 14.738281 9.097656 C 15.046875 8.855469 15.046875 8.363281 15.046875 8.363281 L 16.882812 6.402344 L 19.398438 6.527344 L 18.722656 8.730469 "/>
<g clip-path="url(#clip-1)">
<path fill-rule="nonzero" fill="rgb(1.176453%, 41.175842%, 59.605408%)" fill-opacity="1" d="M 16.90625 27.113281 L 16.792969 31.523438 L 10.816406 32.871094 C 9.882812 32.65625 9.601562 33.824219 9.601562 33.824219 L 9.566406 34.644531 L 10.039062 34.664062 L 10.007812 35.429688 C 10.445312 36.269531 11.242188 35.476562 11.242188 35.476562 L 11.28125 34.539062 L 16.09375 32.851562 L 11.796875 36.011719 C 11.039062 37.273438 11.640625 38.476562 11.640625 38.476562 C 11.007812 39.570312 12.035156 40.375 12.035156 40.375 C 13.417969 41.136719 13.429688 39.429688 13.429688 39.429688 C 13.644531 38.4375 12.644531 38.398438 12.644531 38.398438 L 12.375 37.796875 L 17.601562 33.382812 L 23.691406 37.488281 L 23.957031 38.207031 C 23.257812 39.589844 24.414062 40.105469 24.414062 40.105469 C 26.046875 40.464844 25.460938 38.96875 25.460938 38.96875 C 25.550781 38.148438 24.902344 38.125 24.902344 38.125 L 24.453125 37.578125 C 24.453125 37.578125 24.035156 37.738281 24.523438 37.34375 C 25.007812 36.953125 24.699219 35.820312 24.699219 35.820312 L 19.042969 32.613281 L 23.140625 33.675781 L 23.945312 34.238281 C 23.890625 35.589844 24.847656 35.214844 24.847656 35.214844 C 25.847656 35.253906 25.300781 34.175781 25.300781 34.175781 C 24.957031 33.867188 24.496094 33.671875 24.496094 33.671875 L 24.082031 32.824219 L 21.734375 32.15625 L 18.199219 31.496094 L 18.300781 27.582031 "/>
</g>
<path fill-rule="nonzero" fill="rgb(1.176453%, 41.175842%, 59.605408%)" fill-opacity="1" d="M 15.496094 28.296875 L 7.605469 25.59375 C 7.082031 25.054688 7.757812 24.101562 7.757812 24.101562 L 15.539062 26.570312 "/>
<g clip-path="url(#clip-2)">
<path fill-rule="nonzero" fill="rgb(1.176453%, 41.175842%, 59.605408%)" fill-opacity="1" d="M 21.148438 26.375 L 15.675781 28.433594 L 15.734375 23.726562 C 19.792969 13.257812 20.441406 13.316406 20.441406 13.316406 C 21.792969 12.550781 22.148438 12.492188 22.148438 12.492188 C 24.089844 12.609375 24.78125 11.910156 24.78125 11.910156 C 25.425781 11.378906 26.074219 12.144531 26.074219 12.144531 L 21.148438 26.375 "/>
</g>
</svg>
