<?xml version="1.0" encoding="UTF-8"?>
<svg xmlns="http://www.w3.org/2000/svg" xmlns:xlink="http://www.w3.org/1999/xlink" width="27.25" height="32.14" viewBox="0 0 27.25 32.14">
<defs>
<clipPath id="clip-0">
<path clip-rule="nonzero" d="M 4 0.0507812 L 23 0.0507812 L 23 4 L 4 4 Z M 4 0.0507812 "/>
</clipPath>
<clipPath id="clip-1">
<path clip-rule="nonzero" d="M 19 0.0507812 L 23 0.0507812 L 23 31 L 19 31 Z M 19 0.0507812 "/>
</clipPath>
<clipPath id="clip-2">
<path clip-rule="nonzero" d="M 4 0.0507812 L 23 0.0507812 L 23 4 L 4 4 Z M 4 0.0507812 "/>
</clipPath>
<clipPath id="clip-3">
<path clip-rule="nonzero" d="M 1 0.0507812 L 25 0.0507812 L 25 6 L 1 6 Z M 1 0.0507812 "/>
</clipPath>
<clipPath id="clip-4">
<path clip-rule="nonzero" d="M 19 0.0507812 L 23 0.0507812 L 23 31 L 19 31 Z M 19 0.0507812 "/>
</clipPath>
<clipPath id="clip-5">
<path clip-rule="nonzero" d="M 17 0.0507812 L 25 0.0507812 L 25 31.195312 L 17 31.195312 Z M 17 0.0507812 "/>
</clipPath>
<clipPath id="clip-6">
<path clip-rule="nonzero" d="M 1 0.0507812 L 25 0.0507812 L 25 6 L 1 6 Z M 1 0.0507812 "/>
</clipPath>
<clipPath id="clip-7">
<path clip-rule="nonzero" d="M 17 0.0507812 L 25 0.0507812 L 25 31.195312 L 17 31.195312 Z M 17 0.0507812 "/>
</clipPath>
<clipPath id="clip-8">
<path clip-rule="nonzero" d="M 19 20 L 26.277344 20 L 26.277344 29 L 19 29 Z M 19 20 "/>
</clipPath>
<clipPath id="clip-9">
<path clip-rule="nonzero" d="M 21 7 L 26.277344 7 L 26.277344 15 L 21 15 Z M 21 7 "/>
</clipPath>
<clipPath id="clip-10">
<path clip-rule="nonzero" d="M 19 5 L 26.277344 5 L 26.277344 17 L 19 17 Z M 19 5 "/>
</clipPath>
<clipPath id="clip-11">
<path clip-rule="nonzero" d="M 12 10 L 26.277344 10 L 26.277344 23 L 12 23 Z M 12 10 "/>
</clipPath>
<clipPath id="clip-12">
<path clip-rule="nonzero" d="M 10 8 L 26.277344 8 L 26.277344 25 L 10 25 Z M 10 8 "/>
</clipPath>
</defs>
<path fill-rule="nonzero" fill="rgb(100%, 100%, 100%)" fill-opacity="1" stroke-width="4" stroke-linecap="butt" stroke-linejoin="miter" stroke="rgb(0.784302%, 42.352295%, 60.78186%)" stroke-opacity="1" stroke-miterlimit="4" d="M 50.65367 84.791284 L 43.428899 84.791284 C 7.305046 84.791284 2.006881 117.262615 2.006881 117.262615 L 2.006881 83.506881 C 2.006881 83.506881 7.305046 51.03555 43.428899 51.03555 L 50.051606 51.03555 " transform="matrix(0.0973214, 0, 0, -0.0973214, 0, 31.291071)"/>
<path fill-rule="nonzero" fill="rgb(0.784302%, 42.352295%, 60.78186%)" fill-opacity="1" d="M 4.179688 30.546875 L 19.910156 30.546875 L 19.910156 3.117188 L 4.179688 3.117188 Z M 4.179688 30.546875 "/>
<g clip-path="url(#clip-0)">
<path fill-rule="nonzero" fill="rgb(0.784302%, 42.352295%, 60.78186%)" fill-opacity="1" d="M 4.179688 3.117188 L 7.1875 0.675781 L 22.351562 0.675781 L 19.910156 3.117188 L 4.179688 3.117188 "/>
</g>
<g clip-path="url(#clip-1)">
<path fill-rule="nonzero" fill="rgb(0.784302%, 42.352295%, 60.78186%)" fill-opacity="1" d="M 19.910156 30.546875 L 22.351562 27.542969 L 22.351562 0.675781 L 19.910156 3.117188 L 19.910156 30.546875 "/>
</g>
<path fill-rule="nonzero" fill="rgb(0.784302%, 42.352295%, 60.78186%)" fill-opacity="1" d="M 4.179688 30.546875 L 19.910156 30.546875 L 19.910156 3.117188 L 4.179688 3.117188 Z M 4.179688 30.546875 "/>
<path fill="none" stroke-width="4" stroke-linecap="butt" stroke-linejoin="miter" stroke="rgb(100%, 100%, 100%)" stroke-opacity="1" stroke-miterlimit="4" d="M 204.581422 7.646789 L 204.581422 289.493119 L 42.947248 289.493119 L 42.947248 7.646789 Z M 204.581422 7.646789 " transform="matrix(0.0973214, 0, 0, -0.0973214, 0, 31.291071)"/>
<g clip-path="url(#clip-2)">
<path fill-rule="nonzero" fill="rgb(0.784302%, 42.352295%, 60.78186%)" fill-opacity="1" d="M 4.179688 3.117188 L 7.1875 0.675781 L 22.351562 0.675781 L 19.910156 3.117188 L 4.179688 3.117188 "/>
</g>
<g clip-path="url(#clip-3)">
<path fill="none" stroke-width="4" stroke-linecap="butt" stroke-linejoin="miter" stroke="rgb(100%, 100%, 100%)" stroke-opacity="1" stroke-miterlimit="4" d="M 42.947248 289.493119 L 73.853211 314.579128 L 229.667431 314.579128 L 204.581422 289.493119 Z M 42.947248 289.493119 " transform="matrix(0.0973214, 0, 0, -0.0973214, 0, 31.291071)"/>
</g>
<g clip-path="url(#clip-4)">
<path fill-rule="nonzero" fill="rgb(0.784302%, 42.352295%, 60.78186%)" fill-opacity="1" d="M 19.910156 30.546875 L 22.351562 27.542969 L 22.351562 0.675781 L 19.910156 3.117188 L 19.910156 30.546875 "/>
</g>
<g clip-path="url(#clip-5)">
<path fill="none" stroke-width="4" stroke-linecap="butt" stroke-linejoin="miter" stroke="rgb(100%, 100%, 100%)" stroke-opacity="1" stroke-miterlimit="4" d="M 204.581422 7.646789 L 229.667431 38.512615 L 229.667431 314.579128 L 204.581422 289.493119 Z M 204.581422 7.646789 " transform="matrix(0.0973214, 0, 0, -0.0973214, 0, 31.291071)"/>
</g>
<path fill="none" stroke-width="4" stroke-linecap="butt" stroke-linejoin="miter" stroke="rgb(100%, 100%, 100%)" stroke-opacity="1" stroke-miterlimit="4" d="M 204.581422 7.646789 L 204.581422 289.493119 L 42.947248 289.493119 L 42.947248 7.646789 Z M 204.581422 7.646789 " transform="matrix(0.0973214, 0, 0, -0.0973214, 0, 31.291071)"/>
<g clip-path="url(#clip-6)">
<path fill="none" stroke-width="4" stroke-linecap="butt" stroke-linejoin="miter" stroke="rgb(100%, 100%, 100%)" stroke-opacity="1" stroke-miterlimit="4" d="M 42.947248 289.493119 L 73.853211 314.579128 L 229.667431 314.579128 L 204.581422 289.493119 Z M 42.947248 289.493119 " transform="matrix(0.0973214, 0, 0, -0.0973214, 0, 31.291071)"/>
</g>
<g clip-path="url(#clip-7)">
<path fill="none" stroke-width="4" stroke-linecap="butt" stroke-linejoin="miter" stroke="rgb(100%, 100%, 100%)" stroke-opacity="1" stroke-miterlimit="4" d="M 204.581422 7.646789 L 229.667431 38.512615 L 229.667431 314.579128 L 204.581422 289.493119 Z M 204.581422 7.646789 " transform="matrix(0.0973214, 0, 0, -0.0973214, 0, 31.291071)"/>
</g>
<path fill-rule="nonzero" fill="rgb(100%, 100%, 100%)" fill-opacity="1" d="M 22.144531 26.253906 L 25.65625 26.253906 L 25.65625 22.960938 L 22.144531 22.972656 "/>
<g clip-path="url(#clip-8)">
<path fill="none" stroke-width="4" stroke-linecap="butt" stroke-linejoin="miter" stroke="rgb(0.784302%, 42.352295%, 60.78186%)" stroke-opacity="1" stroke-miterlimit="4" d="M 227.540138 51.758028 L 263.623853 51.758028 L 263.623853 85.594037 L 227.540138 85.473624 " transform="matrix(0.0973214, 0, 0, -0.0973214, 0, 31.291071)"/>
</g>
<path fill-rule="nonzero" fill="rgb(100%, 100%, 100%)" fill-opacity="1" stroke-width="4" stroke-linecap="butt" stroke-linejoin="miter" stroke="rgb(0.784302%, 42.352295%, 60.78186%)" stroke-opacity="1" stroke-miterlimit="4" d="M 49.409404 241.729358 L 8.428899 241.729358 L 8.428899 207.893349 L 44.512615 207.973624 L 48.807339 207.973624 " transform="matrix(0.0973214, 0, 0, -0.0973214, 0, 31.291071)"/>
<g clip-path="url(#clip-9)">
<path fill-rule="nonzero" fill="rgb(100%, 100%, 100%)" fill-opacity="1" d="M 21.78125 11.050781 L 22.25 11.050781 C 25.765625 11.050781 26.328125 14.210938 26.328125 14.210938 L 26.328125 10.925781 C 26.328125 10.925781 25.765625 7.765625 22.25 7.765625 L 21.476562 7.765625 "/>
</g>
<g clip-path="url(#clip-10)">
<path fill="none" stroke-width="4" stroke-linecap="butt" stroke-linejoin="miter" stroke="rgb(0.784302%, 42.352295%, 60.78186%)" stroke-opacity="1" stroke-miterlimit="4" d="M 223.807339 207.973624 L 228.623853 207.973624 C 264.747706 207.973624 270.527523 175.502294 270.527523 175.502294 L 270.527523 209.258028 C 270.527523 209.258028 264.747706 241.729358 228.623853 241.729358 L 220.676606 241.729358 " transform="matrix(0.0973214, 0, 0, -0.0973214, 0, 31.291071)"/>
</g>
<g clip-path="url(#clip-11)">
<path fill-rule="nonzero" fill="rgb(100%, 100%, 100%)" fill-opacity="1" d="M 26.328125 10.746094 L 26.328125 14.636719 C 25.945312 19.261719 17.746094 19.015625 17.746094 19.015625 L 17.746094 22.421875 L 12.394531 17.070312 L 17.746094 11.71875 L 17.746094 15.125 C 17.746094 15.125 26.082031 15.367188 26.328125 10.746094 "/>
</g>
<g clip-path="url(#clip-12)">
<path fill="none" stroke-width="4" stroke-linecap="butt" stroke-linejoin="miter" stroke="rgb(0.784302%, 42.352295%, 60.78186%)" stroke-opacity="1" stroke-miterlimit="4" d="M 270.527523 211.104358 L 270.527523 171.127294 C 266.594037 123.604358 182.345183 126.133028 182.345183 126.133028 L 182.345183 91.133028 L 127.356651 146.12156 L 182.345183 201.110092 L 182.345183 166.110092 C 182.345183 166.110092 267.998853 163.62156 270.527523 211.104358 " transform="matrix(0.0973214, 0, 0, -0.0973214, 0, 31.291071)"/>
</g>
<path fill-rule="nonzero" fill="rgb(100%, 100%, 100%)" fill-opacity="1" stroke-width="4" stroke-linecap="butt" stroke-linejoin="miter" stroke="rgb(0.784302%, 42.352295%, 60.78186%)" stroke-opacity="1" stroke-miterlimit="4" d="M 2.207569 81.66055 L 2.207569 121.637615 C 4.696101 169.16055 62.173165 166.631881 62.173165 166.631881 L 62.173165 201.631881 L 117.201835 146.643349 L 62.173165 91.654817 L 62.173165 126.654817 C 62.173165 126.654817 4.696101 129.143349 2.207569 81.66055 " transform="matrix(0.0973214, 0, 0, -0.0973214, 0, 31.291071)"/>
</svg>
