<?xml version="1.0" encoding="UTF-8"?>
<svg xmlns="http://www.w3.org/2000/svg" xmlns:xlink="http://www.w3.org/1999/xlink" width="29.37" height="26.92" viewBox="0 0 29.37 26.92">
<defs>
<clipPath id="clip-0">
<path clip-rule="nonzero" d="M 4 15 L 28.390625 15 L 28.390625 24 L 4 24 Z M 4 15 "/>
</clipPath>
<clipPath id="clip-1">
<path clip-rule="nonzero" d="M 2 13 L 28.390625 13 L 28.390625 26 L 2 26 Z M 2 13 "/>
</clipPath>
<clipPath id="clip-2">
<path clip-rule="nonzero" d="M 4 15 L 28.390625 15 L 28.390625 17 L 4 17 Z M 4 15 "/>
</clipPath>
<clipPath id="clip-3">
<path clip-rule="nonzero" d="M 25 15 L 28.390625 15 L 28.390625 20 L 25 20 Z M 25 15 "/>
</clipPath>
<clipPath id="clip-4">
<path clip-rule="nonzero" d="M 22 13 L 28.390625 13 L 28.390625 22 L 22 22 Z M 22 13 "/>
</clipPath>
<clipPath id="clip-5">
<path clip-rule="nonzero" d="M 4 0.261719 L 28.390625 0.261719 L 28.390625 20 L 4 20 Z M 4 0.261719 "/>
</clipPath>
<clipPath id="clip-6">
<path clip-rule="nonzero" d="M 2 0.261719 L 28.390625 0.261719 L 28.390625 22 L 2 22 Z M 2 0.261719 "/>
</clipPath>
<clipPath id="clip-7">
<path clip-rule="nonzero" d="M 25 0.261719 L 28.390625 0.261719 L 28.390625 4 L 25 4 Z M 25 0.261719 "/>
</clipPath>
<clipPath id="clip-8">
<path clip-rule="nonzero" d="M 22 0.261719 L 28.390625 0.261719 L 28.390625 7 L 22 7 Z M 22 0.261719 "/>
</clipPath>
<clipPath id="clip-9">
<path clip-rule="nonzero" d="M 0 21 L 27 21 L 27 26.597656 L 0 26.597656 Z M 0 21 "/>
</clipPath>
<clipPath id="clip-10">
<path clip-rule="nonzero" d="M 0 18 L 28.390625 18 L 28.390625 26.597656 L 0 26.597656 Z M 0 18 "/>
</clipPath>
<clipPath id="clip-11">
<path clip-rule="nonzero" d="M 0 23 L 25 23 L 25 26.597656 L 0 26.597656 Z M 0 23 "/>
</clipPath>
<clipPath id="clip-12">
<path clip-rule="nonzero" d="M 21 18 L 28.390625 18 L 28.390625 26.597656 L 21 26.597656 Z M 21 18 "/>
</clipPath>
</defs>
<path fill-rule="nonzero" fill="rgb(1.176453%, 41.175842%, 59.605408%)" fill-opacity="1" d="M 4.570312 23.320312 L 25.085938 23.320312 L 25.085938 19.480469 L 4.570312 19.480469 Z M 4.570312 23.320312 "/>
<path fill="none" stroke-width="3.99994" stroke-linecap="butt" stroke-linejoin="miter" stroke="rgb(100%, 100%, 100%)" stroke-opacity="1" stroke-miterlimit="4" d="M 46.683478 33.481793 L 46.683478 72.703894 L 256.240424 72.703894 L 256.240424 33.481793 Z M 46.683478 33.481793 " transform="matrix(0.0979, 0, 0, -0.0979, 0, 26.59818)"/>
<g clip-path="url(#clip-0)">
<path fill-rule="nonzero" fill="rgb(1.176453%, 41.175842%, 59.605408%)" fill-opacity="1" d="M 28.558594 15.980469 L 28.558594 19.859375 L 25.085938 23.359375 L 25.085938 19.480469 L 4.554688 19.480469 "/>
</g>
<g clip-path="url(#clip-1)">
<path fill="none" stroke-width="3.99994" stroke-linecap="butt" stroke-linejoin="miter" stroke="rgb(100%, 100%, 100%)" stroke-opacity="1" stroke-miterlimit="4" d="M 291.711887 108.45466 L 291.711887 68.833555 L 256.240424 33.082789 L 256.240424 72.703894 L 46.523876 72.703894 " transform="matrix(0.0979, 0, 0, -0.0979, 0, 26.59818)"/>
</g>
<g clip-path="url(#clip-2)">
<path fill="none" stroke-width="3.99994" stroke-linecap="butt" stroke-linejoin="miter" stroke="rgb(100%, 100%, 100%)" stroke-opacity="1" stroke-miterlimit="4" d="M 48.159793 108.45466 L 291.711887 108.45466 " transform="matrix(0.0979, 0, 0, -0.0979, 0, 26.59818)"/>
</g>
<g clip-path="url(#clip-3)">
<path fill-rule="nonzero" fill="rgb(1.176453%, 41.175842%, 59.605408%)" fill-opacity="1" d="M 25.085938 19.480469 L 28.558594 15.980469 "/>
</g>
<g clip-path="url(#clip-4)">
<path fill="none" stroke-width="3.99994" stroke-linecap="butt" stroke-linejoin="miter" stroke="rgb(100%, 100%, 100%)" stroke-opacity="1" stroke-miterlimit="4" d="M 256.240424 72.703894 L 291.711887 108.45466 " transform="matrix(0.0979, 0, 0, -0.0979, 0, 26.59818)"/>
</g>
<path fill-rule="nonzero" fill="rgb(1.176453%, 41.175842%, 59.605408%)" fill-opacity="1" d="M 4.554688 19.402344 L 25.058594 19.402344 L 25.058594 3.941406 L 4.554688 3.941406 Z M 4.554688 19.402344 "/>
<path fill="none" stroke-width="3.99994" stroke-linecap="butt" stroke-linejoin="miter" stroke="rgb(100%, 100%, 100%)" stroke-opacity="1" stroke-miterlimit="4" d="M 255.961121 73.501902 L 255.961121 231.42772 L 46.523876 231.42772 L 46.523876 73.501902 Z M 255.961121 73.501902 " transform="matrix(0.0979, 0, 0, -0.0979, 0, 26.59818)"/>
<g clip-path="url(#clip-5)">
<path fill-rule="nonzero" fill="rgb(1.176453%, 41.175842%, 59.605408%)" fill-opacity="1" d="M 25.058594 19.402344 L 28.558594 15.902344 L 28.558594 0.441406 L 8.050781 0.441406 L 4.554688 3.941406 L 25.058594 3.941406 L 25.058594 19.402344 "/>
</g>
<g clip-path="url(#clip-6)">
<path fill="none" stroke-width="3.99994" stroke-linecap="butt" stroke-linejoin="miter" stroke="rgb(100%, 100%, 100%)" stroke-opacity="1" stroke-miterlimit="4" d="M 255.961121 73.501902 L 291.711887 109.252669 L 291.711887 267.178486 L 82.234742 267.178486 L 46.523876 231.42772 L 255.961121 231.42772 Z M 255.961121 73.501902 " transform="matrix(0.0979, 0, 0, -0.0979, 0, 26.59818)"/>
</g>
<path fill-rule="nonzero" fill="rgb(1.176453%, 41.175842%, 59.605408%)" fill-opacity="1" d="M 6.34375 17.613281 L 23.269531 17.613281 L 23.269531 5.730469 L 6.34375 5.730469 Z M 6.34375 17.613281 "/>
<path fill="none" stroke-width="3.99994" stroke-linecap="butt" stroke-linejoin="miter" stroke="rgb(100%, 100%, 100%)" stroke-opacity="1" stroke-miterlimit="4" d="M 237.686734 91.77629 L 237.686734 213.153332 L 64.798264 213.153332 L 64.798264 91.77629 Z M 237.686734 91.77629 " transform="matrix(0.0979, 0, 0, -0.0979, 0, 26.59818)"/>
<g clip-path="url(#clip-7)">
<path fill-rule="nonzero" fill="rgb(1.176453%, 41.175842%, 59.605408%)" fill-opacity="1" d="M 25.058594 3.941406 L 28.558594 0.441406 "/>
</g>
<g clip-path="url(#clip-8)">
<path fill="none" stroke-width="3.99994" stroke-linecap="butt" stroke-linejoin="miter" stroke="rgb(100%, 100%, 100%)" stroke-opacity="1" stroke-miterlimit="4" d="M 255.961121 231.42772 L 291.711887 267.178486 " transform="matrix(0.0979, 0, 0, -0.0979, 0, 26.59818)"/>
</g>
<g clip-path="url(#clip-9)">
<path fill-rule="nonzero" fill="rgb(1.176453%, 41.175842%, 59.605408%)" fill-opacity="1" d="M 24.074219 26.125 L 24.074219 23.851562 L 0.472656 23.851562 L 3.160156 21.164062 L 26.757812 21.164062 L 26.757812 23.4375 L 24.074219 26.125 "/>
</g>
<g clip-path="url(#clip-10)">
<path fill="none" stroke-width="3.99994" stroke-linecap="butt" stroke-linejoin="miter" stroke="rgb(100%, 100%, 100%)" stroke-opacity="1" stroke-miterlimit="4" d="M 245.906218 4.833299 L 245.906218 28.055337 L 4.827949 28.055337 L 32.279431 55.506818 L 273.317799 55.506818 L 273.317799 32.28478 Z M 245.906218 4.833299 " transform="matrix(0.0979, 0, 0, -0.0979, 0, 26.59818)"/>
</g>
<g clip-path="url(#clip-11)">
<path fill-rule="nonzero" fill="rgb(1.176453%, 41.175842%, 59.605408%)" fill-opacity="1" d="M 0.472656 26.125 L 24.074219 26.125 L 24.074219 23.851562 L 0.472656 23.851562 Z M 0.472656 26.125 "/>
<path fill="none" stroke-width="3.99994" stroke-linecap="butt" stroke-linejoin="miter" stroke="rgb(100%, 100%, 100%)" stroke-opacity="1" stroke-miterlimit="4" d="M 245.906218 28.055337 L 245.906218 4.833299 L 4.827949 4.833299 L 4.827949 28.055337 Z M 245.906218 28.055337 " transform="matrix(0.0979, 0, 0, -0.0979, 0, 26.59818)"/>
</g>
<path fill-rule="nonzero" fill="rgb(1.176453%, 41.175842%, 59.605408%)" fill-opacity="1" d="M 24.074219 23.851562 L 26.757812 21.164062 "/>
<g clip-path="url(#clip-12)">
<path fill="none" stroke-width="3.99994" stroke-linecap="butt" stroke-linejoin="miter" stroke="rgb(100%, 100%, 100%)" stroke-opacity="1" stroke-miterlimit="4" d="M 245.906218 28.055337 L 273.317799 55.506818 " transform="matrix(0.0979, 0, 0, -0.0979, 0, 26.59818)"/>
</g>
<path fill-rule="nonzero" fill="rgb(1.176453%, 41.175842%, 59.605408%)" fill-opacity="1" d="M 14.203125 9.300781 C 14.203125 9.300781 16.050781 8.21875 17.433594 8.558594 L 17.722656 9.460938 L 18.585938 11.050781 L 22.238281 9.0625 L 21.304688 7.347656 L 20.0625 6.863281 C 20.0625 6.863281 16.847656 6.652344 13.375 8.378906 L 12.824219 8.679688 C 9.488281 10.65625 7.921875 13.472656 7.921875 13.472656 L 7.652344 14.777344 L 8.585938 16.492188 L 12.238281 14.507812 L 11.371094 12.917969 L 10.769531 12.183594 C 11.238281 10.839844 13.144531 9.878906 13.144531 9.878906 L 14.203125 9.300781 "/>
<path fill="none" stroke-width="3.99994" stroke-linecap="butt" stroke-linejoin="miter" stroke="rgb(100%, 100%, 100%)" stroke-opacity="1" stroke-miterlimit="4" d="M 145.077886 176.684359 C 145.077886 176.684359 163.950779 187.736772 178.075523 184.265437 L 181.028154 175.048442 L 189.846144 158.808976 L 227.153026 179.118284 L 217.616828 196.634563 L 204.928498 201.582214 C 204.928498 201.582214 172.090462 203.736836 136.618999 186.100855 L 130.993041 183.028524 C 96.918092 162.838917 80.918029 134.070723 80.918029 134.070723 L 78.1649 120.743986 L 87.701098 103.227707 L 125.00798 123.497114 L 116.150089 139.736581 L 110.005426 147.237858 C 114.793475 160.963598 134.264875 170.779099 134.264875 170.779099 Z M 145.077886 176.684359 " transform="matrix(0.0979, 0, 0, -0.0979, 0, 26.59818)"/>
<path fill-rule="nonzero" fill="rgb(1.176453%, 41.175842%, 59.605408%)" fill-opacity="1" stroke-width="3.99994" stroke-linecap="butt" stroke-linejoin="miter" stroke="rgb(100%, 100%, 100%)" stroke-opacity="1" stroke-miterlimit="4" d="M 116.788496 140.374987 L 77.207291 118.828767 " transform="matrix(0.0979, 0, 0, -0.0979, 0, 26.59818)"/>
<path fill-rule="nonzero" fill="rgb(1.176453%, 41.175842%, 59.605408%)" fill-opacity="1" stroke-width="3.99994" stroke-linecap="butt" stroke-linejoin="miter" stroke="rgb(100%, 100%, 100%)" stroke-opacity="1" stroke-miterlimit="4" d="M 218.255235 195.597153 L 178.71393 174.090832 " transform="matrix(0.0979, 0, 0, -0.0979, 0, 26.59818)"/>
</svg>
