<?xml version="1.0" encoding="UTF-8"?>
<svg xmlns="http://www.w3.org/2000/svg" xmlns:xlink="http://www.w3.org/1999/xlink" width="63.79" height="33.42" viewBox="0 0 63.79 33.42">
<defs>
<clipPath id="clip-0">
<path clip-rule="nonzero" d="M 36 26 L 45 26 L 45 32.851562 L 36 32.851562 Z M 36 26 "/>
</clipPath>
<clipPath id="clip-1">
<path clip-rule="nonzero" d="M 36 26 L 44 26 L 44 32.851562 L 36 32.851562 Z M 36 26 "/>
</clipPath>
<clipPath id="clip-2">
<path clip-rule="nonzero" d="M 0.441406 13 L 26 13 L 26 20 L 0.441406 20 Z M 0.441406 13 "/>
</clipPath>
<clipPath id="clip-3">
<path clip-rule="nonzero" d="M 0.441406 10 L 29 10 L 29 22 L 0.441406 22 Z M 0.441406 10 "/>
</clipPath>
<clipPath id="clip-4">
<path clip-rule="nonzero" d="M 0.441406 14 L 26 14 L 26 22 L 0.441406 22 Z M 0.441406 14 "/>
</clipPath>
<clipPath id="clip-5">
<path clip-rule="nonzero" d="M 0.441406 12 L 29 12 L 29 24 L 0.441406 24 Z M 0.441406 12 "/>
</clipPath>
<clipPath id="clip-6">
<path clip-rule="nonzero" d="M 0.441406 13 L 26 13 L 26 22 L 0.441406 22 Z M 0.441406 13 "/>
</clipPath>
<clipPath id="clip-7">
<path clip-rule="nonzero" d="M 0.441406 11 L 29 11 L 29 24 L 0.441406 24 Z M 0.441406 11 "/>
</clipPath>
<clipPath id="clip-8">
<path clip-rule="nonzero" d="M 34 0 L 63.144531 0 L 63.144531 11 L 34 11 Z M 34 0 "/>
</clipPath>
<clipPath id="clip-9">
<path clip-rule="nonzero" d="M 34 1 L 63.144531 1 L 63.144531 13 L 34 13 Z M 34 1 "/>
</clipPath>
</defs>
<g clip-path="url(#clip-0)">
<path fill="none" stroke-width="4" stroke-linecap="round" stroke-linejoin="round" stroke="rgb(16.821289%, 40.113831%, 62.065125%)" stroke-opacity="1" stroke-miterlimit="1" d="M 441.600931 64.322775 C 442.594442 48.744528 435.520646 31.417703 421.253834 18.502065 C 406.311434 4.871099 387.23603 -0.414378 371.30012 3.043039 " transform="matrix(0.0982941, 0, 0, -0.0982941, 0.440882, 32.849894)"/>
</g>
<g clip-path="url(#clip-1)">
<path fill="none" stroke-width="4" stroke-linecap="round" stroke-linejoin="round" stroke="rgb(16.821289%, 40.113831%, 62.065125%)" stroke-opacity="1" stroke-miterlimit="1" d="M 434.92454 66.587979 C 435.83857 52.122464 429.241659 35.987852 416.008098 23.946503 C 402.098949 11.269307 384.334979 6.341495 369.551541 9.560469 " transform="matrix(0.0982941, 0, 0, -0.0982941, 0.440882, 32.849894)"/>
</g>
<path fill="none" stroke-width="4" stroke-linecap="round" stroke-linejoin="round" stroke="rgb(16.821289%, 40.113831%, 62.065125%)" stroke-opacity="1" stroke-miterlimit="1" d="M 428.248149 68.853183 C 429.122438 55.46066 423.002412 40.51826 410.762362 29.430681 C 397.886464 17.707256 381.473668 13.137107 367.763222 16.117639 " transform="matrix(0.0982941, 0, 0, -0.0982941, 0.440882, 32.849894)"/>
<path fill="none" stroke-width="4" stroke-linecap="round" stroke-linejoin="round" stroke="rgb(16.821289%, 40.113831%, 62.065125%)" stroke-opacity="1" stroke-miterlimit="1" d="M 421.571757 71.118387 C 422.366566 58.838596 416.763166 45.088409 405.476885 34.87512 C 393.673979 24.105465 378.572617 19.93272 365.974903 22.674809 " transform="matrix(0.0982941, 0, 0, -0.0982941, 0.440882, 32.849894)"/>
<path fill="none" stroke-width="4" stroke-linecap="round" stroke-linejoin="round" stroke="rgb(16.821289%, 40.113831%, 62.065125%)" stroke-opacity="1" stroke-miterlimit="1" d="M 414.895366 73.423332 C 415.610693 62.176792 410.523919 49.658558 400.231149 40.359298 C 389.461494 30.543413 375.711307 26.728333 364.226324 29.192239 " transform="matrix(0.0982941, 0, 0, -0.0982941, 0.440882, 32.849894)"/>
<path fill="none" stroke-width="4" stroke-linecap="round" stroke-linejoin="round" stroke="rgb(16.821289%, 40.113831%, 62.065125%)" stroke-opacity="1" stroke-miterlimit="1" d="M 408.218974 75.688536 C 408.854821 65.514987 404.244932 54.228707 394.985413 45.803737 C 385.249009 36.941622 372.810256 33.484205 362.438005 35.749409 " transform="matrix(0.0982941, 0, 0, -0.0982941, 0.440882, 32.849894)"/>
<path fill="none" stroke-width="4" stroke-linecap="round" stroke-linejoin="round" stroke="rgb(16.821289%, 40.113831%, 62.065125%)" stroke-opacity="1" stroke-miterlimit="1" d="M 401.582323 77.95374 C 402.138689 68.892923 398.005685 58.798855 389.739677 51.287915 C 381.036524 43.33983 369.909205 40.279817 360.649686 42.266839 " transform="matrix(0.0982941, 0, 0, -0.0982941, 0.440882, 32.849894)"/>
<path fill="none" stroke-width="4" stroke-linecap="round" stroke-linejoin="round" stroke="rgb(16.821289%, 40.113831%, 62.065125%)" stroke-opacity="1" stroke-miterlimit="1" d="M 394.905932 80.218944 C 395.382817 72.231119 391.766439 63.369004 384.493941 56.732353 C 376.824039 49.777779 367.047894 47.03569 358.901107 48.824009 " transform="matrix(0.0982941, 0, 0, -0.0982941, 0.440882, 32.849894)"/>
<g clip-path="url(#clip-2)">
<path fill-rule="nonzero" fill="rgb(16.821289%, 40.113831%, 62.065125%)" fill-opacity="1" d="M 0.636719 19.335938 L 0.636719 18.03125 L 13.832031 13.195312 L 19.84375 14.230469 L 23.449219 14.929688 L 25.925781 15.445312 L 25.988281 17.105469 "/>
</g>
<g clip-path="url(#clip-3)">
<path fill="none" stroke-width="4" stroke-linecap="butt" stroke-linejoin="miter" stroke="rgb(100%, 100%, 100%)" stroke-opacity="1" stroke-miterlimit="4" d="M 1.992351 137.484897 L 1.992351 150.758199 L 136.235506 199.956845 L 197.39602 189.425632 L 234.076433 182.312096 L 259.271862 177.06636 L 259.907709 160.176679 " transform="matrix(0.0982941, 0, 0, -0.0982941, 0.440882, 32.849894)"/>
</g>
<path fill-rule="nonzero" fill="rgb(16.821289%, 40.113831%, 62.065125%)" fill-opacity="1" d="M 31.453125 0.199219 C 29.777344 0.199219 28.417969 0.792969 28.417969 1.523438 C 28.417969 2.257812 29.777344 2.855469 31.453125 2.855469 C 33.128906 2.855469 34.484375 2.257812 34.484375 1.523438 C 34.484375 0.792969 33.128906 0.199219 31.453125 0.199219 "/>
<path fill="none" stroke-width="4" stroke-linecap="butt" stroke-linejoin="miter" stroke="rgb(100%, 100%, 100%)" stroke-opacity="1" stroke-miterlimit="4" d="M 315.504563 332.173238 C 298.455921 332.173238 284.626253 326.132694 284.626253 318.701234 C 284.626253 311.230034 298.455921 305.149749 315.504563 305.149749 C 332.553205 305.149749 346.343133 311.230034 346.343133 318.701234 C 346.343133 326.132694 332.553205 332.173238 315.504563 332.173238 Z M 315.504563 332.173238 " transform="matrix(0.0982941, 0, 0, -0.0982941, 0.440882, 32.849894)"/>
<g clip-path="url(#clip-4)">
<path fill-rule="nonzero" fill="rgb(16.821289%, 40.113831%, 62.065125%)" fill-opacity="1" d="M 19.476562 15.808594 L 13.796875 14.90625 L 0.636719 19.335938 L 12.136719 21.136719 L 25.988281 17.105469 L 22.003906 16.425781 "/>
</g>
<g clip-path="url(#clip-5)">
<path fill="none" stroke-width="4" stroke-linecap="butt" stroke-linejoin="miter" stroke="rgb(100%, 100%, 100%)" stroke-opacity="1" stroke-miterlimit="4" d="M 193.66042 173.3705 L 135.877843 182.550539 L 1.992351 137.484897 L 118.988162 119.164561 L 259.907709 160.176679 L 219.372475 167.091513 " transform="matrix(0.0982941, 0, 0, -0.0982941, 0.440882, 32.849894)"/>
</g>
<path fill-rule="nonzero" fill="rgb(16.821289%, 40.113831%, 62.065125%)" fill-opacity="1" d="M 20.433594 15.574219 C 16.347656 16.617188 15.453125 17.628906 15.453125 17.628906 C 16.832031 18.289062 21.773438 16.5 21.773438 16.5 L 22.648438 16.199219 L 20.433594 15.574219 "/>
<path fill="none" stroke-width="4" stroke-linecap="butt" stroke-linejoin="miter" stroke="rgb(100%, 100%, 100%)" stroke-opacity="1" stroke-miterlimit="4" d="M 203.396825 175.754926 C 161.82834 165.144232 152.727783 154.851462 152.727783 154.851462 C 166.756153 148.135331 217.02779 166.336445 217.02779 166.336445 L 225.929645 169.396458 Z M 203.396825 175.754926 " transform="matrix(0.0982941, 0, 0, -0.0982941, 0.440882, 32.849894)"/>
<g clip-path="url(#clip-6)">
<path fill-rule="nonzero" fill="rgb(16.821289%, 40.113831%, 62.065125%)" fill-opacity="1" d="M 22.003906 16.425781 L 25.988281 17.121094 L 12.136719 21.136719 L 0.636719 19.335938 L 13.796875 14.90625 L 19.539062 15.789062 C 16.25 16.585938 15.492188 17.628906 15.492188 17.628906 C 16.871094 18.289062 21.191406 16.695312 21.191406 16.695312 L 21.207031 16.667969 L 25.203125 15.449219 L 25.203125 13.25 L 19.988281 15.019531 L 19.929688 15.042969 C 19.929688 15.042969 19.691406 15.597656 19.691406 15.785156 "/>
</g>
<g clip-path="url(#clip-7)">
<path fill="none" stroke-width="4" stroke-linecap="butt" stroke-linejoin="miter" stroke="rgb(100%, 100%, 100%)" stroke-opacity="1" stroke-miterlimit="4" d="M 219.372475 167.091513 L 259.907709 160.017718 L 118.988162 119.164561 L 1.992351 137.484897 L 135.877843 182.550539 L 194.296267 173.569203 C 160.834829 165.462156 153.125187 154.851462 153.125187 154.851462 C 167.153557 148.135331 211.106467 164.349424 211.106467 164.349424 L 211.265429 164.627607 L 251.919883 177.02662 L 251.919883 199.400479 L 198.866416 181.398066 L 198.27031 181.159624 C 198.27031 181.159624 195.846144 175.516483 195.846144 173.608943 " transform="matrix(0.0982941, 0, 0, -0.0982941, 0.440882, 32.849894)"/>
</g>
<path fill-rule="nonzero" fill="rgb(16.821289%, 40.113831%, 62.065125%)" fill-opacity="1" d="M 19.976562 15.804688 C 19.933594 15.796875 19.890625 15.84375 19.878906 15.910156 C 19.867188 15.972656 19.894531 16.03125 19.933594 16.039062 C 19.976562 16.046875 20.019531 16 20.03125 15.9375 C 20.039062 15.871094 20.015625 15.8125 19.976562 15.804688 "/>
<path fill="none" stroke-width="4" stroke-linecap="butt" stroke-linejoin="miter" stroke="rgb(100%, 100%, 100%)" stroke-opacity="1" stroke-miterlimit="4" d="M 198.747195 173.410241 C 198.31005 173.489722 197.872905 173.012837 197.753684 172.337249 C 197.634463 171.701403 197.912646 171.105296 198.31005 171.025815 C 198.747195 170.946335 199.184339 171.42322 199.303561 172.059066 C 199.383042 172.734654 199.144599 173.33076 198.747195 173.410241 Z M 198.747195 173.410241 " transform="matrix(0.0982941, 0, 0, -0.0982941, 0.440882, 32.849894)"/>
<path fill-rule="nonzero" fill="rgb(16.821289%, 40.113831%, 62.065125%)" fill-opacity="1" stroke-width="4" stroke-linecap="butt" stroke-linejoin="miter" stroke="rgb(100%, 100%, 100%)" stroke-opacity="1" stroke-miterlimit="4" d="M 379.486647 122.264314 L 379.486647 288.538252 C 379.486647 303.957537 350.913282 316.47577 315.703265 316.47577 C 280.453508 316.47577 251.919883 303.957537 251.919883 288.538252 L 251.919883 120.833659 " transform="matrix(0.0982941, 0, 0, -0.0982941, 0.440882, 32.849894)"/>
<path fill-rule="nonzero" fill="rgb(16.821289%, 40.113831%, 62.065125%)" fill-opacity="1" d="M 37.019531 7.910156 L 37.019531 6.417969 L 50.804688 1.539062 L 62.925781 4.34375 L 62.949219 6.109375 "/>
<g clip-path="url(#clip-8)">
<path fill="none" stroke-width="4" stroke-linecap="butt" stroke-linejoin="miter" stroke="rgb(100%, 100%, 100%)" stroke-opacity="1" stroke-miterlimit="4" d="M 372.134669 253.72564 L 372.134669 268.906482 L 512.378628 318.542273 L 635.693167 290.008648 L 635.931609 272.045975 " transform="matrix(0.0982941, 0, 0, -0.0982941, 0.440882, 32.849894)"/>
</g>
<path fill-rule="nonzero" fill="rgb(16.821289%, 40.113831%, 62.065125%)" fill-opacity="1" d="M 41.457031 8.535156 L 37.019531 7.910156 L 50.804688 3.335938 L 62.925781 6.140625 L 48.484375 10.195312 L 45.167969 9.628906 "/>
<g clip-path="url(#clip-9)">
<path fill="none" stroke-width="4" stroke-linecap="butt" stroke-linejoin="miter" stroke="rgb(100%, 100%, 100%)" stroke-opacity="1" stroke-miterlimit="4" d="M 417.279791 247.367172 L 372.134669 253.72564 L 512.378628 300.261677 L 635.693167 271.728052 L 488.772816 230.477491 L 455.033195 236.239853 " transform="matrix(0.0982941, 0, 0, -0.0982941, 0.440882, 32.849894)"/>
</g>
<path fill-rule="nonzero" fill="rgb(16.821289%, 40.113831%, 62.065125%)" fill-opacity="1" stroke-width="4" stroke-linecap="butt" stroke-linejoin="miter" stroke="rgb(100%, 100%, 100%)" stroke-opacity="1" stroke-miterlimit="4" d="M 455.708782 235.921929 C 486.706314 243.671312 497.992594 259.170078 497.992594 259.170078 C 451.218114 260.560993 417.756676 247.128729 417.756676 247.128729 " transform="matrix(0.0982941, 0, 0, -0.0982941, 0.440882, 32.849894)"/>
<path fill-rule="nonzero" fill="rgb(16.821289%, 40.113831%, 62.065125%)" fill-opacity="1" stroke-width="4" stroke-linecap="butt" stroke-linejoin="miter" stroke="rgb(100%, 100%, 100%)" stroke-opacity="1" stroke-miterlimit="4" d="M 458.172689 236.716738 L 355.006545 206.633236 C 340.183367 207.348564 342.090907 219.350172 342.090907 219.350172 C 341.41532 227.059814 353.178486 230.437751 353.178486 230.437751 L 420.578247 248.003018 " transform="matrix(0.0982941, 0, 0, -0.0982941, 0.440882, 32.849894)"/>
<path fill-rule="nonzero" fill="rgb(16.821289%, 40.113831%, 62.065125%)" fill-opacity="1" d="M 41.9375 8.460938 C 41.851562 8.460938 41.785156 8.492188 41.785156 8.535156 C 41.785156 8.578125 41.851562 8.609375 41.9375 8.609375 C 42.023438 8.609375 42.089844 8.578125 42.089844 8.535156 C 42.089844 8.492188 42.023438 8.460938 41.9375 8.460938 "/>
<path fill="none" stroke-width="4" stroke-linecap="butt" stroke-linejoin="miter" stroke="rgb(100%, 100%, 100%)" stroke-opacity="1" stroke-miterlimit="4" d="M 422.167864 248.12224 C 421.293574 248.12224 420.617987 247.804316 420.617987 247.367172 C 420.617987 246.930027 421.293574 246.612104 422.167864 246.612104 C 423.042153 246.612104 423.71774 246.930027 423.71774 247.367172 C 423.71774 247.804316 423.042153 248.12224 422.167864 248.12224 Z M 422.167864 248.12224 " transform="matrix(0.0982941, 0, 0, -0.0982941, 0.440882, 32.849894)"/>
<path fill-rule="nonzero" fill="rgb(16.821289%, 40.113831%, 62.065125%)" fill-opacity="1" d="M 24.386719 25.339844 C 24.386719 23.808594 27.582031 22.5625 31.527344 22.5625 C 35.46875 22.5625 38.664062 23.808594 38.664062 25.339844 L 38.664062 21.273438 C 38.664062 19.742188 35.46875 18.5 31.527344 18.5 C 27.582031 18.5 24.386719 19.742188 24.386719 21.273438 L 24.386719 25.339844 "/>
<path fill="none" stroke-width="4" stroke-linecap="butt" stroke-linejoin="miter" stroke="rgb(100%, 100%, 100%)" stroke-opacity="1" stroke-miterlimit="4" d="M 243.614135 76.403864 C 243.614135 91.98211 276.121802 104.659306 316.259631 104.659306 C 356.35772 104.659306 388.865387 91.98211 388.865387 76.403864 L 388.865387 117.773646 C 388.865387 133.351893 356.35772 145.989348 316.259631 145.989348 C 276.121802 145.989348 243.614135 133.351893 243.614135 117.773646 Z M 243.614135 76.403864 " transform="matrix(0.0982941, 0, 0, -0.0982941, 0.440882, 32.849894)"/>
<path fill-rule="nonzero" fill="rgb(16.821289%, 40.113831%, 62.065125%)" fill-opacity="1" d="M 31.527344 22.5625 C 27.582031 22.5625 24.386719 23.808594 24.386719 25.339844 C 24.386719 26.875 27.582031 28.117188 31.527344 28.117188 C 35.46875 28.117188 38.664062 26.875 38.664062 25.339844 C 38.664062 23.808594 35.46875 22.5625 31.527344 22.5625 "/>
<path fill="none" stroke-width="4" stroke-linecap="butt" stroke-linejoin="miter" stroke="rgb(100%, 100%, 100%)" stroke-opacity="1" stroke-miterlimit="4" d="M 316.259631 104.659306 C 276.121802 104.659306 243.614135 91.98211 243.614135 76.403864 C 243.614135 60.785877 276.121802 48.148422 316.259631 48.148422 C 356.35772 48.148422 388.865387 60.785877 388.865387 76.403864 C 388.865387 91.98211 356.35772 104.659306 316.259631 104.659306 Z M 316.259631 104.659306 " transform="matrix(0.0982941, 0, 0, -0.0982941, 0.440882, 32.849894)"/>
<path fill-rule="nonzero" fill="rgb(100%, 100%, 100%)" fill-opacity="1" d="M 33.15625 26.425781 L 32.566406 25.542969 L 34.796875 25.027344 L 34.308594 25.433594 L 37.753906 26.019531 L 36.886719 26.667969 L 33.566406 26.105469 L 33.15625 26.425781 "/>
<path fill-rule="nonzero" fill="rgb(100%, 100%, 100%)" fill-opacity="1" d="M 30.019531 24.28125 L 30.421875 25.195312 L 28.410156 25.597656 L 28.761719 25.28125 L 25.410156 24.710938 L 26.214844 24.066406 L 29.542969 24.695312 L 30.019531 24.28125 "/>
<path fill-rule="nonzero" fill="rgb(100%, 100%, 100%)" fill-opacity="1" d="M 31.121094 26.910156 L 28.867188 27.523438 L 28.839844 26.558594 L 29.402344 26.667969 L 30.503906 25.753906 L 31.550781 25.910156 L 30.417969 26.800781 L 31.121094 26.910156 "/>
<path fill-rule="nonzero" fill="rgb(100%, 100%, 100%)" fill-opacity="1" d="M 32.085938 23.449219 L 34.226562 23.050781 L 34.308594 24.042969 L 33.691406 23.90625 L 32.511719 24.914062 L 31.464844 24.738281 L 32.726562 23.640625 L 32.085938 23.449219 "/>
</svg>
