<?xml version="1.0" encoding="UTF-8"?>
<svg xmlns="http://www.w3.org/2000/svg" xmlns:xlink="http://www.w3.org/1999/xlink" width="25.27" height="44.64" viewBox="0 0 25.27 44.64">
<defs>
<clipPath id="clip-0">
<path clip-rule="nonzero" d="M 6 0.492188 L 18 0.492188 L 18 43.839844 L 6 43.839844 Z M 6 0.492188 "/>
</clipPath>
<clipPath id="clip-1">
<path clip-rule="nonzero" d="M 4 0.492188 L 20 0.492188 L 20 43.839844 L 4 43.839844 Z M 4 0.492188 "/>
</clipPath>
<clipPath id="clip-2">
<path clip-rule="nonzero" d="M 12 0.492188 L 24.296875 0.492188 L 24.296875 43.839844 L 12 43.839844 Z M 12 0.492188 "/>
</clipPath>
<clipPath id="clip-3">
<path clip-rule="nonzero" d="M 9 0.492188 L 24.296875 0.492188 L 24.296875 43.839844 L 9 43.839844 Z M 9 0.492188 "/>
</clipPath>
<clipPath id="clip-4">
<path clip-rule="nonzero" d="M 16 15 L 24.296875 15 L 24.296875 30 L 16 30 Z M 16 15 "/>
</clipPath>
<clipPath id="clip-5">
<path clip-rule="nonzero" d="M 12 28 L 24.296875 28 L 24.296875 43 L 12 43 Z M 12 28 "/>
</clipPath>
<clipPath id="clip-6">
<path clip-rule="nonzero" d="M 12 0.492188 L 24.296875 0.492188 L 24.296875 16 L 12 16 Z M 12 0.492188 "/>
</clipPath>
</defs>
<path fill-rule="nonzero" fill="rgb(1.176453%, 41.175842%, 59.605408%)" fill-opacity="1" stroke-width="3.99994" stroke-linecap="butt" stroke-linejoin="miter" stroke="rgb(100%, 100%, 100%)" stroke-opacity="1" stroke-miterlimit="4" d="M 69.329368 262.512114 C 48.389889 258.814548 1.808592 239.844425 1.808592 215.528908 C 1.808592 191.776064 51.203255 170.153339 70.977196 165.290235 " transform="matrix(0.0971923, 0, 0, -0.0971923, 0, 43.838377)"/>
<g clip-path="url(#clip-0)">
<path fill-rule="nonzero" fill="rgb(1.176453%, 41.175842%, 59.605408%)" fill-opacity="1" d="M 17.351562 0.945312 C 15.578125 0.945312 9.066406 7.183594 7.289062 13.769531 C 6.386719 17.128906 6.824219 20.730469 6.824219 23.488281 C 6.824219 25.964844 6.460938 28.8125 7.273438 31.574219 C 9.140625 37.902344 15.933594 43.640625 17.800781 43.640625 "/>
</g>
<g clip-path="url(#clip-1)">
<path fill="none" stroke-width="3.99994" stroke-linecap="butt" stroke-linejoin="miter" stroke="rgb(100%, 100%, 100%)" stroke-opacity="1" stroke-miterlimit="4" d="M 178.528146 441.321597 C 160.28146 441.321597 93.283167 377.136669 74.99629 309.374748 C 65.712183 274.810541 70.213568 237.754496 70.213568 209.379694 C 70.213568 183.89864 66.475811 154.599446 74.835526 126.184453 C 94.046795 61.075134 163.938836 2.034646 183.150104 2.034646 " transform="matrix(0.0971923, 0, 0, -0.0971923, 0, 43.838377)"/>
</g>
<g clip-path="url(#clip-2)">
<path fill-rule="nonzero" fill="rgb(1.176453%, 41.175842%, 59.605408%)" fill-opacity="1" d="M 18.246094 43.679688 C 21.628906 43.679688 24.371094 34.039062 24.371094 22.144531 C 24.371094 10.253906 21.628906 0.609375 18.246094 0.609375 C 14.867188 0.609375 12.125 10.253906 12.125 22.144531 C 12.125 34.039062 14.867188 43.679688 18.246094 43.679688 "/>
</g>
<g clip-path="url(#clip-3)">
<path fill="none" stroke-width="3.99994" stroke-linecap="butt" stroke-linejoin="miter" stroke="rgb(100%, 100%, 100%)" stroke-opacity="1" stroke-miterlimit="4" d="M 187.731871 1.632736 C 222.537223 1.632736 250.751261 100.823971 250.751261 223.205377 C 250.751261 345.546592 222.537223 444.778017 187.731871 444.778017 C 152.96671 444.778017 124.752671 345.546592 124.752671 223.205377 C 124.752671 100.823971 152.96671 1.632736 187.731871 1.632736 Z M 187.731871 1.632736 " transform="matrix(0.0971923, 0, 0, -0.0971923, 0, 43.838377)"/>
</g>
<path fill-rule="nonzero" fill="rgb(1.176453%, 41.175842%, 59.605408%)" fill-opacity="1" d="M 23.34375 19.25 C 23.328125 18.359375 22.230469 17.660156 20.890625 17.6875 C 19.550781 17.714844 18.449219 16.726562 18.472656 18.210938 L 18.617188 27.019531 C 18.640625 28.503906 19.707031 27.355469 21.046875 27.328125 C 22.386719 27.300781 23.460938 26.558594 23.445312 25.667969 L 23.34375 19.25 "/>
<g clip-path="url(#clip-4)">
<path fill="none" stroke-width="3.99994" stroke-linecap="butt" stroke-linejoin="miter" stroke="rgb(100%, 100%, 100%)" stroke-opacity="1" stroke-miterlimit="4" d="M 240.181045 252.986862 C 240.020281 262.150396 228.726627 269.344574 214.941136 269.063237 C 201.155644 268.7819 189.8218 278.950208 190.062945 263.677651 L 191.55001 173.047086 C 191.791156 157.77453 202.763282 169.590666 216.548773 169.872002 C 230.334265 170.153339 241.386773 177.789617 241.226009 186.953151 Z M 240.181045 252.986862 " transform="matrix(0.0971923, 0, 0, -0.0971923, 0, 43.838377)"/>
</g>
<path fill-rule="nonzero" fill="rgb(1.176453%, 41.175842%, 59.605408%)" fill-opacity="1" d="M 14.476562 37.542969 L 18.324219 30.847656 C 19.082031 29.570312 19.539062 31.152344 20.816406 31.914062 C 22.089844 32.671875 22.757812 33.90625 22.300781 34.671875 L 19.023438 40.191406 C 18.566406 40.953125 17.164062 40.960938 15.886719 40.203125 C 15.570312 40.011719 15.476562 39.945312 15.164062 39.84375 "/>
<g clip-path="url(#clip-5)">
<path fill="none" stroke-width="3.99994" stroke-linecap="butt" stroke-linejoin="miter" stroke="rgb(100%, 100%, 100%)" stroke-opacity="1" stroke-miterlimit="4" d="M 148.947616 64.7727 L 188.53569 133.659967 C 196.332731 146.802404 201.035071 130.525074 214.177508 122.687841 C 227.279754 114.890799 234.152404 102.190463 229.450064 94.313039 L 195.729867 37.523244 C 191.027528 29.686011 176.598981 29.605629 163.456544 37.402671 C 160.201078 39.372027 159.236496 40.055273 156.021221 41.100237 " transform="matrix(0.0971923, 0, 0, -0.0971923, 0, 43.838377)"/>
</g>
<path fill-rule="nonzero" fill="rgb(1.176453%, 41.175842%, 59.605408%)" fill-opacity="1" stroke-width="3.99994" stroke-linecap="butt" stroke-linejoin="miter" stroke="rgb(100%, 100%, 100%)" stroke-opacity="1" stroke-miterlimit="4" d="M 133.876014 128.033236 C 138.85969 120.115621 141.713247 115.574045 147.822269 115.574045 C 166.993347 115.574045 182.54724 160.34675 182.54724 215.528908 C 182.54724 270.711065 166.993347 315.443579 147.822269 315.443579 C 139.824273 315.443579 135.363079 307.726919 129.495202 294.745246 " transform="matrix(0.0971923, 0, 0, -0.0971923, 0, 43.838377)"/>
<path fill-rule="nonzero" fill="rgb(1.176453%, 41.175842%, 59.605408%)" fill-opacity="1" stroke-width="3.99994" stroke-linecap="butt" stroke-linejoin="miter" stroke="rgb(100%, 100%, 100%)" stroke-opacity="1" stroke-miterlimit="4" d="M 129.374629 166.375391 L 143.200312 166.375391 C 170.369386 166.375391 170.851677 188.359834 170.851677 215.528908 C 170.851677 242.657791 170.369386 264.682425 143.200312 264.682425 L 129.173674 264.682425 " transform="matrix(0.0971923, 0, 0, -0.0971923, 0, 43.838377)"/>
<path fill-rule="nonzero" fill="rgb(1.176453%, 41.175842%, 59.605408%)" fill-opacity="1" d="M 14.667969 6.203125 L 18.324219 12.398438 C 19.082031 13.671875 19.539062 12.089844 20.816406 11.332031 C 22.089844 10.574219 22.757812 9.339844 22.300781 8.574219 L 19.023438 3.054688 C 18.566406 2.289062 17.320312 2.222656 16.042969 2.980469 "/>
<g clip-path="url(#clip-6)">
<path fill="none" stroke-width="3.99994" stroke-linecap="butt" stroke-linejoin="miter" stroke="rgb(100%, 100%, 100%)" stroke-opacity="1" stroke-miterlimit="4" d="M 150.916972 387.224594 L 188.53569 323.481767 C 196.332731 310.379521 201.035071 326.656851 214.177508 334.453893 C 227.279754 342.250935 234.152404 354.951271 229.450064 362.828695 L 195.729867 419.61849 C 191.027528 427.495914 178.206619 428.17916 165.064182 420.382118 " transform="matrix(0.0971923, 0, 0, -0.0971923, 0, 43.838377)"/>
</g>
</svg>
