<?xml version="1.0" encoding="UTF-8"?>
<svg xmlns="http://www.w3.org/2000/svg" xmlns:xlink="http://www.w3.org/1999/xlink" width="10.96" height="29.88" viewBox="0 0 10.96 29.88">
<defs>
<clipPath id="clip-0">
<path clip-rule="nonzero" d="M 0.00390625 6 L 10.917969 6 L 10.917969 29.761719 L 0.00390625 29.761719 Z M 0.00390625 6 "/>
</clipPath>
<clipPath id="clip-1">
<path clip-rule="nonzero" d="M 0.00390625 0 L 10.917969 0 L 10.917969 9 L 0.00390625 9 Z M 0.00390625 0 "/>
</clipPath>
<clipPath id="clip-2">
<path clip-rule="nonzero" d="M 0.00390625 2 L 4 2 L 4 6 L 0.00390625 6 Z M 0.00390625 2 "/>
</clipPath>
<clipPath id="clip-3">
<path clip-rule="nonzero" d="M 7 2 L 10.917969 2 L 10.917969 6 L 7 6 Z M 7 2 "/>
</clipPath>
</defs>
<g clip-path="url(#clip-0)">
<path fill-rule="nonzero" fill="rgb(3.205872%, 49.034119%, 73.989868%)" fill-opacity="1" d="M 0.00390625 16.121094 L 2.410156 16.121094 L 0.578125 22.902344 L 2.546875 22.902344 L 2.371094 29.761719 L 3.382812 29.761719 L 4.953125 22.890625 L 5.851562 22.890625 L 7.65625 29.722656 L 8.535156 29.710938 L 8.351562 22.871094 L 10.160156 22.871094 L 8.496094 16.050781 C 8.78125 16.050781 10.421875 16.105469 10.917969 16.035156 L 10.496094 12.613281 C 10.496094 11.90625 9.769531 8.808594 9.558594 8.097656 C 9.375 7.484375 8.144531 6.542969 7.507812 6.328125 C 6.867188 6.117188 5.59375 6.1875 4.886719 6.1875 C 4.179688 6.1875 3.394531 6.367188 2.691406 6.542969 C 2.125 6.683594 1.488281 7.601562 1.277344 8.167969 C 1.0625 8.734375 0.78125 10.503906 0.570312 11.355469 L 0.00390625 16.121094 "/>
</g>
<path fill-rule="nonzero" fill="rgb(100%, 100%, 100%)" fill-opacity="1" stroke-width="1" stroke-linecap="butt" stroke-linejoin="miter" stroke="rgb(100%, 100%, 100%)" stroke-opacity="1" stroke-miterlimit="4" d="M 67.98632 236.44119 C 65.397841 236.676506 61.122929 236.44119 57.083333 236.676506 C 53.082957 236.911822 47.121611 236.676506 44.297816 236.44119 C 41.474021 236.205873 34.571411 234.55866 33.865462 234.55866 C 33.159513 234.55866 32.688881 235.029292 32.688881 235.029292 L 53.122176 198.398394 L 74.379079 235.029292 C 74.261421 236.754945 72.339671 235.656802 71.202309 236.323532 " transform="matrix(0.0996, 0, 0, -0.0996, 0.002, 29.76048)"/>
<g clip-path="url(#clip-1)">
<path fill="none" stroke-width="4" stroke-linecap="butt" stroke-linejoin="miter" stroke="rgb(3.205872%, 49.034119%, 73.989868%)" stroke-opacity="1" stroke-miterlimit="4" d="M 53.435931 238.127623 C 69.672754 238.127623 82.811245 251.305334 82.811245 267.542156 C 82.811245 283.778978 69.672754 296.956689 53.435931 296.956689 C 37.199109 296.956689 24.021398 283.778978 24.021398 267.542156 C 24.021398 251.305334 37.199109 238.127623 53.435931 238.127623 Z M 53.435931 238.127623 " transform="matrix(0.0996, 0, 0, -0.0996, 0.002, 29.76048)"/>
</g>
<g clip-path="url(#clip-2)">
<path fill-rule="nonzero" fill="rgb(3.205872%, 49.034119%, 73.989868%)" fill-opacity="1" stroke-width="4" stroke-linecap="round" stroke-linejoin="round" stroke="rgb(3.205872%, 49.034119%, 73.989868%)" stroke-opacity="1" stroke-miterlimit="4" d="M 23.27623 271.581752 C 23.27623 271.581752 17.197226 250.599385 5.705949 251.305334 C 5.705949 251.305334 19.668047 241.735806 31.394641 247.814809 " transform="matrix(0.0996, 0, 0, -0.0996, 0.002, 29.76048)"/>
</g>
<g clip-path="url(#clip-3)">
<path fill-rule="nonzero" fill="rgb(3.205872%, 49.034119%, 73.989868%)" fill-opacity="1" stroke-width="4" stroke-linecap="round" stroke-linejoin="round" stroke="rgb(3.205872%, 49.034119%, 73.989868%)" stroke-opacity="1" stroke-miterlimit="4" d="M 83.477974 271.581752 C 83.477974 271.581752 89.556978 250.599385 101.048256 251.305334 C 101.048256 251.305334 87.086157 241.735806 75.398783 247.814809 " transform="matrix(0.0996, 0, 0, -0.0996, 0.002, 29.76048)"/>
</g>
<path fill-rule="nonzero" fill="rgb(3.205872%, 49.034119%, 73.989868%)" fill-opacity="1" stroke-width="4" stroke-linecap="round" stroke-linejoin="round" stroke="rgb(3.205872%, 49.034119%, 73.989868%)" stroke-opacity="1" stroke-miterlimit="4" d="M 74.418298 287.818574 C 69.751192 282.798494 61.632781 279.504066 52.416227 279.504066 C 43.827184 279.504066 36.297063 282.4063 31.47308 286.83809 " transform="matrix(0.0996, 0, 0, -0.0996, 0.002, 29.76048)"/>
<path fill-rule="nonzero" fill="rgb(3.205872%, 49.034119%, 73.989868%)" fill-opacity="1" d="M 7.414062 1.09375 C 6.882812 0.546875 6.140625 0.203125 5.316406 0.203125 C 4.445312 0.203125 3.675781 0.589844 3.136719 1.191406 C 3.617188 1.632812 4.367188 1.921875 5.222656 1.921875 C 6.140625 1.921875 6.949219 1.59375 7.414062 1.09375 "/>
<path fill="none" stroke-width="4" stroke-linecap="round" stroke-linejoin="round" stroke="rgb(3.205872%, 49.034119%, 73.989868%)" stroke-opacity="1" stroke-miterlimit="4" d="M 74.418298 287.818574 C 69.084463 293.309287 61.632781 296.760592 53.357492 296.760592 C 44.611571 296.760592 36.885354 292.877874 31.47308 286.83809 C 36.297063 282.4063 43.827184 279.504066 52.416227 279.504066 C 61.632781 279.504066 69.751192 282.798494 74.418298 287.818574 Z M 74.418298 287.818574 " transform="matrix(0.0996, 0, 0, -0.0996, 0.002, 29.76048)"/>
</svg>
