<?xml version="1.0" encoding="UTF-8"?>
<svg xmlns="http://www.w3.org/2000/svg" xmlns:xlink="http://www.w3.org/1999/xlink" width="11.02" height="29.88" viewBox="0 0 11.02 29.88">
<defs>
<clipPath id="clip-0">
<path clip-rule="nonzero" d="M 0 6 L 10.121094 6 L 10.121094 28.605469 L 0 28.605469 Z M 0 6 "/>
</clipPath>
<clipPath id="clip-1">
<path clip-rule="nonzero" d="M 2 1.164062 L 8 1.164062 L 8 7 L 2 7 Z M 2 1.164062 "/>
</clipPath>
<clipPath id="clip-2">
<path clip-rule="nonzero" d="M 0 1.164062 L 10 1.164062 L 10 9 L 0 9 Z M 0 1.164062 "/>
</clipPath>
</defs>
<g clip-path="url(#clip-0)">
<path fill-rule="nonzero" fill="rgb(1.176453%, 41.175842%, 59.605408%)" fill-opacity="1" d="M 0.128906 16.726562 L 2.351562 16.726562 L 0 28.605469 L 3.199219 28.605469 L 5.132812 19.921875 C 5.132812 19.921875 6.132812 26.710938 6.589844 28.539062 C 7.101562 28.539062 8.933594 28.539062 9.988281 28.539062 C 9.789062 27.757812 8.027344 17.703125 7.960938 16.660156 C 8.222656 16.660156 9.660156 16.789062 10.117188 16.726562 C 10.117188 16.203125 9.726562 13.527344 9.726562 12.875 C 9.726562 12.222656 9.136719 9.285156 8.941406 8.632812 C 8.773438 8.066406 7.636719 7.195312 7.050781 7 C 6.460938 6.804688 5.285156 6.871094 4.632812 6.871094 C 3.980469 6.871094 3.257812 7.035156 2.609375 7.195312 C 2.085938 7.328125 1.5 8.175781 1.304688 8.699219 C 1.109375 9.21875 0.847656 10.851562 0.652344 11.632812 C 0.457031 12.417969 0.390625 15.355469 0.261719 15.8125 C 0.128906 16.269531 0.128906 16.726562 0.128906 16.726562 "/>
</g>
<path fill-rule="nonzero" fill="rgb(100%, 100%, 100%)" fill-opacity="1" stroke-width="1.89499" stroke-linecap="butt" stroke-linejoin="miter" stroke="rgb(100%, 100%, 100%)" stroke-opacity="1" stroke-miterlimit="4" d="M 69.419238 236.451996 C 66.781987 236.664678 62.528358 236.451996 58.529946 236.664678 C 54.488997 236.919896 48.533916 236.664678 45.72652 236.451996 C 42.876588 236.196779 36.028244 234.537863 35.305127 234.537863 C 34.58201 234.537863 34.114111 235.005762 34.114111 235.005762 L 51.171166 174.391538 L 75.799682 235.005762 C 75.672074 236.74975 73.75794 235.643807 72.60946 236.324387 " transform="matrix(0.0918333, 0, 0, -0.0918333, 0, 28.6048)"/>
<g clip-path="url(#clip-1)">
<path fill-rule="nonzero" fill="rgb(100%, 100%, 100%)" fill-opacity="1" d="M 5.035156 6.734375 C 6.527344 6.734375 7.734375 5.527344 7.734375 4.035156 C 7.734375 2.542969 6.527344 1.335938 5.035156 1.335938 C 3.542969 1.335938 2.335938 2.542969 2.335938 4.035156 C 2.335938 5.527344 3.542969 6.734375 5.035156 6.734375 "/>
</g>
<g clip-path="url(#clip-2)">
<path fill="none" stroke-width="3.99994" stroke-linecap="butt" stroke-linejoin="miter" stroke="rgb(1.176453%, 41.175842%, 59.605408%)" stroke-opacity="1" stroke-miterlimit="4" d="M 54.829288 238.153448 C 71.078153 238.153448 84.221869 251.297164 84.221869 267.54603 C 84.221869 283.794896 71.078153 296.938612 54.829288 296.938612 C 38.580422 296.938612 25.436706 283.794896 25.436706 267.54603 C 25.436706 251.297164 38.580422 238.153448 54.829288 238.153448 Z M 54.829288 238.153448 " transform="matrix(0.0918333, 0, 0, -0.0918333, 0, 28.6048)"/>
</g>
</svg>
