<?xml version="1.0" encoding="UTF-8"?>
<svg xmlns="http://www.w3.org/2000/svg" xmlns:xlink="http://www.w3.org/1999/xlink" width="41.4" height="18.07" viewBox="0 0 41.4 18.07">
<defs>
<clipPath id="clip-0">
<path clip-rule="nonzero" d="M 1 0 L 39.722656 0 L 39.722656 17 L 1 17 Z M 1 0 "/>
</clipPath>
<clipPath id="clip-1">
<path clip-rule="nonzero" d="M 0.726562 0 L 39.722656 0 L 39.722656 17.183594 L 0.726562 17.183594 Z M 0.726562 0 "/>
</clipPath>
<clipPath id="clip-2">
<path clip-rule="nonzero" d="M 0.726562 5 L 36 5 L 36 17 L 0.726562 17 Z M 0.726562 5 "/>
</clipPath>
<clipPath id="clip-3">
<path clip-rule="nonzero" d="M 0.726562 3 L 38 3 L 38 17.183594 L 0.726562 17.183594 Z M 0.726562 3 "/>
</clipPath>
<clipPath id="clip-4">
<path clip-rule="nonzero" d="M 12 11 L 26 11 L 26 17.183594 L 12 17.183594 Z M 12 11 "/>
</clipPath>
</defs>
<g clip-path="url(#clip-0)">
<path fill-rule="nonzero" fill="rgb(1.176453%, 41.175842%, 59.605408%)" fill-opacity="1" d="M 34.207031 16.519531 L 39.910156 8.546875 L 39.910156 2.929688 C 39.910156 1.417969 38.683594 0.191406 37.171875 0.191406 L 8.414062 0.191406 C 6.898438 0.191406 6.308594 1.300781 5.355469 2.253906 L 1.234375 6.691406 "/>
</g>
<g clip-path="url(#clip-1)">
<path fill="none" stroke-width="3.99994" stroke-linecap="butt" stroke-linejoin="miter" stroke="rgb(100%, 100%, 100%)" stroke-opacity="1" stroke-miterlimit="4" d="M 352.021911 7.00266 L 411.988361 90.832471 L 411.988361 149.895317 C 411.988361 165.790533 399.091467 178.687427 383.196251 178.687427 L 80.817481 178.687427 C 64.881191 178.687427 58.679182 167.022721 48.657391 157.00093 L 5.32547 110.342104 " transform="matrix(0.0951053, 0, 0, -0.0951053, 0.727895, 17.185521)"/>
</g>
<g clip-path="url(#clip-2)">
<path fill-rule="nonzero" fill="rgb(1.176453%, 41.175842%, 59.605408%)" fill-opacity="1" d="M 35.15625 14.253906 C 35.15625 15.769531 33.929688 16.996094 32.417969 16.996094 L 3.65625 16.996094 C 2.144531 16.996094 0.917969 15.769531 0.917969 14.253906 L 0.917969 8.636719 C 0.917969 7.125 2.144531 5.898438 3.65625 5.898438 L 32.417969 5.898438 C 33.929688 5.898438 35.15625 7.125 35.15625 8.636719 L 35.15625 14.253906 "/>
</g>
<g clip-path="url(#clip-3)">
<path fill="none" stroke-width="3.99994" stroke-linecap="butt" stroke-linejoin="miter" stroke="rgb(100%, 100%, 100%)" stroke-opacity="1" stroke-miterlimit="4" d="M 362.002629 30.824948 C 362.002629 14.888659 349.105735 1.991765 333.210518 1.991765 L 30.790675 1.991765 C 14.895459 1.991765 1.998565 14.888659 1.998565 30.824948 L 1.998565 89.887794 C 1.998565 105.783011 14.895459 118.679905 30.790675 118.679905 L 333.210518 118.679905 C 349.105735 118.679905 362.002629 105.783011 362.002629 89.887794 Z M 362.002629 30.824948 " transform="matrix(0.0951053, 0, 0, -0.0951053, 0.727895, 17.185521)"/>
</g>
<path fill-rule="nonzero" fill="rgb(1.176453%, 41.175842%, 59.605408%)" fill-opacity="1" d="M 11.230469 11.433594 L 25.65625 11.433594 L 25.65625 6.863281 L 11.230469 6.863281 Z M 11.230469 11.433594 "/>
<path fill="none" stroke-width="3.99994" stroke-linecap="butt" stroke-linejoin="miter" stroke="rgb(100%, 100%, 100%)" stroke-opacity="1" stroke-miterlimit="4" d="M 262.113309 60.47959 L 110.431049 60.47959 L 110.431049 108.534896 L 262.113309 108.534896 Z M 262.113309 60.47959 " transform="matrix(0.0951053, 0, 0, -0.0951053, 0.727895, 17.185521)"/>
<path fill-rule="nonzero" fill="rgb(1.176453%, 41.175842%, 59.605408%)" fill-opacity="1" d="M 29.007812 8.601562 C 29.007812 9.089844 28.613281 9.488281 28.121094 9.488281 C 27.632812 9.488281 27.234375 9.089844 27.234375 8.601562 C 27.234375 8.109375 27.632812 7.710938 28.121094 7.710938 C 28.613281 7.710938 29.007812 8.109375 29.007812 8.601562 "/>
<path fill="none" stroke-width="3.99994" stroke-linecap="butt" stroke-linejoin="miter" stroke="rgb(100%, 100%, 100%)" stroke-opacity="1" stroke-miterlimit="4" d="M 297.353867 90.25745 C 297.353867 85.123336 293.205503 80.933899 288.030316 80.933899 C 282.896202 80.933899 278.706765 85.123336 278.706765 90.25745 C 278.706765 95.432637 282.896202 99.622074 288.030316 99.622074 C 293.205503 99.622074 297.353867 95.432637 297.353867 90.25745 Z M 297.353867 90.25745 " transform="matrix(0.0951053, 0, 0, -0.0951053, 0.727895, 17.185521)"/>
<path fill-rule="nonzero" fill="rgb(1.176453%, 41.175842%, 59.605408%)" fill-opacity="1" d="M 29.007812 11.136719 C 29.007812 11.625 28.613281 12.023438 28.121094 12.023438 C 27.632812 12.023438 27.234375 11.625 27.234375 11.136719 C 27.234375 10.644531 27.632812 10.25 28.121094 10.25 C 28.613281 10.25 29.007812 10.644531 29.007812 11.136719 "/>
<path fill="none" stroke-width="3.99994" stroke-linecap="butt" stroke-linejoin="miter" stroke="rgb(100%, 100%, 100%)" stroke-opacity="1" stroke-miterlimit="4" d="M 297.353867 63.601131 C 297.353867 58.467017 293.205503 54.27758 288.030316 54.27758 C 282.896202 54.27758 278.706765 58.467017 278.706765 63.601131 C 278.706765 68.776318 282.896202 72.924682 288.030316 72.924682 C 293.205503 72.924682 297.353867 68.776318 297.353867 63.601131 Z M 297.353867 63.601131 " transform="matrix(0.0951053, 0, 0, -0.0951053, 0.727895, 17.185521)"/>
<path fill-rule="nonzero" fill="rgb(1.176453%, 41.175842%, 59.605408%)" fill-opacity="1" d="M 29.007812 13.671875 C 29.007812 14.164062 28.613281 14.558594 28.121094 14.558594 C 27.632812 14.558594 27.234375 14.164062 27.234375 13.671875 C 27.234375 13.179688 27.632812 12.785156 28.121094 12.785156 C 28.613281 12.785156 29.007812 13.179688 29.007812 13.671875 "/>
<path fill="none" stroke-width="3.99994" stroke-linecap="butt" stroke-linejoin="miter" stroke="rgb(100%, 100%, 100%)" stroke-opacity="1" stroke-miterlimit="4" d="M 297.353867 36.944812 C 297.353867 31.769625 293.205503 27.621261 288.030316 27.621261 C 282.896202 27.621261 278.706765 31.769625 278.706765 36.944812 C 278.706765 42.119999 282.896202 46.268363 288.030316 46.268363 C 293.205503 46.268363 297.353867 42.119999 297.353867 36.944812 Z M 297.353867 36.944812 " transform="matrix(0.0951053, 0, 0, -0.0951053, 0.727895, 17.185521)"/>
<path fill-rule="nonzero" fill="rgb(1.176453%, 41.175842%, 59.605408%)" fill-opacity="1" d="M 22.976562 14.472656 C 22.976562 15.171875 21.132812 15.742188 18.859375 15.742188 C 16.585938 15.742188 14.738281 15.171875 14.738281 14.472656 C 14.738281 13.773438 16.585938 13.203125 18.859375 13.203125 C 21.132812 13.203125 22.976562 13.773438 22.976562 14.472656 "/>
<g clip-path="url(#clip-4)">
<path fill="none" stroke-width="3.99994" stroke-linecap="butt" stroke-linejoin="miter" stroke="rgb(100%, 100%, 100%)" stroke-opacity="1" stroke-miterlimit="4" d="M 233.937292 28.524865 C 233.937292 21.172814 214.550879 15.176169 190.646444 15.176169 C 166.74201 15.176169 147.314523 21.172814 147.314523 28.524865 C 147.314523 35.876916 166.74201 41.873561 190.646444 41.873561 C 214.550879 41.873561 233.937292 35.876916 233.937292 28.524865 Z M 233.937292 28.524865 " transform="matrix(0.0951053, 0, 0, -0.0951053, 0.727895, 17.185521)"/>
</g>
</svg>
