<?xml version="1.0" encoding="UTF-8"?>
<svg xmlns="http://www.w3.org/2000/svg" xmlns:xlink="http://www.w3.org/1999/xlink" width="44.75" height="31.3" viewBox="0 0 44.75 31.3">
<defs>
<clipPath id="clip-0">
<path clip-rule="nonzero" d="M 0.367188 5 L 39 5 L 39 30.617188 L 0.367188 30.617188 Z M 0.367188 5 "/>
</clipPath>
<clipPath id="clip-1">
<path clip-rule="nonzero" d="M 38 0 L 44 0 L 44 30.617188 L 38 30.617188 Z M 38 0 "/>
</clipPath>
<clipPath id="clip-2">
<path clip-rule="nonzero" d="M 36 0 L 44.136719 0 L 44.136719 30.617188 L 36 30.617188 Z M 36 0 "/>
</clipPath>
<clipPath id="clip-3">
<path clip-rule="nonzero" d="M 0.367188 0 L 44 0 L 44 6 L 0.367188 6 Z M 0.367188 0 "/>
</clipPath>
<clipPath id="clip-4">
<path clip-rule="nonzero" d="M 0.367188 0 L 44.136719 0 L 44.136719 8 L 0.367188 8 Z M 0.367188 0 "/>
</clipPath>
<clipPath id="clip-5">
<path clip-rule="nonzero" d="M 12 5 L 26 5 L 26 30.617188 L 12 30.617188 Z M 12 5 "/>
</clipPath>
</defs>
<g clip-path="url(#clip-0)">
<path fill-rule="nonzero" fill="rgb(7.069397%, 52.548218%, 74.610901%)" fill-opacity="1" d="M 0.921875 30.175781 L 38.234375 30.175781 L 38.234375 5.660156 L 0.921875 5.660156 L 0.921875 30.175781 "/>
<path fill="none" stroke-width="4" stroke-linecap="butt" stroke-linejoin="miter" stroke="rgb(100%, 100%, 100%)" stroke-opacity="1" stroke-miterlimit="4" d="M 5.670927 4.49361 L 387.140575 4.49361 L 387.140575 255.132588 L 5.670927 255.132588 Z M 5.670927 4.49361 " transform="matrix(0.0978125, 0, 0, -0.0978125, 0.367188, 30.615313)"/>
</g>
<g clip-path="url(#clip-1)">
<path fill-rule="nonzero" fill="rgb(7.069397%, 52.548218%, 74.610901%)" fill-opacity="1" d="M 43.652344 25.300781 L 38.234375 30.175781 L 38.234375 5.660156 L 43.652344 0.457031 L 43.652344 25.300781 "/>
</g>
<g clip-path="url(#clip-2)">
<path fill="none" stroke-width="4" stroke-linecap="butt" stroke-linejoin="miter" stroke="rgb(100%, 100%, 100%)" stroke-opacity="1" stroke-miterlimit="4" d="M 442.531949 54.333866 L 387.140575 4.49361 L 387.140575 255.132588 L 442.531949 308.327476 Z M 442.531949 54.333866 " transform="matrix(0.0978125, 0, 0, -0.0978125, 0.367188, 30.615313)"/>
</g>
<g clip-path="url(#clip-3)">
<path fill-rule="nonzero" fill="rgb(7.069397%, 52.548218%, 74.610901%)" fill-opacity="1" d="M 7.359375 0.457031 L 43.652344 0.457031 L 38.234375 5.660156 L 0.921875 5.660156 L 7.359375 0.457031 "/>
</g>
<g clip-path="url(#clip-4)">
<path fill="none" stroke-width="4" stroke-linecap="butt" stroke-linejoin="miter" stroke="rgb(100%, 100%, 100%)" stroke-opacity="1" stroke-miterlimit="4" d="M 71.485623 308.327476 L 442.531949 308.327476 L 387.140575 255.132588 L 5.670927 255.132588 Z M 71.485623 308.327476 " transform="matrix(0.0978125, 0, 0, -0.0978125, 0.367188, 30.615313)"/>
</g>
<path fill-rule="nonzero" fill="rgb(100%, 100%, 100%)" fill-opacity="1" d="M 8.492188 19.050781 L 3.058594 19.054688 L 3.058594 18.0625 L 8.492188 18.058594 L 8.492188 16.507812 L 12.113281 18.558594 L 8.492188 20.605469 L 8.492188 19.050781 "/>
<path fill-rule="nonzero" fill="rgb(100%, 100%, 100%)" fill-opacity="1" d="M 30.5 12.105469 L 26.699219 12.109375 L 26.699219 11.117188 L 30.5 11.113281 L 30.503906 9.5625 L 34.121094 11.609375 L 30.503906 13.65625 L 30.5 12.105469 "/>
<path fill-rule="nonzero" fill="rgb(100%, 100%, 100%)" fill-opacity="1" d="M 33.4375 18.300781 L 26.699219 18.304688 L 26.699219 17.308594 L 33.4375 17.304688 L 33.4375 15.757812 L 37.058594 17.804688 L 33.4375 19.851562 L 33.4375 18.300781 "/>
<path fill-rule="nonzero" fill="rgb(100%, 100%, 100%)" fill-opacity="1" d="M 30.5 24.496094 L 26.699219 24.5 L 26.699219 23.503906 L 30.5 23.5 L 30.503906 21.949219 L 34.121094 24 L 30.503906 26.046875 L 30.5 24.496094 "/>
<path fill-rule="nonzero" fill="rgb(0%, 0%, 0%)" fill-opacity="1" d="M 23.757812 27.261719 L 14.304688 27.261719 L 14.304688 8.839844 L 23.757812 8.839844 L 23.757812 27.261719 "/>
<path fill="none" stroke-width="8" stroke-linecap="butt" stroke-linejoin="miter" stroke="rgb(100%, 100%, 100%)" stroke-opacity="1" stroke-miterlimit="4" d="M 239.13738 34.285942 L 142.492013 34.285942 L 142.492013 222.624601 L 239.13738 222.624601 Z M 239.13738 34.285942 " transform="matrix(0.0978125, 0, 0, -0.0978125, 0.367188, 30.615313)"/>
<path fill-rule="nonzero" fill="rgb(0%, 0%, 0%)" fill-opacity="1" d="M 23.8125 7.550781 L 23.8125 28.386719 L 14.199219 28.382812 L 14.199219 7.546875 L 23.8125 7.550781 "/>
<g clip-path="url(#clip-5)">
<path fill="none" stroke-width="2.945" stroke-linecap="butt" stroke-linejoin="miter" stroke="rgb(100%, 100%, 100%)" stroke-opacity="1" stroke-miterlimit="4" d="M 239.696486 235.803514 L 239.696486 22.784345 L 141.413738 22.824281 L 141.413738 235.84345 Z M 239.696486 235.803514 " transform="matrix(0.0978125, 0, 0, -0.0978125, 0.367188, 30.615313)"/>
</g>
<path fill-rule="nonzero" fill="rgb(100%, 100%, 100%)" fill-opacity="1" d="M 20.929688 23.449219 L 20.929688 26.21875 L 16.757812 26.214844 L 16.757812 23.445312 L 20.929688 23.449219 "/>
<path fill="none" stroke-width="1.111" stroke-linecap="butt" stroke-linejoin="miter" stroke="rgb(100%, 100%, 100%)" stroke-opacity="1" stroke-miterlimit="4" d="M 210.223642 73.263578 L 210.223642 44.948882 L 167.571885 44.988818 L 167.571885 73.303514 Z M 210.223642 73.263578 " transform="matrix(0.0978125, 0, 0, -0.0978125, 0.367188, 30.615313)"/>
<path fill-rule="nonzero" fill="rgb(100%, 100%, 100%)" fill-opacity="1" d="M 23.074219 26.292969 L 23.074219 27.121094 L 22.371094 27.125 L 22.371094 26.292969 L 23.074219 26.292969 "/>
<path fill="none" stroke-width="0.333" stroke-linecap="butt" stroke-linejoin="miter" stroke="rgb(100%, 100%, 100%)" stroke-opacity="1" stroke-miterlimit="4" d="M 232.148562 44.190096 L 232.148562 35.723642 L 224.960064 35.683706 L 224.960064 44.190096 Z M 232.148562 44.190096 " transform="matrix(0.0978125, 0, 0, -0.0978125, 0.367188, 30.615313)"/>
<path fill-rule="nonzero" fill="rgb(100%, 100%, 100%)" fill-opacity="1" d="M 23.074219 24.597656 L 23.074219 25.425781 L 22.371094 25.425781 L 22.371094 24.597656 L 23.074219 24.597656 "/>
<path fill="none" stroke-width="0.333" stroke-linecap="butt" stroke-linejoin="miter" stroke="rgb(100%, 100%, 100%)" stroke-opacity="1" stroke-miterlimit="4" d="M 232.148562 61.522364 L 232.148562 53.055911 L 224.960064 53.055911 L 224.960064 61.522364 Z M 232.148562 61.522364 " transform="matrix(0.0978125, 0, 0, -0.0978125, 0.367188, 30.615313)"/>
<path fill-rule="nonzero" fill="rgb(100%, 100%, 100%)" fill-opacity="1" d="M 23.074219 22.898438 L 23.074219 23.730469 L 22.371094 23.730469 L 22.371094 22.898438 L 23.074219 22.898438 "/>
<path fill="none" stroke-width="0.333" stroke-linecap="butt" stroke-linejoin="miter" stroke="rgb(100%, 100%, 100%)" stroke-opacity="1" stroke-miterlimit="4" d="M 232.148562 78.894569 L 232.148562 70.388179 L 224.960064 70.388179 L 224.960064 78.894569 Z M 232.148562 78.894569 " transform="matrix(0.0978125, 0, 0, -0.0978125, 0.367188, 30.615313)"/>
<path fill-rule="nonzero" fill="rgb(100%, 100%, 100%)" fill-opacity="1" d="M 23.074219 21.203125 L 23.074219 22.035156 L 22.371094 22.035156 L 22.371094 21.203125 L 23.074219 21.203125 "/>
<path fill="none" stroke-width="0.333" stroke-linecap="butt" stroke-linejoin="miter" stroke="rgb(100%, 100%, 100%)" stroke-opacity="1" stroke-miterlimit="4" d="M 232.148562 96.226837 L 232.148562 87.720447 L 224.960064 87.720447 L 224.960064 96.226837 Z M 232.148562 96.226837 " transform="matrix(0.0978125, 0, 0, -0.0978125, 0.367188, 30.615313)"/>
<path fill-rule="nonzero" fill="rgb(100%, 100%, 100%)" fill-opacity="1" d="M 23.074219 19.511719 L 23.074219 20.339844 L 22.371094 20.339844 L 22.371094 19.511719 L 23.074219 19.511719 "/>
<path fill="none" stroke-width="0.333" stroke-linecap="butt" stroke-linejoin="miter" stroke="rgb(100%, 100%, 100%)" stroke-opacity="1" stroke-miterlimit="4" d="M 232.148562 113.519169 L 232.148562 105.052716 L 224.960064 105.052716 L 224.960064 113.519169 Z M 232.148562 113.519169 " transform="matrix(0.0978125, 0, 0, -0.0978125, 0.367188, 30.615313)"/>
<path fill-rule="nonzero" fill="rgb(100%, 100%, 100%)" fill-opacity="1" d="M 23.074219 17.8125 L 23.074219 18.644531 L 22.371094 18.644531 L 22.371094 17.816406 L 23.074219 17.8125 "/>
<path fill="none" stroke-width="0.333" stroke-linecap="butt" stroke-linejoin="miter" stroke="rgb(100%, 100%, 100%)" stroke-opacity="1" stroke-miterlimit="4" d="M 232.148562 130.891374 L 232.148562 122.384984 L 224.960064 122.384984 L 224.960064 130.851438 Z M 232.148562 130.891374 " transform="matrix(0.0978125, 0, 0, -0.0978125, 0.367188, 30.615313)"/>
<path fill-rule="nonzero" fill="rgb(100%, 100%, 100%)" fill-opacity="1" d="M 23.074219 16.117188 L 23.074219 16.949219 L 22.371094 16.949219 L 22.371094 16.117188 L 23.074219 16.117188 "/>
<path fill="none" stroke-width="0.333" stroke-linecap="butt" stroke-linejoin="miter" stroke="rgb(100%, 100%, 100%)" stroke-opacity="1" stroke-miterlimit="4" d="M 232.148562 148.223642 L 232.148562 139.717252 L 224.960064 139.717252 L 224.960064 148.223642 Z M 232.148562 148.223642 " transform="matrix(0.0978125, 0, 0, -0.0978125, 0.367188, 30.615313)"/>
<path fill-rule="nonzero" fill="rgb(100%, 100%, 100%)" fill-opacity="1" d="M 23.074219 14.421875 L 23.074219 15.253906 L 22.371094 15.253906 L 22.371094 14.421875 L 23.074219 14.421875 "/>
<path fill="none" stroke-width="0.333" stroke-linecap="butt" stroke-linejoin="miter" stroke="rgb(100%, 100%, 100%)" stroke-opacity="1" stroke-miterlimit="4" d="M 232.148562 165.555911 L 232.148562 157.049521 L 224.960064 157.049521 L 224.960064 165.555911 Z M 232.148562 165.555911 " transform="matrix(0.0978125, 0, 0, -0.0978125, 0.367188, 30.615313)"/>
<path fill-rule="nonzero" fill="rgb(100%, 100%, 100%)" fill-opacity="1" d="M 23.074219 12.726562 L 23.074219 13.554688 L 22.371094 13.558594 L 22.371094 12.726562 L 23.074219 12.726562 "/>
<path fill="none" stroke-width="0.333" stroke-linecap="butt" stroke-linejoin="miter" stroke="rgb(100%, 100%, 100%)" stroke-opacity="1" stroke-miterlimit="4" d="M 232.148562 182.888179 L 232.148562 174.421725 L 224.960064 174.381789 L 224.960064 182.888179 Z M 232.148562 182.888179 " transform="matrix(0.0978125, 0, 0, -0.0978125, 0.367188, 30.615313)"/>
<path fill-rule="nonzero" fill="rgb(100%, 100%, 100%)" fill-opacity="1" d="M 23.074219 11.03125 L 23.074219 11.863281 L 22.371094 11.863281 L 22.371094 11.03125 L 23.074219 11.03125 "/>
<path fill="none" stroke-width="0.333" stroke-linecap="butt" stroke-linejoin="miter" stroke="rgb(100%, 100%, 100%)" stroke-opacity="1" stroke-miterlimit="4" d="M 232.148562 200.220447 L 232.148562 191.714058 L 224.960064 191.714058 L 224.960064 200.220447 Z M 232.148562 200.220447 " transform="matrix(0.0978125, 0, 0, -0.0978125, 0.367188, 30.615313)"/>
<path fill-rule="nonzero" fill="rgb(100%, 100%, 100%)" fill-opacity="1" d="M 23.074219 9.335938 L 23.074219 10.164062 L 22.371094 10.167969 L 22.371094 9.335938 L 23.074219 9.335938 "/>
<path fill="none" stroke-width="0.333" stroke-linecap="butt" stroke-linejoin="miter" stroke="rgb(100%, 100%, 100%)" stroke-opacity="1" stroke-miterlimit="4" d="M 232.148562 217.552716 L 232.148562 209.086262 L 224.960064 209.046326 L 224.960064 217.552716 Z M 232.148562 217.552716 " transform="matrix(0.0978125, 0, 0, -0.0978125, 0.367188, 30.615313)"/>
<path fill-rule="nonzero" fill="rgb(100%, 100%, 100%)" fill-opacity="1" d="M 15.589844 26.246094 L 15.589844 27.078125 L 14.886719 27.078125 L 14.886719 26.246094 L 15.589844 26.246094 "/>
<path fill="none" stroke-width="0.333" stroke-linecap="butt" stroke-linejoin="miter" stroke="rgb(100%, 100%, 100%)" stroke-opacity="1" stroke-miterlimit="4" d="M 155.63099 44.669329 L 155.63099 36.162939 L 148.442492 36.162939 L 148.442492 44.669329 Z M 155.63099 44.669329 " transform="matrix(0.0978125, 0, 0, -0.0978125, 0.367188, 30.615313)"/>
<path fill-rule="nonzero" fill="rgb(100%, 100%, 100%)" fill-opacity="1" d="M 15.589844 24.550781 L 15.589844 25.382812 L 14.886719 25.382812 L 14.886719 24.550781 L 15.589844 24.550781 "/>
<path fill="none" stroke-width="0.333" stroke-linecap="butt" stroke-linejoin="miter" stroke="rgb(100%, 100%, 100%)" stroke-opacity="1" stroke-miterlimit="4" d="M 155.63099 62.001597 L 155.63099 53.495208 L 148.442492 53.495208 L 148.442492 62.001597 Z M 155.63099 62.001597 " transform="matrix(0.0978125, 0, 0, -0.0978125, 0.367188, 30.615313)"/>
<path fill-rule="nonzero" fill="rgb(100%, 100%, 100%)" fill-opacity="1" d="M 15.589844 22.855469 L 15.589844 23.683594 L 14.886719 23.6875 L 14.886719 22.855469 L 15.589844 22.855469 "/>
<path fill="none" stroke-width="0.333" stroke-linecap="butt" stroke-linejoin="miter" stroke="rgb(100%, 100%, 100%)" stroke-opacity="1" stroke-miterlimit="4" d="M 155.63099 79.333866 L 155.63099 70.867412 L 148.442492 70.827476 L 148.442492 79.333866 Z M 155.63099 79.333866 " transform="matrix(0.0978125, 0, 0, -0.0978125, 0.367188, 30.615313)"/>
<path fill-rule="nonzero" fill="rgb(100%, 100%, 100%)" fill-opacity="1" d="M 15.589844 21.160156 L 15.589844 21.992188 L 14.886719 21.992188 L 14.886719 21.160156 L 15.589844 21.160156 "/>
<path fill="none" stroke-width="0.333" stroke-linecap="butt" stroke-linejoin="miter" stroke="rgb(100%, 100%, 100%)" stroke-opacity="1" stroke-miterlimit="4" d="M 155.63099 96.666134 L 155.63099 88.159744 L 148.442492 88.159744 L 148.442492 96.666134 Z M 155.63099 96.666134 " transform="matrix(0.0978125, 0, 0, -0.0978125, 0.367188, 30.615313)"/>
<path fill-rule="nonzero" fill="rgb(100%, 100%, 100%)" fill-opacity="1" d="M 15.589844 19.464844 L 15.589844 20.292969 L 14.886719 20.296875 L 14.886719 19.464844 L 15.589844 19.464844 "/>
<path fill="none" stroke-width="0.333" stroke-linecap="butt" stroke-linejoin="miter" stroke="rgb(100%, 100%, 100%)" stroke-opacity="1" stroke-miterlimit="4" d="M 155.63099 113.998403 L 155.63099 105.531949 L 148.442492 105.492013 L 148.442492 113.998403 Z M 155.63099 113.998403 " transform="matrix(0.0978125, 0, 0, -0.0978125, 0.367188, 30.615313)"/>
<path fill-rule="nonzero" fill="rgb(100%, 100%, 100%)" fill-opacity="1" d="M 15.589844 17.769531 L 15.589844 18.601562 L 14.886719 18.601562 L 14.886719 17.769531 L 15.589844 17.769531 "/>
<path fill="none" stroke-width="0.333" stroke-linecap="butt" stroke-linejoin="miter" stroke="rgb(100%, 100%, 100%)" stroke-opacity="1" stroke-miterlimit="4" d="M 155.63099 131.330671 L 155.63099 122.824281 L 148.442492 122.824281 L 148.442492 131.330671 Z M 155.63099 131.330671 " transform="matrix(0.0978125, 0, 0, -0.0978125, 0.367188, 30.615313)"/>
<path fill-rule="nonzero" fill="rgb(100%, 100%, 100%)" fill-opacity="1" d="M 15.589844 16.074219 L 15.589844 16.90625 L 14.886719 16.90625 L 14.886719 16.074219 L 15.589844 16.074219 "/>
<path fill="none" stroke-width="0.333" stroke-linecap="butt" stroke-linejoin="miter" stroke="rgb(100%, 100%, 100%)" stroke-opacity="1" stroke-miterlimit="4" d="M 155.63099 148.662939 L 155.63099 140.15655 L 148.442492 140.15655 L 148.442492 148.662939 Z M 155.63099 148.662939 " transform="matrix(0.0978125, 0, 0, -0.0978125, 0.367188, 30.615313)"/>
<path fill-rule="nonzero" fill="rgb(100%, 100%, 100%)" fill-opacity="1" d="M 15.589844 14.378906 L 15.589844 15.207031 L 14.886719 15.210938 L 14.886719 14.375 L 15.589844 14.378906 "/>
<path fill="none" stroke-width="0.333" stroke-linecap="butt" stroke-linejoin="miter" stroke="rgb(100%, 100%, 100%)" stroke-opacity="1" stroke-miterlimit="4" d="M 155.63099 165.995208 L 155.63099 157.528754 L 148.442492 157.488818 L 148.442492 166.035144 Z M 155.63099 165.995208 " transform="matrix(0.0978125, 0, 0, -0.0978125, 0.367188, 30.615313)"/>
<path fill-rule="nonzero" fill="rgb(100%, 100%, 100%)" fill-opacity="1" d="M 15.589844 12.683594 L 15.589844 13.511719 L 14.886719 13.511719 L 14.886719 12.683594 L 15.589844 12.683594 "/>
<path fill="none" stroke-width="0.333" stroke-linecap="butt" stroke-linejoin="miter" stroke="rgb(100%, 100%, 100%)" stroke-opacity="1" stroke-miterlimit="4" d="M 155.63099 183.327476 L 155.63099 174.861022 L 148.442492 174.861022 L 148.442492 183.327476 Z M 155.63099 183.327476 " transform="matrix(0.0978125, 0, 0, -0.0978125, 0.367188, 30.615313)"/>
<path fill-rule="nonzero" fill="rgb(100%, 100%, 100%)" fill-opacity="1" d="M 15.589844 10.984375 L 15.589844 11.816406 L 14.886719 11.816406 L 14.886719 10.984375 L 15.589844 10.984375 "/>
<path fill="none" stroke-width="0.333" stroke-linecap="butt" stroke-linejoin="miter" stroke="rgb(100%, 100%, 100%)" stroke-opacity="1" stroke-miterlimit="4" d="M 155.63099 200.699681 L 155.63099 192.193291 L 148.442492 192.193291 L 148.442492 200.699681 Z M 155.63099 200.699681 " transform="matrix(0.0978125, 0, 0, -0.0978125, 0.367188, 30.615313)"/>
<path fill-rule="nonzero" fill="rgb(100%, 100%, 100%)" fill-opacity="1" d="M 15.589844 9.289062 L 15.589844 10.121094 L 14.886719 10.121094 L 14.886719 9.289062 L 15.589844 9.289062 "/>
<path fill="none" stroke-width="0.333" stroke-linecap="butt" stroke-linejoin="miter" stroke="rgb(100%, 100%, 100%)" stroke-opacity="1" stroke-miterlimit="4" d="M 155.63099 218.031949 L 155.63099 209.525559 L 148.442492 209.525559 L 148.442492 218.031949 Z M 155.63099 218.031949 " transform="matrix(0.0978125, 0, 0, -0.0978125, 0.367188, 30.615313)"/>
<path fill-rule="nonzero" fill="rgb(100%, 100%, 100%)" fill-opacity="1" d="M 20.929688 18.925781 L 20.929688 21.695312 L 16.757812 21.695312 L 16.757812 18.921875 L 20.929688 18.925781 "/>
<path fill="none" stroke-width="1.111" stroke-linecap="butt" stroke-linejoin="miter" stroke="rgb(100%, 100%, 100%)" stroke-opacity="1" stroke-miterlimit="4" d="M 210.223642 119.509585 L 210.223642 91.194888 L 167.571885 91.194888 L 167.571885 119.549521 Z M 210.223642 119.509585 " transform="matrix(0.0978125, 0, 0, -0.0978125, 0.367188, 30.615313)"/>
<path fill-rule="nonzero" fill="rgb(100%, 100%, 100%)" fill-opacity="1" d="M 20.929688 14.40625 L 20.929688 17.171875 L 16.757812 17.171875 L 16.757812 14.402344 L 20.929688 14.40625 "/>
<path fill="none" stroke-width="1.111" stroke-linecap="butt" stroke-linejoin="miter" stroke="rgb(100%, 100%, 100%)" stroke-opacity="1" stroke-miterlimit="4" d="M 210.223642 165.715655 L 210.223642 137.440895 L 167.571885 137.440895 L 167.571885 165.755591 Z M 210.223642 165.715655 " transform="matrix(0.0978125, 0, 0, -0.0978125, 0.367188, 30.615313)"/>
<path fill-rule="nonzero" fill="rgb(100%, 100%, 100%)" fill-opacity="1" d="M 20.929688 9.882812 L 20.929688 12.652344 L 16.757812 12.648438 L 16.757812 9.878906 L 20.929688 9.882812 "/>
<path fill="none" stroke-width="1.111" stroke-linecap="butt" stroke-linejoin="miter" stroke="rgb(100%, 100%, 100%)" stroke-opacity="1" stroke-miterlimit="4" d="M 210.223642 211.961661 L 210.223642 183.646965 L 167.571885 183.686901 L 167.571885 212.001597 Z M 210.223642 211.961661 " transform="matrix(0.0978125, 0, 0, -0.0978125, 0.367188, 30.615313)"/>
</svg>
