<?xml version="1.0" encoding="UTF-8"?>
<svg xmlns="http://www.w3.org/2000/svg" xmlns:xlink="http://www.w3.org/1999/xlink" width="43.35" height="24.12" viewBox="0 0 43.35 24.12">
<defs>
<clipPath id="clip-0">
<path clip-rule="nonzero" d="M 34 0.0195312 L 40 0.0195312 L 40 23 L 34 23 Z M 34 0.0195312 "/>
</clipPath>
<clipPath id="clip-1">
<path clip-rule="nonzero" d="M 32 0.0195312 L 41.9375 0.0195312 L 41.9375 23.175781 L 32 23.175781 Z M 32 0.0195312 "/>
</clipPath>
<clipPath id="clip-2">
<path clip-rule="nonzero" d="M 0.449219 20 L 39 20 L 39 23.175781 L 0.449219 23.175781 Z M 0.449219 20 "/>
</clipPath>
<clipPath id="clip-3">
<path clip-rule="nonzero" d="M 1 0.0195312 L 39 0.0195312 L 39 23 L 1 23 Z M 1 0.0195312 "/>
</clipPath>
<clipPath id="clip-4">
<path clip-rule="nonzero" d="M 0.449219 0.0195312 L 41 0.0195312 L 41 23.175781 L 0.449219 23.175781 Z M 0.449219 0.0195312 "/>
</clipPath>
<clipPath id="clip-5">
<path clip-rule="nonzero" d="M 8 0.0195312 L 14 0.0195312 L 14 23 L 8 23 Z M 8 0.0195312 "/>
</clipPath>
<clipPath id="clip-6">
<path clip-rule="nonzero" d="M 6 0.0195312 L 16 0.0195312 L 16 23.175781 L 6 23.175781 Z M 6 0.0195312 "/>
</clipPath>
<clipPath id="clip-7">
<path clip-rule="nonzero" d="M 1 0.0195312 L 13 0.0195312 L 13 20 L 1 20 Z M 1 0.0195312 "/>
</clipPath>
<clipPath id="clip-8">
<path clip-rule="nonzero" d="M 39 0.0195312 L 41.9375 0.0195312 L 41.9375 20 L 39 20 Z M 39 0.0195312 "/>
</clipPath>
</defs>
<g clip-path="url(#clip-0)">
<path fill-rule="nonzero" fill="rgb(1.176453%, 41.175842%, 59.605408%)" fill-opacity="1" d="M 38.671875 0.464844 L 39.667969 1.753906 L 35.925781 22.957031 L 34.695312 22.195312 L 38.671875 0.464844 "/>
</g>
<g clip-path="url(#clip-1)">
<path fill="none" stroke-width="3.99994" stroke-linecap="butt" stroke-linejoin="miter" stroke="rgb(100%, 100%, 100%)" stroke-opacity="1" stroke-miterlimit="4" d="M 396.169932 236.381968 L 406.494286 223.021038 L 367.707103 3.253988 L 354.953488 11.149083 Z M 396.169932 236.381968 " transform="matrix(0.09648, 0, 0, -0.09648, 0.4494, 23.270976)"/>
</g>
<path fill-rule="nonzero" fill="rgb(0%, 0%, 0%)" fill-opacity="1" d="M 1.074219 22.195312 L 2.1875 22.957031 L 35.925781 22.957031 L 34.695312 22.195312 L 1.074219 22.195312 "/>
<g clip-path="url(#clip-2)">
<path fill="none" stroke-width="3.99994" stroke-linecap="butt" stroke-linejoin="miter" stroke="rgb(100%, 100%, 100%)" stroke-opacity="1" stroke-miterlimit="4" d="M 6.476148 11.149083 L 18.015133 3.253988 L 367.707103 3.253988 L 354.953488 11.149083 Z M 6.476148 11.149083 " transform="matrix(0.09648, 0, 0, -0.09648, 0.4494, 23.270976)"/>
</g>
<g clip-path="url(#clip-3)">
<path fill-rule="nonzero" fill="rgb(1.176453%, 41.175842%, 59.605408%)" fill-opacity="1" d="M 34.695312 22.195312 L 38.671875 0.464844 L 5.457031 0.464844 L 1.074219 22.195312 L 34.695312 22.195312 "/>
</g>
<g clip-path="url(#clip-4)">
<path fill="none" stroke-width="3.99994" stroke-linecap="butt" stroke-linejoin="miter" stroke="rgb(100%, 100%, 100%)" stroke-opacity="1" stroke-miterlimit="4" d="M 354.953488 11.149083 L 396.169932 236.381968 L 51.903309 236.381968 L 6.476148 11.149083 Z M 354.953488 11.149083 " transform="matrix(0.09648, 0, 0, -0.09648, 0.4494, 23.270976)"/>
</g>
<path fill-rule="nonzero" fill="rgb(1.176453%, 41.175842%, 59.605408%)" fill-opacity="1" d="M 32.15625 18.277344 L 34.691406 4.753906 L 16.035156 4.753906 L 13.496094 18.277344 L 32.15625 18.277344 "/>
<path fill="none" stroke-width="3.99994" stroke-linecap="butt" stroke-linejoin="miter" stroke="rgb(100%, 100%, 100%)" stroke-opacity="1" stroke-miterlimit="4" d="M 328.636505 51.758212 L 354.913 191.926511 L 161.543908 191.926511 L 135.226925 51.758212 Z M 328.636505 51.758212 " transform="matrix(0.09648, 0, 0, -0.09648, 0.4494, 23.270976)"/>
<g clip-path="url(#clip-5)">
<path fill-rule="nonzero" fill="rgb(1.176453%, 41.175842%, 59.605408%)" fill-opacity="1" d="M 13.175781 0.464844 L 8.789062 22.195312 "/>
</g>
<g clip-path="url(#clip-6)">
<path fill="none" stroke-width="3.99994" stroke-linecap="butt" stroke-linejoin="miter" stroke="rgb(100%, 100%, 100%)" stroke-opacity="1" stroke-miterlimit="4" d="M 131.906937 236.381968 L 86.439288 11.149083 " transform="matrix(0.09648, 0, 0, -0.09648, 0.4494, 23.270976)"/>
</g>
<path fill-rule="nonzero" fill="rgb(1.176453%, 41.175842%, 59.605408%)" fill-opacity="1" d="M 4.167969 17.636719 C 6.28125 18.15625 8.839844 15.15625 9.882812 10.929688 C 10.925781 6.707031 10.0625 2.859375 7.949219 2.335938 L 4.167969 17.636719 "/>
<g clip-path="url(#clip-7)">
<path fill="none" stroke-width="3.99994" stroke-linecap="butt" stroke-linejoin="miter" stroke="rgb(100%, 100%, 100%)" stroke-opacity="1" stroke-miterlimit="4" d="M 38.542379 58.398189 C 60.446206 53.013329 86.965628 84.107857 97.775834 127.915511 C 108.586041 171.682678 99.638267 211.563029 77.73444 216.988376 Z M 38.542379 58.398189 " transform="matrix(0.09648, 0, 0, -0.09648, 0.4494, 23.270976)"/>
</g>
<path fill-rule="nonzero" fill="rgb(1.176453%, 41.175842%, 59.605408%)" fill-opacity="1" d="M 16.4375 2.773438 L 22.46875 2.773438 L 22.46875 2.046875 L 16.4375 2.046875 Z M 16.4375 2.773438 "/>
<path fill="none" stroke-width="3.99994" stroke-linecap="butt" stroke-linejoin="miter" stroke="rgb(100%, 100%, 100%)" stroke-opacity="1" stroke-miterlimit="4" d="M 228.227094 212.453757 L 165.714138 212.453757 L 165.714138 219.984463 L 228.227094 219.984463 Z M 228.227094 212.453757 " transform="matrix(0.09648, 0, 0, -0.09648, 0.4494, 23.270976)"/>
<path fill-rule="nonzero" fill="rgb(1.176453%, 41.175842%, 59.605408%)" fill-opacity="1" d="M 28.5 2.773438 L 34.527344 2.773438 L 34.527344 2.046875 L 28.5 2.046875 Z M 28.5 2.773438 "/>
<path fill="none" stroke-width="3.99994" stroke-linecap="butt" stroke-linejoin="miter" stroke="rgb(100%, 100%, 100%)" stroke-opacity="1" stroke-miterlimit="4" d="M 353.212518 212.453757 L 290.74005 212.453757 L 290.74005 219.984463 L 353.212518 219.984463 Z M 353.212518 212.453757 " transform="matrix(0.09648, 0, 0, -0.09648, 0.4494, 23.270976)"/>
<g clip-path="url(#clip-8)">
<path fill-rule="nonzero" fill="rgb(1.176453%, 41.175842%, 59.605408%)" fill-opacity="1" d="M 40.21875 18.65625 C 40.1875 18.921875 39.945312 19.113281 39.683594 19.078125 C 39.417969 19.046875 39.226562 18.808594 39.261719 18.542969 L 41.316406 1.296875 C 41.351562 1.035156 41.589844 0.84375 41.855469 0.875 C 42.117188 0.90625 42.308594 1.148438 42.277344 1.414062 L 40.21875 18.65625 "/>
</g>
</svg>
