<?xml version="1.0" encoding="UTF-8"?>
<svg xmlns="http://www.w3.org/2000/svg" xmlns:xlink="http://www.w3.org/1999/xlink" width="29.21" height="24.96" viewBox="0 0 29.21 24.96">
<defs>
<clipPath id="clip-0">
<path clip-rule="nonzero" d="M 0 3 L 28.238281 3 L 28.238281 24.613281 L 0 24.613281 Z M 0 3 "/>
</clipPath>
<clipPath id="clip-1">
<path clip-rule="nonzero" d="M 18 0.308594 L 24 0.308594 L 24 6 L 18 6 Z M 18 0.308594 "/>
</clipPath>
</defs>
<g clip-path="url(#clip-0)">
<path fill-rule="nonzero" fill="rgb(1.176453%, 41.175842%, 59.605408%)" fill-opacity="1" d="M 15.5 4.191406 L 8.761719 3.957031 L 5.464844 7.46875 L 7.507812 9.128906 L 9.273438 7.207031 L 13.351562 7.347656 L 8.894531 13.148438 L 10.488281 14.621094 L 7.933594 18.046875 L 3.742188 17.898438 L 0.691406 19.265625 L 2.804688 23.648438 L 5.351562 23.738281 L 5.328125 22.773438 L 4.027344 22.726562 L 4.09375 20.804688 L 10.324219 21.019531 L 13.816406 16.777344 L 22.269531 24.613281 L 26.578125 19.773438 L 25.535156 18.773438 L 23.710938 20.75 L 16.851562 14.21875 L 19.761719 10.464844 L 22.363281 12.257812 L 28.359375 12.464844 L 28.441406 10.085938 L 24.144531 9.9375 L 15.5 4.191406 "/>
</g>
<g clip-path="url(#clip-1)">
<path fill-rule="nonzero" fill="rgb(1.176453%, 41.175842%, 59.605408%)" fill-opacity="1" d="M 18.371094 0.304688 L 23.351562 0.476562 L 23.167969 5.800781 L 18.183594 5.628906 L 18.371094 0.304688 "/>
</g>
<path fill-rule="nonzero" fill="rgb(1.176453%, 41.175842%, 59.605408%)" fill-opacity="1" d="M 3.3125 6.652344 L 9 11.425781 L 5.683594 15.375 L 0 10.605469 L 3.3125 6.652344 "/>
</svg>
