<?xml version="1.0" encoding="UTF-8"?>
<svg xmlns="http://www.w3.org/2000/svg" xmlns:xlink="http://www.w3.org/1999/xlink" width="34.3" height="41.9" viewBox="0 0 34.3 41.9">
<defs>
<clipPath id="clip-0">
<path clip-rule="nonzero" d="M 27 10 L 33.613281 10 L 33.613281 19 L 27 19 Z M 27 10 "/>
</clipPath>
<clipPath id="clip-1">
<path clip-rule="nonzero" d="M 25 8 L 33.613281 8 L 33.613281 21 L 25 21 Z M 25 8 "/>
</clipPath>
<clipPath id="clip-2">
<path clip-rule="nonzero" d="M 3 3 L 26 3 L 26 41.433594 L 3 41.433594 Z M 3 3 "/>
</clipPath>
<clipPath id="clip-3">
<path clip-rule="nonzero" d="M 4 0.371094 L 29 0.371094 L 29 5 L 4 5 Z M 4 0.371094 "/>
</clipPath>
<clipPath id="clip-4">
<path clip-rule="nonzero" d="M 1 0.371094 L 31 0.371094 L 31 7 L 1 7 Z M 1 0.371094 "/>
</clipPath>
<clipPath id="clip-5">
<path clip-rule="nonzero" d="M 25 0.371094 L 29 0.371094 L 29 41 L 25 41 Z M 25 0.371094 "/>
</clipPath>
<clipPath id="clip-6">
<path clip-rule="nonzero" d="M 22 0.371094 L 31 0.371094 L 31 41.433594 L 22 41.433594 Z M 22 0.371094 "/>
</clipPath>
<clipPath id="clip-7">
<path clip-rule="nonzero" d="M 17 15 L 33.613281 15 L 33.613281 29 L 17 29 Z M 17 15 "/>
</clipPath>
<clipPath id="clip-8">
<path clip-rule="nonzero" d="M 15 13 L 33.613281 13 L 33.613281 32 L 15 32 Z M 15 13 "/>
</clipPath>
</defs>
<path fill-rule="nonzero" fill="rgb(100%, 100%, 100%)" fill-opacity="1" stroke-width="4" stroke-linecap="butt" stroke-linejoin="miter" stroke="rgb(13.729858%, 12.159729%, 12.548828%)" stroke-opacity="1" stroke-miterlimit="4" d="M 48.349809 314.317283 L 1.992985 314.317283 L 1.992985 276.012117 L 42.809311 276.131696 L 47.672194 276.131696 " transform="matrix(0.098, 0, 0, -0.098, 0, 41.432)"/>
<g clip-path="url(#clip-0)">
<path fill-rule="nonzero" fill="rgb(100%, 100%, 100%)" fill-opacity="1" d="M 28.238281 14.515625 L 28.773438 14.515625 C 32.78125 14.515625 33.417969 18.121094 33.417969 18.121094 L 33.417969 14.378906 C 33.417969 14.378906 32.78125 10.773438 28.773438 10.773438 L 27.890625 10.773438 "/>
</g>
<g clip-path="url(#clip-1)">
<path fill="none" stroke-width="4" stroke-linecap="butt" stroke-linejoin="miter" stroke="rgb(13.729858%, 12.159729%, 12.548828%)" stroke-opacity="1" stroke-miterlimit="4" d="M 288.145727 274.656888 L 293.606505 274.656888 C 334.502551 274.656888 340.999681 237.86639 340.999681 237.86639 L 340.999681 276.051977 C 340.999681 276.051977 334.502551 312.842474 293.606505 312.842474 L 284.598214 312.842474 " transform="matrix(0.098, 0, 0, -0.098, 0, 41.432)"/>
</g>
<path fill-rule="nonzero" fill="rgb(3.022766%, 50.531006%, 75.683594%)" fill-opacity="1" d="M 25.195312 40.878906 L 25.195312 4.117188 L 4.113281 4.117188 L 4.113281 40.878906 L 25.195312 40.878906 "/>
<g clip-path="url(#clip-2)">
<path fill="none" stroke-width="4" stroke-linecap="butt" stroke-linejoin="miter" stroke="rgb(100%, 100%, 100%)" stroke-opacity="1" stroke-miterlimit="4" d="M 257.095026 5.643814 L 257.095026 380.763393 L 41.972258 380.763393 L 41.972258 5.643814 Z M 257.095026 5.643814 " transform="matrix(0.098, 0, 0, -0.098, 0, 41.432)"/>
</g>
<g clip-path="url(#clip-3)">
<path fill-rule="nonzero" fill="rgb(3.022766%, 50.531006%, 75.683594%)" fill-opacity="1" d="M 4.113281 4.117188 L 8.140625 0.84375 L 28.46875 0.84375 L 25.195312 4.117188 L 4.113281 4.117188 "/>
</g>
<g clip-path="url(#clip-4)">
<path fill="none" stroke-width="4" stroke-linecap="butt" stroke-linejoin="miter" stroke="rgb(100%, 100%, 100%)" stroke-opacity="1" stroke-miterlimit="4" d="M 41.972258 380.763393 L 83.067602 414.165816 L 290.497449 414.165816 L 257.095026 380.763393 Z M 41.972258 380.763393 " transform="matrix(0.098, 0, 0, -0.098, 0, 41.432)"/>
</g>
<g clip-path="url(#clip-5)">
<path fill-rule="nonzero" fill="rgb(3.022766%, 50.531006%, 75.683594%)" fill-opacity="1" d="M 25.195312 40.878906 L 28.46875 36.851562 L 28.46875 0.84375 L 25.195312 4.117188 L 25.195312 40.878906 "/>
</g>
<g clip-path="url(#clip-6)">
<path fill="none" stroke-width="4" stroke-linecap="butt" stroke-linejoin="miter" stroke="rgb(100%, 100%, 100%)" stroke-opacity="1" stroke-miterlimit="4" d="M 257.095026 5.643814 L 290.497449 46.739158 L 290.497449 414.165816 L 257.095026 380.763393 Z M 257.095026 5.643814 " transform="matrix(0.098, 0, 0, -0.098, 0, 41.432)"/>
</g>
<g clip-path="url(#clip-7)">
<path fill-rule="nonzero" fill="rgb(100%, 100%, 100%)" fill-opacity="1" d="M 33.421875 15.558594 L 33.421875 19.992188 C 32.984375 25.257812 23.648438 24.984375 23.648438 24.984375 L 23.648438 28.863281 L 17.550781 22.765625 L 23.648438 16.667969 L 23.648438 20.546875 C 23.648438 20.546875 33.144531 20.824219 33.421875 15.558594 "/>
</g>
<g clip-path="url(#clip-8)">
<path fill="none" stroke-width="4" stroke-linecap="butt" stroke-linejoin="miter" stroke="rgb(13.729858%, 12.159729%, 12.548828%)" stroke-opacity="1" stroke-miterlimit="4" d="M 341.039541 264.014349 L 341.039541 218.773597 C 336.575255 165.04273 241.310587 167.832908 241.310587 167.832908 L 241.310587 128.252232 L 179.089605 190.473214 L 241.310587 252.694196 L 241.310587 213.11352 C 241.310587 213.11352 338.209503 210.283482 341.039541 264.014349 " transform="matrix(0.098, 0, 0, -0.098, 0, 41.432)"/>
</g>
<path fill-rule="nonzero" fill="rgb(100%, 100%, 100%)" fill-opacity="1" d="M 7.152344 10.121094 L 6.125 11.121094 L 6.128906 6.410156 L 10.835938 6.410156 L 9.796875 7.476562 L 9.597656 7.691406 L 16.605469 14.683594 L 14.316406 16.972656 L 7.316406 9.96875 L 7.152344 10.121094 "/>
<path fill-rule="nonzero" fill="rgb(100%, 100%, 100%)" fill-opacity="1" d="M 7.582031 34.886719 L 6.558594 33.890625 L 6.558594 38.601562 L 11.269531 38.601562 L 10.230469 37.535156 L 10.027344 37.324219 L 17.039062 30.324219 L 14.75 28.039062 L 7.75 35.042969 L 7.582031 34.886719 "/>
<path fill-rule="nonzero" fill="rgb(99.993896%, 99.992371%, 99.992371%)" fill-opacity="1" d="M 10.660156 21.734375 L 10.660156 26.46875 L 5.640625 26.46875 L 5.640625 21.734375 C 8.152344 20.230469 10.660156 21.734375 10.660156 21.734375 "/>
<path fill-rule="nonzero" fill="rgb(99.993896%, 99.992371%, 99.992371%)" fill-opacity="1" d="M 9.703125 19.679688 C 9.703125 20.511719 9.03125 21.183594 8.199219 21.183594 C 7.367188 21.183594 6.691406 20.511719 6.691406 19.679688 C 6.691406 18.84375 7.367188 18.171875 8.199219 18.171875 C 9.03125 18.171875 9.703125 18.84375 9.703125 19.679688 "/>
<path fill-rule="nonzero" fill="rgb(99.993896%, 99.992371%, 99.992371%)" fill-opacity="1" d="M 16.785156 21.734375 L 16.785156 26.46875 L 11.761719 26.46875 L 11.761719 21.734375 C 14.273438 20.230469 16.785156 21.734375 16.785156 21.734375 "/>
<path fill-rule="nonzero" fill="rgb(99.993896%, 99.992371%, 99.992371%)" fill-opacity="1" d="M 15.828125 19.679688 C 15.828125 20.511719 15.152344 21.183594 14.320312 21.183594 C 13.488281 21.183594 12.816406 20.511719 12.816406 19.679688 C 12.816406 18.84375 13.488281 18.171875 14.320312 18.171875 C 15.152344 18.171875 15.828125 18.84375 15.828125 19.679688 "/>
</svg>
