<?xml version="1.0" encoding="UTF-8"?>
<svg xmlns="http://www.w3.org/2000/svg" xmlns:xlink="http://www.w3.org/1999/xlink" width="33.64" height="31.74" viewBox="0 0 33.64 31.74">
<defs>
<clipPath id="clip-0">
<path clip-rule="nonzero" d="M 0 2 L 31 2 L 31 31.441406 L 0 31.441406 Z M 0 2 "/>
</clipPath>
<clipPath id="clip-1">
<path clip-rule="nonzero" d="M 0 0.0390625 L 33 0.0390625 L 33 3 L 0 3 Z M 0 0.0390625 "/>
</clipPath>
<clipPath id="clip-2">
<path clip-rule="nonzero" d="M 0 0.0390625 L 33.285156 0.0390625 L 33.285156 6 L 0 6 Z M 0 0.0390625 "/>
</clipPath>
<clipPath id="clip-3">
<path clip-rule="nonzero" d="M 30 0.0390625 L 33 0.0390625 L 33 31 L 30 31 Z M 30 0.0390625 "/>
</clipPath>
<clipPath id="clip-4">
<path clip-rule="nonzero" d="M 28 0.0390625 L 33.285156 0.0390625 L 33.285156 31.441406 L 28 31.441406 Z M 28 0.0390625 "/>
</clipPath>
<clipPath id="clip-5">
<path clip-rule="nonzero" d="M 0 17 L 33 17 L 33 31.441406 L 0 31.441406 Z M 0 17 "/>
</clipPath>
</defs>
<path fill-rule="nonzero" fill="rgb(0.784302%, 42.352295%, 60.78186%)" fill-opacity="1" d="M 0.558594 30.886719 L 30.324219 30.886719 L 30.324219 3 L 0.558594 3 Z M 0.558594 30.886719 "/>
<g clip-path="url(#clip-0)">
<path fill="none" stroke-width="4" stroke-linecap="butt" stroke-linejoin="miter" stroke="rgb(100%, 100%, 100%)" stroke-opacity="1" stroke-miterlimit="4" d="M 306.487348 5.625791 L 306.487348 287.477289 L 5.645716 287.477289 L 5.645716 5.625791 Z M 306.487348 5.625791 " transform="matrix(0.0989412, 0, 0, -0.0989412, 0, 31.443341)"/>
</g>
<g clip-path="url(#clip-1)">
<path fill-rule="nonzero" fill="rgb(0.784302%, 42.352295%, 60.78186%)" fill-opacity="1" d="M 0.558594 3 L 3.613281 0.515625 L 32.808594 0.515625 L 30.324219 3 L 0.558594 3 "/>
</g>
<g clip-path="url(#clip-2)">
<path fill="none" stroke-width="4" stroke-linecap="butt" stroke-linejoin="miter" stroke="rgb(100%, 100%, 100%)" stroke-opacity="1" stroke-miterlimit="4" d="M 5.645716 287.477289 L 36.519489 312.586905 L 331.596964 312.586905 L 306.487348 287.477289 Z M 5.645716 287.477289 " transform="matrix(0.0989412, 0, 0, -0.0989412, 0, 31.443341)"/>
</g>
<g clip-path="url(#clip-3)">
<path fill-rule="nonzero" fill="rgb(0.784302%, 42.352295%, 60.78186%)" fill-opacity="1" d="M 30.324219 30.886719 L 32.808594 27.828125 L 32.808594 0.515625 L 30.324219 3 L 30.324219 30.886719 "/>
</g>
<g clip-path="url(#clip-4)">
<path fill="none" stroke-width="4" stroke-linecap="butt" stroke-linejoin="miter" stroke="rgb(100%, 100%, 100%)" stroke-opacity="1" stroke-miterlimit="4" d="M 306.487348 5.625791 L 331.596964 36.539046 L 331.596964 312.586905 L 306.487348 287.477289 Z M 306.487348 5.625791 " transform="matrix(0.0989412, 0, 0, -0.0989412, 0, 31.443341)"/>
</g>
<path fill="none" stroke-width="4" stroke-linecap="butt" stroke-linejoin="miter" stroke="rgb(100%, 100%, 100%)" stroke-opacity="1" stroke-miterlimit="4" d="M 304.157996 192.092331 L 247.345515 192.092331 C 227.684212 192.092331 227.684212 211.753634 227.684212 211.753634 C 258.281622 279.502222 203.640569 268.566115 203.640569 268.566115 C 203.640569 268.566115 149.038997 279.502222 179.596927 211.753634 C 179.596927 211.753634 179.596927 192.092331 159.935624 192.092331 L 22.267018 192.092331 C 22.267018 192.092331 11.330912 189.920901 6.988054 174.602456 " transform="matrix(0.0989412, 0, 0, -0.0989412, 0, 31.443341)"/>
<g clip-path="url(#clip-5)">
<path fill="none" stroke-width="4" stroke-linecap="butt" stroke-linejoin="miter" stroke="rgb(100%, 100%, 100%)" stroke-opacity="1" stroke-miterlimit="4" d="M 5.290391 103.892828 L 62.142353 103.892828 C 81.764176 103.892828 81.764176 84.231525 81.764176 84.231525 C 51.206246 16.482937 105.847299 27.419044 105.847299 27.419044 C 105.847299 27.419044 160.44887 16.482937 129.85146 84.231525 C 129.85146 84.231525 129.85146 103.892828 149.512764 103.892828 L 287.220849 103.892828 C 287.220849 103.892828 298.156956 106.064258 302.499814 121.343222 " transform="matrix(0.0989412, 0, 0, -0.0989412, 0, 31.443341)"/>
</g>
<path fill-rule="nonzero" fill="rgb(100%, 100%, 100%)" fill-opacity="1" d="M 7.496094 15.734375 L 8.25 16.859375 L 5.410156 17.515625 L 6.027344 17 L 1.640625 16.25 L 2.738281 15.425781 L 6.976562 16.140625 L 7.496094 15.734375 "/>
<path fill-rule="nonzero" fill="rgb(100%, 100%, 100%)" fill-opacity="1" d="M 11.496094 18.464844 L 10.984375 17.304688 L 13.546875 16.792969 L 13.101562 17.191406 L 17.371094 17.917969 L 16.347656 18.738281 L 12.101562 17.941406 L 11.496094 18.464844 "/>
<path fill-rule="nonzero" fill="rgb(100%, 100%, 100%)" fill-opacity="1" d="M 10.09375 15.117188 L 12.964844 14.332031 L 13 15.5625 L 12.28125 15.425781 L 10.882812 16.585938 L 9.542969 16.394531 L 10.988281 15.257812 L 10.09375 15.117188 "/>
<path fill-rule="nonzero" fill="rgb(100%, 100%, 100%)" fill-opacity="1" d="M 8.863281 19.523438 L 6.132812 20.039062 L 6.027344 18.773438 L 6.816406 18.945312 L 8.320312 17.660156 L 9.648438 17.886719 L 8.042969 19.285156 L 8.863281 19.523438 "/>
<path fill-rule="nonzero" fill="rgb(100%, 100%, 100%)" fill-opacity="1" d="M 23.84375 16.914062 L 25.726562 18.390625 L 26.601562 18.386719 L 26.601562 17.996094 L 28.597656 18.703125 L 26.601562 19.410156 L 26.601562 19.011719 L 25.464844 19.011719 L 23.316406 17.328125 L 21.167969 19.011719 L 20.03125 19.011719 L 20.03125 19.410156 L 18.035156 18.703125 L 20.03125 17.996094 L 20.03125 18.386719 L 20.90625 18.390625 L 22.789062 16.914062 L 20.90625 15.441406 L 20.03125 15.441406 L 20.03125 15.828125 L 18.035156 15.125 L 20.03125 14.414062 L 20.03125 14.8125 L 21.167969 14.816406 L 23.316406 16.5 L 25.464844 14.816406 L 26.601562 14.8125 L 26.601562 14.414062 L 28.597656 15.125 L 26.601562 15.828125 L 26.601562 15.441406 L 25.726562 15.441406 L 23.84375 16.914062 "/>
</svg>
