<?xml version="1.0" encoding="UTF-8"?>
<svg xmlns="http://www.w3.org/2000/svg" xmlns:xlink="http://www.w3.org/1999/xlink" width="77.22" height="31.45" viewBox="0 0 77.22 31.45">
<defs>
<clipPath id="clip-0">
<path clip-rule="nonzero" d="M 66 3 L 75.957031 3 L 75.957031 25 L 66 25 Z M 66 3 "/>
</clipPath>
<clipPath id="clip-1">
<path clip-rule="nonzero" d="M 64 1 L 75.957031 1 L 75.957031 28 L 64 28 Z M 64 1 "/>
</clipPath>
<clipPath id="clip-2">
<path clip-rule="nonzero" d="M 39 18 L 70 18 L 70 30.515625 L 39 30.515625 Z M 39 18 "/>
</clipPath>
<clipPath id="clip-3">
<path clip-rule="nonzero" d="M 41 27 L 63 27 L 63 30.515625 L 41 30.515625 Z M 41 27 "/>
</clipPath>
<clipPath id="clip-4">
<path clip-rule="nonzero" d="M 39 25 L 65 25 L 65 30.515625 L 39 30.515625 Z M 39 25 "/>
</clipPath>
<clipPath id="clip-5">
<path clip-rule="nonzero" d="M 61 20 L 67 20 L 67 30.515625 L 61 30.515625 Z M 61 20 "/>
</clipPath>
<clipPath id="clip-6">
<path clip-rule="nonzero" d="M 59 18 L 70 18 L 70 30.515625 L 59 30.515625 Z M 59 18 "/>
</clipPath>
<clipPath id="clip-7">
<path clip-rule="nonzero" d="M 0.28125 10 L 5 10 L 5 20 L 0.28125 20 Z M 0.28125 10 "/>
</clipPath>
<clipPath id="clip-8">
<path clip-rule="nonzero" d="M 0.28125 19 L 6 19 L 6 23 L 0.28125 23 Z M 0.28125 19 "/>
</clipPath>
<clipPath id="clip-9">
<path clip-rule="nonzero" d="M 0.28125 16 L 8 16 L 8 25 L 0.28125 25 Z M 0.28125 16 "/>
</clipPath>
<clipPath id="clip-10">
<path clip-rule="nonzero" d="M 0.28125 5 L 8 5 L 8 20 L 0.28125 20 Z M 0.28125 5 "/>
</clipPath>
<clipPath id="clip-11">
<path clip-rule="nonzero" d="M 0.28125 2 L 10 2 L 10 22 L 0.28125 22 Z M 0.28125 2 "/>
</clipPath>
</defs>
<path fill-rule="nonzero" fill="rgb(1.176453%, 41.175842%, 59.605408%)" fill-opacity="1" d="M 67.882812 24.359375 C 67.882812 24.714844 67.597656 24.996094 67.246094 24.996094 L 7.015625 24.996094 C 6.664062 24.996094 6.378906 24.714844 6.378906 24.359375 L 9.726562 4.1875 C 9.726562 3.835938 10.007812 3.550781 10.359375 3.550781 L 69.53125 3.550781 C 69.882812 3.550781 70.167969 3.835938 70.167969 4.1875 L 67.882812 24.359375 "/>
<path fill="none" stroke-width="3.99994" stroke-linecap="butt" stroke-linejoin="miter" stroke="rgb(100%, 100%, 100%)" stroke-opacity="1" stroke-miterlimit="4" d="M 687.847377 66.646264 C 687.847377 63.029412 684.945946 60.167727 681.368839 60.167727 L 68.531002 60.167727 C 64.953895 60.167727 62.052464 63.029412 62.052464 66.646264 L 96.114467 271.892687 C 96.114467 275.469793 98.976153 278.371224 102.553259 278.371224 L 704.620032 278.371224 C 708.197138 278.371224 711.098569 275.469793 711.098569 271.892687 Z M 687.847377 66.646264 " transform="matrix(0.0982813, 0, 0, -0.0982813, 0.280313, 30.909453)"/>
<g clip-path="url(#clip-0)">
<path fill-rule="nonzero" fill="rgb(1.176453%, 41.175842%, 59.605408%)" fill-opacity="1" d="M 76.03125 21.484375 C 76.03125 21.839844 75.746094 22.121094 75.394531 22.121094 L 67.046875 24.996094 C 66.695312 24.996094 66.410156 24.714844 66.410156 24.359375 L 68.695312 4.1875 C 68.695312 3.835938 68.976562 3.550781 69.332031 3.550781 L 75.429688 3.550781 C 75.777344 3.550781 76.066406 3.835938 76.066406 4.1875 L 76.03125 21.484375 "/>
</g>
<g clip-path="url(#clip-1)">
<path fill="none" stroke-width="3.99994" stroke-linecap="butt" stroke-linejoin="miter" stroke="rgb(100%, 100%, 100%)" stroke-opacity="1" stroke-miterlimit="4" d="M 770.756757 95.899046 C 770.756757 92.282194 767.855326 89.420509 764.278219 89.420509 L 679.341812 60.167727 C 675.764706 60.167727 672.863275 63.029412 672.863275 66.646264 L 696.114467 271.892687 C 696.114467 275.469793 698.976153 278.371224 702.593005 278.371224 L 764.63593 278.371224 C 768.173291 278.371224 771.114467 275.469793 771.114467 271.892687 Z M 770.756757 95.899046 " transform="matrix(0.0982813, 0, 0, -0.0982813, 0.280313, 30.909453)"/>
</g>
<path fill-rule="nonzero" fill="rgb(1.176453%, 41.175842%, 59.605408%)" fill-opacity="1" d="M 62.058594 27.808594 L 41.324219 27.808594 L 47.175781 20.226562 L 66.785156 20.226562 L 62.058594 27.808594 "/>
<g clip-path="url(#clip-2)">
<path fill="none" stroke-width="3.99994" stroke-linecap="butt" stroke-linejoin="miter" stroke="rgb(100%, 100%, 100%)" stroke-opacity="1" stroke-miterlimit="4" d="M 628.586645 31.550874 L 417.616852 31.550874 L 477.155803 108.697138 L 676.678855 108.697138 Z M 628.586645 31.550874 " transform="matrix(0.0982813, 0, 0, -0.0982813, 0.280313, 30.909453)"/>
</g>
<g clip-path="url(#clip-3)">
<path fill-rule="nonzero" fill="rgb(1.176453%, 41.175842%, 59.605408%)" fill-opacity="1" d="M 62.058594 30.265625 L 41.324219 30.265625 L 41.558594 27.90625 L 62.058594 27.90625 L 62.058594 30.265625 "/>
</g>
<g clip-path="url(#clip-4)">
<path fill="none" stroke-width="3.99994" stroke-linecap="butt" stroke-linejoin="miter" stroke="rgb(100%, 100%, 100%)" stroke-opacity="1" stroke-miterlimit="4" d="M 628.586645 6.550874 L 417.616852 6.550874 L 420.00159 30.557234 L 628.586645 30.557234 Z M 628.586645 6.550874 " transform="matrix(0.0982813, 0, 0, -0.0982813, 0.280313, 30.909453)"/>
</g>
<g clip-path="url(#clip-5)">
<path fill-rule="nonzero" fill="rgb(1.176453%, 41.175842%, 59.605408%)" fill-opacity="1" d="M 66.914062 20.246094 L 66.914062 25.085938 L 61.929688 30.410156 L 61.929688 27.628906 L 66.914062 20.246094 "/>
</g>
<g clip-path="url(#clip-6)">
<path fill="none" stroke-width="3.99994" stroke-linecap="butt" stroke-linejoin="miter" stroke="rgb(100%, 100%, 100%)" stroke-opacity="1" stroke-miterlimit="4" d="M 677.990461 108.49841 L 677.990461 59.253577 L 627.27504 5.080286 L 627.27504 33.379173 Z M 677.990461 108.49841 " transform="matrix(0.0982813, 0, 0, -0.0982813, 0.280313, 30.909453)"/>
</g>
<path fill-rule="nonzero" fill="rgb(1.176453%, 41.175842%, 59.605408%)" fill-opacity="1" stroke-width="3.99994" stroke-linecap="butt" stroke-linejoin="miter" stroke="rgb(100%, 100%, 100%)" stroke-opacity="1" stroke-miterlimit="4" d="M 277.91097 275.191574 L 246.432432 60.883148 " transform="matrix(0.0982813, 0, 0, -0.0982813, 0.280313, 30.909453)"/>
<path fill-rule="nonzero" fill="rgb(1.176453%, 41.175842%, 59.605408%)" fill-opacity="1" stroke-width="3.99994" stroke-linecap="butt" stroke-linejoin="miter" stroke="rgb(100%, 100%, 100%)" stroke-opacity="1" stroke-miterlimit="4" d="M 496.790143 276.662162 L 475.009539 106.550874 " transform="matrix(0.0982813, 0, 0, -0.0982813, 0.280313, 30.909453)"/>
<path fill-rule="nonzero" fill="rgb(1.176453%, 41.175842%, 59.605408%)" fill-opacity="1" d="M 66.972656 11.167969 C 66.972656 12.523438 65.875 13.625 64.515625 13.625 C 63.160156 13.625 62.058594 12.523438 62.058594 11.167969 C 62.058594 9.808594 63.160156 8.710938 64.515625 8.710938 C 65.875 8.710938 66.972656 9.808594 66.972656 11.167969 "/>
<path fill="none" stroke-width="3.99994" stroke-linecap="butt" stroke-linejoin="miter" stroke="rgb(100%, 100%, 100%)" stroke-opacity="1" stroke-miterlimit="4" d="M 678.586645 200.86725 C 678.586645 187.075517 667.418124 175.86725 653.586645 175.86725 C 639.794913 175.86725 628.586645 187.075517 628.586645 200.86725 C 628.586645 214.698728 639.794913 225.86725 653.586645 225.86725 C 667.418124 225.86725 678.586645 214.698728 678.586645 200.86725 Z M 678.586645 200.86725 " transform="matrix(0.0982813, 0, 0, -0.0982813, 0.280313, 30.909453)"/>
<path fill-rule="nonzero" fill="rgb(1.176453%, 41.175842%, 59.605408%)" fill-opacity="1" d="M 20.046875 8.21875 C 20.046875 9.574219 18.945312 10.675781 17.589844 10.675781 C 16.230469 10.675781 15.132812 9.574219 15.132812 8.21875 C 15.132812 6.859375 16.230469 5.761719 17.589844 5.761719 C 18.945312 5.761719 20.046875 6.859375 20.046875 8.21875 "/>
<path fill="none" stroke-width="3.99994" stroke-linecap="butt" stroke-linejoin="miter" stroke="rgb(100%, 100%, 100%)" stroke-opacity="1" stroke-miterlimit="4" d="M 201.122417 230.875199 C 201.122417 217.083466 189.914149 205.875199 176.122417 205.875199 C 162.290938 205.875199 151.122417 217.083466 151.122417 230.875199 C 151.122417 244.706677 162.290938 255.875199 176.122417 255.875199 C 189.914149 255.875199 201.122417 244.706677 201.122417 230.875199 Z M 201.122417 230.875199 " transform="matrix(0.0982813, 0, 0, -0.0982813, 0.280313, 30.909453)"/>
<path fill-rule="nonzero" fill="rgb(1.176453%, 41.175842%, 59.605408%)" fill-opacity="1" d="M 52.710938 24.199219 C 52.144531 25.328125 50.402344 26.175781 48.820312 26.085938 C 47.234375 25.992188 46.410156 25.003906 46.976562 23.871094 C 47.539062 22.742188 49.28125 21.898438 50.863281 21.988281 C 52.449219 22.078125 53.273438 23.070312 52.710938 24.199219 "/>
<path fill="none" stroke-width="3.99994" stroke-linecap="butt" stroke-linejoin="miter" stroke="rgb(100%, 100%, 100%)" stroke-opacity="1" stroke-miterlimit="4" d="M 533.475358 68.275835 C 527.712242 56.789348 509.985692 48.164547 493.888712 49.078696 C 477.751987 50.032591 469.36566 60.088235 475.128776 71.614467 C 480.852146 83.100954 498.578696 91.68601 514.675676 90.77186 C 530.812401 89.857711 539.198728 79.762321 533.475358 68.275835 Z M 533.475358 68.275835 " transform="matrix(0.0982813, 0, 0, -0.0982813, 0.280313, 30.909453)"/>
<path fill-rule="nonzero" fill="rgb(1.176453%, 41.175842%, 59.605408%)" fill-opacity="1" d="M 35.488281 16.730469 C 35.136719 18.949219 33.328125 19.457031 31.203125 19.46875 C 29.078125 19.480469 27.433594 18.988281 27.785156 16.773438 L 28.832031 10.246094 C 29.1875 8.027344 30.992188 7.519531 33.121094 7.511719 C 35.246094 7.5 36.890625 7.988281 36.535156 10.207031 L 35.488281 16.730469 "/>
<path fill="none" stroke-width="3.99994" stroke-linecap="butt" stroke-linejoin="miter" stroke="rgb(100%, 100%, 100%)" stroke-opacity="1" stroke-miterlimit="4" d="M 358.236884 144.269475 C 354.659777 121.693959 336.257552 116.527027 314.63593 116.40779 C 293.014308 116.288553 276.281399 121.296502 279.858506 143.832273 L 290.510334 210.247218 C 294.127186 232.822734 312.489666 237.989666 334.151033 238.069157 C 355.772655 238.188394 372.505564 233.220191 368.888712 210.644674 Z M 358.236884 144.269475 " transform="matrix(0.0982813, 0, 0, -0.0982813, 0.280313, 30.909453)"/>
<path fill-rule="nonzero" fill="rgb(1.176453%, 41.175842%, 59.605408%)" fill-opacity="1" d="M 44.089844 16.730469 C 43.734375 18.949219 41.929688 19.457031 39.804688 19.46875 C 37.675781 19.480469 36.03125 18.988281 36.386719 16.773438 L 37.433594 10.246094 C 37.789062 8.027344 39.589844 7.519531 41.71875 7.511719 C 43.84375 7.5 45.492188 7.988281 45.136719 10.207031 L 44.089844 16.730469 "/>
<path fill="none" stroke-width="3.99994" stroke-linecap="butt" stroke-linejoin="miter" stroke="rgb(100%, 100%, 100%)" stroke-opacity="1" stroke-miterlimit="4" d="M 445.756757 144.269475 C 442.139905 121.693959 423.777424 116.527027 402.155803 116.40779 C 380.494436 116.288553 363.761526 121.296502 367.378378 143.832273 L 378.030207 210.247218 C 381.647059 232.822734 399.969793 237.989666 421.631161 238.069157 C 443.252782 238.188394 460.025437 233.220191 456.408585 210.644674 Z M 445.756757 144.269475 " transform="matrix(0.0982813, 0, 0, -0.0982813, 0.280313, 30.909453)"/>
<path fill-rule="nonzero" fill="rgb(1.176453%, 41.175842%, 59.605408%)" fill-opacity="1" d="M 59.1875 16.339844 C 58.753906 18.226562 56.546875 18.65625 53.941406 18.664062 C 51.339844 18.675781 49.324219 18.257812 49.761719 16.375 L 50.617188 10.828125 C 51.054688 8.941406 53.261719 8.511719 55.863281 8.5 C 58.46875 8.492188 60.480469 8.90625 60.046875 10.792969 L 59.1875 16.339844 "/>
<path fill="none" stroke-width="3.99994" stroke-linecap="butt" stroke-linejoin="miter" stroke="rgb(100%, 100%, 100%)" stroke-opacity="1" stroke-miterlimit="4" d="M 599.373609 148.244038 C 594.961844 129.0469 572.505564 124.674881 545.995231 124.59539 C 519.524642 124.476153 499.015898 128.728935 503.467409 147.886328 L 512.171701 204.325119 C 516.623211 223.522258 539.079491 227.894277 565.550079 228.013514 C 592.060413 228.093005 612.529412 223.879968 608.117647 204.68283 Z M 599.373609 148.244038 " transform="matrix(0.0982813, 0, 0, -0.0982813, 0.280313, 30.909453)"/>
<path fill-rule="nonzero" fill="rgb(1.176453%, 41.175842%, 59.605408%)" fill-opacity="1" d="M 23.441406 14.605469 L 11.320312 14.605469 L 11.648438 12.640625 L 23.765625 12.640625 L 23.441406 14.605469 "/>
<path fill="none" stroke-width="3.99994" stroke-linecap="butt" stroke-linejoin="miter" stroke="rgb(100%, 100%, 100%)" stroke-opacity="1" stroke-miterlimit="4" d="M 235.661367 165.891097 L 112.330684 165.891097 L 115.669316 185.883148 L 238.960254 185.883148 Z M 235.661367 165.891097 " transform="matrix(0.0982813, 0, 0, -0.0982813, 0.280313, 30.909453)"/>
<path fill-rule="nonzero" fill="rgb(1.176453%, 41.175842%, 59.605408%)" fill-opacity="1" d="M 22.785156 17.554688 L 10.664062 17.554688 L 10.992188 15.589844 L 23.113281 15.589844 L 22.785156 17.554688 "/>
<path fill="none" stroke-width="3.99994" stroke-linecap="butt" stroke-linejoin="miter" stroke="rgb(100%, 100%, 100%)" stroke-opacity="1" stroke-miterlimit="4" d="M 228.984102 135.883148 L 105.653418 135.883148 L 108.992051 155.875199 L 232.322734 155.875199 Z M 228.984102 135.883148 " transform="matrix(0.0982813, 0, 0, -0.0982813, 0.280313, 30.909453)"/>
<path fill-rule="nonzero" fill="rgb(1.176453%, 41.175842%, 59.605408%)" fill-opacity="1" d="M 22.128906 20.503906 L 10.007812 20.503906 L 10.335938 18.535156 L 22.457031 18.535156 L 22.128906 20.503906 "/>
<path fill="none" stroke-width="3.99994" stroke-linecap="butt" stroke-linejoin="miter" stroke="rgb(100%, 100%, 100%)" stroke-opacity="1" stroke-miterlimit="4" d="M 222.306836 105.875199 L 98.976153 105.875199 L 102.314785 125.906995 L 225.645469 125.906995 Z M 222.306836 105.875199 " transform="matrix(0.0982813, 0, 0, -0.0982813, 0.280313, 30.909453)"/>
<path fill-rule="nonzero" fill="rgb(1.176453%, 41.175842%, 59.605408%)" fill-opacity="1" d="M 21.476562 23.449219 L 9.351562 23.449219 L 9.679688 21.484375 L 21.804688 21.484375 L 21.476562 23.449219 "/>
<path fill="none" stroke-width="3.99994" stroke-linecap="butt" stroke-linejoin="miter" stroke="rgb(100%, 100%, 100%)" stroke-opacity="1" stroke-miterlimit="4" d="M 215.669316 75.906995 L 92.298887 75.906995 L 95.63752 95.899046 L 219.007949 95.899046 Z M 215.669316 75.906995 " transform="matrix(0.0982813, 0, 0, -0.0982813, 0.280313, 30.909453)"/>
<path fill-rule="nonzero" fill="rgb(1.176453%, 41.175842%, 59.605408%)" fill-opacity="1" d="M 60.789062 26.070312 L 54.234375 26.070312 L 56.53125 22.796875 L 63.082031 22.796875 L 60.789062 26.070312 "/>
<path fill="none" stroke-width="3.99994" stroke-linecap="butt" stroke-linejoin="miter" stroke="rgb(100%, 100%, 100%)" stroke-opacity="1" stroke-miterlimit="4" d="M 615.669316 49.237679 L 548.976153 49.237679 L 572.346582 82.544515 L 639 82.544515 Z M 615.669316 49.237679 " transform="matrix(0.0982813, 0, 0, -0.0982813, 0.280313, 30.909453)"/>
<path fill-rule="nonzero" fill="rgb(1.176453%, 41.175842%, 59.605408%)" fill-opacity="1" stroke-width="3.99994" stroke-linecap="butt" stroke-linejoin="miter" stroke="rgb(100%, 100%, 100%)" stroke-opacity="1" stroke-miterlimit="4" d="M 185.263911 242.560413 C 235.263911 312.552464 331.925278 295.899046 331.925278 295.899046 " transform="matrix(0.0982813, 0, 0, -0.0982813, 0.280313, 30.909453)"/>
<path fill-rule="nonzero" fill="rgb(1.176453%, 41.175842%, 59.605408%)" fill-opacity="1" d="M 35.195312 1.503906 C 35.195312 2.226562 34.167969 2.8125 32.902344 2.8125 C 31.636719 2.8125 30.609375 2.226562 30.609375 1.503906 C 30.609375 0.777344 31.636719 0.191406 32.902344 0.191406 C 34.167969 0.191406 35.195312 0.777344 35.195312 1.503906 "/>
<path fill="none" stroke-width="3.99994" stroke-linecap="butt" stroke-linejoin="miter" stroke="rgb(100%, 100%, 100%)" stroke-opacity="1" stroke-miterlimit="4" d="M 355.255962 299.197933 C 355.255962 291.844992 344.802862 285.883148 331.925278 285.883148 C 319.047695 285.883148 308.594595 291.844992 308.594595 299.197933 C 308.594595 306.59062 319.047695 312.552464 331.925278 312.552464 C 344.802862 312.552464 355.255962 306.59062 355.255962 299.197933 Z M 355.255962 299.197933 " transform="matrix(0.0982813, 0, 0, -0.0982813, 0.280313, 30.909453)"/>
<path fill="none" stroke-width="8.00003" stroke-linecap="butt" stroke-linejoin="miter" stroke="rgb(1.176453%, 41.175842%, 59.605408%)" stroke-opacity="1" stroke-miterlimit="4" d="M 140.947536 195.899046 L 114.278219 65.891097 " transform="matrix(0.0982813, 0, 0, -0.0982813, 0.280313, 30.909453)"/>
<path fill="none" stroke-width="8.00003" stroke-linecap="butt" stroke-linejoin="miter" stroke="rgb(1.176453%, 41.175842%, 59.605408%)" stroke-opacity="1" stroke-miterlimit="4" d="M 219.166932 195.899046 L 192.497615 65.891097 " transform="matrix(0.0982813, 0, 0, -0.0982813, 0.280313, 30.909453)"/>
<path fill="none" stroke-width="8.00003" stroke-linecap="butt" stroke-linejoin="miter" stroke="rgb(1.176453%, 41.175842%, 59.605408%)" stroke-opacity="1" stroke-miterlimit="4" d="M 178.586645 195.899046 L 151.917329 65.891097 " transform="matrix(0.0982813, 0, 0, -0.0982813, 0.280313, 30.909453)"/>
<path fill-rule="nonzero" fill="rgb(1.176453%, 41.175842%, 59.605408%)" fill-opacity="1" d="M 1.097656 17.292969 L 1.851562 12.800781 "/>
<g clip-path="url(#clip-7)">
<path fill="none" stroke-width="3.99994" stroke-linecap="butt" stroke-linejoin="miter" stroke="rgb(100%, 100%, 100%)" stroke-opacity="1" stroke-miterlimit="4" d="M 8.316375 138.546105 L 15.987281 184.253577 " transform="matrix(0.0982813, 0, 0, -0.0982813, 0.280313, 30.909453)"/>
</g>
<path fill-rule="nonzero" fill="rgb(1.176453%, 41.175842%, 59.605408%)" fill-opacity="1" d="M 7.253906 10.871094 C 6.738281 12.453125 6.054688 14.300781 5.871094 16.082031 L 6.433594 17.230469 L 5.710938 22.460938 L 3.960938 19.089844 C 3.441406 16.523438 6.0625 6.386719 7.136719 5.179688 L 8.886719 8.554688 L 7.78125 11.949219 L 7.253906 10.871094 "/>
<path fill="none" stroke-width="3.99994" stroke-linecap="butt" stroke-linejoin="miter" stroke="rgb(100%, 100%, 100%)" stroke-opacity="1" stroke-miterlimit="4" d="M 70.955485 203.887917 C 65.709062 187.790938 58.753577 168.991256 56.885533 150.86725 L 62.608903 139.182035 L 55.255962 85.962639 L 37.449921 120.263116 C 32.163752 146.375994 58.833068 249.515898 69.763116 261.797297 L 87.569157 227.457075 L 76.321145 192.918124 Z M 70.955485 203.887917 " transform="matrix(0.0982813, 0, 0, -0.0982813, 0.280313, 30.909453)"/>
<g clip-path="url(#clip-8)">
<path fill-rule="nonzero" fill="rgb(1.176453%, 41.175842%, 59.605408%)" fill-opacity="1" d="M 0.546875 19.132812 L 1.628906 22.515625 L 5.710938 22.460938 L 3.960938 19.089844 L 0.546875 19.132812 "/>
</g>
<g clip-path="url(#clip-9)">
<path fill="none" stroke-width="3.99994" stroke-linecap="butt" stroke-linejoin="miter" stroke="rgb(100%, 100%, 100%)" stroke-opacity="1" stroke-miterlimit="4" d="M 2.712242 119.825914 L 13.721781 85.4062 L 55.255962 85.962639 L 37.449921 120.263116 Z M 2.712242 119.825914 " transform="matrix(0.0982813, 0, 0, -0.0982813, 0.280313, 30.909453)"/>
</g>
<g clip-path="url(#clip-10)">
<path fill-rule="nonzero" fill="rgb(1.176453%, 41.175842%, 59.605408%)" fill-opacity="1" d="M 7.136719 5.179688 C 6.0625 6.386719 3.441406 16.523438 3.960938 19.089844 L 0.546875 19.132812 C 0.0273438 16.570312 2.644531 6.433594 3.722656 5.226562 L 7.136719 5.179688 "/>
</g>
<g clip-path="url(#clip-11)">
<path fill="none" stroke-width="3.99994" stroke-linecap="butt" stroke-linejoin="miter" stroke="rgb(100%, 100%, 100%)" stroke-opacity="1" stroke-miterlimit="4" d="M 69.763116 261.797297 C 58.833068 249.515898 32.163752 146.375994 37.449921 120.263116 L 2.712242 119.825914 C -2.573927 145.899046 24.055644 249.038951 35.025437 261.32035 Z M 69.763116 261.797297 " transform="matrix(0.0982813, 0, 0, -0.0982813, 0.280313, 30.909453)"/>
</g>
</svg>
