<?xml version="1.0" encoding="UTF-8"?>
<svg xmlns="http://www.w3.org/2000/svg" xmlns:xlink="http://www.w3.org/1999/xlink" width="26.2" height="25.87" viewBox="0 0 26.2 25.87">
<defs>
<clipPath id="clip-0">
<path clip-rule="nonzero" d="M 0 17 L 25.230469 17 L 25.230469 22 L 0 22 Z M 0 17 "/>
</clipPath>
<clipPath id="clip-1">
<path clip-rule="nonzero" d="M 0 15 L 25.230469 15 L 25.230469 24 L 0 24 Z M 0 15 "/>
</clipPath>
<clipPath id="clip-2">
<path clip-rule="nonzero" d="M 0 20 L 22 20 L 22 25.421875 L 0 25.421875 Z M 0 20 "/>
</clipPath>
<clipPath id="clip-3">
<path clip-rule="nonzero" d="M 21 0.320312 L 25 0.320312 L 25 21 L 21 21 Z M 21 0.320312 "/>
</clipPath>
<clipPath id="clip-4">
<path clip-rule="nonzero" d="M 19 0.320312 L 25.230469 0.320312 L 25.230469 23 L 19 23 Z M 19 0.320312 "/>
</clipPath>
<clipPath id="clip-5">
<path clip-rule="nonzero" d="M 21 17 L 25.230469 17 L 25.230469 25 L 21 25 Z M 21 17 "/>
</clipPath>
<clipPath id="clip-6">
<path clip-rule="nonzero" d="M 19 15 L 25.230469 15 L 25.230469 25.421875 L 19 25.421875 Z M 19 15 "/>
</clipPath>
<clipPath id="clip-7">
<path clip-rule="nonzero" d="M 0 0.320312 L 25 0.320312 L 25 5 L 0 5 Z M 0 0.320312 "/>
</clipPath>
<clipPath id="clip-8">
<path clip-rule="nonzero" d="M 0 0.320312 L 25.230469 0.320312 L 25.230469 7 L 0 7 Z M 0 0.320312 "/>
</clipPath>
<clipPath id="clip-9">
<path clip-rule="nonzero" d="M 0 19 L 7 19 L 7 25.421875 L 0 25.421875 Z M 0 19 "/>
</clipPath>
<clipPath id="clip-10">
<path clip-rule="nonzero" d="M 15 19 L 23 19 L 23 25.421875 L 15 25.421875 Z M 15 19 "/>
</clipPath>
<clipPath id="clip-11">
<path clip-rule="nonzero" d="M 5 20 L 12 20 L 12 25.421875 L 5 25.421875 Z M 5 20 "/>
</clipPath>
<clipPath id="clip-12">
<path clip-rule="nonzero" d="M 7 20 L 14 20 L 14 25.421875 L 7 25.421875 Z M 7 20 "/>
</clipPath>
<clipPath id="clip-13">
<path clip-rule="nonzero" d="M 10 20 L 17 20 L 17 25.421875 L 10 25.421875 Z M 10 20 "/>
</clipPath>
</defs>
<g clip-path="url(#clip-0)">
<path fill-rule="nonzero" fill="rgb(1.176453%, 41.175842%, 59.605408%)" fill-opacity="1" d="M 25.054688 17.398438 L 22.519531 21.011719 L 0.515625 21.011719 L 4.148438 17.398438 L 25.054688 17.398438 "/>
</g>
<g clip-path="url(#clip-1)">
<path fill="none" stroke-width="3.99994" stroke-linecap="butt" stroke-linejoin="miter" stroke="rgb(100%, 100%, 100%)" stroke-opacity="1" stroke-miterlimit="4" d="M 258.197161 82.702743 L 232.071505 45.466639 L 5.313693 45.466639 L 42.751073 82.702743 Z M 258.197161 82.702743 " transform="matrix(0.097037, 0, 0, -0.097037, 0, 25.423667)"/>
</g>
<path fill-rule="nonzero" fill="rgb(1.176453%, 41.175842%, 59.605408%)" fill-opacity="1" d="M 0.515625 24.945312 L 21.519531 24.945312 L 21.519531 21.011719 L 0.515625 21.011719 Z M 0.515625 24.945312 "/>
<g clip-path="url(#clip-2)">
<path fill="none" stroke-width="3.99994" stroke-linecap="butt" stroke-linejoin="miter" stroke="rgb(100%, 100%, 100%)" stroke-opacity="1" stroke-miterlimit="4" d="M 5.313693 4.929604 L 5.313693 45.466639 L 221.766162 45.466639 L 221.766162 4.929604 Z M 5.313693 4.929604 " transform="matrix(0.097037, 0, 0, -0.097037, 0, 25.423667)"/>
</g>
<path fill-rule="nonzero" fill="rgb(1.176453%, 41.175842%, 59.605408%)" fill-opacity="1" d="M 0.515625 20.144531 L 21.378906 20.144531 L 21.378906 4.359375 L 0.515625 4.359375 Z M 0.515625 20.144531 "/>
<path fill="none" stroke-width="3.99994" stroke-linecap="butt" stroke-linejoin="miter" stroke="rgb(100%, 100%, 100%)" stroke-opacity="1" stroke-miterlimit="4" d="M 5.313693 217.074761 L 220.316973 217.074761 L 220.316973 54.403304 L 5.313693 54.403304 Z M 5.313693 217.074761 " transform="matrix(0.097037, 0, 0, -0.097037, 0, 25.423667)"/>
<g clip-path="url(#clip-3)">
<path fill-rule="nonzero" fill="rgb(1.176453%, 41.175842%, 59.605408%)" fill-opacity="1" d="M 21.378906 20.144531 L 24.953125 16.574219 L 24.953125 0.789062 L 21.378906 4.359375 L 21.378906 20.144531 "/>
</g>
<g clip-path="url(#clip-4)">
<path fill="none" stroke-width="3.99994" stroke-linecap="butt" stroke-linejoin="miter" stroke="rgb(100%, 100%, 100%)" stroke-opacity="1" stroke-miterlimit="4" d="M 220.316973 54.403304 L 257.150525 91.196601 L 257.150525 253.868058 L 220.316973 217.074761 Z M 220.316973 54.403304 " transform="matrix(0.097037, 0, 0, -0.097037, 0, 25.423667)"/>
</g>
<g clip-path="url(#clip-5)">
<path fill-rule="nonzero" fill="rgb(1.176453%, 41.175842%, 59.605408%)" fill-opacity="1" d="M 21.503906 24.957031 L 21.503906 21.011719 L 25.054688 17.484375 L 25.054688 21.40625 L 21.503906 24.957031 "/>
</g>
<g clip-path="url(#clip-6)">
<path fill="none" stroke-width="3.99994" stroke-linecap="butt" stroke-linejoin="miter" stroke="rgb(100%, 100%, 100%)" stroke-opacity="1" stroke-miterlimit="4" d="M 221.605141 4.808838 L 221.605141 45.466639 L 258.197161 81.817128 L 258.197161 41.400859 Z M 221.605141 4.808838 " transform="matrix(0.097037, 0, 0, -0.097037, 0, 25.423667)"/>
</g>
<path fill-rule="nonzero" fill="rgb(100%, 100%, 100%)" fill-opacity="1" d="M 3.917969 6.179688 L 17.910156 6.179688 C 18.820312 6.179688 19.558594 6.917969 19.558594 7.828125 L 19.558594 16.667969 C 19.558594 17.578125 18.820312 18.316406 17.910156 18.316406 L 3.917969 18.316406 C 3.007812 18.316406 2.269531 17.578125 2.269531 16.667969 L 2.269531 7.828125 C 2.269531 6.917969 3.007812 6.179688 3.917969 6.179688 "/>
<path fill="none" stroke-width="3.99994" stroke-linecap="butt" stroke-linejoin="miter" stroke="rgb(100%, 100%, 100%)" stroke-opacity="1" stroke-miterlimit="4" d="M 40.376014 198.315816 L 184.570312 198.315816 C 193.949785 198.315816 201.558027 190.707574 201.558027 181.328101 L 201.558027 90.230475 C 201.558027 80.851002 193.949785 73.24276 184.570312 73.24276 L 40.376014 73.24276 C 30.996541 73.24276 23.388299 80.851002 23.388299 90.230475 L 23.388299 181.328101 C 23.388299 190.707574 30.996541 198.315816 40.376014 198.315816 Z M 40.376014 198.315816 " transform="matrix(0.097037, 0, 0, -0.097037, 0, 25.423667)"/>
<g clip-path="url(#clip-7)">
<path fill-rule="nonzero" fill="rgb(1.176453%, 41.175842%, 59.605408%)" fill-opacity="1" d="M 24.953125 0.789062 L 4.585938 0.789062 L 0.515625 4.359375 L 21.378906 4.359375 L 24.953125 0.789062 "/>
</g>
<g clip-path="url(#clip-8)">
<path fill="none" stroke-width="3.99994" stroke-linecap="butt" stroke-linejoin="miter" stroke="rgb(100%, 100%, 100%)" stroke-opacity="1" stroke-miterlimit="4" d="M 257.150525 253.868058 L 47.259661 253.868058 L 5.313693 217.074761 L 220.316973 217.074761 Z M 257.150525 253.868058 " transform="matrix(0.097037, 0, 0, -0.097037, 0, 25.423667)"/>
</g>
<path fill-rule="nonzero" fill="rgb(1.176453%, 41.175842%, 59.605408%)" fill-opacity="1" d="M 4.160156 23.027344 C 4.160156 23.710938 3.605469 24.265625 2.921875 24.265625 C 2.238281 24.265625 1.683594 23.710938 1.683594 23.027344 C 1.683594 22.34375 2.238281 21.789062 2.921875 21.789062 C 3.605469 21.789062 4.160156 22.34375 4.160156 23.027344 "/>
<g clip-path="url(#clip-9)">
<path fill="none" stroke-width="3.99994" stroke-linecap="butt" stroke-linejoin="miter" stroke="rgb(100%, 100%, 100%)" stroke-opacity="1" stroke-miterlimit="4" d="M 42.871839 24.694931 C 42.871839 17.650262 37.155594 11.934017 30.110926 11.934017 C 23.066257 11.934017 17.350012 17.650262 17.350012 24.694931 C 17.350012 31.739599 23.066257 37.455844 30.110926 37.455844 C 37.155594 37.455844 42.871839 31.739599 42.871839 24.694931 Z M 42.871839 24.694931 " transform="matrix(0.097037, 0, 0, -0.097037, 0, 25.423667)"/>
</g>
<path fill-rule="nonzero" fill="rgb(1.176453%, 41.175842%, 59.605408%)" fill-opacity="1" d="M 20.539062 23.027344 C 20.539062 23.710938 19.984375 24.265625 19.300781 24.265625 C 18.617188 24.265625 18.0625 23.710938 18.0625 23.027344 C 18.0625 22.34375 18.617188 21.789062 19.300781 21.789062 C 19.984375 21.789062 20.539062 22.34375 20.539062 23.027344 "/>
<g clip-path="url(#clip-10)">
<path fill="none" stroke-width="3.99994" stroke-linecap="butt" stroke-linejoin="miter" stroke="rgb(100%, 100%, 100%)" stroke-opacity="1" stroke-miterlimit="4" d="M 211.662094 24.694931 C 211.662094 17.650262 205.945849 11.934017 198.901181 11.934017 C 191.856512 11.934017 186.140267 17.650262 186.140267 24.694931 C 186.140267 31.739599 191.856512 37.455844 198.901181 37.455844 C 205.945849 37.455844 211.662094 31.739599 211.662094 24.694931 Z M 211.662094 24.694931 " transform="matrix(0.097037, 0, 0, -0.097037, 0, 25.423667)"/>
</g>
<path fill-rule="nonzero" fill="rgb(1.176453%, 41.175842%, 59.605408%)" fill-opacity="1" d="M 8.832031 23.347656 C 8.832031 23.699219 8.546875 23.988281 8.195312 23.988281 C 7.84375 23.988281 7.554688 23.699219 7.554688 23.347656 C 7.554688 22.996094 7.84375 22.710938 8.195312 22.710938 C 8.546875 22.710938 8.832031 22.996094 8.832031 23.347656 "/>
<g clip-path="url(#clip-11)">
<path fill="none" stroke-width="3.99994" stroke-linecap="butt" stroke-linejoin="miter" stroke="rgb(100%, 100%, 100%)" stroke-opacity="1" stroke-miterlimit="4" d="M 91.017116 21.394 C 91.017116 17.771028 88.078483 14.79214 84.45551 14.79214 C 80.832538 14.79214 77.85365 17.771028 77.85365 21.394 C 77.85365 25.016973 80.832538 27.955606 84.45551 27.955606 C 88.078483 27.955606 91.017116 25.016973 91.017116 21.394 Z M 91.017116 21.394 " transform="matrix(0.097037, 0, 0, -0.097037, 0, 25.423667)"/>
</g>
<path fill-rule="nonzero" fill="rgb(1.176453%, 41.175842%, 59.605408%)" fill-opacity="1" d="M 11.390625 23.347656 C 11.390625 23.699219 11.105469 23.988281 10.75 23.988281 C 10.398438 23.988281 10.113281 23.699219 10.113281 23.347656 C 10.113281 22.996094 10.398438 22.710938 10.75 22.710938 C 11.105469 22.710938 11.390625 22.996094 11.390625 23.347656 "/>
<g clip-path="url(#clip-12)">
<path fill="none" stroke-width="3.99994" stroke-linecap="butt" stroke-linejoin="miter" stroke="rgb(100%, 100%, 100%)" stroke-opacity="1" stroke-miterlimit="4" d="M 117.384303 21.394 C 117.384303 17.771028 114.44567 14.79214 110.782443 14.79214 C 107.15947 14.79214 104.220837 17.771028 104.220837 21.394 C 104.220837 25.016973 107.15947 27.955606 110.782443 27.955606 C 114.44567 27.955606 117.384303 25.016973 117.384303 21.394 Z M 117.384303 21.394 " transform="matrix(0.097037, 0, 0, -0.097037, 0, 25.423667)"/>
</g>
<path fill-rule="nonzero" fill="rgb(1.176453%, 41.175842%, 59.605408%)" fill-opacity="1" d="M 13.949219 23.347656 C 13.949219 23.699219 13.660156 23.988281 13.308594 23.988281 C 12.953125 23.988281 12.667969 23.699219 12.667969 23.347656 C 12.667969 22.996094 12.953125 22.710938 13.308594 22.710938 C 13.660156 22.710938 13.949219 22.996094 13.949219 23.347656 "/>
<g clip-path="url(#clip-13)">
<path fill="none" stroke-width="3.99994" stroke-linecap="butt" stroke-linejoin="miter" stroke="rgb(100%, 100%, 100%)" stroke-opacity="1" stroke-miterlimit="4" d="M 143.751491 21.394 C 143.751491 17.771028 140.772603 14.79214 137.14963 14.79214 C 133.486403 14.79214 130.54777 17.771028 130.54777 21.394 C 130.54777 25.016973 133.486403 27.955606 137.14963 27.955606 C 140.772603 27.955606 143.751491 25.016973 143.751491 21.394 Z M 143.751491 21.394 " transform="matrix(0.097037, 0, 0, -0.097037, 0, 25.423667)"/>
</g>
<path fill-rule="nonzero" fill="rgb(98.4375%, 98.4375%, 98.4375%)" fill-opacity="1" d="M 6.839844 8.222656 L 8.703125 6.570312 L 10.085938 7.210938 L 9.925781 8.703125 L 10.40625 9.765625 L 9.875 11.207031 L 9.835938 11.53125 C 9.726562 11.902344 9.355469 11.742188 9.355469 11.742188 L 8.703125 14.292969 L 6.945312 12.003906 L 6.730469 10.992188 L 5.984375 8.859375 "/>
<path fill-rule="nonzero" fill="rgb(1.176453%, 41.175842%, 59.605408%)" fill-opacity="1" d="M 7.65625 7.804688 C 7.738281 7.914062 7.777344 8.058594 7.789062 8.15625 C 7.835938 8.613281 7.667969 9.082031 7.503906 9.507812 C 7.460938 9.617188 7.46875 9.910156 7.335938 9.824219 C 7.183594 9.722656 7.058594 9.496094 6.898438 9.441406 C 6.695312 9.371094 6.484375 9.574219 6.28125 9.691406 C 6.652344 10.1875 7.105469 10.699219 6.910156 11.347656 C 6.441406 10.648438 5.945312 9.964844 5.59375 9.210938 C 5.402344 8.800781 5.476562 8.203125 5.726562 7.863281 C 6.109375 7.339844 6.6875 6.894531 7.328125 6.734375 C 8.1875 6.515625 9.046875 6.335938 9.933594 6.328125 C 9.132812 6.726562 8.375 7.113281 7.605469 7.652344 C 7.5625 7.679688 7.613281 7.757812 7.65625 7.804688 "/>
<path fill-rule="nonzero" fill="rgb(1.176453%, 41.175842%, 59.605408%)" fill-opacity="1" d="M 10.683594 7.871094 C 10.480469 8.261719 10.289062 8.644531 10.046875 9.007812 C 10.0625 8.953125 10.035156 8.910156 9.988281 8.898438 C 9.875 8.878906 9.726562 8.929688 9.667969 8.871094 C 9.609375 8.816406 9.609375 8.632812 9.667969 8.566406 C 9.734375 8.496094 9.945312 8.605469 9.957031 8.585938 C 10.347656 7.957031 9.625 7.445312 9.363281 6.894531 C 9.945312 6.882812 10.410156 7.269531 10.960938 7.351562 C 10.847656 7.511719 10.773438 7.695312 10.683594 7.871094 "/>
<path fill-rule="nonzero" fill="rgb(1.176453%, 41.175842%, 59.605408%)" fill-opacity="1" d="M 8.507812 8.957031 C 8.410156 8.9375 8.257812 8.96875 8.25 8.941406 C 8.085938 8.386719 8.847656 8.648438 9.191406 8.492188 C 9.109375 8.855469 8.894531 9.027344 8.507812 8.957031 "/>
<path fill-rule="nonzero" fill="rgb(1.176453%, 41.175842%, 59.605408%)" fill-opacity="1" d="M 9.570312 10.066406 C 9.4375 10.066406 9.304688 10.066406 9.171875 10.066406 C 9.328125 9.929688 9.496094 9.808594 9.683594 9.722656 C 9.664062 9.84375 9.699219 9.953125 9.742188 10.066406 C 9.683594 10.066406 9.628906 10.066406 9.570312 10.066406 "/>
<path fill-rule="nonzero" fill="rgb(1.176453%, 41.175842%, 59.605408%)" fill-opacity="1" d="M 9.457031 10.75 C 9.191406 10.75 8.925781 10.75 8.660156 10.75 C 8.757812 10.660156 8.90625 10.625 9.003906 10.613281 C 9.257812 10.582031 9.59375 10.402344 9.796875 10.75 C 9.683594 10.75 9.570312 10.75 9.457031 10.75 "/>
<path fill-rule="nonzero" fill="rgb(1.176453%, 41.175842%, 59.605408%)" fill-opacity="1" d="M 9.394531 10.992188 C 9.585938 11.074219 9.3125 11.074219 9.34375 11.148438 C 9.195312 11.183594 9.148438 11.042969 9.058594 10.976562 C 9.171875 10.976562 9.296875 10.949219 9.394531 10.992188 "/>
<path fill-rule="nonzero" fill="rgb(1.176453%, 41.175842%, 59.605408%)" fill-opacity="1" d="M 13.457031 16.535156 C 13.457031 16.167969 13.546875 15.785156 13.636719 15.394531 C 13.710938 15.0625 13.855469 14.675781 13.746094 14.460938 C 13.589844 14.164062 13.191406 13.910156 12.832031 13.773438 C 11.816406 13.382812 10.816406 13.019531 9.832031 12.570312 L 9.675781 12.628906 L 9.847656 15.136719 L 8.992188 17.875 "/>
<path fill-rule="nonzero" fill="rgb(1.176453%, 41.175842%, 59.605408%)" fill-opacity="1" d="M 8.992188 17.988281 L 7.167969 15.417969 L 6.308594 12.714844 C 6.144531 12.824219 5.976562 12.917969 5.800781 13 C 4.558594 13.570312 3.539062 13.742188 2.371094 14.480469 C 2.378906 16.882812 3.417969 15.953125 3.28125 18.347656 "/>
<path fill-rule="nonzero" fill="rgb(60.469055%, 76.469421%, 83.840942%)" fill-opacity="1" d="M 8.792969 18.234375 L 9.847656 15.136719 L 9.675781 12.628906 L 9.335938 12.285156 L 8.761719 13.34375 L 6.910156 11.859375 C 6.910156 12.230469 6.304688 12.59375 6.304688 12.59375 L 7.167969 15.308594 L 8.992188 17.875 "/>
<path fill-rule="nonzero" fill="rgb(1.176453%, 41.175842%, 59.605408%)" fill-opacity="1" d="M 8.167969 17.847656 L 8.566406 14.054688 L 8.335938 13.769531 L 8.566406 13.398438 L 8.792969 13.539062 L 8.9375 13.371094 L 9.164062 13.683594 L 8.878906 14.085938 L 9.308594 17.414062 "/>
<path fill-rule="nonzero" fill="rgb(1.176453%, 41.175842%, 59.605408%)" fill-opacity="1" d="M 11.59375 14.117188 C 11.414062 13.921875 11.082031 13.917969 11.082031 13.601562 C 11.28125 13.605469 11.480469 13.617188 11.652344 13.488281 C 11.316406 13.367188 11.148438 13.0625 11.113281 12.746094 C 11.109375 12.703125 11.191406 12.539062 11.25 12.542969 C 11.386719 12.558594 11.394531 12.789062 11.539062 12.859375 C 11.589844 12.882812 11.636719 12.847656 11.644531 12.804688 C 11.691406 12.625 11.628906 12.460938 11.59375 12.292969 C 11.78125 12.351562 12.125 12.421875 12.125 12.234375 C 12.121094 11.953125 11.726562 11.640625 11.96875 11.414062 C 12.039062 11.347656 12.316406 11.699219 12.34375 11.484375 C 12.363281 11.28125 12.070312 11.042969 12.089844 10.8125 C 12.101562 10.648438 12.417969 10.609375 12.476562 10.453125 C 12.582031 10.195312 12.371094 9.867188 12.441406 9.625 C 12.660156 8.910156 13.082031 8.28125 13.421875 7.613281 C 14.296875 7.585938 14.628906 6.730469 16.042969 7.480469 C 16.078125 7.5 15.898438 7.46875 15.9375 7.554688 C 15.957031 7.597656 16.003906 7.65625 16.046875 7.660156 C 16.277344 7.679688 16.550781 7.636719 16.648438 7.851562 C 16.71875 8.011719 16.484375 8.203125 16.535156 8.34375 C 16.609375 8.558594 17.035156 8.460938 17.082031 8.652344 C 17.167969 9.019531 16.742188 9.378906 16.796875 9.710938 C 16.832031 9.898438 17.25 9.980469 17.378906 10.199219 C 17.527344 10.453125 17.335938 10.824219 17.585938 11.09375 C 17.679688 10.976562 17.800781 10.890625 17.925781 10.808594 C 17.960938 11.03125 18.050781 11.234375 18.15625 11.433594 C 18.300781 11.242188 18.472656 11.066406 18.613281 10.863281 C 18.75 10.980469 18.6875 11.191406 18.640625 11.234375 C 18.398438 11.46875 18.164062 11.773438 17.820312 11.867188 C 17.777344 11.878906 17.75 11.910156 17.730469 11.949219 L 17.332031 11.722656 C 17.28125 11.820312 17.613281 11.964844 17.472656 12.003906 L 17.527344 12.234375 C 17.734375 12.457031 17.980469 12.304688 18.210938 12.234375 C 18.332031 12.632812 17.796875 12.683594 17.742188 12.984375 C 17.714844 13.136719 18 13.09375 18.15625 13.03125 C 18.105469 13.316406 17.859375 13.457031 17.699219 13.660156 "/>
<path fill-rule="nonzero" fill="rgb(1.176453%, 41.175842%, 59.605408%)" fill-opacity="1" d="M 9.066406 18.289062 C 9.324219 17.042969 9.175781 16.246094 9.3125 15.03125 C 10.027344 14.59375 10.804688 14.316406 11.59375 14.0625 L 15.105469 13.289062 L 17.699219 13.605469 C 18.238281 13.789062 18.816406 13.765625 19.351562 13.945312 C 19.824219 15.210938 18.511719 16.664062 18.980469 17.941406 L 18.621094 18.261719 "/>
<path fill-rule="nonzero" fill="rgb(100%, 100%, 100%)" fill-opacity="1" d="M 16.273438 14.964844 C 16.238281 14.949219 16.214844 14.898438 16.160156 14.914062 C 16.160156 14.835938 16.132812 14.738281 16.171875 14.699219 C 16.210938 14.660156 16.3125 14.6875 16.386719 14.6875 C 16.371094 14.742188 16.402344 14.773438 16.445312 14.800781 C 16.574219 14.402344 16.457031 14 16.402344 13.609375 C 16.382812 13.457031 16.058594 13.464844 15.964844 13.347656 C 15.789062 13.117188 15.6875 12.289062 15.925781 12.304688 C 16.535156 12.351562 16.566406 11.164062 16.742188 10.5 C 16.8125 10.226562 16.671875 10.132812 16.558594 9.835938 C 16.476562 9.875 16.519531 9.980469 16.492188 9.992188 C 16.363281 10.058594 16.167969 10.140625 16.066406 10.046875 C 16.007812 9.992188 16.007812 9.796875 16.066406 9.746094 C 16.167969 9.65625 16.613281 9.582031 16.605469 9.597656 C 16.714844 9.285156 16.539062 9.035156 16.328125 8.753906 C 16.226562 8.914062 16.121094 8.953125 15.929688 8.925781 C 16.054688 8.820312 16.046875 8.484375 15.898438 8.570312 C 15.65625 8.710938 15.6875 9.152344 15.300781 9.152344 C 15.3125 8.988281 15.3125 8.824219 15.1875 8.695312 C 15.066406 8.878906 14.925781 9.082031 14.738281 9.054688 C 14.613281 9.042969 14.65625 8.675781 14.472656 8.839844 C 14.265625 9.03125 14.628906 9.292969 14.550781 9.550781 C 14.398438 10.0625 14.402344 10.558594 14.121094 11.042969 C 14.078125 11.117188 14.082031 11.238281 14.117188 11.316406 C 14.175781 11.441406 14.292969 11.527344 14.449219 11.492188 C 14.441406 11.714844 14.203125 11.589844 14.113281 11.726562 C 14.085938 11.769531 14.085938 11.84375 14.113281 11.886719 C 14.21875 12.070312 14.425781 12.082031 14.617188 12.0625 C 14.566406 12.40625 14.175781 12.457031 13.933594 12.292969 C 13.878906 12.640625 14.0625 12.945312 14.390625 13.03125 C 14.238281 13.246094 13.992188 13.070312 13.84375 13.179688 C 13.648438 13.320312 13.894531 13.601562 13.820312 13.832031 C 13.78125 13.75 13.683594 13.757812 13.664062 13.785156 C 13.492188 14.03125 13.707031 14.359375 13.765625 14.628906 C 13.800781 14.546875 13.875 14.5625 13.933594 14.582031 C 14.035156 14.613281 13.980469 14.722656 13.992188 14.800781 C 13.933594 14.800781 13.871094 14.785156 13.824219 14.808594 C 13.660156 14.882812 13.882812 14.992188 13.820312 15.085938 C 14.363281 15.394531 14.976562 15.574219 15.582031 15.5 C 15.742188 15.476562 15.945312 15.382812 16.101562 15.257812 C 15.957031 15.152344 15.664062 15.246094 15.769531 14.976562 C 15.816406 14.855469 15.964844 14.898438 16.035156 14.929688 C 16.125 14.976562 16.023438 15.105469 16.050781 15.199219 C 16.0625 15.246094 16.109375 15.285156 16.15625 15.25 C 16.304688 15.144531 16.476562 15.070312 16.542969 14.90625 C 16.550781 14.890625 16.480469 14.8125 16.445312 14.8125 C 16.363281 14.808594 16.402344 15.011719 16.273438 14.964844 "/>
<path fill-rule="nonzero" fill="rgb(1.176453%, 41.175842%, 59.605408%)" fill-opacity="1" d="M 15.585938 10.046875 C 15.558594 10.09375 15.507812 10.152344 15.476562 10.148438 C 15.230469 10.117188 14.980469 10.132812 14.847656 9.878906 C 15.152344 9.785156 15.46875 9.65625 15.742188 9.851562 C 15.8125 9.902344 15.628906 9.957031 15.585938 10.046875 "/>
<path fill-rule="nonzero" fill="rgb(1.176453%, 41.175842%, 59.605408%)" fill-opacity="1" d="M 16.355469 10.851562 C 16.292969 11.03125 16.070312 10.878906 15.902344 10.921875 C 16.007812 10.746094 16.089844 10.671875 16.300781 10.636719 C 16.304688 10.734375 16.375 10.804688 16.355469 10.851562 "/>
<path fill-rule="nonzero" fill="rgb(0%, 0%, 0%)" fill-opacity="1" d="M 16.140625 11.410156 C 15.953125 11.433594 15.761719 11.484375 15.570312 11.425781 C 15.867188 11.246094 16.210938 11.332031 16.523438 11.25 C 16.488281 11.28125 16.460938 11.316406 16.480469 11.371094 C 16.371094 11.382812 16.257812 11.398438 16.140625 11.410156 "/>
<path fill-rule="nonzero" fill="rgb(0%, 0%, 0%)" fill-opacity="1" d="M 15.582031 15.359375 C 15.464844 15.433594 15.25 15.316406 15.3125 15.148438 C 15.34375 15.066406 15.425781 14.988281 15.527344 15.035156 C 15.65625 15.09375 15.714844 15.273438 15.582031 15.359375 "/>
<path fill-rule="nonzero" fill="rgb(0%, 0%, 0%)" fill-opacity="1" d="M 15.074219 15.3125 C 15 15.347656 14.980469 15.222656 14.90625 15.257812 C 14.917969 15.179688 14.855469 15.066406 14.964844 15.039062 C 15.035156 15.019531 15.144531 14.984375 15.183594 15.089844 C 15.21875 15.183594 15.175781 15.265625 15.074219 15.3125 "/>
<path fill-rule="nonzero" fill="rgb(0%, 0%, 0%)" fill-opacity="1" d="M 14.617188 15.195312 C 14.554688 15.203125 14.46875 15.226562 14.457031 15.140625 C 14.445312 15.066406 14.402344 14.953125 14.507812 14.925781 C 14.660156 14.878906 14.792969 15 14.722656 15.136719 C 14.710938 15.167969 14.660156 15.1875 14.617188 15.195312 "/>
<path fill-rule="nonzero" fill="rgb(0%, 0%, 0%)" fill-opacity="1" d="M 14.273438 14.964844 C 14.222656 14.988281 14.136719 14.996094 14.109375 14.914062 C 14.054688 14.753906 14.246094 14.691406 14.320312 14.757812 C 14.363281 14.796875 14.347656 14.925781 14.273438 14.964844 "/>
<path fill-rule="nonzero" fill="rgb(1.176453%, 41.175842%, 59.605408%)" fill-opacity="1" d="M 16.113281 11.652344 C 16 11.660156 15.910156 11.621094 15.816406 11.566406 C 16.007812 11.542969 16.195312 11.519531 16.386719 11.496094 C 16.324219 11.601562 16.238281 11.644531 16.113281 11.652344 "/>
<path fill-rule="nonzero" fill="rgb(1.176453%, 41.175842%, 59.605408%)" fill-opacity="1" d="M 3.519531 18.316406 L 18.621094 18.316406 L 18.621094 17.480469 L 3.519531 17.480469 Z M 3.519531 18.316406 "/>
</svg>
