<?xml version="1.0" encoding="UTF-8"?>
<svg xmlns="http://www.w3.org/2000/svg" xmlns:xlink="http://www.w3.org/1999/xlink" width="595" height="842" viewBox="0 0 595 842">
<path fill-rule="nonzero" fill="rgb(3.292847%, 48.298645%, 73.153687%)" fill-opacity="1" d="M 333.714844 501.378906 L 348.144531 489.710938 L 381.453125 489.710938 L 369.515625 501.378906 L 333.714844 501.378906 "/>
<path fill="none" stroke-width="4" stroke-linecap="butt" stroke-linejoin="miter" stroke="rgb(100%, 100%, 100%)" stroke-opacity="1" stroke-miterlimit="4" d="M 3337.148438 3406.210938 L 3481.445312 3522.890625 L 3814.53125 3522.890625 L 3695.15625 3406.210938 Z M 3337.148438 3406.210938 " transform="matrix(0.1, 0, 0, -0.1, 0, 842)"/>
<path fill-rule="nonzero" fill="rgb(3.292847%, 48.298645%, 73.153687%)" fill-opacity="1" d="M 369.515625 512.976562 L 381.453125 500.082031 L 381.453125 489.730469 L 369.515625 501.378906 L 369.515625 512.976562 "/>
<path fill="none" stroke-width="4" stroke-linecap="butt" stroke-linejoin="miter" stroke="rgb(100%, 100%, 100%)" stroke-opacity="1" stroke-miterlimit="4" d="M 3695.15625 3290.234375 L 3814.53125 3419.179688 L 3814.53125 3522.695312 L 3695.15625 3406.210938 Z M 3695.15625 3290.234375 " transform="matrix(0.1, 0, 0, -0.1, 0, 842)"/>
<path fill-rule="nonzero" fill="rgb(3.292847%, 48.298645%, 73.153687%)" fill-opacity="1" d="M 369.515625 512.984375 L 369.515625 501.378906 L 333.765625 501.378906 L 333.765625 512.984375 L 369.515625 512.984375 "/>
<path fill="none" stroke-width="4" stroke-linecap="butt" stroke-linejoin="miter" stroke="rgb(100%, 100%, 100%)" stroke-opacity="1" stroke-miterlimit="4" d="M 3695.15625 3290.15625 L 3695.15625 3406.210938 L 3337.65625 3406.210938 L 3337.65625 3290.15625 Z M 3695.15625 3290.15625 " transform="matrix(0.1, 0, 0, -0.1, 0, 842)"/>
<path fill="none" stroke-width="10" stroke-linecap="butt" stroke-linejoin="miter" stroke="rgb(100%, 100%, 100%)" stroke-opacity="1" stroke-miterlimit="4" d="M 3516.40625 3290.15625 L 3516.40625 3406.210938 " transform="matrix(0.1, 0, 0, -0.1, 0, 842)"/>
<path fill-rule="nonzero" fill="rgb(100%, 100%, 100%)" fill-opacity="1" stroke-width="3.983" stroke-linecap="butt" stroke-linejoin="miter" stroke="rgb(100%, 100%, 100%)" stroke-opacity="1" stroke-miterlimit="4" d="M 3583.671875 3312.851562 L 3645.78125 3348.046875 L 3583.671875 3383.164062 Z M 3583.671875 3312.851562 " transform="matrix(0.1, 0, 0, -0.1, 0, 842)"/>
<path fill-rule="nonzero" fill="rgb(100%, 100%, 100%)" fill-opacity="1" d="M 347.546875 495.832031 L 347.550781 495.828125 L 363.316406 495.824219 L 361.347656 497.691406 L 370.03125 495.230469 L 366.554688 492.769531 L 364.578125 494.632812 L 348.8125 494.636719 L 347.546875 495.832031 "/>
<path fill-rule="nonzero" fill="rgb(100%, 100%, 100%)" fill-opacity="1" d="M 344.089844 504.882812 L 336.445312 504.882812 L 336.445312 503.914062 L 344.089844 503.914062 L 344.089844 502.402344 L 348.519531 504.398438 L 344.089844 506.394531 L 344.089844 504.882812 "/>
<path fill-rule="nonzero" fill="rgb(100%, 100%, 100%)" fill-opacity="1" d="M 344.089844 510.3125 L 336.445312 510.3125 L 336.445312 509.34375 L 344.089844 509.34375 L 344.089844 507.832031 L 348.519531 509.828125 L 344.089844 511.824219 L 344.089844 510.3125 "/>
</svg>
