<?xml version="1.0" encoding="UTF-8"?>
<svg xmlns="http://www.w3.org/2000/svg" xmlns:xlink="http://www.w3.org/1999/xlink" width="23.98" height="33.36" viewBox="0 0 23.98 33.36">
<defs>
<clipPath id="clip-0">
<path clip-rule="nonzero" d="M 0.214844 5 L 19 5 L 19 32.4375 L 0.214844 32.4375 Z M 0.214844 5 "/>
</clipPath>
<clipPath id="clip-1">
<path clip-rule="nonzero" d="M 0.214844 4 L 19 4 L 19 32.4375 L 0.214844 32.4375 Z M 0.214844 4 "/>
</clipPath>
<clipPath id="clip-2">
<path clip-rule="nonzero" d="M 0.214844 0 L 23.746094 0 L 23.746094 32.4375 L 0.214844 32.4375 Z M 0.214844 0 "/>
</clipPath>
<clipPath id="clip-3">
<path clip-rule="nonzero" d="M 18 0 L 23.746094 0 L 23.746094 6 L 18 6 Z M 18 0 "/>
</clipPath>
<clipPath id="clip-4">
<path clip-rule="nonzero" d="M 16 0 L 23.746094 0 L 23.746094 8 L 16 8 Z M 16 0 "/>
</clipPath>
<clipPath id="clip-5">
<path clip-rule="nonzero" d="M 0.214844 12 L 19 12 L 19 13 L 0.214844 13 Z M 0.214844 12 "/>
</clipPath>
<clipPath id="clip-6">
<path clip-rule="nonzero" d="M 0.214844 29 L 19 29 L 19 30 L 0.214844 30 Z M 0.214844 29 "/>
</clipPath>
</defs>
<g clip-path="url(#clip-0)">
<path fill-rule="nonzero" fill="rgb(0.784302%, 42.352295%, 60.78186%)" fill-opacity="1" d="M 0.691406 32.257812 L 18.730469 32.257812 L 18.730469 5.019531 L 0.691406 5.019531 Z M 0.691406 32.257812 "/>
</g>
<g clip-path="url(#clip-1)">
<path fill="none" stroke-width="4" stroke-linecap="butt" stroke-linejoin="miter" stroke="rgb(100%, 100%, 100%)" stroke-opacity="1" stroke-miterlimit="4" d="M 188.697823 282.441708 L 4.846467 282.441708 L 4.846467 4.833326 L 188.697823 4.833326 " transform="matrix(0.0981176, 0, 0, -0.0981176, 0.215882, 32.732047)"/>
</g>
<g clip-path="url(#clip-2)">
<path fill-rule="nonzero" fill="rgb(0.784302%, 42.352295%, 60.78186%)" fill-opacity="1" d="M 18.730469 32.257812 L 23.554688 27.4375 L 23.554688 0.195312 L 5.511719 0.195312 L 0.691406 5.019531 L 18.730469 5.019531 L 18.730469 32.257812 "/>
<path fill="none" stroke-width="4" stroke-linecap="butt" stroke-linejoin="miter" stroke="rgb(100%, 100%, 100%)" stroke-opacity="1" stroke-miterlimit="4" d="M 188.697823 4.833326 L 237.86552 53.961211 L 237.86552 331.609405 L 53.974352 331.609405 L 4.846467 282.441708 L 188.697823 282.441708 Z M 188.697823 4.833326 " transform="matrix(0.0981176, 0, 0, -0.0981176, 0.215882, 32.732047)"/>
</g>
<g clip-path="url(#clip-3)">
<path fill-rule="nonzero" fill="rgb(0.784302%, 42.352295%, 60.78186%)" fill-opacity="1" d="M 18.730469 5.019531 L 23.554688 0.195312 "/>
</g>
<g clip-path="url(#clip-4)">
<path fill="none" stroke-width="4" stroke-linecap="butt" stroke-linejoin="miter" stroke="rgb(100%, 100%, 100%)" stroke-opacity="1" stroke-miterlimit="4" d="M 188.697823 282.441708 L 237.86552 331.609405 " transform="matrix(0.0981176, 0, 0, -0.0981176, 0.215882, 32.732047)"/>
</g>
<g clip-path="url(#clip-5)">
<path fill="none" stroke-width="4" stroke-linecap="butt" stroke-linejoin="miter" stroke="rgb(100%, 100%, 100%)" stroke-opacity="1" stroke-miterlimit="4" d="M 7.314804 204.450195 L 187.304406 204.450195 " transform="matrix(0.0981176, 0, 0, -0.0981176, 0.215882, 32.732047)"/>
</g>
<g clip-path="url(#clip-6)">
<path fill="none" stroke-width="4" stroke-linecap="butt" stroke-linejoin="miter" stroke="rgb(100%, 100%, 100%)" stroke-opacity="1" stroke-miterlimit="4" d="M 7.314804 31.985042 L 187.304406 31.985042 " transform="matrix(0.0981176, 0, 0, -0.0981176, 0.215882, 32.732047)"/>
</g>
<path fill="none" stroke-width="4" stroke-linecap="butt" stroke-linejoin="miter" stroke="rgb(100%, 100%, 100%)" stroke-opacity="1" stroke-miterlimit="4" d="M 42.309465 244.461155 L 86.062744 244.461155 " transform="matrix(0.0981176, 0, 0, -0.0981176, 0.215882, 32.732047)"/>
<path fill="none" stroke-width="4" stroke-linecap="butt" stroke-linejoin="miter" stroke="rgb(100%, 100%, 100%)" stroke-opacity="1" stroke-miterlimit="4" d="M 102.305999 229.452068 L 102.305999 260.70441 L 24.792229 260.70441 L 24.792229 229.452068 Z M 102.305999 229.452068 " transform="matrix(0.0981176, 0, 0, -0.0981176, 0.215882, 32.732047)"/>
<path fill-rule="nonzero" fill="rgb(100%, 100%, 100%)" fill-opacity="1" d="M 10.945312 21.824219 C 10.945312 22.863281 10.320312 23.308594 9.324219 23.308594 C 8.960938 23.308594 8.425781 23.222656 8.074219 22.832031 C 7.859375 22.589844 7.777344 22.269531 7.765625 21.875 L 7.765625 19.257812 L 8.605469 19.257812 L 8.605469 21.820312 C 8.605469 22.367188 8.925781 22.609375 9.308594 22.609375 C 9.875 22.609375 10.105469 22.335938 10.105469 21.859375 L 10.105469 19.257812 L 10.945312 19.257812 L 10.945312 21.824219 "/>
<path fill="none" stroke-width="7" stroke-linecap="butt" stroke-linejoin="miter" stroke="rgb(100%, 100%, 100%)" stroke-opacity="1" stroke-miterlimit="4" d="M 93.348321 88.279069 C 110.228567 88.279069 123.923861 101.934551 123.923861 118.854609 C 123.923861 135.734855 110.228567 149.430148 93.348321 149.430148 C 76.468076 149.430148 62.73297 135.734855 62.73297 118.854609 C 62.73297 101.934551 76.468076 88.279069 93.348321 88.279069 Z M 93.348321 88.279069 " transform="matrix(0.0981176, 0, 0, -0.0981176, 0.215882, 32.732047)"/>
<path fill="none" stroke-width="7" stroke-linecap="butt" stroke-linejoin="miter" stroke="rgb(100%, 100%, 100%)" stroke-opacity="1" stroke-miterlimit="4" d="M 93.348321 149.430148 L 146.417585 149.430148 " transform="matrix(0.0981176, 0, 0, -0.0981176, 0.215882, 32.732047)"/>
<path fill-rule="nonzero" fill="rgb(100%, 100%, 100%)" fill-opacity="1" d="M 14.867188 16.492188 L 14.867188 19.507812 L 16.6875 18.058594 L 14.867188 16.492188 "/>
<path fill="none" stroke-width="1.28" stroke-linecap="butt" stroke-linejoin="miter" stroke="rgb(100%, 100%, 100%)" stroke-opacity="1" stroke-miterlimit="4" d="M 149.323853 165.514156 L 149.323853 134.779369 L 167.876199 149.549584 Z M 149.323853 165.514156 " transform="matrix(0.0981176, 0, 0, -0.0981176, 0.215882, 32.732047)"/>
<path fill="none" stroke-width="7" stroke-linecap="butt" stroke-linejoin="miter" stroke="rgb(100%, 100%, 100%)" stroke-opacity="1" stroke-miterlimit="4" d="M 62.772782 118.615737 L 62.772782 171.764625 " transform="matrix(0.0981176, 0, 0, -0.0981176, 0.215882, 32.732047)"/>
<path fill-rule="nonzero" fill="rgb(100%, 100%, 100%)" fill-opacity="1" d="M 4.835938 15.625 L 7.855469 15.625 L 6.402344 13.804688 L 4.835938 15.625 "/>
<path fill="none" stroke-width="1.28" stroke-linecap="butt" stroke-linejoin="miter" stroke="rgb(100%, 100%, 100%)" stroke-opacity="1" stroke-miterlimit="4" d="M 47.086893 174.352398 L 77.861492 174.352398 L 63.051465 192.904744 Z M 47.086893 174.352398 " transform="matrix(0.0981176, 0, 0, -0.0981176, 0.215882, 32.732047)"/>
<path fill="none" stroke-width="7" stroke-linecap="butt" stroke-linejoin="miter" stroke="rgb(100%, 100%, 100%)" stroke-opacity="1" stroke-miterlimit="4" d="M 124.003485 119.013856 L 124.003485 65.904781 " transform="matrix(0.0981176, 0, 0, -0.0981176, 0.215882, 32.732047)"/>
<path fill-rule="nonzero" fill="rgb(100%, 100%, 100%)" fill-opacity="1" d="M 13.917969 26.503906 L 10.902344 26.503906 L 12.363281 28.324219 L 13.917969 26.503906 "/>
<path fill="none" stroke-width="1.28" stroke-linecap="butt" stroke-linejoin="miter" stroke="rgb(100%, 100%, 100%)" stroke-opacity="1" stroke-miterlimit="4" d="M 139.649562 63.476255 L 108.914774 63.476255 L 123.804425 44.92391 Z M 139.649562 63.476255 " transform="matrix(0.0981176, 0, 0, -0.0981176, 0.215882, 32.732047)"/>
<path fill="none" stroke-width="7" stroke-linecap="butt" stroke-linejoin="miter" stroke="rgb(100%, 100%, 100%)" stroke-opacity="1" stroke-miterlimit="4" d="M 94.104747 88.318881 L 40.95586 88.318881 " transform="matrix(0.0981176, 0, 0, -0.0981176, 0.215882, 32.732047)"/>
<path fill-rule="nonzero" fill="rgb(100%, 100%, 100%)" fill-opacity="1" d="M 4.210938 25.65625 L 4.210938 22.636719 L 2.390625 24.085938 L 4.210938 25.65625 "/>
<path fill="none" stroke-width="1.28" stroke-linecap="butt" stroke-linejoin="miter" stroke="rgb(100%, 100%, 100%)" stroke-opacity="1" stroke-miterlimit="4" d="M 40.716989 72.115438 L 40.716989 102.890037 L 22.164643 88.119822 Z M 40.716989 72.115438 " transform="matrix(0.0981176, 0, 0, -0.0981176, 0.215882, 32.732047)"/>
</svg>
