<?xml version="1.0" encoding="UTF-8"?>
<svg xmlns="http://www.w3.org/2000/svg" xmlns:xlink="http://www.w3.org/1999/xlink" width="62.88" height="25.2" viewBox="0 0 62.88 25.2">
<defs>
<clipPath id="clip-0">
<path clip-rule="nonzero" d="M 1 2 L 61.855469 2 L 61.855469 5 L 1 5 Z M 1 2 "/>
</clipPath>
<clipPath id="clip-1">
<path clip-rule="nonzero" d="M 0.910156 0 L 61.855469 0 L 61.855469 7 L 0.910156 7 Z M 0.910156 0 "/>
</clipPath>
<clipPath id="clip-2">
<path clip-rule="nonzero" d="M 21 22 L 42 22 L 42 24.230469 L 21 24.230469 Z M 21 22 "/>
</clipPath>
</defs>
<path fill-rule="nonzero" fill="rgb(1.176453%, 41.175842%, 59.605408%)" fill-opacity="1" d="M 2.699219 22.734375 L 59.964844 22.734375 L 59.964844 4.230469 L 2.699219 4.230469 Z M 2.699219 22.734375 "/>
<path fill="none" stroke-width="3.99994" stroke-linecap="butt" stroke-linejoin="miter" stroke="rgb(100%, 100%, 100%)" stroke-opacity="1" stroke-miterlimit="4" d="M 609.303943 17.438988 L 609.303943 208.352307 L 18.46813 208.352307 L 18.46813 17.438988 Z M 609.303943 17.438988 " transform="matrix(0.0969231, 0, 0, -0.0969231, 0.909231, 24.424615)"/>
<path fill-rule="nonzero" fill="rgb(1.176453%, 41.175842%, 59.605408%)" fill-opacity="1" d="M 2.738281 2.09375 L 60.023438 2.09375 L 60.023438 0.191406 L 2.738281 0.191406 Z M 2.738281 2.09375 "/>
<path fill="none" stroke-width="3.99994" stroke-linecap="butt" stroke-linejoin="miter" stroke="rgb(100%, 100%, 100%)" stroke-opacity="1" stroke-miterlimit="4" d="M 609.908482 230.397817 L 609.908482 250.025174 L 18.871156 250.025174 L 18.871156 230.397817 Z M 609.908482 230.397817 " transform="matrix(0.0969231, 0, 0, -0.0969231, 0.909231, 24.424615)"/>
<path fill-rule="nonzero" fill="rgb(1.176453%, 41.175842%, 59.605408%)" fill-opacity="1" d="M 4.773438 9.273438 L 6.421875 9.273438 L 6.421875 5.714844 L 4.773438 5.714844 Z M 4.773438 9.273438 "/>
<path fill="none" stroke-width="3.99994" stroke-linecap="butt" stroke-linejoin="miter" stroke="rgb(100%, 100%, 100%)" stroke-opacity="1" stroke-miterlimit="4" d="M 56.876488 156.321677 L 56.876488 193.037326 L 39.8688 193.037326 L 39.8688 156.321677 Z M 56.876488 156.321677 " transform="matrix(0.0969231, 0, 0, -0.0969231, 0.909231, 24.424615)"/>
<path fill-rule="nonzero" fill="rgb(1.176453%, 41.175842%, 59.605408%)" fill-opacity="1" d="M 4.773438 14.480469 L 6.421875 14.480469 L 6.421875 10.921875 L 4.773438 10.921875 Z M 4.773438 14.480469 "/>
<path fill="none" stroke-width="3.99994" stroke-linecap="butt" stroke-linejoin="miter" stroke="rgb(100%, 100%, 100%)" stroke-opacity="1" stroke-miterlimit="4" d="M 56.876488 102.598338 L 56.876488 139.313988 L 39.8688 139.313988 L 39.8688 102.598338 Z M 56.876488 102.598338 " transform="matrix(0.0969231, 0, 0, -0.0969231, 0.909231, 24.424615)"/>
<path fill-rule="nonzero" fill="rgb(1.176453%, 41.175842%, 59.605408%)" fill-opacity="1" d="M 4.773438 19.6875 L 6.421875 19.6875 L 6.421875 16.132812 L 4.773438 16.132812 Z M 4.773438 19.6875 "/>
<path fill="none" stroke-width="3.99994" stroke-linecap="butt" stroke-linejoin="miter" stroke="rgb(100%, 100%, 100%)" stroke-opacity="1" stroke-miterlimit="4" d="M 56.876488 48.875 L 56.876488 85.550347 L 39.8688 85.550347 L 39.8688 48.875 Z M 56.876488 48.875 " transform="matrix(0.0969231, 0, 0, -0.0969231, 0.909231, 24.424615)"/>
<path fill-rule="nonzero" fill="rgb(1.176453%, 41.175842%, 59.605408%)" fill-opacity="1" d="M 24.988281 20.234375 L 31.445312 20.234375 L 31.445312 10.890625 L 24.988281 10.890625 Z M 24.988281 20.234375 "/>
<path fill="none" stroke-width="3.99994" stroke-linecap="butt" stroke-linejoin="miter" stroke="rgb(100%, 100%, 100%)" stroke-opacity="1" stroke-miterlimit="4" d="M 315.054812 43.232639 L 315.054812 139.636409 L 248.434648 139.636409 L 248.434648 43.232639 Z M 315.054812 43.232639 " transform="matrix(0.0969231, 0, 0, -0.0969231, 0.909231, 24.424615)"/>
<path fill-rule="nonzero" fill="rgb(1.176453%, 41.175842%, 59.605408%)" fill-opacity="1" d="M 31.445312 20.234375 L 37.902344 20.234375 L 37.902344 10.890625 L 31.445312 10.890625 Z M 31.445312 20.234375 "/>
<path fill="none" stroke-width="3.99994" stroke-linecap="butt" stroke-linejoin="miter" stroke="rgb(100%, 100%, 100%)" stroke-opacity="1" stroke-miterlimit="4" d="M 315.054812 43.232639 L 315.054812 139.636409 L 381.674975 139.636409 L 381.674975 43.232639 Z M 315.054812 43.232639 " transform="matrix(0.0969231, 0, 0, -0.0969231, 0.909231, 24.424615)"/>
<g clip-path="url(#clip-0)">
<path fill-rule="nonzero" fill="rgb(1.176453%, 41.175842%, 59.605408%)" fill-opacity="1" d="M 60.535156 2.09375 L 61.550781 4.253906 L 1.214844 4.253906 L 2.230469 2.09375 L 60.535156 2.09375 "/>
</g>
<g clip-path="url(#clip-1)">
<path fill="none" stroke-width="3.99994" stroke-linecap="butt" stroke-linejoin="miter" stroke="rgb(100%, 100%, 100%)" stroke-opacity="1" stroke-miterlimit="4" d="M 615.18812 230.397817 L 625.666791 208.110491 L 3.15315 208.110491 L 13.63182 230.397817 Z M 615.18812 230.397817 " transform="matrix(0.0969231, 0, 0, -0.0969231, 0.909231, 24.424615)"/>
</g>
<path fill-rule="nonzero" fill="rgb(1.176453%, 41.175842%, 59.605408%)" fill-opacity="1" d="M 23.339844 21.214844 L 39.550781 21.214844 L 39.550781 19.726562 L 23.339844 19.726562 Z M 23.339844 21.214844 "/>
<path fill="none" stroke-width="3.99994" stroke-linecap="butt" stroke-linejoin="miter" stroke="rgb(100%, 100%, 100%)" stroke-opacity="1" stroke-miterlimit="4" d="M 398.682664 33.116691 L 398.682664 48.471974 L 231.426959 48.471974 L 231.426959 33.116691 Z M 398.682664 33.116691 " transform="matrix(0.0969231, 0, 0, -0.0969231, 0.909231, 24.424615)"/>
<path fill-rule="nonzero" fill="rgb(1.176453%, 41.175842%, 59.605408%)" fill-opacity="1" d="M 22.515625 22.734375 L 40.375 22.734375 L 40.375 21.214844 L 22.515625 21.214844 Z M 22.515625 22.734375 "/>
<path fill="none" stroke-width="3.99994" stroke-linecap="butt" stroke-linejoin="miter" stroke="rgb(100%, 100%, 100%)" stroke-opacity="1" stroke-miterlimit="4" d="M 407.186508 17.438988 L 407.186508 33.116691 L 222.923115 33.116691 L 222.923115 17.438988 Z M 407.186508 17.438988 " transform="matrix(0.0969231, 0, 0, -0.0969231, 0.909231, 24.424615)"/>
<path fill-rule="nonzero" fill="rgb(1.176453%, 41.175842%, 59.605408%)" fill-opacity="1" d="M 10.105469 9.273438 L 11.757812 9.273438 L 11.757812 5.714844 L 10.105469 5.714844 Z M 10.105469 9.273438 "/>
<path fill="none" stroke-width="3.99994" stroke-linecap="butt" stroke-linejoin="miter" stroke="rgb(100%, 100%, 100%)" stroke-opacity="1" stroke-miterlimit="4" d="M 111.929812 156.321677 L 111.929812 193.037326 L 94.88182 193.037326 L 94.88182 156.321677 Z M 111.929812 156.321677 " transform="matrix(0.0969231, 0, 0, -0.0969231, 0.909231, 24.424615)"/>
<path fill-rule="nonzero" fill="rgb(1.176453%, 41.175842%, 59.605408%)" fill-opacity="1" d="M 10.105469 14.480469 L 11.757812 14.480469 L 11.757812 10.921875 L 10.105469 10.921875 Z M 10.105469 14.480469 "/>
<path fill="none" stroke-width="3.99994" stroke-linecap="butt" stroke-linejoin="miter" stroke="rgb(100%, 100%, 100%)" stroke-opacity="1" stroke-miterlimit="4" d="M 111.929812 102.598338 L 111.929812 139.313988 L 94.88182 139.313988 L 94.88182 102.598338 Z M 111.929812 102.598338 " transform="matrix(0.0969231, 0, 0, -0.0969231, 0.909231, 24.424615)"/>
<path fill-rule="nonzero" fill="rgb(1.176453%, 41.175842%, 59.605408%)" fill-opacity="1" d="M 10.105469 19.6875 L 11.757812 19.6875 L 11.757812 16.132812 L 10.105469 16.132812 Z M 10.105469 19.6875 "/>
<path fill="none" stroke-width="3.99994" stroke-linecap="butt" stroke-linejoin="miter" stroke="rgb(100%, 100%, 100%)" stroke-opacity="1" stroke-miterlimit="4" d="M 111.929812 48.875 L 111.929812 85.550347 L 94.88182 85.550347 L 94.88182 48.875 Z M 111.929812 48.875 " transform="matrix(0.0969231, 0, 0, -0.0969231, 0.909231, 24.424615)"/>
<path fill-rule="nonzero" fill="rgb(1.176453%, 41.175842%, 59.605408%)" fill-opacity="1" d="M 15.441406 9.273438 L 17.09375 9.273438 L 17.09375 5.714844 L 15.441406 5.714844 Z M 15.441406 9.273438 "/>
<path fill="none" stroke-width="3.99994" stroke-linecap="butt" stroke-linejoin="miter" stroke="rgb(100%, 100%, 100%)" stroke-opacity="1" stroke-miterlimit="4" d="M 166.983135 156.321677 L 166.983135 193.037326 L 149.935144 193.037326 L 149.935144 156.321677 Z M 166.983135 156.321677 " transform="matrix(0.0969231, 0, 0, -0.0969231, 0.909231, 24.424615)"/>
<path fill-rule="nonzero" fill="rgb(1.176453%, 41.175842%, 59.605408%)" fill-opacity="1" d="M 15.441406 14.480469 L 17.09375 14.480469 L 17.09375 10.921875 L 15.441406 10.921875 Z M 15.441406 14.480469 "/>
<path fill="none" stroke-width="3.99994" stroke-linecap="butt" stroke-linejoin="miter" stroke="rgb(100%, 100%, 100%)" stroke-opacity="1" stroke-miterlimit="4" d="M 166.983135 102.598338 L 166.983135 139.313988 L 149.935144 139.313988 L 149.935144 102.598338 Z M 166.983135 102.598338 " transform="matrix(0.0969231, 0, 0, -0.0969231, 0.909231, 24.424615)"/>
<path fill-rule="nonzero" fill="rgb(1.176453%, 41.175842%, 59.605408%)" fill-opacity="1" d="M 15.441406 19.6875 L 17.09375 19.6875 L 17.09375 16.132812 L 15.441406 16.132812 Z M 15.441406 19.6875 "/>
<path fill="none" stroke-width="3.99994" stroke-linecap="butt" stroke-linejoin="miter" stroke="rgb(100%, 100%, 100%)" stroke-opacity="1" stroke-miterlimit="4" d="M 166.983135 48.875 L 166.983135 85.550347 L 149.935144 85.550347 L 149.935144 48.875 Z M 166.983135 48.875 " transform="matrix(0.0969231, 0, 0, -0.0969231, 0.909231, 24.424615)"/>
<path fill-rule="nonzero" fill="rgb(1.176453%, 41.175842%, 59.605408%)" fill-opacity="1" d="M 20.777344 9.273438 L 22.425781 9.273438 L 22.425781 5.714844 L 20.777344 5.714844 Z M 20.777344 9.273438 "/>
<path fill="none" stroke-width="3.99994" stroke-linecap="butt" stroke-linejoin="miter" stroke="rgb(100%, 100%, 100%)" stroke-opacity="1" stroke-miterlimit="4" d="M 221.996156 156.321677 L 221.996156 193.037326 L 204.988467 193.037326 L 204.988467 156.321677 Z M 221.996156 156.321677 " transform="matrix(0.0969231, 0, 0, -0.0969231, 0.909231, 24.424615)"/>
<path fill-rule="nonzero" fill="rgb(1.176453%, 41.175842%, 59.605408%)" fill-opacity="1" d="M 20.777344 14.480469 L 22.425781 14.480469 L 22.425781 10.921875 L 20.777344 10.921875 Z M 20.777344 14.480469 "/>
<path fill="none" stroke-width="3.99994" stroke-linecap="butt" stroke-linejoin="miter" stroke="rgb(100%, 100%, 100%)" stroke-opacity="1" stroke-miterlimit="4" d="M 221.996156 102.598338 L 221.996156 139.313988 L 204.988467 139.313988 L 204.988467 102.598338 Z M 221.996156 102.598338 " transform="matrix(0.0969231, 0, 0, -0.0969231, 0.909231, 24.424615)"/>
<path fill-rule="nonzero" fill="rgb(1.176453%, 41.175842%, 59.605408%)" fill-opacity="1" d="M 20.777344 19.6875 L 22.425781 19.6875 L 22.425781 16.132812 L 20.777344 16.132812 Z M 20.777344 19.6875 "/>
<path fill="none" stroke-width="3.99994" stroke-linecap="butt" stroke-linejoin="miter" stroke="rgb(100%, 100%, 100%)" stroke-opacity="1" stroke-miterlimit="4" d="M 221.996156 48.875 L 221.996156 85.550347 L 204.988467 85.550347 L 204.988467 48.875 Z M 221.996156 48.875 " transform="matrix(0.0969231, 0, 0, -0.0969231, 0.909231, 24.424615)"/>
<path fill-rule="nonzero" fill="rgb(1.176453%, 41.175842%, 59.605408%)" fill-opacity="1" d="M 56.46875 9.273438 L 58.121094 9.273438 L 58.121094 5.714844 L 56.46875 5.714844 Z M 56.46875 9.273438 "/>
<path fill="none" stroke-width="3.99994" stroke-linecap="butt" stroke-linejoin="miter" stroke="rgb(100%, 100%, 100%)" stroke-opacity="1" stroke-miterlimit="4" d="M 573.233135 156.321677 L 573.233135 193.037326 L 590.281126 193.037326 L 590.281126 156.321677 Z M 573.233135 156.321677 " transform="matrix(0.0969231, 0, 0, -0.0969231, 0.909231, 24.424615)"/>
<path fill-rule="nonzero" fill="rgb(1.176453%, 41.175842%, 59.605408%)" fill-opacity="1" d="M 56.46875 14.480469 L 58.121094 14.480469 L 58.121094 10.921875 L 56.46875 10.921875 Z M 56.46875 14.480469 "/>
<path fill="none" stroke-width="3.99994" stroke-linecap="butt" stroke-linejoin="miter" stroke="rgb(100%, 100%, 100%)" stroke-opacity="1" stroke-miterlimit="4" d="M 573.233135 102.598338 L 573.233135 139.313988 L 590.281126 139.313988 L 590.281126 102.598338 Z M 573.233135 102.598338 " transform="matrix(0.0969231, 0, 0, -0.0969231, 0.909231, 24.424615)"/>
<path fill-rule="nonzero" fill="rgb(1.176453%, 41.175842%, 59.605408%)" fill-opacity="1" d="M 56.46875 19.6875 L 58.121094 19.6875 L 58.121094 16.132812 L 56.46875 16.132812 Z M 56.46875 19.6875 "/>
<path fill="none" stroke-width="3.99994" stroke-linecap="butt" stroke-linejoin="miter" stroke="rgb(100%, 100%, 100%)" stroke-opacity="1" stroke-miterlimit="4" d="M 573.233135 48.875 L 573.233135 85.550347 L 590.281126 85.550347 L 590.281126 48.875 Z M 573.233135 48.875 " transform="matrix(0.0969231, 0, 0, -0.0969231, 0.909231, 24.424615)"/>
<path fill-rule="nonzero" fill="rgb(1.176453%, 41.175842%, 59.605408%)" fill-opacity="1" d="M 51.132812 9.273438 L 52.785156 9.273438 L 52.785156 5.714844 L 51.132812 5.714844 Z M 51.132812 9.273438 "/>
<path fill="none" stroke-width="3.99994" stroke-linecap="butt" stroke-linejoin="miter" stroke="rgb(100%, 100%, 100%)" stroke-opacity="1" stroke-miterlimit="4" d="M 518.179812 156.321677 L 518.179812 193.037326 L 535.227803 193.037326 L 535.227803 156.321677 Z M 518.179812 156.321677 " transform="matrix(0.0969231, 0, 0, -0.0969231, 0.909231, 24.424615)"/>
<path fill-rule="nonzero" fill="rgb(1.176453%, 41.175842%, 59.605408%)" fill-opacity="1" d="M 51.132812 14.480469 L 52.785156 14.480469 L 52.785156 10.921875 L 51.132812 10.921875 Z M 51.132812 14.480469 "/>
<path fill="none" stroke-width="3.99994" stroke-linecap="butt" stroke-linejoin="miter" stroke="rgb(100%, 100%, 100%)" stroke-opacity="1" stroke-miterlimit="4" d="M 518.179812 102.598338 L 518.179812 139.313988 L 535.227803 139.313988 L 535.227803 102.598338 Z M 518.179812 102.598338 " transform="matrix(0.0969231, 0, 0, -0.0969231, 0.909231, 24.424615)"/>
<path fill-rule="nonzero" fill="rgb(1.176453%, 41.175842%, 59.605408%)" fill-opacity="1" d="M 51.132812 19.6875 L 52.785156 19.6875 L 52.785156 16.132812 L 51.132812 16.132812 Z M 51.132812 19.6875 "/>
<path fill="none" stroke-width="3.99994" stroke-linecap="butt" stroke-linejoin="miter" stroke="rgb(100%, 100%, 100%)" stroke-opacity="1" stroke-miterlimit="4" d="M 518.179812 48.875 L 518.179812 85.550347 L 535.227803 85.550347 L 535.227803 48.875 Z M 518.179812 48.875 " transform="matrix(0.0969231, 0, 0, -0.0969231, 0.909231, 24.424615)"/>
<path fill-rule="nonzero" fill="rgb(1.176453%, 41.175842%, 59.605408%)" fill-opacity="1" d="M 45.796875 9.273438 L 47.449219 9.273438 L 47.449219 5.714844 L 45.796875 5.714844 Z M 45.796875 9.273438 "/>
<path fill="none" stroke-width="3.99994" stroke-linecap="butt" stroke-linejoin="miter" stroke="rgb(100%, 100%, 100%)" stroke-opacity="1" stroke-miterlimit="4" d="M 463.126488 156.321677 L 463.126488 193.037326 L 480.174479 193.037326 L 480.174479 156.321677 Z M 463.126488 156.321677 " transform="matrix(0.0969231, 0, 0, -0.0969231, 0.909231, 24.424615)"/>
<path fill-rule="nonzero" fill="rgb(1.176453%, 41.175842%, 59.605408%)" fill-opacity="1" d="M 45.796875 14.480469 L 47.449219 14.480469 L 47.449219 10.921875 L 45.796875 10.921875 Z M 45.796875 14.480469 "/>
<path fill="none" stroke-width="3.99994" stroke-linecap="butt" stroke-linejoin="miter" stroke="rgb(100%, 100%, 100%)" stroke-opacity="1" stroke-miterlimit="4" d="M 463.126488 102.598338 L 463.126488 139.313988 L 480.174479 139.313988 L 480.174479 102.598338 Z M 463.126488 102.598338 " transform="matrix(0.0969231, 0, 0, -0.0969231, 0.909231, 24.424615)"/>
<path fill-rule="nonzero" fill="rgb(1.176453%, 41.175842%, 59.605408%)" fill-opacity="1" d="M 45.796875 19.6875 L 47.449219 19.6875 L 47.449219 16.132812 L 45.796875 16.132812 Z M 45.796875 19.6875 "/>
<path fill="none" stroke-width="3.99994" stroke-linecap="butt" stroke-linejoin="miter" stroke="rgb(100%, 100%, 100%)" stroke-opacity="1" stroke-miterlimit="4" d="M 463.126488 48.875 L 463.126488 85.550347 L 480.174479 85.550347 L 480.174479 48.875 Z M 463.126488 48.875 " transform="matrix(0.0969231, 0, 0, -0.0969231, 0.909231, 24.424615)"/>
<path fill-rule="nonzero" fill="rgb(1.176453%, 41.175842%, 59.605408%)" fill-opacity="1" d="M 40.464844 9.273438 L 42.117188 9.273438 L 42.117188 5.714844 L 40.464844 5.714844 Z M 40.464844 9.273438 "/>
<path fill="none" stroke-width="3.99994" stroke-linecap="butt" stroke-linejoin="miter" stroke="rgb(100%, 100%, 100%)" stroke-opacity="1" stroke-miterlimit="4" d="M 408.113467 156.321677 L 408.113467 193.037326 L 425.161458 193.037326 L 425.161458 156.321677 Z M 408.113467 156.321677 " transform="matrix(0.0969231, 0, 0, -0.0969231, 0.909231, 24.424615)"/>
<path fill-rule="nonzero" fill="rgb(1.176453%, 41.175842%, 59.605408%)" fill-opacity="1" d="M 40.464844 14.480469 L 42.117188 14.480469 L 42.117188 10.921875 L 40.464844 10.921875 Z M 40.464844 14.480469 "/>
<path fill="none" stroke-width="3.99994" stroke-linecap="butt" stroke-linejoin="miter" stroke="rgb(100%, 100%, 100%)" stroke-opacity="1" stroke-miterlimit="4" d="M 408.113467 102.598338 L 408.113467 139.313988 L 425.161458 139.313988 L 425.161458 102.598338 Z M 408.113467 102.598338 " transform="matrix(0.0969231, 0, 0, -0.0969231, 0.909231, 24.424615)"/>
<path fill-rule="nonzero" fill="rgb(1.176453%, 41.175842%, 59.605408%)" fill-opacity="1" d="M 40.464844 19.6875 L 42.117188 19.6875 L 42.117188 16.132812 L 40.464844 16.132812 Z M 40.464844 19.6875 "/>
<path fill="none" stroke-width="3.99994" stroke-linecap="butt" stroke-linejoin="miter" stroke="rgb(100%, 100%, 100%)" stroke-opacity="1" stroke-miterlimit="4" d="M 408.113467 48.875 L 408.113467 85.550347 L 425.161458 85.550347 L 425.161458 48.875 Z M 408.113467 48.875 " transform="matrix(0.0969231, 0, 0, -0.0969231, 0.909231, 24.424615)"/>
<path fill-rule="nonzero" fill="rgb(1.176453%, 41.175842%, 59.605408%)" fill-opacity="1" d="M 35.511719 9.273438 L 37.160156 9.273438 L 37.160156 5.714844 L 35.511719 5.714844 Z M 35.511719 9.273438 "/>
<path fill="none" stroke-width="3.99994" stroke-linecap="butt" stroke-linejoin="miter" stroke="rgb(100%, 100%, 100%)" stroke-opacity="1" stroke-miterlimit="4" d="M 357.009797 156.321677 L 357.009797 193.037326 L 374.017485 193.037326 L 374.017485 156.321677 Z M 357.009797 156.321677 " transform="matrix(0.0969231, 0, 0, -0.0969231, 0.909231, 24.424615)"/>
<path fill-rule="nonzero" fill="rgb(1.176453%, 41.175842%, 59.605408%)" fill-opacity="1" d="M 30.683594 9.273438 L 32.335938 9.273438 L 32.335938 5.714844 L 30.683594 5.714844 Z M 30.683594 9.273438 "/>
<path fill="none" stroke-width="3.99994" stroke-linecap="butt" stroke-linejoin="miter" stroke="rgb(100%, 100%, 100%)" stroke-opacity="1" stroke-miterlimit="4" d="M 307.195809 156.321677 L 307.195809 193.037326 L 324.2438 193.037326 L 324.2438 156.321677 Z M 307.195809 156.321677 " transform="matrix(0.0969231, 0, 0, -0.0969231, 0.909231, 24.424615)"/>
<path fill-rule="nonzero" fill="rgb(1.176453%, 41.175842%, 59.605408%)" fill-opacity="1" d="M 25.855469 9.273438 L 27.507812 9.273438 L 27.507812 5.714844 L 25.855469 5.714844 Z M 25.855469 9.273438 "/>
<path fill="none" stroke-width="3.99994" stroke-linecap="butt" stroke-linejoin="miter" stroke="rgb(100%, 100%, 100%)" stroke-opacity="1" stroke-miterlimit="4" d="M 257.38182 156.321677 L 257.38182 193.037326 L 274.429812 193.037326 L 274.429812 156.321677 Z M 257.38182 156.321677 " transform="matrix(0.0969231, 0, 0, -0.0969231, 0.909231, 24.424615)"/>
<path fill-rule="nonzero" fill="rgb(1.176453%, 41.175842%, 59.605408%)" fill-opacity="1" d="M 26.109375 14.914062 L 27.570312 14.914062 L 27.570312 11.992188 L 26.109375 11.992188 Z M 26.109375 14.914062 "/>
<path fill="none" stroke-width="3.99994" stroke-linecap="butt" stroke-linejoin="miter" stroke="rgb(100%, 100%, 100%)" stroke-opacity="1" stroke-miterlimit="4" d="M 275.074653 98.124752 L 275.074653 128.271081 L 260.001488 128.271081 L 260.001488 98.124752 Z M 275.074653 98.124752 " transform="matrix(0.0969231, 0, 0, -0.0969231, 0.909231, 24.424615)"/>
<path fill-rule="nonzero" fill="rgb(1.176453%, 41.175842%, 59.605408%)" fill-opacity="1" d="M 28.652344 14.914062 L 30.113281 14.914062 L 30.113281 11.992188 L 28.652344 11.992188 Z M 28.652344 14.914062 "/>
<path fill="none" stroke-width="3.99994" stroke-linecap="butt" stroke-linejoin="miter" stroke="rgb(100%, 100%, 100%)" stroke-opacity="1" stroke-miterlimit="4" d="M 301.311632 98.124752 L 301.311632 128.271081 L 286.238467 128.271081 L 286.238467 98.124752 Z M 301.311632 98.124752 " transform="matrix(0.0969231, 0, 0, -0.0969231, 0.909231, 24.424615)"/>
<path fill-rule="nonzero" fill="rgb(1.176453%, 41.175842%, 59.605408%)" fill-opacity="1" d="M 35.320312 14.914062 L 36.78125 14.914062 L 36.78125 11.992188 L 35.320312 11.992188 Z M 35.320312 14.914062 "/>
<path fill="none" stroke-width="3.99994" stroke-linecap="butt" stroke-linejoin="miter" stroke="rgb(100%, 100%, 100%)" stroke-opacity="1" stroke-miterlimit="4" d="M 355.03497 98.124752 L 355.03497 128.271081 L 370.108135 128.271081 L 370.108135 98.124752 Z M 355.03497 98.124752 " transform="matrix(0.0969231, 0, 0, -0.0969231, 0.909231, 24.424615)"/>
<path fill-rule="nonzero" fill="rgb(1.176453%, 41.175842%, 59.605408%)" fill-opacity="1" d="M 32.777344 14.914062 L 34.242188 14.914062 L 34.242188 11.992188 L 32.777344 11.992188 Z M 32.777344 14.914062 "/>
<path fill="none" stroke-width="3.99994" stroke-linecap="butt" stroke-linejoin="miter" stroke="rgb(100%, 100%, 100%)" stroke-opacity="1" stroke-miterlimit="4" d="M 328.797991 98.124752 L 328.797991 128.271081 L 343.911458 128.271081 L 343.911458 98.124752 Z M 328.797991 98.124752 " transform="matrix(0.0969231, 0, 0, -0.0969231, 0.909231, 24.424615)"/>
<g clip-path="url(#clip-2)">
<path fill-rule="nonzero" fill="rgb(1.176453%, 41.175842%, 59.605408%)" fill-opacity="1" d="M 21.753906 24.230469 L 41.136719 24.230469 L 41.136719 22.734375 L 21.753906 22.734375 Z M 21.753906 24.230469 "/>
<path fill="none" stroke-width="3.99994" stroke-linecap="butt" stroke-linejoin="miter" stroke="rgb(100%, 100%, 100%)" stroke-opacity="1" stroke-miterlimit="4" d="M 415.045511 2.0031 L 415.045511 17.438988 L 215.064112 17.438988 L 215.064112 2.0031 Z M 415.045511 2.0031 " transform="matrix(0.0969231, 0, 0, -0.0969231, 0.909231, 24.424615)"/>
</g>
</svg>
