<?xml version="1.0" encoding="UTF-8"?>
<svg xmlns="http://www.w3.org/2000/svg" xmlns:xlink="http://www.w3.org/1999/xlink" width="45.81" height="31.3" viewBox="0 0 45.81 31.3">
<defs>
<clipPath id="clip-0">
<path clip-rule="nonzero" d="M 1 5 L 39 5 L 39 30.617188 L 1 30.617188 Z M 1 5 "/>
</clipPath>
<clipPath id="clip-1">
<path clip-rule="nonzero" d="M 1 5 L 40 5 L 40 30.617188 L 1 30.617188 Z M 1 5 "/>
</clipPath>
<clipPath id="clip-2">
<path clip-rule="nonzero" d="M 38 0 L 45 0 L 45 30.617188 L 38 30.617188 Z M 38 0 "/>
</clipPath>
<clipPath id="clip-3">
<path clip-rule="nonzero" d="M 36 0 L 45.214844 0 L 45.214844 30.617188 L 36 30.617188 Z M 36 0 "/>
</clipPath>
<clipPath id="clip-4">
<path clip-rule="nonzero" d="M 0.40625 0 L 45.214844 0 L 45.214844 11 L 0.40625 11 Z M 0.40625 0 "/>
</clipPath>
</defs>
<g clip-path="url(#clip-0)">
<path fill-rule="nonzero" fill="rgb(3.292847%, 48.298645%, 73.153687%)" fill-opacity="1" d="M 1.515625 30.175781 L 38.828125 30.175781 L 38.828125 5.660156 L 1.515625 5.660156 L 1.515625 30.175781 "/>
</g>
<g clip-path="url(#clip-1)">
<path fill="none" stroke-width="4" stroke-linecap="butt" stroke-linejoin="miter" stroke="rgb(100%, 100%, 100%)" stroke-opacity="1" stroke-miterlimit="4" d="M 11.322684 4.49361 L 392.792332 4.49361 L 392.792332 255.132588 L 11.322684 255.132588 Z M 11.322684 4.49361 " transform="matrix(0.0978125, 0, 0, -0.0978125, 0.408125, 30.615313)"/>
</g>
<g clip-path="url(#clip-2)">
<path fill-rule="nonzero" fill="rgb(3.292847%, 48.298645%, 73.153687%)" fill-opacity="1" d="M 44.246094 25.3125 L 38.828125 30.175781 L 38.828125 5.660156 L 44.246094 0.457031 L 44.246094 25.3125 "/>
</g>
<g clip-path="url(#clip-3)">
<path fill="none" stroke-width="4" stroke-linecap="butt" stroke-linejoin="miter" stroke="rgb(100%, 100%, 100%)" stroke-opacity="1" stroke-miterlimit="4" d="M 448.183706 54.214058 L 392.792332 4.49361 L 392.792332 255.132588 L 448.183706 308.327476 Z M 448.183706 54.214058 " transform="matrix(0.0978125, 0, 0, -0.0978125, 0.408125, 30.615313)"/>
</g>
<path fill-rule="nonzero" fill="rgb(3.292847%, 48.298645%, 73.153687%)" fill-opacity="1" d="M 7.953125 0.457031 L 44.246094 0.457031 L 38.828125 5.660156 L 1.515625 5.660156 L 7.953125 0.457031 "/>
<g clip-path="url(#clip-4)">
<path fill="none" stroke-width="8" stroke-linecap="butt" stroke-linejoin="miter" stroke="rgb(100%, 100%, 100%)" stroke-opacity="1" stroke-miterlimit="4" d="M 77.13738 308.327476 L 448.183706 308.327476 L 392.792332 255.132588 L 11.322684 255.132588 Z M 77.13738 308.327476 " transform="matrix(0.0978125, 0, 0, -0.0978125, 0.408125, 30.615313)"/>
</g>
<path fill-rule="nonzero" fill="rgb(100%, 100%, 100%)" fill-opacity="1" d="M 33.867188 11.679688 L 30.550781 11.683594 L 30.550781 10.6875 L 33.867188 10.6875 L 33.867188 9.132812 L 37.488281 11.183594 L 33.867188 13.230469 L 33.867188 11.679688 "/>
<path fill-rule="nonzero" fill="rgb(100%, 100%, 100%)" fill-opacity="1" d="M 33.867188 24.070312 L 30.550781 24.070312 L 30.550781 23.078125 L 33.867188 23.074219 L 33.867188 21.523438 L 37.488281 23.574219 L 33.867188 25.621094 L 33.867188 24.070312 "/>
<path fill-rule="nonzero" fill="rgb(100%, 100%, 100%)" fill-opacity="1" d="M 6.6875 17.9375 L 2.980469 17.941406 L 2.980469 16.949219 L 6.6875 16.945312 L 6.6875 15.394531 L 10.308594 17.441406 L 6.6875 19.488281 L 6.6875 17.9375 "/>
<path fill-rule="nonzero" fill="rgb(3.292847%, 48.298645%, 73.153687%)" fill-opacity="1" d="M 28.34375 13.976562 C 28.34375 15.71875 24.535156 17.132812 19.835938 17.132812 C 15.136719 17.132812 11.328125 15.71875 11.328125 13.976562 L 11.328125 21.242188 C 11.328125 22.984375 15.136719 24.394531 19.835938 24.394531 C 24.535156 24.394531 28.34375 22.984375 28.34375 21.242188 L 28.34375 13.976562 "/>
<path fill="none" stroke-width="4" stroke-linecap="butt" stroke-linejoin="miter" stroke="rgb(100%, 100%, 100%)" stroke-opacity="1" stroke-miterlimit="4" d="M 285.603834 170.108626 C 285.603834 152.297125 246.666134 137.840256 198.623003 137.840256 C 150.579872 137.840256 111.642173 152.297125 111.642173 170.108626 L 111.642173 95.827476 C 111.642173 78.015974 150.579872 63.599042 198.623003 63.599042 C 246.666134 63.599042 285.603834 78.015974 285.603834 95.827476 Z M 285.603834 170.108626 " transform="matrix(0.0978125, 0, 0, -0.0978125, 0.408125, 30.615313)"/>
<path fill-rule="nonzero" fill="rgb(3.292847%, 48.298645%, 73.153687%)" fill-opacity="1" d="M 19.835938 17.132812 C 24.535156 17.132812 28.34375 15.71875 28.34375 13.976562 C 28.34375 12.234375 24.535156 10.824219 19.835938 10.824219 C 15.136719 10.824219 11.328125 12.234375 11.328125 13.976562 C 11.328125 15.71875 15.136719 17.132812 19.835938 17.132812 "/>
<path fill="none" stroke-width="4" stroke-linecap="butt" stroke-linejoin="miter" stroke="rgb(100%, 100%, 100%)" stroke-opacity="1" stroke-miterlimit="4" d="M 198.623003 137.840256 C 246.666134 137.840256 285.603834 152.297125 285.603834 170.108626 C 285.603834 187.920128 246.666134 202.337061 198.623003 202.337061 C 150.579872 202.337061 111.642173 187.920128 111.642173 170.108626 C 111.642173 152.297125 150.579872 137.840256 198.623003 137.840256 Z M 198.623003 137.840256 " transform="matrix(0.0978125, 0, 0, -0.0978125, 0.408125, 30.615313)"/>
</svg>
