<?xml version="1.0" encoding="UTF-8"?>
<svg xmlns="http://www.w3.org/2000/svg" xmlns:xlink="http://www.w3.org/1999/xlink" width="32.38" height="46.46" viewBox="0 0 32.38 46.46">
<defs>
<clipPath id="clip-0">
<path clip-rule="nonzero" d="M 14 11 L 16 11 L 16 45.367188 L 14 45.367188 Z M 14 11 "/>
</clipPath>
<clipPath id="clip-1">
<path clip-rule="nonzero" d="M 9 6 L 31.398438 6 L 31.398438 45.367188 L 9 45.367188 Z M 9 6 "/>
</clipPath>
<clipPath id="clip-2">
<path clip-rule="nonzero" d="M 0 6 L 21 6 L 21 45.367188 L 0 45.367188 Z M 0 6 "/>
</clipPath>
<clipPath id="clip-3">
<path clip-rule="nonzero" d="M 5 0.171875 L 27 0.171875 L 27 12 L 5 12 Z M 5 0.171875 "/>
</clipPath>
<clipPath id="clip-4">
<path clip-rule="nonzero" d="M 3 0.171875 L 29 0.171875 L 29 14 L 3 14 Z M 3 0.171875 "/>
</clipPath>
<clipPath id="clip-5">
<path clip-rule="nonzero" d="M 23 0.171875 L 27 0.171875 L 27 4 L 23 4 Z M 23 0.171875 "/>
</clipPath>
<clipPath id="clip-6">
<path clip-rule="nonzero" d="M 21 0.171875 L 29 0.171875 L 29 6 L 21 6 Z M 21 0.171875 "/>
</clipPath>
<clipPath id="clip-7">
<path clip-rule="nonzero" d="M 24 0.171875 L 31.398438 0.171875 L 31.398438 7 L 24 7 Z M 24 0.171875 "/>
</clipPath>
<clipPath id="clip-8">
<path clip-rule="nonzero" d="M 22 0.171875 L 31.398438 0.171875 L 31.398438 9 L 22 9 Z M 22 0.171875 "/>
</clipPath>
</defs>
<g clip-path="url(#clip-0)">
<path fill="none" stroke-width="10" stroke-linecap="butt" stroke-linejoin="miter" stroke="rgb(1.176453%, 41.175842%, 59.605408%)" stroke-opacity="1" stroke-miterlimit="4" d="M 149.727117 339.551697 L 149.727117 0.00833462 " transform="matrix(0.0981212, 0, 0, -0.0981212, 0, 45.75863)"/>
</g>
<g clip-path="url(#clip-1)">
<path fill="none" stroke-width="10" stroke-linecap="butt" stroke-linejoin="miter" stroke="rgb(1.176453%, 41.175842%, 59.605408%)" stroke-opacity="1" stroke-miterlimit="4" d="M 149.727117 339.551697 L 294.995464 55.066192 " transform="matrix(0.0981212, 0, 0, -0.0981212, 0, 45.75863)"/>
</g>
<g clip-path="url(#clip-2)">
<path fill="none" stroke-width="10" stroke-linecap="butt" stroke-linejoin="miter" stroke="rgb(1.176453%, 41.175842%, 59.605408%)" stroke-opacity="1" stroke-miterlimit="4" d="M 149.727117 339.551697 L 4.458771 55.066192 " transform="matrix(0.0981212, 0, 0, -0.0981212, 0, 45.75863)"/>
</g>
<path fill-rule="nonzero" fill="rgb(1.176453%, 41.175842%, 59.605408%)" fill-opacity="1" d="M 10.421875 16.289062 L 18.960938 16.289062 L 18.960938 8.59375 L 10.421875 8.59375 Z M 10.421875 16.289062 "/>
<path fill="none" stroke-width="3.99994" stroke-linecap="butt" stroke-linejoin="miter" stroke="rgb(100%, 100%, 100%)" stroke-opacity="1" stroke-miterlimit="4" d="M 193.239944 300.338399 L 193.239944 378.764994 L 106.214291 378.764994 L 106.214291 300.338399 Z M 193.239944 300.338399 " transform="matrix(0.0981212, 0, 0, -0.0981212, 0, 45.75863)"/>
<path fill-rule="nonzero" fill="rgb(1.176453%, 41.175842%, 59.605408%)" fill-opacity="1" d="M 2.453125 8.332031 C 2.003906 8.332031 1.640625 7.265625 1.640625 5.953125 C 1.640625 4.640625 2.003906 3.574219 2.453125 3.574219 L 6.71875 3.574219 C 7.167969 3.574219 7.53125 4.640625 7.53125 5.953125 C 7.53125 7.265625 7.167969 8.332031 6.71875 8.332031 L 2.453125 8.332031 "/>
<path fill="none" stroke-width="3.99994" stroke-linecap="butt" stroke-linejoin="miter" stroke="rgb(100%, 100%, 100%)" stroke-opacity="1" stroke-miterlimit="4" d="M 25.000965 381.432294 C 20.422763 381.432294 16.720391 392.300548 16.720391 405.676861 C 16.720391 419.053173 20.422763 429.921427 25.000965 429.921427 L 68.473981 429.921427 C 73.052183 429.921427 76.754555 419.053173 76.754555 405.676861 C 76.754555 392.300548 73.052183 381.432294 68.473981 381.432294 Z M 25.000965 381.432294 " transform="matrix(0.0981212, 0, 0, -0.0981212, 0, 45.75863)"/>
<path fill-rule="nonzero" fill="rgb(1.176453%, 41.175842%, 59.605408%)" fill-opacity="1" d="M 5.585938 11.589844 L 23.792969 11.589844 L 23.792969 3.304688 L 5.585938 3.304688 Z M 5.585938 11.589844 "/>
<path fill="none" stroke-width="3.99994" stroke-linecap="butt" stroke-linejoin="miter" stroke="rgb(100%, 100%, 100%)" stroke-opacity="1" stroke-miterlimit="4" d="M 56.928949 348.230376 L 56.928949 432.668349 L 242.485475 432.668349 L 242.485475 348.230376 Z M 56.928949 348.230376 " transform="matrix(0.0981212, 0, 0, -0.0981212, 0, 45.75863)"/>
<g clip-path="url(#clip-3)">
<path fill-rule="nonzero" fill="rgb(1.176453%, 41.175842%, 59.605408%)" fill-opacity="1" d="M 23.792969 11.617188 L 23.792969 3.304688 L 5.578125 3.304688 L 7.921875 0.960938 L 26.121094 0.960938 L 26.121094 9.269531 L 23.792969 11.617188 "/>
</g>
<g clip-path="url(#clip-4)">
<path fill="none" stroke-width="3.99994" stroke-linecap="butt" stroke-linejoin="miter" stroke="rgb(100%, 100%, 100%)" stroke-opacity="1" stroke-miterlimit="4" d="M 242.485475 347.951702 L 242.485475 432.668349 L 56.849328 432.668349 L 80.735601 456.554621 L 266.212506 456.554621 L 266.212506 371.877785 Z M 242.485475 347.951702 " transform="matrix(0.0981212, 0, 0, -0.0981212, 0, 45.75863)"/>
</g>
<g clip-path="url(#clip-5)">
<path fill-rule="nonzero" fill="rgb(1.176453%, 41.175842%, 59.605408%)" fill-opacity="1" d="M 23.792969 3.304688 L 26.121094 0.960938 "/>
</g>
<g clip-path="url(#clip-6)">
<path fill="none" stroke-width="3.99994" stroke-linecap="butt" stroke-linejoin="miter" stroke="rgb(100%, 100%, 100%)" stroke-opacity="1" stroke-miterlimit="4" d="M 242.485475 432.668349 L 266.212506 456.554621 " transform="matrix(0.0981212, 0, 0, -0.0981212, 0, 45.75863)"/>
</g>
<path fill="none" stroke-width="3.99994" stroke-linecap="butt" stroke-linejoin="miter" stroke="rgb(100%, 100%, 100%)" stroke-opacity="1" stroke-miterlimit="4" d="M 242.485475 370.603851 L 56.928949 370.603851 " transform="matrix(0.0981212, 0, 0, -0.0981212, 0, 45.75863)"/>
<path fill-rule="nonzero" fill="rgb(1.176453%, 41.175842%, 59.605408%)" fill-opacity="1" stroke-width="3.99994" stroke-linecap="butt" stroke-linejoin="miter" stroke="rgb(100%, 100%, 100%)" stroke-opacity="1" stroke-miterlimit="4" d="M 266.212506 394.25126 L 242.485475 370.325178 " transform="matrix(0.0981212, 0, 0, -0.0981212, 0, 45.75863)"/>
<g clip-path="url(#clip-7)">
<path fill-rule="nonzero" fill="rgb(1.176453%, 41.175842%, 59.605408%)" fill-opacity="1" d="M 31.507812 0.480469 L 31.148438 2.25 L 24.75 6.410156 L 24.4375 3.101562 L 31.507812 0.480469 "/>
</g>
<g clip-path="url(#clip-8)">
<path fill="none" stroke-width="3.99994" stroke-linecap="butt" stroke-linejoin="miter" stroke="rgb(100%, 100%, 100%)" stroke-opacity="1" stroke-miterlimit="4" d="M 321.111122 461.451307 L 317.44856 443.417171 L 252.239036 401.019038 L 249.0542 434.738492 Z M 321.111122 461.451307 " transform="matrix(0.0981212, 0, 0, -0.0981212, 0, 45.75863)"/>
</g>
</svg>
