<?xml version="1.0" encoding="UTF-8"?>
<svg xmlns="http://www.w3.org/2000/svg" xmlns:xlink="http://www.w3.org/1999/xlink" width="31.35" height="41.98" viewBox="0 0 31.35 41.98">
<defs>
<clipPath id="clip-0">
<path clip-rule="nonzero" d="M 0 14 L 27 14 L 27 41.542969 L 0 41.542969 Z M 0 14 "/>
</clipPath>
<clipPath id="clip-1">
<path clip-rule="nonzero" d="M 0 14 L 28 14 L 28 41.542969 L 0 41.542969 Z M 0 14 "/>
</clipPath>
<clipPath id="clip-2">
<path clip-rule="nonzero" d="M 26 11 L 30.714844 11 L 30.714844 41.542969 L 26 41.542969 Z M 26 11 "/>
</clipPath>
<clipPath id="clip-3">
<path clip-rule="nonzero" d="M 24 9 L 30.714844 9 L 30.714844 41.542969 L 24 41.542969 Z M 24 9 "/>
</clipPath>
<clipPath id="clip-4">
<path clip-rule="nonzero" d="M 0 0.417969 L 30.714844 0.417969 L 30.714844 5 L 0 5 Z M 0 0.417969 "/>
</clipPath>
<clipPath id="clip-5">
<path clip-rule="nonzero" d="M 0 0.417969 L 30.714844 0.417969 L 30.714844 7 L 0 7 Z M 0 0.417969 "/>
</clipPath>
<clipPath id="clip-6">
<path clip-rule="nonzero" d="M 26 0.417969 L 30.714844 0.417969 L 30.714844 15 L 26 15 Z M 26 0.417969 "/>
</clipPath>
<clipPath id="clip-7">
<path clip-rule="nonzero" d="M 24 0.417969 L 30.714844 0.417969 L 30.714844 18 L 24 18 Z M 24 0.417969 "/>
</clipPath>
<clipPath id="clip-8">
<path clip-rule="nonzero" d="M 26 11 L 30.714844 11 L 30.714844 15 L 26 15 Z M 26 11 "/>
</clipPath>
<clipPath id="clip-9">
<path clip-rule="nonzero" d="M 24 9 L 30.714844 9 L 30.714844 18 L 24 18 Z M 24 9 "/>
</clipPath>
</defs>
<g clip-path="url(#clip-0)">
<path fill-rule="nonzero" fill="rgb(3.292847%, 48.298645%, 73.153687%)" fill-opacity="1" d="M 0.632812 41.074219 L 0.632812 14.816406 L 26.914062 14.816406 L 26.914062 41.074219 L 0.632812 41.074219 "/>
</g>
<g clip-path="url(#clip-1)">
<path fill="none" stroke-width="4" stroke-linecap="butt" stroke-linejoin="miter" stroke="rgb(100%, 100%, 100%)" stroke-opacity="1" stroke-miterlimit="4" d="M 6.45933 4.79362 L 6.45933 272.815949 L 274.720893 272.815949 L 274.720893 4.79362 Z M 6.45933 4.79362 " transform="matrix(0.0979688, 0, 0, -0.0979688, 0, 41.543844)"/>
</g>
<g clip-path="url(#clip-2)">
<path fill-rule="nonzero" fill="rgb(3.292847%, 48.298645%, 73.153687%)" fill-opacity="1" d="M 30.234375 37.785156 L 30.234375 11.527344 L 26.914062 14.816406 L 26.914062 41.074219 L 30.234375 37.785156 "/>
</g>
<g clip-path="url(#clip-3)">
<path fill="none" stroke-width="4" stroke-linecap="butt" stroke-linejoin="miter" stroke="rgb(100%, 100%, 100%)" stroke-opacity="1" stroke-miterlimit="4" d="M 308.61244 38.366188 L 308.61244 306.388517 L 274.720893 272.815949 L 274.720893 4.79362 Z M 308.61244 38.366188 " transform="matrix(0.0979688, 0, 0, -0.0979688, 0, 41.543844)"/>
</g>
<g clip-path="url(#clip-4)">
<path fill-rule="nonzero" fill="rgb(3.292847%, 48.298645%, 73.153687%)" fill-opacity="1" d="M 5.4375 0.882812 L 0.632812 4.171875 L 26.914062 4.171875 L 30.234375 0.882812 L 5.4375 0.882812 "/>
</g>
<g clip-path="url(#clip-5)">
<path fill="none" stroke-width="4" stroke-linecap="butt" stroke-linejoin="miter" stroke="rgb(100%, 100%, 100%)" stroke-opacity="1" stroke-miterlimit="4" d="M 55.502392 415.040829 L 6.45933 381.468262 L 274.720893 381.468262 L 308.61244 415.040829 Z M 55.502392 415.040829 " transform="matrix(0.0979688, 0, 0, -0.0979688, 0, 41.543844)"/>
</g>
<path fill-rule="nonzero" fill="rgb(3.292847%, 48.298645%, 73.153687%)" fill-opacity="1" d="M 0.632812 14.816406 L 0.632812 4.171875 L 26.914062 4.171875 L 26.914062 14.816406 L 0.632812 14.816406 "/>
<path fill="none" stroke-width="4" stroke-linecap="butt" stroke-linejoin="miter" stroke="rgb(100%, 100%, 100%)" stroke-opacity="1" stroke-miterlimit="4" d="M 6.45933 272.815949 L 6.45933 381.468262 L 274.720893 381.468262 L 274.720893 272.815949 Z M 6.45933 272.815949 " transform="matrix(0.0979688, 0, 0, -0.0979688, 0, 41.543844)"/>
<g clip-path="url(#clip-6)">
<path fill-rule="nonzero" fill="rgb(3.292847%, 48.298645%, 73.153687%)" fill-opacity="1" d="M 30.234375 11.527344 L 30.234375 0.882812 L 26.914062 4.171875 L 26.914062 14.816406 L 30.234375 11.527344 "/>
</g>
<g clip-path="url(#clip-7)">
<path fill="none" stroke-width="4" stroke-linecap="butt" stroke-linejoin="miter" stroke="rgb(100%, 100%, 100%)" stroke-opacity="1" stroke-miterlimit="4" d="M 308.61244 306.388517 L 308.61244 415.040829 L 274.720893 381.468262 L 274.720893 272.815949 Z M 308.61244 306.388517 " transform="matrix(0.0979688, 0, 0, -0.0979688, 0, 41.543844)"/>
</g>
<path fill="none" stroke-width="4" stroke-linecap="butt" stroke-linejoin="miter" stroke="rgb(100%, 100%, 100%)" stroke-opacity="1" stroke-miterlimit="4" d="M 274.720893 272.815949 L 6.45933 272.815949 " transform="matrix(0.0979688, 0, 0, -0.0979688, 0, 41.543844)"/>
<g clip-path="url(#clip-8)">
<path fill-rule="nonzero" fill="rgb(3.292847%, 48.298645%, 73.153687%)" fill-opacity="1" d="M 26.914062 14.816406 L 30.234375 11.527344 "/>
</g>
<g clip-path="url(#clip-9)">
<path fill="none" stroke-width="4" stroke-linecap="butt" stroke-linejoin="miter" stroke="rgb(100%, 100%, 100%)" stroke-opacity="1" stroke-miterlimit="4" d="M 274.720893 272.815949 L 308.61244 306.388517 " transform="matrix(0.0979688, 0, 0, -0.0979688, 0, 41.543844)"/>
</g>
<path fill-rule="nonzero" fill="rgb(100%, 100%, 100%)" fill-opacity="1" d="M 9.160156 7.808594 L 9.160156 5.601562 L 4.921875 5.601562 L 4.921875 7.808594 L 9.160156 7.808594 "/>
<path fill-rule="nonzero" fill="rgb(100%, 100%, 100%)" fill-opacity="1" d="M 18.851562 7.808594 L 18.851562 5.601562 L 23.089844 5.601562 L 23.089844 7.808594 L 18.851562 7.808594 "/>
<path fill-rule="nonzero" fill="rgb(100%, 100%, 100%)" fill-opacity="1" d="M 9.160156 13.324219 L 9.160156 11.117188 L 4.921875 11.117188 L 4.921875 13.324219 L 9.160156 13.324219 "/>
<path fill-rule="nonzero" fill="rgb(100%, 100%, 100%)" fill-opacity="1" d="M 18.851562 13.324219 L 18.851562 11.117188 L 23.089844 11.117188 L 23.089844 13.324219 L 18.851562 13.324219 "/>
<path fill="none" stroke-width="4" stroke-linecap="butt" stroke-linejoin="miter" stroke="rgb(100%, 100%, 100%)" stroke-opacity="1" stroke-miterlimit="4" d="M 79.585327 355.630941 L 212.480064 355.630941 " transform="matrix(0.0979688, 0, 0, -0.0979688, 0, 41.543844)"/>
<path fill="none" stroke-width="4" stroke-linecap="butt" stroke-linejoin="miter" stroke="rgb(100%, 100%, 100%)" stroke-opacity="1" stroke-miterlimit="4" d="M 79.585327 299.3311 L 212.480064 299.3311 " transform="matrix(0.0979688, 0, 0, -0.0979688, 0, 41.543844)"/>
<path fill-rule="nonzero" fill="rgb(0%, 0%, 0%)" fill-opacity="1" stroke-width="4" stroke-linecap="butt" stroke-linejoin="miter" stroke="rgb(100%, 100%, 100%)" stroke-opacity="1" stroke-miterlimit="4" d="M 71.889952 299.3311 L 212.480064 355.630941 " transform="matrix(0.0979688, 0, 0, -0.0979688, 0, 41.543844)"/>
<path fill-rule="nonzero" fill="rgb(0%, 0%, 0%)" fill-opacity="1" stroke-width="4" stroke-linecap="butt" stroke-linejoin="miter" stroke="rgb(100%, 100%, 100%)" stroke-opacity="1" stroke-miterlimit="4" d="M 71.889952 355.630941 L 212.480064 299.3311 " transform="matrix(0.0979688, 0, 0, -0.0979688, 0, 41.543844)"/>
<path fill-rule="nonzero" fill="rgb(100%, 100%, 100%)" fill-opacity="1" d="M 7.8125 20.773438 L 7.8125 18.503906 L 8.199219 18.503906 L 7.628906 17.644531 L 7.0625 18.503906 L 7.445312 18.503906 L 7.445312 20.773438 L 7.8125 20.773438 "/>
<path fill-rule="nonzero" fill="rgb(100%, 100%, 100%)" fill-opacity="1" d="M 6.65625 21.105469 L 5.046875 19.496094 L 5.320312 19.222656 L 4.3125 19.019531 L 4.515625 20.027344 L 4.789062 19.753906 L 6.394531 21.363281 L 6.65625 21.105469 "/>
<path fill-rule="nonzero" fill="rgb(100%, 100%, 100%)" fill-opacity="1" d="M 6.066406 22.15625 L 3.792969 22.15625 L 3.792969 21.769531 L 2.9375 22.339844 L 3.792969 22.90625 L 3.792969 22.523438 L 6.066406 22.523438 L 6.066406 22.15625 "/>
<path fill-rule="nonzero" fill="rgb(100%, 100%, 100%)" fill-opacity="1" d="M 6.394531 23.3125 L 4.789062 24.921875 L 4.515625 24.648438 L 4.3125 25.65625 L 5.320312 25.453125 L 5.046875 25.179688 L 6.65625 23.574219 L 6.394531 23.3125 "/>
<path fill-rule="nonzero" fill="rgb(100%, 100%, 100%)" fill-opacity="1" d="M 7.445312 23.902344 L 7.445312 26.175781 L 7.0625 26.175781 L 7.628906 27.03125 L 8.199219 26.175781 L 7.8125 26.175781 L 7.8125 23.902344 L 7.445312 23.902344 "/>
<path fill-rule="nonzero" fill="rgb(100%, 100%, 100%)" fill-opacity="1" d="M 9.195312 22.523438 L 11.464844 22.523438 L 11.464844 22.90625 L 12.324219 22.339844 L 11.464844 21.769531 L 11.464844 22.15625 L 9.195312 22.15625 L 9.195312 22.523438 "/>
<path fill-rule="nonzero" fill="rgb(100%, 100%, 100%)" fill-opacity="1" d="M 8.867188 21.363281 L 10.472656 19.753906 L 10.746094 20.027344 L 10.949219 19.019531 L 9.941406 19.222656 L 10.214844 19.496094 L 8.605469 21.105469 L 8.867188 21.363281 "/>
<path fill-rule="nonzero" fill="rgb(100%, 100%, 100%)" fill-opacity="1" d="M 9.019531 24.242188 C 10.085938 23.496094 10.34375 22.03125 9.597656 20.964844 C 8.851562 19.902344 7.386719 19.644531 6.320312 20.386719 C 5.257812 21.132812 5 22.601562 5.742188 23.664062 C 6.488281 24.730469 7.957031 24.988281 9.019531 24.242188 "/>
<path fill-rule="nonzero" fill="rgb(100%, 100%, 100%)" fill-opacity="1" d="M 7.8125 33.183594 L 7.8125 30.910156 L 8.199219 30.910156 L 7.628906 30.054688 L 7.0625 30.910156 L 7.445312 30.910156 L 7.445312 33.183594 L 7.8125 33.183594 "/>
<path fill-rule="nonzero" fill="rgb(100%, 100%, 100%)" fill-opacity="1" d="M 6.65625 33.511719 L 5.046875 31.90625 L 5.320312 31.632812 L 4.3125 31.429688 L 4.515625 32.4375 L 4.789062 32.164062 L 6.394531 33.773438 L 6.65625 33.511719 "/>
<path fill-rule="nonzero" fill="rgb(100%, 100%, 100%)" fill-opacity="1" d="M 6.066406 34.566406 L 3.792969 34.566406 L 3.792969 34.179688 L 2.9375 34.75 L 3.792969 35.316406 L 3.792969 34.933594 L 6.066406 34.933594 L 6.066406 34.566406 "/>
<path fill-rule="nonzero" fill="rgb(100%, 100%, 100%)" fill-opacity="1" d="M 6.394531 35.722656 L 4.789062 37.332031 L 4.515625 37.058594 L 4.3125 38.066406 L 5.320312 37.863281 L 5.046875 37.589844 L 6.65625 35.984375 L 6.394531 35.722656 "/>
<path fill-rule="nonzero" fill="rgb(100%, 100%, 100%)" fill-opacity="1" d="M 7.445312 36.3125 L 7.445312 38.582031 L 7.0625 38.582031 L 7.628906 39.441406 L 8.199219 38.582031 L 7.8125 38.582031 L 7.8125 36.3125 L 7.445312 36.3125 "/>
<path fill-rule="nonzero" fill="rgb(100%, 100%, 100%)" fill-opacity="1" d="M 8.605469 35.984375 L 10.214844 37.589844 L 9.941406 37.863281 L 10.949219 38.066406 L 10.746094 37.058594 L 10.472656 37.332031 L 8.867188 35.722656 L 8.605469 35.984375 "/>
<path fill-rule="nonzero" fill="rgb(100%, 100%, 100%)" fill-opacity="1" d="M 9.195312 34.933594 L 11.464844 34.933594 L 11.464844 35.316406 L 12.324219 34.75 L 11.464844 34.179688 L 11.464844 34.566406 L 9.195312 34.566406 L 9.195312 34.933594 "/>
<path fill-rule="nonzero" fill="rgb(100%, 100%, 100%)" fill-opacity="1" d="M 9.019531 36.652344 C 10.085938 35.90625 10.34375 34.441406 9.597656 33.375 C 8.851562 32.308594 7.386719 32.050781 6.320312 32.796875 C 5.257812 33.542969 5 35.011719 5.742188 36.074219 C 6.488281 37.140625 7.957031 37.398438 9.019531 36.652344 "/>
<path fill-rule="nonzero" fill="rgb(100%, 100%, 100%)" fill-opacity="1" d="M 20.222656 20.773438 L 20.222656 18.503906 L 20.609375 18.503906 L 20.039062 17.644531 L 19.472656 18.503906 L 19.855469 18.503906 L 19.855469 20.773438 L 20.222656 20.773438 "/>
<path fill-rule="nonzero" fill="rgb(100%, 100%, 100%)" fill-opacity="1" d="M 19.0625 21.105469 L 17.457031 19.496094 L 17.730469 19.222656 L 16.722656 19.019531 L 16.925781 20.027344 L 17.199219 19.753906 L 18.804688 21.363281 L 19.0625 21.105469 "/>
<path fill-rule="nonzero" fill="rgb(100%, 100%, 100%)" fill-opacity="1" d="M 18.476562 22.15625 L 16.203125 22.15625 L 16.203125 21.769531 L 15.347656 22.339844 L 16.203125 22.90625 L 16.203125 22.523438 L 18.476562 22.523438 L 18.476562 22.15625 "/>
<path fill-rule="nonzero" fill="rgb(100%, 100%, 100%)" fill-opacity="1" d="M 19.855469 23.902344 L 19.855469 26.175781 L 19.472656 26.175781 L 20.039062 27.03125 L 20.609375 26.175781 L 20.222656 26.175781 L 20.222656 23.902344 L 19.855469 23.902344 "/>
<path fill-rule="nonzero" fill="rgb(100%, 100%, 100%)" fill-opacity="1" d="M 21.015625 23.574219 L 22.625 25.179688 L 22.351562 25.453125 L 23.359375 25.65625 L 23.15625 24.648438 L 22.882812 24.921875 L 21.273438 23.3125 L 21.015625 23.574219 "/>
<path fill-rule="nonzero" fill="rgb(100%, 100%, 100%)" fill-opacity="1" d="M 21.601562 22.523438 L 23.875 22.523438 L 23.875 22.90625 L 24.734375 22.339844 L 23.875 21.769531 L 23.875 22.15625 L 21.601562 22.15625 L 21.601562 22.523438 "/>
<path fill-rule="nonzero" fill="rgb(100%, 100%, 100%)" fill-opacity="1" d="M 21.273438 21.363281 L 22.882812 19.753906 L 23.15625 20.027344 L 23.359375 19.019531 L 22.351562 19.222656 L 22.625 19.496094 L 21.015625 21.105469 L 21.273438 21.363281 "/>
<path fill-rule="nonzero" fill="rgb(100%, 100%, 100%)" fill-opacity="1" d="M 21.429688 24.242188 C 22.496094 23.496094 22.753906 22.03125 22.007812 20.964844 C 21.261719 19.902344 19.796875 19.644531 18.730469 20.386719 C 17.667969 21.132812 17.40625 22.601562 18.152344 23.664062 C 18.898438 24.730469 20.367188 24.988281 21.429688 24.242188 "/>
<path fill-rule="nonzero" fill="rgb(100%, 100%, 100%)" fill-opacity="1" d="M 20.222656 33.183594 L 20.222656 30.910156 L 20.609375 30.910156 L 20.039062 30.054688 L 19.472656 30.910156 L 19.855469 30.910156 L 19.855469 33.183594 L 20.222656 33.183594 "/>
<path fill-rule="nonzero" fill="rgb(100%, 100%, 100%)" fill-opacity="1" d="M 18.476562 34.566406 L 16.203125 34.566406 L 16.203125 34.179688 L 15.347656 34.75 L 16.203125 35.316406 L 16.203125 34.933594 L 18.476562 34.933594 L 18.476562 34.566406 "/>
<path fill-rule="nonzero" fill="rgb(100%, 100%, 100%)" fill-opacity="1" d="M 18.804688 35.722656 L 17.199219 37.332031 L 16.925781 37.058594 L 16.722656 38.066406 L 17.730469 37.863281 L 17.457031 37.589844 L 19.0625 35.984375 L 18.804688 35.722656 "/>
<path fill-rule="nonzero" fill="rgb(100%, 100%, 100%)" fill-opacity="1" d="M 19.855469 36.3125 L 19.855469 38.582031 L 19.472656 38.582031 L 20.039062 39.441406 L 20.609375 38.582031 L 20.222656 38.582031 L 20.222656 36.3125 L 19.855469 36.3125 "/>
<path fill-rule="nonzero" fill="rgb(100%, 100%, 100%)" fill-opacity="1" d="M 21.015625 35.984375 L 22.625 37.589844 L 22.351562 37.863281 L 23.359375 38.066406 L 23.15625 37.058594 L 22.882812 37.332031 L 21.273438 35.722656 L 21.015625 35.984375 "/>
<path fill-rule="nonzero" fill="rgb(100%, 100%, 100%)" fill-opacity="1" d="M 21.601562 34.933594 L 23.875 34.933594 L 23.875 35.316406 L 24.734375 34.75 L 23.875 34.179688 L 23.875 34.566406 L 21.601562 34.566406 L 21.601562 34.933594 "/>
<path fill-rule="nonzero" fill="rgb(100%, 100%, 100%)" fill-opacity="1" d="M 21.273438 33.773438 L 22.882812 32.164062 L 23.15625 32.4375 L 23.359375 31.429688 L 22.351562 31.632812 L 22.625 31.90625 L 21.015625 33.511719 L 21.273438 33.773438 "/>
<path fill-rule="nonzero" fill="rgb(100%, 100%, 100%)" fill-opacity="1" d="M 21.429688 36.652344 C 22.496094 35.90625 22.753906 34.441406 22.007812 33.375 C 21.261719 32.308594 19.796875 32.050781 18.730469 32.796875 C 17.667969 33.542969 17.40625 35.011719 18.152344 36.074219 C 18.898438 37.140625 20.367188 37.398438 21.429688 36.652344 "/>
<path fill="none" stroke-width="10" stroke-linecap="butt" stroke-linejoin="miter" stroke="rgb(100%, 100%, 100%)" stroke-opacity="1" stroke-miterlimit="4" d="M 90.271132 183.342265 L 193.620415 80.032855 " transform="matrix(0.0979688, 0, 0, -0.0979688, 0, 41.543844)"/>
<path fill="none" stroke-width="10" stroke-linecap="butt" stroke-linejoin="miter" stroke="rgb(100%, 100%, 100%)" stroke-opacity="1" stroke-miterlimit="4" d="M 88.397129 80.032855 L 195.055821 186.691547 " transform="matrix(0.0979688, 0, 0, -0.0979688, 0, 41.543844)"/>
</svg>
