<?xml version="1.0" encoding="UTF-8"?>
<svg xmlns="http://www.w3.org/2000/svg" xmlns:xlink="http://www.w3.org/1999/xlink" width="22.97" height="44.61" viewBox="0 0 22.97 44.61">
<defs>
<clipPath id="clip-0">
<path clip-rule="nonzero" d="M 0.0859375 4 L 19 4 L 19 44.222656 L 0.0859375 44.222656 Z M 0.0859375 4 "/>
</clipPath>
<clipPath id="clip-1">
<path clip-rule="nonzero" d="M 0.0859375 0 L 22.855469 0 L 22.855469 5 L 0.0859375 5 Z M 0.0859375 0 "/>
</clipPath>
<clipPath id="clip-2">
<path clip-rule="nonzero" d="M 0.0859375 0 L 22.855469 0 L 22.855469 7 L 0.0859375 7 Z M 0.0859375 0 "/>
</clipPath>
<clipPath id="clip-3">
<path clip-rule="nonzero" d="M 18 0 L 22.855469 0 L 22.855469 44.222656 L 18 44.222656 Z M 18 0 "/>
</clipPath>
<clipPath id="clip-4">
<path clip-rule="nonzero" d="M 16 0 L 22.855469 0 L 22.855469 44.222656 L 16 44.222656 Z M 16 0 "/>
</clipPath>
<clipPath id="clip-5">
<path clip-rule="nonzero" d="M 0.0859375 33 L 16 33 L 16 43 L 0.0859375 43 Z M 0.0859375 33 "/>
</clipPath>
</defs>
<g clip-path="url(#clip-0)">
<path fill-rule="nonzero" fill="rgb(1.176453%, 41.175842%, 59.605408%)" fill-opacity="1" stroke-width="3.99994" stroke-linecap="butt" stroke-linejoin="miter" stroke="rgb(100%, 100%, 100%)" stroke-opacity="1" stroke-miterlimit="4" d="M 1.98302 2.016905 L 183.123214 2.016905 L 183.123214 402.006922 L 1.98302 402.006922 Z M 1.98302 2.016905 " transform="matrix(0.0991333, 0, 0, -0.0991333, 0.0846667, 44.22338)"/>
</g>
<g clip-path="url(#clip-1)">
<path fill-rule="nonzero" fill="rgb(1.176453%, 41.175842%, 59.605408%)" fill-opacity="1" d="M 0.28125 4.371094 L 4.402344 0.457031 L 22.359375 0.457031 L 18.242188 4.371094 L 0.28125 4.371094 "/>
</g>
<g clip-path="url(#clip-2)">
<path fill="none" stroke-width="3.99994" stroke-linecap="butt" stroke-linejoin="miter" stroke="rgb(100%, 100%, 100%)" stroke-opacity="1" stroke-miterlimit="4" d="M 1.98302 402.006922 L 43.554241 441.489732 L 224.694435 441.489732 L 183.162618 402.006922 L 1.98302 402.006922 " transform="matrix(0.0991333, 0, 0, -0.0991333, 0.0846667, 44.22338)"/>
</g>
<g clip-path="url(#clip-3)">
<path fill-rule="nonzero" fill="rgb(1.176453%, 41.175842%, 59.605408%)" fill-opacity="1" d="M 18.242188 44.023438 L 22.359375 40.113281 L 22.359375 0.457031 L 18.242188 4.371094 L 18.242188 44.023438 "/>
</g>
<g clip-path="url(#clip-4)">
<path fill="none" stroke-width="3.99994" stroke-linecap="butt" stroke-linejoin="miter" stroke="rgb(100%, 100%, 100%)" stroke-opacity="1" stroke-miterlimit="4" d="M 183.162618 2.016905 L 224.694435 41.46031 L 224.694435 441.489732 L 183.162618 402.006922 L 183.162618 2.016905 " transform="matrix(0.0991333, 0, 0, -0.0991333, 0.0846667, 44.22338)"/>
</g>
<path fill-rule="nonzero" fill="rgb(100%, 100%, 100%)" fill-opacity="1" d="M 6.875 32.640625 C 6.878906 32.523438 6.925781 31.753906 7.738281 30.496094 C 7.90625 30.238281 8.113281 30.019531 8.324219 29.832031 L 6.179688 31.769531 C 5.96875 31.960938 5.761719 32.175781 5.589844 32.4375 C 4.769531 33.664062 4.816406 34.28125 4.765625 34.472656 L 6.875 32.640625 "/>
<path fill="none" stroke-width="1.41006" stroke-linecap="butt" stroke-linejoin="miter" stroke="rgb(1.176453%, 41.175842%, 59.605408%)" stroke-opacity="1" stroke-miterlimit="4" d="M 68.496974 116.840165 C 68.536378 118.022285 69.009226 125.784873 77.205258 138.472961 C 78.89963 141.073626 80.988042 143.28025 83.115858 145.171642 L 61.483062 125.627257 C 59.355245 123.696461 57.266833 121.529241 55.533057 118.889173 C 47.258217 106.516316 47.731065 100.290484 47.218813 98.359688 Z M 68.496974 116.840165 " transform="matrix(0.0991333, 0, 0, -0.0991333, 0.0846667, 44.22338)"/>
<path fill-rule="nonzero" fill="rgb(100%, 100%, 100%)" fill-opacity="1" d="M 13.582031 31.414062 C 12.632812 30.339844 11.394531 29.007812 8.621094 29.59375 C 8.519531 29.667969 8.421875 29.742188 8.324219 29.832031 L 6.179688 31.769531 C 7.195312 30.851562 9.792969 30.101562 11.8125 33.039062 L 10.449219 34.203125 L 13.644531 34.492188 L 14.769531 30.398438 L 13.582031 31.414062 "/>
<path fill="none" stroke-width="1.41006" stroke-linecap="butt" stroke-linejoin="miter" stroke="rgb(1.176453%, 41.175842%, 59.605408%)" stroke-opacity="1" stroke-miterlimit="4" d="M 136.153644 129.213021 C 126.578472 140.049122 114.087403 153.485886 86.110562 147.575286 C 85.086058 146.82661 84.100958 146.077934 83.115858 145.171642 L 61.483062 125.627257 C 71.728102 134.887197 97.931763 142.452766 118.303631 112.820957 L 104.551635 101.078564 L 136.784108 98.162668 L 148.13246 139.458062 Z M 136.153644 129.213021 " transform="matrix(0.0991333, 0, 0, -0.0991333, 0.0846667, 44.22338)"/>
<path fill-rule="nonzero" fill="rgb(100%, 100%, 100%)" fill-opacity="1" d="M 14.789062 33.925781 L 12.644531 35.894531 C 12.605469 36.03125 13.019531 37.375 11.960938 39.394531 C 10.363281 39.867188 8.34375 39.089844 7.085938 35.867188 L 8.308594 34.777344 L 5.734375 34.027344 L 4.203125 38.4375 L 5.511719 37.175781 C 6.003906 38.066406 6.550781 38.820312 7.132812 39.410156 L 5.0625 39.410156 L 5.910156 38.628906 L 1.140625 40.082031 L 3.039062 41.332031 L 3.542969 40.832031 L 9.902344 40.832031 L 9.894531 40.816406 C 10.269531 40.824219 10.640625 40.753906 11.003906 40.597656 C 11.027344 40.582031 11.054688 40.5625 11.191406 40.433594 C 11.167969 40.457031 11.144531 40.484375 11.121094 40.507812 C 11.121094 40.507812 13.125 39.023438 13.40625 38.726562 C 14.257812 37.839844 14.972656 36.632812 14.789062 33.925781 "/>
<g clip-path="url(#clip-5)">
<path fill="none" stroke-width="1.41006" stroke-linecap="butt" stroke-linejoin="miter" stroke="rgb(1.176453%, 41.175842%, 59.605408%)" stroke-opacity="1" stroke-miterlimit="4" d="M 148.32948 103.876248 L 126.696684 84.016632 C 126.302644 82.637492 130.479468 69.082515 119.800984 48.710646 C 103.684747 43.942762 83.312878 51.784159 70.62479 84.29246 L 82.958242 95.286176 L 56.991005 102.851744 L 41.544637 58.364627 L 54.744977 71.092119 C 59.709881 62.108007 65.226442 54.503035 71.097638 48.55303 L 50.213517 48.55303 L 58.764185 56.433831 L 10.6519 41.775542 L 29.802244 29.166262 L 34.885361 34.209974 L 99.035075 34.209974 L 98.956267 34.36759 C 102.739051 34.288782 106.482431 34.998054 110.147003 36.574214 C 110.383427 36.73183 110.659255 36.92885 112.038395 38.229182 C 111.801971 37.992758 111.565547 37.71693 111.329123 37.480506 C 111.329123 37.480506 131.543376 52.454027 134.380464 55.448731 C 142.970536 64.393439 150.181469 76.569275 148.32948 103.876248 Z M 148.32948 103.876248 " transform="matrix(0.0991333, 0, 0, -0.0991333, 0.0846667, 44.22338)"/>
</g>
<path fill-rule="nonzero" fill="rgb(100%, 100%, 100%)" fill-opacity="1" d="M 8.507812 26.839844 L 10.214844 25.296875 C 8.53125 25.273438 7.679688 25.332031 6.570312 25.429688 C 6.039062 27.4375 5.582031 28.628906 5.042969 29.972656 L 6.828125 28.355469 C 8.105469 29.539062 9.675781 29.832031 11.003906 29.222656 C 11.042969 29.1875 11.085938 29.160156 11.121094 29.125 L 13.265625 27.1875 C 11.894531 28.425781 9.960938 28.304688 8.507812 26.839844 "/>
<path fill="none" stroke-width="1.41006" stroke-linecap="butt" stroke-linejoin="miter" stroke="rgb(1.176453%, 41.175842%, 59.605408%)" stroke-opacity="1" stroke-miterlimit="4" d="M 84.967846 175.355107 L 102.187395 190.919687 C 85.20427 191.156111 76.614198 190.565051 65.423462 189.579951 C 60.064517 169.326295 55.454249 157.308074 50.016497 143.753098 L 68.024126 160.066354 C 80.909234 148.126942 96.749643 145.171642 110.147003 151.318666 C 110.541043 151.673302 110.974487 151.94913 111.329123 152.303766 L 132.96192 171.848151 C 119.131116 159.357082 99.626135 160.578606 84.967846 175.355107 Z M 84.967846 175.355107 " transform="matrix(0.0991333, 0, 0, -0.0991333, 0.0846667, 44.22338)"/>
<path fill-rule="nonzero" fill="rgb(100%, 100%, 100%)" fill-opacity="1" d="M 6.996094 24.089844 C 6.550781 22.363281 6.785156 20.460938 7.738281 19.117188 C 7.917969 18.863281 8.113281 18.640625 8.324219 18.453125 L 6.179688 20.390625 C 5.96875 20.582031 5.769531 20.804688 5.589844 21.058594 C 4.648438 22.390625 4.410156 24.269531 4.839844 25.984375 L 6.996094 24.089844 "/>
<path fill="none" stroke-width="1.41006" stroke-linecap="butt" stroke-linejoin="miter" stroke="rgb(1.176453%, 41.175842%, 59.605408%)" stroke-opacity="1" stroke-miterlimit="4" d="M 69.718498 203.095524 C 65.226442 220.512092 67.590682 239.701841 77.205258 253.256817 C 79.017842 255.818078 80.988042 258.064106 83.115858 259.955498 L 61.483062 240.411113 C 59.355245 238.480317 57.345641 236.234289 55.533057 233.673029 C 46.036693 220.236264 43.633049 201.28294 47.967489 183.984583 Z M 69.718498 203.095524 " transform="matrix(0.0991333, 0, 0, -0.0991333, 0.0846667, 44.22338)"/>
<path fill-rule="nonzero" fill="rgb(100%, 100%, 100%)" fill-opacity="1" d="M 11.230469 18.402344 C 10.371094 18.003906 9.460938 17.9375 8.621094 18.210938 C 8.519531 18.285156 8.421875 18.367188 8.324219 18.453125 L 6.179688 20.390625 C 7.160156 19.503906 8.4375 19.3125 9.613281 19.816406 L 8.433594 20.855469 L 12.082031 20.761719 L 12.710938 17.105469 L 11.230469 18.402344 "/>
<path fill="none" stroke-width="1.41006" stroke-linecap="butt" stroke-linejoin="miter" stroke="rgb(1.176453%, 41.175842%, 59.605408%)" stroke-opacity="1" stroke-miterlimit="4" d="M 112.432435 260.46775 C 103.763555 264.486958 94.582423 265.156826 86.110562 262.398546 C 85.086058 261.64987 84.100958 260.822386 83.115858 259.955498 L 61.483062 240.411113 C 71.373466 249.355821 84.258574 251.286617 96.119179 246.203501 L 84.21917 235.722037 L 121.022508 236.667733 L 127.366552 273.549878 Z M 112.432435 260.46775 " transform="matrix(0.0991333, 0, 0, -0.0991333, 0.0846667, 44.22338)"/>
<path fill-rule="nonzero" fill="rgb(100%, 100%, 100%)" fill-opacity="1" d="M 13.96875 19.703125 C 15.316406 22.410156 14.816406 25.113281 13.855469 26.523438 C 13.671875 26.773438 13.476562 26.996094 13.265625 27.1875 L 11.121094 29.125 C 11.332031 28.9375 11.527344 28.714844 11.707031 28.460938 C 13.457031 25.886719 12.429688 23.320312 11.882812 21.628906 L 13.96875 19.703125 "/>
<path fill="none" stroke-width="1.41006" stroke-linecap="butt" stroke-linejoin="miter" stroke="rgb(1.176453%, 41.175842%, 59.605408%)" stroke-opacity="1" stroke-miterlimit="4" d="M 140.05464 247.346217 C 153.649021 220.039244 148.605309 192.771675 138.911924 178.546831 C 137.059936 176.024975 135.089736 173.778947 132.96192 171.848151 L 111.329123 152.303766 C 113.456939 154.195158 115.427139 156.441186 117.239723 159.002446 C 134.892716 184.969683 124.529464 210.858112 119.012903 227.920045 Z M 140.05464 247.346217 " transform="matrix(0.0991333, 0, 0, -0.0991333, 0.0846667, 44.22338)"/>
<path fill-rule="nonzero" fill="rgb(100%, 100%, 100%)" fill-opacity="1" d="M 11.003906 17.742188 C 11.042969 17.710938 11.085938 17.683594 11.121094 17.648438 L 13.265625 15.707031 C 11.851562 16.984375 9.835938 16.824219 8.371094 15.222656 L 6.683594 16.742188 C 7.984375 18.039062 9.625 18.378906 11.003906 17.742188 "/>
<path fill="none" stroke-width="1.41006" stroke-linecap="butt" stroke-linejoin="miter" stroke="rgb(1.176453%, 41.175842%, 59.605408%)" stroke-opacity="1" stroke-miterlimit="4" d="M 110.147003 267.127026 C 110.541043 267.442258 110.974487 267.718086 111.329123 268.072722 L 132.96192 287.656511 C 118.697671 274.771402 98.365207 276.386966 83.588706 292.542607 L 66.566178 277.21445 C 79.68771 264.132322 96.237391 260.704174 110.147003 267.127026 Z M 110.147003 267.127026 " transform="matrix(0.0991333, 0, 0, -0.0991333, 0.0846667, 44.22338)"/>
<path fill-rule="nonzero" fill="rgb(100%, 100%, 100%)" fill-opacity="1" stroke-width="1.41006" stroke-linecap="butt" stroke-linejoin="miter" stroke="rgb(1.176453%, 41.175842%, 59.605408%)" stroke-opacity="1" stroke-miterlimit="4" d="M 85.00725 332.616476 L 69.718498 318.825076 C 65.226442 336.241644 67.590682 355.470797 77.205258 369.025773 C 79.017842 371.587033 80.988042 373.833062 83.115858 375.763858 L 61.483062 356.180069 C 59.355245 354.288677 57.345641 352.042649 55.533057 349.481389 C 45.918481 335.887008 43.593645 316.69726 48.085701 299.280691 L 32.796949 285.449887 C 43.436029 285.331675 53.523453 285.331675 69.44267 286.750219 C 73.58009 301.920759 77.284066 313.741959 85.00725 332.616476 " transform="matrix(0.0991333, 0, 0, -0.0991333, 0.0846667, 44.22338)"/>
<path fill-rule="nonzero" fill="rgb(100%, 100%, 100%)" fill-opacity="1" stroke-width="1.41006" stroke-linecap="butt" stroke-linejoin="miter" stroke="rgb(1.176453%, 41.175842%, 59.605408%)" stroke-opacity="1" stroke-miterlimit="4" d="M 161.569225 358.662521 L 146.319876 344.871121 C 150.890741 327.375744 148.565905 307.988975 138.911924 294.355191 C 137.059936 291.793931 135.089736 289.547903 132.96192 287.656511 L 111.329123 268.072722 C 113.456939 270.003518 115.427139 272.249546 117.239723 274.810806 C 126.933108 288.444591 129.21854 307.791955 124.647676 325.287332 L 109.358923 311.495931 C 114.836079 325.050908 119.406944 337.029724 124.805292 357.322785 C 135.996028 358.307885 144.5861 358.898945 161.569225 358.662521 " transform="matrix(0.0991333, 0, 0, -0.0991333, 0.0846667, 44.22338)"/>
<path fill-rule="nonzero" fill="rgb(100%, 100%, 100%)" fill-opacity="1" d="M 17.367188 6.601562 L 10.160156 6.601562 C 9.640625 6.527344 9.117188 6.574219 8.621094 6.734375 C 8.519531 6.808594 8.421875 6.886719 8.324219 6.972656 L 6.179688 8.914062 C 7.597656 7.632812 9.628906 7.800781 11.097656 9.425781 L 12.558594 8.101562 L 15.789062 8.101562 L 17.367188 6.601562 "/>
<path fill="none" stroke-width="1.41006" stroke-linecap="butt" stroke-linejoin="miter" stroke="rgb(1.176453%, 41.175842%, 59.605408%)" stroke-opacity="1" stroke-miterlimit="4" d="M 174.336121 379.507238 L 101.635739 379.507238 C 96.395007 380.255914 91.114871 379.783066 86.110562 378.167502 C 85.086058 377.418826 84.100958 376.630746 83.115858 375.763858 L 61.483062 356.180069 C 75.786714 369.104581 96.276795 367.410209 111.092699 351.018145 L 125.829796 364.376101 L 158.416905 364.376101 Z M 174.336121 379.507238 " transform="matrix(0.0991333, 0, 0, -0.0991333, 0.0846667, 44.22338)"/>
</svg>
