<?xml version="1.0" encoding="UTF-8"?>
<svg xmlns="http://www.w3.org/2000/svg" xmlns:xlink="http://www.w3.org/1999/xlink" width="44.31" height="23.67" viewBox="0 0 44.31 23.67">
<defs>
<clipPath id="clip-0">
<path clip-rule="nonzero" d="M 0 6 L 36 6 L 36 23.324219 L 0 23.324219 Z M 0 6 "/>
</clipPath>
<clipPath id="clip-1">
<path clip-rule="nonzero" d="M 0 0.0195312 L 43.324219 0.0195312 L 43.324219 8 L 0 8 Z M 0 0.0195312 "/>
</clipPath>
<clipPath id="clip-2">
<path clip-rule="nonzero" d="M 0 0.0195312 L 43.324219 0.0195312 L 43.324219 10 L 0 10 Z M 0 0.0195312 "/>
</clipPath>
<clipPath id="clip-3">
<path clip-rule="nonzero" d="M 35 0.0195312 L 43.324219 0.0195312 L 43.324219 23 L 35 23 Z M 35 0.0195312 "/>
</clipPath>
<clipPath id="clip-4">
<path clip-rule="nonzero" d="M 33 0.0195312 L 43.324219 0.0195312 L 43.324219 23.324219 L 33 23.324219 Z M 33 0.0195312 "/>
</clipPath>
</defs>
<path fill-rule="nonzero" fill="rgb(1.176453%, 41.175842%, 59.605408%)" fill-opacity="1" d="M 0.601562 22.8125 L 35.785156 22.8125 L 35.785156 7.125 L 0.601562 7.125 Z M 0.601562 22.8125 "/>
<g clip-path="url(#clip-0)">
<path fill="none" stroke-width="3.99994" stroke-linecap="butt" stroke-linejoin="miter" stroke="rgb(100%, 100%, 100%)" stroke-opacity="1" stroke-miterlimit="4" d="M 6.109301 5.215572 L 6.109301 164.533446 L 363.424065 164.533446 L 363.424065 5.215572 Z M 6.109301 5.215572 " transform="matrix(0.0984667, 0, 0, -0.0984667, 0, 23.32606)"/>
</g>
<g clip-path="url(#clip-1)">
<path fill-rule="nonzero" fill="rgb(1.176453%, 41.175842%, 59.605408%)" fill-opacity="1" d="M 35.785156 7.125 L 0.582031 7.125 L 9.285156 0.488281 L 43.125 0.464844 L 35.785156 7.125 "/>
</g>
<g clip-path="url(#clip-2)">
<path fill="none" stroke-width="3.99994" stroke-linecap="butt" stroke-linejoin="miter" stroke="rgb(100%, 100%, 100%)" stroke-opacity="1" stroke-miterlimit="4" d="M 363.424065 164.533446 L 5.910947 164.533446 L 94.297457 231.934111 L 437.965471 232.172135 Z M 363.424065 164.533446 " transform="matrix(0.0984667, 0, 0, -0.0984667, 0, 23.32606)"/>
</g>
<g clip-path="url(#clip-3)">
<path fill-rule="nonzero" fill="rgb(1.176453%, 41.175842%, 59.605408%)" fill-opacity="1" d="M 43.125 0.464844 L 43.011719 15.734375 L 35.785156 22.855469 L 35.785156 7.125 L 43.125 0.464844 "/>
</g>
<g clip-path="url(#clip-4)">
<path fill="none" stroke-width="3.99994" stroke-linecap="butt" stroke-linejoin="miter" stroke="rgb(100%, 100%, 100%)" stroke-opacity="1" stroke-miterlimit="4" d="M 437.965471 232.172135 L 436.815018 77.099035 L 363.424065 4.779193 L 363.424065 164.533446 Z M 437.965471 232.172135 " transform="matrix(0.0984667, 0, 0, -0.0984667, 0, 23.32606)"/>
</g>
<path fill-rule="nonzero" fill="rgb(100%, 100%, 100%)" fill-opacity="1" stroke-width="3.50006" stroke-linecap="butt" stroke-linejoin="miter" stroke="rgb(1.176453%, 41.175842%, 59.605408%)" stroke-opacity="1" stroke-miterlimit="4" d="M 194.585202 102.845375 L 206.684792 102.885046 L 209.501418 100.06842 L 218.903394 100.06842 L 229.33681 107.685211 L 240.642984 107.724882 L 250.282985 97.05344 L 260.954426 97.05344 L 272.577966 107.804223 L 282.37665 107.804223 L 290.786857 98.640272 L 300.466528 98.640272 L 304.116241 105.62233 L 332.36184 88.405209 L 312.566118 71.743479 L 194.624873 71.505454 L 194.624873 67.697059 L 176.177958 67.657388 C 171.576147 67.657388 167.609068 64.920104 165.744541 60.953026 C 157.016969 47.187263 141.743716 38.023312 124.328241 38.023312 C 97.114083 37.94397 75.096797 60.119939 75.096797 87.492781 C 75.096797 114.825952 97.114083 137.041592 124.328241 137.081263 C 141.545362 137.120933 156.659931 128.234678 165.427175 114.786281 C 167.133019 110.501836 171.298451 107.486857 176.177958 107.486857 L 194.585202 107.486857 L 194.585202 102.845375 " transform="matrix(0.0984667, 0, 0, -0.0984667, 0, 23.32606)"/>
<path fill="none" stroke-width="3.50006" stroke-linecap="butt" stroke-linejoin="round" stroke="rgb(1.176453%, 41.175842%, 59.605408%)" stroke-opacity="1" stroke-miterlimit="4" d="M 321.333362 79.756978 L 194.624873 79.558624 C 189.626354 79.518953 182.683967 78.209817 176.257299 75.472533 C 182.683967 72.81459 189.626354 71.505454 194.624873 71.505454 " transform="matrix(0.0984667, 0, 0, -0.0984667, 0, 23.32606)"/>
<path fill="none" stroke-width="3.50006" stroke-linecap="butt" stroke-linejoin="round" stroke="rgb(1.176453%, 41.175842%, 59.605408%)" stroke-opacity="1" stroke-miterlimit="4" d="M 326.847601 91.301176 L 200.059771 91.102822 C 194.426519 91.102822 182.683967 92.213604 179.986353 93.324386 " transform="matrix(0.0984667, 0, 0, -0.0984667, 0, 23.32606)"/>
<path fill-rule="nonzero" fill="rgb(100%, 100%, 100%)" fill-opacity="1" d="M 12.242188 19.058594 C 14.628906 19.058594 16.566406 17.101562 16.566406 14.699219 C 16.566406 12.292969 14.628906 10.347656 12.242188 10.351562 C 9.851562 10.355469 7.914062 12.308594 7.914062 14.710938 C 7.914062 17.117188 9.851562 19.0625 12.242188 19.058594 "/>
<path fill="none" stroke-width="3.50006" stroke-linecap="butt" stroke-linejoin="round" stroke="rgb(1.176453%, 41.175842%, 59.605408%)" stroke-opacity="1" stroke-miterlimit="4" d="M 124.328241 43.339197 C 148.567091 43.339197 168.243801 63.21426 168.243801 87.611793 C 168.243801 112.048997 148.567091 131.805048 124.328241 131.765377 C 100.049721 131.725707 80.373011 111.890314 80.373011 87.492781 C 80.373011 63.055577 100.049721 43.299526 124.328241 43.339197 Z M 124.328241 43.339197 " transform="matrix(0.0984667, 0, 0, -0.0984667, 0, 23.32606)"/>
<path fill-rule="nonzero" fill="rgb(100%, 100%, 100%)" fill-opacity="1" d="M 9.761719 15.851562 C 10.386719 15.851562 10.898438 15.339844 10.898438 14.707031 C 10.898438 14.078125 10.386719 13.566406 9.761719 13.566406 C 9.132812 13.570312 8.628906 14.082031 8.628906 14.710938 C 8.628906 15.34375 9.132812 15.851562 9.761719 15.851562 "/>
<path fill="none" stroke-width="3.50006" stroke-linecap="butt" stroke-linejoin="round" stroke="rgb(1.176453%, 41.175842%, 59.605408%)" stroke-opacity="1" stroke-miterlimit="4" d="M 99.137293 75.908912 C 105.484618 75.908912 110.681491 81.105785 110.681491 87.532452 C 110.681491 93.919448 105.484618 99.116321 99.137293 99.116321 C 92.750296 99.07665 87.632765 93.879777 87.632765 87.492781 C 87.632765 81.066114 92.750296 75.908912 99.137293 75.908912 Z M 99.137293 75.908912 " transform="matrix(0.0984667, 0, 0, -0.0984667, 0, 23.32606)"/>
</svg>
