<?xml version="1.0" encoding="UTF-8"?>
<svg xmlns="http://www.w3.org/2000/svg" xmlns:xlink="http://www.w3.org/1999/xlink" width="39.4" height="32.02" viewBox="0 0 39.4 32.02">
<defs>
<clipPath id="clip-0">
<path clip-rule="nonzero" d="M 0.292969 5 L 34 5 L 34 31 L 0.292969 31 Z M 0.292969 5 "/>
</clipPath>
<clipPath id="clip-1">
<path clip-rule="nonzero" d="M 0.292969 5 L 35 5 L 35 31 L 0.292969 31 Z M 0.292969 5 "/>
</clipPath>
<clipPath id="clip-2">
<path clip-rule="nonzero" d="M 33 0 L 38.523438 0 L 38.523438 31 L 33 31 Z M 33 0 "/>
</clipPath>
<clipPath id="clip-3">
<path clip-rule="nonzero" d="M 31 0 L 38.523438 0 L 38.523438 31.070312 L 31 31.070312 Z M 31 0 "/>
</clipPath>
<clipPath id="clip-4">
<path clip-rule="nonzero" d="M 0.292969 0 L 38.523438 0 L 38.523438 6 L 0.292969 6 Z M 0.292969 0 "/>
</clipPath>
<clipPath id="clip-5">
<path clip-rule="nonzero" d="M 0.292969 0 L 38.523438 0 L 38.523438 8 L 0.292969 8 Z M 0.292969 0 "/>
</clipPath>
</defs>
<g clip-path="url(#clip-0)">
<path fill-rule="nonzero" fill="rgb(3.205872%, 49.034119%, 73.989868%)" fill-opacity="1" d="M 0.84375 30.441406 L 33.851562 30.441406 L 33.851562 5.703125 L 0.84375 5.703125 L 0.84375 30.441406 "/>
</g>
<g clip-path="url(#clip-1)">
<path fill="none" stroke-width="4" stroke-linecap="butt" stroke-linejoin="miter" stroke="rgb(100%, 100%, 100%)" stroke-opacity="1" stroke-miterlimit="4" d="M 5.66638 6.46908 L 345.846834 6.46908 L 345.846834 261.423259 L 5.66638 261.423259 Z M 5.66638 6.46908 " transform="matrix(0.0970303, 0, 0, -0.0970303, 0.293939, 31.069103)"/>
</g>
<g clip-path="url(#clip-2)">
<path fill-rule="nonzero" fill="rgb(3.205872%, 49.034119%, 73.989868%)" fill-opacity="1" d="M 38.109375 24.214844 L 33.851562 30.441406 L 33.851562 5.703125 L 38.109375 0.539062 L 38.109375 24.214844 "/>
</g>
<g clip-path="url(#clip-3)">
<path fill="none" stroke-width="4" stroke-linecap="butt" stroke-linejoin="miter" stroke="rgb(100%, 100%, 100%)" stroke-opacity="1" stroke-miterlimit="4" d="M 389.7281 70.640399 L 345.846834 6.46908 L 345.846834 261.423259 L 389.7281 314.64439 Z M 389.7281 70.640399 " transform="matrix(0.0970303, 0, 0, -0.0970303, 0.293939, 31.069103)"/>
</g>
<g clip-path="url(#clip-4)">
<path fill-rule="nonzero" fill="rgb(3.205872%, 49.034119%, 73.989868%)" fill-opacity="1" d="M 7.230469 0.539062 L 38.109375 0.539062 L 33.851562 5.703125 L 0.84375 5.703125 L 7.230469 0.539062 "/>
</g>
<g clip-path="url(#clip-5)">
<path fill="none" stroke-width="4" stroke-linecap="butt" stroke-linejoin="miter" stroke="rgb(100%, 100%, 100%)" stroke-opacity="1" stroke-miterlimit="4" d="M 71.488279 314.64439 L 389.7281 314.64439 L 345.846834 261.423259 L 5.66638 261.423259 Z M 71.488279 314.64439 " transform="matrix(0.0970303, 0, 0, -0.0970303, 0.293939, 31.069103)"/>
</g>
<path fill-rule="evenodd" fill="rgb(100%, 100%, 100%)" fill-opacity="1" d="M 31.972656 18.90625 L 4.03125 18.90625 L 4.03125 19.519531 L 2.074219 18.464844 L 4.03125 17.367188 L 4.03125 17.984375 L 31.953125 17.984375 L 31.972656 18.90625 "/>
<path fill-rule="nonzero" fill="rgb(100%, 100%, 100%)" fill-opacity="1" d="M 7.300781 9.675781 L 27.460938 9.675781 C 28.253906 9.675781 28.894531 10.316406 28.894531 11.109375 L 28.894531 26.296875 C 28.894531 27.089844 28.253906 27.730469 27.460938 27.730469 L 7.300781 27.730469 C 6.507812 27.730469 5.867188 27.089844 5.867188 26.296875 L 5.867188 11.109375 C 5.867188 10.316406 6.507812 9.675781 7.300781 9.675781 "/>
<path fill="none" stroke-width="3.2" stroke-linecap="butt" stroke-linejoin="miter" stroke="rgb(100%, 100%, 100%)" stroke-opacity="1" stroke-miterlimit="4" d="M 72.212924 220.48083 L 279.984678 220.48083 C 288.15706 220.48083 294.759379 213.878511 294.759379 205.706129 L 294.759379 49.182862 C 294.759379 41.01048 288.15706 34.408161 279.984678 34.408161 L 72.212924 34.408161 C 64.040541 34.408161 57.438222 41.01048 57.438222 49.182862 L 57.438222 205.706129 C 57.438222 213.878511 64.040541 220.48083 72.212924 220.48083 Z M 72.212924 220.48083 " transform="matrix(0.0970303, 0, 0, -0.0970303, 0.293939, 31.069103)"/>
<path fill-rule="nonzero" fill="rgb(47.04895%, 70.584106%, 86.065674%)" fill-opacity="1" d="M 17.128906 11.289062 L 6.996094 11.289062 L 6.996094 21.421875 L 17.128906 21.421875 L 17.128906 11.289062 "/>
<path fill="none" stroke-width="4.4" stroke-linecap="round" stroke-linejoin="round" stroke="rgb(100%, 100%, 100%)" stroke-opacity="1" stroke-miterlimit="4" d="M 87.068141 183.926528 L 155.54707 183.926528 " transform="matrix(0.0970303, 0, 0, -0.0970303, 0.293939, 31.069103)"/>
<path fill="none" stroke-width="4.4" stroke-linecap="round" stroke-linejoin="round" stroke="rgb(100%, 100%, 100%)" stroke-opacity="1" stroke-miterlimit="4" d="M 87.068141 170.359568 L 155.54707 170.359568 " transform="matrix(0.0970303, 0, 0, -0.0970303, 0.293939, 31.069103)"/>
<path fill="none" stroke-width="4.4" stroke-linecap="round" stroke-linejoin="round" stroke="rgb(100%, 100%, 100%)" stroke-opacity="1" stroke-miterlimit="4" d="M 87.068141 156.832866 L 155.54707 156.832866 " transform="matrix(0.0970303, 0, 0, -0.0970303, 0.293939, 31.069103)"/>
<path fill="none" stroke-width="4.4" stroke-linecap="round" stroke-linejoin="round" stroke="rgb(100%, 100%, 100%)" stroke-opacity="1" stroke-miterlimit="4" d="M 87.068141 143.306164 L 155.54707 143.306164 " transform="matrix(0.0970303, 0, 0, -0.0970303, 0.293939, 31.069103)"/>
<path fill="none" stroke-width="4.4" stroke-linecap="round" stroke-linejoin="round" stroke="rgb(100%, 100%, 100%)" stroke-opacity="1" stroke-miterlimit="4" d="M 87.068141 129.739204 L 155.54707 129.739204 " transform="matrix(0.0970303, 0, 0, -0.0970303, 0.293939, 31.069103)"/>
<path fill="none" stroke-width="4.4" stroke-linecap="round" stroke-linejoin="round" stroke="rgb(100%, 100%, 100%)" stroke-opacity="1" stroke-miterlimit="4" d="M 87.068141 116.212502 L 155.54707 116.212502 " transform="matrix(0.0970303, 0, 0, -0.0970303, 0.293939, 31.069103)"/>
<path fill-rule="nonzero" fill="rgb(47.04895%, 70.584106%, 86.065674%)" fill-opacity="1" d="M 27.78125 15.902344 L 16.636719 15.902344 L 16.636719 27.046875 L 27.78125 27.046875 L 27.78125 15.902344 "/>
<path fill="none" stroke-width="3.3" stroke-linecap="round" stroke-linejoin="round" stroke="rgb(100%, 100%, 100%)" stroke-opacity="1" stroke-miterlimit="4" d="M 283.285837 156.309512 L 168.429644 156.309512 L 168.429644 41.453318 L 283.285837 41.453318 Z M 283.285837 156.309512 " transform="matrix(0.0970303, 0, 0, -0.0970303, 0.293939, 31.069103)"/>
<path fill-rule="nonzero" fill="rgb(100%, 100%, 100%)" fill-opacity="1" d="M 22.808594 22.160156 C 23.519531 21.929688 24.039062 21.269531 24.039062 20.480469 C 24.039062 19.507812 23.242188 18.710938 22.265625 18.710938 C 21.285156 18.710938 20.492188 19.507812 20.492188 20.480469 C 20.492188 21.246094 20.976562 21.890625 21.648438 22.140625 C 20.890625 22.199219 20.078125 22.410156 19.253906 22.90625 L 19.253906 27.5 L 25.160156 27.5 L 25.160156 22.90625 C 25.160156 22.90625 24.191406 22.324219 22.808594 22.160156 "/>
<path fill-rule="evenodd" fill="rgb(100%, 100%, 100%)" fill-opacity="1" d="M 31.746094 22.40625 L 31.054688 22.40625 L 31.054688 21.789062 L 29.097656 22.886719 L 31.054688 23.941406 L 31.054688 23.328125 L 31.746094 23.328125 L 31.746094 28.589844 L 32.667969 28.589844 L 32.667969 22.40625 L 31.746094 22.40625 "/>
<path fill-rule="nonzero" fill="rgb(6.459045%, 5.915833%, 5.220032%)" fill-opacity="1" d="M 20.957031 22.925781 C 20.867188 23.035156 20.882812 23.195312 20.996094 23.285156 C 21.105469 23.371094 21.265625 23.355469 21.355469 23.246094 C 21.445312 23.136719 21.425781 22.976562 21.316406 22.886719 C 21.207031 22.796875 21.042969 22.8125 20.957031 22.925781 "/>
<path fill="none" stroke-width="2" stroke-linecap="butt" stroke-linejoin="round" stroke="rgb(13.729858%, 12.159729%, 12.548828%)" stroke-opacity="1" stroke-miterlimit="4" d="M 192.987049 96.687352 C 195.483048 92.701806 201.642528 87.226712 207.56046 83.925552 C 211.46549 81.71136 214.404327 80.946457 215.692585 81.51007 " transform="matrix(0.0970303, 0, 0, -0.0970303, 0.293939, 31.069103)"/>
<path fill-rule="nonzero" fill="rgb(6.459045%, 5.915833%, 5.220032%)" fill-opacity="1" d="M 19.582031 21.070312 C 19.582031 21.382812 19.328125 21.636719 19.011719 21.636719 C 18.699219 21.636719 18.445312 21.382812 18.445312 21.070312 C 18.445312 20.753906 18.699219 20.5 19.011719 20.5 C 19.328125 20.5 19.582031 20.753906 19.582031 21.070312 "/>
<path fill-rule="nonzero" fill="rgb(6.459045%, 5.915833%, 5.220032%)" fill-opacity="1" d="M 24.78125 21.070312 C 24.78125 21.382812 25.039062 21.636719 25.351562 21.636719 C 25.664062 21.636719 25.917969 21.382812 25.917969 21.070312 C 25.917969 20.753906 25.664062 20.5 25.351562 20.5 C 25.039062 20.5 24.78125 20.753906 24.78125 21.070312 "/>
<path fill-rule="nonzero" fill="rgb(13.729858%, 12.159729%, 12.548828%)" fill-opacity="1" stroke-width="0.6" stroke-linecap="butt" stroke-linejoin="miter" stroke="rgb(13.729858%, 12.159729%, 12.548828%)" stroke-opacity="1" stroke-miterlimit="4" d="M 225.435031 147.412484 C 225.435031 147.412484 261.42572 146.406033 261.42572 111.502311 L 261.42572 105.342831 L 257.52069 105.906443 L 259.131012 110.938698 C 258.808948 145.158034 225.435031 144.312615 225.435031 144.312615 L 225.716837 144.312615 C 225.716837 144.312615 194.275306 146.043711 192.181888 112.307472 L 193.671436 105.906443 L 189.726148 105.342831 L 189.726148 111.502311 C 189.726148 146.406033 225.716837 147.412484 225.716837 147.412484 " transform="matrix(0.0970303, 0, 0, -0.0970303, 0.293939, 31.069103)"/>
<path fill-rule="nonzero" fill="rgb(100%, 100%, 100%)" fill-opacity="1" d="M 16.023438 19.582031 C 15.847656 19.601562 15.691406 19.480469 15.671875 19.304688 C 15.652344 19.128906 15.777344 18.96875 15.953125 18.949219 C 16.128906 18.929688 16.285156 19.054688 16.304688 19.230469 C 16.324219 19.40625 16.199219 19.5625 16.023438 19.582031 "/>
<path fill="none" stroke-width="2.5" stroke-linecap="butt" stroke-linejoin="miter" stroke="rgb(13.729858%, 12.159729%, 12.548828%)" stroke-opacity="1" stroke-miterlimit="4" d="M 162.109131 118.386436 C 160.297519 118.185146 158.687197 119.433145 158.485907 121.244757 C 158.284617 123.056369 159.572874 124.706949 161.384486 124.908239 C 163.196098 125.109529 164.80642 123.821272 165.00771 122.00966 C 165.209 120.198048 163.920743 118.587726 162.109131 118.386436 Z M 162.109131 118.386436 " transform="matrix(0.0970303, 0, 0, -0.0970303, 0.293939, 31.069103)"/>
<path fill-rule="nonzero" fill="rgb(100%, 100%, 100%)" fill-opacity="1" d="M 16.21875 18.898438 L 15.671875 19.574219 L 13.71875 17.984375 L 14.265625 17.308594 L 16.21875 18.898438 "/>
<path fill="none" stroke-width="2.5" stroke-linecap="butt" stroke-linejoin="miter" stroke="rgb(13.729858%, 12.159729%, 12.548828%)" stroke-opacity="1" stroke-miterlimit="4" d="M 164.122033 125.431594 L 158.485907 118.466952 L 138.356886 134.851975 L 143.993012 141.816617 Z M 164.122033 125.431594 " transform="matrix(0.0970303, 0, 0, -0.0970303, 0.293939, 31.069103)"/>
<path fill-rule="nonzero" fill="rgb(100%, 100%, 100%)" fill-opacity="1" d="M 8.863281 15.859375 C 9.023438 14.46875 10.28125 13.46875 11.671875 13.628906 C 13.058594 13.785156 14.058594 15.046875 13.902344 16.433594 C 13.742188 17.824219 12.484375 18.824219 11.09375 18.664062 C 9.707031 18.503906 8.703125 17.246094 8.863281 15.859375 Z M 8.457031 15.808594 C 8.269531 17.425781 9.429688 18.890625 11.046875 19.074219 C 12.664062 19.257812 14.128906 18.09375 14.3125 16.480469 C 14.496094 14.867188 13.332031 13.402344 11.71875 13.21875 C 10.101562 13.035156 8.640625 14.195312 8.457031 15.808594 "/>
<path fill="none" stroke-width="2.5" stroke-linecap="butt" stroke-linejoin="miter" stroke="rgb(13.729858%, 12.159729%, 12.548828%)" stroke-opacity="1" stroke-miterlimit="4" d="M 88.31614 156.75235 C 89.96672 171.084213 102.929809 181.390272 117.261672 179.739692 C 131.553277 178.12937 141.859336 165.126023 140.249014 150.834418 C 138.598435 136.502555 125.635345 126.196496 111.303482 127.847076 C 97.011877 129.497656 86.665561 142.460745 88.31614 156.75235 Z M 84.129304 157.275705 C 82.196918 140.608875 94.153556 125.51211 110.820386 123.619982 C 127.487215 121.727854 142.583981 133.72475 144.476109 150.351321 C 146.368237 166.977893 134.37134 182.074658 117.744769 183.966786 C 101.07794 185.858914 86.021432 173.902276 84.129304 157.275705 Z M 84.129304 157.275705 " transform="matrix(0.0970303, 0, 0, -0.0970303, 0.293939, 31.069103)"/>
<path fill-rule="nonzero" fill="rgb(100%, 100%, 100%)" fill-opacity="1" d="M 9.199219 15.597656 C 9.359375 14.207031 10.617188 13.207031 12.007812 13.367188 C 13.394531 13.527344 14.398438 14.785156 14.238281 16.175781 C 14.078125 17.5625 12.820312 18.5625 11.429688 18.402344 C 10.042969 18.246094 9.042969 16.988281 9.199219 15.597656 Z M 8.789062 15.550781 C 8.605469 17.164062 9.769531 18.628906 11.382812 18.8125 C 12.996094 19 14.460938 17.835938 14.648438 16.21875 C 14.832031 14.605469 13.667969 13.140625 12.054688 12.957031 C 10.441406 12.773438 8.972656 13.9375 8.789062 15.550781 "/>
<path fill="none" stroke-width="2.5" stroke-linecap="butt" stroke-linejoin="miter" stroke="rgb(13.729858%, 12.159729%, 12.548828%)" stroke-opacity="1" stroke-miterlimit="4" d="M 91.778332 159.449639 C 93.428912 173.781502 106.392001 184.087561 120.723864 182.436981 C 135.015469 180.786401 145.361786 167.823312 143.711206 153.491449 C 142.060626 139.199844 129.097537 128.893785 114.765674 130.544365 C 100.474069 132.154687 90.16801 145.117776 91.778332 159.449639 Z M 87.551238 159.932735 C 85.65911 143.306164 97.656006 128.209398 114.282577 126.31727 C 130.909149 124.384884 146.005914 136.381781 147.9383 153.04861 C 149.830428 169.675182 137.833532 184.771947 121.20696 186.664075 C 104.580389 188.556203 89.443365 176.559307 87.551238 159.932735 Z M 87.551238 159.932735 " transform="matrix(0.0970303, 0, 0, -0.0970303, 0.293939, 31.069103)"/>
<path fill-rule="evenodd" fill="rgb(47.04895%, 70.584106%, 86.065674%)" fill-opacity="1" d="M 11.378906 11.273438 L 11.378906 8.539062 L 10.765625 8.539062 L 11.816406 6.582031 L 12.917969 8.539062 L 12.300781 8.539062 L 12.300781 11.253906 L 11.378906 11.273438 "/>
</svg>
