<?xml version="1.0" encoding="UTF-8"?>
<svg xmlns="http://www.w3.org/2000/svg" xmlns:xlink="http://www.w3.org/1999/xlink" width="82.28" height="47.86" viewBox="0 0 82.28 47.86">
<defs>
<clipPath id="clip-0">
<path clip-rule="nonzero" d="M 0 0.136719 L 81.289062 0.136719 L 81.289062 47.582031 L 0 47.582031 Z M 0 0.136719 "/>
</clipPath>
</defs>
<path fill-rule="nonzero" fill="rgb(1.176453%, 41.175842%, 59.605408%)" fill-opacity="1" d="M 50.691406 34.4375 L 48.859375 37.054688 L 32.933594 37.054688 L 35.5625 34.4375 L 50.691406 34.4375 "/>
<path fill="none" stroke-width="3.99994" stroke-linecap="butt" stroke-linejoin="miter" stroke="rgb(100%, 100%, 100%)" stroke-opacity="1" stroke-miterlimit="4" d="M 511.349869 132.60553 L 492.869242 106.204635 L 332.217827 106.204635 L 358.736935 132.60553 Z M 511.349869 132.60553 " transform="matrix(0.0991325, 0, 0, -0.0991325, 0, 47.583022)"/>
<path fill-rule="nonzero" fill="rgb(1.176453%, 41.175842%, 59.605408%)" fill-opacity="1" d="M 32.933594 39.902344 L 48.136719 39.902344 L 48.136719 37.054688 L 32.933594 37.054688 Z M 32.933594 39.902344 "/>
<path fill="none" stroke-width="3.99994" stroke-linecap="butt" stroke-linejoin="miter" stroke="rgb(100%, 100%, 100%)" stroke-opacity="1" stroke-miterlimit="4" d="M 332.217827 77.478885 L 332.217827 106.204635 L 485.579443 106.204635 L 485.579443 77.478885 Z M 332.217827 77.478885 " transform="matrix(0.0991325, 0, 0, -0.0991325, 0, 47.583022)"/>
<path fill-rule="nonzero" fill="rgb(1.176453%, 41.175842%, 59.605408%)" fill-opacity="1" d="M 47.683594 43.585938 L 47.683594 42.675781 L 49.671875 39.917969 L 49.671875 41.597656 L 47.683594 43.585938 "/>
<path fill="none" stroke-width="3.99994" stroke-linecap="butt" stroke-linejoin="miter" stroke="rgb(100%, 100%, 100%)" stroke-opacity="1" stroke-miterlimit="4" d="M 481.008542 40.320611 L 481.008542 49.501818 L 501.065341 77.321268 L 501.065341 60.37741 Z M 481.008542 40.320611 " transform="matrix(0.0991325, 0, 0, -0.0991325, 0, 47.583022)"/>
<path fill-rule="nonzero" fill="rgb(1.176453%, 41.175842%, 59.605408%)" fill-opacity="1" d="M 30.207031 43.585938 L 47.683594 43.585938 L 47.683594 42.675781 L 30.207031 42.675781 Z M 30.207031 43.585938 "/>
<path fill="none" stroke-width="3.99994" stroke-linecap="butt" stroke-linejoin="miter" stroke="rgb(100%, 100%, 100%)" stroke-opacity="1" stroke-miterlimit="4" d="M 481.008542 49.501818 L 481.008542 40.320611 L 304.713611 40.320611 L 304.713611 49.501818 Z M 481.008542 49.501818 " transform="matrix(0.0991325, 0, 0, -0.0991325, 0, 47.583022)"/>
<path fill-rule="nonzero" fill="rgb(1.176453%, 41.175842%, 59.605408%)" fill-opacity="1" d="M 32.933594 36.429688 L 48.035156 36.429688 L 48.035156 25 L 32.933594 25 Z M 32.933594 36.429688 "/>
<path fill="none" stroke-width="3.99994" stroke-linecap="butt" stroke-linejoin="miter" stroke="rgb(100%, 100%, 100%)" stroke-opacity="1" stroke-miterlimit="4" d="M 332.217827 227.806368 L 484.554931 227.806368 L 484.554931 112.509326 L 332.217827 112.509326 Z M 332.217827 227.806368 " transform="matrix(0.0991325, 0, 0, -0.0991325, 0, 47.583022)"/>
<path fill-rule="nonzero" fill="rgb(1.176453%, 41.175842%, 59.605408%)" fill-opacity="1" d="M 48.035156 36.429688 L 50.621094 33.84375 L 50.621094 22.414062 L 48.035156 25 L 48.035156 36.429688 "/>
<path fill="none" stroke-width="3.99994" stroke-linecap="butt" stroke-linejoin="miter" stroke="rgb(100%, 100%, 100%)" stroke-opacity="1" stroke-miterlimit="4" d="M 484.554931 112.509326 L 510.640591 138.594987 L 510.640591 253.892029 L 484.554931 227.806368 Z M 484.554931 112.509326 " transform="matrix(0.0991325, 0, 0, -0.0991325, 0, 47.583022)"/>
<path fill-rule="nonzero" fill="rgb(1.176453%, 41.175842%, 59.605408%)" fill-opacity="1" d="M 47.683594 42.675781 L 30.207031 42.675781 L 32.230469 39.917969 L 49.671875 39.917969 L 47.683594 42.675781 "/>
<path fill="none" stroke-width="3.99994" stroke-linecap="butt" stroke-linejoin="miter" stroke="rgb(100%, 100%, 100%)" stroke-opacity="1" stroke-miterlimit="4" d="M 481.008542 49.501818 L 304.713611 49.501818 L 325.125049 77.321268 L 501.065341 77.321268 Z M 481.008542 49.501818 " transform="matrix(0.0991325, 0, 0, -0.0991325, 0, 47.583022)"/>
<path fill-rule="nonzero" fill="rgb(1.176453%, 41.175842%, 59.605408%)" fill-opacity="1" d="M 48.125 39.910156 L 48.125 37.054688 L 50.691406 34.503906 L 50.691406 37.339844 L 48.125 39.910156 "/>
<path fill="none" stroke-width="3.99994" stroke-linecap="butt" stroke-linejoin="miter" stroke="rgb(100%, 100%, 100%)" stroke-opacity="1" stroke-miterlimit="4" d="M 485.46123 77.400077 L 485.46123 106.204635 L 511.349869 131.935656 L 511.349869 103.32812 Z M 485.46123 77.400077 " transform="matrix(0.0991325, 0, 0, -0.0991325, 0, 47.583022)"/>
<path fill-rule="nonzero" fill="rgb(1.176453%, 41.175842%, 59.605408%)" fill-opacity="1" d="M 35.394531 26.316406 L 45.523438 26.316406 C 46.179688 26.316406 46.714844 26.851562 46.714844 27.511719 L 46.714844 33.910156 C 46.714844 34.566406 46.179688 35.101562 45.523438 35.101562 L 35.394531 35.101562 C 34.734375 35.101562 34.199219 34.566406 34.199219 33.910156 L 34.199219 27.511719 C 34.199219 26.851562 34.734375 26.316406 35.394531 26.316406 "/>
<path fill="none" stroke-width="3.99994" stroke-linecap="butt" stroke-linejoin="miter" stroke="rgb(100%, 100%, 100%)" stroke-opacity="1" stroke-miterlimit="4" d="M 357.042549 214.527112 L 459.217952 214.527112 C 465.837878 214.527112 471.23627 209.128721 471.23627 202.46939 L 471.23627 137.925113 C 471.23627 131.305187 465.837878 125.906795 459.217952 125.906795 L 357.042549 125.906795 C 350.383219 125.906795 344.984827 131.305187 344.984827 137.925113 L 344.984827 202.46939 C 344.984827 209.128721 350.383219 214.527112 357.042549 214.527112 Z M 357.042549 214.527112 " transform="matrix(0.0991325, 0, 0, -0.0991325, 0, 47.583022)"/>
<path fill-rule="nonzero" fill="rgb(1.176453%, 41.175842%, 59.605408%)" fill-opacity="1" d="M 50.621094 22.414062 L 35.878906 22.414062 L 32.933594 25 L 48.035156 25 L 50.621094 22.414062 "/>
<path fill="none" stroke-width="3.99994" stroke-linecap="butt" stroke-linejoin="miter" stroke="rgb(100%, 100%, 100%)" stroke-opacity="1" stroke-miterlimit="4" d="M 510.640591 253.892029 L 361.928685 253.892029 L 332.217827 227.806368 L 484.554931 227.806368 Z M 510.640591 253.892029 " transform="matrix(0.0991325, 0, 0, -0.0991325, 0, 47.583022)"/>
<path fill-rule="nonzero" fill="rgb(100%, 100%, 100%)" fill-opacity="1" d="M 39.1875 28.375 C 37.335938 28.003906 36.359375 28.953125 36.511719 29.773438 L 36.523438 29.816406 C 35.082031 30.0625 35.460938 31.765625 36.152344 31.765625 L 36.222656 31.761719 C 36.0625 32.9375 37.796875 33.632812 38.671875 32.96875 L 38.734375 32.90625 C 39.007812 34.023438 42.738281 34.109375 43.492188 33.273438 L 43.558594 33.292969 C 45.195312 33.421875 45.9375 32.292969 45.578125 31.484375 L 45.667969 31.460938 C 46.222656 31.3125 46.289062 30.027344 45.332031 29.835938 L 45.351562 29.785156 C 45.765625 28.949219 44.789062 28.160156 43.429688 28.308594 L 43.335938 28.261719 C 42.363281 27.382812 39.566406 27.523438 39.242188 28.394531 L 39.1875 28.375 "/>
<path fill-rule="nonzero" fill="rgb(1.176453%, 41.175842%, 59.605408%)" fill-opacity="1" d="M 73.492188 21.550781 L 71.660156 24.167969 L 55.734375 24.167969 L 58.363281 21.550781 L 73.492188 21.550781 "/>
<path fill="none" stroke-width="3.99994" stroke-linecap="butt" stroke-linejoin="miter" stroke="rgb(100%, 100%, 100%)" stroke-opacity="1" stroke-miterlimit="4" d="M 741.352888 262.600384 L 722.872262 236.199489 L 562.220846 236.199489 L 588.739954 262.600384 Z M 741.352888 262.600384 " transform="matrix(0.0991325, 0, 0, -0.0991325, 0, 47.583022)"/>
<path fill-rule="nonzero" fill="rgb(1.176453%, 41.175842%, 59.605408%)" fill-opacity="1" d="M 55.734375 27.015625 L 70.9375 27.015625 L 70.9375 24.167969 L 55.734375 24.167969 Z M 55.734375 27.015625 "/>
<path fill="none" stroke-width="3.99994" stroke-linecap="butt" stroke-linejoin="miter" stroke="rgb(100%, 100%, 100%)" stroke-opacity="1" stroke-miterlimit="4" d="M 562.220846 207.473739 L 562.220846 236.199489 L 715.582462 236.199489 L 715.582462 207.473739 Z M 562.220846 207.473739 " transform="matrix(0.0991325, 0, 0, -0.0991325, 0, 47.583022)"/>
<path fill-rule="nonzero" fill="rgb(1.176453%, 41.175842%, 59.605408%)" fill-opacity="1" d="M 70.484375 30.695312 L 70.484375 29.789062 L 72.46875 27.03125 L 72.46875 28.710938 L 70.484375 30.695312 "/>
<path fill="none" stroke-width="3.99994" stroke-linecap="butt" stroke-linejoin="miter" stroke="rgb(100%, 100%, 100%)" stroke-opacity="1" stroke-miterlimit="4" d="M 711.011561 170.354869 L 711.011561 179.496671 L 731.028956 207.316122 L 731.028956 190.372264 Z M 711.011561 170.354869 " transform="matrix(0.0991325, 0, 0, -0.0991325, 0, 47.583022)"/>
<path fill-rule="nonzero" fill="rgb(1.176453%, 41.175842%, 59.605408%)" fill-opacity="1" d="M 53.007812 30.695312 L 70.484375 30.695312 L 70.484375 29.789062 L 53.007812 29.789062 Z M 53.007812 30.695312 "/>
<path fill="none" stroke-width="3.99994" stroke-linecap="butt" stroke-linejoin="miter" stroke="rgb(100%, 100%, 100%)" stroke-opacity="1" stroke-miterlimit="4" d="M 711.011561 179.496671 L 711.011561 170.354869 L 534.716631 170.354869 L 534.716631 179.496671 Z M 711.011561 179.496671 " transform="matrix(0.0991325, 0, 0, -0.0991325, 0, 47.583022)"/>
<path fill-rule="nonzero" fill="rgb(1.176453%, 41.175842%, 59.605408%)" fill-opacity="1" d="M 55.734375 23.539062 L 70.835938 23.539062 L 70.835938 12.113281 L 55.734375 12.113281 Z M 55.734375 23.539062 "/>
<path fill="none" stroke-width="3.99994" stroke-linecap="butt" stroke-linejoin="miter" stroke="rgb(100%, 100%, 100%)" stroke-opacity="1" stroke-miterlimit="4" d="M 562.220846 357.801222 L 714.55795 357.801222 L 714.55795 242.543584 L 562.220846 242.543584 Z M 562.220846 357.801222 " transform="matrix(0.0991325, 0, 0, -0.0991325, 0, 47.583022)"/>
<path fill-rule="nonzero" fill="rgb(1.176453%, 41.175842%, 59.605408%)" fill-opacity="1" d="M 70.835938 23.539062 L 73.421875 20.953125 L 73.421875 9.527344 L 70.835938 12.113281 L 70.835938 23.539062 "/>
<path fill="none" stroke-width="3.99994" stroke-linecap="butt" stroke-linejoin="miter" stroke="rgb(100%, 100%, 100%)" stroke-opacity="1" stroke-miterlimit="4" d="M 714.55795 242.543584 L 740.64361 268.629245 L 740.64361 383.886882 L 714.55795 357.801222 Z M 714.55795 242.543584 " transform="matrix(0.0991325, 0, 0, -0.0991325, 0, 47.583022)"/>
<path fill-rule="nonzero" fill="rgb(1.176453%, 41.175842%, 59.605408%)" fill-opacity="1" d="M 70.484375 29.789062 L 53.007812 29.789062 L 55.03125 27.03125 L 72.46875 27.03125 L 70.484375 29.789062 "/>
<path fill="none" stroke-width="3.99994" stroke-linecap="butt" stroke-linejoin="miter" stroke="rgb(100%, 100%, 100%)" stroke-opacity="1" stroke-miterlimit="4" d="M 711.011561 179.496671 L 534.716631 179.496671 L 555.128069 207.316122 L 731.028956 207.316122 Z M 711.011561 179.496671 " transform="matrix(0.0991325, 0, 0, -0.0991325, 0, 47.583022)"/>
<path fill-rule="nonzero" fill="rgb(1.176453%, 41.175842%, 59.605408%)" fill-opacity="1" d="M 70.925781 27.023438 L 70.925781 24.167969 L 73.492188 21.613281 L 73.492188 24.453125 L 70.925781 27.023438 "/>
<path fill="none" stroke-width="3.99994" stroke-linecap="butt" stroke-linejoin="miter" stroke="rgb(100%, 100%, 100%)" stroke-opacity="1" stroke-miterlimit="4" d="M 715.464249 207.39493 L 715.464249 236.199489 L 741.352888 261.969914 L 741.352888 233.322973 Z M 715.464249 207.39493 " transform="matrix(0.0991325, 0, 0, -0.0991325, 0, 47.583022)"/>
<path fill-rule="nonzero" fill="rgb(1.176453%, 41.175842%, 59.605408%)" fill-opacity="1" d="M 58.195312 13.429688 L 68.320312 13.429688 C 68.980469 13.429688 69.515625 13.964844 69.515625 14.625 L 69.515625 21.023438 C 69.515625 21.679688 68.980469 22.214844 68.320312 22.214844 L 58.195312 22.214844 C 57.535156 22.214844 57 21.679688 57 21.023438 L 57 14.625 C 57 13.964844 57.535156 13.429688 58.195312 13.429688 "/>
<path fill="none" stroke-width="3.99994" stroke-linecap="butt" stroke-linejoin="miter" stroke="rgb(100%, 100%, 100%)" stroke-opacity="1" stroke-miterlimit="4" d="M 587.045568 344.521966 L 689.181568 344.521966 C 695.840898 344.521966 701.23929 339.123574 701.23929 332.464244 L 701.23929 267.919967 C 701.23929 261.300041 695.840898 255.901649 689.181568 255.901649 L 587.045568 255.901649 C 580.386238 255.901649 574.987846 261.300041 574.987846 267.919967 L 574.987846 332.464244 C 574.987846 339.123574 580.386238 344.521966 587.045568 344.521966 Z M 587.045568 344.521966 " transform="matrix(0.0991325, 0, 0, -0.0991325, 0, 47.583022)"/>
<path fill-rule="nonzero" fill="rgb(1.176453%, 41.175842%, 59.605408%)" fill-opacity="1" d="M 73.421875 9.527344 L 58.679688 9.527344 L 55.734375 12.113281 L 70.835938 12.113281 L 73.421875 9.527344 "/>
<path fill="none" stroke-width="3.99994" stroke-linecap="butt" stroke-linejoin="miter" stroke="rgb(100%, 100%, 100%)" stroke-opacity="1" stroke-miterlimit="4" d="M 740.64361 383.886882 L 591.931704 383.886882 L 562.220846 357.801222 L 714.55795 357.801222 Z M 740.64361 383.886882 " transform="matrix(0.0991325, 0, 0, -0.0991325, 0, 47.583022)"/>
<path fill-rule="nonzero" fill="rgb(100%, 100%, 100%)" fill-opacity="1" d="M 61.988281 15.488281 C 60.136719 15.117188 59.160156 16.066406 59.3125 16.886719 L 59.324219 16.929688 C 57.882812 17.175781 58.261719 18.878906 58.953125 18.878906 L 59.023438 18.875 C 58.859375 20.050781 60.597656 20.742188 61.472656 20.082031 L 61.535156 20.015625 C 61.808594 21.132812 65.539062 21.222656 66.292969 20.386719 L 66.359375 20.40625 C 67.992188 20.535156 68.738281 19.40625 68.378906 18.597656 L 68.46875 18.574219 C 69.023438 18.425781 69.089844 17.140625 68.132812 16.949219 L 68.152344 16.898438 C 68.566406 16.0625 67.589844 15.273438 66.230469 15.421875 L 66.136719 15.375 C 65.164062 14.492188 62.367188 14.636719 62.042969 15.507812 L 61.988281 15.488281 "/>
<path fill-rule="nonzero" fill="rgb(1.176453%, 41.175842%, 59.605408%)" fill-opacity="1" d="M 29.378906 20.558594 L 27.546875 23.175781 L 11.617188 23.175781 L 14.25 20.558594 L 29.378906 20.558594 "/>
<path fill="none" stroke-width="3.99994" stroke-linecap="butt" stroke-linejoin="miter" stroke="rgb(100%, 100%, 100%)" stroke-opacity="1" stroke-miterlimit="4" d="M 296.359895 272.609081 L 277.879269 246.208186 L 117.18845 246.208186 L 143.746962 272.609081 Z M 296.359895 272.609081 " transform="matrix(0.0991325, 0, 0, -0.0991325, 0, 47.583022)"/>
<path fill-rule="nonzero" fill="rgb(1.176453%, 41.175842%, 59.605408%)" fill-opacity="1" d="M 11.617188 26.023438 L 26.824219 26.023438 L 26.824219 23.175781 L 11.617188 23.175781 Z M 11.617188 26.023438 "/>
<path fill="none" stroke-width="3.99994" stroke-linecap="butt" stroke-linejoin="miter" stroke="rgb(100%, 100%, 100%)" stroke-opacity="1" stroke-miterlimit="4" d="M 117.18845 217.482436 L 117.18845 246.208186 L 270.58947 246.208186 L 270.58947 217.482436 Z M 117.18845 217.482436 " transform="matrix(0.0991325, 0, 0, -0.0991325, 0, 47.583022)"/>
<path fill-rule="nonzero" fill="rgb(1.176453%, 41.175842%, 59.605408%)" fill-opacity="1" d="M 26.371094 29.707031 L 26.371094 28.796875 L 28.355469 26.039062 L 28.355469 27.722656 L 26.371094 29.707031 "/>
<path fill="none" stroke-width="3.99994" stroke-linecap="butt" stroke-linejoin="miter" stroke="rgb(100%, 100%, 100%)" stroke-opacity="1" stroke-miterlimit="4" d="M 266.018568 180.324162 L 266.018568 189.505369 L 286.035963 217.324819 L 286.035963 200.341557 Z M 266.018568 180.324162 " transform="matrix(0.0991325, 0, 0, -0.0991325, 0, 47.583022)"/>
<path fill-rule="nonzero" fill="rgb(1.176453%, 41.175842%, 59.605408%)" fill-opacity="1" d="M 8.894531 29.707031 L 26.371094 29.707031 L 26.371094 28.796875 L 8.894531 28.796875 Z M 8.894531 29.707031 "/>
<path fill="none" stroke-width="3.99994" stroke-linecap="butt" stroke-linejoin="miter" stroke="rgb(100%, 100%, 100%)" stroke-opacity="1" stroke-miterlimit="4" d="M 266.018568 189.505369 L 266.018568 180.324162 L 89.723638 180.324162 L 89.723638 189.505369 Z M 266.018568 189.505369 " transform="matrix(0.0991325, 0, 0, -0.0991325, 0, 47.583022)"/>
<path fill-rule="nonzero" fill="rgb(1.176453%, 41.175842%, 59.605408%)" fill-opacity="1" d="M 11.617188 22.550781 L 26.71875 22.550781 L 26.71875 11.121094 L 11.617188 11.121094 Z M 11.617188 22.550781 "/>
<path fill="none" stroke-width="3.99994" stroke-linecap="butt" stroke-linejoin="miter" stroke="rgb(100%, 100%, 100%)" stroke-opacity="1" stroke-miterlimit="4" d="M 117.18845 367.80992 L 269.525553 367.80992 L 269.525553 252.512878 L 117.18845 252.512878 Z M 117.18845 367.80992 " transform="matrix(0.0991325, 0, 0, -0.0991325, 0, 47.583022)"/>
<path fill-rule="nonzero" fill="rgb(1.176453%, 41.175842%, 59.605408%)" fill-opacity="1" d="M 26.71875 22.550781 L 29.304688 19.964844 L 29.304688 8.539062 L 26.71875 11.121094 L 26.71875 22.550781 "/>
<path fill="none" stroke-width="3.99994" stroke-linecap="butt" stroke-linejoin="miter" stroke="rgb(100%, 100%, 100%)" stroke-opacity="1" stroke-miterlimit="4" d="M 269.525553 252.512878 L 295.611213 278.598538 L 295.611213 393.856176 L 269.525553 367.80992 Z M 269.525553 252.512878 " transform="matrix(0.0991325, 0, 0, -0.0991325, 0, 47.583022)"/>
<path fill-rule="nonzero" fill="rgb(1.176453%, 41.175842%, 59.605408%)" fill-opacity="1" d="M 26.371094 28.796875 L 8.894531 28.796875 L 10.917969 26.039062 L 28.355469 26.039062 L 26.371094 28.796875 "/>
<path fill="none" stroke-width="3.99994" stroke-linecap="butt" stroke-linejoin="miter" stroke="rgb(100%, 100%, 100%)" stroke-opacity="1" stroke-miterlimit="4" d="M 266.018568 189.505369 L 89.723638 189.505369 L 110.135076 217.324819 L 286.035963 217.324819 Z M 266.018568 189.505369 " transform="matrix(0.0991325, 0, 0, -0.0991325, 0, 47.583022)"/>
<path fill-rule="nonzero" fill="rgb(1.176453%, 41.175842%, 59.605408%)" fill-opacity="1" d="M 26.808594 26.03125 L 26.808594 23.175781 L 29.378906 20.625 L 29.378906 23.460938 L 26.808594 26.03125 "/>
<path fill="none" stroke-width="3.99994" stroke-linecap="butt" stroke-linejoin="miter" stroke="rgb(100%, 100%, 100%)" stroke-opacity="1" stroke-miterlimit="4" d="M 270.431852 217.403628 L 270.431852 246.208186 L 296.359895 271.939208 L 296.359895 243.331671 Z M 270.431852 217.403628 " transform="matrix(0.0991325, 0, 0, -0.0991325, 0, 47.583022)"/>
<path fill-rule="nonzero" fill="rgb(1.176453%, 41.175842%, 59.605408%)" fill-opacity="1" d="M 14.082031 12.4375 L 24.207031 12.4375 C 24.867188 12.4375 25.402344 12.972656 25.402344 13.632812 L 25.402344 20.03125 C 25.402344 20.691406 24.867188 21.222656 24.207031 21.222656 L 14.082031 21.222656 C 13.421875 21.222656 12.886719 20.691406 12.886719 20.03125 L 12.886719 13.632812 C 12.886719 12.972656 13.421875 12.4375 14.082031 12.4375 "/>
<path fill="none" stroke-width="3.99994" stroke-linecap="butt" stroke-linejoin="miter" stroke="rgb(100%, 100%, 100%)" stroke-opacity="1" stroke-miterlimit="4" d="M 142.052576 354.530664 L 244.188575 354.530664 C 250.847905 354.530664 256.246297 349.132272 256.246297 342.472941 L 256.246297 277.928664 C 256.246297 271.269334 250.847905 265.910347 244.188575 265.910347 L 142.052576 265.910347 C 135.393246 265.910347 129.994854 271.269334 129.994854 277.928664 L 129.994854 342.472941 C 129.994854 349.132272 135.393246 354.530664 142.052576 354.530664 Z M 142.052576 354.530664 " transform="matrix(0.0991325, 0, 0, -0.0991325, 0, 47.583022)"/>
<path fill-rule="nonzero" fill="rgb(1.176453%, 41.175842%, 59.605408%)" fill-opacity="1" d="M 29.304688 8.539062 L 14.566406 8.539062 L 11.617188 11.121094 L 26.71875 11.121094 L 29.304688 8.539062 "/>
<path fill="none" stroke-width="3.99994" stroke-linecap="butt" stroke-linejoin="miter" stroke="rgb(100%, 100%, 100%)" stroke-opacity="1" stroke-miterlimit="4" d="M 295.611213 393.856176 L 146.938712 393.856176 L 117.18845 367.80992 L 269.525553 367.80992 Z M 295.611213 393.856176 " transform="matrix(0.0991325, 0, 0, -0.0991325, 0, 47.583022)"/>
<path fill-rule="nonzero" fill="rgb(100%, 100%, 100%)" fill-opacity="1" d="M 17.378906 14.496094 C 15.527344 14.125 14.550781 15.074219 14.703125 15.894531 L 14.714844 15.9375 C 13.273438 16.183594 13.652344 17.886719 14.34375 17.886719 L 14.414062 17.882812 C 14.25 19.058594 15.984375 19.753906 16.863281 19.09375 L 16.925781 19.027344 C 17.199219 20.144531 20.929688 20.230469 21.683594 19.394531 L 21.75 19.414062 C 23.382812 19.542969 24.128906 18.417969 23.769531 17.605469 L 23.859375 17.582031 C 24.414062 17.433594 24.480469 16.148438 23.523438 15.957031 L 23.542969 15.90625 C 23.957031 15.070312 22.980469 14.28125 21.621094 14.429688 L 21.527344 14.382812 C 20.554688 13.503906 17.757812 13.644531 17.433594 14.515625 L 17.378906 14.496094 "/>
<g clip-path="url(#clip-0)">
<path fill="none" stroke-width="3.99994" stroke-linecap="butt" stroke-linejoin="miter" stroke="rgb(1.176453%, 41.175842%, 59.605408%)" stroke-opacity="1" stroke-miterlimit="4" d="M 285.760133 421.99086 C 141.776746 450.756015 65.765811 376.991126 77.784129 313.234936 L 78.729833 309.767355 C -33.493673 290.65626 -4.058645 158.257743 49.767657 158.257743 L 55.047836 158.41536 C 41.49275 96.195938 172.630329 32.83379 245.764748 64.47546 L 250.453862 69.637426 C 276.539522 13.68329 369.17908 4.305062 460.754721 1.980207 C 540.154427 -0.0294133 586.493908 6.235874 620.539241 41.029889 L 625.780016 39.49312 C 752.819545 29.287401 810.704492 117.040823 782.924446 180.048332 L 789.741394 181.979144 C 833.086146 193.445801 838.090495 293.453967 763.773946 308.230587 L 765.192502 312.131615 C 797.464641 377.148744 721.335493 438.501271 615.771318 426.995209 L 608.442115 430.817428 C 532.864628 499.262733 315.313374 488.11131 290.094608 420.414688 Z M 285.760133 421.99086 " transform="matrix(0.0991325, 0, 0, -0.0991325, 0, 47.583022)"/>
</g>
<path fill="none" stroke-width="3.99994" stroke-linecap="butt" stroke-linejoin="miter" stroke="rgb(1.176453%, 41.175842%, 59.605408%)" stroke-opacity="1" stroke-miterlimit="4" d="M 343.132824 119.602104 L 248.129007 182.964252 " transform="matrix(0.0991325, 0, 0, -0.0991325, 0, 47.583022)"/>
<path fill="none" stroke-width="3.99994" stroke-linecap="butt" stroke-linejoin="miter" stroke="rgb(1.176453%, 41.175842%, 59.605408%)" stroke-opacity="1" stroke-miterlimit="4" d="M 496.455035 134.61515 L 556.467816 174.610536 " transform="matrix(0.0991325, 0, 0, -0.0991325, 0, 47.583022)"/>
<path fill="none" stroke-width="3.99994" stroke-linecap="butt" stroke-linejoin="miter" stroke="rgb(1.176453%, 41.175842%, 59.605408%)" stroke-opacity="1" stroke-miterlimit="4" d="M 284.814429 329.627133 L 568.131495 329.627133 " transform="matrix(0.0991325, 0, 0, -0.0991325, 0, 47.583022)"/>
</svg>
