<?xml version="1.0" encoding="UTF-8"?>
<svg xmlns="http://www.w3.org/2000/svg" xmlns:xlink="http://www.w3.org/1999/xlink" width="18.25" height="32.82" viewBox="0 0 18.25 32.82">
<defs>
<clipPath id="clip-0">
<path clip-rule="nonzero" d="M 0 1 L 17.289062 1 L 17.289062 3 L 0 3 Z M 0 1 "/>
</clipPath>
<clipPath id="clip-1">
<path clip-rule="nonzero" d="M 0 0.582031 L 17.289062 0.582031 L 17.289062 5 L 0 5 Z M 0 0.582031 "/>
</clipPath>
<clipPath id="clip-2">
<path clip-rule="nonzero" d="M 15 1 L 17.289062 1 L 17.289062 32 L 15 32 Z M 15 1 "/>
</clipPath>
<clipPath id="clip-3">
<path clip-rule="nonzero" d="M 13 0.582031 L 17.289062 0.582031 L 17.289062 32.085938 L 13 32.085938 Z M 13 0.582031 "/>
</clipPath>
</defs>
<g clip-path="url(#clip-0)">
<path fill-rule="nonzero" fill="rgb(1.176453%, 41.175842%, 59.605408%)" fill-opacity="1" d="M 1.773438 1.070312 L 17.109375 1.070312 L 15.757812 2.609375 L 0.425781 2.609375 L 1.773438 1.070312 "/>
</g>
<g clip-path="url(#clip-1)">
<path fill="none" stroke-width="3.99994" stroke-linecap="butt" stroke-linejoin="miter" stroke="rgb(100%, 100%, 100%)" stroke-opacity="1" stroke-miterlimit="4" d="M 18.463185 322.900856 L 178.125 322.900856 L 164.053938 306.87774 L 4.432791 306.87774 Z M 18.463185 322.900856 " transform="matrix(0.0960526, 0, 0, -0.0960526, 0, 32.085789)"/>
</g>
<path fill-rule="nonzero" fill="rgb(1.176453%, 41.175842%, 59.605408%)" fill-opacity="1" d="M 0.449219 31.574219 L 15.730469 31.574219 L 15.730469 2.640625 L 0.449219 2.640625 Z M 0.449219 31.574219 "/>
<path fill="none" stroke-width="3.99994" stroke-linecap="butt" stroke-linejoin="miter" stroke="rgb(100%, 100%, 100%)" stroke-opacity="1" stroke-miterlimit="4" d="M 4.676798 306.552397 L 163.769264 306.552397 L 163.769264 5.325942 L 4.676798 5.325942 Z M 4.676798 306.552397 " transform="matrix(0.0960526, 0, 0, -0.0960526, 0, 32.085789)"/>
<path fill-rule="nonzero" fill="rgb(1.176453%, 41.175842%, 59.605408%)" fill-opacity="1" d="M 12.378906 29.8125 C 13.910156 29.8125 14.136719 28.222656 14.136719 28.222656 C 14.136719 28.222656 14.136719 11.589844 14.136719 10.113281 C 14.136719 8.183594 12.320312 8.238281 12.320312 8.238281 C 12.320312 8.238281 4.824219 8.238281 3.746094 8.238281 C 2.667969 8.238281 2.210938 9.714844 2.210938 9.714844 C 2.210938 9.714844 2.210938 26.632812 2.210938 27.996094 C 2.210938 29.359375 3.628906 29.8125 3.628906 29.8125 L 12.378906 29.8125 "/>
<path fill="none" stroke-width="3.99994" stroke-linecap="butt" stroke-linejoin="miter" stroke="rgb(100%, 100%, 100%)" stroke-opacity="1" stroke-miterlimit="4" d="M 128.876284 23.667123 C 144.818065 23.667123 147.176798 40.218921 147.176798 40.218921 C 147.176798 40.218921 147.176798 213.382449 147.176798 228.75488 C 147.176798 248.844777 128.266267 248.275428 128.266267 248.275428 C 128.266267 248.275428 50.224743 248.275428 39.000428 248.275428 C 27.776113 248.275428 23.017979 232.902997 23.017979 232.902997 C 23.017979 232.902997 23.017979 56.770719 23.017979 42.577654 C 23.017979 28.384589 37.780394 23.667123 37.780394 23.667123 Z M 128.876284 23.667123 " transform="matrix(0.0960526, 0, 0, -0.0960526, 0, 32.085789)"/>
<g clip-path="url(#clip-2)">
<path fill-rule="nonzero" fill="rgb(1.176453%, 41.175842%, 59.605408%)" fill-opacity="1" d="M 17.101562 1.070312 L 17.101562 30 L 15.730469 31.574219 L 15.730469 2.640625 L 17.101562 1.070312 "/>
</g>
<g clip-path="url(#clip-3)">
<path fill="none" stroke-width="3.99994" stroke-linecap="butt" stroke-linejoin="miter" stroke="rgb(100%, 100%, 100%)" stroke-opacity="1" stroke-miterlimit="4" d="M 178.043664 322.900856 L 178.043664 21.715068 L 163.769264 5.325942 L 163.769264 306.552397 Z M 178.043664 322.900856 " transform="matrix(0.0960526, 0, 0, -0.0960526, 0, 32.085789)"/>
</g>
<path fill-rule="nonzero" fill="rgb(1.176453%, 41.175842%, 59.605408%)" fill-opacity="1" d="M 12.582031 4.6875 C 12.335938 4.6875 12.140625 5.042969 12.140625 5.488281 C 12.140625 5.929688 12.335938 6.285156 12.582031 6.285156 C 12.824219 6.285156 13.019531 5.929688 13.019531 5.488281 C 13.019531 5.042969 12.824219 4.6875 12.582031 4.6875 "/>
<path fill="none" stroke-width="3.99994" stroke-linecap="butt" stroke-linejoin="miter" stroke="rgb(100%, 100%, 100%)" stroke-opacity="1" stroke-miterlimit="4" d="M 130.99101 285.242466 C 128.428938 285.242466 126.395548 281.541695 126.395548 276.905565 C 126.395548 272.310103 128.428938 268.609332 130.99101 268.609332 C 133.512414 268.609332 135.545805 272.310103 135.545805 276.905565 C 135.545805 281.541695 133.512414 285.242466 130.99101 285.242466 Z M 130.99101 285.242466 " transform="matrix(0.0960526, 0, 0, -0.0960526, 0, 32.085789)"/>
<path fill-rule="nonzero" fill="rgb(1.176453%, 41.175842%, 59.605408%)" fill-opacity="1" d="M 9.378906 4.6875 C 9.132812 4.6875 8.9375 5.042969 8.9375 5.488281 C 8.9375 5.929688 9.132812 6.285156 9.378906 6.285156 C 9.621094 6.285156 9.820312 5.929688 9.820312 5.488281 C 9.820312 5.042969 9.621094 4.6875 9.378906 4.6875 "/>
<path fill="none" stroke-width="3.99994" stroke-linecap="butt" stroke-linejoin="miter" stroke="rgb(100%, 100%, 100%)" stroke-opacity="1" stroke-miterlimit="4" d="M 97.643408 285.242466 C 95.081336 285.242466 93.047945 281.541695 93.047945 276.905565 C 93.047945 272.310103 95.081336 268.609332 97.643408 268.609332 C 100.164812 268.609332 102.23887 272.310103 102.23887 276.905565 C 102.23887 281.541695 100.164812 285.242466 97.643408 285.242466 Z M 97.643408 285.242466 " transform="matrix(0.0960526, 0, 0, -0.0960526, 0, 32.085789)"/>
<path fill-rule="nonzero" fill="rgb(1.176453%, 41.175842%, 59.605408%)" fill-opacity="1" d="M 6.179688 4.6875 C 5.933594 4.6875 5.738281 5.042969 5.738281 5.488281 C 5.738281 5.929688 5.933594 6.285156 6.179688 6.285156 C 6.421875 6.285156 6.617188 5.929688 6.617188 5.488281 C 6.617188 5.042969 6.421875 4.6875 6.179688 4.6875 "/>
<path fill="none" stroke-width="3.99994" stroke-linecap="butt" stroke-linejoin="miter" stroke="rgb(100%, 100%, 100%)" stroke-opacity="1" stroke-miterlimit="4" d="M 64.336473 285.242466 C 61.774401 285.242466 59.74101 281.541695 59.74101 276.905565 C 59.74101 272.310103 61.774401 268.609332 64.336473 268.609332 C 66.857877 268.609332 68.891267 272.310103 68.891267 276.905565 C 68.891267 281.541695 66.857877 285.242466 64.336473 285.242466 Z M 64.336473 285.242466 " transform="matrix(0.0960526, 0, 0, -0.0960526, 0, 32.085789)"/>
<path fill-rule="nonzero" fill="rgb(1.176453%, 41.175842%, 59.605408%)" fill-opacity="1" d="M 2.976562 4.6875 C 2.730469 4.6875 2.535156 5.042969 2.535156 5.488281 C 2.535156 5.929688 2.730469 6.285156 2.976562 6.285156 C 3.21875 6.285156 3.417969 5.929688 3.417969 5.488281 C 3.417969 5.042969 3.21875 4.6875 2.976562 4.6875 "/>
<path fill="none" stroke-width="3.99994" stroke-linecap="butt" stroke-linejoin="miter" stroke="rgb(100%, 100%, 100%)" stroke-opacity="1" stroke-miterlimit="4" d="M 30.98887 285.242466 C 28.426798 285.242466 26.393408 281.541695 26.393408 276.905565 C 26.393408 272.310103 28.426798 268.609332 30.98887 268.609332 C 33.510274 268.609332 35.584332 272.310103 35.584332 276.905565 C 35.584332 281.541695 33.510274 285.242466 30.98887 285.242466 Z M 30.98887 285.242466 " transform="matrix(0.0960526, 0, 0, -0.0960526, 0, 32.085789)"/>
</svg>
