<?xml version="1.0" encoding="UTF-8"?>
<svg xmlns="http://www.w3.org/2000/svg" xmlns:xlink="http://www.w3.org/1999/xlink" width="37.16" height="26.73" viewBox="0 0 37.16 26.73">
<defs>
<clipPath id="clip-0">
<path clip-rule="nonzero" d="M 0 2 L 34 2 L 34 26.300781 L 0 26.300781 Z M 0 2 "/>
</clipPath>
<clipPath id="clip-1">
<path clip-rule="nonzero" d="M 0 0.191406 L 36 0.191406 L 36 4 L 0 4 Z M 0 0.191406 "/>
</clipPath>
<clipPath id="clip-2">
<path clip-rule="nonzero" d="M 0 0.191406 L 36.183594 0.191406 L 36.183594 6 L 0 6 Z M 0 0.191406 "/>
</clipPath>
<clipPath id="clip-3">
<path clip-rule="nonzero" d="M 33 0.191406 L 36 0.191406 L 36 26 L 33 26 Z M 33 0.191406 "/>
</clipPath>
<clipPath id="clip-4">
<path clip-rule="nonzero" d="M 31 0.191406 L 36.183594 0.191406 L 36.183594 26.300781 L 31 26.300781 Z M 31 0.191406 "/>
</clipPath>
</defs>
<path fill-rule="nonzero" fill="rgb(1.176453%, 41.175842%, 59.605408%)" fill-opacity="1" d="M 0.472656 25.832031 L 33.378906 25.832031 L 33.378906 3.121094 L 0.472656 3.121094 Z M 0.472656 25.832031 "/>
<g clip-path="url(#clip-0)">
<path fill="none" stroke-width="3.99994" stroke-linecap="butt" stroke-linejoin="miter" stroke="rgb(100%, 100%, 100%)" stroke-opacity="1" stroke-miterlimit="4" d="M 341.334348 4.811521 L 341.334348 237.054693 L 4.833406 237.054693 L 4.833406 4.811521 Z M 341.334348 4.811521 " transform="matrix(0.0977895, 0, 0, -0.0977895, 0, 26.302547)"/>
</g>
<g clip-path="url(#clip-1)">
<path fill-rule="nonzero" fill="rgb(1.176453%, 41.175842%, 59.605408%)" fill-opacity="1" d="M 0.472656 3.121094 L 2.957031 0.636719 L 35.863281 0.636719 L 33.378906 3.121094 L 0.472656 3.121094 "/>
</g>
<g clip-path="url(#clip-2)">
<path fill="none" stroke-width="3.99994" stroke-linecap="butt" stroke-linejoin="miter" stroke="rgb(100%, 100%, 100%)" stroke-opacity="1" stroke-miterlimit="4" d="M 4.833406 237.054693 L 30.238748 262.460034 L 366.73969 262.460034 L 341.334348 237.054693 Z M 4.833406 237.054693 " transform="matrix(0.0977895, 0, 0, -0.0977895, 0, 26.302547)"/>
</g>
<g clip-path="url(#clip-3)">
<path fill-rule="nonzero" fill="rgb(1.176453%, 41.175842%, 59.605408%)" fill-opacity="1" d="M 33.378906 25.832031 L 35.863281 23.347656 L 35.863281 0.636719 L 33.378906 3.121094 L 33.378906 25.832031 "/>
</g>
<g clip-path="url(#clip-4)">
<path fill="none" stroke-width="3.99994" stroke-linecap="butt" stroke-linejoin="miter" stroke="rgb(100%, 100%, 100%)" stroke-opacity="1" stroke-miterlimit="4" d="M 341.334348 4.811521 L 366.73969 30.216863 L 366.73969 262.460034 L 341.334348 237.054693 Z M 341.334348 4.811521 " transform="matrix(0.0977895, 0, 0, -0.0977895, 0, 26.302547)"/>
</g>
<path fill-rule="nonzero" fill="rgb(100%, 100%, 100%)" fill-opacity="1" d="M 19.707031 16.949219 C 20.429688 16.207031 20.667969 14.972656 20.667969 13.738281 C 20.667969 12.5 20.429688 11.265625 19.707031 10.523438 L 20.667969 8.792969 C 21.632812 10.027344 22.355469 11.757812 22.117188 13.738281 C 22.117188 15.714844 21.632812 17.441406 20.667969 18.679688 L 19.707031 16.949219 "/>
<path fill-rule="nonzero" fill="rgb(100%, 100%, 100%)" fill-opacity="1" d="M 25.246094 18.183594 C 25.96875 17.195312 26.210938 15.714844 26.210938 13.984375 C 26.210938 12.5 25.96875 10.769531 25.246094 9.78125 L 26.210938 7.804688 C 27.171875 9.535156 27.65625 11.757812 27.65625 13.984375 C 27.65625 16.207031 27.171875 18.429688 26.210938 20.160156 L 25.246094 18.183594 "/>
<path fill-rule="nonzero" fill="rgb(100%, 100%, 100%)" fill-opacity="1" d="M 13.929688 16.949219 C 13.445312 16.207031 12.964844 14.972656 12.964844 13.738281 C 12.964844 12.5 13.445312 11.265625 13.929688 10.523438 L 12.964844 8.792969 C 12 10.027344 11.519531 11.757812 11.519531 13.738281 C 11.519531 15.714844 12 17.441406 12.964844 18.679688 L 13.929688 16.949219 "/>
<path fill-rule="nonzero" fill="rgb(100%, 100%, 100%)" fill-opacity="1" d="M 9.109375 18.183594 C 8.628906 17.195312 8.148438 15.714844 8.148438 13.984375 C 8.148438 12.5 8.628906 10.769531 9.109375 9.78125 L 8.148438 7.804688 C 7.183594 9.535156 6.703125 11.757812 6.703125 13.984375 C 6.703125 16.207031 7.183594 18.429688 8.148438 20.160156 L 9.109375 18.183594 "/>
<path fill="none" stroke-width="5" stroke-linecap="butt" stroke-linejoin="miter" stroke="rgb(100%, 100%, 100%)" stroke-opacity="1" stroke-miterlimit="1" d="M 170.966765 120.933107 L 170.966765 45.116537 " transform="matrix(0.0977895, 0, 0, -0.0977895, 0, 26.302547)"/>
<path fill-rule="nonzero" fill="rgb(100%, 100%, 100%)" fill-opacity="1" d="M 17.273438 13.722656 C 17.273438 14.058594 17 14.332031 16.664062 14.332031 C 16.328125 14.332031 16.054688 14.058594 16.054688 13.722656 C 16.054688 13.386719 16.328125 13.113281 16.664062 13.113281 C 17 13.113281 17.273438 13.386719 17.273438 13.722656 "/>
</svg>
