<?xml version="1.0" encoding="UTF-8"?>
<svg xmlns="http://www.w3.org/2000/svg" xmlns:xlink="http://www.w3.org/1999/xlink" width="36.14" height="29.58" viewBox="0 0 36.14 29.58">
<defs>
<clipPath id="clip-0">
<path clip-rule="nonzero" d="M 0 0.136719 L 33 0.136719 L 33 13 L 0 13 Z M 0 0.136719 "/>
</clipPath>
<clipPath id="clip-1">
<path clip-rule="nonzero" d="M 30 0.136719 L 35.164062 0.136719 L 35.164062 29 L 30 29 Z M 30 0.136719 "/>
</clipPath>
<clipPath id="clip-2">
<path clip-rule="nonzero" d="M 27 0.136719 L 35.164062 0.136719 L 35.164062 29.03125 L 27 29.03125 Z M 27 0.136719 "/>
</clipPath>
<clipPath id="clip-3">
<path clip-rule="nonzero" d="M 0 2 L 33 2 L 33 29.03125 L 0 29.03125 Z M 0 2 "/>
</clipPath>
</defs>
<path fill-rule="nonzero" fill="rgb(1.176453%, 41.175842%, 59.605408%)" fill-opacity="1" d="M 8.089844 1.5 L 0.390625 5.480469 C 19.207031 17.429688 30.269531 4.71875 30.269531 4.71875 C 19.082031 11.453125 8.089844 1.5 8.089844 1.5 "/>
<g clip-path="url(#clip-0)">
<path fill="none" stroke-width="3.99994" stroke-linecap="butt" stroke-linejoin="miter" stroke="rgb(100%, 100%, 100%)" stroke-opacity="1" stroke-miterlimit="4" d="M 82.823525 281.862535 L 3.999204 241.110641 C 196.640884 118.774976 309.898355 248.90909 309.898355 248.90909 C 195.361139 179.962804 82.823525 281.862535 82.823525 281.862535 Z M 82.823525 281.862535 " transform="matrix(0.0976757, 0, 0, -0.0976757, 0, 29.031114)"/>
</g>
<g clip-path="url(#clip-1)">
<path fill-rule="nonzero" fill="rgb(1.176453%, 41.175842%, 59.605408%)" fill-opacity="1" d="M 35.101562 0.269531 C 33.828125 2.8125 30.140625 4.84375 30.140625 4.84375 L 30.140625 28.617188 L 35.101562 24.550781 L 35.101562 0.269531 "/>
</g>
<g clip-path="url(#clip-2)">
<path fill="none" stroke-width="3.99994" stroke-linecap="butt" stroke-linejoin="miter" stroke="rgb(100%, 100%, 100%)" stroke-opacity="1" stroke-miterlimit="4" d="M 359.368515 294.460029 C 346.331108 268.425208 308.578618 247.629344 308.578618 247.629344 L 308.578618 4.237759 L 359.368515 45.869478 Z M 359.368515 294.460029 " transform="matrix(0.0976757, 0, 0, -0.0976757, 0, 29.031114)"/>
</g>
<path fill-rule="nonzero" fill="rgb(1.176453%, 41.175842%, 59.605408%)" fill-opacity="1" d="M 30.140625 4.84375 C 30.140625 4.84375 19.207031 17.429688 0.390625 5.480469 L 0.390625 28.617188 L 30.140625 28.617188 L 30.140625 4.84375 "/>
<g clip-path="url(#clip-3)">
<path fill="none" stroke-width="3.99994" stroke-linecap="butt" stroke-linejoin="miter" stroke="rgb(100%, 100%, 100%)" stroke-opacity="1" stroke-miterlimit="4" d="M 308.578618 247.629344 C 308.578618 247.629344 196.640884 118.774976 3.999204 241.110641 L 3.999204 4.237759 L 308.578618 4.237759 Z M 308.578618 247.629344 " transform="matrix(0.0976757, 0, 0, -0.0976757, 0, 29.031114)"/>
</g>
<path fill="none" stroke-width="4.49997" stroke-linecap="round" stroke-linejoin="miter" stroke="rgb(0%, 0%, 0%)" stroke-opacity="1" stroke-miterlimit="1" d="M 286.942922 99.818747 C 286.942922 99.818747 267.386812 49.508754 243.831497 99.978715 C 220.356167 150.408683 200.720073 100.098691 200.720073 100.098691 C 200.720073 100.098691 181.203955 49.748706 157.688633 100.178675 C 134.17331 150.608643 114.697185 99.858739 114.697185 99.858739 C 114.697185 99.858739 95.181067 49.508754 71.625752 99.978715 C 48.150422 150.408683 28.634304 100.098691 28.634304 100.098691 " transform="matrix(0.0976757, 0, 0, -0.0976757, 0, 29.031114)"/>
<path fill="none" stroke-width="8.99994" stroke-linecap="round" stroke-linejoin="miter" stroke="rgb(0%, 0%, 0%)" stroke-opacity="1" stroke-miterlimit="1" d="M 28.634304 99.818747 C 28.634304 99.818747 48.190414 49.508754 71.745728 99.978715 C 95.221059 150.408683 114.857153 100.098691 114.857153 100.098691 C 114.857153 100.098691 134.373271 49.748706 157.888593 100.178675 C 181.403915 150.608643 200.880041 99.858739 200.880041 99.858739 C 200.880041 99.858739 220.436151 49.508754 243.951473 99.978715 C 267.466796 150.408683 286.942922 100.098691 286.942922 100.098691 " transform="matrix(0.0976757, 0, 0, -0.0976757, 0, 29.031114)"/>
<path fill="none" stroke-width="4.49997" stroke-linecap="round" stroke-linejoin="miter" stroke="rgb(100%, 100%, 100%)" stroke-opacity="1" stroke-miterlimit="1" d="M 282.423821 99.818747 C 282.423821 99.818747 262.867711 49.508754 239.312396 99.978715 C 215.797074 150.408683 196.200972 100.098691 196.200972 100.098691 C 196.200972 100.098691 176.644862 49.748706 153.12954 100.178675 C 129.654209 150.608643 110.138091 99.858739 110.138091 99.858739 C 110.138091 99.858739 90.621974 49.508754 67.106651 99.978715 C 43.591329 150.408683 24.115203 100.098691 24.115203 100.098691 " transform="matrix(0.0976757, 0, 0, -0.0976757, 0, 29.031114)"/>
<path fill="none" stroke-width="8.99994" stroke-linecap="round" stroke-linejoin="miter" stroke="rgb(100%, 100%, 100%)" stroke-opacity="1" stroke-miterlimit="1" d="M 24.115203 99.818747 C 24.115203 99.818747 43.671313 49.508754 67.186635 99.978715 C 90.701958 150.408683 110.29806 100.098691 110.29806 100.098691 C 110.29806 100.098691 129.85417 49.748706 153.369492 100.178675 C 176.884814 150.608643 196.36094 99.858739 196.36094 99.858739 C 196.36094 99.858739 215.877058 49.508754 239.39238 99.978715 C 262.907703 150.408683 282.423821 100.098691 282.423821 100.098691 " transform="matrix(0.0976757, 0, 0, -0.0976757, 0, 29.031114)"/>
</svg>
