<?xml version="1.0" encoding="UTF-8"?>
<svg xmlns="http://www.w3.org/2000/svg" xmlns:xlink="http://www.w3.org/1999/xlink" width="39.26" height="45.86" viewBox="0 0 39.26 45.86">
<defs>
<clipPath id="clip-0">
<path clip-rule="nonzero" d="M 0 10 L 38.535156 10 L 38.535156 19 L 0 19 Z M 0 10 "/>
</clipPath>
<clipPath id="clip-1">
<path clip-rule="nonzero" d="M 0 8 L 38.535156 8 L 38.535156 21 L 0 21 Z M 0 8 "/>
</clipPath>
<clipPath id="clip-2">
<path clip-rule="nonzero" d="M 30 10 L 38.535156 10 L 38.535156 45 L 30 45 Z M 30 10 "/>
</clipPath>
<clipPath id="clip-3">
<path clip-rule="nonzero" d="M 28 8 L 38.535156 8 L 38.535156 45.367188 L 28 45.367188 Z M 28 8 "/>
</clipPath>
<clipPath id="clip-4">
<path clip-rule="nonzero" d="M 0 18 L 31 18 L 31 45.367188 L 0 45.367188 Z M 0 18 "/>
</clipPath>
<clipPath id="clip-5">
<path clip-rule="nonzero" d="M 0 0.355469 L 38.535156 0.355469 L 38.535156 9 L 0 9 Z M 0 0.355469 "/>
</clipPath>
<clipPath id="clip-6">
<path clip-rule="nonzero" d="M 0 0.355469 L 38.535156 0.355469 L 38.535156 11 L 0 11 Z M 0 0.355469 "/>
</clipPath>
<clipPath id="clip-7">
<path clip-rule="nonzero" d="M 30 0.355469 L 38.535156 0.355469 L 38.535156 19 L 30 19 Z M 30 0.355469 "/>
</clipPath>
<clipPath id="clip-8">
<path clip-rule="nonzero" d="M 28 0.355469 L 38.535156 0.355469 L 38.535156 21 L 28 21 Z M 28 0.355469 "/>
</clipPath>
</defs>
<g clip-path="url(#clip-0)">
<path fill-rule="nonzero" fill="rgb(3.292847%, 48.298645%, 73.153687%)" fill-opacity="1" d="M 0.597656 18.273438 L 8.148438 12.691406 L 38.023438 10.402344 L 30.242188 18.273438 L 0.597656 18.273438 "/>
</g>
<g clip-path="url(#clip-1)">
<path fill="none" stroke-width="4" stroke-linecap="butt" stroke-linejoin="miter" stroke="rgb(100%, 100%, 100%)" stroke-opacity="1" stroke-miterlimit="4" d="M 6.089213 276.043327 L 83.02025 332.915779 L 387.401299 356.237863 L 308.122134 276.043327 Z M 6.089213 276.043327 " transform="matrix(0.09815, 0, 0, -0.09815, 0, 45.36709)"/>
</g>
<g clip-path="url(#clip-2)">
<path fill-rule="nonzero" fill="rgb(3.292847%, 48.298645%, 73.153687%)" fill-opacity="1" d="M 30.242188 44.890625 L 38.023438 37.035156 L 38.023438 10.417969 L 30.242188 18.273438 L 30.242188 44.890625 "/>
</g>
<g clip-path="url(#clip-3)">
<path fill="none" stroke-width="4" stroke-linecap="butt" stroke-linejoin="miter" stroke="rgb(100%, 100%, 100%)" stroke-opacity="1" stroke-miterlimit="4" d="M 308.122134 4.854457 L 387.401299 84.889799 L 387.401299 356.078668 L 308.122134 276.043327 Z M 308.122134 4.854457 " transform="matrix(0.09815, 0, 0, -0.09815, 0, 45.36709)"/>
</g>
<path fill-rule="nonzero" fill="rgb(3.292847%, 48.298645%, 73.153687%)" fill-opacity="1" d="M 30.242188 44.898438 L 30.242188 18.273438 L 0.636719 18.273438 L 0.636719 44.898438 L 30.242188 44.898438 "/>
<g clip-path="url(#clip-4)">
<path fill="none" stroke-width="4" stroke-linecap="butt" stroke-linejoin="miter" stroke="rgb(100%, 100%, 100%)" stroke-opacity="1" stroke-miterlimit="4" d="M 308.122134 4.77486 L 308.122134 276.043327 L 6.487201 276.043327 L 6.487201 4.77486 Z M 308.122134 4.77486 " transform="matrix(0.09815, 0, 0, -0.09815, 0, 45.36709)"/>
</g>
<g clip-path="url(#clip-5)">
<path fill-rule="nonzero" fill="rgb(3.292847%, 48.298645%, 73.153687%)" fill-opacity="1" d="M 0.597656 8.6875 L 10.4375 0.816406 L 38.023438 0.816406 L 30.242188 8.6875 L 0.597656 8.6875 "/>
</g>
<g clip-path="url(#clip-6)">
<path fill="none" stroke-width="4" stroke-linecap="butt" stroke-linejoin="miter" stroke="rgb(100%, 100%, 100%)" stroke-opacity="1" stroke-miterlimit="4" d="M 6.089213 373.709526 L 106.342333 453.904063 L 387.401299 453.904063 L 308.122134 373.709526 Z M 6.089213 373.709526 " transform="matrix(0.09815, 0, 0, -0.09815, 0, 45.36709)"/>
</g>
<g clip-path="url(#clip-7)">
<path fill-rule="nonzero" fill="rgb(3.292847%, 48.298645%, 73.153687%)" fill-opacity="1" d="M 30.242188 18.292969 L 38.023438 10.4375 L 38.023438 0.835938 L 30.242188 8.6875 L 30.242188 18.292969 "/>
</g>
<g clip-path="url(#clip-8)">
<path fill="none" stroke-width="4" stroke-linecap="butt" stroke-linejoin="miter" stroke="rgb(100%, 100%, 100%)" stroke-opacity="1" stroke-miterlimit="4" d="M 308.122134 275.844333 L 387.401299 355.879674 L 387.401299 453.705069 L 308.122134 373.709526 Z M 308.122134 275.844333 " transform="matrix(0.09815, 0, 0, -0.09815, 0, 45.36709)"/>
</g>
<path fill-rule="nonzero" fill="rgb(3.292847%, 48.298645%, 73.153687%)" fill-opacity="1" d="M 30.242188 18.300781 L 30.242188 8.6875 L 0.636719 8.6875 L 0.636719 18.300781 L 30.242188 18.300781 "/>
<path fill="none" stroke-width="4" stroke-linecap="butt" stroke-linejoin="miter" stroke="rgb(100%, 100%, 100%)" stroke-opacity="1" stroke-miterlimit="4" d="M 308.122134 275.764735 L 308.122134 373.709526 L 6.487201 373.709526 L 6.487201 275.764735 Z M 308.122134 275.764735 " transform="matrix(0.09815, 0, 0, -0.09815, 0, 45.36709)"/>
<path fill="none" stroke-width="4.5" stroke-linecap="round" stroke-linejoin="miter" stroke="rgb(100%, 100%, 100%)" stroke-opacity="1" stroke-miterlimit="1" d="M 284.123472 324.000853 C 284.123472 324.000853 264.542473 273.6554 241.021396 324.12025 C 217.540117 374.545301 197.91932 324.239646 197.91932 324.239646 C 197.91932 324.239646 178.37812 273.894193 154.857043 324.319244 C 131.375764 374.784093 111.874363 324.040652 111.874363 324.040652 C 111.874363 324.040652 92.333164 273.6554 68.812086 324.12025 C 45.330807 374.545301 25.829407 324.279445 25.829407 324.279445 " transform="matrix(0.09815, 0, 0, -0.09815, 0, 45.36709)"/>
<path fill="none" stroke-width="9" stroke-linecap="round" stroke-linejoin="miter" stroke="rgb(100%, 100%, 100%)" stroke-opacity="1" stroke-miterlimit="1" d="M 25.829407 324.000853 C 25.829407 324.000853 45.410405 273.6554 68.891684 324.12025 C 92.412761 374.545301 112.033558 324.239646 112.033558 324.239646 C 112.033558 324.239646 131.574758 273.894193 155.095835 324.319244 C 178.577114 374.784093 198.078515 324.040652 198.078515 324.040652 C 198.078515 324.040652 217.579916 273.6554 241.140792 324.12025 C 264.622071 374.545301 284.123472 324.279445 284.123472 324.279445 " transform="matrix(0.09815, 0, 0, -0.09815, 0, 45.36709)"/>
<path fill="none" stroke-width="4.5" stroke-linecap="round" stroke-linejoin="miter" stroke="rgb(13.729858%, 12.159729%, 12.548828%)" stroke-opacity="1" stroke-miterlimit="1" d="M 288.660532 323.961055 C 288.660532 323.961055 269.079534 273.6554 245.558456 324.12025 C 222.077178 374.545301 202.456381 324.239646 202.456381 324.239646 C 202.456381 324.239646 182.915181 273.894193 159.394103 324.319244 C 135.912825 374.784093 116.411424 324.000853 116.411424 324.000853 C 116.411424 324.000853 96.870224 273.6554 73.349147 324.12025 C 49.828069 374.545301 30.366467 324.279445 30.366467 324.279445 " transform="matrix(0.09815, 0, 0, -0.09815, 0, 45.36709)"/>
<path fill="none" stroke-width="9" stroke-linecap="round" stroke-linejoin="miter" stroke="rgb(13.729858%, 12.159729%, 12.548828%)" stroke-opacity="1" stroke-miterlimit="1" d="M 30.366467 323.961055 C 30.366467 323.961055 49.907667 273.6554 73.428744 324.12025 C 96.949822 374.545301 116.570619 324.239646 116.570619 324.239646 C 116.570619 324.239646 136.111819 273.894193 159.593097 324.319244 C 183.114175 374.784093 202.615576 324.000853 202.615576 324.000853 C 202.615576 324.000853 222.116977 273.6554 245.638054 324.12025 C 269.159131 374.545301 288.660532 324.279445 288.660532 324.279445 " transform="matrix(0.09815, 0, 0, -0.09815, 0, 45.36709)"/>
<path fill="none" stroke-width="4.5" stroke-linecap="round" stroke-linejoin="miter" stroke="rgb(100%, 100%, 100%)" stroke-opacity="1" stroke-miterlimit="1" d="M 284.123472 324.000853 C 284.123472 324.000853 264.542473 273.6554 241.021396 324.12025 C 217.540117 374.545301 197.91932 324.239646 197.91932 324.239646 C 197.91932 324.239646 178.37812 273.894193 154.857043 324.319244 C 131.375764 374.784093 111.874363 324.040652 111.874363 324.040652 C 111.874363 324.040652 92.333164 273.6554 68.812086 324.12025 C 45.330807 374.545301 25.829407 324.279445 25.829407 324.279445 " transform="matrix(0.09815, 0, 0, -0.09815, 0, 45.36709)"/>
<path fill="none" stroke-width="9" stroke-linecap="round" stroke-linejoin="miter" stroke="rgb(100%, 100%, 100%)" stroke-opacity="1" stroke-miterlimit="1" d="M 25.829407 324.000853 C 25.829407 324.000853 45.410405 273.6554 68.891684 324.12025 C 92.412761 374.545301 112.033558 324.239646 112.033558 324.239646 C 112.033558 324.239646 131.574758 273.894193 155.095835 324.319244 C 178.577114 374.784093 198.078515 324.040652 198.078515 324.040652 C 198.078515 324.040652 217.579916 273.6554 241.140792 324.12025 C 264.622071 374.545301 284.123472 324.279445 284.123472 324.279445 " transform="matrix(0.09815, 0, 0, -0.09815, 0, 45.36709)"/>
<path fill="none" stroke-width="4.5" stroke-linecap="round" stroke-linejoin="miter" stroke="rgb(13.729858%, 12.159729%, 12.548828%)" stroke-opacity="1" stroke-miterlimit="1" d="M 288.660532 323.961055 C 288.660532 323.961055 269.079534 273.6554 245.558456 324.12025 C 222.077178 374.545301 202.456381 324.239646 202.456381 324.239646 C 202.456381 324.239646 182.915181 273.894193 159.394103 324.319244 C 135.912825 374.784093 116.411424 324.000853 116.411424 324.000853 C 116.411424 324.000853 96.870224 273.6554 73.349147 324.12025 C 49.828069 374.545301 30.366467 324.279445 30.366467 324.279445 " transform="matrix(0.09815, 0, 0, -0.09815, 0, 45.36709)"/>
<path fill="none" stroke-width="9" stroke-linecap="round" stroke-linejoin="miter" stroke="rgb(13.729858%, 12.159729%, 12.548828%)" stroke-opacity="1" stroke-miterlimit="1" d="M 30.366467 323.961055 C 30.366467 323.961055 49.907667 273.6554 73.428744 324.12025 C 96.949822 374.545301 116.570619 324.239646 116.570619 324.239646 C 116.570619 324.239646 136.111819 273.894193 159.593097 324.319244 C 183.114175 374.784093 202.615576 324.000853 202.615576 324.000853 C 202.615576 324.000853 222.116977 273.6554 245.638054 324.12025 C 269.159131 374.545301 288.660532 324.279445 288.660532 324.279445 " transform="matrix(0.09815, 0, 0, -0.09815, 0, 45.36709)"/>
<path fill="none" stroke-width="4.5" stroke-linecap="round" stroke-linejoin="miter" stroke="rgb(100%, 100%, 100%)" stroke-opacity="1" stroke-miterlimit="1" d="M 284.123472 324.000853 C 284.123472 324.000853 264.542473 273.6554 241.021396 324.12025 C 217.540117 374.545301 197.91932 324.239646 197.91932 324.239646 C 197.91932 324.239646 178.37812 273.894193 154.857043 324.319244 C 131.375764 374.784093 111.874363 324.040652 111.874363 324.040652 C 111.874363 324.040652 92.333164 273.6554 68.812086 324.12025 C 45.330807 374.545301 25.829407 324.279445 25.829407 324.279445 " transform="matrix(0.09815, 0, 0, -0.09815, 0, 45.36709)"/>
<path fill="none" stroke-width="9" stroke-linecap="round" stroke-linejoin="miter" stroke="rgb(100%, 100%, 100%)" stroke-opacity="1" stroke-miterlimit="1" d="M 25.829407 324.000853 C 25.829407 324.000853 45.410405 273.6554 68.891684 324.12025 C 92.412761 374.545301 112.033558 324.239646 112.033558 324.239646 C 112.033558 324.239646 131.574758 273.894193 155.095835 324.319244 C 178.577114 374.784093 198.078515 324.040652 198.078515 324.040652 C 198.078515 324.040652 217.579916 273.6554 241.140792 324.12025 C 264.622071 374.545301 284.123472 324.279445 284.123472 324.279445 " transform="matrix(0.09815, 0, 0, -0.09815, 0, 45.36709)"/>
<path fill-rule="nonzero" fill="rgb(100%, 100%, 100%)" fill-opacity="1" d="M 16.28125 27.769531 L 16.28125 22.101562 L 17.246094 22.101562 L 15.828125 19.964844 L 14.40625 22.101562 L 15.367188 22.101562 L 15.367188 27.769531 L 16.28125 27.769531 "/>
<path fill-rule="nonzero" fill="rgb(100%, 100%, 100%)" fill-opacity="1" d="M 13.390625 28.585938 L 9.386719 24.582031 L 10.066406 23.902344 L 7.550781 23.390625 L 8.058594 25.90625 L 8.738281 25.226562 L 12.746094 29.234375 L 13.390625 28.585938 "/>
<path fill-rule="nonzero" fill="rgb(100%, 100%, 100%)" fill-opacity="1" d="M 11.925781 31.210938 L 6.261719 31.210938 L 6.261719 30.25 L 4.121094 31.667969 L 6.261719 33.085938 L 6.261719 32.125 L 11.925781 32.125 L 11.925781 31.210938 "/>
<path fill-rule="nonzero" fill="rgb(100%, 100%, 100%)" fill-opacity="1" d="M 12.746094 34.101562 L 8.738281 38.109375 L 8.058594 37.429688 L 7.550781 39.945312 L 10.066406 39.433594 L 9.386719 38.753906 L 13.390625 34.75 L 12.746094 34.101562 "/>
<path fill-rule="nonzero" fill="rgb(100%, 100%, 100%)" fill-opacity="1" d="M 15.367188 35.566406 L 15.367188 41.230469 L 14.40625 41.230469 L 15.828125 43.371094 L 17.246094 41.230469 L 16.28125 41.230469 L 16.28125 35.566406 L 15.367188 35.566406 "/>
<path fill-rule="nonzero" fill="rgb(100%, 100%, 100%)" fill-opacity="1" d="M 18.257812 34.75 L 22.265625 38.753906 L 21.585938 39.433594 L 24.101562 39.945312 L 23.59375 37.429688 L 22.914062 38.109375 L 18.90625 34.101562 L 18.257812 34.75 "/>
<path fill-rule="nonzero" fill="rgb(100%, 100%, 100%)" fill-opacity="1" d="M 19.726562 32.125 L 25.390625 32.125 L 25.390625 33.085938 L 27.53125 31.667969 L 25.390625 30.25 L 25.390625 31.210938 L 19.726562 31.210938 L 19.726562 32.125 "/>
<path fill-rule="nonzero" fill="rgb(100%, 100%, 100%)" fill-opacity="1" d="M 18.90625 29.234375 L 22.914062 25.226562 L 23.59375 25.90625 L 24.101562 23.390625 L 21.585938 23.902344 L 22.265625 24.582031 L 18.257812 28.585938 L 18.90625 29.234375 "/>
<path fill-rule="nonzero" fill="rgb(100%, 100%, 100%)" fill-opacity="1" d="M 19.304688 36.464844 C 21.976562 34.589844 22.628906 30.90625 20.753906 28.234375 C 18.882812 25.558594 15.199219 24.910156 12.523438 26.78125 C 9.851562 28.652344 9.203125 32.339844 11.074219 35.011719 C 12.945312 37.6875 16.628906 38.335938 19.304688 36.464844 "/>
<path fill-rule="nonzero" fill="rgb(13.729858%, 12.159729%, 12.548828%)" fill-opacity="1" d="M 11.644531 5.550781 L 14.773438 5.289062 L 14.183594 6.175781 L 13.355469 6.019531 L 9.933594 7.324219 L 9.105469 7.117188 L 12.410156 5.863281 L 11.644531 5.550781 "/>
<path fill-rule="nonzero" fill="rgb(13.729858%, 12.159729%, 12.548828%)" fill-opacity="1" d="M 24.984375 5.601562 L 22.269531 5.1875 L 22.5625 6.175781 L 23.273438 6.074219 L 25.753906 7.167969 L 26.578125 6.960938 L 24.15625 5.917969 L 24.984375 5.601562 "/>
<path fill-rule="nonzero" fill="rgb(13.729858%, 12.159729%, 12.548828%)" fill-opacity="1" d="M 20.261719 2.785156 L 18.902344 2.679688 L 23.332031 1.6875 L 25.222656 3.046875 L 23.804688 2.941406 L 23.507812 2.941406 L 21.148438 4.457031 L 17.902344 4.457031 L 20.441406 2.785156 L 20.261719 2.785156 "/>
<path fill-rule="nonzero" fill="rgb(13.729858%, 12.159729%, 12.548828%)" fill-opacity="1" d="M 17.488281 6.386719 L 16.542969 6.386719 L 19.023438 5.027344 L 19.199219 6.386719 L 18.195312 6.386719 L 18.3125 6.386719 L 17.074219 7.585938 L 16.1875 7.585938 L 17.429688 6.386719 L 17.488281 6.386719 "/>
<path fill-rule="nonzero" fill="rgb(100%, 100%, 100%)" fill-opacity="1" d="M 11.523438 5.445312 L 14.652344 5.1875 L 14.0625 6.074219 L 13.238281 5.917969 L 9.8125 7.222656 L 8.988281 7.011719 L 12.292969 5.761719 L 11.523438 5.445312 "/>
<path fill-rule="nonzero" fill="rgb(100%, 100%, 100%)" fill-opacity="1" d="M 24.867188 5.5 L 22.152344 5.082031 L 22.445312 6.074219 L 23.15625 5.96875 L 25.632812 7.066406 L 26.460938 6.855469 L 24.039062 5.8125 L 24.867188 5.5 "/>
<path fill-rule="nonzero" fill="rgb(100%, 100%, 100%)" fill-opacity="1" d="M 20.144531 2.679688 L 18.785156 2.578125 L 23.210938 1.585938 L 25.101562 2.941406 L 23.683594 2.835938 L 23.390625 2.835938 L 21.03125 4.351562 L 17.78125 4.351562 L 20.320312 2.679688 L 20.144531 2.679688 "/>
<path fill-rule="nonzero" fill="rgb(100%, 100%, 100%)" fill-opacity="1" d="M 17.367188 6.28125 L 16.425781 6.28125 L 18.902344 4.925781 L 19.082031 6.28125 L 18.078125 6.28125 L 18.195312 6.28125 L 16.957031 7.480469 L 16.070312 7.480469 L 17.308594 6.28125 L 17.367188 6.28125 "/>
</svg>
