<?xml version="1.0" encoding="UTF-8"?>
<svg xmlns="http://www.w3.org/2000/svg" xmlns:xlink="http://www.w3.org/1999/xlink" width="48.8" height="27.5" viewBox="0 0 48.8 27.5">
<defs>
<clipPath id="clip-0">
<path clip-rule="nonzero" d="M 0.335938 0 L 48 0 L 48 12 L 0.335938 12 Z M 0.335938 0 "/>
</clipPath>
<clipPath id="clip-1">
<path clip-rule="nonzero" d="M 0.335938 0 L 48.265625 0 L 48.265625 15 L 0.335938 15 Z M 0.335938 0 "/>
</clipPath>
<clipPath id="clip-2">
<path clip-rule="nonzero" d="M 33 0 L 48.265625 0 L 48.265625 27.007812 L 33 27.007812 Z M 33 0 "/>
</clipPath>
<clipPath id="clip-3">
<path clip-rule="nonzero" d="M 0.335938 11 L 37 11 L 37 27 L 0.335938 27 Z M 0.335938 11 "/>
</clipPath>
</defs>
<g clip-path="url(#clip-0)">
<path fill-rule="nonzero" fill="rgb(3.022766%, 50.531006%, 75.683594%)" fill-opacity="1" d="M 0.894531 11.902344 L 15.0625 0.441406 L 47.78125 0.441406 L 36.050781 11.902344 L 0.894531 11.902344 "/>
</g>
<g clip-path="url(#clip-1)">
<path fill="none" stroke-width="4" stroke-linecap="butt" stroke-linejoin="miter" stroke="rgb(100%, 100%, 100%)" stroke-opacity="1" stroke-miterlimit="4" d="M 5.671591 153.8125 L 149.927273 270.505682 L 483.063636 270.505682 L 363.626136 153.8125 Z M 5.671591 153.8125 " transform="matrix(0.0982143, 0, 0, -0.0982143, 0.3375, 27.008929)"/>
</g>
<path fill-rule="nonzero" fill="rgb(3.022766%, 50.531006%, 75.683594%)" fill-opacity="1" d="M 36.050781 26.527344 L 47.78125 14.578125 L 47.78125 0.464844 L 36.050781 11.902344 L 36.050781 26.527344 "/>
<g clip-path="url(#clip-2)">
<path fill="none" stroke-width="4" stroke-linecap="butt" stroke-linejoin="miter" stroke="rgb(100%, 100%, 100%)" stroke-opacity="1" stroke-miterlimit="4" d="M 363.626136 4.903409 L 483.063636 126.568182 L 483.063636 270.267045 L 363.626136 153.8125 Z M 363.626136 4.903409 " transform="matrix(0.0982143, 0, 0, -0.0982143, 0.3375, 27.008929)"/>
</g>
<g clip-path="url(#clip-3)">
<path fill-rule="nonzero" fill="rgb(3.022766%, 50.531006%, 75.683594%)" fill-opacity="1" d="M 36.050781 26.539062 L 36.050781 11.902344 L 0.941406 11.902344 L 0.941406 26.539062 L 36.050781 26.539062 "/>
<path fill="none" stroke-width="4" stroke-linecap="butt" stroke-linejoin="miter" stroke="rgb(100%, 100%, 100%)" stroke-opacity="1" stroke-miterlimit="4" d="M 363.626136 4.784091 L 363.626136 153.8125 L 6.148864 153.8125 L 6.148864 4.784091 Z M 363.626136 4.784091 " transform="matrix(0.0982143, 0, 0, -0.0982143, 0.3375, 27.008929)"/>
</g>
<path fill-rule="nonzero" fill="rgb(100%, 100%, 100%)" fill-opacity="1" d="M 11.550781 7.738281 L 15.929688 7.3125 L 15.296875 9.136719 L 13.964844 8.496094 L 9.171875 10.550781 L 8 10.230469 L 12.65625 8.207031 L 11.550781 7.738281 "/>
<path fill-rule="nonzero" fill="rgb(100%, 100%, 100%)" fill-opacity="1" d="M 30.273438 7.808594 L 26.460938 7.15625 L 26.640625 9.160156 L 27.910156 8.542969 L 31.359375 10.285156 L 32.492188 9.980469 L 29.15625 8.28125 L 30.273438 7.808594 "/>
<path fill="none" stroke-width="4.5" stroke-linecap="round" stroke-linejoin="miter" stroke="rgb(100%, 100%, 100%)" stroke-opacity="1" stroke-miterlimit="1" d="M 343.461364 75.102273 C 343.461364 75.102273 319.677273 13.931818 291.080682 75.301136 C 262.523864 136.590909 238.660227 75.380682 238.660227 75.380682 C 238.660227 75.380682 214.915909 14.210227 186.359091 75.539773 C 157.7625 136.869318 134.097727 75.142045 134.097727 75.142045 C 134.097727 75.142045 110.353409 13.931818 81.756818 75.301136 C 53.2 136.590909 29.495455 75.460227 29.495455 75.460227 " transform="matrix(0.0982143, 0, 0, -0.0982143, 0.3375, 27.008929)"/>
<path fill="none" stroke-width="9" stroke-linecap="round" stroke-linejoin="miter" stroke="rgb(100%, 100%, 100%)" stroke-opacity="1" stroke-miterlimit="1" d="M 29.495455 75.102273 C 29.495455 75.102273 53.279545 13.931818 81.876136 75.301136 C 110.432955 136.590909 134.296591 75.380682 134.296591 75.380682 C 134.296591 75.380682 158.040909 14.210227 186.597727 75.539773 C 215.194318 136.869318 238.859091 75.142045 238.859091 75.142045 C 238.859091 75.142045 262.603409 13.931818 291.2 75.301136 C 319.756818 136.590909 343.461364 75.460227 343.461364 75.460227 " transform="matrix(0.0982143, 0, 0, -0.0982143, 0.3375, 27.008929)"/>
<path fill="none" stroke-width="4.5" stroke-linecap="round" stroke-linejoin="miter" stroke="rgb(13.729858%, 12.159729%, 12.548828%)" stroke-opacity="1" stroke-miterlimit="1" d="M 348.989773 75.102273 C 348.989773 75.102273 325.205682 13.931818 296.609091 75.301136 C 268.0125 136.590909 244.188636 75.380682 244.188636 75.380682 C 244.188636 75.380682 220.444318 14.210227 191.847727 75.539773 C 163.290909 136.869318 139.586364 75.142045 139.586364 75.142045 C 139.586364 75.142045 115.881818 13.931818 87.285227 75.301136 C 58.688636 136.590909 34.984091 75.420455 34.984091 75.420455 " transform="matrix(0.0982143, 0, 0, -0.0982143, 0.3375, 27.008929)"/>
<path fill="none" stroke-width="9" stroke-linecap="round" stroke-linejoin="miter" stroke="rgb(13.729858%, 12.159729%, 12.548828%)" stroke-opacity="1" stroke-miterlimit="1" d="M 34.984091 75.102273 C 34.984091 75.102273 58.768182 13.931818 87.364773 75.301136 C 115.961364 136.590909 139.785227 75.380682 139.785227 75.380682 C 139.785227 75.380682 163.569318 14.210227 192.126136 75.539773 C 220.682955 136.869318 244.3875 75.142045 244.3875 75.142045 C 244.3875 75.142045 268.092045 13.931818 296.688636 75.301136 C 325.285227 136.590909 348.989773 75.420455 348.989773 75.420455 " transform="matrix(0.0982143, 0, 0, -0.0982143, 0.3375, 27.008929)"/>
<path fill="none" stroke-width="4.5" stroke-linecap="round" stroke-linejoin="miter" stroke="rgb(100%, 100%, 100%)" stroke-opacity="1" stroke-miterlimit="1" d="M 343.461364 75.102273 C 343.461364 75.102273 319.677273 13.931818 291.080682 75.301136 C 262.523864 136.590909 238.660227 75.380682 238.660227 75.380682 C 238.660227 75.380682 214.915909 14.210227 186.359091 75.539773 C 157.7625 136.869318 134.097727 75.142045 134.097727 75.142045 C 134.097727 75.142045 110.353409 13.931818 81.756818 75.301136 C 53.2 136.590909 29.495455 75.460227 29.495455 75.460227 " transform="matrix(0.0982143, 0, 0, -0.0982143, 0.3375, 27.008929)"/>
<path fill="none" stroke-width="9" stroke-linecap="round" stroke-linejoin="miter" stroke="rgb(100%, 100%, 100%)" stroke-opacity="1" stroke-miterlimit="1" d="M 29.495455 75.102273 C 29.495455 75.102273 53.279545 13.931818 81.876136 75.301136 C 110.432955 136.590909 134.296591 75.380682 134.296591 75.380682 C 134.296591 75.380682 158.040909 14.210227 186.597727 75.539773 C 215.194318 136.869318 238.859091 75.142045 238.859091 75.142045 C 238.859091 75.142045 262.603409 13.931818 291.2 75.301136 C 319.756818 136.590909 343.461364 75.460227 343.461364 75.460227 " transform="matrix(0.0982143, 0, 0, -0.0982143, 0.3375, 27.008929)"/>
<path fill="none" stroke-width="4.5" stroke-linecap="round" stroke-linejoin="miter" stroke="rgb(13.729858%, 12.159729%, 12.548828%)" stroke-opacity="1" stroke-miterlimit="1" d="M 348.989773 75.102273 C 348.989773 75.102273 325.205682 13.931818 296.609091 75.301136 C 268.0125 136.590909 244.188636 75.380682 244.188636 75.380682 C 244.188636 75.380682 220.444318 14.210227 191.847727 75.539773 C 163.290909 136.869318 139.586364 75.142045 139.586364 75.142045 C 139.586364 75.142045 115.881818 13.931818 87.285227 75.301136 C 58.688636 136.590909 34.984091 75.420455 34.984091 75.420455 " transform="matrix(0.0982143, 0, 0, -0.0982143, 0.3375, 27.008929)"/>
<path fill="none" stroke-width="9" stroke-linecap="round" stroke-linejoin="miter" stroke="rgb(13.729858%, 12.159729%, 12.548828%)" stroke-opacity="1" stroke-miterlimit="1" d="M 34.984091 75.102273 C 34.984091 75.102273 58.768182 13.931818 87.364773 75.301136 C 115.961364 136.590909 139.785227 75.380682 139.785227 75.380682 C 139.785227 75.380682 163.569318 14.210227 192.126136 75.539773 C 220.682955 136.869318 244.3875 75.142045 244.3875 75.142045 C 244.3875 75.142045 268.092045 13.931818 296.688636 75.301136 C 325.285227 136.590909 348.989773 75.420455 348.989773 75.420455 " transform="matrix(0.0982143, 0, 0, -0.0982143, 0.3375, 27.008929)"/>
<path fill="none" stroke-width="4.5" stroke-linecap="round" stroke-linejoin="miter" stroke="rgb(100%, 100%, 100%)" stroke-opacity="1" stroke-miterlimit="1" d="M 343.461364 75.102273 C 343.461364 75.102273 319.677273 13.931818 291.080682 75.301136 C 262.523864 136.590909 238.660227 75.380682 238.660227 75.380682 C 238.660227 75.380682 214.915909 14.210227 186.359091 75.539773 C 157.7625 136.869318 134.097727 75.142045 134.097727 75.142045 C 134.097727 75.142045 110.353409 13.931818 81.756818 75.301136 C 53.2 136.590909 29.495455 75.460227 29.495455 75.460227 " transform="matrix(0.0982143, 0, 0, -0.0982143, 0.3375, 27.008929)"/>
<path fill="none" stroke-width="9" stroke-linecap="round" stroke-linejoin="miter" stroke="rgb(100%, 100%, 100%)" stroke-opacity="1" stroke-miterlimit="1" d="M 29.495455 75.102273 C 29.495455 75.102273 53.279545 13.931818 81.876136 75.301136 C 110.432955 136.590909 134.296591 75.380682 134.296591 75.380682 C 134.296591 75.380682 158.040909 14.210227 186.597727 75.539773 C 215.194318 136.869318 238.859091 75.142045 238.859091 75.142045 C 238.859091 75.142045 262.603409 13.931818 291.2 75.301136 C 319.756818 136.590909 343.461364 75.460227 343.461364 75.460227 " transform="matrix(0.0982143, 0, 0, -0.0982143, 0.3375, 27.008929)"/>
<path fill-rule="nonzero" fill="rgb(100%, 100%, 100%)" fill-opacity="1" d="M 23.632812 3.308594 L 21.734375 3.183594 L 27.925781 1.597656 L 30.632812 3.710938 L 28.632812 3.605469 L 28.242188 3.585938 L 24.902344 5.964844 L 20.367188 5.992188 L 23.929688 3.332031 L 23.632812 3.308594 "/>
<path fill-rule="nonzero" fill="rgb(100%, 100%, 100%)" fill-opacity="1" d="M 19.769531 9.046875 L 18.457031 9.019531 L 21.914062 6.871094 L 22.132812 9.042969 L 20.734375 9.050781 L 20.953125 9.058594 L 19.199219 10.972656 L 17.910156 10.964844 L 19.671875 9.050781 L 19.769531 9.046875 "/>
</svg>
