<?xml version="1.0" encoding="UTF-8"?>
<svg xmlns="http://www.w3.org/2000/svg" xmlns:xlink="http://www.w3.org/1999/xlink" width="38.1" height="32.84" viewBox="0 0 38.1 32.84">
<defs>
<clipPath id="clip-0">
<path clip-rule="nonzero" d="M 26 0.339844 L 31 0.339844 L 31 22 L 26 22 Z M 26 0.339844 "/>
</clipPath>
<clipPath id="clip-1">
<path clip-rule="nonzero" d="M 24 0.339844 L 33 0.339844 L 33 24 L 24 24 Z M 24 0.339844 "/>
</clipPath>
<clipPath id="clip-2">
<path clip-rule="nonzero" d="M 28 24 L 37.125 24 L 37.125 32.382812 L 28 32.382812 Z M 28 24 "/>
</clipPath>
<clipPath id="clip-3">
<path clip-rule="nonzero" d="M 32 24 L 37.125 24 L 37.125 32.382812 L 32 32.382812 Z M 32 24 "/>
</clipPath>
<clipPath id="clip-4">
<path clip-rule="nonzero" d="M 4 0.339844 L 31 0.339844 L 31 5 L 4 5 Z M 4 0.339844 "/>
</clipPath>
<clipPath id="clip-5">
<path clip-rule="nonzero" d="M 2 0.339844 L 33 0.339844 L 33 7 L 2 7 Z M 2 0.339844 "/>
</clipPath>
<clipPath id="clip-6">
<path clip-rule="nonzero" d="M 23 24 L 32 24 L 32 32.382812 L 23 32.382812 Z M 23 24 "/>
</clipPath>
<clipPath id="clip-7">
<path clip-rule="nonzero" d="M 0 24 L 32 24 L 32 32.382812 L 0 32.382812 Z M 0 24 "/>
</clipPath>
<clipPath id="clip-8">
<path clip-rule="nonzero" d="M 0 30 L 27 30 L 27 32.382812 L 0 32.382812 Z M 0 30 "/>
</clipPath>
<clipPath id="clip-9">
<path clip-rule="nonzero" d="M 27 18 L 37.125 18 L 37.125 30 L 27 30 Z M 27 18 "/>
</clipPath>
</defs>
<path fill-rule="nonzero" fill="rgb(0%, 0%, 0%)" fill-opacity="1" d="M 30.511719 18.523438 L 27.695312 22.277344 L 4.382812 22.277344 L 8.203125 18.457031 L 30.511719 18.523438 "/>
<path fill="none" stroke-width="3.99994" stroke-linecap="butt" stroke-linejoin="miter" stroke="rgb(100%, 100%, 100%)" stroke-opacity="1" stroke-miterlimit="4" d="M 312.32468 141.86875 L 283.495325 103.442938 L 44.863435 103.442938 L 83.968996 142.548499 Z M 312.32468 141.86875 " transform="matrix(0.0976923, 0, 0, -0.0976923, 0, 32.382923)"/>
<path fill-rule="nonzero" fill="rgb(1.176453%, 41.175842%, 59.605408%)" fill-opacity="1" d="M 4.328125 26.496094 L 26.699219 26.496094 L 26.699219 22.324219 L 4.328125 22.324219 Z M 4.328125 26.496094 "/>
<path fill="none" stroke-width="3.99994" stroke-linecap="butt" stroke-linejoin="miter" stroke="rgb(100%, 100%, 100%)" stroke-opacity="1" stroke-miterlimit="4" d="M 44.303642 60.258883 L 44.303642 102.963115 L 273.29909 102.963115 L 273.29909 60.258883 Z M 44.303642 60.258883 " transform="matrix(0.0976923, 0, 0, -0.0976923, 0, 32.382923)"/>
<path fill-rule="nonzero" fill="rgb(1.176453%, 41.175842%, 59.605408%)" fill-opacity="1" d="M 4.253906 21.382812 L 26.550781 21.382812 L 26.550781 4.574219 L 4.253906 4.574219 Z M 4.253906 21.382812 "/>
<path fill="none" stroke-width="3.99994" stroke-linecap="butt" stroke-linejoin="miter" stroke="rgb(100%, 100%, 100%)" stroke-opacity="1" stroke-miterlimit="4" d="M 43.543922 284.656029 L 271.779651 284.656029 L 271.779651 112.599557 L 43.543922 112.599557 Z M 43.543922 284.656029 " transform="matrix(0.0976923, 0, 0, -0.0976923, 0, 32.382923)"/>
<g clip-path="url(#clip-0)">
<path fill-rule="nonzero" fill="rgb(1.176453%, 41.175842%, 59.605408%)" fill-opacity="1" d="M 26.550781 21.382812 L 30.351562 17.582031 L 30.351562 0.773438 L 26.550781 4.574219 L 26.550781 21.382812 "/>
</g>
<g clip-path="url(#clip-1)">
<path fill="none" stroke-width="3.99994" stroke-linecap="butt" stroke-linejoin="miter" stroke="rgb(100%, 100%, 100%)" stroke-opacity="1" stroke-miterlimit="4" d="M 271.779651 112.599557 L 310.685285 151.505192 L 310.685285 323.561663 L 271.779651 284.656029 Z M 271.779651 112.599557 " transform="matrix(0.0976923, 0, 0, -0.0976923, 0, 32.382923)"/>
</g>
<path fill-rule="nonzero" fill="rgb(1.176453%, 41.175842%, 59.605408%)" fill-opacity="1" d="M 34.972656 30.164062 L 36.679688 26.75 L 32.777344 26.75 L 31.070312 30.164062 L 34.972656 30.164062 "/>
<g clip-path="url(#clip-2)">
<path fill="none" stroke-width="3.99994" stroke-linecap="butt" stroke-linejoin="miter" stroke="rgb(100%, 100%, 100%)" stroke-opacity="1" stroke-miterlimit="4" d="M 357.98782 22.712746 L 375.461368 57.659843 L 335.516117 57.659843 L 318.042569 22.712746 Z M 357.98782 22.712746 " transform="matrix(0.0976923, 0, 0, -0.0976923, 0, 32.382923)"/>
</g>
<path fill-rule="nonzero" fill="rgb(1.176453%, 41.175842%, 59.605408%)" fill-opacity="1" d="M 31.070312 31.261719 L 34.972656 31.261719 L 34.972656 30.164062 L 31.070312 30.164062 Z M 31.070312 31.261719 "/>
<path fill="none" stroke-width="3.99994" stroke-linecap="butt" stroke-linejoin="miter" stroke="rgb(100%, 100%, 100%)" stroke-opacity="1" stroke-miterlimit="4" d="M 318.042569 22.712746 L 357.98782 22.712746 L 357.98782 11.476895 L 318.042569 11.476895 Z M 318.042569 22.712746 " transform="matrix(0.0976923, 0, 0, -0.0976923, 0, 32.382923)"/>
<path fill-rule="nonzero" fill="rgb(1.176453%, 41.175842%, 59.605408%)" fill-opacity="1" d="M 34.941406 31.292969 L 34.953125 30.164062 L 36.65625 26.75 L 36.648438 29.097656 L 34.941406 31.292969 "/>
<g clip-path="url(#clip-3)">
<path fill="none" stroke-width="3.99994" stroke-linecap="butt" stroke-linejoin="miter" stroke="rgb(100%, 100%, 100%)" stroke-opacity="1" stroke-miterlimit="4" d="M 357.667938 11.157013 L 357.787894 22.712746 L 375.221457 57.659843 L 375.141486 33.628716 Z M 357.667938 11.157013 " transform="matrix(0.0976923, 0, 0, -0.0976923, 0, 32.382923)"/>
</g>
<path fill-rule="nonzero" fill="rgb(1.176453%, 41.175842%, 59.605408%)" fill-opacity="1" d="M 26.683594 26.507812 L 26.683594 22.332031 L 30.460938 18.550781 L 30.460938 22.726562 L 26.683594 26.507812 "/>
<path fill="none" stroke-width="3.99994" stroke-linecap="butt" stroke-linejoin="miter" stroke="rgb(100%, 100%, 100%)" stroke-opacity="1" stroke-miterlimit="4" d="M 273.139149 60.138927 L 273.139149 102.883145 L 311.804872 141.588853 L 311.804872 98.844636 Z M 273.139149 60.138927 " transform="matrix(0.0976923, 0, 0, -0.0976923, 0, 32.382923)"/>
<path fill-rule="nonzero" fill="rgb(1.176453%, 41.175842%, 59.605408%)" fill-opacity="1" d="M 7.957031 6.511719 L 22.851562 6.511719 C 23.824219 6.511719 24.609375 7.300781 24.609375 8.269531 L 24.609375 17.679688 C 24.609375 18.648438 23.824219 19.433594 22.851562 19.433594 L 7.957031 19.433594 C 6.984375 19.433594 6.199219 18.648438 6.199219 17.679688 L 6.199219 8.269531 C 6.199219 7.300781 6.984375 6.511719 7.957031 6.511719 "/>
<path fill="none" stroke-width="3.99994" stroke-linecap="butt" stroke-linejoin="miter" stroke="rgb(100%, 100%, 100%)" stroke-opacity="1" stroke-miterlimit="4" d="M 81.449926 264.823351 L 233.913632 264.823351 C 243.869956 264.823351 251.906988 256.746334 251.906988 246.829995 L 251.906988 150.505561 C 251.906988 140.589222 243.869956 132.55219 233.913632 132.55219 L 81.449926 132.55219 C 71.493602 132.55219 63.45657 140.589222 63.45657 150.505561 L 63.45657 246.829995 C 63.45657 256.746334 71.493602 264.823351 81.449926 264.823351 Z M 81.449926 264.823351 " transform="matrix(0.0976923, 0, 0, -0.0976923, 0, 32.382923)"/>
<g clip-path="url(#clip-4)">
<path fill-rule="nonzero" fill="rgb(1.176453%, 41.175842%, 59.605408%)" fill-opacity="1" d="M 30.351562 0.773438 L 8.667969 0.773438 L 4.253906 4.574219 L 26.550781 4.574219 L 30.351562 0.773438 "/>
</g>
<g clip-path="url(#clip-5)">
<path fill="none" stroke-width="3.99994" stroke-linecap="butt" stroke-linejoin="miter" stroke="rgb(100%, 100%, 100%)" stroke-opacity="1" stroke-miterlimit="4" d="M 310.685285 323.561663 L 88.727239 323.561663 L 43.543922 284.656029 L 271.779651 284.656029 Z M 310.685285 323.561663 " transform="matrix(0.0976923, 0, 0, -0.0976923, 0, 32.382923)"/>
</g>
<path fill-rule="nonzero" fill="rgb(1.176453%, 41.175842%, 59.605408%)" fill-opacity="1" d="M 26.035156 31.910156 L 26.035156 30.558594 L 28.957031 26.519531 L 28.957031 28.992188 L 26.035156 31.910156 "/>
<g clip-path="url(#clip-6)">
<path fill="none" stroke-width="3.99994" stroke-linecap="butt" stroke-linejoin="miter" stroke="rgb(100%, 100%, 100%)" stroke-opacity="1" stroke-miterlimit="4" d="M 266.501599 4.839345 L 266.501599 18.674237 L 296.410556 60.018971 L 296.410556 34.708317 Z M 266.501599 4.839345 " transform="matrix(0.0976923, 0, 0, -0.0976923, 0, 32.382923)"/>
</g>
<path fill-rule="nonzero" fill="rgb(1.176453%, 41.175842%, 59.605408%)" fill-opacity="1" d="M 26.035156 30.578125 L 0.382812 30.578125 L 3.300781 26.519531 L 28.957031 26.519531 L 26.035156 30.578125 "/>
<g clip-path="url(#clip-7)">
<path fill="none" stroke-width="3.99994" stroke-linecap="butt" stroke-linejoin="miter" stroke="rgb(100%, 100%, 100%)" stroke-opacity="1" stroke-miterlimit="4" d="M 266.501599 18.474311 L 3.918553 18.474311 L 33.787525 60.018971 L 296.410556 60.018971 Z M 266.501599 18.474311 " transform="matrix(0.0976923, 0, 0, -0.0976923, 0, 32.382923)"/>
</g>
<path fill-rule="nonzero" fill="rgb(1.176453%, 41.175842%, 59.605408%)" fill-opacity="1" d="M 0.367188 31.910156 L 26.035156 31.910156 L 26.035156 30.578125 L 0.367188 30.578125 Z M 0.367188 31.910156 "/>
<g clip-path="url(#clip-8)">
<path fill="none" stroke-width="3.99994" stroke-linecap="butt" stroke-linejoin="miter" stroke="rgb(100%, 100%, 100%)" stroke-opacity="1" stroke-miterlimit="4" d="M 266.501599 18.474311 L 266.501599 4.839345 L 3.758612 4.839345 L 3.758612 18.474311 Z M 266.501599 18.474311 " transform="matrix(0.0976923, 0, 0, -0.0976923, 0, 32.382923)"/>
</g>
<g clip-path="url(#clip-9)">
<path fill="none" stroke-width="5" stroke-linecap="butt" stroke-linejoin="miter" stroke="rgb(1.176453%, 41.175842%, 59.605408%)" stroke-opacity="1" stroke-miterlimit="4" d="M 365.465059 56.4203 C 396.653543 71.374779 371.702756 135.031275 309.525714 103.163041 " transform="matrix(0.0976923, 0, 0, -0.0976923, 0, 32.382923)"/>
</g>
<path fill="none" stroke-width="5" stroke-linecap="butt" stroke-linejoin="miter" stroke="rgb(100%, 100%, 100%)" stroke-opacity="1" stroke-miterlimit="4" d="M 157.101993 172.537426 C 189.410064 172.537426 215.640379 184.453027 215.640379 199.127608 C 215.640379 213.842175 189.410064 225.757776 157.101993 225.757776 C 124.793922 225.757776 98.603593 213.842175 98.603593 199.127608 C 98.603593 184.453027 124.793922 172.537426 157.101993 172.537426 Z M 157.101993 172.537426 " transform="matrix(0.0976923, 0, 0, -0.0976923, 0, 32.382923)"/>
<path fill="none" stroke-width="5" stroke-linecap="butt" stroke-linejoin="miter" stroke="rgb(100%, 100%, 100%)" stroke-opacity="1" stroke-miterlimit="4" d="M 157.541831 163.02094 C 199.046506 163.02094 232.67409 179.374902 232.67409 199.567446 C 232.67409 219.720005 199.046506 236.073967 157.541831 236.073967 C 116.077141 236.073967 82.449557 219.720005 82.449557 199.567446 C 82.449557 179.374902 116.077141 163.02094 157.541831 163.02094 Z M 157.541831 163.02094 " transform="matrix(0.0976923, 0, 0, -0.0976923, 0, 32.382923)"/>
</svg>
