<?xml version="1.0" encoding="UTF-8"?>
<svg xmlns="http://www.w3.org/2000/svg" xmlns:xlink="http://www.w3.org/1999/xlink" width="31.63" height="32.84" viewBox="0 0 31.63 32.84">
<defs>
<clipPath id="clip-0">
<path clip-rule="nonzero" d="M 2 16 L 31.265625 16 L 31.265625 25 L 2 25 Z M 2 16 "/>
</clipPath>
<clipPath id="clip-1">
<path clip-rule="nonzero" d="M 26 0.109375 L 31 0.109375 L 31 22 L 26 22 Z M 26 0.109375 "/>
</clipPath>
<clipPath id="clip-2">
<path clip-rule="nonzero" d="M 24 0.109375 L 31.265625 0.109375 L 31.265625 24 L 24 24 Z M 24 0.109375 "/>
</clipPath>
<clipPath id="clip-3">
<path clip-rule="nonzero" d="M 24 16 L 31.265625 16 L 31.265625 29 L 24 29 Z M 24 16 "/>
</clipPath>
<clipPath id="clip-4">
<path clip-rule="nonzero" d="M 4 0.109375 L 31 0.109375 L 31 5 L 4 5 Z M 4 0.109375 "/>
</clipPath>
<clipPath id="clip-5">
<path clip-rule="nonzero" d="M 2 0.109375 L 31.265625 0.109375 L 31.265625 7 L 2 7 Z M 2 0.109375 "/>
</clipPath>
<clipPath id="clip-6">
<path clip-rule="nonzero" d="M 26 26 L 30 26 L 30 32.570312 L 26 32.570312 Z M 26 26 "/>
</clipPath>
<clipPath id="clip-7">
<path clip-rule="nonzero" d="M 24 24 L 31.265625 24 L 31.265625 32.570312 L 24 32.570312 Z M 24 24 "/>
</clipPath>
<clipPath id="clip-8">
<path clip-rule="nonzero" d="M 0 24 L 31.265625 24 L 31.265625 32.570312 L 0 32.570312 Z M 0 24 "/>
</clipPath>
<clipPath id="clip-9">
<path clip-rule="nonzero" d="M 0 30 L 27 30 L 27 32.570312 L 0 32.570312 Z M 0 30 "/>
</clipPath>
</defs>
<path fill-rule="nonzero" fill="rgb(1.176453%, 41.175842%, 59.605408%)" fill-opacity="1" d="M 30.871094 18.550781 L 28.023438 22.34375 L 4.4375 22.34375 L 8.300781 18.480469 L 30.871094 18.550781 "/>
<g clip-path="url(#clip-0)">
<path fill="none" stroke-width="3.99994" stroke-linecap="butt" stroke-linejoin="miter" stroke="rgb(100%, 100%, 100%)" stroke-opacity="1" stroke-miterlimit="4" d="M 312.322163 141.842934 L 283.512488 103.469554 L 44.894088 103.469554 L 83.978818 142.554284 Z M 312.322163 141.842934 " transform="matrix(0.0988438, 0, 0, -0.0988438, 0, 32.571069)"/>
</g>
<path fill-rule="nonzero" fill="rgb(1.176453%, 41.175842%, 59.605408%)" fill-opacity="1" d="M 4.378906 26.613281 L 27.015625 26.613281 L 27.015625 22.394531 L 4.378906 22.394531 Z M 4.378906 26.613281 "/>
<path fill="none" stroke-width="3.99994" stroke-linecap="butt" stroke-linejoin="miter" stroke="rgb(100%, 100%, 100%)" stroke-opacity="1" stroke-miterlimit="4" d="M 44.301296 60.274802 L 44.301296 102.955801 L 273.316472 102.955801 L 273.316472 60.274802 Z M 44.301296 60.274802 " transform="matrix(0.0988438, 0, 0, -0.0988438, 0, 32.571069)"/>
<path fill-rule="nonzero" fill="rgb(1.176453%, 41.175842%, 59.605408%)" fill-opacity="1" d="M 4.304688 21.445312 L 26.863281 21.445312 L 26.863281 4.4375 L 4.304688 4.4375 Z M 4.304688 21.445312 "/>
<path fill="none" stroke-width="3.99994" stroke-linecap="butt" stroke-linejoin="miter" stroke="rgb(100%, 100%, 100%)" stroke-opacity="1" stroke-miterlimit="4" d="M 43.550427 284.626684 L 271.775213 284.626684 L 271.775213 112.559026 L 43.550427 112.559026 Z M 43.550427 284.626684 " transform="matrix(0.0988438, 0, 0, -0.0988438, 0, 32.571069)"/>
<g clip-path="url(#clip-1)">
<path fill-rule="nonzero" fill="rgb(1.176453%, 41.175842%, 59.605408%)" fill-opacity="1" d="M 26.863281 21.445312 L 30.710938 17.59375 L 30.710938 0.585938 L 26.863281 4.4375 L 26.863281 21.445312 "/>
</g>
<g clip-path="url(#clip-2)">
<path fill="none" stroke-width="3.99994" stroke-linecap="butt" stroke-linejoin="miter" stroke="rgb(100%, 100%, 100%)" stroke-opacity="1" stroke-miterlimit="4" d="M 271.775213 112.559026 L 310.701865 151.525198 L 310.701865 323.592855 L 271.775213 284.626684 Z M 271.775213 112.559026 " transform="matrix(0.0988438, 0, 0, -0.0988438, 0, 32.571069)"/>
</g>
<path fill-rule="nonzero" fill="rgb(1.176453%, 41.175842%, 59.605408%)" fill-opacity="1" d="M 26.996094 26.625 L 26.996094 22.398438 L 30.820312 18.578125 L 30.820312 22.800781 L 26.996094 26.625 "/>
<g clip-path="url(#clip-3)">
<path fill="none" stroke-width="3.99994" stroke-linecap="butt" stroke-linejoin="miter" stroke="rgb(100%, 100%, 100%)" stroke-opacity="1" stroke-miterlimit="4" d="M 273.118874 60.156244 L 273.118874 102.916282 L 311.80841 141.566298 L 311.80841 98.845779 Z M 273.118874 60.156244 " transform="matrix(0.0988438, 0, 0, -0.0988438, 0, 32.571069)"/>
</g>
<path fill-rule="nonzero" fill="rgb(1.176453%, 41.175842%, 59.605408%)" fill-opacity="1" d="M 8.046875 6.394531 L 23.121094 6.394531 C 24.101562 6.394531 24.898438 7.191406 24.898438 8.171875 L 24.898438 17.695312 C 24.898438 18.675781 24.101562 19.46875 23.121094 19.46875 L 8.046875 19.46875 C 7.066406 19.46875 6.273438 18.675781 6.273438 17.695312 L 6.273438 8.171875 C 6.273438 7.191406 7.066406 6.394531 8.046875 6.394531 "/>
<path fill="none" stroke-width="3.99994" stroke-linecap="butt" stroke-linejoin="miter" stroke="rgb(100%, 100%, 100%)" stroke-opacity="1" stroke-miterlimit="4" d="M 81.410054 264.827442 L 233.915586 264.827442 C 243.834967 264.827442 251.896933 256.765476 251.896933 246.846095 L 251.896933 150.497692 C 251.896933 140.578312 243.834967 132.555865 233.915586 132.555865 L 81.410054 132.555865 C 71.490673 132.555865 63.468226 140.578312 63.468226 150.497692 L 63.468226 246.846095 C 63.468226 256.765476 71.490673 264.827442 81.410054 264.827442 Z M 81.410054 264.827442 " transform="matrix(0.0988438, 0, 0, -0.0988438, 0, 32.571069)"/>
<g clip-path="url(#clip-4)">
<path fill-rule="nonzero" fill="rgb(1.176453%, 41.175842%, 59.605408%)" fill-opacity="1" d="M 30.710938 0.585938 L 8.769531 0.585938 L 4.304688 4.4375 L 26.863281 4.4375 L 30.710938 0.585938 "/>
</g>
<g clip-path="url(#clip-5)">
<path fill="none" stroke-width="3.99994" stroke-linecap="butt" stroke-linejoin="miter" stroke="rgb(100%, 100%, 100%)" stroke-opacity="1" stroke-miterlimit="4" d="M 310.701865 323.592855 L 88.721151 323.592855 L 43.550427 284.626684 L 271.775213 284.626684 Z M 310.701865 323.592855 " transform="matrix(0.0988438, 0, 0, -0.0988438, 0, 32.571069)"/>
</g>
<g clip-path="url(#clip-6)">
<path fill-rule="nonzero" fill="rgb(1.176453%, 41.175842%, 59.605408%)" fill-opacity="1" d="M 26.34375 32.09375 L 26.34375 30.726562 L 29.296875 26.636719 L 29.296875 29.140625 L 26.34375 32.09375 "/>
</g>
<g clip-path="url(#clip-7)">
<path fill="none" stroke-width="3.99994" stroke-linecap="butt" stroke-linejoin="miter" stroke="rgb(100%, 100%, 100%)" stroke-opacity="1" stroke-miterlimit="4" d="M 266.519127 4.829023 L 266.519127 18.660828 L 296.395827 60.037686 L 296.395827 34.705722 Z M 266.519127 4.829023 " transform="matrix(0.0988438, 0, 0, -0.0988438, 0, 32.571069)"/>
</g>
<path fill-rule="nonzero" fill="rgb(1.176453%, 41.175842%, 59.605408%)" fill-opacity="1" d="M 26.34375 30.746094 L 0.386719 30.746094 L 3.339844 26.636719 L 29.296875 26.636719 L 26.34375 30.746094 "/>
<g clip-path="url(#clip-8)">
<path fill="none" stroke-width="3.99994" stroke-linecap="butt" stroke-linejoin="miter" stroke="rgb(100%, 100%, 100%)" stroke-opacity="1" stroke-miterlimit="4" d="M 266.519127 18.463231 L 3.912425 18.463231 L 33.789124 60.037686 L 296.395827 60.037686 Z M 266.519127 18.463231 " transform="matrix(0.0988438, 0, 0, -0.0988438, 0, 32.571069)"/>
</g>
<g clip-path="url(#clip-9)">
<path fill-rule="nonzero" fill="rgb(1.176453%, 41.175842%, 59.605408%)" fill-opacity="1" d="M 0.371094 32.09375 L 26.34375 32.09375 L 26.34375 30.746094 L 0.371094 30.746094 Z M 0.371094 32.09375 "/>
<path fill="none" stroke-width="3.99994" stroke-linecap="butt" stroke-linejoin="miter" stroke="rgb(100%, 100%, 100%)" stroke-opacity="1" stroke-miterlimit="4" d="M 266.519127 18.463231 L 266.519127 4.829023 L 3.754347 4.829023 L 3.754347 18.463231 Z M 266.519127 18.463231 " transform="matrix(0.0988438, 0, 0, -0.0988438, 0, 32.571069)"/>
</g>
<path fill-rule="nonzero" fill="rgb(1.176453%, 41.175842%, 59.605408%)" fill-opacity="1" d="M 13.257812 9.328125 C 10.621094 8.800781 9.226562 10.152344 9.449219 11.320312 L 9.464844 11.382812 C 7.410156 11.734375 7.949219 14.160156 8.933594 14.160156 L 9.03125 14.15625 C 8.800781 15.828125 11.273438 16.816406 12.523438 15.875 L 12.609375 15.78125 C 13 17.371094 18.316406 17.496094 19.386719 16.304688 L 19.484375 16.332031 C 21.8125 16.519531 22.871094 14.914062 22.363281 13.757812 L 22.488281 13.722656 C 23.28125 13.515625 23.375 11.683594 22.011719 11.414062 L 22.039062 11.339844 C 22.628906 10.148438 21.234375 9.027344 19.300781 9.238281 L 19.167969 9.167969 C 17.78125 7.914062 13.796875 8.117188 13.335938 9.359375 L 13.257812 9.328125 "/>
<path fill="none" stroke-width="3.99994" stroke-linecap="butt" stroke-linejoin="miter" stroke="rgb(100%, 100%, 100%)" stroke-opacity="1" stroke-miterlimit="4" d="M 134.128991 235.14834 C 107.453367 240.483465 93.344926 226.809738 95.597534 214.993424 L 95.755612 214.361113 C 74.968384 210.804363 80.422068 186.262788 90.380967 186.262788 L 91.368954 186.302308 C 89.037306 169.387986 114.053114 159.389567 126.699336 168.913753 L 127.568764 169.862219 C 131.520708 153.777806 185.306671 152.513184 196.134998 164.566614 L 197.122985 164.289978 C 220.676573 162.393045 231.386342 178.635536 226.248814 190.333291 L 227.513437 190.688966 C 235.535884 192.783497 236.48435 211.318116 222.692064 214.044957 L 222.968701 214.795827 C 228.936137 226.849257 214.827695 238.191337 195.265571 236.057287 L 193.92191 236.768637 C 179.892507 249.454379 139.582675 247.399368 134.91938 234.832185 Z M 134.128991 235.14834 " transform="matrix(0.0988438, 0, 0, -0.0988438, 0, 32.571069)"/>
</svg>
